<svg xmlns="http://www.w3.org/2000/svg" xmlns:xlink="http://www.w3.org/1999/xlink" viewBox="0 0 280.33 396.77"><defs><style>.cls-1{fill:none;}.cls-2{clip-path:url(#clip-path);}.cls-3{clip-path:url(#clip-path-2);}.cls-4{fill:#c72627;}.cls-5,.cls-9{fill:#2b2b2a;}.cls-6{clip-path:url(#clip-path-3);}.cls-7{fill:#fff;}.cls-8{clip-path:url(#clip-path-5);}.cls-9{font-size:29.85px;font-family:Charlotte;}.cls-10{clip-path:url(#clip-path-7);}.cls-11{fill:#6a3085;fill-rule:evenodd;}</style><clipPath id="clip-path"><rect class="cls-1" width="280.33" height="396.77"/></clipPath><clipPath id="clip-path-2"><rect class="cls-1" x="-0.49" width="281.32" height="396.77"/></clipPath><clipPath id="clip-path-3"><rect class="cls-1" x="0.83" y="1.33" width="278.67" height="395.44"/></clipPath><clipPath id="clip-path-5"><rect class="cls-1" x="291.52" y="1.33" width="278.67" height="394.12"/></clipPath><clipPath id="clip-path-7"><rect class="cls-1" x="269.87" y="316.36" width="83.02" height="75.15" transform="translate(-125.48 176.79) rotate(-26.59)"/></clipPath></defs><g id="Livello_2" data-name="Livello 2"><g id="Livello_1-2" data-name="Livello 1"><g class="cls-2"><g class="cls-3"><rect class="cls-4" x="0.83" y="1.33" width="278.67" height="395.44"/><polygon class="cls-5" points="0.83 395.44 279.5 396.77 279.5 281.49 0.83 276.41 0.83 395.44"/><polygon class="cls-5" points="35.81 287.59 35.81 185.94 45.5 99.41 74.41 87.39 74.41 42.22 80.16 64.39 98.23 64.39 104.8 42.22 104.8 88.21 132.02 105.25 143.44 188.74 162.64 279.19 35.81 287.59"/><polygon class="cls-5" points="117.97 144.22 117.97 154.95 114.47 154.95 114.47 157.66 101.89 157.66 101.89 154.95 87.67 154.95 87.67 157.66 83.39 157.66 83.39 165.97 81.9 165.97 81.9 180.01 83.39 180.01 83.39 187.16 81.9 187.16 81.9 201.48 83.39 201.48 83.39 208.36 81.9 208.36 81.9 216.51 66.22 216.51 66.22 190.47 61.08 190.47 61.08 187.16 41.49 187.16 41.49 190.47 34.48 190.47 34.48 183.59 29.12 183.59 29.12 190.47 23.15 190.47 23.15 235.07 21.5 235.07 21.5 223.23 17.58 223.23 17.58 235.07 12.63 235.07 12.63 233.69 9.75 233.69 9.75 235.07 4.59 235.07 4.59 227.36 0.83 227.36 0.83 293.91 23.15 293.91 47.52 293.91 66.22 293.91 83.39 293.91 90.6 293.91 102.61 293.91 126.46 293.91 134.77 293.91 145.68 293.91 165.32 293.91 177.84 293.91 203.05 293.91 208.39 293.91 241.39 293.91 246.12 293.91 279.5 293.91 279.5 199.17 241.39 199.17 241.39 205.06 240.01 205.06 240.01 216.25 241.39 216.25 241.39 221.03 240.01 221.03 240.01 233.69 241.39 233.69 241.39 239.47 240.01 239.47 240.01 250.74 208.39 258.01 208.39 237.55 209.92 237.55 209.92 223.23 208.39 223.23 208.39 216.51 191.16 216.51 191.16 213.32 160.24 213.32 160.24 208.36 157.56 208.36 157.56 216.51 145.39 216.51 145.39 206.71 141.47 206.71 141.47 216.51 134.77 216.51 134.77 227.88 126.46 227.88 126.46 157.66 119.83 157.66 119.83 144.22 117.97 144.22"/><g class="cls-6"><path class="cls-7" d="M224.07,58.07a39.11,39.11,0,1,1-43.84-33.71,39.11,39.11,0,0,1,43.84,33.71"/><polyline class="cls-7" points="161.17 93.92 296.46 225.28 218.37 42.25"/><path class="cls-4" d="M170.45,46.29h0a.14.14,0,0,1-.07.11,7.92,7.92,0,0,0-.69.61,7.38,7.38,0,0,0-1.28,1.6,4.11,4.11,0,0,0-.41,1,2.53,2.53,0,0,0,.27,2,3.55,3.55,0,0,0,.83.94,7.09,7.09,0,0,0,1.52,1,10.63,10.63,0,0,0,1.1.46c.3.09.6.22.9.3.56.15,1.11.34,1.67.45s1,.23,1.5.31l1.49.25c.57.1,1.15.15,1.73.22.35,0,.7.07,1.05.11s.27,0,.33-.23c.13-.66.27-1.32.39-2s.23-1.13.34-1.7c.14-.8.32-1.59.46-2.39,0-.05,0-.11.07-.13a.24.24,0,0,1,.09.14c.2.49.4,1,.58,1.48l.64,1.59a2.34,2.34,0,0,1,.09.24c0,.14.06.15.2.15h2.06a.2.2,0,0,0,.22-.15c.06-.18.11-.36.18-.53.19-.48.36-1,.55-1.46l.18-.48c.09-.28.2-.55.31-.83,0,0,0-.1.09-.12a.37.37,0,0,1,.07.2c.11.62.25,1.24.35,1.86s.27,1.36.38,2.05c.07.4.15.79.23,1.19s.12.64.18,1c0,.16,0,.17.2.17l.8,0c.49,0,1-.06,1.49-.11l1.31-.13c.68-.09,1.34-.21,2-.34a14.93,14.93,0,0,0,1.86-.48,11.5,11.5,0,0,0,1.12-.4,12.51,12.51,0,0,0,1.22-.6A6.24,6.24,0,0,0,199,53a5.48,5.48,0,0,0,.59-.59,3.14,3.14,0,0,0,.57-.92,3.33,3.33,0,0,0,.23-1.53,5,5,0,0,0-.26-1.23,8.19,8.19,0,0,0-1-2c-.09-.14-.18-.28-.28-.42a.13.13,0,0,1,.13,0l.39.1c.4.12.79.24,1.18.38s.72.25,1.07.39c.6.23,1.19.47,1.77.74s1.38.66,2.06,1c.52.29,1,.59,1.54.91s1.07.71,1.59,1.1a18.18,18.18,0,0,1,1.44,1.19l.62.6c.33.32.64.65.94,1a15.41,15.41,0,0,1,1,1.27,14.26,14.26,0,0,1,1.87,3.7c.1.35.22.69.29,1a11.44,11.44,0,0,1,.24,1.3v.31a.28.28,0,0,1-.13,0c-.23,0-.44-.11-.67-.15l-1.67-.3c-.5-.09-1-.12-1.5-.17-.34,0-.69-.06-1-.09s-.76,0-1.14,0a5.2,5.2,0,0,0-.68,0c-.41,0-.83,0-1.25.07s-.66.08-1,.13a9.85,9.85,0,0,0-1.22.29,6.24,6.24,0,0,0-1.34.53,5.2,5.2,0,0,0-1.34,1,5.29,5.29,0,0,0-.52.65,4.6,4.6,0,0,0-.5,1,6.67,6.67,0,0,0-.29,1.53c0,.18,0,.36,0,.55s0,.13-.14.06-.27-.19-.41-.27a8.84,8.84,0,0,0-1.76-.83A9.38,9.38,0,0,0,197,65a8.6,8.6,0,0,0-1.24-.17,9.89,9.89,0,0,0-2.17.12,9.4,9.4,0,0,0-1.72.5,10,10,0,0,0-1.7.86,14.12,14.12,0,0,0-1.41,1,17.7,17.7,0,0,0-1.53,1.47c-.5.55-1,1.12-1.41,1.71s-.71,1-1,1.51l-.62,1h-.07a14.66,14.66,0,0,0-.81-1.24c-.24-.34-.49-.68-.75-1s-.38-.45-.57-.68-.55-.63-.84-.93a19,19,0,0,0-1.81-1.65c-.23-.17-.46-.35-.69-.51s-.66-.45-1-.65a12.55,12.55,0,0,0-1.16-.58,9.26,9.26,0,0,0-1.37-.48,8.42,8.42,0,0,0-1.64-.29,8.79,8.79,0,0,0-1.7.06,10,10,0,0,0-1.55.36,8.49,8.49,0,0,0-1.43.6l-.43.22c-.12.07-.14.06-.15-.09s0-.29,0-.44a5,5,0,0,0-.52-1.59,5.09,5.09,0,0,0-.86-1.19A5.34,5.34,0,0,0,165.7,62a7.83,7.83,0,0,0-2-.89,11.69,11.69,0,0,0-1.76-.36l-1.15-.12c-.35,0-.7,0-1,0a4.93,4.93,0,0,0-.55,0l-.83,0-1.06.08-.5,0c-.46.06-.92.12-1.37.2s-1.12.17-1.68.29a1.38,1.38,0,0,1-.5.07v0a.87.87,0,0,0,.07-.17,4.18,4.18,0,0,1,.15-.61c.2-.62.4-1.24.66-1.84.18-.41.36-.82.57-1.21a16.84,16.84,0,0,1,.85-1.49c.22-.35.45-.7.7-1s.37-.48.55-.73.56-.68.86-1a17.86,17.86,0,0,1,1.31-1.3c.35-.32.71-.63,1.09-.93s1-.74,1.49-1.08,1-.66,1.59-1l1-.52a3.73,3.73,0,0,1,.4-.2c.35-.14.69-.32,1-.45s.4-.17.6-.24c.48-.17.94-.36,1.43-.5.32-.1.64-.22,1-.3.64-.17,1.27-.35,1.91-.48"/><path class="cls-4" d="M125.54,298.66c-1.2,2.92-2.42,5.84-3.6,8.76-1.06,2.61-2.17,5.2-3.09,7.86-.67,1.94-2.21,1.2-3.45,1.39s-1.2-.88-1.4-1.6c-1.38-4.93-2.73-9.88-4.09-14.82a2.94,2.94,0,0,0-.87-1.53c0,1,0,2,0,3,0,4.19-.09,8.38-.09,12.57a1.73,1.73,0,0,1-1.64,1.89,29.79,29.79,0,0,1-5.58.52c-1.34,0-1.76-.53-1.71-1.79.2-5.25.35-10.51.54-15.76s.44-10.75.59-16.12c0-1,.29-1.32,1.28-1.58,2.66-.7,5.34-.42,8-.47,1.18,0,1.13,1,1.32,1.75,1.77,6.51,3.5,13,5.25,19.56.06.24.14.47.29,1a22.68,22.68,0,0,0,1.89-4.75c1.55-4.53,3.1-9.07,4.5-13.66.41-1.33,1.35-1.46,2.34-1.61,1.73-.25,3.68-.61,5.18.08,1.89.87.75,3,.84,4.57.61,10.93.45,21.88.81,32.82.06,1.9-.45,2.66-2.44,2.76-4,.22-4.06.33-4.07-3.76,0-7,0-13.95,0-20.93l-.8-.16"/><path class="cls-4" d="M141.55,313.09c-3.37,0-3.81-.53-3.18-3.82,1.18-6.17,2.61-12.32,3.37-18.54.5-4.08,2.21-7.72,3.14-11.62.84-3.5.44-4.24-3.14-3.87-2.07.21-4.12.21-6.18.23-.92,0-1.45-.32-1.33-1.33a1.15,1.15,0,0,0,0-.19c-.05-4.47,0-4.35,4.43-4.66,3-.22,6,.25,9,0,5.41-.37,10.82-.69,16.25-.69.87,0,1.75-.06,2.63,0,2.84.07,2.84.08,2.8,2.44,0,3.25-.67,4-3.24,4.06a20.88,20.88,0,0,0-5.4.32c-1.06.3-1.34.77-1.07,1.72a50.28,50.28,0,0,1,1.6,12.41,21.83,21.83,0,0,0,1.65,7.45c1.85,4.5,1.53,9.31,2.09,14,.1.84-.36,1.13-1.07,1.2-1.8.18-3.6.2-5.4.46s-2.43-.44-2.75-2.82c-.17-1.29.53-2.87-.39-3.81s-2.48.13-3.74-.2a8.13,8.13,0,0,0-1.28-.28c-2.7-.21-4.38.53-4.63,3.68-.29,3.8-.28,3.8-4.19,3.85m9.17-36a1.74,1.74,0,0,0-.36.44c-2.57,7.14-3.39,14.68-5,22.06-.18.86.21,1.1,1,1.09,2.06,0,4.12,0,6.18,0,2.23,0,2.2,0,1.82-2.14-1.11-6.3-2.74-12.52-2.93-19a3.38,3.38,0,0,0-.76-2.47"/><path class="cls-4" d="M179.27,298.76c0,5.48,0,11,0,16.46a36.36,36.36,0,0,1-.23,6.17,2.17,2.17,0,0,1-2,2c-4.78.82-5.26.43-5.31-4.31-.09-8.94-.16-17.89-.41-26.82-.07-2.41.14-4.84-.48-7.25a9,9,0,0,1,.28-3.3c.1-.74.73-.77,1.3-.78,1.88,0,3.75,0,5.63,0,1.28,0,1.68.9,2.05,1.85q3.06,8,6.12,16c.31.82.68,1.61,1.22,2.86.33-3.26-.1-6.06-.12-8.85,0-3.5-.08-7-.17-10.5,0-1.14.36-1.54,1.51-1.49,2.12.09,4.25.06,6.37,0,1,0,1.32.4,1.33,1.35.09,6,.54,12,.22,18-.3,5.49-.06,11-.48,16.46-.19,2.43-.44,2.62-2.87,2.62-.69,0-1.38-.07-2.06,0-1.67.16-2.53-.57-3.2-2.13-2.66-6.19-5.48-12.31-8.24-18.46l-.44.06"/><path class="cls-4" d="M51.61,282.05c4.46-1.05,9.67-.42,14.8-1.1a62.36,62.36,0,0,1,8.43-.07c.19,0,.46,0,.54.1,1.08,1.44.47,3.1.54,4.67,0,1.06-.86,1.27-1.71,1.31a22,22,0,0,1-2.81,0c-1.22-.08-1.51.28-1.15,1.51A78.31,78.31,0,0,1,73,298.79c.87,5.91,3.18,11.31,5.2,16.83.69,1.89.43,4,1.24,5.92.24.56-.23.68-.67.87-2.15,1-4.52.84-6.76,1.31-.7.15-.86-.62-1.06-1.12a35.81,35.81,0,0,1-2-6.81,1.86,1.86,0,0,0-2.3-1.75c-2.18.14-4.38.13-6.56.07a2.16,2.16,0,0,0-2.5,2.13c-.22,1.48-.54,2.95-.79,4.43-.44,2.65-1.19,3.26-3.87,3.15-4.51-.2-5.14-1.05-4.2-5.45,1.94-9.14,3.75-18.31,6.3-27.31.59-2.11.12-2.67-2.09-2.58-1.42.06-2.8.59-4.25.42-.68-.07-1.32-.18-1.33-1a25.48,25.48,0,0,1,.11-4.1c.3-2.2,2.06-1.82,4.2-1.76m11.12,8.16a113.44,113.44,0,0,0-4.49,17.42c-.22,1.1.45,1.25,1.31,1.25,2.06,0,4.12-.05,6.18,0,1.33,0,1.59-.44,1.25-1.68-.93-3.43-1.78-6.88-2.64-10.33-.56-2.22-1.08-4.44-1.61-6.67"/><path class="cls-4" d="M17.93,289.68c0-5.25-.06-10.5,0-15.75,0-1.5-.57-2-1.86-1.76-1.9.3-2.46-.53-2.2-2.29a20.12,20.12,0,0,0,0-2.06,1,1,0,0,1,1.08-1c6.31,0,12.63-.12,18.94,0a5.87,5.87,0,0,1,5.93,5.81c.15,3.06.06,6.13,0,9.19a3.45,3.45,0,0,1-.49,2.15c-1.84,1.87-.79,2.8.92,3.74a2.3,2.3,0,0,1,1.09,2.08c.07,3.66.79,7.29.5,11-.27,3.35-3.79,6.61-7.65,6.68-4.94.08-9.89,0-14.83,0-1.81,0-2.32-.66-2.28-2.43.11-5.13,0-10.25,0-15.38h.72m8.48,6.16h-.06c0,1.69,0,3.37,0,5.06,0,.9.23,1.44,1.25,1.4,1.5-.07,3,0,4.49-.15a2.57,2.57,0,0,0,2.52-2.72,62.67,62.67,0,0,0-.51-8.22,1.85,1.85,0,0,0-1.89-1.74c-1.44-.05-2.87,0-4.31,0-1,0-1.58.47-1.51,1.64.1,1.56,0,3.12,0,4.68m7.4-17.8c.2-2.44,0-4.61-2.42-5.87s-4.74-.09-4.76,2.65,0,5.5,0,8.25c0,1.16.44,1.78,1.65,1.74.75,0,1.5,0,2.25,0a2.57,2.57,0,0,0,2.79-2.21,16.21,16.21,0,0,0,.5-4.55"/><path class="cls-4" d="M94.15,292.94c0,5.44-.05,10.87,0,16.31,0,1.57-.49,2.23-2,2.51a25,25,0,0,1-5.6.17c-1.23,0-1.59-1-1.58-2.15,0-3.19,0-6.38.07-9.57.07-7.81.14-15.63.26-23.45,0-1.26-.36-1.71-1.67-1.8-2.24-.16-4.49-.33-6.74-.29-1.29,0-1.82-.51-1.71-1.81s0-2.5.11-3.75a2.13,2.13,0,0,1,2.42-2.23q12.11.06,24.21,0c1.16,0,1.74.29,1.67,1.57-.09,1.56-.07,3.13,0,4.69,0,1.13-.36,1.57-1.51,1.54-2.06-.06-4.13.08-6.19,0-1.68-.11-2.28.4-2.24,2.16.11,5.38,0,10.76,0,16.14h.44"/><path class="cls-4" d="M139.11,343.15c2.59-.61,5.61-.25,8.59-.64a38.11,38.11,0,0,1,4.9,0c.1,0,.26,0,.31.06.62.83.27,1.8.31,2.71,0,.61-.5.73-1,.76a14.77,14.77,0,0,1-1.63,0c-.71-.05-.88.15-.67.87a45,45,0,0,1,1.58,6c.51,3.43,1.84,6.56,3,9.77.4,1.09.26,2.33.73,3.43.13.33-.14.39-.39.51-1.25.57-2.62.48-3.93.76-.4.08-.49-.36-.61-.65a21,21,0,0,1-1.18-4,1.08,1.08,0,0,0-1.33-1c-1.27.08-2.54.07-3.81,0a1.26,1.26,0,0,0-1.45,1.24c-.12.86-.31,1.71-.46,2.56-.26,1.54-.69,1.9-2.25,1.83-2.61-.11-3-.6-2.43-3.16,1.13-5.3,2.17-10.62,3.65-15.84.35-1.23.07-1.55-1.21-1.5a16.81,16.81,0,0,1-2.47.25c-.39-.05-.76-.11-.77-.58a15.74,15.74,0,0,1,.07-2.38c.18-1.28,1.19-1.06,2.43-1m6.46,4.74A65.75,65.75,0,0,0,143,358c-.12.64.27.73.76.72,1.2,0,2.39,0,3.59,0,.77,0,.92-.25.73-1-.55-2-1-4-1.54-6-.32-1.28-.62-2.58-.93-3.86"/><path class="cls-4" d="M216.84,335.66c2.59-.62,5.61-.25,8.59-.64a34.66,34.66,0,0,1,4.89,0c.11,0,.26,0,.31,0,.62.84.27,1.81.31,2.72,0,.61-.5.73-1,.76a12.67,12.67,0,0,1-1.63,0c-.71-.05-.88.16-.67.87a45.59,45.59,0,0,1,1.58,6c.51,3.43,1.85,6.56,3,9.77.4,1.09.25,2.33.72,3.43.13.32-.13.39-.39.51a18.74,18.74,0,0,1-3.92.76c-.41.08-.5-.36-.62-.65a21,21,0,0,1-1.17-4,1.08,1.08,0,0,0-1.34-1c-1.27.08-2.54.07-3.81,0a1.26,1.26,0,0,0-1.45,1.23c-.12.86-.31,1.71-.45,2.57-.26,1.54-.69,1.9-2.25,1.83-2.62-.11-3-.61-2.44-3.16,1.13-5.3,2.18-10.63,3.66-15.85.34-1.22.07-1.55-1.22-1.49a15.53,15.53,0,0,1-2.46.24c-.4,0-.77-.1-.77-.57a14.66,14.66,0,0,1,.06-2.39c.18-1.27,1.2-1.05,2.44-1m6.45,4.73a65,65,0,0,0-2.6,10.11c-.13.64.26.72.75.72,1.2,0,2.4,0,3.59,0,.77,0,.92-.26.73-1-.54-2-1-4-1.54-6-.32-1.29-.62-2.58-.93-3.87"/><path class="cls-4" d="M237.45,356.43h2.29a.85.85,0,0,1,.94.95c0,.43,0,.87,0,1.3.13,1.51.57,1.9,2.06,1.91s2.42-.59,2.59-1.89a4.32,4.32,0,0,0-3.17-4.94c-1.28-.39-2.55-.83-3.85-1.16a4.59,4.59,0,0,1-3.53-4,10.05,10.05,0,0,1,.52-5.56,3.27,3.27,0,0,1,3.06-2.18c1.5-.13,3-.32,4.52-.38a24.4,24.4,0,0,1,4.18.54,3.62,3.62,0,0,1,3,3.15,21.29,21.29,0,0,1,.34,4.44c0,.52-.24.7-.71.74a34.79,34.79,0,0,1-4.79.07c-.57,0-.7-.33-.72-.85a11.36,11.36,0,0,0-.41-3.23c-.34-1.1-1-1.35-2.81-1.07-.9.15-1.24.7-1.28,1.6-.13,3.15-.11,3.24,2.93,4.21,1.31.42,2.64.78,4,1.1a5,5,0,0,1,4,4.34c.12.93.14,1.88.2,2.82a4.61,4.61,0,0,1-3.15,4.84,14.24,14.24,0,0,1-10.32,0c-2.23-.78-3.69-4-3.14-6.24a.7.7,0,0,1,.8-.57h2.39"/><path class="cls-4" d="M203.32,362.81c-1.53,0-3,0-4.57,0-.76,0-1-.21-1-1,.17-5.33.29-10.65.43-16,0-1.56.08-3.12.11-4.68,0-.55.12-.88.78-.87,2.69.08,5.37,0,8,.13,4.44.27,5.27,3.69,4.79,6.94-.11.76.22,1.71-.24,2.22-1.17,1.29-.53,2,.48,2.9a3,3,0,0,1,.75,1.77,12.61,12.61,0,0,1-.44,6.64,2.79,2.79,0,0,1-2.26,1.68c-2.28.6-4.62.27-6.92.23m-.44-6.67h0V359c0,.38,0,.7.54.76a11.5,11.5,0,0,0,2.81.12c.72-.1,1.33-.46,1.34-1.2a16.51,16.51,0,0,0-.2-4.86,1.77,1.77,0,0,0-2-1.44c-.47,0-.94.11-1.41.15-.85.07-1.16.5-1.08,1.36s0,1.52,0,2.28m.26-9.72h.09c0,.29,0,.58,0,.87.09,2.51.09,2.49,2.63,2.4a1.63,1.63,0,0,0,1.81-1.58,12.29,12.29,0,0,0,.16-2.7,2.1,2.1,0,0,0-1.93-2.13,12.47,12.47,0,0,0-1.62-.07c-.81,0-1.21.29-1.15,1.15.05.69,0,1.37,0,2.06"/><path class="cls-4" d="M122.17,352.24c.69,0,1.38,0,2.07,0s1.1.38,1,1.1a6.33,6.33,0,0,0,.35,2.12,1.77,1.77,0,0,0,2,1.57,2.06,2.06,0,0,0,2.21-1.68c.65-2.51-.11-4.05-2.5-5-1-.41-2.12-.78-3.18-1.14a6.4,6.4,0,0,1-4.61-6.08,9,9,0,0,1,.19-2.58c.71-2.78,1.51-3.54,4.3-3.95a19.55,19.55,0,0,1,6.06-.07c2.67.43,3.88,1.75,4.13,4.47a19.22,19.22,0,0,1,.26,2c0,1.82-.39,2.2-2.23,2.29-.37,0-.73,0-1.09,0-2,0-2.39-.49-2.49-2.27,0-.6-.18-1.21-.24-1.82a1.67,1.67,0,0,0-1.81-1.53c-.92,0-1.72.12-2.07,1.17-.79,2.39-.09,4.06,2.22,5a28,28,0,0,0,3.08,1.07c3.57,1.06,5,2.8,5.24,6.56,0,.43,0,.87,0,1.3,0,2.49-.88,3.75-3.25,4.56a16,16,0,0,1-9,.27,3.8,3.8,0,0,1-2.51-1.95,8.31,8.31,0,0,1-1.27-4.31c0-.78.37-1.14,1.13-1.13h2v0"/><path class="cls-4" d="M255.12,351.39c.69,0,1.38,0,2.07,0s1.11.39,1,1.11a6.58,6.58,0,0,0,.35,2.11,1.79,1.79,0,0,0,2,1.58,2.07,2.07,0,0,0,2.22-1.68c.64-2.51-.12-4.06-2.51-5-1-.41-2.11-.77-3.18-1.13a6.4,6.4,0,0,1-4.6-6.08,8.67,8.67,0,0,1,.18-2.58c.71-2.78,1.51-3.54,4.3-4a19.86,19.86,0,0,1,6.06-.08c2.68.43,3.88,1.76,4.13,4.47a17.06,17.06,0,0,1,.26,2c0,1.81-.39,2.2-2.23,2.29-.36,0-.73,0-1.09,0-2.05,0-2.39-.49-2.49-2.27,0-.61-.17-1.21-.24-1.82a1.67,1.67,0,0,0-1.8-1.54c-.92,0-1.73.12-2.08,1.18-.79,2.39-.09,4.06,2.22,5,1,.41,2,.76,3.08,1.07,3.57,1.06,5,2.79,5.24,6.55,0,.44,0,.87,0,1.31,0,2.49-.88,3.75-3.25,4.56a15.92,15.92,0,0,1-9,.26,3.74,3.74,0,0,1-2.5-1.94,8.12,8.12,0,0,1-1.27-4.31c0-.78.36-1.14,1.12-1.14h2"/><path class="cls-4" d="M171.07,347.94c-.09,2.29.24,5.49-.17,8.67a5,5,0,0,1-4.7,4.76,20.22,20.22,0,0,1-6.81-.12c-2.18-.41-3.16-1.56-3.4-3.78-.26-2.53-.1-5.08-.19-7.61-.09-2.83-.07-5.66-.18-8.49,0-1,.36-1.17,1.28-1.11a29.69,29.69,0,0,0,4.11.31c.49-.05.79.12.68.67-.4,2.12-.1,4.26-.16,6.4-.07,2.46,0,4.93,0,7.4,0,1.93.64,2.85,2,3,2.29.2,3.46-.55,3.74-2.59a16.19,16.19,0,0,0,0-3.48c-.34-4.52-.14-9.06-.39-13.58a19.13,19.13,0,0,0-.11-2.28c-.14-.84.2-1,.93-1a5.92,5.92,0,0,0,2.05-.14c.62-.19.85.09.9.78.27,3.76.33,7.52.4,12.19"/><path class="cls-4" d="M179.94,365.73h-5.77c-.45,0-.82,0-.76-.69.37-4.64.15-9.29.17-13.94,0-3.48,0-7-.05-10.45,0-.69.2-1,.92-1,1.34.07,2.68.13,4,.16.55,0,.74.26.79.8.33,2.94-.15,5.86-.3,8.79-.09,1.76-.25,3.52-.33,5.28a21.15,21.15,0,0,1-.2,3.89,6.83,6.83,0,0,0,.28,2.79c.1.57.52.5.91.5,2.14,0,4.29,0,6.43,0,.84,0,1,.19.9,1-.51,3-.47,3-3.53,3h-3.49v-.18"/><path class="cls-4" d="M256.39,366.54c-.06.1-.13.13-.22,0l.22,0"/><rect class="cls-4" x="211.46" y="263.42" width="3.56" height="12.52"/><rect class="cls-4" x="222.9" y="262.34" width="3.09" height="11.91"/><rect class="cls-4" x="233.42" y="258.94" width="2.78" height="12.68"/></g><g class="cls-3"><g class="cls-8"><g class="cls-8"><text class="cls-9" transform="translate(282.79 54.89) rotate(-26.59)"><tspan xml:space="preserve">   - HA</tspan></text></g><g class="cls-10"><path class="cls-11" d="M345.33,331c1.24-.33.12-2.2-.55-1.09.37.57.15.77.55,1.09m-8,3.33c.13.66.39,1.26-.54,1.3a2.81,2.81,0,0,1,.27,2.24,3.57,3.57,0,0,1,.89,2.45c1.3-.27,2.18.7,3.19,1.29.54-.56,1.18-.68,1.64-.14,1.42-.48,1.45-1.74,3-1.83-.38-1.53.67-2.58.75-3.95a.77.77,0,0,1-.89-.41c-.1-.41.4-.62.14-1.09-.73.14-1.27-.49-1.36-1.36a4.61,4.61,0,0,1-3.07-1c-.28,1-1.64.75-2.24.62-.76.72-.63,1.48-1.77,1.9m15.52,21.15a2.1,2.1,0,0,0,3,1.57,2.47,2.47,0,0,0-2.79-1.84c0,.12,0,.21-.2.27m.82,14.9c.51-.22.62-.08.95-.48-.37-.75.16-1.51,0-2.38s-.95-1.6-.54-2.45c-.65,0-1.07-.49-1.16-1.29-1.22.38-1.84-1-3.2-.27a.86.86,0,0,0-.4-.48c-.47.11-.08.51-.55.62s-.66-.52-1.15-.27c.12.94-.91,1.51-1.64,2.17.1,1-.7,1.66-.54,2.66-1-.89-2-1.51-3.47-.82,0,3.68,5.07,1.37,5.85,4.9,1.74-.1,3.75.77,5.1-1,.42,0,.66.53,1.16.27-.08-.36-.66-.9-.41-1.15m-40.08-43c-.21-.87-.22-1.66-.41-2.52-.81.45,0,2,.41,2.52m15.12,58.08c-.3.62.47,1.63,1.16,1.29.55-.66-.39-1.69-1.16-1.29m-46.33-35.15c-.21-.62-.72-.33-1-.88-.09-.75.69-1.21,1.16-1.77-.18-.61-.67-.25-.82-.95a2.68,2.68,0,0,1,.55-1.3c-.88-1.12-.3-1.76-.28-2.58-.33-.13-.76,0-1-.34-.11-1.57-1.89-.87-2-2.58a3.44,3.44,0,0,1-4-2.25c-.84.36-.16,1.23-.68,1.7-1.07.84-1.68.31-2.58.62a9.45,9.45,0,0,1-2.79,2.58c.38.69-.12,1.1-.41,1.57.46.68.52,1.23.14,1.63-.66.52-1,.18-1.63.48a5.7,5.7,0,0,1,1.84,1.63c-.15.82-.59,1.54.34,2.72a1.14,1.14,0,0,1,1.15.27c0,.5-.63.77-.34,1.36.5.32,1.44-1,2-.14.31.56-.46.76,0,1.37a2.9,2.9,0,0,0,1.49-.75c1,.61-.12,1.42.41,1.83.59-.29.16-.93.75-1.22,1.15.2,2.34-1.42,3.47-.89.6.46.87,2.78,2,3.27-2.11-2.36-.78-5.74,2.25-5.38M298.07,381c-.65,1.18.57,1.91,1.09,3.54.69-.83-.35-2.59-1.09-3.54m-19.19-24.75c.3,1.05.68,2.11,1.09,3.2.43-.73-.48-2.5-1.09-3.2m-14.09-18.63c.76-1-.68-1.91-1.5-1.64-1,.34-.74,1.54-1.56,2,.31,2.09,2.44.84,3.67,1.22.17-.17.25-.37.41-.54-.22-.7-.64-.8-1-1m21.52,48.08c-.76.42-.16,1.8.06,2.18.51-.55.13-1.4-.06-2.18m-6.67-2.45a7.85,7.85,0,0,0,2.31-2.85,8.18,8.18,0,0,0-2.31,2.85m60.94-13.49.55-.27c-.14-.88-.18-.71-1-1.22.13-.71-.34-.92-.27-1.57-.7.06-1.32-.11-1.63-1.22-1.37.09-2.85-.8-4.29-.07-.76.39-1.12,1.56-2,1.36,1.24-3.43-3.92-7.51-4.49-10.68,1.23-.18,2.37-.1,3.6-.27.39.44,1.28.75,1.7,0-1.53-1.52-4-.22-5.51-1.83.46-1.15.28-2.09.68-3.41,1.95-1.09,2.45-2.54,3.33-3.88.37-.55,1.14-.8.75-1.56a.8.8,0,0,1-.61-.2c-.84.28-.79.87-1.63,1.15-1.47-1-1.68-3.86-1.71-5.78-.92.26-.89.84-1.63,1.16-1.43-1.06-.83-2.48-2.11-3.54.1-1,.9-1.74.61-2.85.32-1.3,1.8-2.2,1.77-3.61-.95.43-.82.94-1.22,1.63s-1.43,1.82-1.77,2.59c-.45,1-.31,1.92-1.09,2.24-1.06.45-1.72-.72-2.72-1.36-4.19,1-5.18-3.84-5.72-7.34,0,2.22.74,4.71.35,6.8a10.63,10.63,0,0,0-4.15-1.15c-.34-.83.21-1.37-.48-2.31-.82.25-.17,1-.48,1.42-1.54-1.86-.13-3.65-1.7-5.78.18-.13.12-.34.27-.47.45-.34.67,0,1.09-.21a2.26,2.26,0,0,1,1.43-1.9,3.07,3.07,0,0,1,1.36-3.07c-.21-.72-.91,0-1.09-.81,1-.93-.15-1.23-.21-2.45-.28-.06-.64.11-.88-.07-.4-1.63-1.53-1.08-2.25-1.76-.11-1.1.41-1.91-.54-2.79-.72.4.38,1.41-.07,1.9a32.86,32.86,0,0,1-4.56.41,1.84,1.84,0,0,1-1.76,1.57,8.73,8.73,0,0,1-1.57,3.33c.16.54.56.37.75.82a2.1,2.1,0,0,1-.75,1.56c1.38,1,2.05,2.48,3.07,3.74.29.14.79-.34,1.08-.2a4.1,4.1,0,0,0,.82.95c.35.26.6-.46.75-.21.68,2,2.42,4.79,1.91,6.87-1.25,1.16-2.55,2.2-4.36,2.18-.28-.15-.34-.95-.75-1.49-.06-.4.57-.57.34-1-1.62-2.17-3.61-3.22-6.05-2.93a13.48,13.48,0,0,1-2.18,1.43c-1,1.32-.84,3-1.49,4.49.69,0,1.11,1.07,1,1.7,1.55,1.14,3.11,2.24,5.17,1.84,1,2-.92,3.09-1,4.76-2.22.65-4.31.92-6.46,1.36,1.31.6,3.16.14,5.17-.54.44.48,1,.7,1.43,1.15-.17.51,0,1.14-.61,1.5s-.75-.25-1.23-.07c1,1.49,2.39,4-.2,5,.15.89.83.22,1.09.81-.3,1.76-4,4-5.71,3.88.6-1.32,2.26-2,1.29-3.54s-3.41-.66-4.22,1.09c.23,1.63,0,3.31,2,3.27-.54,2.07-4.07,2.7-5.57,1.77-.4-.5-.81-1-1.43-.82,0,.12,0,.22-.21.27,0,.63.67,1.51,1,2.25-.49.71-.73,1.49-1.7,2-.63-.16-1.59-1.12-2.11-.48.87,0,1.81,1.39,1.7,2.38a15.21,15.21,0,0,0-1.22,1c.12,1.16-.37,2.38.54,3.47-.24.56-1.26.86-1.29,1.49.33.82,1.18.1,1.5,1-.25.52-1.66.65-1.16,1.42.45.46,1.3-.27,1.84-.06.87,1,.87,1.81,1.43,2.85-.13.26-.47.45-.48.75.28,0,.37-.68.68-.34.27.58-.27.89.27,1.56.58-.3.86-.77,1.5-.74,1.46,2.53,4.1,1.52,6.19,2.17,1.14,1.51.72,3.11,1.36,4.08.05-.63-.34-1.4.07-1.9.51.1,1,.73,1.43.13-.38-.89-1.07-.89-1.63-1.22.07-.58-.5-1.38-.07-1.84.94-.66,1.49-.17,2.17-.07.62-.44.7-1.05,1.5-1.43.59-.17.77.86,1.43.48s-.16-1-.07-1.5c.91-.67,1.13-.48,2.11-.88-.2-1-.25-2,1.09-2.59-.38-1.14-.56-2.22.81-2.79.22-.42-.16-1,.14-1.43.12.14.82.18.74-.2-1,.11-1.15-1.76-1-2.38-.37-.48-1-.16-1.29-.89.23-.18.2-.46.54-.61,1.12.63,1.78,2.63,2.86,3.33,1.46-.73,2.55-2.14,4.42-2,.07.14.19.11.28.21a1.31,1.31,0,0,0,.27,1.22c-1.1,2-.09,4.14-.41,6.33,1.15-1.67-.8-5.33,2.86-6.53-.24-1-1.58-.09-1.5-1,1.25-.24,2.06.84,3.2,1,2.59,2.8.67,6.44,3.33,9,4.22-1,.05-7.36,2.65-9,1.62-1,1.86.78,2.86,1.63.92-.87-.73-2.06-.27-2.92,1.16-.66,1.72.51,2.52.95,1.21-.89,1.84.13,3,.2.55-.69-.3-1.84.47-2.45,1.45.2,4.28.12,3.95,2.45,1,.46.64,1.32.41,2.18.85.18.8.87,1,1.7,1.63.31,3.62,2.05,5.24.27.56-.23.9.25,1.49-.07.28-1.38,1.87-2.33,1.43-4m-41.9-5.9c.34.35.68,1.25-.07,1.56a1,1,0,0,1,.07-1.56m11,5.71c.09.75-.78,1.18-1.16,1.77-.16-.76.1-2.12,1.16-1.77m-16.2-14.35a9.86,9.86,0,0,0-3.87-1.63c1.27.62,2.44,1.5,3.87,1.63m-13.4.76c.39.16.72,2.16,1.57,2.1-.41-.82-1.14-2.47-1.57-2.1"/></g></g></g></g></g></g></g></svg>