<?xml version="1.0" encoding="UTF-8" standalone="no"?>
<!DOCTYPE svg PUBLIC "-//W3C//DTD SVG 1.1//EN" "http://www.w3.org/Graphics/SVG/1.1/DTD/svg11.dtd">
<!-- Created with Vectornator (http://vectornator.io/) -->
<svg height="100%" stroke-miterlimit="10" style="fill-rule:nonzero;clip-rule:evenodd;stroke-linecap:round;stroke-linejoin:round;" version="1.1" viewBox="0 0 640 640" width="100%" xml:space="preserve" xmlns="http://www.w3.org/2000/svg" xmlns:vectornator="http://vectornator.io" xmlns:xlink="http://www.w3.org/1999/xlink">
<defs/>
<g id="Untitled" vectornator:layerName="Untitled">
<path d="M133.76 111.88L502.52 111.88C515.02 111.88 526.28 123.14 526.28 135.64L526.28 504.4C526.28 516.9 515.02 528.16 502.52 528.16L133.76 528.16C121.26 528.16 110 516.9 110 504.4L110 135.64C110 123.14 121.26 111.88 133.76 111.88ZM405.62 345.62L463.12 345.62L465.62 290.62L405.62 290.62L405.62 250C405.62 234.38 408.74 225.62 428.74 225.62L463.74 225.62L465 174.36C465 174.36 449.38 171.86 426.88 171.86C371.88 171.86 347.5 206.24 347.5 243.12L347.5 290.62L306.88 290.62L306.88 345.62L347.5 345.62L347.5 498.12L405.62 498.12C405.62 498.12 405.62 345.62 405.62 345.62Z" fill="#ffffff" fill-rule="nonzero" opacity="1" stroke="none" vectornator:layerName="path"/>
</g>
</svg>
