<?xml version="1.0" encoding="UTF-8" standalone="no"?>
<!DOCTYPE svg PUBLIC "-//W3C//DTD SVG 1.1//EN" "http://www.w3.org/Graphics/SVG/1.1/DTD/svg11.dtd">
<!-- Created with Vectornator (http://vectornator.io/) -->
<svg height="100%" stroke-miterlimit="10" style="fill-rule:nonzero;clip-rule:evenodd;stroke-linecap:round;stroke-linejoin:round;" version="1.1" viewBox="590.353 459.651 80.635 78.344" width="100%" xml:space="preserve" xmlns="http://www.w3.org/2000/svg" xmlns:vectornator="http://vectornator.io" xmlns:xlink="http://www.w3.org/1999/xlink">
<defs/>
<g id="Layer-1" vectornator:layerName="Layer 1">
<path d="M636.784 476.522C630.958 474.794 623.254 476.24 620.677 477.461C618.099 478.684 615.875 480.354 614.005 482.472C612.134 484.592 610.692 487.054 609.681 489.861C608.669 492.666 608.163 495.636 608.163 498.766C608.163 501.935 608.669 504.913 609.681 507.7C610.692 510.487 612.134 512.95 614.005 515.088C615.875 517.226 618.099 518.896 620.677 520.099C623.254 521.301 626.088 521.902 629.181 521.902C631.892 521.902 634.354 521.559 636.569 520.871C638.783 520.184 640.701 519.192 642.324 517.893C643.947 516.596 645.226 515.059 646.162 513.283C647.097 511.508 647.659 509.552 647.851 507.414L628.609 507.414L628.609 494.356L667.151 494.356L667.151 499.167C667.151 504.588 666.243 509.646 664.43 514.343C662.616 519.039 660.029 523.162 656.671 526.713C653.31 530.264 649.301 533.032 644.644 535.018C639.986 537.002 634.831 537.995 629.181 537.995C623.34 537.995 618.042 536.993 613.289 534.989C608.535 532.985 604.441 530.188 601.005 526.598C597.568 523.01 594.934 518.838 593.102 514.085C591.269 509.332 590.353 504.226 590.353 498.766C590.353 493.345 591.269 488.257 593.102 483.503C594.934 478.75 597.568 474.589 601.005 471.019C604.441 467.449 608.535 464.662 613.289 462.658C618.042 460.653 623.34 459.651 629.181 459.651C633.953 459.651 639.155 461.008 642.802 462.039L636.784 476.522Z" fill="#ffffff" fill-rule="nonzero" opacity="1" stroke="none" vectornator:layerName="path"/>
<path d="M661.08 481.638C658.332 481.638 656.002 480.674 654.093 478.746C652.184 476.819 651.23 474.518 651.23 471.845C651.23 469.173 652.194 466.854 654.122 464.887C656.049 462.921 658.368 461.938 661.08 461.938C662.874 461.938 664.516 462.387 666.005 463.284C667.494 464.181 668.697 465.374 669.614 466.862C670.529 468.352 670.988 470.013 670.988 471.845C670.988 474.518 670.014 476.819 668.067 478.746C666.12 480.674 663.791 481.638 661.08 481.638" fill="#e10d19" fill-rule="nonzero" opacity="1" stroke="none" vectornator:layerName="path 1"/>
</g>
</svg>
