<svg xmlns="http://www.w3.org/2000/svg" xmlns:xlink="http://www.w3.org/1999/xlink" viewBox="0 0 258.69 287.44"><defs><style>.cls-1{fill:none;}.cls-2{clip-path:url(#clip-path);}.cls-3{fill:#f5eaea;}.cls-4,.cls-6{fill:#1d1d1b;}.cls-5{fill:#de0e19;}.cls-6{opacity:0.25;}.cls-7{fill:url(#Sfumatura_senza_nome_4);}</style><clipPath id="clip-path"><rect class="cls-1" width="258.69" height="287.44"/></clipPath><linearGradient id="Sfumatura_senza_nome_4" x1="129.35" y1="-29.2" x2="129.35" y2="107.74" gradientUnits="userSpaceOnUse"><stop offset="0" stop-color="#beb5b5"/><stop offset="0.48" stop-color="#c3bebe" stop-opacity="0.48"/><stop offset="0.83" stop-color="#c6c5c5" stop-opacity="0.13"/><stop offset="0.99" stop-color="#c7c7c7" stop-opacity="0"/></linearGradient></defs><g id="Livello_2" data-name="Livello 2"><g id="Livello_1-2" data-name="Livello 1"><g class="cls-2"><rect class="cls-3" x="-70.49" width="396.54" height="298.8"/><path class="cls-4" d="M67.52,143.66a21,21,0,0,0-12.18.71,15.54,15.54,0,0,0-5,3.79A17.26,17.26,0,0,0,47,153.74a20.36,20.36,0,0,0,0,13.49,17.47,17.47,0,0,0,3.27,5.58A14.88,14.88,0,0,0,61.77,178a18.84,18.84,0,0,0,5.59-.77,13,13,0,0,0,4.35-2.26,11.11,11.11,0,0,0,2.9-3.48A11.67,11.67,0,0,0,75.89,167H61.34v-9.87H90.48v3.64a31.57,31.57,0,0,1-2.06,11.47,28.22,28.22,0,0,1-5.87,9.35,26.77,26.77,0,0,1-9.09,6.28,29.54,29.54,0,0,1-11.69,2.25,30.71,30.71,0,0,1-12-2.27,27.53,27.53,0,0,1-9.29-6.35,28,28,0,0,1-6-9.45,33.16,33.16,0,0,1,0-23.12,27.55,27.55,0,0,1,15.26-15.76,30.53,30.53,0,0,1,12-2.27,39.91,39.91,0,0,1,10.3,1.8Z"/><path class="cls-5" d="M85.89,147.53a7.43,7.43,0,0,1-7.45-7.41,7.26,7.26,0,0,1,2.19-5.26,7.31,7.31,0,0,1,9-1.21,8,8,0,0,1,2.73,2.71,7.29,7.29,0,0,1-1.17,9A7.23,7.23,0,0,1,85.89,147.53Z"/><path class="cls-4" d="M116.44,142.1h11.84v1.48a12.81,12.81,0,0,1-.84,4.66,11.42,11.42,0,0,1-2.38,3.8,10.73,10.73,0,0,1-3.69,2.54,11.8,11.8,0,0,1-4.75.92,12.56,12.56,0,0,1-4.88-.92A11.2,11.2,0,0,1,108,152a11.46,11.46,0,0,1-2.43-3.84,13.54,13.54,0,0,1,0-9.39,11.32,11.32,0,0,1,2.43-3.83,11.17,11.17,0,0,1,3.77-2.57,12.38,12.38,0,0,1,4.88-.92,14.17,14.17,0,0,1,3.88.47,10.52,10.52,0,0,1,2.89,1.27,10.15,10.15,0,0,1,2.06,1.73,14,14,0,0,1,1.4,1.83l-5,2.36a6.69,6.69,0,0,0-2-1.93,5.84,5.84,0,0,0-3.28-.83,6.08,6.08,0,0,0-2.61.56,6.47,6.47,0,0,0-2.05,1.54,7,7,0,0,0-1.33,2.27,8.39,8.39,0,0,0,0,5.48,7.26,7.26,0,0,0,1.33,2.27A6.16,6.16,0,0,0,114,150a6.08,6.08,0,0,0,2.61.56,7.68,7.68,0,0,0,2.27-.32,5.3,5.3,0,0,0,1.77-.91,4.43,4.43,0,0,0,1.17-1.42,4.65,4.65,0,0,0,.52-1.8h-5.91Z"/><path class="cls-4" d="M136.19,155.08h-5.34V140.64h5.34v2.23h-.09a3.63,3.63,0,0,1,.69-1,4.83,4.83,0,0,1,1.53-1.13,5.31,5.31,0,0,1,2.41-.5,5.19,5.19,0,0,1,1.84.31,4.7,4.7,0,0,1,1.23.59l-2.07,4.34a2.74,2.74,0,0,0-.87-.62,3.33,3.33,0,0,0-1.56-.33,2.77,2.77,0,0,0-1.77.55,3.2,3.2,0,0,0-1,1.31,3.77,3.77,0,0,0-.33,1.46Z"/><path class="cls-4" d="M156.45,155.08v-2.34a4.77,4.77,0,0,1-.81,1A5.9,5.9,0,0,1,154,155a5.37,5.37,0,0,1-2.46.54,6.62,6.62,0,0,1-3.7-1,7,7,0,0,1-2.46-2.76,8.82,8.82,0,0,1,0-7.68,7.1,7.1,0,0,1,2.46-2.77,6.62,6.62,0,0,1,3.7-1,6,6,0,0,1,2.37.43,5.67,5.67,0,0,1,1.65,1,3.76,3.76,0,0,1,.88,1.08v-2.11h5.31v14.44Zm-6.76-7.21a3.54,3.54,0,0,0,.46,1.77,3.31,3.31,0,0,0,2.92,1.66,3.29,3.29,0,0,0,1.7-.44,3.12,3.12,0,0,0,1.17-1.22,3.63,3.63,0,0,0,.44-1.77,3.57,3.57,0,0,0-.44-1.77,3.15,3.15,0,0,0-1.17-1.23,3.2,3.2,0,0,0-1.7-.45,3.3,3.3,0,0,0-1.7.45,3.42,3.42,0,0,0-1.22,1.23A3.48,3.48,0,0,0,149.69,147.87Z"/><path class="cls-4" d="M170.35,162.39h-5.29V140.64h5.35v2.11a3.49,3.49,0,0,1,.94-1.08,6.44,6.44,0,0,1,1.77-1,6.54,6.54,0,0,1,2.46-.43,6.22,6.22,0,0,1,3.61,1A6.75,6.75,0,0,1,181.5,144a8.92,8.92,0,0,1,.81,3.84,8.53,8.53,0,0,1-.86,3.84,6.9,6.9,0,0,1-2.42,2.76,6.47,6.47,0,0,1-3.67,1,5.64,5.64,0,0,1-2.57-.54,5.55,5.55,0,0,1-1.67-1.19,4.22,4.22,0,0,1-.77-1Zm6.74-14.52a3.57,3.57,0,0,0-.44-1.77,3.35,3.35,0,0,0-1.19-1.23,3.2,3.2,0,0,0-1.68-.45,3.36,3.36,0,0,0-1.73.45,3.22,3.22,0,0,0-1.2,1.23,3.47,3.47,0,0,0-.44,1.77,3.52,3.52,0,0,0,.44,1.77,3.2,3.2,0,0,0,1.2,1.22,3.45,3.45,0,0,0,1.73.44,3.22,3.22,0,0,0,2.87-1.66A3.63,3.63,0,0,0,177.09,147.87Z"/><path class="cls-4" d="M195.06,140.22a7.6,7.6,0,0,1,2.95.61,5.62,5.62,0,0,1,2.38,1.95,6,6,0,0,1,.93,3.49v8.81H196v-7.93a3.43,3.43,0,0,0-.69-2.33,2.41,2.41,0,0,0-1.89-.78,2.93,2.93,0,0,0-1.51.41,3.17,3.17,0,0,0-1.17,1.16,3.26,3.26,0,0,0-.45,1.71v7.76H184.9v-24.2h5.36v11.89a2.78,2.78,0,0,1,.87-1.17,5.67,5.67,0,0,1,1.7-1A6.05,6.05,0,0,1,195.06,140.22Z"/><path class="cls-4" d="M207.4,137.67a3,3,0,0,1-3-3,3.06,3.06,0,0,1,3-3,2.84,2.84,0,0,1,1.51.42,3.22,3.22,0,0,1,1.11,1.09,3,3,0,0,1-.47,3.65A3,3,0,0,1,207.4,137.67Zm-2.74,17.41V140.64H210v14.44Z"/><path class="cls-4" d="M221.52,151.3a3.48,3.48,0,0,0,1.65-.35,4.29,4.29,0,0,0,.88-.55L226.5,154a5.79,5.79,0,0,1-1,.59,8.23,8.23,0,0,1-1.72.63,10.61,10.61,0,0,1-6.7-.68,7,7,0,0,1-2.93-2.67,8.3,8.3,0,0,1,0-8.08,7,7,0,0,1,2.93-2.65,9.56,9.56,0,0,1,4.36-.94,9.26,9.26,0,0,1,2.33.27,9.52,9.52,0,0,1,1.73.62,4.79,4.79,0,0,1,1,.58L224,145.35l-.45-.35a3.29,3.29,0,0,0-.84-.4,3.63,3.63,0,0,0-1.21-.18,3.14,3.14,0,0,0-1.61.44,3.42,3.42,0,0,0-1.66,3,3.46,3.46,0,0,0,.46,1.79,3.34,3.34,0,0,0,1.2,1.22A3.14,3.14,0,0,0,221.52,151.3Z"/><path class="cls-4" d="M109.3,183.17a6.11,6.11,0,0,1-3.46-1,6.53,6.53,0,0,1-2.28-2.62,8.53,8.53,0,0,1,0-7.3,6.65,6.65,0,0,1,2.28-2.64,6.71,6.71,0,0,1,5.8-.57,5.61,5.61,0,0,1,1.65,1,2.47,2.47,0,0,1,.77,1V159.77h5.08v23h-5v-2.22a4.21,4.21,0,0,1-1,1.23,6.18,6.18,0,0,1-1.68,1A5.59,5.59,0,0,1,109.3,183.17Zm1.55-4a3.27,3.27,0,0,0,1.65-.42,3.1,3.1,0,0,0,1.14-1.16,3.57,3.57,0,0,0,0-3.36,3.05,3.05,0,0,0-1.14-1.17,3.27,3.27,0,0,0-1.65-.43,3.12,3.12,0,0,0-1.6.43,3,3,0,0,0-1.11,1.17,3.65,3.65,0,0,0,0,3.36,3,3,0,0,0,1.11,1.16A3.11,3.11,0,0,0,110.85,179.18Z"/><path class="cls-4" d="M126.13,177a2.49,2.49,0,0,0,.46,1.31,2.86,2.86,0,0,0,1.16.9,4.49,4.49,0,0,0,1.77.31,7.22,7.22,0,0,0,1.75-.19,6.24,6.24,0,0,0,1.35-.5,4,4,0,0,0,.89-.63l2,3.14a4.89,4.89,0,0,1-1.19.87,7.59,7.59,0,0,1-2,.7,15,15,0,0,1-3.12.27,9.29,9.29,0,0,1-4.07-.85,6.41,6.41,0,0,1-2.77-2.51,7.69,7.69,0,0,1-1-4.06,7.44,7.44,0,0,1,.87-3.61,6.36,6.36,0,0,1,2.54-2.55,8,8,0,0,1,4-.94,8.58,8.58,0,0,1,3.89.82,5.66,5.66,0,0,1,2.53,2.43,8.24,8.24,0,0,1,.89,4v.53a3.06,3.06,0,0,1,0,.54Zm5.19-2.66a2.51,2.51,0,0,0-.28-1.07,2.32,2.32,0,0,0-.8-.88,2.49,2.49,0,0,0-1.37-.34,2.79,2.79,0,0,0-1.42.33,2.39,2.39,0,0,0-.87.86,2.54,2.54,0,0,0-.35,1.1Z"/><path class="cls-4" d="M144.88,168.65a12.54,12.54,0,0,1,2.47.22,12.08,12.08,0,0,1,1.88.51,3.83,3.83,0,0,1,1,.47l-1.65,3a7.57,7.57,0,0,0-1.18-.6,4.94,4.94,0,0,0-1.92-.37,3.22,3.22,0,0,0-1.35.25.79.79,0,0,0-.55.76.91.91,0,0,0,.61.82,7.35,7.35,0,0,0,1.76.55,10.36,10.36,0,0,1,2,.63,4.43,4.43,0,0,1,1.73,1.28,3.44,3.44,0,0,1,.7,2.25,4,4,0,0,1-2.26,3.82,7.76,7.76,0,0,1-2.21.73,13.2,13.2,0,0,1-2.3.21,11.67,11.67,0,0,1-2.74-.28,8.62,8.62,0,0,1-1.88-.66,7.27,7.27,0,0,1-1-.58l1.64-3.34a7,7,0,0,0,1.42.83,5,5,0,0,0,2.09.45,3.54,3.54,0,0,0,1.65-.31,1,1,0,0,0,.59-.84.86.86,0,0,0-.29-.67,2.37,2.37,0,0,0-.8-.43,8.24,8.24,0,0,0-1.25-.33,10.13,10.13,0,0,1-1.42-.42,5.8,5.8,0,0,1-1.42-.78,3.77,3.77,0,0,1-1.09-1.25,3.66,3.66,0,0,1-.42-1.82,3.11,3.11,0,0,1,.89-2.27,5.49,5.49,0,0,1,2.29-1.36A9.41,9.41,0,0,1,144.88,168.65Z"/><path class="cls-4" d="M155.88,166.22a2.87,2.87,0,0,1-2.88-2.86,2.85,2.85,0,0,1,.85-2,2.75,2.75,0,0,1,2-.86,2.7,2.7,0,0,1,1.44.4,3.16,3.16,0,0,1,1.05,1,2.71,2.71,0,0,1,.4,1.45,2.74,2.74,0,0,1-.85,2A2.81,2.81,0,0,1,155.88,166.22Zm-2.61,16.55V169.05h5.08v13.72Z"/><path class="cls-4" d="M172.51,182.77v-2.22a4.55,4.55,0,0,1-.76,1,6.2,6.2,0,0,1-1.61,1.14,5.12,5.12,0,0,1-2.35.51,6.35,6.35,0,0,1-3.51-1,6.67,6.67,0,0,1-2.34-2.62,8.44,8.44,0,0,1,0-7.3,6.79,6.79,0,0,1,2.34-2.64,6.35,6.35,0,0,1,3.51-1,5.66,5.66,0,0,1,2.26.41,5.25,5.25,0,0,1,1.57,1,4.13,4.13,0,0,1,.84,1v-2h5v13.72Zm-3.44,7.34a17.17,17.17,0,0,1-2.86-.25,9.66,9.66,0,0,1-2.63-.86,5.89,5.89,0,0,1-2.05-1.65l3-3.09a6.29,6.29,0,0,0,.95.88,4.72,4.72,0,0,0,1.38.72,6.25,6.25,0,0,0,2,.29,4.45,4.45,0,0,0,1.92-.39,3,3,0,0,0,1.28-1.12,3.34,3.34,0,0,0,.46-1.78v-.34h5v.63a6.34,6.34,0,0,1-1.13,3.83,6.92,6.92,0,0,1-3,2.34A11,11,0,0,1,169.07,190.11Zm-3-14.19a3.28,3.28,0,0,0,.43,1.68,3.18,3.18,0,0,0,2.78,1.58,3.1,3.1,0,0,0,1.62-.42A3,3,0,0,0,172,177.6a3.65,3.65,0,0,0,0-3.36,3,3,0,0,0-1.11-1.17,3.11,3.11,0,0,0-1.62-.43,3.2,3.2,0,0,0-2.78,1.6A3.26,3.26,0,0,0,166.09,175.92Z"/><path class="cls-4" d="M190.21,168.65a7.11,7.11,0,0,1,2.81.58,5.24,5.24,0,0,1,2.25,1.85,5.67,5.67,0,0,1,.89,3.32v8.37h-5.1v-7.54a3.1,3.1,0,0,0-.7-2.21,2.4,2.4,0,0,0-1.84-.75,2.64,2.64,0,0,0-1.41.4,3,3,0,0,0-1.07,1.1,3.26,3.26,0,0,0-.41,1.63v7.37h-5.08V169.05h5.08v2a2.72,2.72,0,0,1,.84-1.11,5.48,5.48,0,0,1,1.62-.94A5.91,5.91,0,0,1,190.21,168.65Z"/><path class="cls-4" d="M203.16,177a2.5,2.5,0,0,0,.47,1.31,2.83,2.83,0,0,0,1.15.9,4.49,4.49,0,0,0,1.77.31,7.22,7.22,0,0,0,1.75-.19,6,6,0,0,0,1.35-.5,3.88,3.88,0,0,0,.9-.63l2,3.14a4.7,4.7,0,0,1-1.19.87,7.64,7.64,0,0,1-2,.7,15.1,15.1,0,0,1-3.13.27,9.21,9.21,0,0,1-4.06-.85,6.44,6.44,0,0,1-2.78-2.51,7.78,7.78,0,0,1-1-4.06,7.44,7.44,0,0,1,.87-3.61,6.42,6.42,0,0,1,2.54-2.55,8.06,8.06,0,0,1,4-.94,8.61,8.61,0,0,1,3.89.82,5.71,5.71,0,0,1,2.53,2.43,8.25,8.25,0,0,1,.88,4v.53a3.06,3.06,0,0,1,0,.54Zm5.2-2.66a2.53,2.53,0,0,0-.29-1.07,2.17,2.17,0,0,0-.8-.88,2.46,2.46,0,0,0-1.37-.34,2.79,2.79,0,0,0-1.42.33,2.39,2.39,0,0,0-.87.86,2.68,2.68,0,0,0-.35,1.1Z"/><path class="cls-4" d="M220.41,182.77h-5.08V169.05h5.08v2.12h-.08a3.25,3.25,0,0,1,.65-1,4.88,4.88,0,0,1,1.45-1.07,5.67,5.67,0,0,1,4-.18,5.35,5.35,0,0,1,1.17.56l-2,4.13a2.73,2.73,0,0,0-.83-.59,3.15,3.15,0,0,0-1.48-.31,2.67,2.67,0,0,0-1.68.51,3.11,3.11,0,0,0-1,1.26,3.5,3.5,0,0,0-.31,1.38Z"/><rect class="cls-6" x="23.47" y="121.94" width="213.03" height="8.95"/><rect class="cls-6" x="23.47" y="190.15" width="213.03" height="8.95"/><rect class="cls-6" x="193.44" y="156.04" width="77.16" height="8.95" transform="translate(71.51 392.54) rotate(-90)"/><rect class="cls-6" x="-10.64" y="156.04" width="77.16" height="8.95" transform="translate(-132.57 188.46) rotate(-90)"/><rect class="cls-6" x="59.27" y="156" width="77.16" height="8.95" transform="translate(-62.62 258.32) rotate(-90)"/></g><rect class="cls-7" width="258.69" height="102.26"/></g></g></svg>