<svg xmlns="http://www.w3.org/2000/svg" viewBox="0 0 35.43 35.43"><defs><style>.cls-1{fill:#442561;}</style></defs><g id="Livello_2" data-name="Livello 2"><g id="Livello_1-2" data-name="Livello 1"><polygon points="25.49 12.07 25.49 12.09 25.47 12.07 25.49 12.07"/><path class="cls-1" d="M28.44,0H7A7,7,0,0,0,0,7V28.45a7,7,0,0,0,7,7H28.44a7,7,0,0,0,7-7V7A7,7,0,0,0,28.44,0ZM25.88,29.77a14.66,14.66,0,0,1-3.6,1.93A.73.73,0,0,1,21.2,31c0-1.45,0-2.89,0-4.33a3.25,3.25,0,0,0-.81-2.14c-.07-.07-.05-.14.07-.14,2.56-.28,4.91-1.35,5.75-3.9.75-2.26.79-5-.86-6.93a.16.16,0,0,1-.05-.17l.21-1.32h0V11.3l-.35-1.56a.23.23,0,0,0-.23-.19,7,7,0,0,0-3.59,1.51.19.19,0,0,1-.19,0L20.65,11a1.52,1.52,0,0,0-.51-.12,13,13,0,0,0-5.85.22.42.42,0,0,1-.19,0,8.06,8.06,0,0,0-3.38-1.51c-.27,0-.42.07-.48.34l-.31,1.66,0,1,.18.83a.26.26,0,0,1-.06.17,5.75,5.75,0,0,0-1.36,3.56,14.9,14.9,0,0,0,.14,2l.07.28c.66,3.28,2.87,4.63,6,5,.16,0,.14.1-.07.26a4,4,0,0,0-.68,1.59c0,.07-.07.13-.12.16a2.86,2.86,0,0,1-3.72-.91,3.24,3.24,0,0,0-2.28-1.8,1,1,0,0,0-.63.1.22.22,0,0,0-.08.33s.05.07.07.09a4.47,4.47,0,0,1,1.92,2.35c.74,2.09,2.86,2.52,4.82,2.05v.07c0,.74,0,1.49,0,2.24a.84.84,0,0,1-.19.63.7.7,0,0,1-.75.16,12.44,12.44,0,0,1-3-1.47,14.47,14.47,0,0,1-6.36-9.94l-.07-.47A14.69,14.69,0,0,1,6.9,8.88,13.8,13.8,0,0,1,22,4.33a14.37,14.37,0,0,1,9.76,13.58A14.5,14.5,0,0,1,25.88,29.77Z"/></g></g></svg>