<svg xmlns="http://www.w3.org/2000/svg" xmlns:xlink="http://www.w3.org/1999/xlink" viewBox="0 0 425.05 287.44"><defs><style>.cls-1{fill:none;}.cls-2{clip-path:url(#clip-path);}.cls-3{fill:#fae1e6;}.cls-4{fill:#644c8f;}.cls-5{fill:#442561;}.cls-6{fill:url(#Sfumatura_senza_nome_9);}</style><clipPath id="clip-path"><rect class="cls-1" width="425.05" height="287.44" transform="translate(425.05 287.44) rotate(-180)"/></clipPath><linearGradient id="Sfumatura_senza_nome_9" x1="212.53" y1="-78.87" x2="212.53" y2="107.65" gradientUnits="userSpaceOnUse"><stop offset="0" stop-color="#442561"/><stop offset="0.45" stop-color="#a286a6"/><stop offset="0.78" stop-color="#e1c8d4"/><stop offset="0.93" stop-color="#fae1e6"/></linearGradient></defs><g id="Livello_2" data-name="Livello 2"><g id="Livello_1-2" data-name="Livello 1"><g class="cls-2"><rect class="cls-3" x="-47.73" y="-48.89" width="520.51" height="375.4"/><path class="cls-4" d="M76.87,166.26A2.13,2.13,0,0,1,79,164.12h8.56a2.12,2.12,0,0,1,2.14,2.14,21.22,21.22,0,0,1-2.21,7.9,22.65,22.65,0,0,1-4.79,6.42,22,22,0,0,1-6.77,4.28,21.63,21.63,0,0,1-8.17,1.55,21.39,21.39,0,0,1-8.56-1.72A22,22,0,0,1,47.55,173a21.35,21.35,0,0,1-1.73-8.55,21.7,21.7,0,0,1,1.73-8.6,23.16,23.16,0,0,1,4.69-7.1,21.68,21.68,0,0,1,7-4.83,21.77,21.77,0,0,1,17.22,0,22.81,22.81,0,0,1,7.07,4.9,2,2,0,0,1,.79,1.52,2.32,2.32,0,0,1-.51,1.59,2.16,2.16,0,0,1-1.66.65,2.53,2.53,0,0,1-1.73-.79,18.12,18.12,0,0,0-5.65-3.94,17.33,17.33,0,0,0-13.88,0,18.15,18.15,0,0,0-5.62,3.9,18.44,18.44,0,0,0-3.76,5.73,17.73,17.73,0,0,0-1.38,6.94A17.72,17.72,0,0,0,73.77,181.1a17.92,17.92,0,0,0,5.11-2.87A17.71,17.71,0,0,0,85,168.4H79a2.13,2.13,0,0,1-2.14-2.14Z"/><path class="cls-5" d="M92.33,169.57a16.16,16.16,0,0,1,1.28-6.38,16.8,16.8,0,0,1,8.73-8.87,16.51,16.51,0,0,1,6.35-1.38,2.49,2.49,0,0,1,1.76.62,2.1,2.1,0,0,1,0,3,2.49,2.49,0,0,1-1.76.62,12,12,0,0,0-4.69,1.07,13,13,0,0,0-3.87,2.66,11.88,11.88,0,0,0-2.59,3.9,12.19,12.19,0,0,0-.93,4.72v14.77a2.14,2.14,0,1,1-4.28,0Z"/><path class="cls-5" d="M125.59,153.08a15.24,15.24,0,0,1,6.32,1.35,17.37,17.37,0,0,1,8.9,8.93,15.82,15.82,0,0,1,1.35,6.49v14.56a2.14,2.14,0,1,1-4.28,0V180.2a21.71,21.71,0,0,1-5.49,4.38,13.76,13.76,0,0,1-6.93,1.83,16.61,16.61,0,0,1-11.73-4.69,16,16,0,0,1-3.59-5.25,16.67,16.67,0,0,1,3.48-18.32,17.38,17.38,0,0,1,5.32-3.59A18.21,18.21,0,0,1,125.59,153.08ZM113.1,169.85a12,12,0,0,0,1,4.79,12.51,12.51,0,0,0,6.59,6.6,12.39,12.39,0,0,0,9.49,0,12.44,12.44,0,0,0,6.59-6.49,13.6,13.6,0,0,0,1.14-4.93,12.15,12.15,0,0,0-1-4.83,12.27,12.27,0,0,0-6.62-6.63,12.32,12.32,0,0,0-4.83-1,12.07,12.07,0,0,0-4.8,1,12.52,12.52,0,0,0-3.93,2.66,12.45,12.45,0,0,0-3.63,8.8Z"/><path class="cls-5" d="M181.63,144.32a2.07,2.07,0,0,1,.62-1.52,2.17,2.17,0,0,1,3,0,2.07,2.07,0,0,1,.62,1.52v14.21a16.71,16.71,0,0,1,5.45-4,16.78,16.78,0,0,1,13.39-.17,17,17,0,0,1,5.28,3.56,16.76,16.76,0,0,1,3.55,5.27,16.12,16.12,0,0,1,1.31,6.49v14.77a2.05,2.05,0,0,1-.62,1.52,2.15,2.15,0,0,1-3.66-1.52V169.64a12,12,0,0,0-1-4.79,12.57,12.57,0,0,0-2.66-3.94,12.44,12.44,0,0,0-3.93-2.65,12.33,12.33,0,0,0-9.49,0,12.68,12.68,0,0,0-3.87,2.52A12.82,12.82,0,0,0,187,164.5a11.35,11.35,0,0,0-1.1,4.66v15.25a2.14,2.14,0,1,1-4.28,0V144.32Z"/><path class="cls-5" d="M216.83,145.56a2.83,2.83,0,1,1,4.83,2,2.84,2.84,0,0,1-4,0A2.72,2.72,0,0,1,216.83,145.56Zm.69,9.52a2.12,2.12,0,0,1,2.13-2.14,2.07,2.07,0,0,1,1.52.62,2.05,2.05,0,0,1,.62,1.52v29.26a2.05,2.05,0,0,1-.62,1.52,2.16,2.16,0,0,1-3,0,2.05,2.05,0,0,1-.62-1.52Z"/><path class="cls-4" d="M229.25,164.33a17.42,17.42,0,0,0,1.38,6.9,18,18,0,0,0,3.76,5.66,17.79,17.79,0,0,0,5.62,3.83,17.1,17.1,0,0,0,6.9,1.41,17.55,17.55,0,0,0,7.21-1.48,17.17,17.17,0,0,0,5.77-4.11,2.69,2.69,0,0,1,1.41-.83,1.87,1.87,0,0,1,1.55.28,2.06,2.06,0,0,1,.76,1.69,2.49,2.49,0,0,1-.62,1.76,21.23,21.23,0,0,1-7.17,5.14,21.82,21.82,0,0,1-8.91,1.83,21.34,21.34,0,0,1-8.55-1.72,21.78,21.78,0,0,1-7-4.73,22.45,22.45,0,0,1-4.7-7,22.31,22.31,0,0,1,0-17.18,22.21,22.21,0,0,1,11.67-11.8,21.75,21.75,0,0,1,17.21,0,22.74,22.74,0,0,1,7.08,4.9,3.67,3.67,0,0,1,.83,1.38,1.81,1.81,0,0,1-.21,1.59,2,2,0,0,1-1.62.89,2.23,2.23,0,0,1-1.83-.69,30.62,30.62,0,0,0-5.8-3.86,15.18,15.18,0,0,0-7.11-1.73,17.11,17.11,0,0,0-6.9,1.42,17.55,17.55,0,0,0-5.62,3.86,18.42,18.42,0,0,0-3.76,5.7A17.42,17.42,0,0,0,229.25,164.33Z"/><path class="cls-5" d="M283.42,153.08a15.19,15.19,0,0,1,6.31,1.35,17.44,17.44,0,0,1,8.91,8.93,16.29,16.29,0,0,1,0,12.87,17.39,17.39,0,0,1-3.55,5.28,17,17,0,0,1-18.29,3.66,16.76,16.76,0,0,1-5.28-3.45,16,16,0,0,1-3.59-5.25,16.57,16.57,0,0,1-1.31-6.62,16.15,16.15,0,0,1,1.28-6.45,16.32,16.32,0,0,1,3.52-5.25,17.21,17.21,0,0,1,5.31-3.59A18.31,18.31,0,0,1,283.42,153.08Zm-12.49,16.77a12,12,0,0,0,1,4.79,12.51,12.51,0,0,0,6.59,6.6,12.1,12.1,0,0,0,4.8,1,12.32,12.32,0,0,0,4.83-1,12.4,12.4,0,0,0,6.63-6.6,12,12,0,0,0,1-4.79,12.32,12.32,0,0,0-1-4.83,12.33,12.33,0,0,0-6.63-6.63,12.32,12.32,0,0,0-4.83-1,12.1,12.1,0,0,0-4.8,1,12.64,12.64,0,0,0-3.93,2.66,12.47,12.47,0,0,0-2.66,4A12.32,12.32,0,0,0,270.93,169.85Z"/><path class="cls-5" d="M318.47,153.08a14.89,14.89,0,0,1,7,2,22.62,22.62,0,0,1,5.46,4.31v-15a2.14,2.14,0,1,1,4.27,0v25.53a16.4,16.4,0,0,1-1.31,6.62,16,16,0,0,1-3.59,5.25,17,17,0,0,1-18.28,3.38,16.31,16.31,0,0,1-5.28-3.59,17.42,17.42,0,0,1-3.56-5.28,16.23,16.23,0,0,1,0-12.87,17.37,17.37,0,0,1,8.9-8.93A15.23,15.23,0,0,1,318.47,153.08ZM331,169.85a14.35,14.35,0,0,0-1.14-5,12.8,12.8,0,0,0-2.66-3.93,11.8,11.8,0,0,0-3.87-2.59,11.93,11.93,0,0,0-4.69-.93,12.32,12.32,0,0,0-4.83,1,12.27,12.27,0,0,0-6.62,6.63,12.15,12.15,0,0,0-1,4.83,11.86,11.86,0,0,0,1,4.79,12.34,12.34,0,0,0,6.62,6.6,12.32,12.32,0,0,0,4.83,1,12.1,12.1,0,0,0,4.8-1,12.51,12.51,0,0,0,6.59-6.6A12,12,0,0,0,331,169.85Z"/><path class="cls-5" d="M343,171.85a11.67,11.67,0,0,0,1.45,4.11,12.57,12.57,0,0,0,6.42,5.45,12.51,12.51,0,0,0,9.11-.14,12.73,12.73,0,0,0,3.93-2.59,2.15,2.15,0,0,1,3,3,12.92,12.92,0,0,1-5.14,3.62,18.86,18.86,0,0,1-6.59,1.07,16.61,16.61,0,0,1-11.73-4.69,16,16,0,0,1-3.59-5.25,16.67,16.67,0,0,1,3.48-18.32,17.38,17.38,0,0,1,5.32-3.59,18.21,18.21,0,0,1,6.65-1.48,15.23,15.23,0,0,1,6.25,1.31,17.86,17.86,0,0,1,5.21,3.52,16.62,16.62,0,0,1,3.62,5.18,16.93,16.93,0,0,1,1.49,6.34,1.94,1.94,0,0,1-.59,1.8,2.36,2.36,0,0,1-1.55.62Zm12.22-14.42a11.79,11.79,0,0,0-4.32.79,13.18,13.18,0,0,0-3.65,2.14,11.57,11.57,0,0,0-2.69,3.21,12.87,12.87,0,0,0-1.49,4H367.4a12.55,12.55,0,0,0-4.24-7.21,13.09,13.09,0,0,0-3.66-2.14A11.73,11.73,0,0,0,355.19,157.43Z"/><path class="cls-5" d="M177.77,163.33a17.42,17.42,0,0,0-3.56-5.28,16.45,16.45,0,0,0-11.83-4.9,16.66,16.66,0,0,0-11.73,4.69,16,16,0,0,0-3.59,5.25,16.4,16.4,0,0,0-1.31,6.62v32.34a2.14,2.14,0,1,0,4.27,0V180.2a22.62,22.62,0,0,0,5.46,4.31,14.89,14.89,0,0,0,7,2,15.23,15.23,0,0,0,6.31-1.35,17.37,17.37,0,0,0,8.9-8.93,16.23,16.23,0,0,0,0-12.87Zm-3.94,11.21a12.27,12.27,0,0,1-6.62,6.63,12.32,12.32,0,0,1-4.83,1,12,12,0,0,1-4.7-.93,11.86,11.86,0,0,1-3.86-2.59,13.24,13.24,0,0,1-2.69-3.93,12.77,12.77,0,0,1-1.11-5,12.11,12.11,0,0,1,1-4.8,12.54,12.54,0,0,1,6.59-6.59,12.07,12.07,0,0,1,4.8-1,12.32,12.32,0,0,1,4.83,1,12.47,12.47,0,0,1,4,2.66,12.61,12.61,0,0,1,2.65,3.93,11.94,11.94,0,0,1,1,4.8A12.15,12.15,0,0,1,173.83,174.54Z"/><path class="cls-4" d="M157,194.3c1,3.54,1.61,5.57,1.72,6.18h0c.11-.55.8-2.71,1.87-6.18h.74c1.28,4.24,1.67,5.46,1.79,6h0c.2-.76.51-1.79,1.77-6h.73l-2.17,6.86h-.75c-.74-2.43-1.64-5.41-1.77-6h0c-.14.67-.92,3.13-1.81,6h-.82l-2-6.86Z"/><path class="cls-4" d="M167.2,197.81c0,1.77.91,2.87,2.23,2.87a1.92,1.92,0,0,0,2-1.29h.7a2.62,2.62,0,0,1-2.7,1.94c-2.09,0-2.9-1.8-2.9-3.55,0-2,1-3.65,3-3.65a2.84,2.84,0,0,1,2.79,3.12c0,.19,0,.38,0,.56Zm4.36-.6a2.17,2.17,0,0,0-2.11-2.43c-1.41,0-2.06,1-2.21,2.43Z"/><path class="cls-4" d="M174,191h.69v4.41a2.36,2.36,0,0,1,2.35-1.32c1.62,0,2.81,1.33,2.81,3.45s-1.07,3.75-3,3.75a2.14,2.14,0,0,1-2.17-1.25c0,.44,0,.89,0,1.08H174c0-.78,0-1.56,0-2.35Zm5.12,6.55c0-1.71-.85-2.81-2.15-2.81-1.72,0-2.32,1.16-2.32,3,0,1.62.53,2.94,2.24,2.94C178.27,200.68,179.12,199.53,179.12,197.59Z"/><path class="cls-4" d="M190.43,191v8.15c0,.65,0,1.29,0,2h-.65c0-.16,0-.81,0-1.15a2.24,2.24,0,0,1-2.3,1.32c-1.79,0-2.86-1.46-2.86-3.52s1.17-3.68,3-3.68c1.37,0,1.92.59,2.12,1V191Zm-5.12,6.74c0,1.89,1,2.9,2.15,2.9,1.82,0,2.31-1.25,2.31-3.11s-.42-2.79-2.18-2.79C186.23,194.78,185.31,195.86,185.31,197.78Z"/><path class="cls-4" d="M192.84,197.81c0,1.77.9,2.87,2.22,2.87a1.94,1.94,0,0,0,2-1.29h.7a2.63,2.63,0,0,1-2.7,1.94c-2.09,0-2.9-1.8-2.9-3.55,0-2,1-3.65,3-3.65a2.85,2.85,0,0,1,2.79,3.12,5.15,5.15,0,0,1,0,.56Zm4.35-.6a2.16,2.16,0,0,0-2.1-2.43c-1.41,0-2.06,1-2.21,2.43Z"/><path class="cls-4" d="M199.61,194.3c1.11,3.14,1.88,5.28,2.14,6.16h0c.15-.51.92-2.55,2.25-6.16h.73l-2.6,6.86h-.82l-2.45-6.86Z"/><path class="cls-4" d="M206.25,197.81c0,1.77.9,2.87,2.22,2.87a1.94,1.94,0,0,0,2-1.29h.7a2.64,2.64,0,0,1-2.71,1.94c-2.08,0-2.89-1.8-2.89-3.55,0-2,1-3.65,3-3.65a2.84,2.84,0,0,1,2.78,3.12c0,.19,0,.38,0,.56Zm4.35-.6a2.17,2.17,0,0,0-2.1-2.43c-1.42,0-2.06,1-2.21,2.43Z"/><path class="cls-4" d="M213.05,201.16V191h.68v10.12Z"/><path class="cls-4" d="M221.55,197.72c0,1.9-1.06,3.61-3.11,3.61-1.85,0-3-1.53-3-3.6s1.08-3.6,3.07-3.6C220.34,194.13,221.55,195.56,221.55,197.72Zm-5.39,0c0,1.63.88,3,2.34,3s2.32-1.22,2.32-3-.82-2.95-2.35-2.95S216.16,196.08,216.16,197.73Z"/><path class="cls-4" d="M223.94,200.15v3.76h-.69V196c0-.57,0-1.17,0-1.69h.67c0,.26,0,.67,0,1.23a2.53,2.53,0,0,1,2.42-1.4c1.62,0,2.74,1.36,2.74,3.42,0,2.47-1.31,3.78-3,3.78A2.26,2.26,0,0,1,223.94,200.15Zm4.44-2.57c0-1.59-.77-2.79-2.13-2.79-1.66,0-2.35,1-2.35,2.91s.53,3,2.25,3C227.58,200.68,228.38,199.47,228.38,197.58Z"/><path class="cls-4" d="M230.82,196.07c0-.59,0-1.24,0-1.77h.67c0,.23,0,.82,0,1.22a2.15,2.15,0,0,1,2.06-1.39,1.94,1.94,0,0,1,2,1.36,2.34,2.34,0,0,1,2.24-1.36c1.06,0,2.16.61,2.16,2.51v4.52h-.69v-4.43c0-.92-.33-1.93-1.61-1.93s-1.93,1.08-1.93,2.41v3.95h-.68v-4.42c0-1-.3-1.94-1.56-1.94s-2,1.19-2,2.59v3.77h-.69Z"/><path class="cls-4" d="M242.36,197.81c0,1.77.91,2.87,2.23,2.87a1.94,1.94,0,0,0,2-1.29h.7a2.64,2.64,0,0,1-2.71,1.94c-2.09,0-2.9-1.8-2.9-3.55,0-2,1-3.65,3-3.65a2.84,2.84,0,0,1,2.79,3.12c0,.19,0,.38,0,.56Zm4.36-.6c0-1.36-.76-2.43-2.1-2.43s-2.06,1-2.21,2.43Z"/><path class="cls-4" d="M249.11,196c0-.61,0-1.18,0-1.73h.67c0,.22,0,1.11,0,1.3a2.24,2.24,0,0,1,2.28-1.47c1.22,0,2.3.69,2.3,2.58v4.45h-.68v-4.34c0-1.22-.51-2-1.71-2-1.63,0-2.19,1.36-2.19,2.86v3.5h-.69Z"/><path class="cls-4" d="M255.57,194.3h1.27v-2.15h.69v2.15h1.63v.64h-1.63v4.47c0,.76.17,1.2.82,1.2a2.57,2.57,0,0,0,.72-.08v.61a2.57,2.57,0,0,1-.85.12c-.88,0-1.38-.44-1.38-1.54v-4.78h-1.27Z"/><path class="cls-4" d="M268.85,199.86a6.86,6.86,0,0,0,.1,1.3h-.66a4.13,4.13,0,0,1-.13-1,2.26,2.26,0,0,1-2.25,1.22,2,2,0,0,1-2.28-2.06c0-1.51,1.17-2.2,3.23-2.2h1.3v-.7c0-.69-.2-1.61-1.77-1.61-1.39,0-1.59.73-1.74,1.29H264a2.13,2.13,0,0,1,2.44-1.92c1.57,0,2.45.66,2.45,2.17Zm-.67-2.2h-1.35c-1.52,0-2.47.4-2.47,1.58a1.44,1.44,0,0,0,1.58,1.46c2,0,2.24-1.31,2.24-2.79Z"/><path class="cls-4" d="M271.12,196c0-.61,0-1.18,0-1.73h.68c0,.22,0,1.11,0,1.3a2.26,2.26,0,0,1,2.28-1.47c1.23,0,2.31.69,2.31,2.58v4.45h-.68v-4.34c0-1.22-.51-2-1.71-2-1.63,0-2.2,1.36-2.2,2.86v3.5h-.68Z"/><path class="cls-4" d="M284,191v8.15c0,.65,0,1.29,0,2h-.66c0-.16,0-.81,0-1.15a2.24,2.24,0,0,1-2.31,1.32c-1.78,0-2.85-1.46-2.85-3.52s1.16-3.68,3-3.68c1.38,0,1.92.59,2.13,1V191Zm-5.12,6.74c0,1.89,1,2.9,2.15,2.9,1.81,0,2.31-1.25,2.31-3.11s-.43-2.79-2.19-2.79C279.75,194.78,278.83,195.86,278.83,197.78Z"/><path class="cls-4" d="M295.08,191v8.15c0,.65,0,1.29,0,2h-.66c0-.16,0-.81,0-1.15a2.24,2.24,0,0,1-2.31,1.32c-1.78,0-2.85-1.46-2.85-3.52s1.16-3.68,3-3.68c1.37,0,1.92.59,2.13,1V191ZM290,197.78c0,1.89,1,2.9,2.16,2.9,1.81,0,2.31-1.25,2.31-3.11s-.43-2.79-2.19-2.79C290.87,194.78,290,195.86,290,197.78Z"/><path class="cls-4" d="M297.48,197.81c0,1.77.91,2.87,2.23,2.87a1.92,1.92,0,0,0,2-1.29h.7a2.62,2.62,0,0,1-2.7,1.94c-2.09,0-2.9-1.8-2.9-3.55,0-2,1-3.65,3-3.65a2.84,2.84,0,0,1,2.79,3.12c0,.19,0,.38,0,.56Zm4.35-.6a2.16,2.16,0,0,0-2.1-2.43c-1.41,0-2.06,1-2.21,2.43Z"/><path class="cls-4" d="M304.39,199.27a1.82,1.82,0,0,0,1.95,1.43c1.22,0,1.72-.57,1.72-1.34s-.33-1.16-1.87-1.53c-1.77-.43-2.21-1-2.21-1.87s.71-1.83,2.27-1.83a2.19,2.19,0,0,1,2.4,1.92H308a1.61,1.61,0,0,0-1.74-1.29c-1.2,0-1.54.59-1.54,1.14s.33.95,1.69,1.28c1.94.47,2.42,1.1,2.42,2.13,0,1.25-1,2-2.46,2a2.39,2.39,0,0,1-2.64-2.06Z"/><path class="cls-4" d="M310.49,191h.69v1.33h-.69Zm0,3.26h.69v6.86h-.69Z"/><path class="cls-4" d="M318.68,200.7c0,2.19-1,3.35-3,3.35A2.41,2.41,0,0,1,313,202h.7a1.9,1.9,0,0,0,2,1.4c1.78,0,2.28-1.15,2.28-2.9v-.71a2.18,2.18,0,0,1-2.3,1.37c-1.6,0-2.84-1.3-2.84-3.43,0-2.31,1.32-3.6,2.94-3.6,1.4,0,2,.66,2.2,1.21,0-.4,0-.88,0-1h.64c0,.24,0,1.33,0,2Zm-5.07-3c0,1.64.86,2.82,2.18,2.82,1.72,0,2.24-1.14,2.24-2.93s-.55-2.81-2.2-2.81S313.61,196.14,313.61,197.7Z"/><path class="cls-4" d="M320.93,196c0-.61,0-1.18,0-1.73h.67c0,.22,0,1.11,0,1.3a2.24,2.24,0,0,1,2.28-1.47c1.22,0,2.31.69,2.31,2.58v4.45h-.69v-4.34c0-1.22-.51-2-1.7-2-1.64,0-2.2,1.36-2.2,2.86v3.5h-.69Z"/><path class="cls-4" d="M336.74,199.86a7.84,7.84,0,0,0,.1,1.3h-.66a3.85,3.85,0,0,1-.12-1,2.28,2.28,0,0,1-2.26,1.22,2,2,0,0,1-2.28-2.06c0-1.51,1.17-2.2,3.23-2.2h1.31v-.7c0-.69-.21-1.61-1.78-1.61-1.38,0-1.59.73-1.74,1.29h-.69a2.14,2.14,0,0,1,2.45-1.92c1.56,0,2.44.66,2.44,2.17Zm-.67-2.2h-1.35c-1.52,0-2.47.4-2.47,1.58a1.44,1.44,0,0,0,1.58,1.46c2,0,2.24-1.31,2.24-2.79Z"/><path class="cls-4" d="M344.26,200.7c0,2.19-1,3.35-3,3.35A2.41,2.41,0,0,1,338.6,202h.7a1.9,1.9,0,0,0,2,1.4c1.78,0,2.28-1.15,2.28-2.9v-.71a2.18,2.18,0,0,1-2.29,1.37c-1.61,0-2.85-1.3-2.85-3.43,0-2.31,1.32-3.6,2.94-3.6,1.4,0,2,.66,2.2,1.21,0-.4,0-.88,0-1h.65c0,.24,0,1.33,0,2Zm-5.07-3c0,1.64.87,2.82,2.18,2.82,1.72,0,2.24-1.14,2.24-2.93s-.55-2.81-2.2-2.81S339.19,196.14,339.19,197.7Z"/><path class="cls-4" d="M346.66,197.81c0,1.77.91,2.87,2.23,2.87a1.94,1.94,0,0,0,2-1.29h.7a2.64,2.64,0,0,1-2.71,1.94c-2.09,0-2.9-1.8-2.9-3.55,0-2,1-3.65,3-3.65a2.84,2.84,0,0,1,2.79,3.12c0,.19,0,.38,0,.56Zm4.36-.6c0-1.36-.76-2.43-2.1-2.43s-2.06,1-2.21,2.43Z"/><path class="cls-4" d="M353.41,196c0-.61,0-1.18,0-1.73h.67c0,.22,0,1.11,0,1.3a2.24,2.24,0,0,1,2.28-1.47c1.22,0,2.3.69,2.3,2.58v4.45H358v-4.34c0-1.22-.51-2-1.71-2-1.63,0-2.19,1.36-2.19,2.86v3.5h-.69Z"/><path class="cls-4" d="M366,199.14a2.64,2.64,0,0,1-2.66,2.19c-1.72,0-2.94-1.28-2.94-3.57,0-1.88,1-3.63,3-3.63a2.46,2.46,0,0,1,2.58,2.2h-.7a1.85,1.85,0,0,0-1.89-1.55c-1.46,0-2.28,1.23-2.28,2.95s.76,3,2.21,3a1.94,1.94,0,0,0,2-1.54Z"/><path class="cls-4" d="M367.72,194.3c1.39,3.92,2,5.54,2.23,6.29h0c.28-.84.83-2.43,2.16-6.29h.71l-2.58,7.26c-.73,2-1.22,2.49-2.46,2.49a6.26,6.26,0,0,1-.63,0v-.69a4.21,4.21,0,0,0,.62,0c1,0,1.3-.48,1.81-1.9L367,194.3Z"/><path class="cls-5" d="M78.85,190.25H83.4c2.38,0,4.36,1.23,4.36,3.71s-1.88,3.92-4.58,3.92H81.1V203H78.85Zm2.25,5.83h2c1.48,0,2.42-.53,2.42-2.07,0-1.37-1-1.95-2.36-1.95h-2Z"/><path class="cls-5" d="M89.36,196.69c0-1.55,0-2.64,0-3.23h2.13c0,.42.06,1,.06,1.76a3,3,0,0,1,3-1.92v2.23c-2,0-2.92.86-2.92,3V203H89.36Z"/><path class="cls-5" d="M104.16,198.08c0,2.78-1.28,5.08-4.46,5.08s-4.37-2.44-4.37-5c0-2.41,1.36-4.86,4.5-4.86C102.77,193.27,104.16,195.45,104.16,198.08Zm-6.6,0c0,2.08.77,3.33,2.23,3.33s2.16-1.23,2.16-3.32-.73-3.09-2.22-3.09S97.56,196.23,97.56,198.09Z"/><path class="cls-5" d="M108.28,193.46V203c0,2.32-.29,3.85-2.77,3.85a3.76,3.76,0,0,1-.75-.05V205a4.47,4.47,0,0,0,.47,0c.87,0,.86-.62.86-1.57v-10Zm-2.19-1.75V189.5h2.19v2.21Z"/><path class="cls-5" d="M112.39,198.7c0,1.42.57,2.72,2.07,2.72a1.77,1.77,0,0,0,1.82-1.27h2.14a3.85,3.85,0,0,1-4,3c-3,0-4.21-2.17-4.21-4.94,0-2.35,1.18-4.95,4.31-4.95s4.06,2.3,4.06,4.67c0,.1,0,.64,0,.76Zm4-1.47c0-1.26-.55-2.28-2-2.28-1.58,0-2,1.33-2,2.28Z"/><path class="cls-5" d="M128.21,199.76a3.76,3.76,0,0,1-4.05,3.4c-2.84,0-4.2-1.79-4.2-4.93,0-2.93,1.58-5,4.33-5a3.6,3.6,0,0,1,3.91,3.48H126c-.12-.93-.59-1.78-1.77-1.78-1.46,0-2.06,1.31-2.06,3.18,0,2.3.74,3.33,2,3.33s1.58-.75,1.83-1.72Z"/><path class="cls-5" d="M129.13,193.46h1.41v-2.65h2.17v2.65h1.77v1.72h-1.77v5.25c0,.7.17,1,1,1a3.24,3.24,0,0,0,.62-.05v1.54a5,5,0,0,1-1.43.17c-1.69,0-2.32-.67-2.32-2.37v-5.54h-1.41Z"/></g><rect class="cls-6" y="0.03" width="425.05" height="102.26"/></g></g></svg>