<svg xmlns="http://www.w3.org/2000/svg" xmlns:xlink="http://www.w3.org/1999/xlink" viewBox="0 0 448.2 425.4"><defs><style>.cls-1{fill:#ead1d6;}.cls-2{fill:#644c80;}.cls-3{fill:#442561;}.cls-4{fill:url(#Sfumatura_senza_nome_9);}</style><linearGradient id="Sfumatura_senza_nome_9" x1="224.1" y1="-107.47" x2="224.1" y2="146.59" gradientUnits="userSpaceOnUse"><stop offset="0" stop-color="#442561"/><stop offset="0.41" stop-color="#937698"/><stop offset="0.77" stop-color="#d1b8c5"/><stop offset="0.93" stop-color="#ead1d6"/></linearGradient></defs><g id="Livello_2" data-name="Livello 2"><g id="Livello_1-2" data-name="Livello 1"><rect class="cls-1" y="1.02" width="448.2" height="424.38"/><path class="cls-2" d="M88.45,206a2.12,2.12,0,0,1,2.14-2.14h8.56a2.13,2.13,0,0,1,2.14,2.14,21.22,21.22,0,0,1-2.21,7.9,22.49,22.49,0,0,1-4.8,6.42,22,22,0,0,1-6.76,4.28,21.65,21.65,0,0,1-8.18,1.55,21.39,21.39,0,0,1-8.56-1.72,22,22,0,0,1-11.66-11.67,21.34,21.34,0,0,1-1.72-8.55,21.69,21.69,0,0,1,1.72-8.6,23.35,23.35,0,0,1,4.69-7.1,21.79,21.79,0,0,1,7-4.83,21.77,21.77,0,0,1,17.22,0,22.86,22.86,0,0,1,7.08,4.9,2,2,0,0,1,.79,1.52,2.33,2.33,0,0,1-.52,1.59,2.11,2.11,0,0,1-1.65.65,2.53,2.53,0,0,1-1.73-.79,18.17,18.17,0,0,0-5.66-3.94,17.42,17.42,0,0,0-13.87,0,18,18,0,0,0-5.62,3.9,18.47,18.47,0,0,0-3.77,5.73,17.73,17.73,0,0,0-1.38,6.94,17.42,17.42,0,0,0,1.38,6.9,17.44,17.44,0,0,0,9.39,9.38,18,18,0,0,0,12.9.35,17.92,17.92,0,0,0,5.11-2.87,17.3,17.3,0,0,0,3.87-4.34,18,18,0,0,0,2.27-5.49h-6A2.12,2.12,0,0,1,88.45,206Z"/><path class="cls-3" d="M103.91,209.26a16.15,16.15,0,0,1,1.27-6.38,16.8,16.8,0,0,1,8.73-8.87,16.55,16.55,0,0,1,6.35-1.38,2.45,2.45,0,0,1,1.76.62,2.08,2.08,0,0,1,0,3,2.45,2.45,0,0,1-1.76.62,12.09,12.09,0,0,0-4.69,1.07,12.91,12.91,0,0,0-3.86,2.66,11.72,11.72,0,0,0-2.59,3.9,12.19,12.19,0,0,0-.93,4.72V224a2.07,2.07,0,0,1-.62,1.52,2.11,2.11,0,0,1-1.52.62,2.12,2.12,0,0,1-2.14-2.14Z"/><path class="cls-3" d="M137.17,192.77a15.19,15.19,0,0,1,6.31,1.35,17.18,17.18,0,0,1,5.28,3.62,17.52,17.52,0,0,1,3.63,5.31,16,16,0,0,1,1.34,6.49V224.1a2.05,2.05,0,0,1-.62,1.52,2.07,2.07,0,0,1-1.52.62,2.13,2.13,0,0,1-2.14-2.14v-4.21a21.49,21.49,0,0,1-5.48,4.38A13.77,13.77,0,0,1,137,226.1a16.66,16.66,0,0,1-11.73-4.69,16.12,16.12,0,0,1-3.59-5.25,16.57,16.57,0,0,1-1.31-6.62,16.44,16.44,0,0,1,4.8-11.7,17.21,17.21,0,0,1,5.31-3.59A18.31,18.31,0,0,1,137.17,192.77Zm-12.49,16.77a11.94,11.94,0,0,0,1,4.8,12.44,12.44,0,0,0,2.65,3.93,12.57,12.57,0,0,0,3.94,2.66,12.39,12.39,0,0,0,9.49,0,12.21,12.21,0,0,0,3.89-2.59,12.49,12.49,0,0,0,2.7-3.9,13.8,13.8,0,0,0,1.13-4.93,12.32,12.32,0,0,0-1-4.83,12.33,12.33,0,0,0-6.63-6.63,12.32,12.32,0,0,0-4.83-1,12,12,0,0,0-4.79,1,12.57,12.57,0,0,0-3.94,2.66,12.29,12.29,0,0,0-2.65,4A12.15,12.15,0,0,0,124.68,209.54Z"/><path class="cls-3" d="M193.21,184a2.14,2.14,0,1,1,4.27,0v14.21a16.75,16.75,0,0,1,5.46-4,16.76,16.76,0,0,1,13.38-.17,16.67,16.67,0,0,1,8.84,8.84,16.21,16.21,0,0,1,1.31,6.48V224.1a2.14,2.14,0,1,1-4.28,0V209.33a11.86,11.86,0,0,0-1-4.79,12.36,12.36,0,0,0-6.59-6.59,11.86,11.86,0,0,0-4.79-1,12,12,0,0,0-4.7.93,12.52,12.52,0,0,0-3.86,2.52,12.82,12.82,0,0,0-2.69,3.76,11.52,11.52,0,0,0-1.11,4.66V224.1a2.12,2.12,0,0,1-2.13,2.14,2.07,2.07,0,0,1-1.52-.62,2.05,2.05,0,0,1-.62-1.52V184Z"/><path class="cls-3" d="M228.4,185.25a2.73,2.73,0,0,1,.83-2,2.82,2.82,0,0,1,4,0,2.83,2.83,0,1,1-4.83,2Zm.69,9.52a2.14,2.14,0,1,1,4.28,0V224a2.14,2.14,0,1,1-4.28,0Z"/><path class="cls-2" d="M240.82,204a17.42,17.42,0,0,0,1.38,6.9,18.18,18.18,0,0,0,3.76,5.66,17.72,17.72,0,0,0,5.63,3.83,17.1,17.1,0,0,0,6.9,1.41,17.59,17.59,0,0,0,7.21-1.48,17.23,17.23,0,0,0,5.76-4.11,2.64,2.64,0,0,1,1.42-.82,1.84,1.84,0,0,1,1.55.27,2.07,2.07,0,0,1,.76,1.69,2.54,2.54,0,0,1-.62,1.76,21.36,21.36,0,0,1-7.18,5.14,21.78,21.78,0,0,1-8.9,1.83,21.39,21.39,0,0,1-8.56-1.72,21.89,21.89,0,0,1-7-4.73,22.42,22.42,0,0,1-4.69-7,22.19,22.19,0,0,1,0-17.18,22.14,22.14,0,0,1,11.66-11.8,21.77,21.77,0,0,1,17.22,0,22.7,22.7,0,0,1,7.07,4.9,3.43,3.43,0,0,1,.83,1.38,1.81,1.81,0,0,1-.21,1.59,2,2,0,0,1-1.62.89,2.26,2.26,0,0,1-1.83-.69,30.54,30.54,0,0,0-5.79-3.86,15.17,15.17,0,0,0-7.11-1.72,17.1,17.1,0,0,0-6.9,1.41,17.48,17.48,0,0,0-5.63,3.86,18.72,18.72,0,0,0-3.76,5.7A17.42,17.42,0,0,0,240.82,204Z"/><path class="cls-3" d="M295,192.77a15.24,15.24,0,0,1,6.32,1.35,17.37,17.37,0,0,1,8.9,8.93,16.23,16.23,0,0,1,0,12.87,17.42,17.42,0,0,1-3.56,5.28,16.45,16.45,0,0,1-11.83,4.9,16.66,16.66,0,0,1-11.74-4.69,16.1,16.1,0,0,1-3.58-5.25,17.08,17.08,0,0,1,0-13.07,16.59,16.59,0,0,1,3.52-5.25,17.45,17.45,0,0,1,5.31-3.59A18.31,18.31,0,0,1,295,192.77ZM282.5,209.54a11.94,11.94,0,0,0,1,4.8,12.54,12.54,0,0,0,6.59,6.59,12,12,0,0,0,4.8,1,12.34,12.34,0,0,0,8.79-3.62,12.47,12.47,0,0,0,2.66-3.93,11.94,11.94,0,0,0,1-4.8,12.15,12.15,0,0,0-1-4.83,12.35,12.35,0,0,0-11.45-7.59,12,12,0,0,0-4.8,1,12.43,12.43,0,0,0-6.59,6.63A12.15,12.15,0,0,0,282.5,209.54Z"/><path class="cls-3" d="M330.05,192.77a14.92,14.92,0,0,1,7,2,22.75,22.75,0,0,1,5.45,4.31V184a2.07,2.07,0,0,1,.62-1.52,2.17,2.17,0,0,1,3,0,2.07,2.07,0,0,1,.62,1.52v25.53a16.57,16.57,0,0,1-1.31,6.62,16.12,16.12,0,0,1-3.59,5.25,16.8,16.8,0,0,1-11.73,4.69,16.45,16.45,0,0,1-11.84-4.9,17.39,17.39,0,0,1-3.55-5.28,15.67,15.67,0,0,1-1.31-6.38,16,16,0,0,1,1.34-6.49,17.52,17.52,0,0,1,3.63-5.31,17.18,17.18,0,0,1,5.28-3.62A15.19,15.19,0,0,1,330.05,192.77Zm12.49,16.77a14,14,0,0,0-1.14-5,12.62,12.62,0,0,0-2.66-3.93,12,12,0,0,0-8.55-3.52,12.32,12.32,0,0,0-4.83,1,12.33,12.33,0,0,0-6.63,6.63,12.32,12.32,0,0,0-1,4.83,12.1,12.1,0,0,0,1,4.8,12.64,12.64,0,0,0,2.66,3.93,12.47,12.47,0,0,0,4,2.66,12.32,12.32,0,0,0,4.83,1,12,12,0,0,0,4.79-1,12.45,12.45,0,0,0,6.59-6.59A11.94,11.94,0,0,0,342.54,209.54Z"/><path class="cls-3" d="M354.55,211.54a11.67,11.67,0,0,0,1.45,4.11,12.5,12.5,0,0,0,6.41,5.45,12.51,12.51,0,0,0,9.11-.14,12.66,12.66,0,0,0,3.94-2.59,2.16,2.16,0,0,1,3,0,2.17,2.17,0,0,1,0,3,12.86,12.86,0,0,1-5.14,3.62,18.59,18.59,0,0,1-6.59,1.07A16.66,16.66,0,0,1,355,221.41a16.12,16.12,0,0,1-3.59-5.25,16.57,16.57,0,0,1-1.31-6.62,16.44,16.44,0,0,1,4.8-11.7,17.21,17.21,0,0,1,5.31-3.59,18.31,18.31,0,0,1,6.66-1.48,15.23,15.23,0,0,1,6.25,1.31,18.2,18.2,0,0,1,5.21,3.52,17,17,0,0,1,3.62,5.18,16.74,16.74,0,0,1,1.48,6.35,1.91,1.91,0,0,1-.58,1.79,2.38,2.38,0,0,1-1.56.62Zm12.21-14.42a11.73,11.73,0,0,0-4.31.79,13.09,13.09,0,0,0-3.66,2.14,11.74,11.74,0,0,0-2.69,3.21,12.85,12.85,0,0,0-1.48,4H379a12.69,12.69,0,0,0-1.52-4,12.44,12.44,0,0,0-2.73-3.21,13.18,13.18,0,0,0-3.65-2.14A11.79,11.79,0,0,0,366.76,197.12Z"/><path class="cls-3" d="M189.34,203a17.39,17.39,0,0,0-3.55-5.28,17,17,0,0,0-18.29-3.66,16.76,16.76,0,0,0-5.28,3.45,16.12,16.12,0,0,0-3.59,5.25,16.57,16.57,0,0,0-1.31,6.62v32.34a2.14,2.14,0,1,0,4.28,0V219.89a22.51,22.51,0,0,0,5.45,4.31,14.92,14.92,0,0,0,7,2,15.27,15.27,0,0,0,6.32-1.35,17.25,17.25,0,0,0,5.27-3.62,17.52,17.52,0,0,0,3.63-5.31,16,16,0,0,0,1.34-6.49A15.67,15.67,0,0,0,189.34,203Zm-3.93,11.21a12.33,12.33,0,0,1-6.63,6.63,12.28,12.28,0,0,1-4.83,1,12,12,0,0,1-8.55-3.52,13.08,13.08,0,0,1-2.7-3.93,12.73,12.73,0,0,1-1.1-5,11.86,11.86,0,0,1,1-4.79,12.42,12.42,0,0,1,6.59-6.6,12,12,0,0,1,4.79-1,12.28,12.28,0,0,1,4.83,1,12.4,12.4,0,0,1,6.63,6.6,12,12,0,0,1,1,4.79A12.32,12.32,0,0,1,185.41,214.23Z"/><path class="cls-2" d="M168.57,234c1,3.54,1.61,5.57,1.72,6.18h0c.11-.55.8-2.71,1.87-6.18h.74c1.28,4.24,1.66,5.46,1.78,6h0c.19-.76.51-1.79,1.77-6h.73L175,240.85h-.76c-.74-2.43-1.63-5.41-1.77-6h0c-.14.67-.92,3.13-1.82,6h-.82l-2-6.86Z"/><path class="cls-2" d="M178.78,237.5c0,1.77.9,2.87,2.22,2.87a1.94,1.94,0,0,0,2-1.29h.7A2.64,2.64,0,0,1,181,241c-2.08,0-2.89-1.8-2.89-3.54,0-2,1-3.66,3-3.66a2.84,2.84,0,0,1,2.78,3.12c0,.19,0,.38,0,.56Zm4.35-.6a2.16,2.16,0,0,0-2.1-2.43c-1.41,0-2.06,1-2.21,2.43Z"/><path class="cls-2" d="M185.58,230.73h.68v4.41a2.37,2.37,0,0,1,2.35-1.32c1.62,0,2.82,1.33,2.82,3.45s-1.07,3.75-3,3.75a2.14,2.14,0,0,1-2.17-1.25c0,.44,0,.89,0,1.08h-.68c0-.78,0-1.56,0-2.35Zm5.12,6.55c0-1.71-.85-2.81-2.16-2.81-1.71,0-2.32,1.16-2.32,3,0,1.62.54,2.94,2.24,2.94C189.85,240.37,190.7,239.22,190.7,237.28Z"/><path class="cls-2" d="M202,230.73v8.15c0,.65,0,1.29,0,2h-.66c0-.16,0-.81,0-1.15A2.24,2.24,0,0,1,199,241c-1.78,0-2.85-1.46-2.85-3.52s1.16-3.68,3-3.68c1.37,0,1.92.59,2.13,1v-4.12Zm-5.13,6.75c0,1.88,1,2.89,2.16,2.89,1.81,0,2.31-1.25,2.31-3.11s-.43-2.79-2.19-2.79C197.8,234.47,196.88,235.55,196.88,237.48Z"/><path class="cls-2" d="M204.41,237.5c0,1.77.91,2.87,2.23,2.87a1.94,1.94,0,0,0,2-1.29h.7a2.64,2.64,0,0,1-2.71,1.94c-2.09,0-2.9-1.8-2.9-3.54,0-2,1-3.66,3-3.66a2.84,2.84,0,0,1,2.79,3.12c0,.19,0,.38,0,.56Zm4.36-.6c0-1.36-.76-2.43-2.1-2.43s-2.06,1-2.22,2.43Z"/><path class="cls-2" d="M211.19,234c1.11,3.14,1.88,5.28,2.14,6.16h0c.15-.51.92-2.55,2.25-6.16h.73l-2.59,6.86h-.83L210.46,234Z"/><path class="cls-2" d="M217.82,237.5c0,1.77.91,2.87,2.23,2.87a1.92,1.92,0,0,0,2-1.29h.7A2.62,2.62,0,0,1,220,241c-2.09,0-2.9-1.8-2.9-3.54,0-2,1-3.66,3-3.66a2.84,2.84,0,0,1,2.79,3.12c0,.19,0,.38,0,.56Zm4.35-.6a2.16,2.16,0,0,0-2.1-2.43c-1.41,0-2.06,1-2.21,2.43Z"/><path class="cls-2" d="M224.62,240.85V230.73h.69v10.12Z"/><path class="cls-2" d="M233.12,237.41c0,1.91-1.05,3.61-3.1,3.61-1.85,0-3-1.53-3-3.6s1.09-3.6,3.08-3.6C231.92,233.82,233.12,235.25,233.12,237.41Zm-5.38,0c0,1.63.88,3,2.34,3s2.32-1.22,2.32-3-.83-2.95-2.35-2.95S227.74,235.77,227.74,237.42Z"/><path class="cls-2" d="M235.52,239.84v3.76h-.69v-7.92c0-.57,0-1.17,0-1.69h.67c0,.26,0,.67,0,1.23a2.52,2.52,0,0,1,2.41-1.4c1.62,0,2.75,1.36,2.75,3.42,0,2.47-1.32,3.78-3,3.78A2.25,2.25,0,0,1,235.52,239.84Zm4.43-2.57c0-1.59-.77-2.79-2.13-2.79-1.66,0-2.35,1-2.35,2.91s.54,3,2.26,3C239.16,240.37,240,239.16,240,237.27Z"/><path class="cls-2" d="M242.4,235.76c0-.59,0-1.24,0-1.77h.68c0,.23,0,.82,0,1.22a2.14,2.14,0,0,1,2.06-1.39,2,2,0,0,1,2,1.36,2.34,2.34,0,0,1,2.24-1.36c1.05,0,2.15.61,2.15,2.51v4.52h-.69v-4.43c0-.92-.33-1.93-1.6-1.93s-1.94,1.08-1.94,2.41v3.95h-.67v-4.42c0-1-.3-1.94-1.57-1.94s-2,1.19-2,2.59v3.77h-.69Z"/><path class="cls-2" d="M253.94,237.5c0,1.77.91,2.87,2.22,2.87a1.93,1.93,0,0,0,2-1.29h.7a2.63,2.63,0,0,1-2.7,1.94c-2.09,0-2.9-1.8-2.9-3.54,0-2,1-3.66,3-3.66a2.85,2.85,0,0,1,2.79,3.12,5.15,5.15,0,0,1,0,.56Zm4.35-.6a2.16,2.16,0,0,0-2.1-2.43c-1.41,0-2.06,1-2.21,2.43Z"/><path class="cls-2" d="M260.68,235.72c0-.61,0-1.18,0-1.73h.67c0,.22,0,1.11,0,1.3a2.25,2.25,0,0,1,2.28-1.47c1.22,0,2.31.69,2.31,2.58v4.45h-.69v-4.34c0-1.22-.51-2-1.7-2-1.64,0-2.2,1.36-2.2,2.86v3.5h-.69Z"/><path class="cls-2" d="M267.14,234h1.28v-2.15h.69V234h1.63v.64h-1.63v4.47c0,.76.16,1.2.82,1.2a2.5,2.5,0,0,0,.71-.08v.61a2.53,2.53,0,0,1-.85.12c-.88,0-1.37-.44-1.37-1.54v-4.78h-1.28Z"/><path class="cls-2" d="M280.42,239.55a7.84,7.84,0,0,0,.1,1.3h-.66a4.94,4.94,0,0,1-.12-1,2.28,2.28,0,0,1-2.25,1.22,2,2,0,0,1-2.28-2.06c0-1.51,1.16-2.2,3.22-2.2h1.31v-.7c0-.69-.21-1.61-1.77-1.61-1.39,0-1.6.73-1.75,1.29h-.68a2.13,2.13,0,0,1,2.44-1.92c1.57,0,2.44.66,2.44,2.17Zm-.67-2.2h-1.34c-1.53,0-2.48.4-2.48,1.58a1.44,1.44,0,0,0,1.58,1.46c2,0,2.24-1.31,2.24-2.79Z"/><path class="cls-2" d="M282.69,235.72c0-.61,0-1.18,0-1.73h.67c0,.22,0,1.11,0,1.3a2.25,2.25,0,0,1,2.28-1.47c1.22,0,2.31.69,2.31,2.58v4.45h-.69v-4.34c0-1.22-.51-2-1.7-2-1.64,0-2.2,1.36-2.2,2.86v3.5h-.69Z"/><path class="cls-2" d="M295.52,230.73v8.15c0,.65,0,1.29,0,2h-.66c0-.16,0-.81,0-1.15a2.26,2.26,0,0,1-2.31,1.32c-1.79,0-2.86-1.46-2.86-3.52s1.17-3.68,3-3.68c1.37,0,1.92.59,2.13,1v-4.12Zm-5.12,6.75c0,1.88,1,2.89,2.16,2.89,1.81,0,2.3-1.25,2.3-3.11s-.42-2.79-2.18-2.79C291.32,234.47,290.4,235.55,290.4,237.48Z"/><path class="cls-2" d="M306.65,230.73v8.15c0,.65,0,1.29,0,2H306c0-.16-.05-.81-.05-1.15a2.24,2.24,0,0,1-2.3,1.32c-1.79,0-2.86-1.46-2.86-3.52s1.17-3.68,3-3.68c1.37,0,1.92.59,2.12,1v-4.12Zm-5.12,6.75c0,1.88,1,2.89,2.15,2.89,1.82,0,2.31-1.25,2.31-3.11s-.42-2.79-2.18-2.79C302.45,234.47,301.53,235.55,301.53,237.48Z"/><path class="cls-2" d="M309.06,237.5c0,1.77.9,2.87,2.22,2.87a1.94,1.94,0,0,0,2-1.29h.7a2.64,2.64,0,0,1-2.71,1.94c-2.08,0-2.89-1.8-2.89-3.54,0-2,1-3.66,3-3.66a2.84,2.84,0,0,1,2.78,3.12c0,.19,0,.38,0,.56Zm4.35-.6a2.17,2.17,0,0,0-2.1-2.43c-1.42,0-2.06,1-2.21,2.43Z"/><path class="cls-2" d="M316,239a1.82,1.82,0,0,0,1.95,1.43c1.22,0,1.71-.57,1.71-1.34s-.33-1.16-1.86-1.53c-1.78-.43-2.22-1-2.22-1.87s.72-1.83,2.27-1.83a2.19,2.19,0,0,1,2.4,1.92h-.68a1.63,1.63,0,0,0-1.75-1.29c-1.19,0-1.53.59-1.53,1.14s.33.95,1.68,1.28c1.94.47,2.42,1.1,2.42,2.13,0,1.25-1,2-2.46,2a2.38,2.38,0,0,1-2.63-2.06Z"/><path class="cls-2" d="M322.07,230.73h.68v1.33h-.68Zm0,3.26h.68v6.86h-.68Z"/><path class="cls-2" d="M330.25,240.39c0,2.19-1,3.35-3,3.35a2.43,2.43,0,0,1-2.7-2.05h.7a1.9,1.9,0,0,0,2,1.4c1.79,0,2.28-1.15,2.28-2.9v-.71a2.17,2.17,0,0,1-2.29,1.37c-1.61,0-2.84-1.3-2.84-3.43,0-2.31,1.32-3.6,2.94-3.6,1.4,0,2,.66,2.19,1.21,0-.4,0-.88,0-1h.65c0,.24,0,1.33,0,2Zm-5.07-3c0,1.64.87,2.82,2.19,2.82,1.72,0,2.24-1.14,2.24-2.93s-.55-2.81-2.2-2.81S325.18,235.83,325.18,237.39Z"/><path class="cls-2" d="M332.51,235.72c0-.61,0-1.18,0-1.73h.68c0,.22,0,1.11,0,1.3a2.26,2.26,0,0,1,2.28-1.47c1.23,0,2.31.69,2.31,2.58v4.45h-.69v-4.34c0-1.22-.5-2-1.7-2-1.63,0-2.2,1.36-2.2,2.86v3.5h-.68Z"/><path class="cls-2" d="M348.32,239.55a8.17,8.17,0,0,0,.09,1.3h-.65a4.13,4.13,0,0,1-.13-1,2.27,2.27,0,0,1-2.25,1.22A2,2,0,0,1,343.1,239c0-1.51,1.17-2.2,3.23-2.2h1.3v-.7c0-.69-.2-1.61-1.77-1.61-1.39,0-1.59.73-1.74,1.29h-.69a2.13,2.13,0,0,1,2.44-1.92c1.57,0,2.45.66,2.45,2.17Zm-.68-2.2H346.3c-1.53,0-2.47.4-2.47,1.58a1.44,1.44,0,0,0,1.58,1.46c2,0,2.23-1.31,2.23-2.79Z"/><path class="cls-2" d="M355.83,240.39c0,2.19-1,3.35-3,3.35a2.43,2.43,0,0,1-2.7-2.05h.71a1.89,1.89,0,0,0,2,1.4c1.79,0,2.28-1.15,2.28-2.9v-.71a2.17,2.17,0,0,1-2.29,1.37c-1.61,0-2.84-1.3-2.84-3.43,0-2.31,1.32-3.6,2.94-3.6,1.4,0,2,.66,2.19,1.21,0-.4,0-.88,0-1h.65c0,.24,0,1.33,0,2Zm-5.06-3c0,1.64.86,2.82,2.18,2.82,1.72,0,2.24-1.14,2.24-2.93s-.55-2.81-2.2-2.81S350.77,235.83,350.77,237.39Z"/><path class="cls-2" d="M358.24,237.5c0,1.77.91,2.87,2.22,2.87a1.93,1.93,0,0,0,2-1.29h.7a2.63,2.63,0,0,1-2.7,1.94c-2.09,0-2.9-1.8-2.9-3.54,0-2,1-3.66,3-3.66a2.85,2.85,0,0,1,2.79,3.12,5.15,5.15,0,0,1,0,.56Zm4.35-.6a2.16,2.16,0,0,0-2.1-2.43c-1.41,0-2.06,1-2.21,2.43Z"/><path class="cls-2" d="M365,235.72c0-.61,0-1.18,0-1.73h.67c0,.22,0,1.11,0,1.3a2.25,2.25,0,0,1,2.28-1.47c1.22,0,2.31.69,2.31,2.58v4.45h-.69v-4.34c0-1.22-.51-2-1.7-2-1.64,0-2.2,1.36-2.2,2.86v3.5H365Z"/><path class="cls-2" d="M377.57,238.83A2.65,2.65,0,0,1,374.9,241c-1.71,0-2.94-1.28-2.94-3.57,0-1.88,1-3.63,3-3.63a2.47,2.47,0,0,1,2.59,2.2h-.7a1.86,1.86,0,0,0-1.9-1.55c-1.45,0-2.28,1.23-2.28,2.95s.77,3,2.21,3a2,2,0,0,0,2-1.54Z"/><path class="cls-2" d="M379.3,234c1.39,3.92,2,5.54,2.22,6.29h0c.27-.84.82-2.43,2.15-6.29h.72l-2.58,7.26c-.73,2-1.23,2.49-2.46,2.49a6.07,6.07,0,0,1-.63,0V243a4,4,0,0,0,.61,0c1,0,1.31-.48,1.82-1.9L378.54,234Z"/><path class="cls-3" d="M90.42,229.94H95c2.39,0,4.37,1.23,4.37,3.71s-1.89,3.92-4.59,3.92H92.67v5.11H90.42Zm2.25,5.83h2c1.48,0,2.43-.53,2.43-2.07,0-1.37-1-1.95-2.37-1.95h-2Z"/><path class="cls-3" d="M100.94,236.38c0-1.55,0-2.64,0-3.23H103a16.79,16.79,0,0,1,.06,1.76,3,3,0,0,1,3-1.92v2.23c-2,0-2.92.86-2.92,3v4.45h-2.18Z"/><path class="cls-3" d="M115.74,237.77c0,2.78-1.29,5.08-4.46,5.08s-4.37-2.44-4.37-5c0-2.41,1.35-4.86,4.49-4.86C114.35,233,115.74,235.14,115.74,237.77Zm-6.6,0c0,2.08.76,3.33,2.23,3.33s2.15-1.23,2.15-3.32-.72-3.09-2.21-3.09S109.14,235.92,109.14,237.78Z"/><path class="cls-3" d="M119.85,233.15v9.53c0,2.32-.29,3.85-2.77,3.85a3.83,3.83,0,0,1-.75-.05v-1.81a4.65,4.65,0,0,0,.48,0c.86,0,.86-.62.86-1.57v-10Zm-2.18-1.75v-2.21h2.19v2.21Z"/><path class="cls-3" d="M124,238.39c0,1.42.56,2.72,2.07,2.72a1.76,1.76,0,0,0,1.81-1.27H130a3.87,3.87,0,0,1-4,3c-3,0-4.2-2.16-4.2-4.94,0-2.35,1.17-4.95,4.3-4.95s4.06,2.3,4.06,4.67c0,.1,0,.64,0,.76Zm4-1.47c0-1.26-.55-2.28-2-2.28-1.58,0-2,1.34-2,2.28Z"/><path class="cls-3" d="M139.78,239.45a3.76,3.76,0,0,1-4.05,3.4c-2.83,0-4.2-1.79-4.2-4.93,0-2.93,1.58-5,4.34-5a3.6,3.6,0,0,1,3.91,3.48H137.6c-.13-.93-.59-1.78-1.78-1.78-1.46,0-2.06,1.31-2.06,3.18,0,2.3.74,3.33,2,3.33s1.58-.75,1.83-1.72Z"/><path class="cls-3" d="M140.71,233.15h1.4V230.5h2.17v2.65h1.77v1.72h-1.77v5.25c0,.7.17,1,1,1a3.41,3.41,0,0,0,.63-.05v1.54a5.15,5.15,0,0,1-1.44.17c-1.69,0-2.32-.67-2.32-2.37v-5.54h-1.4Z"/><rect class="cls-4" width="448.2" height="139.29"/></g></g></svg>