<svg xmlns="http://www.w3.org/2000/svg" viewBox="0 0 746.42 147.61"><defs><style>.cls-1{fill:#644c80;}.cls-2{fill:#442561;}</style></defs><g id="Livello_2" data-name="Livello 2"><g id="Livello_1-2" data-name="Livello 1"><path class="cls-1" d="M70.88,55a4.85,4.85,0,0,1,4.88-4.88H95.3A4.85,4.85,0,0,1,100.18,55a48.63,48.63,0,0,1-5,18,51.61,51.61,0,0,1-11,14.65,50,50,0,0,1-15.43,9.76A49.08,49.08,0,0,1,50.09,101,48.72,48.72,0,0,1,30.56,97,50,50,0,0,1,3.94,70.41,48.72,48.72,0,0,1,0,50.88,49.28,49.28,0,0,1,3.94,31.27,53.06,53.06,0,0,1,14.65,15,49.56,49.56,0,0,1,30.56,4,48,48,0,0,1,50.09,0,48.18,48.18,0,0,1,69.86,4.1,51.67,51.67,0,0,1,86,15.28a4.57,4.57,0,0,1,1.82,3.46,5.32,5.32,0,0,1-1.19,3.63,4.86,4.86,0,0,1-3.78,1.49,5.67,5.67,0,0,1-3.93-1.81,41.58,41.58,0,0,0-12.92-9,38.65,38.65,0,0,0-15.91-3.3,38.21,38.21,0,0,0-15.75,3.3A41.19,41.19,0,0,0,21.5,22a41.94,41.94,0,0,0-8.58,13.08A40.19,40.19,0,0,0,9.77,50.88a39.66,39.66,0,0,0,3.15,15.75A39.59,39.59,0,0,0,34.34,88.05a40.95,40.95,0,0,0,29.45.79A40.9,40.9,0,0,0,75.45,82.3a39.9,39.9,0,0,0,8.82-9.92,40.43,40.43,0,0,0,5.2-12.52H75.76A4.85,4.85,0,0,1,70.88,55Z"/><path class="cls-2" d="M106.16,62.53A36.74,36.74,0,0,1,109.08,48,38.3,38.3,0,0,1,129,27.72a37.6,37.6,0,0,1,14.5-3.15,5.58,5.58,0,0,1,4,1.42,4.75,4.75,0,0,1,0,6.93,5.58,5.58,0,0,1-4,1.42,27.45,27.45,0,0,0-10.71,2.44A29.53,29.53,0,0,0,124,42.84a27.09,27.09,0,0,0-5.9,8.9,27.84,27.84,0,0,0-2.13,10.79V96.24a4.89,4.89,0,1,1-9.77,0Z"/><path class="cls-2" d="M182.09,24.89A34.8,34.8,0,0,1,196.5,28a39.72,39.72,0,0,1,20.32,20.4,36.06,36.06,0,0,1,3.07,14.8V96.4a4.89,4.89,0,1,1-9.77,0V86.79a48.94,48.94,0,0,1-12.52,10A31.36,31.36,0,0,1,181.77,101,38.11,38.11,0,0,1,155,90.26a36.94,36.94,0,0,1-8.19-12,37.83,37.83,0,0,1-3-15.13,37.22,37.22,0,0,1,2.91-14.72,37.62,37.62,0,0,1,8-12,39.19,39.19,0,0,1,12.13-8.19A41.63,41.63,0,0,1,182.09,24.89ZM153.58,63.16a27.36,27.36,0,0,0,2.2,11,28.51,28.51,0,0,0,15,15,28.11,28.11,0,0,0,21.66.08,28.34,28.34,0,0,0,8.9-5.9,28.71,28.71,0,0,0,6.14-8.9,31.24,31.24,0,0,0,2.6-11.27,27.91,27.91,0,0,0-2.2-11A28,28,0,0,0,192.8,37a28,28,0,0,0-11-2.21,27.44,27.44,0,0,0-11,2.21,28.53,28.53,0,0,0-9,6.06,28.34,28.34,0,0,0-8.27,20.08Z"/><path class="cls-2" d="M310,4.88a4.69,4.69,0,0,1,1.42-3.46,4.94,4.94,0,0,1,6.93,0,4.72,4.72,0,0,1,1.42,3.46V37.33a38.11,38.11,0,0,1,12.44-9.21A36.7,36.7,0,0,1,348,24.73a37.08,37.08,0,0,1,14.81,3,37.86,37.86,0,0,1,20.16,20.16,37.08,37.08,0,0,1,3,14.81V96.4a4.88,4.88,0,1,1-9.76,0V62.69a27.44,27.44,0,0,0-2.21-10.95,28.51,28.51,0,0,0-15-15,28.23,28.23,0,0,0-21.66-.08,28.47,28.47,0,0,0-15,14.34,25.94,25.94,0,0,0-2.52,10.63V96.4a4.89,4.89,0,1,1-9.77,0V4.88Z"/><path class="cls-2" d="M390.32,7.72a6.22,6.22,0,0,1,1.89-4.57,6.47,6.47,0,0,1,9.14,0,6.22,6.22,0,0,1,1.89,4.57,6.24,6.24,0,0,1-1.89,4.57,6.47,6.47,0,0,1-9.14,0A6.24,6.24,0,0,1,390.32,7.72Zm1.58,21.73a4.88,4.88,0,1,1,9.76,0V96.24a4.88,4.88,0,1,1-9.76,0Z"/><path class="cls-1" d="M418.67,50.56a39.77,39.77,0,0,0,3.15,15.75,41,41,0,0,0,8.59,12.92A40.43,40.43,0,0,0,443.25,88,38.81,38.81,0,0,0,459,91.2a40.14,40.14,0,0,0,16.46-3.39,39.3,39.3,0,0,0,13.15-9.37,6.15,6.15,0,0,1,3.23-1.89,4.23,4.23,0,0,1,3.54.63A4.72,4.72,0,0,1,497.12,81a5.81,5.81,0,0,1-1.42,4,48.58,48.58,0,0,1-16.38,11.73A49.63,49.63,0,0,1,459,101,48.69,48.69,0,0,1,439.47,97a49.62,49.62,0,0,1-15.91-10.79,51,51,0,0,1-10.71-16.07,49.28,49.28,0,0,1-3.94-19.61A49.28,49.28,0,0,1,412.85,31,50.63,50.63,0,0,1,439.47,4a49.58,49.58,0,0,1,39.3.08,51.67,51.67,0,0,1,16.14,11.18,7.91,7.91,0,0,1,1.89,3.15,4.06,4.06,0,0,1-.47,3.62,4.54,4.54,0,0,1-3.7,2.05,5.17,5.17,0,0,1-4.18-1.58,69.53,69.53,0,0,0-13.23-8.82A34.67,34.67,0,0,0,459,9.77,39,39,0,0,0,443.25,13a40,40,0,0,0-12.84,8.83,42,42,0,0,0-8.59,13A39.84,39.84,0,0,0,418.67,50.56Z"/><path class="cls-2" d="M542.32,24.89A34.77,34.77,0,0,1,556.73,28a39.91,39.91,0,0,1,12,8.27,39.49,39.49,0,0,1,8.27,12.13,37.1,37.1,0,0,1,.08,29.37,39.45,39.45,0,0,1-8.11,12A37.62,37.62,0,0,1,542,101a38.11,38.11,0,0,1-26.78-10.71,36.63,36.63,0,0,1-8.19-12,37.66,37.66,0,0,1-3-15.13A37,37,0,0,1,507,48.44a37.6,37.6,0,0,1,8-12,39.31,39.31,0,0,1,12.13-8.19A41.63,41.63,0,0,1,542.32,24.89ZM513.81,63.16a27.2,27.2,0,0,0,2.21,11,28.42,28.42,0,0,0,15,15,27.2,27.2,0,0,0,11,2.21,27.74,27.74,0,0,0,11-2.21,28.26,28.26,0,0,0,9.06-6.06,28.57,28.57,0,0,0,6.06-9,27.37,27.37,0,0,0,2.21-11,27.92,27.92,0,0,0-2.21-11A28,28,0,0,0,553,37a27.92,27.92,0,0,0-11-2.21,27.37,27.37,0,0,0-11,2.21,28.57,28.57,0,0,0-9,6.06A28.26,28.26,0,0,0,516,52.14,27.74,27.74,0,0,0,513.81,63.16Z"/><path class="cls-2" d="M622.34,24.89a34.12,34.12,0,0,1,16.06,4.49,51.85,51.85,0,0,1,12.45,9.84V4.88a4.71,4.71,0,0,1,1.41-3.46,4.95,4.95,0,0,1,6.94,0,4.71,4.71,0,0,1,1.41,3.46V63.16a37.83,37.83,0,0,1-3,15.13,36.94,36.94,0,0,1-8.19,12,37.83,37.83,0,0,1-12.13,7.87A38.31,38.31,0,0,1,622.65,101a37.62,37.62,0,0,1-27-11.19,39.27,39.27,0,0,1-8.11-12,37,37,0,0,1,.07-29.37A39.72,39.72,0,0,1,607.92,28,34.85,34.85,0,0,1,622.34,24.89Zm28.51,38.27a32.13,32.13,0,0,0-2.6-11.34,29.33,29.33,0,0,0-6.07-9,27.55,27.55,0,0,0-19.53-8,27.92,27.92,0,0,0-11,2.21A28.06,28.06,0,0,0,596.5,52.14a27.91,27.91,0,0,0-2.2,11,27.36,27.36,0,0,0,2.2,11,28.27,28.27,0,0,0,15.13,15,27.74,27.74,0,0,0,11,2.21,27.2,27.2,0,0,0,11-2.21,28.42,28.42,0,0,0,15-15A27.37,27.37,0,0,0,650.85,63.16Z"/><path class="cls-2" d="M678.25,67.73a26.69,26.69,0,0,0,3.31,9.37,28.35,28.35,0,0,0,14.65,12.45A28.46,28.46,0,0,0,717,89.23a29.4,29.4,0,0,0,9-5.9,4.9,4.9,0,0,1,6.93,6.93,29.61,29.61,0,0,1-11.73,8.27,43.07,43.07,0,0,1-15,2.44,38.11,38.11,0,0,1-26.77-10.71,36.63,36.63,0,0,1-8.19-12,37.66,37.66,0,0,1-3-15.13,37,37,0,0,1,2.92-14.72,37.6,37.6,0,0,1,8-12,39.31,39.31,0,0,1,12.13-8.19,41.63,41.63,0,0,1,15.2-3.38,34.58,34.58,0,0,1,14.25,3,41,41,0,0,1,11.9,8,38.66,38.66,0,0,1,11.65,26.31,4.33,4.33,0,0,1-1.34,4.09,5.32,5.32,0,0,1-3.54,1.42Zm27.88-32.92a27,27,0,0,0-9.84,1.81,30.11,30.11,0,0,0-8.35,4.89,26.33,26.33,0,0,0-6.14,7.32A29.44,29.44,0,0,0,678.41,58H734a28.37,28.37,0,0,0-3.46-9.14,27.86,27.86,0,0,0-6.22-7.32A30.26,30.26,0,0,0,716,36.62,27,27,0,0,0,706.13,34.81Z"/><path class="cls-2" d="M301.17,48.28a39.63,39.63,0,0,0-8.11-12.05A37.62,37.62,0,0,0,266,25a38.06,38.06,0,0,0-26.77,10.72,36.81,36.81,0,0,0-8.2,12,37.82,37.82,0,0,0-3,15.12v73.82a4.89,4.89,0,0,0,9.77,0V86.79a51.88,51.88,0,0,0,12.44,9.85,34,34,0,0,0,16.07,4.48,34.8,34.8,0,0,0,14.41-3.07,39.75,39.75,0,0,0,20.32-20.39,37.13,37.13,0,0,0,.08-29.38Zm-9,25.59A28.06,28.06,0,0,1,277.07,89a28,28,0,0,1-11,2.2,27.55,27.55,0,0,1-19.53-8,30.11,30.11,0,0,1-6.14-9,28.77,28.77,0,0,1-2.52-11.34,27.36,27.36,0,0,1,2.2-11,28.48,28.48,0,0,1,15-15A27.35,27.35,0,0,1,266,34.65a28,28,0,0,1,11,2.21,28.21,28.21,0,0,1,15.12,15,27.37,27.37,0,0,1,2.21,11A27.92,27.92,0,0,1,292.19,73.87Z"/><path class="cls-1" d="M253.76,119c2.32,8.09,3.67,12.73,3.92,14.11h0c.25-1.25,1.82-6.18,4.26-14.11h1.7c2.91,9.69,3.79,12.48,4.07,13.7h0c.44-1.72,1.16-4.07,4.05-13.7h1.66l-5,15.68H266.8c-1.69-5.55-3.73-12.36-4-13.8h0c-.32,1.54-2.11,7.15-4.14,13.8H256.7L252.1,119Z"/><path class="cls-1" d="M277.06,127c0,4,2.07,6.55,5.08,6.55a4.41,4.41,0,0,0,4.51-2.95h1.6a6,6,0,0,1-6.18,4.42c-4.76,0-6.61-4.1-6.61-8.09,0-4.48,2.22-8.34,6.8-8.34,4.83,0,6.37,4.17,6.37,7.12,0,.44,0,.88,0,1.29Zm9.94-1.38c0-3.11-1.73-5.55-4.8-5.55-3.23,0-4.7,2.25-5.05,5.55Z"/><path class="cls-1" d="M292.58,111.53h1.57v10.06c.75-1.56,2.29-3,5.36-3,3.7,0,6.43,3,6.43,7.87S303.49,135,299.1,135c-2.63,0-4.14-1.06-5-2.85,0,1,0,2-.07,2.48h-1.53c0-1.79,0-3.58,0-5.36Zm11.69,15c0-3.92-1.94-6.43-4.92-6.43-3.92,0-5.3,2.66-5.3,6.77,0,3.7,1.22,6.71,5.11,6.71C302.33,133.54,304.27,130.91,304.27,126.49Z"/><path class="cls-1" d="M330.08,111.53v18.59c0,1.51,0,2.95,0,4.52h-1.5c-.06-.38-.1-1.85-.1-2.64-.78,1.92-2.54,3-5.26,3-4.08,0-6.53-3.32-6.53-8s2.67-8.41,6.93-8.41c3.14,0,4.39,1.35,4.86,2.35v-9.4Zm-11.69,15.39c0,4.3,2.22,6.62,4.92,6.62,4.14,0,5.27-2.85,5.27-7.12,0-4-1-6.36-5-6.36C320.49,120.06,318.39,122.53,318.39,126.92Z"/><path class="cls-1" d="M335.57,127c0,4,2.07,6.55,5.08,6.55a4.42,4.42,0,0,0,4.52-2.95h1.59a6,6,0,0,1-6.17,4.42c-4.77,0-6.62-4.1-6.62-8.09,0-4.48,2.23-8.34,6.8-8.34,4.83,0,6.37,4.17,6.37,7.12,0,.44,0,.88,0,1.29Zm9.94-1.38c0-3.11-1.72-5.55-4.8-5.55s-4.7,2.25-5,5.55Z"/><path class="cls-1" d="M351,119c2.54,7.18,4.3,12.07,4.89,14.08h0c.35-1.16,2.1-5.83,5.15-14.08h1.66l-5.93,15.68H355L349.37,119Z"/><path class="cls-1" d="M366.18,127c0,4,2.06,6.55,5.08,6.55a4.41,4.41,0,0,0,4.51-2.95h1.6a6,6,0,0,1-6.18,4.42c-4.76,0-6.61-4.1-6.61-8.09,0-4.48,2.22-8.34,6.8-8.34,4.83,0,6.37,4.17,6.37,7.12,0,.44,0,.88,0,1.29Zm9.94-1.38c0-3.11-1.73-5.55-4.8-5.55-3.23,0-4.71,2.25-5.05,5.55Z"/><path class="cls-1" d="M381.7,134.64V111.53h1.57v23.11Z"/><path class="cls-1" d="M401.11,126.77c0,4.36-2.42,8.24-7.09,8.24-4.23,0-6.87-3.48-6.87-8.21,0-4.49,2.48-8.22,7-8.22C398.35,118.58,401.11,121.84,401.11,126.77Zm-12.3,0c0,3.73,2,6.74,5.34,6.74s5.29-2.79,5.29-6.74c0-3.7-1.88-6.74-5.36-6.74S388.81,123,388.81,126.8Z"/><path class="cls-1" d="M406.56,132.32v8.59H405V122.82c0-1.29,0-2.67,0-3.86h1.54c.06.59.06,1.54.06,2.82a5.78,5.78,0,0,1,5.52-3.2c3.7,0,6.27,3.11,6.27,7.81,0,5.65-3,8.62-6.8,8.62C408.79,135,407.35,133.79,406.56,132.32Zm10.13-5.87c0-3.63-1.75-6.36-4.86-6.36-3.79,0-5.36,2.38-5.36,6.65s1.22,6.8,5.14,6.8C414.87,133.54,416.69,130.78,416.69,126.45Z"/><path class="cls-1" d="M422.27,123c0-1.34,0-2.82,0-4h1.54c0,.53.09,1.88.06,2.79a4.91,4.91,0,0,1,4.71-3.17,4.44,4.44,0,0,1,4.54,3.11,5.34,5.34,0,0,1,5.11-3.11c2.42,0,4.93,1.38,4.93,5.74v10.32h-1.57V124.51c0-2.1-.75-4.39-3.67-4.39s-4.42,2.45-4.42,5.49v9h-1.54v-10.1c0-2.29-.69-4.42-3.57-4.42-3,0-4.52,2.7-4.52,5.89v8.63h-1.57Z"/><path class="cls-1" d="M448.61,127c0,4,2.07,6.55,5.08,6.55a4.41,4.41,0,0,0,4.52-2.95h1.6a6,6,0,0,1-6.18,4.42c-4.76,0-6.61-4.1-6.61-8.09,0-4.48,2.22-8.34,6.8-8.34,4.83,0,6.37,4.17,6.37,7.12,0,.44,0,.88,0,1.29Zm9.95-1.38c0-3.11-1.73-5.55-4.8-5.55-3.23,0-4.71,2.25-5.05,5.55Z"/><path class="cls-1" d="M464,122.91c0-1.38,0-2.7,0-4h1.54c.06.5.09,2.54.06,3a5.12,5.12,0,0,1,5.2-3.36c2.79,0,5.27,1.57,5.27,5.9v10.16h-1.57v-9.91c0-2.79-1.16-4.61-3.88-4.61-3.74,0-5,3.1-5,6.52v8H464Z"/><path class="cls-1" d="M478.75,119h2.92v-4.89h1.56V119H487v1.47h-3.74v10.19c0,1.76.38,2.76,1.89,2.76a6.22,6.22,0,0,0,1.63-.18v1.38a5.79,5.79,0,0,1-1.95.28c-2,0-3.13-1-3.13-3.51V120.43h-2.92Z"/><path class="cls-1" d="M509.07,131.66a18.37,18.37,0,0,0,.22,3h-1.5a10.38,10.38,0,0,1-.29-2.42c-.53,1.16-1.91,2.79-5.14,2.79-3.64,0-5.2-2.35-5.2-4.7,0-3.45,2.66-5,7.37-5h3v-1.6c0-1.56-.47-3.66-4-3.66-3.17,0-3.64,1.66-4,2.94h-1.57c.19-1.72,1.25-4.39,5.58-4.39,3.57,0,5.58,1.51,5.58,5Zm-1.53-5h-3.08c-3.48,0-5.64.91-5.64,3.61a3.27,3.27,0,0,0,3.6,3.32c4.49,0,5.12-3,5.12-6.36Z"/><path class="cls-1" d="M514.25,122.91c0-1.38,0-2.7,0-4h1.53c.06.5.1,2.54.06,3a5.13,5.13,0,0,1,5.21-3.36c2.79,0,5.27,1.57,5.27,5.9v10.16h-1.57v-9.91c0-2.79-1.16-4.61-3.89-4.61-3.73,0-5,3.1-5,6.52v8h-1.56Z"/><path class="cls-1" d="M543.53,111.53v18.59c0,1.51,0,2.95,0,4.52h-1.5c-.06-.38-.09-1.85-.09-2.64-.79,1.92-2.54,3-5.27,3-4.08,0-6.52-3.32-6.52-8s2.66-8.41,6.93-8.41c3.13,0,4.39,1.35,4.86,2.35v-9.4Zm-11.69,15.39c0,4.3,2.22,6.62,4.92,6.62,4.14,0,5.27-2.85,5.27-7.12,0-4-1-6.36-5-6.36C533.94,120.06,531.84,122.53,531.84,126.92Z"/><path class="cls-1" d="M568.93,111.53v18.59c0,1.51,0,2.95,0,4.52h-1.5c-.06-.38-.09-1.85-.09-2.64-.79,1.92-2.54,3-5.27,3-4.08,0-6.52-3.32-6.52-8s2.66-8.41,6.93-8.41c3.13,0,4.39,1.35,4.86,2.35v-9.4Zm-11.69,15.39c0,4.3,2.22,6.62,4.92,6.62,4.14,0,5.27-2.85,5.27-7.12,0-4-1-6.36-5-6.36C559.34,120.06,557.24,122.53,557.24,126.92Z"/><path class="cls-1" d="M574.42,127c0,4,2.07,6.55,5.08,6.55a4.42,4.42,0,0,0,4.52-2.95h1.6a6,6,0,0,1-6.18,4.42c-4.77,0-6.62-4.1-6.62-8.09,0-4.48,2.23-8.34,6.81-8.34,4.83,0,6.36,4.17,6.36,7.12,0,.44,0,.88,0,1.29Zm9.94-1.38c0-3.11-1.72-5.55-4.8-5.55s-4.7,2.25-5,5.55Z"/><path class="cls-1" d="M590.19,130.31a4.16,4.16,0,0,0,4.46,3.26c2.79,0,3.92-1.28,3.92-3s-.76-2.67-4.27-3.51c-4-1-5-2.2-5-4.27s1.63-4.17,5.18-4.17,5.23,2.17,5.49,4.39h-1.57a3.7,3.7,0,0,0-4-2.94c-2.73,0-3.52,1.34-3.52,2.6,0,1.44.76,2.16,3.86,2.91,4.42,1.07,5.52,2.51,5.52,4.86,0,2.86-2.32,4.61-5.61,4.61-3.58,0-5.59-1.88-6-4.7Z"/><path class="cls-1" d="M604.12,111.53h1.56v3h-1.56Zm0,7.43h1.56v15.68h-1.56Z"/><path class="cls-1" d="M622.81,133.57c0,5-2.23,7.65-6.78,7.65-4.07,0-5.77-2.29-6.14-4.67h1.6c.56,2.16,2.35,3.2,4.61,3.2,4.07,0,5.2-2.63,5.2-6.62V131.5c-.85,2-2.38,3.14-5.24,3.14-3.66,0-6.49-3-6.49-7.84,0-5.27,3-8.22,6.71-8.22,3.2,0,4.58,1.51,5,2.76,0-.91.06-2,.1-2.38h1.47c0,.56-.06,3-.06,4.55Zm-11.58-6.83c0,3.73,2,6.42,5,6.42,3.92,0,5.11-2.6,5.11-6.67s-1.25-6.43-5-6.43C612.71,120.06,611.23,123.16,611.23,126.74Z"/><path class="cls-1" d="M628,122.91c0-1.38,0-2.7,0-4h1.53c.07.5.1,2.54.07,3a5.12,5.12,0,0,1,5.2-3.36c2.79,0,5.27,1.57,5.27,5.9v10.16h-1.57v-9.91c0-2.79-1.16-4.61-3.89-4.61-3.73,0-5,3.1-5,6.52v8H628Z"/><path class="cls-1" d="M664,131.66a18.37,18.37,0,0,0,.22,3h-1.5a10.38,10.38,0,0,1-.29-2.42c-.53,1.16-1.91,2.79-5.14,2.79-3.64,0-5.2-2.35-5.2-4.7,0-3.45,2.66-5,7.36-5h3v-1.6c0-1.56-.47-3.66-4-3.66-3.17,0-3.64,1.66-4,2.94h-1.57c.19-1.72,1.25-4.39,5.58-4.39,3.57,0,5.58,1.51,5.58,5Zm-1.54-5h-3.07c-3.48,0-5.64.91-5.64,3.61a3.27,3.27,0,0,0,3.6,3.32c4.49,0,5.11-3,5.11-6.36Z"/><path class="cls-1" d="M681.19,133.57c0,5-2.22,7.65-6.77,7.65-4.08,0-5.77-2.29-6.15-4.67h1.6c.57,2.16,2.36,3.2,4.61,3.2,4.08,0,5.21-2.63,5.21-6.62V131.5c-.85,2-2.38,3.14-5.24,3.14-3.67,0-6.49-3-6.49-7.84,0-5.27,3-8.22,6.71-8.22,3.2,0,4.58,1.51,5,2.76,0-.91.06-2,.09-2.38h1.48c0,.56-.07,3-.07,4.55Zm-11.57-6.83c0,3.73,2,6.42,5,6.42,3.92,0,5.11-2.6,5.11-6.67s-1.25-6.43-5-6.43C671.1,120.06,669.62,123.16,669.62,126.74Z"/><path class="cls-1" d="M686.68,127c0,4,2.07,6.55,5.08,6.55a4.42,4.42,0,0,0,4.52-2.95h1.6A6,6,0,0,1,691.7,135c-4.77,0-6.62-4.1-6.62-8.09,0-4.48,2.23-8.34,6.81-8.34,4.83,0,6.36,4.17,6.36,7.12,0,.44,0,.88,0,1.29Zm9.94-1.38c0-3.11-1.72-5.55-4.8-5.55-3.23,0-4.7,2.25-5,5.55Z"/><path class="cls-1" d="M702.08,122.91c0-1.38,0-2.7,0-4h1.53c.07.5.1,2.54.07,3a5.12,5.12,0,0,1,5.2-3.36c2.79,0,5.27,1.57,5.27,5.9v10.16h-1.57v-9.91c0-2.79-1.16-4.61-3.89-4.61-3.73,0-5,3.1-5,6.52v8h-1.57Z"/><path class="cls-1" d="M730.8,130c-.75,2.76-2.57,5-6.08,5-3.92,0-6.71-2.91-6.71-8.15,0-4.29,2.29-8.28,6.9-8.28a5.61,5.61,0,0,1,5.89,5h-1.6a4.23,4.23,0,0,0-4.32-3.54c-3.33,0-5.21,2.82-5.21,6.74,0,3.73,1.76,6.74,5.05,6.74,2.29,0,3.67-1.16,4.48-3.51Z"/><path class="cls-1" d="M734.75,119c3.17,9,4.55,12.67,5.08,14.36h0c.63-1.91,1.89-5.55,4.93-14.36h1.63l-5.9,16.59c-1.66,4.64-2.79,5.67-5.61,5.67a10.91,10.91,0,0,1-1.44-.09v-1.57a10.76,10.76,0,0,0,1.41.1c2.26,0,3-1.1,4.14-4.33L733,119Z"/><path class="cls-2" d="M75.38,109.73H85.77c5.45,0,10,2.8,10,8.47,0,5.93-4.3,8.94-10.47,8.94H80.53v11.67H75.38ZM80.53,123H85c3.37,0,5.53-1.22,5.53-4.74,0-3.11-2.21-4.46-5.4-4.46H80.53Z"/><path class="cls-2" d="M99.39,124.42c0-3.54,0-6-.09-7.37h4.87c.1,1,.13,2.35.13,4a6.91,6.91,0,0,1,6.74-4.38v5.08c-4.62,0-6.67,2-6.67,6.88v10.17h-5Z"/><path class="cls-2" d="M133.18,127.61c0,6.33-3,11.59-10.19,11.59s-10-5.57-10-11.48c0-5.52,3.09-11.1,10.25-11.1C130,116.62,133.18,121.58,133.18,127.61Zm-15.08,0c0,4.77,1.75,7.62,5.1,7.62s4.91-2.81,4.91-7.6c0-4.45-1.65-7-5.06-7C119.84,120.59,118.1,123.38,118.1,127.61Z"/><path class="cls-2" d="M142.56,117.05v21.76c0,5.3-.66,8.8-6.33,8.8a10.62,10.62,0,0,1-1.71-.12v-4.13c.43,0,.87,0,1.09,0,2,0,2-1.43,2-3.59V117.05Zm-5-4v-5h5v5Z"/><path class="cls-2" d="M152,129c0,3.24,1.29,6.22,4.73,6.22a4,4,0,0,0,4.14-2.91h4.9c-.94,3.3-3.34,6.88-9.21,6.88-6.9,0-9.6-4.95-9.6-11.28,0-5.37,2.68-11.3,9.83-11.3s9.27,5.25,9.27,10.66c0,.24,0,1.46-.06,1.73Zm9.18-3.35c-.1-2.87-1.25-5.21-4.48-5.21-3.6,0-4.48,3-4.61,5.21Z"/><path class="cls-2" d="M188.06,131.43c-.72,4.33-3.45,7.77-9.25,7.77-6.48,0-9.59-4.1-9.59-11.27,0-6.68,3.6-11.31,9.89-11.31,6.67,0,8.75,4.74,8.93,7.95h-5c-.28-2.13-1.34-4.07-4.05-4.07-3.33,0-4.7,3-4.7,7.27,0,5.25,1.69,7.58,4.61,7.58,2.65,0,3.61-1.69,4.18-3.92Z"/><path class="cls-2" d="M190.16,117.05h3.2v-6h5v6h4.05V121h-4.05v12c0,1.6.39,2.27,2.19,2.27a8.69,8.69,0,0,0,1.43-.11v3.51a11.45,11.45,0,0,1-3.28.4c-3.85,0-5.3-1.53-5.3-5.43V121h-3.2Z"/></g></g></svg>