<svg xmlns="http://www.w3.org/2000/svg" viewBox="0 0 257.52 60.57"><defs><style>.cls-1{fill:#221f20;}.cls-2{fill:#231f20;}.cls-3{fill:#353839;}.cls-4{fill:#363839;}.cls-5{fill:#363939;}.cls-6{fill:#37393a;}.cls-7{fill:#36393a;}.cls-8{fill:#383a3b;}.cls-9{fill:#7fa052;}.cls-10{fill:#306b43;}.cls-11{fill:#92b95f;}.cls-12{fill:#8eb766;}.cls-13{fill:#5ca45a;}.cls-14{fill:#7c9c51;}.cls-15{fill:#789a50;}.cls-16{fill:#6b904e;}.cls-17{fill:#85b05d;}.cls-18{fill:#67a75c;}.cls-19{fill:#8ab35d;}.cls-20{fill:#80ab59;}.cls-21{fill:#70954f;}.cls-22{fill:#509a55;}.cls-23{fill:#8db65e;}.cls-24{fill:#59a359;}.cls-25{fill:#92ba66;}.cls-26{fill:#96bb68;}.cls-27{fill:#668d4c;}.cls-28{fill:#81ae5b;}.cls-29{fill:#539e57;}.cls-30{fill:#6ea95d;}.cls-31{fill:#489553;}.cls-32{fill:#4b9854;}.cls-33{fill:#60894c;}.cls-34{fill:#529d56;}.cls-35{fill:#75ac5f;}.cls-36{fill:#377144;}.cls-37{fill:#55824a;}.cls-38{fill:#508049;}.cls-39{fill:#86b465;}.cls-40{fill:#57a158;}.cls-41{fill:#7bae60;}.cls-42{fill:#9abe69;}.cls-43{fill:#7ba959;}.cls-44{fill:#6d934e;}.cls-45{fill:#80b062;}.cls-46{fill:#59854b;}.cls-47{fill:#56824a;}.cls-48{fill:#6fa257;}.cls-49{fill:#76a558;}.cls-50{fill:#4b8048;}.cls-51{fill:#5b864b;}.cls-52{fill:#5c884c;}.cls-53{fill:#5e9652;}.cls-54{fill:#749750;}.cls-55{fill:#447c47;}.cls-56{fill:#649a53;}.cls-57{fill:#628a4d;}.cls-58{fill:#80b264;}.cls-59{fill:#3d7646;}.cls-60{fill:#689d54;}.cls-61{fill:#417946;}.cls-62{fill:#569150;}.cls-63{fill:#a3c16b;}.cls-64{fill:#79a759;}.cls-65{fill:#779950;}.cls-66{fill:#5b9452;}.cls-67{fill:#9bbe69;}.cls-68{fill:#7b9c51;}.cls-69{fill:#508d50;}.cls-70{fill:#5aa35a;}.cls-71{fill:#a8c36c;}.cls-72{fill:#489354;}.cls-73{fill:#5f885f;}.cls-74{fill:#85b464;}.cls-75{fill:#a1c596;}.cls-76{fill:#89b280;}.cls-77{fill:#67a75d;}.cls-78{fill:#71ab5f;}.cls-79{fill:#9dc180;}.cls-80{fill:#7bae61;}.cls-81{fill:#78ad60;}.cls-82{fill:#5fa45a;}.cls-83{fill:#4c9854;}.cls-84{fill:#4a8048;}.cls-85{fill:#4f9a55;}.cls-86{fill:#477e47;}.cls-87{fill:#479353;}.cls-88{fill:#549f57;}.cls-89{fill:#58a259;}.cls-90{fill:#568457;}.cls-91{fill:#6c9f56;}.cls-92{fill:#56a057;}.cls-93{fill:#68a75d;}.cls-94{fill:#62a55b;}.cls-95{fill:#97c08a;}.cls-96{fill:#58a158;}.cls-97{fill:#79ad60;}.cls-98{fill:#90b966;}.cls-99{fill:#80b063;}.cls-100{fill:#81b264;}.cls-101{fill:#87b565;}.cls-102{fill:#70aa5e;}.cls-103{fill:#6aa85d;}</style></defs><g id="Livello_2" data-name="Livello 2"><g id="Livello_1-2" data-name="Livello 1"><g id="Livello_2-2" data-name="Livello 2"><g id="Livello_1-2-2" data-name="Livello 1-2"><path class="cls-1" d="M156.46,24.12V6.05c0-.72-.1-1-.92-1s-1.78,0-2.67,0c-1.53,0-1.53,0-1.53,1.55v8.88a13.72,13.72,0,0,0-4.76-1.66,9.88,9.88,0,0,0-11,6.27,16.67,16.67,0,0,0-.32,10.38,7.37,7.37,0,0,0,5.9,5.54c3.79.82,7.42.59,10.65-2.1a9.68,9.68,0,0,1,.22,1.31c0,.61.24.82.81.78a21.18,21.18,0,0,1,2.76,0c.69,0,.87-.16.87-.82C156.45,31.48,156.46,27.8,156.46,24.12Zm-5.1.89v4.78a1.14,1.14,0,0,1-.39,1,8.37,8.37,0,0,1-8.62,1.17A4.11,4.11,0,0,1,140.06,29a13.8,13.8,0,0,1,.21-7.16A5.53,5.53,0,0,1,146,17.63a8.19,8.19,0,0,1,4.68,1.4,1.24,1.24,0,0,1,.63,1.19C151.32,21.82,151.36,23.41,151.36,25Z"/><path class="cls-1" d="M87.67,30.41l2.63-7.13q3-8.06,5.88-16.1a.94.94,0,0,1,1.1-.76h0c1.19,0,2.39,0,3.59,0,.73,0,.81.16.54.82q-4,10.39-7.89,20.81c-.92,2.44-1.83,4.8-2.71,7.21a.92.92,0,0,1-1,.75c-1.38,0-2.77,0-4.15,0a.89.89,0,0,1-1-.66Q79.28,21.27,73.88,7.18c-.26-.67-.09-.82.54-.76,1.2,0,2.4.06,3.59,0a1,1,0,0,1,1.17.82q4.06,11.19,8.14,22.37C87.43,29.84,87.53,30.07,87.67,30.41Z"/><path class="cls-2" d="M179.15,22.15a8.24,8.24,0,0,0-5.87-7.82,14.18,14.18,0,0,0-5.18-.52c-4.72.35-7.66,2.49-9,6.62a15.49,15.49,0,0,0,.09,9.5,8,8,0,0,0,4.07,4.89c4.63,2.32,9.4,2,14.19.48.35-.11.38-.35.38-.64V31.4a19.49,19.49,0,0,1-9.15,1c-2.93-.39-4.56-1.63-5.18-4.17-.27-1.07-.27-1.07.81-1.07h14c.61,0,.87-.09.82-.81C179.09,25,179.15,23.56,179.15,22.15ZM173,23.78h-9c-.52,0-.7-.12-.6-.65s.07-1,.18-1.47c.49-2.44,1.63-3.46,4.07-3.9a10.34,10.34,0,0,1,3.92.09,4,4,0,0,1,3.19,4.07c.07,1.84.07,1.84-1.77,1.84Z"/><path class="cls-2" d="M119.86,26.25c-.06-1.19,0-2.4,0-3.59-.07-4.28-2.37-7.4-6.3-8.44a14.76,14.76,0,0,0-5.92-.28,8.59,8.59,0,0,0-7.32,5.35A14.94,14.94,0,0,0,100,30.14a8.5,8.5,0,0,0,4.89,5.18,12.66,12.66,0,0,0,3.88,1,21.25,21.25,0,0,0,9-.82c.3-.11.74-.11.72-.66V31.46a19.75,19.75,0,0,1-9.12,1c-2.95-.39-4.59-1.7-5.21-4.26-.18-.73-.06-1,.82-1,4.66.05,9.33,0,14,0C119.7,27.18,119.89,27,119.86,26.25Zm-6.25-2.49h-8.92c-.55,0-.82-.11-.66-.73.1-.4.06-.81.15-1.26.49-2.58,1.56-3.59,4.16-4.07a10.28,10.28,0,0,1,3.83.08,4,4,0,0,1,3.21,4c.07,2,.07,2-1.77,2Z"/><path class="cls-3" d="M27.33,35V6.75c0-1.66,0-1.62-1.68-1.68-.82,0-1,.24-.95,1,.05,3.25,0,6.51,0,9.87A11.77,11.77,0,0,0,17,13.77c-4.55,0-7.83,2.45-9,6.69a18,18,0,0,0-.16,8.87c.64,2.86,2.12,5.22,5,6.28a11.48,11.48,0,0,0,11.64-1.56c.12-.09.22-.32.5-.18a7.46,7.46,0,0,1,.13,1.25c-.07,1.4,1,.81,1.62.89C27.53,36.14,27.33,35.49,27.33,35Zm-2.6-10.11v5.9a1.29,1.29,0,0,1-.45,1A9.65,9.65,0,0,1,14,33.56c-2.1-.76-3.12-2.59-3.61-4.68a16.49,16.49,0,0,1,0-7.33,6.59,6.59,0,0,1,6-5.48,10.29,10.29,0,0,1,7.78,1.73,1.31,1.31,0,0,1,.6,1.22c0,2,0,4,0,5.92Z"/><path class="cls-3" d="M70.73,20.37c-.07-3.56-1.92-5.58-5.4-6.29a21,21,0,0,0-9.39.43c-1.34.34-1.31.36-1.33,1.79,0,.62,0,.9.81.66a20.17,20.17,0,0,1,8.52-.82c2.56.26,3.77,1.25,4.2,3.58a20.22,20.22,0,0,1,.12,3.48c0,.48-.29.47-.6.47H63.87a40.59,40.59,0,0,0-6.52.23,5.84,5.84,0,0,0-5.16,5.7C52,33,53.58,35.3,56.81,36,61,37,65,36.53,68.37,33.5a3,3,0,0,1,.19,1.38c-.07.92.27,1.31,1.2,1.14a1.19,1.19,0,0,1,.46,0c.46,0,.57-.15.57-.59C70.77,30.41,70.85,25.4,70.73,20.37ZM67.5,31.77a10.46,10.46,0,0,1-10.25,2c-2-.59-2.74-2-2.5-4.32a3.76,3.76,0,0,1,3.41-3.52,38.34,38.34,0,0,1,5.14-.17c1.56,0,2.86.05,4.14,0,.74,0,.86.22.81.87,0,1.14-.06,2.28,0,3.41A2,2,0,0,1,67.5,31.77Z"/><path class="cls-3" d="M49.37,20.78a7.49,7.49,0,0,0-4.11-6.05,10.93,10.93,0,0,0-5.92-.87c-4.53.38-7.11,2.35-8.26,6.44A17.55,17.55,0,0,0,31.13,30a8.08,8.08,0,0,0,6.44,6,17.55,17.55,0,0,0,8.64-.12c2.35-.66,1.85-.16,1.86-2.54a.59.59,0,0,0,0-.13l-.44.08a16.38,16.38,0,0,1-8.69.71c-2.56-.4-4.46-1.63-5.28-4.24a23.1,23.1,0,0,1-.48-2.34c-.16-.81,0-1,.87-1,4.89,0,9.83,0,14.74,0,.38,0,.82.15.82-.53A41.93,41.93,0,0,0,49.37,20.78Zm-4.58,3.66H33.72c-.5,0-.73-.1-.67-.65a15,15,0,0,1,.73-4A5.35,5.35,0,0,1,38,16.22a11.32,11.32,0,0,1,4-.16c3.41.56,5,2.44,5.18,5.94C47.23,24.44,47.23,24.44,44.79,24.44Z"/><path class="cls-1" d="M122.38,25.08V15c0-.64.16-.81.81-.81a20.61,20.61,0,0,0,2.94,0c.73-.06.94.24,1,.9.18,1.48.19,1.47,1.53.81a22.32,22.32,0,0,1,5.94-2.08c.54-.12.63,0,.61.51,0,.85,0,1.72,0,2.57,0,.55-.17.73-.69.82a27.43,27.43,0,0,0-6.41,2.13,1.12,1.12,0,0,0-.74,1.19V35c0,.81-.25,1-1,1a25.33,25.33,0,0,0-3.26,0c-.64,0-.81-.16-.81-.81C122.39,31.83,122.38,28.46,122.38,25.08Z"/><path class="cls-3" d="M1.31,21.13V7.29c0-.75.22-.92.92-.9,1.63.05,1.63,0,1.63,1.72V34.9c0,.92-.26,1.13-1.12,1.09-1.46-.08-1.46,0-1.46-1.45Z"/><path class="cls-3" d="M61.55,49.81c0,1.22,0,2.18,0,3.15.05.81-.49.57-.9.6s-.81,0-.81-.63c0-1.63,0-3.31,0-5,0-.28-.25-.82.24-.82s1-.25,1.4.34c.73,1.08,1.51,2.12,2.45,3.41,0-1.24,0-2.21,0-3.17-.06-.81.48-.58.89-.61s.82,0,.77.63c0,1.62,0,3.31,0,5,0,.29.25.82-.23.82s-1,.26-1.41-.33C63.24,52.13,62.46,51.08,61.55,49.81Z"/><path class="cls-4" d="M167.64,50.14V53c0,.73-.44.58-.81.58s-.86.17-.82-.57c.05-1.69,0-3.37,0-5.06,0-.27-.19-.73.21-.81s1-.29,1.41.29c.75,1.1,1.55,2.18,2.45,3.48,0-1.21,0-2.18,0-3.13-.06-.73.33-.71.81-.68s.9-.12.86.65c-.07,1.63,0,3.26,0,4.89,0,.29.3.81-.27.89s-1.06.21-1.46-.41c-.67-1.05-1.43-2-2.15-3.05Z"/><path class="cls-4" d="M52.33,49.15a2.31,2.31,0,0,0-1.78-1.91,16.78,16.78,0,0,0-3-.15c-.67-.07-1,.09-.92.81a22.06,22.06,0,0,1,0,2.3v2.66c0,.55.18.67.68.64h2.44a2.48,2.48,0,0,0,2.61-2.31A5.19,5.19,0,0,0,52.33,49.15ZM50.7,50.9A1.63,1.63,0,0,1,49,52.41a2.15,2.15,0,0,1-.5-.12c-.24-.11-.21-.27-.21-.44V50.29a2.18,2.18,0,0,1,0-.72c.16-.4-.5-1.12.47-1.19,1.26-.09,1.84.25,2,1.23a7,7,0,0,1,.06,1.29Z"/><path class="cls-4" d="M126.22,47c-2.2,0-3.3,1.21-3.26,3.53.06,2.1,1.22,3.26,3.3,3.16s3.18-1.2,3.13-3.43S128.3,47,126.22,47Zm0,5.28c-1,0-1.59-.64-1.59-1.91s.54-2,1.57-2,1.53.57,1.54,1.93S127.29,52.27,126.22,52.27Z"/><path class="cls-4" d="M71.66,47c-2.12,0-3.26,1.11-3.26,3.3s1,3.38,3.16,3.39,3.26-1.1,3.26-3.26S73.81,47,71.66,47Zm-.08,5.28c-1,0-1.56-.66-1.56-1.93s.54-1.93,1.57-1.93,1.58.62,1.56,2-.48,1.9-1.55,1.88Z"/><path class="cls-4" d="M151.53,47c-2.16,0-3.18,1.11-3.18,3.37s1.07,3.35,3.22,3.32,3.2-1.14,3.25-3.26A3,3,0,0,0,151.53,47Zm.06,5.28c-1.08,0-1.59-.57-1.63-1.88s.47-2,1.52-2,1.57.59,1.59,1.89S152.63,52.26,151.59,52.27Z"/><path class="cls-4" d="M43.24,50.74a2,2,0,0,0,.44-2.37,1.8,1.8,0,0,0-1.76-1.23h-3c-.37,0-.53.08-.53.5v5.42c0,.19-.09.41.22.52a.94.94,0,0,0,1.41-1,2.29,2.29,0,0,1,0-.37c.06-.23-.21-.61.23-.67s.75-.13,1,.23a3.85,3.85,0,0,1,.24.5c.61,1.35.61,1.35,2.24,1.24A11.63,11.63,0,0,0,43,52a.82.82,0,0,1,.12-1.15Zm-2.44-.46c-1,.11-.7-.57-.81-1.09-.12-.74.2-.93.81-.82.75,0,1.36.08,1.33,1s-.7.86-1.35.93Z"/><path class="cls-4" d="M87.44,49a2.27,2.27,0,0,0-1.81-1.78,20.11,20.11,0,0,0-3.47-.14c-.46,0-.37.31-.37.57V53c0,.38.07.57.5.55h2.86a2.39,2.39,0,0,0,2.32-1.89A5.4,5.4,0,0,0,87.44,49ZM84,52.27c-.4,0-.54-.13-.53-.53V48.89c0-.47.18-.54.59-.55,1.48,0,1.88.38,1.88,2s-.4,2-1.94,2Z"/><path class="cls-4" d="M163.22,51.55c0,1.82-.07,2-1.9,2.11-3.52.29-4.47-2.12-3.73-4.63A3.17,3.17,0,0,1,161,47c.36,0,.73.11,1.1.12.76,0,.77.54.71,1.09-.08.75-.58.27-.89.27s-.73-.09-1.1-.07c-1.35.08-2,.82-1.83,2.31.11,1.15.82,1.63,2.15,1.56.52,0,.65-.27.66-.76s-.25-.59-.66-.56-.72.08-.73-.52.3-.57.7-.54h.37C163.22,49.9,163.22,49.9,163.22,51.55Z"/><path class="cls-4" d="M21.7,51.58c0,.31,0,.61,0,.92.06.53-.19.77-.67.91a5.44,5.44,0,0,1-3.17.08c-1.43-.43-2.1-1.63-2-3.5a2.94,2.94,0,0,1,2.44-2.86,7.14,7.14,0,0,1,2.44,0c.3,0,.6.1.61.54,0,.61,0,1.12-.81.82a3.12,3.12,0,0,0-1.09-.11c-1.38,0-2,.82-1.89,2.25.07,1.17.76,1.68,2.08,1.63.56,0,.72-.25.73-.82s-.33-.55-.7-.53-.7,0-.7-.55.37-.52.73-.51h.37C21.7,49.9,21.7,49.9,21.7,51.58Z"/><path class="cls-5" d="M120.29,49.54v1.28c0,1.88-1,2.85-2.92,2.87s-3-1-3.05-2.84c0-1,.06-2,0-3-.06-.81.43-.67.91-.71s.82.12.77.74c-.06,1,0,2,0,2.95s.42,1.48,1.33,1.48,1.32-.43,1.33-1.46,0-2.09,0-3.13c0-.75.45-.56.82-.56s.88-.16.81.58S120.29,48.93,120.29,49.54Z"/><path class="cls-5" d="M90.39,50.29V47.72c0-.5.16-.63.64-.62,1.18,0,2.38,0,3.58,0,.54,0,.58.23.58.65s-.09.69-.6.66c-.67,0-1.35,0-2,0s-.5.35-.52.72,0,.65.52.62,1.11,0,1.63,0,.61.2.61.65,0,.7-.58.64a12.87,12.87,0,0,0-1.39,0c-.46,0-.81,0-.81.7s.37.62.81.61h1.75c.58,0,.62.19.61.65s0,.67-.57.65c-1.2,0-2.4,0-3.59,0-.57,0-.66-.23-.64-.71Z"/><path class="cls-4" d="M33.28,47.49c-.23-.66-.77-.31-1.17-.37s-.71-.12-.89.39c-.74,2-1.5,4-2.29,6.06.67-.16,1.35.33,1.84-.34.26-.37.1-1,.73-1.13a12,12,0,0,1,1.47,0c.23,0,.42,0,.46.32.17,1.28,1,1.28,2.14,1.1C34.81,51.48,34,49.48,33.28,47.49ZM32.15,51c-.62,0-.76-.16-.48-.72a15.41,15.41,0,0,0,.56-1.49c.26.58.38,1,.57,1.35C33.24,50.9,32.84,51,32.15,51Z"/><path class="cls-5" d="M141,52a6.68,6.68,0,0,0,2,.33c.42,0,1,.12,1.1-.52s-.48-.64-.87-.81-.82-.26-1.22-.41a1.68,1.68,0,0,1-1.14-2,1.76,1.76,0,0,1,1.5-1.52,6.83,6.83,0,0,1,2.55,0c.81.09.55.7.52,1.13,0,.69-.47.21-.72.2-.44,0-.82-.09-1.28-.09s-.82,0-.9.44.36.57.69.69.82.23,1.23.39a1.84,1.84,0,0,1,1.37,2,1.88,1.88,0,0,1-1.67,1.69,5.18,5.18,0,0,1-2,0C140.76,53.38,140.74,53.36,141,52Z"/><path class="cls-6" d="M109,47.11h2.1c.49,0,.65.13.62.62s0,.66-.57.68c-1.32,0-1.32.07-1.32,1.44V53c0,.81-.5.57-.91.6s-.81,0-.77-.64c.06-1.24,0-2.51,0-3.76,0-.67-.21-.81-.82-.81-.35,0-.81.25-1.07-.21a.7.7,0,0,1,.68-1Z"/><path class="cls-7" d="M4.65,50.33c0-.87,0-1.73,0-2.58s.44-.63.87-.64.82-.11.82.61c-.07,1.32,0,2.64,0,4,0,.48.12.64.61.61H8.89c.64,0,.52.33.54.71s-.13.59-.57.57H5.27c-.45,0-.58-.13-.57-.57C4.67,52.13,4.65,51.21,4.65,50.33Z"/><path class="cls-8" d="M133.85,50.34c0,.86,0,1.72,0,2.58.05.65-.28.7-.76.65s-.94.2-.92-.61c.05-1.75.05-3.49,0-5.25,0-.81.51-.56.92-.6s.82,0,.76.65C133.8,48.62,133.85,49.48,133.85,50.34Z"/><path class="cls-7" d="M99.53,50.34c0,.81,0,1.62,0,2.37s-.11.89-.82.88-.86-.19-.81-.87c0-1.63.06-3.3,0-4.94,0-.76.37-.67.81-.67s.91-.1.82.66A24.46,24.46,0,0,0,99.53,50.34Z"/><path class="cls-7" d="M176.36,50.37c0,.89,0,1.77,0,2.66,0,.68-.4.55-.77.52s-.9.29-.89-.49V47.65c0-.82.51-.51.87-.52s.82-.22.82.49C176.33,48.54,176.36,49.46,176.36,50.37Z"/><path class="cls-8" d="M56.91,50.3c0,.82,0,1.63,0,2.49.05.68-.22.81-.82.81s-.87-.06-.81-.81q.07-2.53,0-5.07c0-.67.31-.67.81-.63s1-.19.91.61S56.91,49.44,56.91,50.3Z"/><path class="cls-7" d="M0,50.25V48.06A1,1,0,0,1,.88,47a1,1,0,0,1,.58.14c.27.13.18.35.18.55V53c0,.74-.45.56-.81.56S0,53.76,0,53C.07,52.08,0,51.16,0,50.25Z"/><path class="cls-7" d="M26.17,50.41c0,.81-.05,1.63,0,2.38s-.21.82-.82.82-.88,0-.85-.76c.06-1.68.06-3.35,0-5,0-.72.32-.72.81-.68s.93-.15.82.64A19.47,19.47,0,0,0,26.17,50.41Z"/><path class="cls-9" d="M204.79,17.11a34.71,34.71,0,0,1,1.72-4.41A62.24,62.24,0,0,1,214.16.2c.05-.07.12-.12.16-.19s.07.15.06.21a18.77,18.77,0,0,0,1.74,9.22,37.68,37.68,0,0,0,2.28,4.31c.09.15.16.29.24.43a.16.16,0,0,1-.19.06,2.76,2.76,0,0,0-1.63.14,2,2,0,0,0-.87.37.31.31,0,0,1-.2.07,3.23,3.23,0,0,0-1.42.37,2.94,2.94,0,0,1-.65.16c-.46.09-.88.33-1.33.44s-.82.43-1.33.39a2.59,2.59,0,0,0-1.26.48c-.06,0-.12.12-.18.1-.46-.14-.82.17-1.26.24a3.63,3.63,0,0,0-1.14.41,1.73,1.73,0,0,1-.67.16,3.93,3.93,0,0,0-1,.4c-.29,0-.39-.28-.58-.43A.32.32,0,0,1,204.79,17.11Z"/><path class="cls-10" d="M241.85,32.53c.68-1.17,1.41-2.31,2-3.51a21.86,21.86,0,0,0,2.19-5.51,16.14,16.14,0,0,0,.24-4.22,13.72,13.72,0,0,0-1-4.73c-.07-.18-.15-.35-.23-.52s0-.09.09-.09a1,1,0,0,1,.34.3,16,16,0,0,1,2.16,3.62A44.23,44.23,0,0,1,249.4,25a29.86,29.86,0,0,1,.31,3.39c0,.95.09,1.89,0,2.83-.06,1.4-.05,2.81-.17,4.21L249.43,37a1.36,1.36,0,0,1-.08.39.9.9,0,0,1-.82-.27.81.81,0,0,0-.53-.31.27.27,0,0,1-.19-.08,6.59,6.59,0,0,0-1.14-.82,6.25,6.25,0,0,0-.92-.63,5.36,5.36,0,0,1-1.18-.69,18.61,18.61,0,0,0-2.52-1.62C241.85,32.88,241.7,32.77,241.85,32.53Z"/><path class="cls-11" d="M197.52,11.71a12.43,12.43,0,0,1,.62-1.71c.12.12.09.28.09.44v3.32c0,1.54.05,3.07,0,4.61,0,1.28,0,2.57,0,3.85a2.38,2.38,0,0,1-.45,1.48.77.77,0,0,0-.13.46,7.62,7.62,0,0,1,0,1.17c-.05.38-.12.81-.61.91a.15.15,0,0,0-.16.16c.06.27-.07.53.12.82a1,1,0,0,1-.37,1.42l-.06,0a.35.35,0,0,0-.26.4c0,.46-.08.9-.06,1.35a.32.32,0,0,1-.06.23,1.48,1.48,0,0,0-.25,1,2.93,2.93,0,0,1-.42,1.63c-.2.26-.09.6-.11.9s0,.42-.25.47a19,19,0,0,1-.56-3.26,36.45,36.45,0,0,1,.15-7.95,57.69,57.69,0,0,1,2.5-10.91.41.41,0,0,1,.05-.09c.21-.13.25,0,.3.15,0-.16-.16-.24-.23-.37l.07-.21A.26.26,0,0,0,197.52,11.71Z"/><path class="cls-12" d="M204.79,17.11a.67.67,0,0,0,.15.38.39.39,0,0,1,.06.3V36.05a2.35,2.35,0,0,1,0,.53c-.05.16-.14.18-.26.08a1.93,1.93,0,0,1-.29-.35A24.77,24.77,0,0,1,203,34.07a.78.78,0,0,1-.16-.49A2.08,2.08,0,0,0,203,33c-.1-.94.05-1.89,0-2.82s0-2-.05-3c0-.81.08-1.63.05-2.4v-2c0-.88-.06-1.76,0-2.65A26.2,26.2,0,0,0,203,17c-.06-.5.05-1,0-1.52,0-.11,0-.28.21-.21L204.63,17C204.61,17.11,204.65,17.25,204.79,17.11Z"/><path class="cls-13" d="M247.64,3.47a9.1,9.1,0,0,1,2.25,1.28,6,6,0,0,0,0,1.27c0,1.28,0,2.56,0,3.84,0,.58.11,1.15.15,1.72,0,.12.06.24,0,.35a2,2,0,0,0-.11,1.14c.06.7-.09,1.39,0,2.08a19.11,19.11,0,0,1,0,2.51c0,.63,0,1.26,0,1.9a4.16,4.16,0,0,0,.1,1.57c.07.23-.11.45-.08.7.08.54,0,1.1.07,1.63,0,.22-.12.21-.25.26s-.16-.22-.18-.35a37.81,37.81,0,0,0-1.92-5.7,7.52,7.52,0,0,1-.06-1.34c0-.77.07-1.55,0-2.32a9.74,9.74,0,0,1,0-1.87v-8c0-.16,0-.31,0-.46S247.44,3.49,247.64,3.47Z"/><path class="cls-14" d="M205.44,17.93a2.71,2.71,0,0,1,.95-.46c.28-.08.66,0,.88-.28a.1.1,0,0,0,.08-.05,10.68,10.68,0,0,0,2-.59c.07,0,.11,0,.13.06s.09.12.15.05a2.58,2.58,0,0,1,1.13-.54.68.68,0,0,1,.54-.05.25.25,0,0,0,.24,0,8.12,8.12,0,0,1,1.7-.7c.28-.13.65-.08.93-.22a8,8,0,0,1,1-.34c.16-.07.31-.16.49-.08a.21.21,0,0,0,.24,0,4.52,4.52,0,0,1,1.63-.6,1.52,1.52,0,0,1,1.09.08L219.86,16a1.61,1.61,0,0,1-.89.37c-.74.17-1.45.44-2.17.66s-1.42.39-2.13.61c-1.09.36-2.21.58-3.26,1a6.5,6.5,0,0,1-1,.29c-.81.21-1.63.58-2.44.71a1.8,1.8,0,0,0-.48.24.29.29,0,0,1-.3-.13c-.44-.47-1-.81-1.4-1.32C205.63,18.33,205.44,18.2,205.44,17.93Z"/><path class="cls-15" d="M207.43,19.93a.75.75,0,0,1,.53-.33c.81-.09,1.49-.48,2.25-.63a13.55,13.55,0,0,0,2-.63c1.07-.41,2.19-.66,3.25-1s2.1-.64,3.15-.95c.41-.11.81-.24,1.24-.35l1.7,2.44a.68.68,0,0,1-.82.22s-.06-.07-.1,0c-.15.27-.28.21-.44,0s-.45-.09-.56.16c-.21.51-.49.59-1,.28-.07-.05-.14-.06-.19,0s-.35.14-.4.42-.38.17-.59.19a1.26,1.26,0,0,0-.51.07c-.17.09-.22-.06-.29-.18,0,.35-.06.37-.36.32a.81.81,0,0,0-.86.2.76.76,0,0,1-.81.17c-.44-.12-.44-.11-.61.31a.31.31,0,0,1-.4.18l-.07,0c-.06,0-.09-.15-.26-.13.11.05.21.09.19.2s-.12.14-.22.15a1.94,1.94,0,0,0-.95.36.16.16,0,0,1-.23,0v0c-.16-.23-.38-.22-.63-.15,0,.1.13.08.18.13a.18.18,0,0,1,.07.15,1.6,1.6,0,0,1-.74.33c-.12,0-.14-.11-.09-.38-.09.11-.09.26-.17.35s-.17.15-.22,0-.2-.12-.33-.07a.42.42,0,0,1-.31,0,.41.41,0,0,0-.46.06.24.24,0,0,1-.2,0c-.42-.38-.87-.74-1.29-1.13a2.9,2.9,0,0,0-.36-.34C207.51,20.14,207.39,20.08,207.43,19.93Z"/><path class="cls-16" d="M225.24,23.33a1.93,1.93,0,0,1,.53.57c.56.68,1.1,1.37,1.66,2.06a1.63,1.63,0,0,1-1.23.7c-.34,0-.68.11-1,.1-.13,0-.2.1-.26.21a.54.54,0,0,1-.52.29.19.19,0,0,0-.21.08.25.25,0,0,1-.19.09,2.76,2.76,0,0,0-1.63.46.6.6,0,0,1-.59.08c-.09,0-.15,0-.23,0a2.22,2.22,0,0,1-1,.32h-.1c-.35.42-.81.26-1.27.31a1.13,1.13,0,0,0-.39.17c-.18.05-.27-.09-.4-.17l-1.71-1.21a9.57,9.57,0,0,1-.89-.64c-.11-.07-.23-.13-.24-.29a.41.41,0,0,1,.3-.31,12.17,12.17,0,0,1,1.44-.37.31.31,0,0,1,.33.18.37.37,0,0,0,.33.17c-.12,0-.27,0-.29-.2s.09-.24.24-.26a1.15,1.15,0,0,0,.62-.31.33.33,0,0,1,.25-.11,2.08,2.08,0,0,0,1-.23c.22-.07.47,0,.67-.25s.33,0,.42.14c.05-.4.14-.4.69,0-.12-.35-.08-.44.28-.56.21-.06.41-.19.65-.1a.17.17,0,0,0,.19,0A1.18,1.18,0,0,1,223.7,24a.27.27,0,0,0,.29-.09c.29-.37.81-.32,1.16-.6Z"/><path class="cls-17" d="M199.6,43.21a13.2,13.2,0,0,1-2.11-2.76,2.25,2.25,0,0,1,.3-1.75.89.89,0,0,0,.19-.63,4,4,0,0,1,.2-1.46,3.57,3.57,0,0,0,.15-1c0-.41,0-.81.44-1.07.13,0,.12-.22.12-.35a5.75,5.75,0,0,1,.24-2,1.12,1.12,0,0,1,.16-.43.39.39,0,0,0,.09-.33,2.12,2.12,0,0,1,.14-1,1.67,1.67,0,0,0,.08-.49v-.25a.72.72,0,0,0,0-.88v-.17c.39-.11.19-.38.17-.6s0-.34.26-.28a6.54,6.54,0,0,1,.31,1.13,28.36,28.36,0,0,0,1.47,4,.54.54,0,0,1,.08.37,1.27,1.27,0,0,0-.32.91,5.18,5.18,0,0,1-.11.87,3.26,3.26,0,0,0-.1.88A2.37,2.37,0,0,1,201,37a1,1,0,0,0-.13.61,1.71,1.71,0,0,1-.44,1.53.49.49,0,0,0-.13.43,2.56,2.56,0,0,1-.2,1.47,4.56,4.56,0,0,0-.34,1.79C199.77,42.94,199.87,43.17,199.6,43.21Z"/><path class="cls-18" d="M247.64,3.47a.27.27,0,0,0-.11.28,5.27,5.27,0,0,1,.09,1.68c0,1,.07,2,0,3-.05.72,0,1.45,0,2.18a19.05,19.05,0,0,0,0,2,2.43,2.43,0,0,1,0,.6c-.06.51.11,1,.06,1.53-.07.7,0,1.41,0,2.12a2.22,2.22,0,0,0,0,.89.06.06,0,0,1-.08.06,16.21,16.21,0,0,0-2.12-3.47c-.09-.12-.19-.24-.29-.35a.18.18,0,0,1-.08-.2c.1-.19,0-.4,0-.59a12.69,12.69,0,0,0,.13-1.37,1.46,1.46,0,0,0-.06-.51,1.91,1.91,0,0,1,0-1.29,1.4,1.4,0,0,0,0-.81.38.38,0,0,1,0-.21c.11-1.46,0-2.9,0-4.35a11.09,11.09,0,0,0,0-1.63c0-.13-.05-.37.23-.3A9.76,9.76,0,0,1,247.64,3.47Z"/><path class="cls-19" d="M200,27.7c-.19-.08-.19,0-.16.17a3.06,3.06,0,0,1,.1.51c0,.25-.1.32-.36.21.1.17.16.32.25.44s.2.31-.08.39a.11.11,0,0,0-.09.13c.05.54-.3,1.06-.24,1.54s-.26.87-.33,1.31a8.32,8.32,0,0,0-.14,1.72c0,.26,0,.51-.35.54a.18.18,0,0,0-.14.18c0,.19-.09.38-.09.59s.15.49-.11.68c.1.68-.4,1.28-.23,2a.72.72,0,0,1-.24.69.81.81,0,0,0-.26.52,8.59,8.59,0,0,1-.08,1.13,13.58,13.58,0,0,1-1.48-3,2,2,0,0,1,.2-1.23.35.35,0,0,0,0-.37c-.24-.28-.1-.56,0-.81a.57.57,0,0,0,.09-.33c0-.22-.07-.46.3-.4.06,0,.07,0,.07-.1a1.13,1.13,0,0,1,.09-.45c0-.15-.06-.21-.16-.28a.19.19,0,0,1,0-.35.37.37,0,0,0,.18-.45.28.28,0,0,1,.05-.27c.26-.22.28-.56.45-.82a.27.27,0,0,0,0-.3c-.06-.12-.08-.22.06-.3s.08-.08,0-.12c-.33-.37.1-.64.14-1s.14-.47,0-.72a.26.26,0,0,1,.09-.35c.22-.14.17-.29,0-.47-.26-.36-.25-.36.14-.56a.45.45,0,0,0,.25-.5,2.2,2.2,0,0,1,.09-1.19.25.25,0,0,0,0-.17.33.33,0,0,1,.12-.46l0,0a.35.35,0,0,0,.18-.38,1.62,1.62,0,0,1,.08-.49.86.86,0,0,0,0-.45c-.23-.68.17-1.12.56-1.57h.09a.52.52,0,0,1,.07.27c.21,1.52.46,3,.77,4.52C200.1,27.49,200.15,27.62,200,27.7Z"/><path class="cls-20" d="M204.51,47.12a24,24,0,0,1-2.62-1.87c0-.3.07-.6.07-.9a.86.86,0,0,0,0-.32c0-.2-.1-.41.23-.41.12,0,.08-.12.11-.2a9.27,9.27,0,0,0,.14-1.18,3.59,3.59,0,0,1,.4-1.18.79.79,0,0,0,.12-.47,3,3,0,0,1,.27-1.63,2,2,0,0,0,.13-1.08,1.19,1.19,0,0,1,.65-1.14c.18,0,.25.17.34.29a34,34,0,0,0,2.55,3c.1.11.25.2.2.39s-.23.14-.37.14a.35.35,0,0,0-.34.38c0,.26,0,.63,0,1a.82.82,0,0,1-.4.81.43.43,0,0,0-.22.42v.74a1.18,1.18,0,0,0,.33.82c.23.26.18.47-.11.65-.12.07-.2.06-.24-.08s-.06-.25-.11-.37,0-.16-.1-.16a.26.26,0,0,0-.16.13.54.54,0,0,0,0,.18,3.78,3.78,0,0,0,0,.95.66.66,0,0,1-.37.81A2.23,2.23,0,0,0,204.51,47.12Z"/><path class="cls-21" d="M222.69,20.07c.21.08.28.29.41.45.4.51.82,1,1.18,1.54-.25.22-.47.52-.88.43-.22,0-.34.17-.54.19a1.66,1.66,0,0,0-1.05.37c-.12.12-.29.05-.44.07a3.16,3.16,0,0,0-1.37.44c-.35.25-.81.17-1.2.29l-1.63.52c0,.07.08.07.13.1s.23.15.14.3-.25.26-.39.14-.63-.16-.94-.18a2.13,2.13,0,0,0-.82.26,1,1,0,0,1-.49.13.56.56,0,0,0-.63.34c-.11.06-.2,0-.28-.05-.43-.24-.74-.63-1.14-.89a6.79,6.79,0,0,1-1-.81c-.1-.08-.22-.16-.19-.31s.21-.18.34-.22c.72-.26,1.47-.44,2.2-.68,2.1-.67,4.23-1.25,6.32-1.94a15.54,15.54,0,0,0,1.63-.52A.66.66,0,0,1,222.69,20.07Z"/><path class="cls-22" d="M253.52,8.29a8.26,8.26,0,0,1,1.13,1.78c-.06.66,0,1.32,0,2a10.76,10.76,0,0,1-.06,2.27.69.69,0,0,0,0,.35.43.43,0,0,1,0,.25,5.86,5.86,0,0,0,0,2,2.67,2.67,0,0,1-.07,1.19,1,1,0,0,0,0,.42,10.05,10.05,0,0,1,0,1.9,5.06,5.06,0,0,0,0,1.1,10.29,10.29,0,0,0,.05,1.23,1.67,1.67,0,0,0,.09.7.54.54,0,0,1,0,.18,19,19,0,0,0-.09,3.2v3.26a9.16,9.16,0,0,0-.06,1.48,1.54,1.54,0,0,0,.07.56,10.54,10.54,0,0,1-1.18,2c-.21,0-.16-.2-.17-.33-.05-1.37,0-2.74,0-4.07V25.53c0-.81,0-1.58,0-2.37V8.71C253.25,8.47,253.3,8.31,253.52,8.29Z"/><path class="cls-23" d="M199.2,22.55a4.89,4.89,0,0,0-.57,1c0,.14-.09.25,0,.36a1,1,0,0,1,0,.72.85.85,0,0,0,0,.59c0,.12-.05.2-.17.27s-.42.21-.15.46a.11.11,0,0,1,0,.15h0c-.3.39-.16.82-.13,1.23a.53.53,0,0,1-.46.57c-.19,0-.18.13-.1.24a1.68,1.68,0,0,1,.18.21c.13.2.25.37-.06.51-.11,0-.25.17-.07.34a.35.35,0,0,1,0,.37c-.16.33-.09.74-.39,1-.09.09,0,.07.07.09.25.23.23.34-.11.44a.4.4,0,0,1,.08.55l0,0c-.18.26-.15.64-.48.81v.1c.15.3.11.51-.23.63-.13.05-.07.15,0,.19.28.05.3.22.19.44a.57.57,0,0,0-.07.31c0,.26,0,.26-.22.19s-.21.06-.17.15c.18.36-.15.59-.2.9,0,.06-.1.12,0,.19.43.42.12.81,0,1.21-.07.2.07.44-.06.65a13.75,13.75,0,0,1-.87-2.82.48.48,0,0,0,.16-.47,1.46,1.46,0,0,1,.36-1.31,0,0,0,0,0,0-.05c-.08-.51.27-1,.13-1.48a.45.45,0,0,1,.11-.49.65.65,0,0,0,.21-.63c-.05-.44.15-.82,0-1.3a.43.43,0,0,1,.31-.35c.41-.11.51-.23.52-.62a4.68,4.68,0,0,1,0-.53c0-.21-.14-.26-.32-.29a.66.66,0,0,0,.09-.61c-.07-.28,0-.41.31-.37.14,0,.27,0,.24-.19v-.07c.49-.57.17-1.26.25-1.89a.28.28,0,0,1,.12-.28.4.4,0,0,0,.18-.4c0-.12,0-.24.18-.17s.06-.08.07-.13c0-.59,0-1.17,0-1.76V15.31a1.61,1.61,0,0,0-.12-.81.15.15,0,0,1,0-.16c.3-.48.12-1,.1-1.47,0-.29,0-.58.05-.87V10a25.29,25.29,0,0,1,1.18-2.66c.22.1.14.3.12.46-.08.81-.17,1.63-.26,2.44s-.14,1.63-.17,2.4-.09,1.72-.09,2.58a58.77,58.77,0,0,0,.47,7.14A.27.27,0,0,1,199.2,22.55Z"/><path class="cls-24" d="M249.69,23.77c.12-.11.22-.21.07-.38s0-.26,0-.41a5.39,5.39,0,0,1,0-1.39c.11-.56-.15-1.08-.06-1.63a4.94,4.94,0,0,0,0-.86,4.45,4.45,0,0,1,0-.73c.15-.55-.08-1.09,0-1.62a3.22,3.22,0,0,0,0-1,7.71,7.71,0,0,1-.05-1.52,12,12,0,0,0,0-1.47,6.58,6.58,0,0,0,.09-1.77,11.42,11.42,0,0,1-.12-2.33,4.33,4.33,0,0,1,.12-1.34s0-.07,0-.1a12.54,12.54,0,0,1-.05-2.12c0-.16-.1-.34.13-.4l.95.69a.55.55,0,0,1,0,.31,3.94,3.94,0,0,0,0,1.37,22.73,22.73,0,0,1,0,3.69,1.14,1.14,0,0,0,0,.45,1.64,1.64,0,0,1,0,1,1.87,1.87,0,0,0,0,.88,15.86,15.86,0,0,0,0,2.18,6.88,6.88,0,0,1,0,1.57,22.28,22.28,0,0,1-.08,2.45,8,8,0,0,0,.07,1.47,17.42,17.42,0,0,1,0,1.77V25a1.71,1.71,0,0,1,0,.32,8.91,8.91,0,0,0-.05,1.79c0,.66.08,1.31.05,2a13.87,13.87,0,0,0-.06,1.44c0,.69,0,1.38.05,2.06a2,2,0,0,1,0,.35,17,17,0,0,0,0,2.26c0,.47-.07.93-.11,1.41v1l-.44.62c-.29-.06-.26-.32-.26-.51V33.53a3.36,3.36,0,0,0,0-1c.07-1.34,0-2.68.07-4a20.14,20.14,0,0,0-.42-4.17C249.64,24.18,249.53,24,249.69,23.77Z"/><path class="cls-25" d="M203.1,15.32a.13.13,0,0,0-.14.12.07.07,0,0,0,0,.05c.08.82,0,1.63,0,2.44.06.49,0,1,0,1.47.06.75-.06,1.49,0,2.24a9.08,9.08,0,0,1,0,2.21,4.57,4.57,0,0,1,.05.52c-.05.81,0,1.63-.05,2.48,0,1.16,0,2.32,0,3.48a13.68,13.68,0,0,1,0,1.92c0,.28.09.55.07.81a1.12,1.12,0,0,1-.15.62c-.19,0-.24-.18-.3-.31-.36-.75-.75-1.48-1.05-2.26a.74.74,0,0,1-.06-.44c-.05-1.63,0-3.31,0-5V14a.85.85,0,0,1,.23-.73A16.56,16.56,0,0,0,203.1,15.32Z"/><path class="cls-26" d="M201.67,13.27a3.77,3.77,0,0,0-.12,1.42V29.2a6.46,6.46,0,0,0,0,1.39.24.24,0,0,1-.06.19c-.17,0-.2-.14-.24-.26a35.59,35.59,0,0,1-1.51-5.07.45.45,0,0,1,0-.28c.07-.09.16-.21.13-.31a12,12,0,0,1,0-1.47,1,1,0,0,1,0-.35,5.67,5.67,0,0,0,0-1.54,4.27,4.27,0,0,1,0-1,5.83,5.83,0,0,0,0-2.28,2.75,2.75,0,0,1,0-.81c.1-1,0-1.91.06-2.86,0-.58,0-1.17,0-1.75s-.15-.86-.14-1.3a1.31,1.31,0,0,1,.07-.52.75.75,0,0,0,0-.55c0-.17-.1-.38.16-.47A26.3,26.3,0,0,0,201.67,13.27Z"/><path class="cls-27" d="M218.77,28.8c.1-.19.25-.21.46-.24.4-.06.9.17,1.18-.35a.14.14,0,0,1,.09,0,1.13,1.13,0,0,0,1.08-.37c.08-.08.13-.05.2,0a.52.52,0,0,0,.44.05,3.53,3.53,0,0,1,1.17-.48c.2,0,.36-.22.62-.05s.18-.16.22-.3a.36.36,0,0,0,.51,0,.34.34,0,0,0,.1-.16.36.36,0,0,1,.42-.26,7.24,7.24,0,0,0,1.54-.22h.09c0-.35.42-.22.54-.45l2.2,2.6a1.77,1.77,0,0,1-.81.46,16.87,16.87,0,0,0-2,.57c-.48.18-1,.3-1.45.46a14.28,14.28,0,0,0-2.23.66c-.36.16-.78.17-1.14.35-.3,0-.48-.24-.7-.37s-.48-.35-.74-.5c-.53-.37-1.06-.81-1.63-1.15C218.87,29,218.75,29,218.77,28.8Z"/><path class="cls-28" d="M204,36.81a1.18,1.18,0,0,0-.6,1.07,2.31,2.31,0,0,1-.3,1.52,2.11,2.11,0,0,0-.11.9c0,.32.1.65-.21.9a.22.22,0,0,0-.07.26.3.3,0,0,1,0,.3,1.48,1.48,0,0,0-.19,1.05c0,.31-.17.59-.17.91,0,.08,0,.07-.11,0s-.12-.15-.21,0a.25.25,0,0,0,0,.24,1.85,1.85,0,0,1-.1,1.31,16.45,16.45,0,0,1-2.29-2c.15-.11.09-.26.09-.4a5.54,5.54,0,0,1,.15-1.41c.08-.26.34-.46.3-.77s.26-.75.06-1.16c-.05-.11,0-.28.16-.41a1.78,1.78,0,0,0,.5-1.11,5.93,5.93,0,0,1-.07-.59,2.9,2.9,0,0,1,.34-.81,2.07,2.07,0,0,0,.16-1,4.78,4.78,0,0,1,.18-.9c.06-.36.07-.74.13-1.1a.37.37,0,0,1,.29-.36,3.29,3.29,0,0,1,.52.81,23.36,23.36,0,0,0,1.47,2.45C204,36.53,204.08,36.66,204,36.81Z"/><path class="cls-29" d="M251.73,6.24a7.08,7.08,0,0,1,1,1.1,2,2,0,0,1,0,.6,3.78,3.78,0,0,0,0,1c.07.81-.06,1.63-.05,2.44,0,.12,0,.27,0,.35.22.28.1.55,0,.82a7.23,7.23,0,0,0,0,1.14V15a4.64,4.64,0,0,0,0,1.34,1.14,1.14,0,0,1,0,.52,2.27,2.27,0,0,0,0,1.1,2.11,2.11,0,0,1,0,1.06c0,.54-.06,1.09-.05,1.63v.14a.47.47,0,0,1,.14.65.39.39,0,0,1-.08.1v.14c.12.81-.11,1.71,0,2.55a12.66,12.66,0,0,1,0,1.63,3.07,3.07,0,0,1,0,.68.82.82,0,0,0,0,.49c.23.4.1.86.26,1.27a.2.2,0,0,1-.07.25.49.49,0,0,0-.12.61,2.54,2.54,0,0,0,.14.47.44.44,0,0,1-.06.56.42.42,0,0,0-.09.4,5.9,5.9,0,0,1,0,1.57c0,.45-.2,1,.19,1.35a.23.23,0,0,1,0,.27,1.46,1.46,0,0,0-.22,1.15v.24a6.17,6.17,0,0,1-.77,1.07c-.27-.12-.28-.35-.24-.59a3.3,3.3,0,0,0,0-.77,6.12,6.12,0,0,1,0-1.71,1.14,1.14,0,0,0,0-.52.82.82,0,0,1,0-.49.43.43,0,0,0,0-.35.69.69,0,0,1,0-.24c.06-.71,0-1.41,0-2.12a5.63,5.63,0,0,0,0-1.36,4.44,4.44,0,0,1,.05-1.41,23.22,23.22,0,0,0,0-2.36,14,14,0,0,1,0-1.45V19.47c0-.72-.06-1.45,0-2.15s-.1-1.09,0-1.63-.13-1-.06-1.44a17,17,0,0,0,.05-1.89c0-.82.08-1.63,0-2.45a14.72,14.72,0,0,1,0-2.1V6.46C251.62,6.44,251.56,6.3,251.73,6.24Z"/><path class="cls-30" d="M245.38,2.69c-.31.24-.14.56-.11.82s.08.28,0,.41a.21.21,0,0,0-.07.2A18,18,0,0,1,245.28,7a1.33,1.33,0,0,1-.06.92.1.1,0,0,0,0,.13c.2.22.1.44,0,.66a.86.86,0,0,0,0,.59.65.65,0,0,1,0,.51,5.55,5.55,0,0,0-.17,1.07V11c.3.38.1.81.19,1.25,0,.28-.17.55-.13.86a1.13,1.13,0,0,0,0,.41.25.25,0,0,1-.17.3c-.12.07-.1,0-.15-.07a9.41,9.41,0,0,0-2-1.71.76.76,0,0,1-.12-.51V2.76a.65.65,0,0,1,.12-.5A9.3,9.3,0,0,1,245.38,2.69Z"/><path class="cls-31" d="M230.45,59.79c-.14.24-.12.56-.36.76-.13-.82-.33-1.63-.41-2.45.06-.13,0-.36.29-.3a3,3,0,0,1,.22,1.56c.08-.39,0-.82,0-1.2a3.81,3.81,0,0,0,0-1.26,16.3,16.3,0,0,0-.41-2.7,1.52,1.52,0,0,1-.06-.42c.12-.15,0-.33,0-.48a20.61,20.61,0,0,0,0-2.08,6.74,6.74,0,0,1,0-1.42,6.33,6.33,0,0,1-.07-1c.07-.38,0-.74.05-1.11,0-.19-.1-.34-.07-.52.09-.49,0-1,.07-1.47.05-.3-.05-.62,0-.94a12,12,0,0,0,0-1.34,5.24,5.24,0,0,0,0-1.48c-.1-.4.07-.81,0-1.26a.26.26,0,0,1,.19-.23c.11,0,.21.25.27.39.32.77.58,1.55.82,2.34a20.47,20.47,0,0,1,.55,2.44.91.91,0,0,1,0,.33,2.6,2.6,0,0,0-.1,1.63,3.76,3.76,0,0,1,0,1.06c-.06.82,0,1.63,0,2.45a5,5,0,0,0,0,1.22,4.31,4.31,0,0,1,0,1.52,1.58,1.58,0,0,0,.17.82,10,10,0,0,1-.3,1.88A15.71,15.71,0,0,1,230.45,59.79Z"/><path class="cls-32" d="M254.65,32.05c-.32-.32-.21-.75-.18-1.12.07-1,0-2,0-3.05s0-2,0-2.95a6.31,6.31,0,0,1,0-.87,9.76,9.76,0,0,0-.07-1.87c0-.57,0-1.15,0-1.73a8.79,8.79,0,0,0-.06-2.29c0-.22.12-.42.14-.67.05-.66-.17-1.29-.08-2a1.23,1.23,0,0,1,.1-.59.2.2,0,0,0,0-.23.34.34,0,0,1-.07-.37,2.78,2.78,0,0,0,.07-.81,1.75,1.75,0,0,0-.06-.82c-.08-.21.1-.4.07-.66a13.52,13.52,0,0,1,0-1.8c0-.09,0-.16.13-.17a22.41,22.41,0,0,1,1,2.08c.05.11.13.2.11.33a1.26,1.26,0,0,0,0,.72,6.83,6.83,0,0,1,0,1.69,8.42,8.42,0,0,1,0,1.23,15.7,15.7,0,0,0,0,1.94,3.32,3.32,0,0,0,0,.89,1.18,1.18,0,0,1,0,.81.65.65,0,0,0,0,.39,1.16,1.16,0,0,1,0,.69.33.33,0,0,0,0,.14c.13.85,0,1.71.06,2.56,0,.31-.08.65-.08,1a8.16,8.16,0,0,0,.05,1.4,1.71,1.71,0,0,1,0,.87,3.3,3.3,0,0,0,0,.77,11.08,11.08,0,0,0,0,1.73c0,.25-.24.42-.14.67a15.36,15.36,0,0,1-.92,2A.57.57,0,0,1,254.65,32.05Z"/><path class="cls-33" d="M222,31.07c.29-.15.53-.39.9-.31h.06a4.56,4.56,0,0,1,1.68-.55c.36-.09.69-.39,1.1-.25h.07c.39-.41,1-.26,1.47-.61.24-.19.6-.11.91-.22a6.75,6.75,0,0,0,1.48-.54A17.2,17.2,0,0,1,231.52,31c-.07.07-.14.05-.22,0s-.22,0-.32,0-.07.16,0,.25,0,.15-.05.15c-.31,0-.4.4-.73.43s-.51-.08-.81.07-.2-.15-.18-.31a.57.57,0,0,0,0,.26.29.29,0,0,1-.17.39h0c-.19,0-.18-.19-.3-.29-.06.12-.1.26-.26.29s-.16-.19-.29-.21c-.1.17.19.35,0,.48s-.34,0-.47.09-.37.09-.49.25a.49.49,0,0,1-.32.16c-.06,0-.15,0-.19,0s0-.13,0-.18.07,0,.08-.08a.49.49,0,0,0-.06-.32.08.08,0,0,0-.09,0l0,0a.31.31,0,0,0-.14.25c0,.47,0,.47-.45.52-.15,0-.25,0-.3-.15s-.12-.13-.25-.21q.34.41-.06.48c-.27.05-.33.11-.51.13-.39-.15-.6-.52-.92-.74-.1-.06-.17-.15-.27-.22a13.69,13.69,0,0,1-1.13-.88C222.39,31.4,222.05,31.37,222,31.07Z"/><path class="cls-34" d="M252.66,35.25a1.37,1.37,0,0,1,.16-1.43c.09-.1.06-.19-.06-.27a.61.61,0,0,1-.2-.47c0-.66.18-1.29.12-1.95,0-.11,0-.23,0-.35s-.12-.47.14-.65a.16.16,0,0,0,.09-.22l0-.05a2.91,2.91,0,0,1-.29-.92v-.16c.27-.18.21-.37.17-.67a6.57,6.57,0,0,0-.17-1c-.12-.38.07-.76,0-1.16a4.21,4.21,0,0,1,.05-.94c.07-.38-.13-.75-.07-1.13a10.12,10.12,0,0,1,.12-1.55c.07-.2,0-.35-.09-.52s.13-.46.23-.69a.44.44,0,0,1-.3-.54v0c.1-.52-.12-1.07,0-1.63a2.85,2.85,0,0,0-.07-1.42,7,7,0,0,1,.09-.92,5.11,5.11,0,0,1-.07-1.17c.1-.52,0-1,.08-1.57,0,0,0-.1,0-.14a4.9,4.9,0,0,1,0-1.48.13.13,0,0,1,.1-.16c.12-.05.1-.15,0-.18-.27-.11-.19-.37-.16-.51.07-.66,0-1.31.08-2a2.2,2.2,0,0,0-.08-.92,1.64,1.64,0,0,1,0-.66c0-.18.13-.35,0-.53l.13-.06a4.58,4.58,0,0,1,.76,1,.42.42,0,0,0-.16.39,14.72,14.72,0,0,1,0,2.3,4.89,4.89,0,0,0,.05.66V33.79a.24.24,0,0,0,.08.22A13.29,13.29,0,0,1,252.66,35.25Z"/><path class="cls-35" d="M243,2.28v9.77a10.89,10.89,0,0,0-2.2-1,.39.39,0,0,1-.08-.3V8.19c0-.86,0-1.7,0-2.54a27.81,27.81,0,0,0-.08-2.89c0-.36.12-.51.63-.55A7.69,7.69,0,0,1,243,2.28Z"/><path class="cls-36" d="M241.85,32.53c0,.42.45.48.7.61s.48.23.7.36c.46.29.88.66,1.33,1a8.84,8.84,0,0,0,1.11.64c.25.11.43.33.67.43s.57.57,1,.62a.33.33,0,0,1,.19.16.69.69,0,0,0,.67.38h.1a2.28,2.28,0,0,0,1,.66.25.25,0,0,1,.07.25.77.77,0,0,0,0,.37,5.37,5.37,0,0,1-.36,1.67c-.29.1-.48-.09-.69-.22-1.35-.81-2.69-1.71-4-2.58l-3.4-2.17c-.12-.07-.3-.12-.27-.32Z"/><path class="cls-31" d="M255.69,29.93s-.05,0,0-.06a7,7,0,0,0,.07-1.21.64.64,0,0,0-.05-.36c-.11-.19.07-.45,0-.7v-.33a1.64,1.64,0,0,1,.06-.7,2.86,2.86,0,0,0,0-1.05,4.05,4.05,0,0,1,0-1.1,15.49,15.49,0,0,0,.08-1.8,1.52,1.52,0,0,0-.08-.82c-.08-.16.19-.17.11-.32-.23-.44.1-.92-.11-1.38a.53.53,0,0,1,0-.5c.16-.21,0-.46,0-.7a6.52,6.52,0,0,1,0-1,2.21,2.21,0,0,0,0-.81,2.79,2.79,0,0,1,0-1.15c0-.82,0-1.59.07-2.37a.92.92,0,0,0-.06-.52.46.46,0,0,1,.14-.61,19.4,19.4,0,0,1,1.39,4.48,1.22,1.22,0,0,1,0,.27c0,.37-.2.73,0,1.09a.17.17,0,0,1,0,.14c-.23.5,0,1-.14,1.56a1.69,1.69,0,0,0,.05.55,3.21,3.21,0,0,1,0,.62,13.46,13.46,0,0,0,0,1.68,1.34,1.34,0,0,1,0,.49,1,1,0,0,0,0,.58.83.83,0,0,1,0,.54,1.23,1.23,0,0,0,0,.76A19.35,19.35,0,0,1,256.11,29,3.07,3.07,0,0,0,255.69,29.93Z"/><path class="cls-37" d="M233.8,35a17.06,17.06,0,0,1,1.13,3.34c-.11.1-.24.05-.37,0a.58.58,0,0,0-.7.33c-.1.2-.24.28-.45.13a.47.47,0,0,0-.51,0,3.76,3.76,0,0,1-1,.3,6,6,0,0,0-1.14.41c-.3.15-.68.16-1,.33-.19,0-.23-.17-.3-.3-.28-.56-.59-1.1-.91-1.63-.14-.24-.29-.48-.45-.71a.56.56,0,0,1-.13-.35.29.29,0,0,1,.28-.23,8.36,8.36,0,0,0,.81-.25c1.27-.37,2.52-.76,3.77-1.16A2.89,2.89,0,0,1,233.8,35Z"/><path class="cls-38" d="M229.69,39.86a12.2,12.2,0,0,1,2.71-.92c.28,0,.49-.31.82-.24h.13c.34.41.38,0,.53-.18a.68.68,0,0,1,.71-.2,1.07,1.07,0,0,0,.35.06v.13a1.46,1.46,0,0,0,.12.51,16.91,16.91,0,0,1,.44,2.91c.06.08,0,.13,0,.17a4,4,0,0,0-1.11.34.52.52,0,0,1-.74,0,.36.36,0,0,1-.08-.12c.06.44-.06.57-.39.44a.2.2,0,0,0-.19.07,1.13,1.13,0,0,1-1,.3c-.16,0-.24.12-.35.19s-.35.26-.52,0v-.06h0c.06,0,0,.06,0,0h0c-.27-.77-.56-1.53-.81-2.3a1,1,0,0,0-.21-.4C229.78,40.3,229.63,40.12,229.69,39.86Z"/><path class="cls-39" d="M232.61,4.82a12.85,12.85,0,0,1,2.48-1.26,1.46,1.46,0,0,1,.18.82c0,.63,0,1.27,0,1.9.06,1.53,0,3.06,0,4.59a.34.34,0,0,1-.06.24l-2.55.77a.64.64,0,0,1-.12-.51V5.13A.82.82,0,0,1,232.61,4.82Z"/><path class="cls-40" d="M250.81,37.61a1,1,0,0,1-.11-.92c.06-.2-.07-.46,0-.65a4.13,4.13,0,0,0,.11-1.75,15.1,15.1,0,0,1,0-1.78c0-.4-.21-.86,0-1.27a.17.17,0,0,0,0-.17c-.22-.31-.09-.64,0-.95a.11.11,0,0,0,0-.08,4.89,4.89,0,0,1,0-1.43,9.71,9.71,0,0,1-.05-1.32,2.32,2.32,0,0,0,0-1.11.25.25,0,0,1,0-.17,5.2,5.2,0,0,0,.05-1.67,8,8,0,0,1,0-1.2,8.46,8.46,0,0,1,.06-1.59,2.35,2.35,0,0,0,0-.59,5,5,0,0,0-.12-1.54c-.06-.15.12-.23.11-.39V17.28a3.66,3.66,0,0,1,0-.81c.12-.69-.15-1.37,0-2a4.23,4.23,0,0,0,0-1.42c-.13-.64.27-1.29-.08-1.92a1,1,0,0,1,.06-.59,7.5,7.5,0,0,0,0-1.25,11.28,11.28,0,0,1,0-1.3,4.84,4.84,0,0,0-.09-1.07,3.06,3.06,0,0,1,.1-1.44,1.78,1.78,0,0,1,.51.44c-.12.19,0,.36,0,.54,0,.77,0,1.53,0,2.31a14.61,14.61,0,0,1,0,1.48A17.74,17.74,0,0,0,251.3,12c.06.63,0,1.27,0,1.9v6.87c0,.38,0,.75,0,1.13v9.92a11.92,11.92,0,0,0,0,1.34.65.65,0,0,1-.17.62s-.09.06,0,.08.15.25.16.39A20.55,20.55,0,0,1,251.3,37,2.06,2.06,0,0,1,250.81,37.61Z"/><path class="cls-41" d="M241.25,2.21c-.18.09-.46,0-.52.33,0,0,0,.11,0,.16a16.59,16.59,0,0,1,.08,2.44,21.49,21.49,0,0,1,0,2.27v3.68l-1.4-.26c-.22-.06-.44,0-.65,0h0a.84.84,0,0,1-.1-.58V4.06a8.85,8.85,0,0,0,0-1,.58.58,0,0,1,.15-.55A11.13,11.13,0,0,1,241.25,2.21Z"/><path class="cls-42" d="M200.06,9.92S200,10,200,10c.13.7-.22,1.4-.05,2.07a15.86,15.86,0,0,1,0,2,22.13,22.13,0,0,0,.07,2.82.57.57,0,0,1-.06.31c0,.15-.13.31,0,.46v.06c-.2.48.16.93.08,1.38a7.45,7.45,0,0,1-.21,1.69,1.1,1.1,0,0,0,.05.57,3.57,3.57,0,0,1,.08,1.49c-.08.45.17.91-.08,1.36-.09.16.15.43.12.68s0,.29-.22.3-.19-.32-.23-.49c-.14-.6-.24-1.2-.34-1.8a3.31,3.31,0,0,0-.07-.55,9.14,9.14,0,0,1-.21-1.56c-.12-1.3-.23-2.59-.27-3.9a16.25,16.25,0,0,1,0-2.79,2.94,2.94,0,0,0,0-.42A35,35,0,0,1,199,9.45c.07-.63.12-1.25.22-1.88a.25.25,0,0,0-.06-.26l.11-.31c.1.48.18.87.28,1.26C199.74,8.82,199.9,9.37,200.06,9.92Z"/><path class="cls-43" d="M204.51,47.12c0-.2.12-.3.3-.38.42-.2.48-.35.44-.82a10.49,10.49,0,0,1-.05-1.12c0-.27.29-.18.41-.32s.09.06.08.09c-.11.25.18.43.07.69.36-.2.41-.34.19-.59a1.26,1.26,0,0,1-.32-.94q0-.3,0-.6c0-.27,0-.48.3-.61a.72.72,0,0,0,.3-.82c-.06-.26.06-.61,0-.93s.24-.35.47-.32a.39.39,0,0,0,.35-.08h0c0,.12.07.16.18.08a.27.27,0,0,1,.17.06c.43.43.88.81,1.34,1.23a.25.25,0,0,1,.09.22.8.8,0,0,1-.32.81c-.12.08-.11.22-.11.35v1a.61.61,0,0,1-.34.61.44.44,0,0,0-.26.49,6.7,6.7,0,0,0,0,1,.44.44,0,0,1-.29.53.5.5,0,0,0-.31.57v1c0,.15,0,.31-.18.39A21.67,21.67,0,0,1,204.51,47.12Z"/><path class="cls-44" d="M214.16,25.46c0-.38.29-.43.59-.43s.43.09.54-.18c.37.15.59-.33,1-.21.26.09.57,0,.82.22.1.09.19-.05.24-.13s0-.16-.12-.19l-.29-.12c.05-.13.17-.22.23-.21.35.09.61-.15.89-.24a3,3,0,0,0,1.2-.38.17.17,0,0,1,.1,0c.3.24.56,0,.74-.17a3.11,3.11,0,0,1,1.41-.36.36.36,0,0,0,.28-.08c.25-.35.67-.28,1-.37.11,0,.21,0,.28-.13a.14.14,0,0,1,.18-.07c.44.2.66-.23,1-.33.24.33.48.65.74,1a2.2,2.2,0,0,1,.21.32c-.29.13-.5.43-.87.38-.11,0-.2.13-.26.23s-.17.22-.27.16a.83.83,0,0,0-.82,0c-.41.39-1,.08-1.41.44,0,.06-.19.12-.08.16s0,.27.11.38l-.14.11a2.4,2.4,0,0,0-.25-.37c-.07-.07-.12-.2-.25-.15s-.09.18-.07.28a.35.35,0,0,1,0,.13c-.14,0-.1-.11-.14-.18s-.2-.17-.26-.08c-.22.36-.55.27-.87.29-.09,0-.13.1-.18.16s-.18.2-.32.09a.4.4,0,0,0-.55.08,1.15,1.15,0,0,1-.67.33c-.12,0-.19.05-.18.17s.11.12.19.08a.21.21,0,0,1,.26.13.14.14,0,0,1,0,.09c-.09.05-.18,0-.27,0a.7.7,0,0,1-.29-.19c-.14-.14-.27-.29-.46-.07-.31-.22-.49.3-.82.15a.69.69,0,0,0-.69.37c-.11.05-.19,0-.28-.09l-.92-.7C214.29,25.67,214.16,25.63,214.16,25.46Z"/><path class="cls-45" d="M238.78,2.46a2.41,2.41,0,0,0,0,1v7.27l-1.77.06c-.17.08-.26,0-.3-.17a1.48,1.48,0,0,1,0-.42V3.48a.91.91,0,0,1,.11-.58A8.7,8.7,0,0,1,238.78,2.46Z"/><path class="cls-46" d="M233.8,35c-1.07.36-2.16.67-3.25,1-.65.21-1.31.37-1.94.62a1.11,1.11,0,0,1-.3.08c-.15,0-.29,0-.32.21-.23,0-.25-.21-.36-.32a3.07,3.07,0,0,1-.27-.36c-.3-.4-.63-.81-1-1.17-.08-.1-.2-.19-.14-.34a2,2,0,0,1,.67-.3c1.15-.33,2.29-.68,3.43-1a13.79,13.79,0,0,0,1.88-.62.43.43,0,0,1,.44,0A13.15,13.15,0,0,1,233.8,35Z"/><path class="cls-47" d="M235.77,41.62a14.84,14.84,0,0,1,.92-1.41c.24-.09.41.07.57.18,1.17.82,2.39,1.53,3.57,2.3,1,.66,2,1.33,3.07,2a.44.44,0,0,1,.2.18,16.66,16.66,0,0,1-1.44,1.34.23.23,0,0,1-.29,0c-.4-.34-1-.45-1.25-1a.1.1,0,0,0-.11-.06.79.79,0,0,1-.73-.38.68.68,0,0,0-.44-.28A1.46,1.46,0,0,1,239,44c-.21-.2-.54-.29-.66-.6-.45,0-.71-.35-1.07-.53A4.68,4.68,0,0,1,235.77,41.62Z"/><path class="cls-12" d="M232.61,4.82a.84.84,0,0,1,.07.44v6.65l-2.13.93c-.18,0-.22-.13-.24-.26a3.09,3.09,0,0,1,0-.43V6.76a1.2,1.2,0,0,1,0-.38A14,14,0,0,1,232.61,4.82Z"/><path class="cls-48" d="M214.09,51.52a25.54,25.54,0,0,1-3.62-1.29c-.17-.08-.23-.18-.07-.33a.7.7,0,0,0,.18-.63,3.07,3.07,0,0,0-.05-.67.64.64,0,0,1,.15-.53,1.45,1.45,0,0,0,.29-1.22c0-.42-.08-.81.39-1,.13-.06.13-.21.16-.34a7.48,7.48,0,0,0,0-1.16c0-.13,0-.28.16-.31.33.05.55.31.81.45.54.3,1.06.62,1.63.92.12.08.29.13.26.33a.35.35,0,0,1-.16.18.47.47,0,0,0-.25.5v1a.44.44,0,0,1-.26.49.57.57,0,0,0-.31.52v1a.58.58,0,0,1-.33.58.76.76,0,0,0-.33.31.51.51,0,0,0,.19.7.39.39,0,0,0,.15.06l.37.12a4,4,0,0,1,.49.17C214,51.36,214.16,51.39,214.09,51.52Z"/><path class="cls-49" d="M211.72,44.05c-.22.23-.12.52-.1.81a8.3,8.3,0,0,1-.05.87c0,.09,0,.22-.14.23-.54.11-.41.53-.39.87a1.55,1.55,0,0,1-.31,1.36c-.17.15-.13.35-.12.52a3.32,3.32,0,0,0,.07.73.58.58,0,0,1-.22.56c-.18.12-.05.18,0,.27a23,23,0,0,1-2.63-1.18A.81.81,0,0,1,208,48a.67.67,0,0,0,.27-.6,7.06,7.06,0,0,0,0-.92.41.41,0,0,1,.23-.47c.17-.09.19-.25.2-.42v-1a.75.75,0,0,1,.51-.69c.27-.08.38,0,.34.29s-.12.27-.11.4a9.65,9.65,0,0,1-.26,1.3.91.91,0,0,1-.22.67c-.19.21-.09.48,0,.72s.09.08.16,0a.55.55,0,0,0,.33-.53v-1a.46.46,0,0,1,.25-.48.64.64,0,0,0,.34-.65v-.92a.5.5,0,0,1,.4-.55,5.21,5.21,0,0,1,1.36.81.08.08,0,0,1,0,.11A.08.08,0,0,1,211.72,44.05Z"/><path class="cls-50" d="M237.64,38.8a11,11,0,0,1,.77-1.15.49.49,0,0,1,.64.11,3.41,3.41,0,0,0,.64.43,7.44,7.44,0,0,0,1.56,1c.05,0,.09.07.16,0s.2,0,.23.13.09.3.33.29.27.18.4.28.35.4.67.3a.09.09,0,0,1,.08.06c.2.37.64.46.9.75s.95.48,1.34.87a2.29,2.29,0,0,0,.67.4c.19.09.32.2.29.44a10.27,10.27,0,0,1-1,1,.23.23,0,0,1-.27,0c-.22-.17-.5-.26-.72-.42a6.62,6.62,0,0,1-1-.67c-.07-.07-.16-.11-.11-.22s.08,0,.11-.09a.31.31,0,0,0-.11.09.18.18,0,0,1-.25.08l-.06,0a8.21,8.21,0,0,0-1.76-1.15c-.55-.35-1.14-.67-1.62-1s-.88-.35-1.09-.82c0-.09-.17-.05-.25-.09C238,39.18,237.63,39.16,237.64,38.8Z"/><path class="cls-51" d="M235.77,41.62a.47.47,0,0,1,.39.31.17.17,0,0,0,.06.12,14.29,14.29,0,0,0,1.63,1c.22.09.37.38.67.25,0,.41.4.37.58.59a1.13,1.13,0,0,0,.82.44.48.48,0,0,1,.38.29c.11.23.39.39.49.36.52-.16.44.43.75.54s.7.5,1.11.64a12.93,12.93,0,0,1-1.36,1.21c-.13,0-.25-.07-.4,0s-.18-.12-.24-.22,0-.35-.28-.31c-.06,0-.11-.07-.15-.13a.25.25,0,0,0-.33-.1c-.15.09-.2.06-.22,0-.08-.27-.45-.18-.53-.45H239c-.27,0-.4-.09-.36-.39-.19,0-.45.26-.41-.19,0-.19-.24-.15-.37-.16s-.43,0-.31-.32a.11.11,0,0,0-.07-.14h0c-.36-.07-.56-.39-.88-.5-.16,0-.3-.16-.48-.12a.22.22,0,0,1-.16,0,3.1,3.1,0,0,0-1.4-.81,4.44,4.44,0,0,1,.86-1.43.16.16,0,0,0,.08-.14C235.66,41.87,235.66,41.7,235.77,41.62Z"/><path class="cls-26" d="M230.33,6.38a.75.75,0,0,1,.08.44V12.4c0,.15-.06.33.14.44l-2.37,1.34c-.21.05-.21-.13-.2-.23a12.2,12.2,0,0,1,.08-2.18c.08-.27-.06-.51-.06-.77,0-.52.08-1,0-1.55a2.4,2.4,0,0,1,.16-1.09A17.35,17.35,0,0,1,230.33,6.38Z"/><path class="cls-38" d="M243.24,42.36c.25.12.31.56.71.44,0,0,.08,0,.09,0,.21.51.81.46,1.14.82h.14a11.93,11.93,0,0,1-1.22,1.14,11.59,11.59,0,0,1-1.82-1.1c-1.08-.67-2.14-1.37-3.2-2.05l-1.71-1.13a2.92,2.92,0,0,0-.68-.35l.95-1.41c.16.24.34.44.67.39a.17.17,0,0,1,.21.13v0a.27.27,0,0,0,.19.27c.3.09.54.37.82.48a16.37,16.37,0,0,1,1.49,1,6,6,0,0,1,1.46.91c.12.11.3.2.44.33a.22.22,0,0,0,.29.05A0,0,0,0,1,243.24,42.36Z"/><path class="cls-52" d="M232.7,32.84a4.61,4.61,0,0,0-1.32.41c-1,.29-2.06.62-3.09.93-.67.2-1.34.39-2,.64-.23,0-.28-.18-.4-.31-.29-.31-.6-.6-.89-.9a.37.37,0,0,1-.12-.2,1.17,1.17,0,0,1,.41-.18c.12,0,.23,0,.26-.13s-.09-.17-.18-.22-.09,0-.08-.13c.19,0,.41,0,.48.22.14.38.38,0,.54.1a.48.48,0,0,0,.05-.45c-.1-.22.17-.24.25-.36s.17.07.21.17c.13.33.13.33-.13.56.15-.05.39,0,.41-.25a.1.1,0,0,1,.11-.08l0,0c.05,0,.1.06.13,0,.18-.28.51-.06.74-.23,0-.09-.12-.17-.17-.27a.15.15,0,0,1,0-.2h0c.07,0,.23-.09.23.1s0,.16.1.14.16,0,.15-.11,0-.22.18-.23,0,.22.12.24,0,.07.07.11.14-.1.22-.61c0-.06-.11-.21.09-.18s.09.11.07.2-.1.18,0,.25.15-.05.22-.12.17,0,.26,0,.42-.12.64-.05c0,0,0,0,0-.07s.06-.28.24-.2.13,0,.17-.09,0-.09-.1-.11a.1.1,0,0,1-.08-.11.08.08,0,0,1,0-.05c.1-.1.25-.09.35-.21s.23,0,.33.09h.14l.09.14c0,.08-.16.13-.09.23s.19,0,.29.06C232.08,31.91,232.47,32.32,232.7,32.84Z"/><path class="cls-53" d="M221.89,53.58l-3.18-.82a2.91,2.91,0,0,1,0-1.55.35.35,0,0,1,.19-.25.56.56,0,0,0,.3-.62v-.57a.92.92,0,0,1,.32-.88c.1-.07.1-.21.15-.31.22-.22.37.05.55.09l1.63.91c.26.14.51.27.76.43.09.06.23.1.18.25a.61.61,0,0,0-.22.5c0,.37-.12.72-.13,1.09a.35.35,0,0,1-.14.28,1.09,1.09,0,0,0-.25.88A.73.73,0,0,1,221.89,53.58Z"/><path class="cls-54" d="M222.69,20.07a8.74,8.74,0,0,0-1.75.49c-1.63.47-3.26,1-4.95,1.48-.68.19-1.36.41-2,.64s-1.43.44-2.15.65a.29.29,0,0,0-.19.15c-.31,0-.44-.28-.66-.39a.87.87,0,0,1-.57-.63c.23-.28.58-.23.89-.26.15,0,.24,0,.34-.12a.48.48,0,0,1,.65-.17.46.46,0,0,1,.17.17c.09-.38.33-.32.62-.32a1.08,1.08,0,0,0,1-.39c.13-.22.28-.24.46-.06s.26.17.35,0c.22-.38.63-.38.94-.44.51-.09,1-.21,1.53-.29.35-.06.67-.32,1.06-.36a.19.19,0,0,0,.09,0,.81.81,0,0,1,1.11-.32h0c.17.09.31,0,.39-.19a.69.69,0,0,1,.66-.44.86.86,0,0,0,.6-.19.23.23,0,0,1,.28,0c.08.05,0,.05,0,.07h0s.13-.25.31-.17Z"/><path class="cls-55" d="M246.32,42.71a1.38,1.38,0,0,0-.93-.64c-.16,0-.07-.13-.13-.19-.21-.25-.55-.3-.81-.45l-.23-.17-.91-.65c-.08,0-.18-.06-.2-.17-.08.07,0-.42-.2-.06,0,.06-.08,0-.13-.07a3,3,0,0,1-.7-.53c-.13-.17-.25,0-.35-.1a.59.59,0,0,1-.17-.55c-.13.12-.12.33-.31.16s-.65-.25-.87-.44a8.51,8.51,0,0,1-.81-.63c-.24-.25-.59-.21-.71-.53-.16.1-.29-.06-.45,0a10.89,10.89,0,0,1,.86-1.27.85.85,0,0,1,.47.22c.56.45,1.2.81,1.75,1.24a2,2,0,0,0,.76.41c.44.13.69.51,1.07.7.08,0,.12.12.21.14.48.15.81.59,1.24.77a14.59,14.59,0,0,1,1.5,1c.31.17.6.39.94.54a.27.27,0,0,1,.16.31A13,13,0,0,1,246.32,42.71Z"/><path class="cls-40" d="M251.33,37c-.3-.22,0-.49,0-.73,0-.66,0-1.33,0-2,0-.06.18-.43-.21-.27-.05,0-.05-.11-.08-.17s0-.1.09-.09c.25,0,.23-.16.23-.3V31.17c0-.71,0-1.42,0-2.14a15.69,15.69,0,0,1,0-1.68V23.19a1.19,1.19,0,0,0-.08-.62c-.09-.16.11-.25.09-.42-.05-.36-.05-.74-.08-1.1a6.91,6.91,0,0,1,.06-.95c0-.93,0-1.86,0-2.78s0-1.63,0-2.45a23.42,23.42,0,0,0,0-2.37,8.85,8.85,0,0,0,0-1,9.94,9.94,0,0,1,.06-1.34V8.69c0-.74.06-1.49,0-2.23a.31.31,0,0,0,0-.19c-.2-.18-.05-.26.09-.35a1.22,1.22,0,0,1,.38.37c0,.47,0,.93,0,1.4-.08.72.06,1.43,0,2.15a6.67,6.67,0,0,0,.1,1.34,1.25,1.25,0,0,1-.1.57c-.06.11-.12.24,0,.35a.08.08,0,0,1,0,.07c-.08.53,0,1.07,0,1.63a11.09,11.09,0,0,0,0,1.63c0,.05,0,.09,0,.14-.13.49.08,1,0,1.48a5.53,5.53,0,0,0,0,1.15,11.6,11.6,0,0,0,0,1.56,16.45,16.45,0,0,1,0,1.72,17.22,17.22,0,0,1,0,1.76,5.1,5.1,0,0,0,.05,1.35,3.86,3.86,0,0,1,0,.76,16.7,16.7,0,0,1-.13,2.55.53.53,0,0,0,0,.25,3.55,3.55,0,0,1,0,1.62,1.41,1.41,0,0,0,0,.29,7.62,7.62,0,0,1,0,1.51.51.51,0,0,0,.1.46h0c-.18.39,0,.81,0,1.18a2,2,0,0,0,0,1,.45.45,0,0,1,0,.23,1,1,0,0,0,.06.72.56.56,0,0,1,0,.44.77.77,0,0,0,.12.76C251.73,36.55,251.62,36.83,251.33,37Z"/><path class="cls-56" d="M219.7,48.52c0,.24,0,.46-.28.56s-.15.22-.15.37v1.13A.37.37,0,0,1,219,51a.43.43,0,0,0-.31.49v1.27c-.88-.19-1.77-.4-2.63-.66a.51.51,0,0,1-.08-.91.68.68,0,0,0,.35-.73v-.68a.6.6,0,0,1,.34-.67c.22-.1.24-.33.24-.55V47.6a.49.49,0,0,1,.33-.5,2.13,2.13,0,0,1,.63.21c.47.32,1,.57,1.47.88C219.47,48.27,219.68,48.29,219.7,48.52Z"/><path class="cls-57" d="M234.59,43.48c.21,0,.41.15.63,0h.09c-.1.29.21.15.28.26a3.59,3.59,0,0,0,.39.39.15.15,0,0,0,.13,0,1.25,1.25,0,0,1,1,.41.49.49,0,0,0,.27.15c.34,0,.45.18.2.51h.6c.39,0,.2.22.09.42.22,0,.35-.19.54-.11a.31.31,0,0,0-.05.33c.09.12.26,0,.35.06a1.28,1.28,0,0,1,.59.38c.12.16.07.21.26.09s.07-.11.11-.07a1.65,1.65,0,0,0,.7.46c-.09.08-.08.15,0,.25s0,.31.22.08.22.08.33.15A13.94,13.94,0,0,1,240,48.5c-.35.06-.53-.24-.75-.4s-.6-.32-.89-.49a5.78,5.78,0,0,1-1-.74,6.61,6.61,0,0,0-1.06-.61c-.76-.52-1.53-1-2.31-1.48a.28.28,0,0,1-.09-.1A2.8,2.8,0,0,1,234.59,43.48Z"/><path class="cls-58" d="M236.78,3v7.65c0,.16,0,.25.21.24l-1.76.29c-.14-1,0-1.9-.07-2.85a15.89,15.89,0,0,0-.06-2.58,3.25,3.25,0,0,1,.06-.76,10.85,10.85,0,0,0-.07-1.4A8.47,8.47,0,0,1,236.78,3Z"/><path class="cls-59" d="M240.61,34.38a9.67,9.67,0,0,0,1.31.88c.46.3.93.58,1.39.87l2.59,1.63c.87.56,1.74,1.13,2.61,1.67a.89.89,0,0,0,.41.18c.09.11,0,.2,0,.31a3.7,3.7,0,0,1-.72.81,1.66,1.66,0,0,1-1.15-.7c-.06-.06-.07-.16-.19-.15a1.15,1.15,0,0,1-.7-.31c-.57-.41-1.19-.76-1.76-1.15a1.57,1.57,0,0,0-.82-.39.11.11,0,0,1-.09-.06c-.22-.39-.68-.5-1-.81s-.65-.33-1-.51a10.19,10.19,0,0,1-1.69-1.24Z"/><path class="cls-60" d="M217.28,47.17c-.23.06-.28.23-.28.46a10.46,10.46,0,0,1,0,1.12.5.5,0,0,1-.35.47.32.32,0,0,0-.23.37,8.32,8.32,0,0,0,.05,1.12c.05.37-.21.39-.37.52a.49.49,0,0,0-.17.68.58.58,0,0,0,.17.18,17.35,17.35,0,0,1-2-.57c-.17-.19-.43-.18-.63-.31a3.78,3.78,0,0,0,.36-1c0-.1,0-.19.18-.17s0,0,0,.07,0,0,0-.09c.15-.34.08-.73.3-1.06s0-.61,0-.9a.61.61,0,0,1,.21-.63c.36-.27.32-.7.33-1.09V46c0-.12.28,0,.4.05.58.32,1.19.56,1.77.87C217.11,47,217.29,47,217.28,47.17Z"/><path class="cls-21" d="M237.78,50.6l-1.57,1.53c-.26,0-.39-.21-.54-.35a8.21,8.21,0,0,0-1.1-.66,14.73,14.73,0,0,0-1.29-.82.26.26,0,0,1-.11-.14.65.65,0,0,0-.52-.38,2.74,2.74,0,0,1-.81-.34,2,2,0,0,1-.05-.81,6.79,6.79,0,0,1,.63-1.23.39.39,0,0,1,.57,0l0,0a20.35,20.35,0,0,0,2,1.23c.62.36,1.15.82,1.78,1.22a5.18,5.18,0,0,1,.73.4C237.64,50.31,237.82,50.38,237.78,50.6Z"/><path class="cls-54" d="M221.54,19.15c-.07-.09-.18-.17-.26,0a.7.7,0,0,1-.52.19c-.34,0-.64.11-.71.5a.22.22,0,0,1-.25.2l-.08,0c-.19-.08-.45,0-.61-.2s-.15,0-.19.06c-.25.34-.52.62-1,.53a.15.15,0,0,0-.13,0c-.21.38-.59.24-.9.33s-.82.14-1.24.23c-.16,0-.28.25-.51.13-.07,0-.1.12-.14.18-.17.3-.35.32-.57.06s-.27-.11-.33.07a.35.35,0,0,1-.39.31l-.08,0a.19.19,0,0,0-.19.05c-.13.19-.29.18-.48.09s-.41-.11-.44.21c0,.07,0,.14-.1.15s-.12,0-.16,0,0-.29-.18-.23-.35.06-.43.23-.19.41-.41.11h-.07c-.19.3-.58,0-.77.26-.31,0-.44-.23-.6-.41a.25.25,0,0,0-.26-.24.22.22,0,0,1-.14-.14c.12-.18.26-.28.47-.13a.3.3,0,0,0,.36,0c.21-.13.36-.13.35.23.14-.16.22-.26.19-.42a.14.14,0,0,1,.11-.17h0a.2.2,0,0,1,.2,0c.07.11,0,.15-.08.21s-.16.1-.05.19.15,0,.19,0,.2-.21.38-.1.14-.05.15-.12-.07-.11-.14-.12-.26,0-.25-.11.17-.17.28-.17.51-.14.6.24c0,0,.08.11.13.05.29-.37.74-.33,1.12-.44l.06-.06s0-.06-.07-.07-.22,0-.28-.1,0-.09.07-.1a.4.4,0,0,1,.37,0c.32.24.33.23.44-.16s.31-.36.68-.22a.71.71,0,0,0,.81-.27.12.12,0,0,1,.09-.09c.25,0,.5-.12.74,0,.09,0,.16.13.26,0a.26.26,0,0,0,0-.27.09.09,0,0,1,0-.13c.22,0,.22.17.31.33.23-.37.58-.1.88-.19s.48-.09.15-.43c.25,0,.47.07.56-.22a.14.14,0,0,1,.27,0c0,.14.2.3.37.21s.48-.07.44-.44.26-.25.43-.3.31-.06.32.15,0,.2.15.16.11-.14.07-.24,0-.07,0-.12c.21,0,.24.34.48.25l.52-.21a1.9,1.9,0,0,1,.35.49C221.73,18.94,221.67,19.1,221.54,19.15Z"/><path class="cls-61" d="M239.89,35.45a9.82,9.82,0,0,1,1.26.88,4.51,4.51,0,0,0,1,.54,3,3,0,0,1,.35.19c.21.15.32.44.66.43.11,0,.22.24.31.38s0,.14.09.13c.47-.1.7.32,1.06.48a5.74,5.74,0,0,1,.76.53c.37.27.76.52,1.16.76s.5.14.7.43a1.69,1.69,0,0,0,.94.58,11.41,11.41,0,0,1-.81.88c-.06-.28-.34-.29-.53-.4a9,9,0,0,1-1.53-1s-.06-.12-.1-.13a2.5,2.5,0,0,1-1.16-.66c-.28-.22-.66-.35-1-.57-.11-.09-.27-.13-.33-.29s-.07-.09-.1-.09c-.41,0-.64-.4-1-.45a.27.27,0,0,1-.22-.15,1,1,0,0,0-.5-.42c-.59-.31-1.07-.81-1.63-1.11A5.68,5.68,0,0,1,239.89,35.45Z"/><path class="cls-16" d="M237.78,50.6a2.74,2.74,0,0,0-1-.68c-.49-.28-.92-.66-1.39-1a9.4,9.4,0,0,0-1.45-.89,10.73,10.73,0,0,1-1.05-.71c-.21-.13-.29.06-.44,0a.24.24,0,0,1,0-.23,4.89,4.89,0,0,1,.73-1.3.52.52,0,0,1,.43.14c.71.49,1.47.91,2.2,1.39s1.55,1,2.34,1.51a2.06,2.06,0,0,1,.82.61A13.72,13.72,0,0,1,237.78,50.6Z"/><path class="cls-62" d="M227.64,56.13l-.82-.59a10.09,10.09,0,0,0-2.25-1.13c-.2-.08-.43-.11-.42-.4,0,0-.07-.09-.14-.1s.08.28-.13.24-.36,0-.43-.26a1.31,1.31,0,0,1,.32-1.19c.17-.14.35,0,.43.33a.44.44,0,0,0,.25-.54,1.67,1.67,0,0,1,.21-.82c.06-.14.22-.09.35-.07a1.66,1.66,0,0,1,.68.42,7.78,7.78,0,0,1,1.14.92c.31.33.65.62.94,1,.1.13.25.26.25.45s-.05.12,0,.17a.7.7,0,0,1-.41.9l-.05,0c-.17.07-.17.21-.05.34S227.7,56,227.64,56.13Z"/><path class="cls-27" d="M239,49.5c-.81-.5-1.63-1-2.38-1.54-1-.68-2.05-1.29-3.06-2a1.48,1.48,0,0,0-.29-.12c0-.26.15-.43.25-.63s.13-.25.2-.37.08-.17.19-.13a17.36,17.36,0,0,1,1.63,1,5.28,5.28,0,0,1,.82.5c.38.37,1,.39,1.29.86a1.53,1.53,0,0,0,.82.52c.52.28,1,.59,1.53.92A8.72,8.72,0,0,1,239,49.5Z"/><path class="cls-63" d="M226.94,15,225,16.59c-.2.06-.21-.1-.21-.22a9.26,9.26,0,0,1,0-1.29,5.34,5.34,0,0,0,0-1.13,1.31,1.31,0,0,1,.06-.68,15.5,15.5,0,0,1,1.91-3.14.36.36,0,0,1,.24.43C226.88,12.05,227,13.55,226.94,15Z"/><path class="cls-64" d="M210.39,43.17a.56.56,0,0,0-.34.63v.88a.62.62,0,0,1-.41.67.26.26,0,0,0-.18.32,4.1,4.1,0,0,0,0,1c.09.45-.23.59-.48.82s-.25.05-.23-.12c0-.34-.25-.74.22-1,.14-.1,0-.39.05-.58s-.05-.22,0-.24c.48-.26.08-.81.32-1.11.09-.12.19-.38.07-.45s-.35.06-.5.21a.47.47,0,0,0-.15.41,7.88,7.88,0,0,1,0,1.19c0,.13,0,.26-.17.28-.32,0-.29.28-.26.48a3,3,0,0,1,0,.73c0,.33,0,.63-.36.82s-.21.64-.15,1l-.71-.38a3.28,3.28,0,0,0,.07-1.36c0-.35,0-.59.39-.69s.26-.19.22-.42c-.08-.41,0-.81-.07-1.23a.41.41,0,0,1,.3-.35.41.41,0,0,0,.31-.48v-1c0-.34-.06-.46.26-.57s.09-.46.23-.66a5.62,5.62,0,0,1,1.18.81C210.16,42.82,210.39,42.88,210.39,43.17Z"/><path class="cls-65" d="M231.9,49.44c.47.2,1.08.08,1.38.69.07.13.34.25.52.38a5.55,5.55,0,0,0,1.08.7,6.07,6.07,0,0,1,1.33.92L235,53.34c-.18.11-.29,0-.41-.11-.71-.44-1.4-.91-2.09-1.38-.23-.16-.55-.17-.7-.45a12.2,12.2,0,0,1,0-1.71A.33.33,0,0,1,231.9,49.44Z"/><path class="cls-66" d="M225,51.64c-.24,0-.41.07-.33.37a.21.21,0,0,1-.11.28h0c-.06,0-.08.07-.06.14.11.36.1.36-.18.62v.09l-.07.08a.43.43,0,0,1-.09-.33c0-.15-.1-.16-.2-.19,0,.26-.39.29-.39.59,0,.72,0,.72.42.81,0-.09-.15-.16-.11-.27s.12,0,.18,0,.25.07.24.22.14.26.3.32a13.06,13.06,0,0,1,2.07,1,.47.47,0,0,1,.22.22A18,18,0,0,0,223,54l-1.11-.32a2.88,2.88,0,0,0,.08-.77c0-.26-.05-.54.25-.71.08,0,.1-.18.1-.28a9.78,9.78,0,0,0,.13-1.2.34.34,0,0,1,.27-.4h0a4.32,4.32,0,0,1,1.16.57,12.14,12.14,0,0,1,1.12.75A.1.1,0,0,1,225,51.64Z"/><path class="cls-9" d="M230.45,59.79c.24-.94.51-1.87.73-2.82a14.43,14.43,0,0,0,.4-2.35,5.3,5.3,0,0,1,.14-1.43c.19-.31.19-.29.49-.12s.76.72,1.31.82a.72.72,0,0,1,.49.58c-.55.7-1.14,1.38-1.63,2.11a23.17,23.17,0,0,0-1.79,3C230.5,59.68,230.5,59.77,230.45,59.79Z"/><path class="cls-67" d="M226.94,15c-.2-.31-.09-.66-.11-1V11.82a4.16,4.16,0,0,1,0-1.17.58.58,0,0,0-.15-.52,12.58,12.58,0,0,1,1.49-1.77,1.07,1.07,0,0,1-.1.61c-.14.21.09.41.06.68a4.15,4.15,0,0,0,0,1.92c.06.21-.14.34-.14.53V14c0,.09,0,.17.11.19Z"/><path class="cls-68" d="M234,54.5a2.27,2.27,0,0,0-1-.73.86.86,0,0,1-.47-.41.11.11,0,0,0-.18-.1c-.11.07-.16,0-.19-.1-.09-.26-.22-.18-.35,0-.2-.29,0-.59,0-.89a3,3,0,0,0,.06-.59.26.26,0,0,1,.09-.16c.47,0,.74.4,1.12.61.69.37,1.28.93,2,1.24Z"/><path class="cls-69" d="M227.64,56.13a.87.87,0,0,0-.27-.33c-.19-.18-.18-.31.06-.42s.64-.39.44-.82a.23.23,0,0,1,.13-.19.36.36,0,0,1,.22.16,8.35,8.35,0,0,1,1.5,3.47.15.15,0,0,1,0,.13,15.42,15.42,0,0,1,.35,2.44c-.1-.39-.22-.81-.32-1.17A6.74,6.74,0,0,0,227.64,56.13Z"/><path class="cls-70" d="M248.92,40v-.31a9.69,9.69,0,0,0,.36-1.7v-.32a1,1,0,0,0,0-.39c.25-1.41.46-2.82.6-4.25,0-.14,0-.32.18-.37a16.57,16.57,0,0,1,.09,2,8.88,8.88,0,0,1,0,1.63,5.7,5.7,0,0,1,0,1.43.54.54,0,0,0,.17.57A21,21,0,0,1,248.92,40Z"/><path class="cls-71" d="M224.8,13.27a12.24,12.24,0,0,1,.08,1.71,8.54,8.54,0,0,0,0,1.43c0,.09,0,.16.12.18a.75.75,0,0,1-.07.12l-1.7,1.57A16,16,0,0,1,224.8,13.27Z"/><path class="cls-72" d="M257.13,25.26c0-.05-.21.15-.15-.09s.15-.36,0-.55,0-.11,0-.15c.23-.13.16-.33.08-.52s-.07-.12-.05-.2c.15-.56-.09-1.13,0-1.7.06-.27-.2-.56,0-.82s-.15-.62.05-.91h0c-.33-.3.05-.63,0-.94a1.22,1.22,0,0,1,.05-.82c0-.06.06-.1,0-.18-.26-.33,0-.67,0-1a.1.1,0,0,0,.08-.05,18,18,0,0,1,.35,4.45A19.5,19.5,0,0,1,257.13,25.26Z"/><path class="cls-33" d="M231.82,31.42c-.15.09-.33.19-.43,0s0-.29.23-.28A.63.63,0,0,1,231.82,31.42Z"/><path class="cls-23" d="M197.36,12.23c.36.09.29.35.22.6-.05-.16,0-.41-.29-.39Z"/><path class="cls-37" d="M235.07,39c-.22-.12-.19-.31-.12-.51A1.13,1.13,0,0,1,235.07,39Z"/><path class="cls-45" d="M238.77,10.79a1.27,1.27,0,0,1,.64,0A2.3,2.3,0,0,1,238.77,10.79Z"/><path class="cls-23" d="M197.52,11.71c.07.12.1.23-.08.27Z"/><path class="cls-73" d="M244.93,13.76l.18.1.07.14-.07.07A.5.5,0,0,1,244.93,13.76Z"/><path class="cls-74" d="M207.43,19.93c.14.24.45.31.57.56a1.35,1.35,0,0,1,.09.77v3c0,.82,0,1.58,0,2.37a19.53,19.53,0,0,0,0,2.65c0,.33-.08.65-.07,1s.07.72.08,1.09a18.74,18.74,0,0,0,0,2.12c0,.64,0,1.27,0,1.91s0,1.53,0,2.29a12.18,12.18,0,0,0,0,1.91.83.83,0,0,1-.08.51c-.18.21-.32,0-.44-.08-.51-.47-1-1-1.42-1.52A16.43,16.43,0,0,1,205,37.12c-.08-.11-.19-.21-.14-.38V18.11a2,2,0,0,1,.07-.59l.5.42A16.1,16.1,0,0,0,207.43,19.93Z"/><path class="cls-75" d="M250.12,32.58c-.06.52-.15,1-.2,1.53a30.6,30.6,0,0,1-.52,3.16c-.17-.06-.09-.17-.06-.28-.16-.22,0-.43,0-.64.1-1.36.18-2.73.2-4.08l.05-2.22A36.83,36.83,0,0,0,248,19.32c-.14-.51-.3-1-.45-1.52l.08-.07A36.47,36.47,0,0,1,249,21.18c.26.82.48,1.72.72,2.59.11.61.2,1.24.3,1.87a14.18,14.18,0,0,1,.21,2.6V31C250.19,31.54,250.15,32.08,250.12,32.58Z"/><path class="cls-76" d="M249.34,37a.43.43,0,0,0,.06.28c.07.07,0,.24-.06.37s-.05,0-.07,0v-.29C249.3,37.26,249.25,37.13,249.34,37Z"/><path class="cls-75" d="M204.87,36.74a13.7,13.7,0,0,0,1.38,1.76c.45.49.93,1,1.39,1.46.08.08.15.18.28.2s.31.21.44.34a10.12,10.12,0,0,0,1,.89c.7.57,1.37,1.18,2.11,1.69a34.27,34.27,0,0,0,3,2.06c.73.52,1.51,1,2.28,1.43.16.08.33.15.4.33s0,.1-.1.06l-2.11-1a.71.71,0,0,1-.49-.27l-2-1.21c-.22-.13-.42-.28-.63-.42-.42-.36-.91-.61-1.35-.92-.47-.47-1.06-.77-1.55-1.21l-1.56-1.41a.22.22,0,0,1-.2-.16h0c-.52-.56-1-1.14-1.54-1.68s-1-1.26-1.52-1.86c-.66-1-1.32-2.06-1.9-3.14a2.65,2.65,0,0,1-.23-.48c-.47-1.08-.91-2.16-1.28-3.25a13.71,13.71,0,0,1-.57-2.18c-.34-1.63-.61-3.25-.81-4.88a.07.07,0,0,1,.11,0l0,0a23.14,23.14,0,0,0,.49,2.34,36.18,36.18,0,0,0,1.63,5.5l.08.11a3.16,3.16,0,0,0,.36.94,12.91,12.91,0,0,0,1,2,20.05,20.05,0,0,0,1.82,2.92A.6.6,0,0,0,204.87,36.74Z"/><path class="cls-45" d="M211.39,43.17a11.75,11.75,0,0,1-1.67-1.31c-.16-.12-.35-.2-.45-.39a1.77,1.77,0,0,1-.13-.82c0-.93.08-1.86,0-2.79-.06-.66,0-1.33,0-2,0-1,.05-1.94,0-2.9V31.82a18.74,18.74,0,0,1,0-2.12c.06-.81,0-1.63,0-2.44a16.64,16.64,0,0,0,0-1.73,10.67,10.67,0,0,1,0-2.26,3.64,3.64,0,0,0,0-.74c0-.28-.1-.59.14-.82l.14.07.14.08a.53.53,0,0,1,.29.28c.2.13.32.35.57.43.12.25.44.31.57.56a.73.73,0,0,1,.17.55,4.37,4.37,0,0,1-.12,1.44.34.34,0,0,0,0,.2,11.69,11.69,0,0,1,.05,1.87,6.79,6.79,0,0,0,0,.78,6.35,6.35,0,0,1,0,1.63c0,.6,0,1.19,0,1.79a8,8,0,0,1-.08,2,.34.34,0,0,0,0,.28c.2.22.1.44.07.68a5.06,5.06,0,0,0,0,1.82.75.75,0,0,1,0,.42.48.48,0,0,0,.1.46,3.88,3.88,0,0,0,.28.81c.06.14.15.28,0,.43a1.67,1.67,0,0,0,0,.63V42.7A.63.63,0,0,1,211.39,43.17Z"/><path class="cls-58" d="M209.28,21.63a.86.86,0,0,0-.07.61,7.15,7.15,0,0,1,0,1.73c0,.64,0,1.28,0,1.92s-.11,1.45,0,2.17,0,1.63,0,2.49a7.22,7.22,0,0,1,0,2,6.83,6.83,0,0,0,0,1,10.44,10.44,0,0,0,0,1.37,10.75,10.75,0,0,1,0,1.39,10.27,10.27,0,0,0,0,1.11,7.4,7.4,0,0,1,0,1.63,14.72,14.72,0,0,1,0,1.63c-.06.27.11.51,0,.77a8.47,8.47,0,0,1-1.34-1.27c.19-.43-.07-.82,0-1.3a10.16,10.16,0,0,0,0-1.56,5.23,5.23,0,0,0,0-1.25,2.48,2.48,0,0,1,0-.86V31.88a6.42,6.42,0,0,0-.07-1.58c-.06-.27.11-.48.09-.75a12.68,12.68,0,0,1-.05-1.63q0-.77,0-1.53a8.56,8.56,0,0,0-.06-1.13c.06-.81,0-1.63,0-2.44l.07-2.3A13.52,13.52,0,0,1,209.28,21.63Z"/><path class="cls-77" d="M218.77,28.8c.59.49,1.24.89,1.85,1.35a1.16,1.16,0,0,1,.11.58c0,.75-.11,1.49-.07,2.23.06,1,.06,2,.05,3s0,2.17,0,3.26c0,.59,0,1.18.05,1.77s-.08,1.34,0,2a.49.49,0,0,1-.09.33c-.17.2-.33.07-.47,0l-1.33-.7c-.2-.1-.42-.16-.53-.37s-.07-.24,0-.31c.19-.24.06-.47,0-.7a2.65,2.65,0,0,1-.07-.48,3.45,3.45,0,0,0,0-1.63c.2-.42,0-.89.16-1.3a.19.19,0,0,0,0-.18.61.61,0,0,1,0-.61.81.81,0,0,0,0-.74.79.79,0,0,1,.07-.81c.07-.12.14-.25.08-.37-.16-.29-.08-.63-.18-.93,0-.08-.06-.16,0-.21.21-.26.07-.5,0-.76a3.17,3.17,0,0,1,0-1.37,2.32,2.32,0,0,0-.05-1.08,1.72,1.72,0,0,1,.1-1.14.55.55,0,0,0,0-.5c-.09-.16-.19-.34,0-.49C218.55,28.63,218.62,28.8,218.77,28.8Z"/><path class="cls-30" d="M218.42,28.59c0,.08-.09.2-.06.22.42.46,0,.91,0,1.35a1,1,0,0,0,0,.62,1.34,1.34,0,0,1,.07.86,2.68,2.68,0,0,0,.07,1.85.09.09,0,0,1,0,.07c-.28.29,0,.64-.11.95,0,.09,0,.14.06.23a.62.62,0,0,1,0,.77.57.57,0,0,0-.05.7.72.72,0,0,1,.05.81c-.06.21-.22.41.05.59a.06.06,0,0,1,0,.06c-.28.3,0,.66-.14,1a1.08,1.08,0,0,0,.07,1,.17.17,0,0,1,0,.19,2.18,2.18,0,0,0,0,1.7c0,.13.09.19-.08.27s-.05.28-.08.43-.29,0-.42-.12l-1-.57c-.1-.06-.2-.1-.22-.23a2,2,0,0,0,0-.91,1,1,0,0,1,0-.73.17.17,0,0,0,0-.1c-.1-.62.06-1.24,0-1.86a1.74,1.74,0,0,1,0-1,.25.25,0,0,0,0-.17,7.66,7.66,0,0,1,0-2,7.34,7.34,0,0,0-.08-.82c0-.81.08-1.63,0-2.44a3.91,3.91,0,0,0-.08-1.32.34.34,0,0,1,0-.28,4.4,4.4,0,0,0,.1-1.49,1.63,1.63,0,0,1,0-.82Z"/><path class="cls-78" d="M216.72,27.38a10.59,10.59,0,0,1,.1,2,.61.61,0,0,1-.08.26c0,.06-.1.15-.08.18.3.41,0,.89.16,1.33a2.5,2.5,0,0,1,0,.82,10.62,10.62,0,0,0,0,2.39c.06.28-.15.54-.08.82s-.17.9.08,1.34a.17.17,0,0,1,0,.1c-.26.4-.08.81,0,1.19a2.66,2.66,0,0,1,0,.69,1.1,1.1,0,0,0,0,.51c.14.51-.26,1,0,1.51a.89.89,0,0,1-.06.81.15.15,0,0,1-.2,0,4.41,4.41,0,0,1-1.22-.75.73.73,0,0,1-.09-.41V37.13a10.65,10.65,0,0,0,0-1.13,9.27,9.27,0,0,1,0-1.49V34.3c-.12-1.43,0-2.87-.1-4.31a4.67,4.67,0,0,1,0-1.12,13.07,13.07,0,0,0,0-1.77c0-.25-.06-.53.19-.72l.21.14A9.16,9.16,0,0,0,216.72,27.38Z"/><path class="cls-79" d="M199.34,22.81h-.13v-.5C199.32,22.49,199.28,22.68,199.34,22.81Z"/><path class="cls-80" d="M211.19,37c-.21-.12-.33-.25-.16-.49a.34.34,0,0,0,0-.28c-.29-.59,0-1.2-.06-1.8a.52.52,0,0,1,.07-.27c.11-.19.17-.36-.06-.5a.27.27,0,0,1-.08-.22c.28-.66,0-1.35.14-2a3,3,0,0,0,0-.74,7.26,7.26,0,0,1,.09-1.92,1.29,1.29,0,0,0,0-.44c-.12-.9,0-1.8-.08-2.69a9.28,9.28,0,0,1,.09-1.06,4.64,4.64,0,0,0-.07-1.44c.25.08.4.32.63.43l1.21.92a1.81,1.81,0,0,1,.15,1.21,21.36,21.36,0,0,0,0,2.4V31c0,1.29,0,2.59,0,3.88s0,2.31,0,3.47a1.87,1.87,0,0,1,0,.53.16.16,0,0,1-.18.13.13.13,0,0,1-.09-.07A4.4,4.4,0,0,1,211.19,37Z"/><path class="cls-35" d="M215.38,26.39a3,3,0,0,0-.07,1.29c.07.69-.09,1.36-.07,2s.06,1.54.07,2.31a4.44,4.44,0,0,1,0,1,8,8,0,0,0,0,1.38,30.64,30.64,0,0,0,0,3.32c0,.24,0,.47,0,.7V40.4a1,1,0,0,0,.06.25c-.22,0-.35-.11-.51-.2s-.43-.24-.63-.38a1,1,0,0,1-.19-.17.87.87,0,0,0-.27-.27.21.21,0,0,1,0-.11c.05-.69,0-1.38,0-2.07V35a17.24,17.24,0,0,0,0-2.49,8.34,8.34,0,0,1,0-1.58,7.66,7.66,0,0,0,0-1.79,8.34,8.34,0,0,1,0-1.73,6.4,6.4,0,0,0,0-1.16c0-.32-.11-.67.21-.91l.22.14Z"/><path class="cls-81" d="M214,25.32a1.55,1.55,0,0,0-.09,1.06,4.36,4.36,0,0,1,0,1.25,11.8,11.8,0,0,0,0,1.88,1.51,1.51,0,0,1,0,.52,1,1,0,0,0,0,.68c.11.24-.11.42-.09.64a13.7,13.7,0,0,0,.15,1.93,1,1,0,0,1-.08.45c-.16.51.09,1,0,1.5a3.24,3.24,0,0,0,0,1.24,4.43,4.43,0,0,1,0,1.36c-.07.61.17,1.22-.05,1.82a1.17,1.17,0,0,1-.92-.71V32.58a1.36,1.36,0,0,0-.09-.69c-.09-.18.13-.3.1-.49a12.74,12.74,0,0,1-.05-1.63c0-.39.05-.82,0-1.16a7.19,7.19,0,0,0-.09-1.91.33.33,0,0,1,0-.14,7.7,7.7,0,0,0,0-2.09C213.24,24.69,213.51,25.12,214,25.32Z"/><path class="cls-82" d="M220.55,43.34a2,2,0,0,0,0-1,4.25,4.25,0,0,1,0-1c0-.92-.07-1.83-.06-2.74V36.42c0-.73,0-1.56,0-2.34,0-.27-.06-.55-.06-.81,0-1,0-2.07.07-3.1l1.34.92c.19.2.47.27.65.49a.46.46,0,0,1,.07.3c-.07.77,0,1.54,0,2.3-.06,1.1,0,2.19,0,3.26v4.3a24.75,24.75,0,0,1-.06,2.72c-.1.21-.25.08-.37,0s-.47-.31-.72-.42a9.9,9.9,0,0,1-.87-.56A.11.11,0,0,1,220.55,43.34Z"/><path class="cls-83" d="M229.69,39.86c0,.23.24.39.22.63a4.68,4.68,0,0,1-.06.76c-.17.56.22,1.11,0,1.63a1.45,1.45,0,0,0,.07.26c.06.23-.11.42-.07.62.08.51-.1,1,0,1.53s-.16.81,0,1.3c.06.17-.17.44-.06.62.21.35-.09.7.06,1.07.07.15-.05.47,0,.72s-.07.39.09.56a.09.09,0,0,1,0,.1,4.9,4.9,0,0,0-.09,1.43,1.7,1.7,0,0,0,.06.71,1.39,1.39,0,0,1,0,.7,4.18,4.18,0,0,0,0,1c0,.1-.07.1-.06.17-.2,0-.19-.19-.23-.31a7.76,7.76,0,0,0-.33-1c-.21-.64-.54-1.23-.81-1.87a4.09,4.09,0,0,0,.15-.85.87.87,0,0,0-.07-.31.51.51,0,0,1,0-.53c.06-.13.12-.28,0-.37-.3-.33-.12-.69-.11-1,0-.61.06-1.23,0-1.85s.07-1.13,0-1.7a14.64,14.64,0,0,1,.05-1.48v-1.8a.42.42,0,0,0-.22-.44c-.17-.07-.16-.2,0-.29s.13-.2.14-.35V38.26c0-.12,0-.29.17-.33a9.78,9.78,0,0,1,.81,1.4A2.08,2.08,0,0,0,229.69,39.86Z"/><path class="cls-84" d="M233.88,44.8l-.13.14a1.48,1.48,0,0,1-.82.35c-.46.13-.92.27-1.37.43L231,43.28h.07c.16.26.32.09.46,0s.28-.27.57-.18a.78.78,0,0,0,.74-.22c.13-.17.26-.34.48-.12a.12.12,0,0,0,.16,0c.06,0,0-.1,0-.14s-.12-.14,0-.23a.19.19,0,0,1,.26,0,.64.64,0,0,0,.9,0l0,0c.11-.1.18-.17.33-.08s.13,0,.2,0a.29.29,0,0,1,.31,0c-.23.5-.57.93-.82,1.41Z"/><path class="cls-85" d="M229.7,58.09a9.46,9.46,0,0,0-1.48-3.45l-.22-.31A17.15,17.15,0,0,0,226.79,53a1.85,1.85,0,0,0,0-.81.33.33,0,0,1,.3-.37h.08a.08.08,0,0,0,.05.07l-.05-.08a2.05,2.05,0,0,1-.28-.76c0-.28.07-.29.27-.17a10.12,10.12,0,0,1,1.28,2.08,20,20,0,0,1,1.43,4.18c0,.22.15.43,0,.66C229.71,57.83,229.82,58,229.7,58.09Z"/><path class="cls-70" d="M229.77,57.17a18.34,18.34,0,0,0-1.18-3.63l-.24-.56c.18-.23.49-.33.67-.57a.17.17,0,0,1,.24,0h0a3.16,3.16,0,0,1,.34.9.89.89,0,0,0,.15.38c.12.68.26,1.35.38,2,.06.38.08.76.11,1.14-.07.13-.21.21-.3.32S229.82,57.25,229.77,57.17Z"/><path class="cls-86" d="M231.54,45.68c.17-.26.47-.27.72-.35.49-.17,1-.29,1.49-.43a9.25,9.25,0,0,1-.51,1c-.3.47-.51,1-.77,1.49l-.57,1.2c-.14,0-.16-.1-.16-.19-.06-.68-.14-1.37-.21-2,0-.11.09-.21,0-.31Z"/><path class="cls-87" d="M231.54,46a7.52,7.52,0,0,1,.22,1.41,6.13,6.13,0,0,0,.14,1.14,6.17,6.17,0,0,0,0,.86v2.2c-.1.18,0,.38-.07.56l-.07.93a9.4,9.4,0,0,1-.22,1.49.87.87,0,0,1-.16-.82,2,2,0,0,0,.09-.94,4.42,4.42,0,0,0-.16-1.09.15.15,0,0,1,0-.13,3.62,3.62,0,0,0,.07-1.76c0-.29,0-.6,0-.89s.14-.43,0-.64a.22.22,0,0,1,0-.16c.27-.21.05-.46,0-.65A2.78,2.78,0,0,1,231.54,46Z"/><path class="cls-88" d="M229.77,57.17c.24,0,.26-.3.49-.29a10,10,0,0,1-.08,2.56c0-.56-.24-1.08-.27-1.63Z"/><path class="cls-89" d="M224.88,33.4l.14.14a1,1,0,0,1,0,1.06c-.28.35-.3.59,0,.9.1.1,0,.24-.11.32s-.19,0-.25.09c.39.14.42.22.41.66,0,.22-.11.44,0,.68a.15.15,0,0,1-.07.21H225c.21,0,.17.2.17.33v1.59a5.24,5.24,0,0,0,0,1,5.06,5.06,0,0,1,0,1.23,1,1,0,0,0,0,.35c.12.62-.1,1.25,0,1.86a.34.34,0,0,1-.17.34.21.21,0,0,0-.08.3l.08.08a.6.6,0,0,1,.17.58c0,.29.05.59,0,.89a1.09,1.09,0,0,1-.06.44c-.14.1-.22,0-.3-.09s-.4-.33-.62-.48a1.86,1.86,0,0,1-.71-.64c0-.22-.15-.41-.1-.63a2.2,2.2,0,0,0,.05-.92,1.47,1.47,0,0,1,.08-1c.07-.1,0-.23-.06-.33a.62.62,0,0,1,0-.67c.05-.08.12-.18.09-.26-.12-.38,0-.82-.14-1.17,0-.06-.05-.13,0-.17.25-.59-.06-1.18,0-1.76a5.13,5.13,0,0,1,.11-1,.37.37,0,0,0,0-.21c-.28-.54-.08-1.15-.19-1.72-.06-.4,0-.82,0-1.27,0-.22.22-.4.21-.66a1.1,1.1,0,0,0-.17-.64.33.33,0,0,1-.05-.39c.09-.18.24-.06.37-.06Z"/><path class="cls-13" d="M223.74,32.42c-.08.12-.26-.08-.34.11s.07.27.17.39a1.27,1.27,0,0,1,0,1,.56.56,0,0,0-.08.68.44.44,0,0,1-.05.52.24.24,0,0,0,0,.3c.06.31.09.62.15.93a.26.26,0,0,1-.06.21.22.22,0,0,0,0,.32.13.13,0,0,0,.06,0c.14.11.11.25.08.38s-.28.36,0,.51a.17.17,0,0,1,0,.1c-.31.29,0,.66-.12,1s.34.81-.09,1.13v.07c.31.3,0,.72.18,1.07a.52.52,0,0,1-.1.62.41.41,0,0,0,0,.58.27.27,0,0,1,.06.35,1.67,1.67,0,0,0-.06.63.9.9,0,0,0,.15.82.15.15,0,0,1,0,.13c-.37.18-.23.46-.12.72s0,.18,0,.27a1.6,1.6,0,0,1-1-.71c0-.74-.08-1.47,0-2.2s0-1.48,0-2.22V32.26c0-.23,0-.45.06-.67Z"/><path class="cls-29" d="M252.81,15.17c.06,0,.07,0,.07,0a.1.1,0,0,1,0,.08,0,0,0,0,1-.05,0,0,0,0,0,1,0,0A.09.09,0,0,1,252.81,15.17Z"/><path class="cls-90" d="M249.27,37.67h.07a.46.46,0,0,1-.06.28C249.23,37.85,249.18,37.76,249.27,37.67Z"/><path class="cls-85" d="M228.57,37.94a1.5,1.5,0,0,0-.08.89,2.54,2.54,0,0,0,0,.91c.06.13-.1.19-.22.2s-.13,0-.14.09,0,.1.12.09c.25,0,.26.19.26.34a5.25,5.25,0,0,1,0,1.12c-.05.2.06.38.07.56a3.46,3.46,0,0,1-.17,1.06c0,.06,0,.11,0,.17.25.31.07.66.09,1a12.34,12.34,0,0,0,0,1.49,7.22,7.22,0,0,1,0,.93,2.71,2.71,0,0,1,0,.94.73.73,0,0,0,.15.77v.07c-.37.65.22,1.35-.12,2-.28-.06-.25-.37-.42-.53-.24-.36-.46-.72-.72-1.06a.44.44,0,0,1-.11-.36V36.76c0-.19,0-.39.18-.51L228,37A8.13,8.13,0,0,1,228.57,37.94Z"/><path class="cls-37" d="M233.35,39.21a.12.12,0,0,1-.12.12c-.07,0-.11-.06-.12-.13a.1.1,0,0,1,.09-.11h0C233.29,39.1,233.35,39.1,233.35,39.21Z"/><path class="cls-84" d="M231.08,43s.07.05.06.06a.19.19,0,0,1-.07.11s0,0,0,0S231,43,231.08,43Z"/><path class="cls-20" d="M206.26,43c-.14-.27,0-.38.17-.5s.22-.17.1-.36-.22-.34.08-.46c.06,0,0-.26.07-.39s0-.17.06-.16a.87.87,0,0,1,.44.26c.09.07,0,.15-.1.24s-.41.43-.3.82a2.69,2.69,0,0,1,0,.75c0,.26-.35.32-.35.59h-.11c.12-.16-.27-.45.13-.54.05,0,.09-.12.11-.18s.12-.19,0-.26-.15.07-.22.13Z"/><path class="cls-20" d="M205.94,45.78c0,.08.05.22-.12.22s-.18-.06-.15-.16,0-.3.16-.32S205.93,45.68,205.94,45.78Z"/><path class="cls-20" d="M206.73,40.93c-.12,0-.25,0-.28-.18a.1.1,0,0,1,.09-.1h.06c.1.07.29,0,.31.16S206.83,40.91,206.73,40.93Z"/><path class="cls-20" d="M207.08,40.35c.07,0,.16.07.2.16s0,.2-.15.23C207,40.62,207.09,40.48,207.08,40.35Z"/><path class="cls-20" d="M205.86,43.17a.52.52,0,0,1,.11-.1.07.07,0,0,1,.07.06.09.09,0,0,1-.08.09h0A.15.15,0,0,1,205.86,43.17Z"/><path class="cls-21" d="M221.92,23.4c-.06,0-.14,0-.12-.12s0-.07.07-.1a.64.64,0,0,1,.1.13C222,23.37,222,23.4,221.92,23.4Z"/><path class="cls-21" d="M220.25,23.71l.05.05-.06.06s-.08,0-.06-.05A.19.19,0,0,1,220.25,23.71Z"/><path class="cls-34" d="M227.43,36.25a1.93,1.93,0,0,0-.08.58V48.32a.67.67,0,0,1-.06.42c-.19,0-.25-.16-.34-.27a5.4,5.4,0,0,0-.56-.61c-.19-.24-.48-.4-.58-.7a1.13,1.13,0,0,1,0-.81.42.42,0,0,0,0-.31.88.88,0,0,1,0-.6.66.66,0,0,0,0-.28,5.47,5.47,0,0,1-.05-1.28,11.53,11.53,0,0,1,0-1.44,2.62,2.62,0,0,1,.14-1.21c-.22-.49,0-1-.08-1.47a3.83,3.83,0,0,1,0-1.35c0-.2-.11-.44-.08-.66.09-.57,0-1.15,0-1.74a10.46,10.46,0,0,0,0-1.12c0-.16,0-.32.17-.39.12.11.2.27.36.35C226.67,35.3,227.1,35.74,227.43,36.25Z"/><path class="cls-91" d="M214.39,45.68a1.18,1.18,0,0,1,.49.27v.88a.82.82,0,0,1-.4.72c-.13.09-.24.23-.16.35s0,.46.1.68.11.45-.15.59c0,0-.09.11-.08.15.13.3-.1.5-.17.75-.27.1-.12.34-.09.47,0,.33,0,.49-.32.6l-.16.07a1.12,1.12,0,0,1-.36-.09c-.18-.09-.48,0-.49-.35s0-.74.43-.91a.42.42,0,0,0,.29-.46V48.32a.53.53,0,0,1,.35-.56.28.28,0,0,0,.22-.33V46.34c0-.23,0-.46.27-.52C214.24,45.81,214.31,45.73,214.39,45.68Z"/><path class="cls-38" d="M243.57,42.36a.52.52,0,0,1-.32-.07.2.2,0,0,1,0-.11C243.4,42.19,243.54,42.18,243.57,42.36Z"/><path class="cls-92" d="M225.94,34.47a1.11,1.11,0,0,0-.08.82,2.48,2.48,0,0,1,0,1.05.67.67,0,0,0,.05.37c.16.46-.19.93,0,1.36s0,.55-.06.82-.13.53.14.75c.08,0,.05.15,0,.22A1.27,1.27,0,0,0,226,41c.18.32-.17.54-.09.82s-.16.81,0,1.24c.07.13,0,.23,0,.35s0,.46,0,.7a7.72,7.72,0,0,1,0,1.36.72.72,0,0,0,0,.54c0,.05.08.12.06.16a1.46,1.46,0,0,0,0,1,1.31,1.31,0,0,1-.81-.7c0-.41-.06-.82,0-1.23a1,1,0,0,0-.25-.81.22.22,0,0,1,0-.3.15.15,0,0,1,.09-.06.3.3,0,0,0,.21-.38.06.06,0,0,0,0,0,1.89,1.89,0,0,1,0-.82,4.27,4.27,0,0,0,0-1,5.52,5.52,0,0,1,.06-.81c0-.44-.06-.87,0-1.32,0-.29,0-.59,0-.89a5.68,5.68,0,0,1,0-1c0-.19,0-.34-.22-.4a.16.16,0,0,1-.13-.18h.14s.1.18.19.07.11-.19-.07-.24,0,0,0-.15a1.47,1.47,0,0,0,.09-.72.25.25,0,0,0-.26-.24l-.07,0c-.07,0-.16,0-.11-.09s-.09-.22.12-.18.27,0,.32-.13-.1-.2-.19-.27a.4.4,0,0,1,.05-.65.73.73,0,0,0,.16-.53,2,2,0,0,1-.07-.65A7.3,7.3,0,0,1,225.94,34.47Z"/><path class="cls-33" d="M229.85,31.9a.29.29,0,0,1,0,.08.05.05,0,0,1,0,.05h0v-.1Z"/><path class="cls-93" d="M219.7,48.52a13,13,0,0,0-1.3-.76c-.18-.11-.35-.25-.54-.37s-.17-.1-.2-.21c0-1,0-2-.06-2.93a.94.94,0,0,1,.26-.81.34.34,0,0,1,.28,0c.66.36,1.3.76,2,1.15.11.07.22.14.2.31v2.44a4.1,4.1,0,0,1-.11,1.35C220,48.73,219.86,48.54,219.7,48.52Z"/><path class="cls-13" d="M223.88,50.86l-1.14-.64a8,8,0,0,0-1-.57.56.56,0,0,1-.1-.33c.07-1,0-1.89,0-2.83a.62.62,0,0,1,.15-.49c.17-.14.31,0,.44.07a13.68,13.68,0,0,1,1.18.81l.47.38c.1.08.2.17.14.32a2.82,2.82,0,0,0,0,.82,20,20,0,0,0,0,2.05A.34.34,0,0,1,223.88,50.86Z"/><path class="cls-94" d="M221.9,46a.73.73,0,0,0-.15.49c0,.82,0,1.57.06,2.36,0,.27-.07.56-.06.82-.5-.33-1.07-.56-1.55-.92V45.06a.14.14,0,0,1,.1-.16c.09,0,.16,0,.25,0a12.91,12.91,0,0,1,1.14.71C221.77,45.73,221.93,45.78,221.9,46Z"/><path class="cls-54" d="M221.58,19.24c0,.08,0,.11-.08.11a.11.11,0,0,1-.07-.06c0-.06,0-.1.09-.13S221.55,19.23,221.58,19.24Z"/><path class="cls-95" d="M217.71,47.24l.15.16-.58-.22L217,47l.08-.07A.81.81,0,0,1,217.71,47.24Z"/><path class="cls-91" d="M214,50.07c.11,0,.22,0,.26.14a.06.06,0,0,1-.06.06A.25.25,0,0,1,214,50.07Z"/><path class="cls-15" d="M209.84,22.06a.86.86,0,0,1-.29-.28C209.77,21.75,209.87,21.83,209.84,22.06Z"/><path class="cls-29" d="M227.14,50.93c-.06,0-.19-.06-.15,0s-.13.44.21.46h.06c-.22.13.08.31,0,.44s-.39.24-.32.43a.65.65,0,0,1-.11.71A15.32,15.32,0,0,0,225,51.62v-.07c-.06-.82,0-1.69,0-2.53a.39.39,0,0,1,.2-.41.35.35,0,0,1,.26.09,9,9,0,0,1,1.71,2.12A.13.13,0,0,1,227.14,50.93Z"/><path class="cls-66" d="M224.75,53.19c-.21.09-.16.3-.36.31C224.46,53.42,224.26,53.1,224.75,53.19Z"/><path class="cls-96" d="M225.3,48.66c-.21.06-.21.25-.2.4,0,.74,0,1.48,0,2.22a.29.29,0,0,1-.1.28,8.19,8.19,0,0,1-1.13-.7.57.57,0,0,0,.06-.36c-.12-.82.11-1.69-.05-2.53,0-.14-.07-.33.13-.43a.48.48,0,0,1,.31.13,7.27,7.27,0,0,1,.81.74C225.25,48.45,225.34,48.54,225.3,48.66Z"/><path class="cls-65" d="M231.83,52.2c0-.19-.07-.39.07-.56C231.86,51.83,232,52,231.83,52.2Z"/><path class="cls-97" d="M211.39,43.17V38.72c0-.18-.23-.47.13-.59a.2.2,0,0,1,.19.12,9,9,0,0,0,2,2.31c.22.21.48.37.71.57s.22.18.17.35a1,1,0,0,0-.08.42c.06.94,0,1.89,0,2.83,0,.18,0,.39-.18.5A22.83,22.83,0,0,1,211.39,43.17Z"/><path class="cls-78" d="M214.37,45.19a.37.37,0,0,0,.07-.16c0-1.05,0-2.1,0-3.16a.54.54,0,0,1,.18-.52.24.24,0,0,1,.28.08c.42.31.88.56,1.31.86s1,.58,1.45.88c.12.07.29.11.29.31a1.54,1.54,0,0,0-.2,1.2,3.35,3.35,0,0,1,0,1c-.05.32.09.64.06,1a2.3,2.3,0,0,1-.07.58l-.65-.34A27.44,27.44,0,0,1,214.37,45.19Z"/><path class="cls-98" d="M213.67,40.57a9.22,9.22,0,0,1-2.13-2.48c-.12-.32-.24-.64-.37-1,0-.07-.06-.13,0-.18a7.07,7.07,0,0,0,1.51,1.89.66.66,0,0,0,.19.09,2.46,2.46,0,0,0,.92.71h0c.12,0,.18.16.28.21l.14.14a.52.52,0,0,1-.47.57Z"/><path class="cls-99" d="M220.48,45l-.21-.07c-.51-.41-1.1-.67-1.63-1l-.5-.32c.09-.22.31-.34.44-.54a2.11,2.11,0,0,0,.26-.52l1.36.7a3.68,3.68,0,0,0,.35.15c.32.23.65.44,1,.64.05.15-.06.23-.15.32a1.69,1.69,0,0,0-.45.51A.35.35,0,0,1,220.48,45Z"/><path class="cls-100" d="M218.84,42.49a.23.23,0,0,1,0,.31c-.21.27-.35.61-.69.75l-.21-.07c-.46-.35-1-.6-1.46-.91l-.31-.22c.27-.27.43-.66.81-.86l1.42.71Z"/><path class="cls-101" d="M216.93,41.49c-.26.29-.39.69-.81.86l-1.56-1-.92-.81a.86.86,0,0,0,.56-.57l1.14.64a9.64,9.64,0,0,0,1.35.71Z"/><path class="cls-81" d="M214.1,39.86a.34.34,0,0,1-.29-.21C214,39.54,214,39.77,214.1,39.86Z"/><path class="cls-81" d="M220.48,45c.42,0,.45-.47.73-.64a.66.66,0,0,0,.33-.35l1,.57,1,.7a5.45,5.45,0,0,1,.7.57c-.06.37,0,.81-.49,1-.12,0-.18.22-.35.18-.52-.31-.95-.73-1.49-1a5.78,5.78,0,0,0-1-.71A.88.88,0,0,1,220.48,45Z"/><path class="cls-94" d="M227.14,50.93v-.07a1.89,1.89,0,0,0,.77-.71.24.24,0,0,1,.23-.14l.35.56a9.84,9.84,0,0,1,.82,1.85c-.12,0-.24,0-.29.11-.12.28-.4.33-.64.45A14.7,14.7,0,0,0,227.14,50.93Z"/><path class="cls-29" d="M227.19,51.82a.24.24,0,0,1,.07.27C227.1,52,227.25,51.92,227.19,51.82Z"/><path class="cls-102" d="M223.39,47c.2-.09.27-.41.57-.32l0-.07c-.08-.31.22-.48.22-.75a6,6,0,0,1,.86.64l.81.71.57.63a.21.21,0,0,1-.09.26,5.29,5.29,0,0,1-.93.77.22.22,0,0,1-.14-.14A7.67,7.67,0,0,0,224,47.56Z"/><path class="cls-92" d="M224.84,42.85s.07.09.06.1a.24.24,0,0,1-.09.08l-.05-.06A.4.4,0,0,1,224.84,42.85Z"/><path class="cls-92" d="M224.65,41.32v-.06a.21.21,0,0,1,.11-.07m0,.06-.11.07Z"/><path class="cls-103" d="M225.44,48.8c.27-.39.74-.58,1-1a5.82,5.82,0,0,1,.86.93L228.1,50a4.5,4.5,0,0,1-.56.68.57.57,0,0,1-.43.17A11.85,11.85,0,0,0,225.44,48.8Z"/></g></g></g></g></svg>