<svg xmlns="http://www.w3.org/2000/svg" viewBox="0 0 35.43 35.43"><defs><style>.cls-1{fill:#442561;fill-rule:evenodd;}</style></defs><g id="Livello_2" data-name="Livello 2"><g id="Livello_1-2" data-name="Livello 1"><g id="Untitled"><path class="cls-1" d="M0,7.09A7.08,7.08,0,0,1,7.09,0H28.35a7.08,7.08,0,0,1,7.08,7.09V28.35a7.08,7.08,0,0,1-7.08,7.08H7.09A7.08,7.08,0,0,1,0,28.35ZM7.09,3.54A3.55,3.55,0,0,0,3.54,7.09V28.35a3.55,3.55,0,0,0,3.55,3.54H28.35a3.55,3.55,0,0,0,3.54-3.54V7.09a3.55,3.55,0,0,0-3.54-3.55ZM17.72,12.4A5.32,5.32,0,1,0,23,17.72,5.32,5.32,0,0,0,17.72,12.4ZM8.86,17.72a8.86,8.86,0,1,1,8.86,8.85A8.85,8.85,0,0,1,8.86,17.72Zm18.6-7.09A2.66,2.66,0,1,0,24.8,8,2.66,2.66,0,0,0,27.46,10.63Z"/></g></g></g></svg>