<?xml version="1.0" encoding="UTF-8" standalone="no"?>
<!DOCTYPE svg PUBLIC "-//W3C//DTD SVG 1.1//EN" "http://www.w3.org/Graphics/SVG/1.1/DTD/svg11.dtd">
<!-- Created with Vectornator (http://vectornator.io/) -->
<svg height="100%" stroke-miterlimit="10" style="fill-rule:nonzero;clip-rule:evenodd;stroke-linecap:round;stroke-linejoin:round;" version="1.1" viewBox="0 0 640 640" width="100%" xml:space="preserve" xmlns="http://www.w3.org/2000/svg" xmlns:vectornator="http://vectornator.io" xmlns:xlink="http://www.w3.org/1999/xlink">
<defs/>
<g id="Untitled" vectornator:layerName="Untitled">
<path d="M53.3333 160C53.3333 101.09 101.09 53.3333 160 53.3333L480 53.3333C538.909 53.3333 586.667 101.09 586.667 160L586.667 480C586.667 538.909 538.909 586.667 480 586.667L160 586.667C101.09 586.667 53.3333 538.909 53.3333 480L53.3333 160ZM160 106.667C130.545 106.667 106.667 130.545 106.667 160L106.667 480C106.667 509.456 130.545 533.333 160 533.333L480 533.333C509.456 533.333 533.333 509.456 533.333 480L533.333 160C533.333 130.545 509.456 106.667 480 106.667L160 106.667ZM320 240C275.816 240 240 275.816 240 320C240 364.184 275.816 400 320 400C364.184 400 400 364.184 400 320C400 275.816 364.184 240 320 240ZM186.667 320C186.667 246.362 246.362 186.667 320 186.667C393.637 186.667 453.333 246.362 453.333 320C453.333 393.637 393.637 453.333 320 453.333C246.362 453.333 186.667 393.637 186.667 320ZM466.667 213.333C488.757 213.333 506.667 195.425 506.667 173.333C506.667 151.242 488.757 133.333 466.667 133.333C444.576 133.333 426.667 151.242 426.667 173.333C426.667 195.425 444.576 213.333 466.667 213.333Z" fill="#ffffff" fill-rule="evenodd" opacity="1" stroke="none" vectornator:layerName="path"/>
</g>
</svg>
