<?xml version="1.0" encoding="UTF-8"?>
<svg id="Layer_2" data-name="Layer 2" xmlns="http://www.w3.org/2000/svg" viewBox="0 0 208 208">
  <defs>
    <style>
      .cls-1 {
        fill: #000;
        stroke-width: 0px;
      }
    </style>
  </defs>
  <g id="Layer_1-2" data-name="Layer 1">
    <path class="cls-1" d="M169,0H39C17.47,0,0,17.47,0,39v130c0,21.53,17.47,39,39,39h130c21.53,0,39-17.47,39-39V39c0-21.53-17.47-39-39-39ZM107.33,150.63h-59.46V57.37h16.68v78.65h42.78v14.61ZM165.3,94.34c-1.23-.46-5.62-.91-8.14-.91-10.27,0-17.52,6.47-17.52,16.35v40.84h-16.02v-70.71h15.45v10.99h1.09c1.94-6.98,9.51-12.15,18.55-12.15,2.26,0,5.04.25,6.59.71v14.88Z"/>
  </g>
</svg>