<?xml version="1.0" encoding="UTF-8" standalone="no"?>
<!DOCTYPE svg PUBLIC "-//W3C//DTD SVG 1.1//EN" "http://www.w3.org/Graphics/SVG/1.1/DTD/svg11.dtd">
<!-- Created with Vectornator (http://vectornator.io/) -->
<svg height="100%" stroke-miterlimit="10" style="fill-rule:nonzero;clip-rule:evenodd;stroke-linecap:round;stroke-linejoin:round;" version="1.1" viewBox="0 0 640 640" width="100%" xml:space="preserve" xmlns="http://www.w3.org/2000/svg" xmlns:vectornator="http://vectornator.io" xmlns:xlink="http://www.w3.org/1999/xlink">
<defs/>
<g id="Untitled" vectornator:layerName="Untitled">
<path d="M499.2 106.666L143.2 106.666C138.611 106.451 134.025 107.143 129.705 108.703C125.384 110.262 121.413 112.659 118.019 115.755C114.626 118.851 111.877 122.586 109.929 126.746C107.981 130.907 106.872 135.41 106.667 139.999L106.667 496.8C106.935 506.403 110.871 515.541 117.665 522.333C124.459 529.128 133.596 533.064 143.2 533.333L499.2 533.333C508.536 532.917 517.339 528.859 523.72 522.029C530.101 515.2 533.552 506.144 533.333 496.8L533.333 139.999C533.411 135.533 532.573 131.098 530.875 126.966C529.176 122.834 526.651 119.093 523.453 115.972C520.259 112.851 516.459 110.416 512.288 108.815C508.117 107.215 503.664 106.484 499.2 106.666ZM240 462.4L177.867 462.4L177.867 272.267L240 272.267L240 462.4ZM210.4 243.466C206.064 243.617 201.744 242.87 197.711 241.271C193.678 239.673 190.018 237.258 186.963 234.178C183.908 231.097 181.523 227.419 179.958 223.373C178.392 219.326 177.68 215 177.867 210.666C177.675 206.285 178.401 201.912 179.999 197.828C181.596 193.743 184.03 190.038 187.143 186.95C190.257 183.862 193.981 181.458 198.078 179.894C202.175 178.329 206.554 177.639 210.933 177.866C215.269 177.715 219.589 178.462 223.622 180.06C227.656 181.659 231.315 184.074 234.37 187.154C237.425 190.234 239.81 193.913 241.376 197.959C242.941 202.005 243.653 206.331 243.467 210.666C243.658 215.047 242.932 219.42 241.335 223.504C239.737 227.588 237.303 231.293 234.19 234.382C231.077 237.47 227.352 239.874 223.255 241.438C219.158 243.002 214.779 243.693 210.4 243.466ZM462.4 462.4L400 462.4L400 358.4C400 333.6 391.2 316.533 369.067 316.533C362.192 316.592 355.501 318.776 349.917 322.787C344.331 326.797 340.123 332.437 337.867 338.933C336.133 343.803 335.408 348.973 335.733 354.133L335.733 462.4L274.4 462.4L274.4 272.267L335.733 272.267L335.733 298.933C341.187 288.915 349.301 280.6 359.184 274.904C369.067 269.211 380.331 266.359 391.733 266.666C432 266.666 462.4 293.333 462.4 350.133L462.4 462.4Z" fill="#ffffff" fill-rule="nonzero" opacity="1" stroke="none" vectornator:layerName="path"/>
</g>
</svg>
