<svg xmlns="http://www.w3.org/2000/svg" viewBox="0 0 22.62 22.62"><defs><style>.cls-1{fill:#161616;}</style></defs><g id="Livello_2" data-name="Livello 2"><g id="Livello_1-2" data-name="Livello 1"><path class="cls-1" d="M11.31,0A11.31,11.31,0,1,0,22.62,11.31,11.31,11.31,0,0,0,11.31,0Zm7.85,11.25a1.22,1.22,0,0,1-.13.47,1.16,1.16,0,0,1-.29.37l-6.65,5.69a1.21,1.21,0,0,1-1.7-.13,1.21,1.21,0,0,1,.13-1.7l4.18-3.57h-10a1.2,1.2,0,1,1,0-2.4h9.91l-4-3.29A1.2,1.2,0,0,1,10.37,5a1.22,1.22,0,0,1,1.7-.17l6.62,5.39a1.23,1.23,0,0,1,.47,1Z"/></g></g></svg>