<?xml version="1.0" encoding="UTF-8" standalone="no"?>
<!DOCTYPE svg PUBLIC "-//W3C//DTD SVG 1.1//EN" "http://www.w3.org/Graphics/SVG/1.1/DTD/svg11.dtd">
<!-- Created with Vectornator (http://vectornator.io/) -->
<svg height="100%" stroke-miterlimit="10" style="fill-rule:nonzero;clip-rule:evenodd;stroke-linecap:round;stroke-linejoin:round;" version="1.1" viewBox="120.903 437.903 218.822 78.3444" width="100%" xml:space="preserve" xmlns="http://www.w3.org/2000/svg" xmlns:vectornator="http://vectornator.io" xmlns:xlink="http://www.w3.org/1999/xlink">
<defs/>
<g id="Layer-1" vectornator:layerName="Layer 1">
<path d="M159.445 485.666L140.203 485.666C140.395 487.804 140.957 489.76 141.892 491.536C142.828 493.311 144.107 494.848 145.729 496.146C147.353 497.445 149.271 498.437 151.485 499.124C153.7 499.812 156.162 500.155 158.873 500.155C161.965 500.155 164.8 499.554 167.377 498.351C169.954 497.149 172.179 495.478 174.049 493.34C175.92 491.202 177.361 488.74 178.373 485.952C179.385 483.166 179.891 480.188 179.891 477.018C179.891 473.888 179.385 470.919 178.373 468.113C177.361 465.307 175.92 462.844 174.049 460.725C172.179 458.606 169.954 456.936 167.377 455.714C164.8 454.492 161.965 453.881 158.873 453.881C154.444 453.881 150.884 454.779 148.192 456.573C145.5 458.368 143.373 460.467 141.807 462.872L125.542 455.198C126.765 453.251 128.291 451.257 130.123 449.214C131.956 447.172 134.19 445.291 136.824 443.573C139.459 441.855 142.599 440.48 146.245 439.45C149.891 438.419 154.101 437.903 158.873 437.903C164.714 437.903 170.012 438.905 174.765 440.91C179.518 442.914 183.613 445.702 187.049 449.271C190.485 452.842 193.12 457.003 194.952 461.756C196.785 466.509 197.701 471.597 197.701 477.018C197.701 482.479 196.785 487.584 194.952 492.337C193.12 497.091 190.485 501.263 187.049 504.851C183.613 508.441 179.518 511.237 174.765 513.241C170.012 515.245 164.714 516.247 158.873 516.247C153.223 516.247 148.068 515.254 143.41 513.27C138.753 511.285 134.744 508.516 131.383 504.965C128.024 501.415 125.437 497.291 123.624 492.595C121.811 487.899 120.903 482.841 120.903 477.419L120.903 472.609L159.445 472.609L159.445 485.666Z" fill="#000000" fill-rule="nonzero" opacity="1" stroke="none" vectornator:layerName="path"/>
<path d="M208.123 467.855L225.533 467.855L225.533 514.873L208.123 514.873L208.123 467.855ZM217.057 458.176C214.308 458.176 211.979 457.213 210.07 455.284C208.16 453.357 207.207 451.056 207.207 448.384C207.207 445.711 208.17 443.392 210.099 441.426C212.026 439.459 214.345 438.476 217.057 438.476C218.851 438.476 220.493 438.925 221.982 439.822C223.471 440.719 224.674 441.912 225.59 443.401C226.506 444.89 226.964 446.551 226.964 448.384C226.964 451.056 225.991 453.357 224.044 455.284C222.097 457.213 219.767 458.176 217.057 458.176" fill="#000000" fill-rule="nonzero" opacity="1" stroke="none" vectornator:layerName="path 1"/>
<path d="M322.315 467.855L339.725 467.855L339.725 514.873L322.315 514.873L322.315 467.855Z" fill="#000000" fill-rule="nonzero" opacity="1" stroke="none" vectornator:layerName="path 2"/>
<path d="M282.317 454.775C276.491 453.046 268.787 454.493 266.21 455.714C263.632 456.936 261.408 458.607 259.538 460.725C257.667 462.845 256.225 465.307 255.214 468.114C254.202 470.919 253.696 473.889 253.696 477.019C253.696 480.188 254.202 483.166 255.214 485.953C256.225 488.74 257.667 491.203 259.538 493.341C261.408 495.479 263.632 497.149 266.21 498.352C268.787 499.554 271.621 500.155 274.714 500.155C277.425 500.155 279.887 499.812 282.102 499.124C284.316 498.437 286.234 497.445 287.857 496.146C289.48 494.849 290.759 493.312 291.695 491.536C292.63 489.761 293.192 487.805 293.384 485.667L274.142 485.667L274.142 472.609L312.684 472.609L312.684 477.42C312.684 482.841 311.776 487.899 309.963 492.596C308.149 497.292 305.562 501.415 302.204 504.966C298.843 508.517 294.834 511.285 290.177 513.271C285.519 515.255 280.364 516.248 274.714 516.248C268.873 516.248 263.575 515.246 258.822 513.242C254.068 511.238 249.974 508.441 246.538 504.851C243.101 501.263 240.467 497.091 238.635 492.338C236.802 487.585 235.886 482.479 235.886 477.019C235.886 471.598 236.802 466.51 238.635 461.756C240.467 457.003 243.101 452.842 246.538 449.272C249.974 445.702 254.068 442.915 258.822 440.911C263.575 438.906 268.873 437.904 274.714 437.904C279.486 437.904 284.688 439.261 288.335 440.292L282.317 454.775Z" fill="#000000" fill-rule="nonzero" opacity="1" stroke="none" vectornator:layerName="path 3"/>
<path d="M306.613 459.89C303.865 459.89 301.535 458.926 299.626 456.998C297.717 455.071 296.763 452.77 296.763 450.097C296.763 447.425 297.727 445.106 299.655 443.139C301.582 441.173 303.901 440.19 306.613 440.19C308.407 440.19 310.049 440.639 311.538 441.536C313.027 442.433 314.23 443.626 315.147 445.114C316.062 446.604 316.521 448.265 316.521 450.097C316.521 452.77 315.547 455.071 313.6 456.998C311.653 458.926 309.324 459.89 306.613 459.89" fill="#e10d19" fill-rule="nonzero" opacity="1" stroke="none" vectornator:layerName="path 4"/>
</g>
</svg>
