<?xml version="1.0" encoding="UTF-8" standalone="no"?>
<!DOCTYPE svg PUBLIC "-//W3C//DTD SVG 1.1//EN" "http://www.w3.org/Graphics/SVG/1.1/DTD/svg11.dtd">
<!-- Created with Vectornator (http://vectornator.io/) -->
<svg height="100%" stroke-miterlimit="10" style="fill-rule:nonzero;clip-rule:evenodd;stroke-linecap:round;stroke-linejoin:round;" version="1.1" viewBox="0 0 841.89 595.276" width="100%" xml:space="preserve" xmlns="http://www.w3.org/2000/svg" xmlns:vectornator="http://vectornator.io" xmlns:xlink="http://www.w3.org/1999/xlink">
<defs/>
<clipPath id="ArtboardFrame">
<rect height="595.276" width="841.89" x="0" y="0"/>
</clipPath>
<g clip-path="url(#ArtboardFrame)" id="Untitled" vectornator:layerName="Untitled">
<g opacity="1" vectornator:layerName="Livello 1">
<g opacity="1" vectornator:layerName="path">
<clipPath clip-rule="nonzero" id="ClipPath">
<path d="M1.32673e-05-82.1816L841.89-82.1816L841.89 513.094L1.32673e-05 513.094L1.32673e-05-82.1816Z"/>
</clipPath>
<g clip-path="url(#ClipPath)">
<path d="M402.607 98.724L402.607 278.634L70.857 278.634L70.857 98.724C70.857 76.984 88.487 59.364 110.227 59.364L363.247 59.364C384.987 59.364 402.607 76.984 402.607 98.724" fill="#f4a6a6" fill-rule="nonzero" opacity="1" stroke="none" vectornator:layerName="path"/>
<path d="M746.418 354.628L493.391 354.628C471.652 354.628 454.029 337.005 454.029 315.266L454.029 98.725C454.029 76.986 471.652 59.363 493.391 59.363L746.418 59.363C768.157 59.363 785.78 76.986 785.78 98.725L785.78 315.266C785.78 337.005 768.157 354.628 746.418 354.628" fill="#f4a6a6" fill-rule="nonzero" opacity="1" stroke="none" vectornator:layerName="path"/>
<path d="M246.034 105.989C240.754 104.423 233.772 105.733 231.437 106.84C229.1 107.948 227.085 109.462 225.39 111.382C223.694 113.302 222.388 115.534 221.471 118.077C220.554 120.62 220.096 123.311 220.096 126.148C220.096 129.021 220.554 131.72 221.471 134.245C222.388 136.771 223.694 139.003 225.39 140.94C227.085 142.878 229.1 144.392 231.437 145.482C233.772 146.572 236.341 147.116 239.143 147.116C241.6 147.116 243.832 146.805 245.839 146.182C247.846 145.559 249.584 144.66 251.055 143.483C252.526 142.307 253.684 140.914 254.533 139.305C255.38 137.696 255.89 135.923 256.064 133.985L238.625 133.985L238.625 122.152L273.555 122.152L273.555 126.511C273.555 131.425 272.732 136.009 271.089 140.265C269.445 144.521 267.101 148.258 264.057 151.476C261.011 154.694 257.378 157.203 253.158 159.002C248.936 160.8 244.264 161.701 239.143 161.701C233.85 161.701 229.049 160.792 224.741 158.976C220.433 157.16 216.722 154.626 213.608 151.372C210.494 148.12 208.107 144.339 206.446 140.031C204.785 135.724 203.954 131.097 203.954 126.148C203.954 121.235 204.785 116.624 206.446 112.316C208.107 108.008 210.494 104.237 213.608 101.002C216.722 97.7669 220.433 95.2399 224.741 93.4239C229.049 91.6069 233.85 90.6989 239.143 90.6989C243.468 90.6989 248.183 91.9289 251.488 92.8639L246.034 105.989Z" fill="#1d1d1b" fill-rule="nonzero" opacity="1" stroke="none" vectornator:layerName="path"/>
<path d="M268.053 110.625C265.562 110.625 263.451 109.752 261.721 108.004C259.99 106.257 259.126 104.172 259.126 101.75C259.126 99.3284 260 97.2264 261.747 95.4444C263.494 93.6624 265.596 92.7714 268.053 92.7714C269.679 92.7714 271.167 93.1784 272.516 93.9914C273.866 94.8044 274.956 95.8854 275.787 97.2344C276.617 98.5844 277.032 100.089 277.032 101.75C277.032 104.172 276.15 106.257 274.385 108.004C272.621 109.752 270.51 110.625 268.053 110.625" fill="#e10d19" fill-rule="nonzero" opacity="1" stroke="none" vectornator:layerName="path"/>
<path d="M174.007 188.09L189.488 188.09L189.488 190.026C189.488 192.2 189.124 194.233 188.394 196.121C187.666 198.008 186.628 199.663 185.279 201.089C183.93 202.516 182.319 203.627 180.448 204.423C178.578 205.224 176.506 205.621 174.237 205.621C171.891 205.621 169.764 205.219 167.854 204.413C165.945 203.608 164.3 202.487 162.919 201.041C161.539 199.6 160.481 197.926 159.746 196.019C159.008 194.107 158.642 192.054 158.642 189.866C158.642 187.687 159.008 185.644 159.746 183.733C160.481 181.826 161.539 180.152 162.919 178.72C164.3 177.284 165.945 176.168 167.854 175.362C169.764 174.557 171.891 174.154 174.237 174.154C176.154 174.154 177.845 174.358 179.308 174.775C180.774 175.188 182.035 175.741 183.093 176.43C184.151 177.119 185.048 177.876 185.784 178.696C186.521 179.516 187.133 180.317 187.625 181.098L181.091 184.184C180.463 183.213 179.609 182.374 178.527 181.651C177.445 180.933 176.016 180.569 174.237 180.569C172.995 180.569 171.857 180.816 170.821 181.306C169.785 181.797 168.893 182.466 168.141 183.32C167.391 184.169 166.811 185.159 166.406 186.285C165.998 187.416 165.794 188.604 165.794 189.866C165.794 191.137 165.998 192.331 166.406 193.452C166.811 194.573 167.391 195.563 168.141 196.421C168.893 197.28 169.785 197.95 170.821 198.43C171.857 198.916 172.995 199.158 174.237 199.158C175.327 199.158 176.314 199.017 177.205 198.741C178.093 198.464 178.864 198.066 179.517 197.547C180.167 197.023 180.681 196.407 181.057 195.694C181.433 194.98 181.659 194.194 181.737 193.335L174.007 193.335L174.007 188.09Z" fill="#1d1d1b" fill-rule="nonzero" opacity="1" stroke="none" vectornator:layerName="path"/>
<path d="M199.839 205.069L192.847 205.069L192.847 186.184L199.839 186.184L199.839 189.105L199.725 189.105C199.846 188.751 200.147 188.304 200.62 187.761C201.096 187.217 201.763 186.722 202.622 186.286C203.481 185.849 204.531 185.631 205.773 185.631C206.649 185.631 207.452 185.766 208.19 186.033C208.925 186.305 209.461 186.562 209.798 186.805L207.086 192.487C206.87 192.225 206.492 191.953 205.946 191.672C205.402 191.385 204.723 191.245 203.91 191.245C202.976 191.245 202.205 191.483 201.598 191.958C200.994 192.434 200.547 193.006 200.266 193.681C199.982 194.36 199.839 194.996 199.839 195.592L199.839 205.069Z" fill="#1d1d1b" fill-rule="nonzero" opacity="1" stroke="none" vectornator:layerName="path"/>
<path d="M217.503 195.636C217.503 196.495 217.702 197.266 218.102 197.951C218.5 198.63 219.034 199.164 219.701 199.547C220.368 199.93 221.106 200.124 221.919 200.124C222.763 200.124 223.508 199.93 224.151 199.547C224.796 199.164 225.306 198.63 225.682 197.951C226.055 197.266 226.244 196.495 226.244 195.636C226.244 194.777 226.055 194.01 225.682 193.326C225.306 192.642 224.796 192.108 224.151 191.715C223.508 191.327 222.763 191.128 221.919 191.128C221.106 191.128 220.368 191.327 219.701 191.715C219.034 192.108 218.5 192.642 218.102 193.326C217.702 194.01 217.503 194.777 217.503 195.636M226.337 205.069L226.337 202.012C226.198 202.318 225.849 202.759 225.289 203.342C224.731 203.929 223.991 204.453 223.071 204.919C222.149 205.389 221.077 205.622 219.849 205.622C218.01 205.622 216.399 205.171 215.019 204.273C213.638 203.38 212.566 202.177 211.799 200.663C211.032 199.154 210.649 197.48 210.649 195.636C210.649 193.797 211.032 192.123 211.799 190.614C212.566 189.1 213.638 187.892 215.019 186.989C216.399 186.087 218.01 185.631 219.849 185.631C221.031 185.631 222.064 185.82 222.955 186.193C223.845 186.572 224.566 187.018 225.116 187.528C225.669 188.042 226.053 188.513 226.266 188.945L226.266 186.184L233.215 186.184L233.215 205.069L226.337 205.069Z" fill="#1d1d1b" fill-rule="nonzero" opacity="1" stroke="none" vectornator:layerName="path"/>
<path d="M253.34 195.636C253.34 194.777 253.148 194.01 252.765 193.326C252.382 192.642 251.865 192.108 251.212 191.715C250.562 191.327 249.829 191.128 249.017 191.128C248.172 191.128 247.418 191.327 246.751 191.715C246.083 192.108 245.559 192.642 245.176 193.326C244.793 194.01 244.601 194.777 244.601 195.636C244.601 196.495 244.793 197.266 245.176 197.951C245.559 198.63 246.083 199.164 246.751 199.547C247.418 199.93 248.172 200.124 249.017 200.124C249.829 200.124 250.562 199.93 251.212 199.547C251.865 199.164 252.382 198.63 252.765 197.951C253.148 197.266 253.34 196.495 253.34 195.636M244.531 214.638L237.606 214.638L237.606 186.184L244.601 186.184L244.601 188.945C244.814 188.513 245.224 188.042 245.831 187.528C246.438 187.018 247.212 186.572 248.155 186.193C249.097 185.82 250.167 185.631 251.363 185.631C253.204 185.631 254.779 186.087 256.089 186.989C257.401 187.892 258.408 189.1 259.114 190.614C259.82 192.123 260.172 193.797 260.172 195.636C260.172 197.48 259.796 199.154 259.046 200.663C258.294 202.177 257.241 203.38 255.883 204.273C254.526 205.171 252.928 205.622 251.086 205.622C249.769 205.622 248.645 205.389 247.716 204.919C246.789 204.453 246.062 203.929 245.533 203.356C245.004 202.779 244.669 202.332 244.531 202.012L244.531 214.638Z" fill="#1d1d1b" fill-rule="nonzero" opacity="1" stroke="none" vectornator:layerName="path"/>
<path d="M276.852 185.63C278.169 185.63 279.458 185.902 280.714 186.435C281.974 186.974 283.007 187.818 283.82 188.978C284.633 190.138 285.04 191.657 285.04 193.544L285.04 205.068L278.048 205.068L278.048 194.694C278.048 193.345 277.745 192.331 277.138 191.647C276.532 190.963 275.709 190.623 274.666 190.623C273.975 190.623 273.317 190.803 272.689 191.162C272.058 191.526 271.548 192.03 271.158 192.68C270.767 193.335 270.571 194.083 270.571 194.922L270.571 205.068L263.557 205.068L263.557 173.417L270.571 173.417L270.571 188.968C270.74 188.459 271.119 187.949 271.711 187.435C272.301 186.926 273.043 186.494 273.941 186.149C274.838 185.805 275.809 185.63 276.852 185.63" fill="#1d1d1b" fill-rule="nonzero" opacity="1" stroke="none" vectornator:layerName="path"/>
<path d="M289.408 186.183L296.4 186.183L296.4 205.068L289.408 205.068L289.408 186.183ZM292.996 182.296C291.892 182.296 290.958 181.908 290.191 181.132C289.422 180.36 289.041 179.433 289.041 178.361C289.041 177.289 289.427 176.357 290.201 175.566C290.975 174.78 291.906 174.382 292.996 174.382C293.716 174.382 294.376 174.562 294.976 174.926C295.572 175.285 296.055 175.765 296.424 176.362C296.793 176.959 296.975 177.628 296.975 178.361C296.975 179.433 296.584 180.36 295.803 181.132C295.022 181.908 294.085 182.296 292.996 182.296" fill="#1d1d1b" fill-rule="nonzero" opacity="1" stroke="none" vectornator:layerName="path"/>
<path d="M311.466 200.124C312.342 200.124 313.062 199.974 313.63 199.673C314.195 199.377 314.581 199.134 314.78 198.95L317.978 203.69C317.73 203.889 317.311 204.147 316.711 204.457C316.115 204.773 315.367 205.044 314.47 205.277C313.572 205.505 312.548 205.622 311.398 205.622C309.236 205.622 307.334 205.209 305.694 204.389C304.052 203.569 302.776 202.409 301.863 200.905C300.951 199.401 300.495 197.64 300.495 195.616C300.495 193.573 300.951 191.812 301.863 190.322C302.776 188.838 304.052 187.683 305.694 186.863C307.334 186.043 309.236 185.63 311.398 185.63C312.534 185.63 313.55 185.751 314.445 185.989C315.343 186.227 316.098 186.494 316.711 186.795C317.325 187.091 317.755 187.348 318 187.561L314.734 192.346C314.625 192.239 314.431 192.089 314.147 191.89C313.863 191.691 313.499 191.511 313.055 191.361C312.609 191.205 312.08 191.128 311.466 191.128C310.716 191.128 310.015 191.322 309.363 191.705C308.71 192.089 308.186 192.617 307.788 193.292C307.388 193.966 307.189 194.743 307.189 195.616C307.189 196.49 307.388 197.266 307.788 197.95C308.186 198.629 308.71 199.163 309.363 199.547C310.015 199.93 310.716 200.124 311.466 200.124" fill="#1d1d1b" fill-rule="nonzero" opacity="1" stroke="none" vectornator:layerName="path"/>
<path d="M168.852 235.982C169.635 235.982 170.335 235.802 170.954 235.446C171.573 235.091 172.061 234.596 172.417 233.966C172.772 233.331 172.95 232.615 172.95 231.819C172.95 231.022 172.772 230.311 172.417 229.676C172.061 229.042 171.573 228.547 170.954 228.182C170.335 227.822 169.635 227.638 168.852 227.638C168.098 227.638 167.421 227.822 166.815 228.182C166.21 228.547 165.735 229.042 165.386 229.676C165.038 230.311 164.864 231.022 164.864 231.819C164.864 232.615 165.038 233.331 165.386 233.966C165.735 234.596 166.21 235.091 166.815 235.446C167.421 235.802 168.098 235.982 168.852 235.982M166.869 241.081C165.175 241.081 163.703 240.663 162.452 239.83C161.201 239.002 160.231 237.886 159.54 236.482C158.849 235.082 158.505 233.529 158.505 231.819C158.505 230.113 158.849 228.56 159.54 227.161C160.231 225.756 161.201 224.636 162.452 223.798C163.703 222.961 165.175 222.538 166.869 222.538C167.992 222.538 168.987 222.714 169.856 223.06C170.724 223.411 171.426 223.825 171.969 224.298C172.509 224.775 172.835 225.212 172.95 225.612L172.95 211.21L179.436 211.21L179.436 240.568L173.013 240.568L173.013 237.733C172.743 238.255 172.302 238.781 171.69 239.299C171.08 239.817 170.36 240.244 169.536 240.577C168.71 240.915 167.821 241.081 166.869 241.081" fill="#1d1d1b" fill-rule="nonzero" opacity="1" stroke="none" vectornator:layerName="path"/>
<path d="M194.987 229.793C194.973 229.338 194.852 228.884 194.625 228.429C194.397 227.975 194.055 227.601 193.601 227.309C193.146 227.016 192.563 226.872 191.852 226.872C191.125 226.872 190.522 227.012 190.038 227.295C189.555 227.583 189.186 227.943 188.929 228.384C188.672 228.825 188.524 229.293 188.481 229.793L194.987 229.793ZM188.353 233.187C188.396 233.812 188.594 234.37 188.949 234.861C189.305 235.351 189.795 235.734 190.421 236.004C191.049 236.274 191.8 236.409 192.683 236.409C193.508 236.409 194.251 236.324 194.913 236.162C195.574 236 196.15 235.784 196.641 235.522C197.132 235.257 197.512 234.991 197.782 234.721L200.3 238.731C199.931 239.119 199.425 239.488 198.786 239.843C198.147 240.199 197.298 240.491 196.247 240.73C195.194 240.964 193.864 241.081 192.257 241.081C190.308 241.081 188.58 240.716 187.072 239.992C185.565 239.267 184.383 238.2 183.53 236.792C182.677 235.383 182.25 233.655 182.25 231.607C182.25 229.901 182.621 228.362 183.359 226.998C184.1 225.634 185.18 224.55 186.602 223.744C188.024 222.943 189.739 222.538 191.744 222.538C193.65 222.538 195.304 222.889 196.706 223.586C198.106 224.28 199.184 225.315 199.938 226.687C200.692 228.06 201.07 229.771 201.07 231.818L201.07 232.493C201.07 232.84 201.054 233.074 201.027 233.187L188.353 233.187Z" fill="#1d1d1b" fill-rule="nonzero" opacity="1" stroke="none" vectornator:layerName="path"/>
<path d="M212.291 222.538C213.443 222.538 214.496 222.637 215.451 222.826C216.402 223.02 217.204 223.236 217.849 223.479C218.498 223.722 218.914 223.92 219.098 224.077L216.985 227.894C216.715 227.696 216.213 227.439 215.482 227.124C214.748 226.814 213.934 226.656 213.038 226.656C212.356 226.656 211.78 226.76 211.31 226.967C210.842 227.174 210.605 227.498 210.605 227.939C210.605 228.38 210.867 228.731 211.384 228.992C211.904 229.258 212.656 229.487 213.637 229.685C214.49 229.856 215.356 230.126 216.238 230.495C217.12 230.869 217.856 231.413 218.448 232.129C219.038 232.849 219.332 233.803 219.332 235.001C219.332 236.225 219.069 237.233 218.543 238.03C218.016 238.826 217.321 239.443 216.452 239.884C215.586 240.325 214.645 240.636 213.637 240.816C212.626 240.991 211.645 241.081 210.691 241.081C209.354 241.081 208.191 240.96 207.203 240.717C206.215 240.473 205.414 240.199 204.804 239.884C204.192 239.573 203.764 239.321 203.524 239.137L205.614 234.87C205.983 235.185 206.589 235.536 207.428 235.928C208.267 236.319 209.156 236.513 210.095 236.513C211.004 236.513 211.708 236.378 212.208 236.108C212.705 235.838 212.953 235.482 212.953 235.041C212.953 234.686 212.833 234.402 212.59 234.19C212.35 233.974 212.007 233.79 211.566 233.632C211.125 233.479 210.592 233.335 209.966 233.209C209.397 233.092 208.794 232.917 208.153 232.674C207.513 232.431 206.908 232.102 206.339 231.684C205.769 231.26 205.308 230.734 204.953 230.09C204.597 229.451 204.419 228.677 204.419 227.768C204.419 226.602 204.795 225.635 205.549 224.865C206.303 224.095 207.277 223.519 208.472 223.128C209.667 222.736 210.941 222.538 212.291 222.538" fill="#1d1d1b" fill-rule="nonzero" opacity="1" stroke="none" vectornator:layerName="path"/>
<path d="M223.002 223.051L229.488 223.051L229.488 240.568L223.002 240.568L223.002 223.051ZM226.331 219.446C225.307 219.446 224.44 219.086 223.729 218.365C223.016 217.65 222.662 216.79 222.662 215.796C222.662 214.801 223.02 213.937 223.738 213.203C224.456 212.474 225.32 212.105 226.331 212.105C226.999 212.105 227.611 212.271 228.167 212.609C228.72 212.942 229.168 213.388 229.51 213.941C229.852 214.495 230.021 215.116 230.021 215.796C230.021 216.79 229.659 217.65 228.934 218.365C228.21 219.086 227.341 219.446 226.331 219.446" fill="#1d1d1b" fill-rule="nonzero" opacity="1" stroke="none" vectornator:layerName="path"/>
<path d="M239.365 231.819C239.365 232.616 239.55 233.331 239.921 233.966C240.29 234.596 240.785 235.091 241.404 235.447C242.023 235.802 242.707 235.982 243.461 235.982C244.244 235.982 244.935 235.802 245.531 235.447C246.13 235.091 246.602 234.596 246.951 233.966C247.298 233.331 247.473 232.616 247.473 231.819C247.473 231.022 247.298 230.311 246.951 229.677C246.602 229.042 246.13 228.547 245.531 228.182C244.935 227.822 244.244 227.638 243.461 227.638C242.707 227.638 242.023 227.822 241.404 228.182C240.785 228.547 240.29 229.042 239.921 229.677C239.55 230.311 239.365 231.022 239.365 231.819M243.164 249.935C241.939 249.935 240.726 249.827 239.525 249.615C238.323 249.403 237.202 249.039 236.165 248.526C235.125 248.013 234.252 247.311 233.541 246.415L237.337 242.468C237.666 242.85 238.067 243.228 238.544 243.597C239.021 243.967 239.61 244.273 240.315 244.516C241.019 244.759 241.876 244.88 242.885 244.88C243.825 244.88 244.642 244.714 245.34 244.39C246.035 244.061 246.58 243.584 246.971 242.958C247.363 242.333 247.559 241.572 247.559 240.676L247.559 240.249L253.938 240.249L253.938 241.059C253.938 242.994 253.457 244.624 252.498 245.947C251.537 247.27 250.246 248.265 248.625 248.931C247.003 249.601 245.182 249.935 243.164 249.935M247.559 240.568L247.559 237.733C247.43 238.017 247.106 238.426 246.586 238.966C246.069 239.511 245.383 239.997 244.53 240.429C243.674 240.866 242.68 241.082 241.541 241.082C239.835 241.082 238.341 240.663 237.061 239.83C235.78 239.002 234.785 237.886 234.074 236.482C233.363 235.082 233.008 233.529 233.008 231.819C233.008 230.113 233.363 228.56 234.074 227.161C234.785 225.757 235.78 224.636 237.061 223.799C238.341 222.962 239.835 222.538 241.541 222.538C242.637 222.538 243.596 222.714 244.422 223.061C245.247 223.412 245.916 223.826 246.427 224.298C246.94 224.775 247.295 225.212 247.493 225.612L247.493 223.052L253.938 223.052L253.938 240.568L247.559 240.568Z" fill="#1d1d1b" fill-rule="nonzero" opacity="1" stroke="none" vectornator:layerName="path"/>
<path d="M270.152 222.538C271.376 222.538 272.571 222.79 273.737 223.285C274.903 223.785 275.863 224.568 276.617 225.644C277.371 226.719 277.747 228.128 277.747 229.879L277.747 240.568L271.241 240.568L271.241 230.945C271.241 229.694 270.942 228.754 270.346 228.119C269.747 227.484 268.964 227.169 267.998 227.169C267.357 227.169 266.756 227.336 266.194 227.669C265.633 228.006 265.176 228.474 264.83 229.078C264.481 229.685 264.306 230.378 264.306 231.157L264.306 240.568L257.82 240.568L257.82 223.051L264.306 223.051L264.306 225.635C264.477 225.162 264.837 224.689 265.383 224.212C265.93 223.74 266.621 223.339 267.454 223.02C268.286 222.7 269.184 222.538 270.152 222.538" fill="#1d1d1b" fill-rule="nonzero" opacity="1" stroke="none" vectornator:layerName="path"/>
<path d="M293.322 229.793C293.309 229.338 293.187 228.884 292.96 228.429C292.732 227.975 292.39 227.601 291.936 227.309C291.481 227.016 290.898 226.872 290.187 226.872C289.46 226.872 288.857 227.012 288.373 227.295C287.89 227.583 287.521 227.943 287.264 228.384C287.007 228.825 286.859 229.293 286.816 229.793L293.322 229.793ZM286.688 233.187C286.731 233.812 286.929 234.37 287.284 234.861C287.64 235.351 288.13 235.734 288.756 236.004C289.384 236.274 290.135 236.409 291.018 236.409C291.844 236.409 292.586 236.324 293.248 236.162C293.909 236 294.485 235.784 294.976 235.522C295.467 235.257 295.847 234.991 296.117 234.721L298.635 238.731C298.266 239.119 297.76 239.488 297.121 239.843C296.482 240.199 295.633 240.491 294.582 240.73C293.529 240.964 292.199 241.081 290.592 241.081C288.643 241.081 286.915 240.716 285.407 239.992C283.9 239.267 282.718 238.2 281.865 236.792C281.012 235.383 280.585 233.655 280.585 231.607C280.585 229.901 280.956 228.362 281.694 226.998C282.435 225.634 283.515 224.55 284.937 223.744C286.359 222.943 288.074 222.538 290.079 222.538C291.985 222.538 293.639 222.889 295.041 223.586C296.441 224.28 297.519 225.315 298.273 226.687C299.027 228.06 299.405 229.771 299.405 231.818L299.405 232.493C299.405 232.84 299.389 233.074 299.362 233.187L286.688 233.187Z" fill="#1d1d1b" fill-rule="nonzero" opacity="1" stroke="none" vectornator:layerName="path"/>
<path d="M308.706 240.568L302.22 240.568L302.22 223.051L308.706 223.051L308.706 225.761L308.6 225.761C308.713 225.432 308.992 225.018 309.431 224.514C309.872 224.01 310.491 223.551 311.287 223.146C312.084 222.741 313.058 222.538 314.21 222.538C315.023 222.538 315.768 222.664 316.452 222.912C317.134 223.164 317.631 223.402 317.944 223.627L315.428 228.898C315.228 228.654 314.877 228.402 314.37 228.141C313.866 227.876 313.236 227.745 312.482 227.745C311.616 227.745 310.9 227.966 310.338 228.407C309.777 228.848 309.363 229.379 309.102 230.005C308.839 230.635 308.706 231.224 308.706 231.778L308.706 240.568Z" fill="#1d1d1b" fill-rule="nonzero" opacity="1" stroke="none" vectornator:layerName="path"/>
<path d="M546.304 165.445C540.782 163.807 533.478 165.178 531.036 166.335C528.593 167.494 526.484 169.077 524.711 171.086C522.938 173.094 521.571 175.429 520.612 178.089C519.653 180.748 519.174 183.563 519.174 186.53C519.174 189.535 519.653 192.358 520.612 194.999C521.571 197.641 522.938 199.975 524.711 202.002C526.484 204.029 528.593 205.612 531.036 206.752C533.478 207.892 536.166 208.462 539.097 208.462C541.666 208.462 544.001 208.137 546.1 207.485C548.199 206.833 550.017 205.893 551.556 204.662C553.094 203.432 554.306 201.975 555.193 200.292C556.08 198.609 556.613 196.754 556.795 194.728L538.555 194.728L538.555 182.35L575.09 182.35L575.09 186.91C575.09 192.05 574.229 196.844 572.51 201.296C570.791 205.747 568.339 209.656 565.155 213.022C561.97 216.388 558.169 219.012 553.755 220.894C549.339 222.775 544.453 223.716 539.097 223.716C533.56 223.716 528.538 222.766 524.033 220.867C519.527 218.967 515.645 216.316 512.388 212.913C509.131 209.512 506.634 205.557 504.897 201.052C503.16 196.546 502.291 191.706 502.291 186.53C502.291 181.392 503.16 176.569 504.897 172.063C506.634 167.557 509.131 163.613 512.388 160.228C515.645 156.845 519.527 154.202 524.033 152.303C528.538 150.402 533.56 149.452 539.097 149.452C543.62 149.452 548.552 150.739 552.008 151.717L546.304 165.445Z" fill="#1d1d1b" fill-rule="nonzero" opacity="1" stroke="none" vectornator:layerName="path"/>
<path d="M569.335 170.294C566.73 170.294 564.522 169.38 562.712 167.553C560.902 165.726 559.998 163.545 559.998 161.011C559.998 158.478 560.912 156.28 562.739 154.416C564.566 152.552 566.765 151.62 569.335 151.62C571.036 151.62 572.592 152.046 574.003 152.895C575.415 153.746 576.555 154.877 577.424 156.288C578.292 157.7 578.727 159.274 578.727 161.011C578.727 163.545 577.804 165.726 575.958 167.553C574.113 169.38 571.905 170.294 569.335 170.294" fill="#e10d19" fill-rule="nonzero" opacity="1" stroke="none" vectornator:layerName="path"/>
<path d="M607.653 163.489L622.492 163.489L622.492 165.345C622.492 167.428 622.143 169.377 621.443 171.186C620.745 172.996 619.75 174.582 618.457 175.949C617.164 177.316 615.62 178.381 613.827 179.144C612.034 179.912 610.048 180.293 607.874 180.293C605.625 180.293 603.586 179.907 601.756 179.135C599.925 178.363 598.349 177.288 597.026 175.902C595.702 174.521 594.688 172.916 593.984 171.089C593.277 169.256 592.926 167.289 592.926 165.191C592.926 163.103 593.277 161.145 593.984 159.312C594.688 157.485 595.702 155.88 597.026 154.508C598.349 153.131 599.925 152.062 601.756 151.29C603.586 150.517 605.625 150.131 607.874 150.131C609.711 150.131 611.332 150.327 612.734 150.727C614.139 151.122 615.348 151.652 616.362 152.313C617.376 152.973 618.236 153.699 618.941 154.485C619.648 155.271 620.234 156.038 620.706 156.787L614.443 159.745C613.841 158.815 613.023 158.01 611.985 157.317C610.948 156.629 609.578 156.28 607.874 156.28C606.683 156.28 605.593 156.517 604.6 156.987C603.607 157.457 602.751 158.099 602.03 158.917C601.311 159.731 600.756 160.68 600.367 161.759C599.977 162.843 599.781 163.982 599.781 165.191C599.781 166.41 599.977 167.554 600.367 168.628C600.756 169.703 601.311 170.651 602.03 171.475C602.751 172.298 603.607 172.94 604.6 173.4C605.593 173.865 606.683 174.098 607.874 174.098C608.918 174.098 609.865 173.963 610.718 173.698C611.569 173.433 612.309 173.051 612.934 172.554C613.557 172.051 614.05 171.461 614.411 170.777C614.771 170.093 614.988 169.34 615.062 168.517L607.653 168.517L607.653 163.489Z" fill="#1d1d1b" fill-rule="nonzero" opacity="1" stroke="none" vectornator:layerName="path"/>
<path d="M632.413 179.762L625.711 179.762L625.711 161.66L632.413 161.66L632.413 164.46L632.304 164.46C632.42 164.121 632.708 163.693 633.162 163.172C633.618 162.651 634.257 162.177 635.08 161.758C635.904 161.34 636.91 161.13 638.101 161.13C638.941 161.13 639.71 161.26 640.417 161.516C641.122 161.777 641.636 162.023 641.959 162.256L639.359 167.702C639.152 167.451 638.789 167.19 638.266 166.921C637.745 166.646 637.094 166.511 636.315 166.511C635.42 166.511 634.68 166.739 634.099 167.195C633.52 167.651 633.092 168.2 632.822 168.846C632.55 169.497 632.413 170.107 632.413 170.679L632.413 179.762Z" fill="#1d1d1b" fill-rule="nonzero" opacity="1" stroke="none" vectornator:layerName="path"/>
<path d="M649.344 170.721C649.344 171.544 649.535 172.284 649.918 172.94C650.3 173.591 650.811 174.102 651.451 174.47C652.09 174.837 652.797 175.023 653.576 175.023C654.386 175.023 655.1 174.837 655.716 174.47C656.334 174.102 656.823 173.591 657.183 172.94C657.541 172.284 657.723 171.544 657.723 170.721C657.723 169.898 657.541 169.163 657.183 168.507C656.823 167.851 656.334 167.34 655.716 166.963C655.1 166.591 654.386 166.4 653.576 166.4C652.797 166.4 652.09 166.591 651.451 166.963C650.811 167.34 650.3 167.851 649.918 168.507C649.535 169.163 649.344 169.898 649.344 170.721M657.811 179.762L657.811 176.832C657.679 177.125 657.344 177.549 656.806 178.107C656.272 178.669 655.562 179.172 654.681 179.618C653.797 180.069 652.769 180.293 651.593 180.293C649.83 180.293 648.286 179.86 646.963 179C645.64 178.144 644.612 176.991 643.877 175.539C643.142 174.093 642.775 172.488 642.775 170.721C642.775 168.958 643.142 167.354 643.877 165.907C644.612 164.456 645.64 163.298 646.963 162.433C648.286 161.568 649.83 161.131 651.593 161.131C652.725 161.131 653.716 161.312 654.569 161.67C655.423 162.033 656.113 162.461 656.641 162.949C657.172 163.442 657.539 163.893 657.744 164.307L657.744 161.661L664.404 161.661L664.404 179.762L657.811 179.762Z" fill="#1d1d1b" fill-rule="nonzero" opacity="1" stroke="none" vectornator:layerName="path"/>
<path d="M683.694 170.721C683.694 169.898 683.51 169.163 683.143 168.507C682.775 167.851 682.28 167.34 681.655 166.963C681.031 166.591 680.329 166.4 679.55 166.4C678.741 166.4 678.018 166.591 677.378 166.963C676.738 167.34 676.236 167.851 675.869 168.507C675.501 169.163 675.318 169.898 675.318 170.721C675.318 171.544 675.501 172.284 675.869 172.94C676.236 173.591 676.738 174.102 677.378 174.47C678.018 174.837 678.741 175.023 679.55 175.023C680.329 175.023 681.031 174.837 681.655 174.47C682.28 174.102 682.775 173.591 683.143 172.94C683.51 172.284 683.694 171.544 683.694 170.721M675.25 188.934L668.613 188.934L668.613 161.661L675.318 161.661L675.318 164.307C675.522 163.893 675.915 163.442 676.497 162.949C677.078 162.461 677.82 162.033 678.724 161.67C679.627 161.312 680.652 161.131 681.799 161.131C683.564 161.131 685.073 161.568 686.329 162.433C687.587 163.298 688.552 164.456 689.229 165.907C689.905 167.354 690.243 168.958 690.243 170.721C690.243 172.488 689.882 174.093 689.164 175.539C688.443 176.991 687.433 178.144 686.131 179C684.831 179.86 683.299 180.293 681.534 180.293C680.271 180.293 679.194 180.069 678.304 179.618C677.415 179.172 676.718 178.669 676.211 178.121C675.704 177.567 675.383 177.139 675.25 176.832L675.25 188.934Z" fill="#1d1d1b" fill-rule="nonzero" opacity="1" stroke="none" vectornator:layerName="path"/>
<path d="M706.23 161.131C707.493 161.131 708.728 161.391 709.932 161.903C711.139 162.419 712.13 163.229 712.909 164.34C713.688 165.452 714.079 166.907 714.079 168.717L714.079 179.763L707.376 179.763L707.376 169.819C707.376 168.526 707.086 167.554 706.504 166.898C705.923 166.242 705.135 165.917 704.135 165.917C703.472 165.917 702.842 166.089 702.239 166.433C701.635 166.782 701.147 167.266 700.772 167.889C700.398 168.517 700.209 169.233 700.209 170.038L700.209 179.763L693.486 179.763L693.486 149.425L700.209 149.425L700.209 164.331C700.372 163.842 700.735 163.354 701.302 162.861C701.867 162.373 702.579 161.959 703.439 161.629C704.3 161.298 705.23 161.131 706.23 161.131" fill="#1d1d1b" fill-rule="nonzero" opacity="1" stroke="none" vectornator:layerName="path"/>
<path d="M718.265 161.661L724.967 161.661L724.967 179.763L718.265 179.763L718.265 161.661ZM721.704 157.935C720.646 157.935 719.751 157.563 719.016 156.819C718.279 156.079 717.914 155.191 717.914 154.163C717.914 153.135 718.283 152.242 719.025 151.484C719.767 150.731 720.66 150.349 721.704 150.349C722.395 150.349 723.027 150.522 723.602 150.87C724.174 151.215 724.636 151.675 724.99 152.247C725.343 152.819 725.518 153.461 725.518 154.163C725.518 155.191 725.143 156.079 724.395 156.819C723.646 157.563 722.748 157.935 721.704 157.935" fill="#1d1d1b" fill-rule="nonzero" opacity="1" stroke="none" vectornator:layerName="path"/>
<path d="M739.408 175.023C740.247 175.023 740.938 174.879 741.482 174.59C742.024 174.307 742.394 174.074 742.585 173.897L745.65 178.441C745.412 178.632 745.01 178.879 744.436 179.176C743.864 179.479 743.147 179.739 742.287 179.962C741.426 180.181 740.445 180.293 739.343 180.293C737.271 180.293 735.448 179.897 733.876 179.111C732.301 178.325 731.078 177.214 730.204 175.772C729.329 174.33 728.892 172.642 728.892 170.702C728.892 168.744 729.329 167.056 730.204 165.628C731.078 164.205 732.301 163.098 733.876 162.312C735.448 161.526 737.271 161.131 739.343 161.131C740.431 161.131 741.406 161.247 742.264 161.475C743.124 161.703 743.847 161.958 744.436 162.247C745.024 162.531 745.436 162.777 745.671 162.982L742.54 167.568C742.436 167.465 742.25 167.321 741.978 167.13C741.706 166.94 741.357 166.768 740.931 166.623C740.503 166.475 739.996 166.4 739.408 166.4C738.689 166.4 738.017 166.586 737.392 166.954C736.766 167.321 736.264 167.828 735.883 168.474C735.499 169.121 735.308 169.865 735.308 170.702C735.308 171.539 735.499 172.284 735.883 172.939C736.264 173.591 736.766 174.102 737.392 174.47C738.017 174.837 738.689 175.023 739.408 175.023" fill="#1d1d1b" fill-rule="nonzero" opacity="1" stroke="none" vectornator:layerName="path"/>
<path d="M600.638 209.983C601.407 209.983 602.095 209.806 602.703 209.457C603.311 209.108 603.79 208.621 604.14 208.002C604.489 207.379 604.663 206.676 604.663 205.893C604.663 205.111 604.489 204.412 604.14 203.789C603.79 203.166 603.311 202.679 602.703 202.321C602.095 201.967 601.407 201.786 600.638 201.786C599.897 201.786 599.232 201.967 598.637 202.321C598.043 202.679 597.576 203.166 597.234 203.789C596.891 204.412 596.721 205.111 596.721 205.893C596.721 206.676 596.891 207.379 597.234 208.002C597.576 208.621 598.043 209.108 598.637 209.457C599.232 209.806 599.897 209.983 600.638 209.983M598.69 214.992C597.026 214.992 595.58 214.581 594.351 213.763C593.122 212.95 592.169 211.853 591.491 210.474C590.812 209.099 590.474 207.573 590.474 205.893C590.474 204.218 590.812 202.693 591.491 201.318C592.169 199.938 593.122 198.837 594.351 198.015C595.58 197.193 597.026 196.777 598.69 196.777C599.794 196.777 600.771 196.949 601.624 197.29C602.477 197.635 603.167 198.041 603.7 198.506C604.23 198.974 604.551 199.403 604.663 199.797L604.663 185.649L611.034 185.649L611.034 214.488L604.725 214.488L604.725 211.703C604.46 212.216 604.027 212.733 603.426 213.241C602.826 213.75 602.119 214.17 601.31 214.497C600.499 214.829 599.626 214.992 598.69 214.992" fill="#1d1d1b" fill-rule="nonzero" opacity="1" stroke="none" vectornator:layerName="path"/>
<path d="M626.311 203.904C626.298 203.457 626.178 203.011 625.955 202.564C625.732 202.118 625.396 201.751 624.949 201.464C624.503 201.176 623.93 201.035 623.232 201.035C622.518 201.035 621.925 201.172 621.45 201.45C620.975 201.733 620.612 202.087 620.36 202.52C620.108 202.953 619.962 203.413 619.92 203.904L626.311 203.904ZM619.794 207.238C619.836 207.852 620.031 208.4 620.38 208.882C620.729 209.364 621.211 209.74 621.826 210.005C622.442 210.27 623.181 210.403 624.047 210.403C624.859 210.403 625.588 210.319 626.238 210.16C626.888 210.001 627.454 209.789 627.936 209.532C628.418 209.271 628.791 209.01 629.057 208.745L631.53 212.684C631.168 213.065 630.67 213.427 630.042 213.776C629.415 214.126 628.581 214.413 627.549 214.647C626.514 214.877 625.208 214.992 623.63 214.992C621.715 214.992 620.017 214.634 618.536 213.922C617.055 213.211 615.895 212.163 615.057 210.779C614.219 209.395 613.799 207.697 613.799 205.686C613.799 204.01 614.164 202.498 614.889 201.158C615.616 199.819 616.677 198.753 618.074 197.962C619.471 197.175 621.156 196.777 623.126 196.777C624.998 196.777 626.623 197.122 628 197.807C629.375 198.488 630.434 199.505 631.174 200.853C631.915 202.202 632.286 203.882 632.286 205.894L632.286 206.557C632.286 206.897 632.271 207.127 632.244 207.238L619.794 207.238Z" fill="#1d1d1b" fill-rule="nonzero" opacity="1" stroke="none" vectornator:layerName="path"/>
<path d="M643.308 196.777C644.44 196.777 645.474 196.874 646.412 197.06C647.347 197.25 648.134 197.462 648.768 197.701C649.405 197.94 649.814 198.134 649.995 198.289L647.919 202.038C647.654 201.844 647.161 201.592 646.443 201.282C645.722 200.977 644.922 200.822 644.042 200.822C643.372 200.822 642.806 200.924 642.344 201.127C641.884 201.331 641.652 201.649 641.652 202.082C641.652 202.516 641.909 202.861 642.417 203.117C642.928 203.378 643.666 203.603 644.63 203.798C645.468 203.966 646.319 204.231 647.185 204.594C648.052 204.961 648.775 205.496 649.356 206.198C649.935 206.906 650.225 207.843 650.225 209.019C650.225 210.222 649.966 211.212 649.449 211.995C648.932 212.777 648.249 213.383 647.395 213.816C646.544 214.249 645.62 214.554 644.63 214.731C643.637 214.904 642.674 214.992 641.736 214.992C640.423 214.992 639.28 214.873 638.31 214.634C637.339 214.395 636.552 214.126 635.953 213.816C635.352 213.511 634.932 213.263 634.696 213.082L636.749 208.891C637.112 209.2 637.706 209.545 638.531 209.93C639.355 210.315 640.229 210.505 641.15 210.505C642.044 210.505 642.735 210.372 643.226 210.107C643.715 209.842 643.958 209.492 643.958 209.059C643.958 208.71 643.841 208.431 643.602 208.223C643.365 208.011 643.029 207.83 642.596 207.675C642.163 207.525 641.639 207.383 641.024 207.26C640.465 207.145 639.873 206.972 639.243 206.733C638.615 206.495 638.02 206.172 637.461 205.761C636.902 205.345 636.449 204.828 636.099 204.196C635.75 203.568 635.575 202.807 635.575 201.914C635.575 200.769 635.945 199.819 636.685 199.063C637.426 198.307 638.383 197.741 639.557 197.356C640.73 196.972 641.982 196.777 643.308 196.777" fill="#1d1d1b" fill-rule="nonzero" opacity="1" stroke="none" vectornator:layerName="path"/>
<path d="M653.831 197.28L660.202 197.28L660.202 214.487L653.831 214.487L653.831 197.28ZM657.1 193.739C656.094 193.739 655.243 193.385 654.545 192.678C653.844 191.975 653.497 191.131 653.497 190.154C653.497 189.176 653.849 188.328 654.554 187.607C655.259 186.891 656.108 186.528 657.1 186.528C657.757 186.528 658.358 186.692 658.904 187.023C659.448 187.351 659.888 187.788 660.224 188.332C660.56 188.876 660.726 189.486 660.726 190.154C660.726 191.131 660.37 191.975 659.658 192.678C658.946 193.385 658.093 193.739 657.1 193.739" fill="#1d1d1b" fill-rule="nonzero" opacity="1" stroke="none" vectornator:layerName="path"/>
<path d="M669.904 205.893C669.904 206.676 670.085 207.379 670.45 208.002C670.813 208.621 671.299 209.107 671.907 209.456C672.515 209.806 673.187 209.983 673.927 209.983C674.697 209.983 675.375 209.806 675.961 209.456C676.549 209.107 677.013 208.621 677.356 208.002C677.696 207.379 677.869 206.676 677.869 205.893C677.869 205.11 677.696 204.412 677.356 203.789C677.013 203.165 676.549 202.679 675.961 202.321C675.375 201.967 674.697 201.786 673.927 201.786C673.187 201.786 672.515 201.967 671.907 202.321C671.299 202.679 670.813 203.165 670.45 203.789C670.085 204.412 669.904 205.11 669.904 205.893M673.635 223.688C672.433 223.688 671.241 223.582 670.061 223.374C668.881 223.166 667.78 222.808 666.761 222.304C665.739 221.8 664.882 221.111 664.183 220.231L667.912 216.353C668.235 216.729 668.628 217.101 669.097 217.463C669.566 217.826 670.145 218.126 670.837 218.365C671.529 218.604 672.371 218.723 673.361 218.723C674.285 218.723 675.088 218.56 675.773 218.241C676.456 217.919 676.991 217.45 677.376 216.835C677.76 216.221 677.953 215.474 677.953 214.594L677.953 214.174L684.22 214.174L684.22 214.97C684.22 216.871 683.747 218.471 682.805 219.771C681.861 221.071 680.592 222.048 679 222.702C677.407 223.361 675.618 223.688 673.635 223.688M677.953 214.488L677.953 211.702C677.827 211.981 677.508 212.383 676.998 212.914C676.489 213.449 675.815 213.926 674.977 214.351C674.137 214.78 673.16 214.992 672.042 214.992C670.366 214.992 668.898 214.581 667.64 213.763C666.383 212.949 665.405 211.853 664.707 210.473C664.008 209.098 663.659 207.573 663.659 205.893C663.659 204.217 664.008 202.692 664.707 201.317C665.405 199.938 666.383 198.837 667.64 198.014C668.898 197.192 670.366 196.777 672.042 196.777C673.118 196.777 674.06 196.949 674.871 197.289C675.682 197.634 676.339 198.041 676.841 198.505C677.345 198.974 677.694 199.403 677.889 199.796L677.889 197.281L684.22 197.281L684.22 214.488L677.953 214.488Z" fill="#1d1d1b" fill-rule="nonzero" opacity="1" stroke="none" vectornator:layerName="path"/>
<path d="M700.147 196.777C701.35 196.777 702.523 197.025 703.668 197.511C704.814 198.002 705.757 198.771 706.498 199.828C707.238 200.884 707.608 202.268 707.608 203.988L707.608 214.488L701.217 214.488L701.217 205.036C701.217 203.807 700.923 202.883 700.337 202.259C699.749 201.636 698.98 201.326 698.031 201.326C697.401 201.326 696.811 201.49 696.259 201.817C695.708 202.149 695.259 202.609 694.919 203.201C694.576 203.798 694.404 204.479 694.404 205.244L694.404 214.488L688.033 214.488L688.033 197.281L694.404 197.281L694.404 199.819C694.572 199.355 694.926 198.89 695.463 198.422C696 197.957 696.679 197.564 697.496 197.25C698.314 196.936 699.196 196.777 700.147 196.777" fill="#1d1d1b" fill-rule="nonzero" opacity="1" stroke="none" vectornator:layerName="path"/>
<path d="M722.907 203.904C722.894 203.457 722.774 203.011 722.551 202.564C722.328 202.118 721.992 201.751 721.545 201.464C721.099 201.176 720.526 201.035 719.828 201.035C719.114 201.035 718.521 201.172 718.046 201.45C717.571 201.733 717.208 202.087 716.956 202.52C716.704 202.953 716.558 203.413 716.516 203.904L722.907 203.904ZM716.39 207.238C716.432 207.852 716.627 208.4 716.976 208.882C717.325 209.364 717.807 209.74 718.422 210.005C719.039 210.27 719.777 210.403 720.643 210.403C721.455 210.403 722.184 210.319 722.834 210.16C723.484 210.001 724.05 209.789 724.532 209.532C725.014 209.271 725.387 209.01 725.653 208.745L728.126 212.684C727.764 213.065 727.266 213.427 726.639 213.776C726.011 214.126 725.177 214.413 724.145 214.647C723.11 214.877 721.804 214.992 720.226 214.992C718.311 214.992 716.613 214.634 715.132 213.922C713.651 213.211 712.491 212.163 711.653 210.779C710.815 209.395 710.395 207.697 710.395 205.686C710.395 204.01 710.76 202.498 711.485 201.158C712.212 199.819 713.273 198.753 714.67 197.962C716.068 197.175 717.752 196.777 719.722 196.777C721.594 196.777 723.219 197.122 724.596 197.807C725.971 198.488 727.03 199.505 727.77 200.853C728.511 202.202 728.882 203.882 728.882 205.894L728.882 206.557C728.882 206.897 728.867 207.127 728.84 207.238L716.39 207.238Z" fill="#1d1d1b" fill-rule="nonzero" opacity="1" stroke="none" vectornator:layerName="path"/>
<path d="M738.018 214.488L731.647 214.488L731.647 197.281L738.018 197.281L738.018 199.942L737.914 199.942C738.025 199.62 738.299 199.213 738.73 198.718C739.163 198.223 739.771 197.772 740.554 197.374C741.336 196.976 742.293 196.777 743.425 196.777C744.223 196.777 744.955 196.901 745.627 197.144C746.297 197.391 746.785 197.626 747.092 197.847L744.621 203.024C744.424 202.785 744.079 202.538 743.582 202.281C743.087 202.02 742.468 201.892 741.727 201.892C740.876 201.892 740.173 202.109 739.621 202.542C739.07 202.975 738.664 203.497 738.407 204.112C738.148 204.731 738.018 205.31 738.018 205.853L738.018 214.488Z" fill="#1d1d1b" fill-rule="nonzero" opacity="1" stroke="none" vectornator:layerName="path"/>
<path d="M402.607 278.634L402.607 315.264C402.607 337.004 384.987 354.624 363.247 354.624L110.227 354.624C88.487 354.624 70.857 337.004 70.857 315.264L70.857 278.634L402.607 278.634Z" fill="#dadada" fill-rule="nonzero" opacity="1" stroke="none" vectornator:layerName="path"/>
<path d="M785.78 279.282L785.78 315.912C785.78 337.652 768.16 355.272 746.42 355.272L493.4 355.272C471.66 355.272 454.03 337.652 454.03 315.912L454.03 279.282L785.78 279.282Z" fill="#dadada" fill-rule="nonzero" opacity="1" stroke="none" vectornator:layerName="path"/>
<path d="M145.271 330.141L137.894 330.141L127.632 301.322L134.991 301.322L141.583 321.822L148.178 301.322L155.533 301.322L145.271 330.141Z" fill="#ffffff" fill-rule="nonzero" opacity="1" stroke="none" vectornator:layerName="path"/>
<path d="M158.742 301.322L177.145 301.322L177.145 307.04L165.248 307.04L165.248 312.913L177.039 312.913L177.039 318.46L165.248 318.46L165.248 324.42L177.145 324.42L177.145 330.141L158.742 330.141L158.742 301.322Z" fill="#ffffff" fill-rule="nonzero" opacity="1" stroke="none" vectornator:layerName="path"/>
<path d="M188.477 314.179L191.359 314.179C192.524 314.179 193.544 313.898 194.415 313.33C195.289 312.761 195.726 311.759 195.726 310.316C195.726 308.874 195.296 307.875 194.436 307.314C193.58 306.756 192.567 306.475 191.401 306.475L188.477 306.475L188.477 314.179ZM181.949 301.323L193.697 301.323C195.371 301.323 196.86 301.671 198.171 302.371C199.482 303.067 200.52 304.077 201.284 305.395C202.048 306.71 202.428 308.28 202.428 310.1C202.428 311.919 202.105 313.404 201.458 314.563C200.808 315.721 200.033 316.585 199.13 317.16C198.228 317.736 197.393 318.081 196.622 318.198L203.629 330.141L196.295 330.141L190.051 318.699L188.477 318.699L188.477 330.141L181.949 330.141L181.949 301.323Z" fill="#ffffff" fill-rule="nonzero" opacity="1" stroke="none" vectornator:layerName="path"/>
<path d="M213.277 307.04L206.401 307.04L206.401 301.322L226.663 301.322L226.663 307.04L219.805 307.04L219.805 330.141L213.277 330.141L213.277 307.04Z" fill="#ffffff" fill-rule="nonzero" opacity="1" stroke="none" vectornator:layerName="path"/>
<path d="M230.419 301.322L236.947 301.322L236.947 330.141L230.419 330.141L230.419 301.322Z" fill="#ffffff" fill-rule="nonzero" opacity="1" stroke="none" vectornator:layerName="path"/>
<path d="M257.251 324.203C258.587 324.203 259.806 324.004 260.907 323.613C262.006 323.219 262.823 322.835 263.363 322.455L266.156 328.002C265.474 328.584 264.305 329.171 262.652 329.768C261 330.365 259.038 330.663 256.768 330.663C254.643 330.663 252.649 330.294 250.787 329.551C248.925 328.808 247.284 327.764 245.866 326.417C244.444 325.07 243.332 323.492 242.522 321.68C241.715 319.868 241.31 317.899 241.31 315.774C241.31 313.649 241.712 311.673 242.511 309.847C243.314 308.021 244.423 306.429 245.841 305.075C247.262 303.724 248.907 302.673 250.777 301.923C252.646 301.173 254.643 300.796 256.768 300.796C259.038 300.796 261 301.095 262.652 301.692C264.305 302.289 265.474 302.879 266.156 303.461L263.363 309.005C262.823 308.614 262.006 308.223 260.907 307.839C259.806 307.452 258.587 307.26 257.251 307.26C255.766 307.26 254.469 307.488 253.364 307.946C252.258 308.404 251.334 309.037 250.592 309.836C249.849 310.636 249.295 311.538 248.932 312.544C248.566 313.546 248.385 314.602 248.385 315.71C248.385 316.83 248.566 317.896 248.932 318.908C249.295 319.918 249.849 320.824 250.592 321.627C251.334 322.426 252.258 323.055 253.364 323.514C254.469 323.972 255.766 324.203 257.251 324.203" fill="#ffffff" fill-rule="nonzero" opacity="1" stroke="none" vectornator:layerName="path"/>
<path d="M279.364 318.635L286.108 318.635L282.768 309.183L282.704 309.183L279.364 318.635ZM279.474 301.323L285.956 301.323L297.33 330.141L290.366 330.141L288.273 324.356L277.179 324.356L275.061 330.141L268.075 330.141L279.474 301.323Z" fill="#ffffff" fill-rule="nonzero" opacity="1" stroke="none" vectornator:layerName="path"/>
<path d="M299.796 301.322L306.324 301.322L306.324 324.42L316.782 324.42L316.782 330.141L299.796 330.141L299.796 301.322Z" fill="#ffffff" fill-rule="nonzero" opacity="1" stroke="none" vectornator:layerName="path"/>
<path d="M321.018 301.322L339.421 301.322L339.421 307.04L327.524 307.04L327.524 312.913L339.315 312.913L339.315 318.46L327.524 318.46L327.524 324.42L339.421 324.42L339.421 330.141L321.018 330.141L321.018 301.322Z" fill="#ffffff" fill-rule="nonzero" opacity="1" stroke="none" vectornator:layerName="path"/>
<path d="M506.595 317.066C506.595 318.708 506.933 320.197 507.608 321.529C508.286 322.862 509.225 323.921 510.426 324.706C511.627 325.491 513.02 325.886 514.608 325.886C516.193 325.886 517.586 325.491 518.787 324.706C519.988 323.921 520.926 322.862 521.605 321.529C522.28 320.197 522.618 318.708 522.618 317.066C522.618 315.421 522.28 313.935 521.605 312.61C520.926 311.288 519.988 310.229 518.787 309.433C517.586 308.641 516.193 308.243 514.608 308.243C513.02 308.243 511.627 308.641 510.426 309.433C509.225 310.229 508.286 311.288 507.608 312.61C506.933 313.935 506.595 315.421 506.595 317.066M499.804 317.066C499.804 314.969 500.174 313.015 500.917 311.203C501.659 309.391 502.7 307.809 504.04 306.455C505.38 305.101 506.95 304.046 508.756 303.289C510.561 302.532 512.512 302.152 514.608 302.152C516.733 302.152 518.691 302.532 520.489 303.289C522.287 304.046 523.854 305.101 525.183 306.455C526.516 307.809 527.55 309.391 528.285 311.203C529.021 313.015 529.387 314.969 529.387 317.066C529.387 319.177 529.032 321.135 528.317 322.947C527.603 324.759 526.583 326.348 525.261 327.709C523.936 329.07 522.372 330.129 520.567 330.885C518.762 331.642 516.776 332.019 514.608 332.019C512.394 332.019 510.383 331.642 508.571 330.885C506.758 330.129 505.195 329.07 503.887 327.709C502.576 326.348 501.57 324.759 500.863 322.947C500.156 321.135 499.804 319.177 499.804 317.066" fill="#ffffff" fill-rule="nonzero" opacity="1" stroke="none" vectornator:layerName="path"/>
<path d="M539.518 315.534L542.4 315.534C543.565 315.534 544.585 315.253 545.456 314.685C546.33 314.116 546.767 313.114 546.767 311.671C546.767 310.229 546.337 309.23 545.477 308.669C544.621 308.111 543.608 307.83 542.442 307.83L539.518 307.83L539.518 315.534ZM532.99 302.678L544.738 302.678C546.412 302.678 547.901 303.026 549.212 303.726C550.523 304.422 551.561 305.432 552.325 306.75C553.089 308.065 553.469 309.635 553.469 311.455C553.469 313.274 553.146 314.759 552.499 315.918C551.849 317.076 551.074 317.94 550.171 318.515C549.269 319.091 548.434 319.436 547.663 319.553L554.67 331.496L547.336 331.496L541.092 320.054L539.518 320.054L539.518 331.496L532.99 331.496L532.99 302.678Z" fill="#ffffff" fill-rule="nonzero" opacity="1" stroke="none" vectornator:layerName="path"/>
<path d="M559.19 302.678L565.718 302.678L565.718 331.497L559.19 331.497L559.19 302.678Z" fill="#ffffff" fill-rule="nonzero" opacity="1" stroke="none" vectornator:layerName="path"/>
<path d="M571.197 302.678L594.863 302.678L580.564 325.776L593.925 325.776L593.925 331.497L569.164 331.497L583.446 308.396L571.197 308.396L571.197 302.678Z" fill="#ffffff" fill-rule="nonzero" opacity="1" stroke="none" vectornator:layerName="path"/>
<path d="M604.141 317.066C604.141 318.708 604.479 320.197 605.154 321.529C605.832 322.862 606.771 323.921 607.972 324.706C609.173 325.491 610.566 325.886 612.154 325.886C613.739 325.886 615.132 325.491 616.333 324.706C617.534 323.921 618.472 322.862 619.151 321.529C619.826 320.197 620.164 318.708 620.164 317.066C620.164 315.421 619.826 313.935 619.151 312.61C618.472 311.288 617.534 310.229 616.333 309.433C615.132 308.641 613.739 308.243 612.154 308.243C610.566 308.243 609.173 308.641 607.972 309.433C606.771 310.229 605.832 311.288 605.154 312.61C604.479 313.935 604.141 315.421 604.141 317.066M597.35 317.066C597.35 314.969 597.72 313.015 598.463 311.203C599.205 309.391 600.246 307.809 601.586 306.455C602.926 305.101 604.496 304.046 606.301 303.289C608.107 302.532 610.058 302.152 612.154 302.152C614.279 302.152 616.237 302.532 618.035 303.289C619.833 304.046 621.4 305.101 622.729 306.455C624.062 307.809 625.096 309.391 625.831 311.203C626.567 313.015 626.933 314.969 626.933 317.066C626.933 319.177 626.578 321.135 625.863 322.947C625.149 324.759 624.129 326.348 622.807 327.709C621.482 329.07 619.918 330.129 618.113 330.885C616.308 331.642 614.322 332.019 612.154 332.019C609.94 332.019 607.929 331.642 606.117 330.885C604.304 330.129 602.741 329.07 601.433 327.709C600.122 326.348 599.116 324.759 598.409 322.947C597.702 321.135 597.35 319.177 597.35 317.066" fill="#ffffff" fill-rule="nonzero" opacity="1" stroke="none" vectornator:layerName="path"/>
<path d="M636.716 308.658L637.196 308.747L637.196 331.496L630.668 331.496L630.668 302.678L639.577 302.678L651.257 325.381L650.777 325.469L650.777 302.678L657.305 302.678L657.305 331.496L648.354 331.496L636.716 308.658Z" fill="#ffffff" fill-rule="nonzero" opacity="1" stroke="none" vectornator:layerName="path"/>
<path d="M667.606 308.395L660.73 308.395L660.73 302.677L680.992 302.677L680.992 308.395L674.134 308.395L674.134 331.496L667.606 331.496L667.606 308.395Z" fill="#ffffff" fill-rule="nonzero" opacity="1" stroke="none" vectornator:layerName="path"/>
<path d="M693.742 319.99L700.486 319.99L697.146 310.538L697.082 310.538L693.742 319.99ZM693.852 302.678L700.334 302.678L711.708 331.496L704.744 331.496L702.651 325.711L691.557 325.711L689.439 331.496L682.453 331.496L693.852 302.678Z" fill="#ffffff" fill-rule="nonzero" opacity="1" stroke="none" vectornator:layerName="path"/>
<path d="M714.174 302.678L720.702 302.678L720.702 325.776L731.16 325.776L731.16 331.497L714.174 331.497L714.174 302.678Z" fill="#ffffff" fill-rule="nonzero" opacity="1" stroke="none" vectornator:layerName="path"/>
<path d="M735.395 302.678L753.798 302.678L753.798 308.396L741.901 308.396L741.901 314.269L753.692 314.269L753.692 319.816L741.901 319.816L741.901 325.776L753.798 325.776L753.798 331.497L735.395 331.497L735.395 302.678Z" fill="#ffffff" fill-rule="nonzero" opacity="1" stroke="none" vectornator:layerName="path"/>
</g>
</g>
</g>
<g opacity="1" vectornator:layerName="path">
<clipPath clip-rule="nonzero" id="ClipPath_2">
<path d="M175.766 173.281L1017.66 173.281L1017.66 768.557L175.766 768.557L175.766 173.281Z"/>
</clipPath>
<g clip-path="url(#ClipPath_2)">
<path d="M619.04 549.785L626.476 549.785L626.476 550.715C626.476 551.759 626.302 552.736 625.951 553.642C625.601 554.549 625.102 555.344 624.454 556.029C623.807 556.715 623.033 557.248 622.134 557.631C621.236 558.015 620.24 558.206 619.151 558.206C618.024 558.206 617.002 558.013 616.085 557.626C615.167 557.239 614.377 556.701 613.714 556.006C613.051 555.314 612.543 554.51 612.19 553.594C611.835 552.675 611.659 551.689 611.659 550.638C611.659 549.592 611.835 548.61 612.19 547.692C612.543 546.776 613.051 545.972 613.714 545.284C614.377 544.594 615.167 544.058 616.085 543.671C617.002 543.284 618.024 543.091 619.151 543.091C620.071 543.091 620.884 543.189 621.586 543.389C622.29 543.587 622.896 543.853 623.404 544.184C623.913 544.515 624.344 544.879 624.697 545.273C625.051 545.666 625.345 546.051 625.581 546.426L622.443 547.909C622.141 547.443 621.731 547.039 621.211 546.692C620.691 546.347 620.005 546.172 619.151 546.172C618.554 546.172 618.007 546.291 617.51 546.527C617.012 546.762 616.583 547.084 616.222 547.494C615.862 547.902 615.583 548.377 615.389 548.918C615.193 549.461 615.095 550.032 615.095 550.638C615.095 551.249 615.193 551.822 615.389 552.361C615.583 552.899 615.862 553.374 616.222 553.787C616.583 554.2 617.012 554.521 617.51 554.752C618.007 554.985 618.554 555.102 619.151 555.102C619.674 555.102 620.148 555.034 620.576 554.901C621.003 554.768 621.373 554.577 621.687 554.328C621.999 554.076 622.246 553.78 622.427 553.437C622.607 553.095 622.716 552.717 622.753 552.305L619.04 552.305L619.04 549.785Z" fill="#1d1d1b" fill-rule="nonzero" opacity="1" stroke="none" vectornator:layerName="path"/>
<path d="M631.448 557.94L628.089 557.94L628.089 548.868L631.448 548.868L631.448 550.272L631.393 550.272C631.451 550.101 631.596 549.887 631.823 549.626C632.052 549.365 632.372 549.127 632.785 548.917C633.197 548.708 633.702 548.603 634.299 548.603C634.719 548.603 635.105 548.668 635.459 548.796C635.812 548.927 636.07 549.05 636.232 549.167L634.929 551.896C634.825 551.77 634.644 551.64 634.381 551.505C634.12 551.367 633.794 551.299 633.404 551.299C632.955 551.299 632.584 551.414 632.293 551.642C632.003 551.871 631.788 552.146 631.653 552.47C631.517 552.796 631.448 553.101 631.448 553.388L631.448 557.94Z" fill="#1d1d1b" fill-rule="nonzero" opacity="1" stroke="none" vectornator:layerName="path"/>
<path d="M639.933 553.409C639.933 553.822 640.029 554.192 640.221 554.521C640.412 554.847 640.668 555.104 640.989 555.288C641.309 555.472 641.664 555.565 642.054 555.565C642.46 555.565 642.817 555.472 643.126 555.288C643.436 555.104 643.681 554.847 643.862 554.521C644.041 554.192 644.132 553.822 644.132 553.409C644.132 552.996 644.041 552.628 643.862 552.3C643.681 551.971 643.436 551.714 643.126 551.526C642.817 551.339 642.46 551.244 642.054 551.244C641.664 551.244 641.309 551.339 640.989 551.526C640.668 551.714 640.412 551.971 640.221 552.3C640.029 552.628 639.933 552.996 639.933 553.409M644.176 557.94L644.176 556.472C644.11 556.619 643.942 556.831 643.673 557.11C643.405 557.392 643.049 557.644 642.608 557.868C642.165 558.094 641.65 558.206 641.06 558.206C640.177 558.206 639.403 557.989 638.74 557.558C638.076 557.129 637.561 556.551 637.193 555.824C636.825 555.099 636.641 554.295 636.641 553.409C636.641 552.526 636.825 551.721 637.193 550.997C637.561 550.269 638.076 549.689 638.74 549.255C639.403 548.822 640.177 548.603 641.06 548.603C641.628 548.603 642.124 548.694 642.552 548.873C642.979 549.055 643.326 549.269 643.59 549.514C643.856 549.761 644.04 549.987 644.142 550.195L644.142 548.869L647.48 548.869L647.48 557.94L644.176 557.94Z" fill="#1d1d1b" fill-rule="nonzero" opacity="1" stroke="none" vectornator:layerName="path"/>
<path d="M657.147 553.409C657.147 552.996 657.055 552.628 656.871 552.3C656.687 551.971 656.438 551.714 656.125 551.526C655.813 551.339 655.461 551.244 655.07 551.244C654.665 551.244 654.302 551.339 653.982 551.526C653.661 551.714 653.41 551.971 653.225 552.3C653.041 552.628 652.949 552.996 652.949 553.409C652.949 553.822 653.041 554.192 653.225 554.521C653.41 554.847 653.661 555.104 653.982 555.288C654.302 555.472 654.665 555.565 655.07 555.565C655.461 555.565 655.813 555.472 656.125 555.288C656.438 555.104 656.687 554.847 656.871 554.521C657.055 554.192 657.147 553.822 657.147 553.409M652.915 562.537L649.589 562.537L649.589 548.869L652.949 548.869L652.949 550.195C653.052 549.987 653.249 549.761 653.54 549.514C653.831 549.269 654.203 549.055 654.657 548.873C655.109 548.694 655.623 548.603 656.197 548.603C657.082 548.603 657.838 548.822 658.467 549.255C659.098 549.689 659.582 550.269 659.921 550.997C660.26 551.721 660.429 552.526 660.429 553.409C660.429 554.295 660.248 555.099 659.888 555.824C659.527 556.551 659.021 557.129 658.368 557.558C657.717 557.989 656.949 558.206 656.064 558.206C655.432 558.206 654.892 558.094 654.446 557.868C654 557.644 653.651 557.392 653.397 557.117C653.143 556.84 652.982 556.626 652.915 556.472L652.915 562.537Z" fill="#1d1d1b" fill-rule="nonzero" opacity="1" stroke="none" vectornator:layerName="path"/>
<path d="M668.441 548.603C669.074 548.603 669.693 548.734 670.296 548.99C670.901 549.249 671.398 549.654 671.788 550.211C672.178 550.768 672.374 551.498 672.374 552.405L672.374 557.94L669.016 557.94L669.016 552.957C669.016 552.309 668.87 551.822 668.579 551.493C668.287 551.165 667.892 551.001 667.391 551.001C667.059 551.001 666.743 551.088 666.441 551.26C666.138 551.435 665.893 551.677 665.706 551.99C665.518 552.304 665.424 552.663 665.424 553.067L665.424 557.94L662.055 557.94L662.055 542.736L665.424 542.736L665.424 550.207C665.505 549.962 665.687 549.717 665.971 549.47C666.255 549.225 666.611 549.018 667.043 548.852C667.474 548.687 667.94 548.603 668.441 548.603" fill="#1d1d1b" fill-rule="nonzero" opacity="1" stroke="none" vectornator:layerName="path"/>
<path d="M674.472 548.869L677.831 548.869L677.831 557.941L674.472 557.941L674.472 548.869ZM676.196 547.002C675.666 547.002 675.217 546.816 674.849 546.443C674.479 546.072 674.296 545.627 674.296 545.112C674.296 544.597 674.482 544.149 674.853 543.769C675.225 543.392 675.673 543.2 676.196 543.2C676.542 543.2 676.859 543.287 677.147 543.461C677.434 543.634 677.666 543.865 677.843 544.151C678.02 544.438 678.107 544.76 678.107 545.112C678.107 545.627 677.92 546.072 677.544 546.443C677.169 546.816 676.719 547.002 676.196 547.002" fill="#1d1d1b" fill-rule="nonzero" opacity="1" stroke="none" vectornator:layerName="path"/>
<path d="M685.068 555.565C685.489 555.565 685.835 555.493 686.108 555.348C686.379 555.206 686.564 555.09 686.66 555.001L688.196 557.278C688.077 557.374 687.875 557.497 687.588 557.646C687.301 557.798 686.942 557.928 686.511 558.04C686.08 558.15 685.588 558.206 685.035 558.206C683.997 558.206 683.083 558.008 682.296 557.614C681.507 557.22 680.894 556.663 680.455 555.94C680.017 555.218 679.798 554.372 679.798 553.4C679.798 552.418 680.017 551.572 680.455 550.857C680.894 550.143 681.507 549.589 682.296 549.195C683.083 548.801 683.997 548.603 685.035 548.603C685.581 548.603 686.069 548.661 686.499 548.775C686.93 548.89 687.293 549.018 687.588 549.162C687.882 549.304 688.089 549.428 688.206 549.53L686.638 551.829C686.585 551.777 686.492 551.705 686.356 551.61C686.219 551.514 686.045 551.428 685.831 551.356C685.617 551.281 685.363 551.244 685.068 551.244C684.708 551.244 684.371 551.337 684.058 551.521C683.744 551.705 683.492 551.959 683.301 552.283C683.109 552.607 683.013 552.98 683.013 553.4C683.013 553.819 683.109 554.192 683.301 554.521C683.492 554.847 683.744 555.103 684.058 555.288C684.371 555.472 684.708 555.565 685.068 555.565" fill="#1d1d1b" fill-rule="nonzero" opacity="1" stroke="none" vectornator:layerName="path"/>
<path d="M700.339 555.565C700.745 555.565 701.107 555.472 701.428 555.288C701.748 555.103 702.001 554.847 702.185 554.521C702.369 554.192 702.461 553.822 702.461 553.409C702.461 552.996 702.369 552.628 702.185 552.3C702.001 551.971 701.748 551.714 701.428 551.526C701.107 551.339 700.745 551.244 700.339 551.244C699.949 551.244 699.598 551.339 699.284 551.526C698.971 551.714 698.725 551.971 698.544 552.3C698.364 552.628 698.274 552.996 698.274 553.409C698.274 553.822 698.364 554.192 698.544 554.521C698.725 554.847 698.971 555.103 699.284 555.288C699.598 555.472 699.949 555.565 700.339 555.565M699.312 558.206C698.435 558.206 697.672 557.989 697.025 557.558C696.377 557.129 695.874 556.551 695.516 555.824C695.159 555.099 694.98 554.295 694.98 553.409C694.98 552.526 695.159 551.721 695.516 550.997C695.874 550.269 696.377 549.689 697.025 549.255C697.672 548.822 698.435 548.603 699.312 548.603C699.894 548.603 700.409 548.694 700.859 548.873C701.309 549.055 701.672 549.269 701.953 549.514C702.233 549.761 702.402 549.987 702.461 550.195L702.461 542.736L705.82 542.736L705.82 557.94L702.494 557.94L702.494 556.472C702.354 556.742 702.126 557.015 701.809 557.283C701.493 557.551 701.12 557.772 700.693 557.945C700.266 558.12 699.805 558.206 699.312 558.206" fill="#1d1d1b" fill-rule="nonzero" opacity="1" stroke="none" vectornator:layerName="path"/>
<path d="M713.874 552.36C713.867 552.125 713.804 551.889 713.686 551.654C713.569 551.418 713.392 551.225 713.156 551.073C712.921 550.922 712.619 550.847 712.251 550.847C711.874 550.847 711.562 550.92 711.311 551.066C711.061 551.216 710.87 551.402 710.737 551.63C710.604 551.859 710.527 552.101 710.505 552.36L713.874 552.36ZM710.438 554.117C710.46 554.441 710.563 554.73 710.747 554.985C710.931 555.239 711.185 555.437 711.509 555.577C711.835 555.716 712.224 555.786 712.681 555.786C713.108 555.786 713.493 555.742 713.836 555.658C714.178 555.574 714.476 555.462 714.731 555.327C714.985 555.19 715.182 555.052 715.321 554.912L716.626 556.989C716.434 557.189 716.172 557.381 715.841 557.565C715.51 557.749 715.071 557.9 714.527 558.024C713.981 558.145 713.292 558.206 712.46 558.206C711.451 558.206 710.556 558.017 709.775 557.642C708.994 557.266 708.383 556.714 707.941 555.984C707.499 555.255 707.278 554.36 707.278 553.299C707.278 552.416 707.47 551.619 707.852 550.913C708.236 550.206 708.795 549.645 709.532 549.227C710.268 548.812 711.156 548.603 712.195 548.603C713.182 548.603 714.038 548.785 714.764 549.146C715.489 549.505 716.047 550.041 716.438 550.752C716.828 551.463 717.024 552.348 717.024 553.409L717.024 553.758C717.024 553.938 717.016 554.059 717.002 554.117L710.438 554.117Z" fill="#1d1d1b" fill-rule="nonzero" opacity="1" stroke="none" vectornator:layerName="path"/>
<path d="M722.835 548.603C723.432 548.603 723.977 548.654 724.471 548.752C724.964 548.852 725.379 548.964 725.714 549.09C726.049 549.216 726.265 549.319 726.36 549.4L725.266 551.377C725.126 551.274 724.866 551.141 724.488 550.978C724.108 550.817 723.686 550.736 723.222 550.736C722.869 550.736 722.57 550.789 722.327 550.897C722.085 551.004 721.962 551.172 721.962 551.4C721.962 551.628 722.097 551.81 722.365 551.945C722.635 552.083 723.024 552.202 723.532 552.304C723.974 552.393 724.422 552.533 724.879 552.724C725.336 552.917 725.717 553.199 726.024 553.57C726.329 553.943 726.482 554.437 726.482 555.057C726.482 555.691 726.345 556.213 726.073 556.626C725.8 557.038 725.44 557.358 724.99 557.586C724.541 557.814 724.054 557.975 723.532 558.068C723.009 558.159 722.501 558.206 722.006 558.206C721.314 558.206 720.712 558.143 720.2 558.017C719.688 557.891 719.274 557.749 718.958 557.586C718.641 557.425 718.419 557.295 718.295 557.199L719.377 554.989C719.568 555.153 719.882 555.334 720.317 555.537C720.751 555.74 721.212 555.84 721.698 555.84C722.168 555.84 722.533 555.77 722.792 555.63C723.049 555.491 723.178 555.306 723.178 555.078C723.178 554.894 723.116 554.747 722.99 554.638C722.865 554.526 722.688 554.43 722.46 554.348C722.231 554.269 721.955 554.195 721.631 554.129C721.336 554.069 721.024 553.978 720.692 553.852C720.361 553.726 720.047 553.556 719.752 553.339C719.458 553.12 719.219 552.847 719.035 552.514C718.851 552.183 718.758 551.782 718.758 551.311C718.758 550.708 718.953 550.207 719.343 549.808C719.734 549.409 720.239 549.111 720.857 548.908C721.476 548.706 722.136 548.603 722.835 548.603" fill="#1d1d1b" fill-rule="nonzero" opacity="1" stroke="none" vectornator:layerName="path"/>
<path d="M728.382 548.869L731.741 548.869L731.741 557.941L728.382 557.941L728.382 548.869ZM730.106 547.002C729.575 547.002 729.127 546.816 728.758 546.443C728.389 546.072 728.206 545.627 728.206 545.112C728.206 544.597 728.391 544.149 728.763 543.769C729.135 543.392 729.582 543.2 730.106 543.2C730.452 543.2 730.769 543.287 731.057 543.461C731.343 543.634 731.575 543.865 731.752 544.151C731.929 544.438 732.017 544.76 732.017 545.112C732.017 545.627 731.829 546.072 731.454 546.443C731.079 546.816 730.629 547.002 730.106 547.002" fill="#1d1d1b" fill-rule="nonzero" opacity="1" stroke="none" vectornator:layerName="path"/>
<path d="M736.856 553.409C736.856 553.822 736.952 554.192 737.144 554.521C737.335 554.847 737.591 555.104 737.912 555.288C738.232 555.472 738.587 555.565 738.977 555.565C739.383 555.565 739.74 555.472 740.049 555.288C740.359 555.104 740.604 554.847 740.785 554.521C740.964 554.192 741.055 553.822 741.055 553.409C741.055 552.996 740.964 552.628 740.785 552.3C740.604 551.971 740.359 551.714 740.049 551.526C739.74 551.339 739.383 551.244 738.977 551.244C738.587 551.244 738.232 551.339 737.912 551.526C737.591 551.714 737.335 551.971 737.144 552.3C736.952 552.628 736.856 552.996 736.856 553.409M738.823 562.791C738.189 562.791 737.561 562.735 736.939 562.625C736.316 562.516 735.736 562.327 735.199 562.061C734.66 561.795 734.208 561.432 733.84 560.968L735.806 558.924C735.976 559.122 736.184 559.318 736.431 559.509C736.678 559.7 736.983 559.858 737.348 559.984C737.713 560.11 738.157 560.173 738.679 560.173C739.166 560.173 739.589 560.087 739.95 559.919C740.31 559.749 740.592 559.502 740.795 559.178C740.998 558.854 741.099 558.46 741.099 557.996L741.099 557.775L744.403 557.775L744.403 558.194C744.403 559.196 744.154 560.04 743.657 560.725C743.16 561.411 742.491 561.926 741.652 562.271C740.811 562.618 739.869 562.791 738.823 562.791M741.099 557.94L741.099 556.472C741.033 556.619 740.865 556.831 740.596 557.11C740.328 557.392 739.972 557.644 739.531 557.868C739.088 558.094 738.573 558.206 737.983 558.206C737.1 558.206 736.326 557.989 735.663 557.558C734.999 557.129 734.484 556.551 734.116 555.824C733.748 555.099 733.564 554.295 733.564 553.409C733.564 552.526 733.748 551.721 734.116 550.997C734.484 550.269 734.999 549.689 735.663 549.255C736.326 548.822 737.1 548.603 737.983 548.603C738.55 548.603 739.047 548.694 739.475 548.873C739.902 549.055 740.248 549.269 740.513 549.514C740.779 549.761 740.963 549.987 741.065 550.195L741.065 548.869L744.403 548.869L744.403 557.94L741.099 557.94Z" fill="#1d1d1b" fill-rule="nonzero" opacity="1" stroke="none" vectornator:layerName="path"/>
<path d="M752.8 548.603C753.434 548.603 754.053 548.734 754.657 548.99C755.26 549.249 755.758 549.654 756.148 550.211C756.539 550.768 756.733 551.498 756.733 552.405L756.733 557.94L753.364 557.94L753.364 552.957C753.364 552.309 753.209 551.822 752.9 551.493C752.59 551.165 752.185 551.001 751.685 551.001C751.353 551.001 751.041 551.088 750.75 551.26C750.46 551.435 750.223 551.677 750.044 551.99C749.863 552.304 749.772 552.663 749.772 553.067L749.772 557.94L746.414 557.94L746.414 548.869L749.772 548.869L749.772 550.207C749.861 549.962 750.047 549.717 750.331 549.47C750.614 549.225 750.971 549.018 751.403 548.852C751.834 548.687 752.299 548.603 752.8 548.603" fill="#1d1d1b" fill-rule="nonzero" opacity="1" stroke="none" vectornator:layerName="path"/>
<path d="M764.799 552.36C764.792 552.125 764.729 551.889 764.611 551.654C764.494 551.418 764.317 551.225 764.081 551.073C763.846 550.922 763.544 550.847 763.176 550.847C762.799 550.847 762.487 550.92 762.236 551.066C761.986 551.216 761.795 551.402 761.662 551.63C761.529 551.859 761.452 552.101 761.43 552.36L764.799 552.36ZM761.363 554.117C761.385 554.441 761.488 554.73 761.672 554.985C761.856 555.239 762.11 555.437 762.434 555.577C762.76 555.716 763.149 555.786 763.606 555.786C764.033 555.786 764.418 555.742 764.761 555.658C765.103 555.574 765.402 555.462 765.656 555.327C765.91 555.19 766.107 555.052 766.246 554.912L767.551 556.989C767.359 557.189 767.097 557.381 766.766 557.565C766.435 557.749 765.996 557.9 765.452 558.024C764.906 558.145 764.217 558.206 763.385 558.206C762.376 558.206 761.481 558.017 760.7 557.642C759.919 557.266 759.308 556.714 758.866 555.984C758.424 555.255 758.203 554.36 758.203 553.299C758.203 552.416 758.395 551.619 758.777 550.913C759.161 550.206 759.72 549.645 760.457 549.227C761.193 548.812 762.081 548.603 763.12 548.603C764.107 548.603 764.963 548.785 765.689 549.146C766.414 549.505 766.972 550.041 767.363 550.752C767.753 551.463 767.949 552.348 767.949 553.409L767.949 553.758C767.949 553.938 767.941 554.059 767.927 554.117L761.363 554.117Z" fill="#1d1d1b" fill-rule="nonzero" opacity="1" stroke="none" vectornator:layerName="path"/>
<path d="M772.766 557.94L769.407 557.94L769.407 548.868L772.766 548.868L772.766 550.272L772.711 550.272C772.77 550.101 772.914 549.887 773.141 549.626C773.37 549.365 773.69 549.127 774.103 548.917C774.515 548.708 775.02 548.603 775.617 548.603C776.037 548.603 776.423 548.668 776.777 548.796C777.131 548.927 777.388 549.05 777.55 549.167L776.247 551.896C776.143 551.77 775.962 551.64 775.699 551.505C775.438 551.367 775.112 551.299 774.722 551.299C774.273 551.299 773.902 551.414 773.611 551.642C773.321 551.871 773.106 552.146 772.971 552.47C772.835 552.796 772.766 553.101 772.766 553.388L772.766 557.94Z" fill="#1d1d1b" fill-rule="nonzero" opacity="1" stroke="none" vectornator:layerName="path"/>
<path d="M490.175 479.705L459.203 479.705C459.512 483.146 460.417 486.295 461.922 489.153C463.429 492.011 465.487 494.485 468.099 496.573C470.711 498.664 473.799 500.261 477.362 501.366C480.927 502.474 484.891 503.026 489.254 503.026C494.232 503.026 498.794 502.059 502.942 500.123C507.091 498.187 510.671 495.499 513.681 492.057C516.693 488.616 519.013 484.652 520.641 480.165C522.27 475.681 523.084 470.887 523.084 465.785C523.084 460.747 522.27 455.968 520.641 451.452C519.013 446.935 516.693 442.971 513.681 439.56C510.671 436.15 507.091 433.461 502.942 431.494C498.794 429.528 494.232 428.545 489.254 428.545C482.126 428.545 476.395 429.99 472.062 432.878C467.729 435.767 464.305 439.145 461.784 443.017L435.605 430.664C437.573 427.531 440.03 424.32 442.979 421.032C445.929 417.745 449.524 414.718 453.764 411.953C458.005 409.187 463.061 406.974 468.928 405.316C474.797 403.656 481.573 402.826 489.254 402.826C498.656 402.826 507.183 404.439 514.834 407.666C522.485 410.892 529.075 415.379 534.606 421.124C540.137 426.871 544.377 433.569 547.327 441.22C550.276 448.871 551.752 457.06 551.752 465.785C551.752 474.575 550.276 482.792 547.327 490.443C544.377 498.094 540.137 504.809 534.606 510.585C529.075 516.363 522.485 520.864 514.834 524.09C507.183 527.316 498.656 528.928 489.254 528.928C480.159 528.928 471.863 527.33 464.365 524.136C456.869 520.941 450.416 516.484 445.007 510.769C439.601 505.054 435.437 498.417 432.517 490.858C429.599 483.299 428.138 475.158 428.138 466.431L428.138 458.688L490.175 458.688L490.175 479.705Z" fill="#1d1d1b" fill-rule="nonzero" opacity="1" stroke="none" vectornator:layerName="path"/>
<path d="M568.526 451.037L596.548 451.037L596.548 526.717L568.526 526.717L568.526 451.037ZM582.906 435.458C578.482 435.458 574.733 433.907 571.659 430.804C568.586 427.701 567.051 423.998 567.051 419.696C567.051 415.395 568.603 411.662 571.706 408.496C574.808 405.331 578.541 403.749 582.906 403.749C585.794 403.749 588.437 404.472 590.833 405.915C593.23 407.359 595.166 409.28 596.641 411.676C598.115 414.073 598.853 416.746 598.853 419.696C598.853 423.998 597.286 427.701 594.152 430.804C591.018 433.907 587.269 435.458 582.906 435.458" fill="#1d1d1b" fill-rule="nonzero" opacity="1" stroke="none" vectornator:layerName="path"/>
<path d="M752.329 451.037L780.351 451.037L780.351 526.717L752.329 526.717L752.329 451.037Z" fill="#1d1d1b" fill-rule="nonzero" opacity="1" stroke="none" vectornator:layerName="path"/>
<path d="M687.948 429.983C678.571 427.201 666.17 429.529 662.022 431.495C657.873 433.462 654.293 436.151 651.283 439.561C648.272 442.972 645.951 446.935 644.323 451.453C642.694 455.969 641.88 460.748 641.88 465.786C641.88 470.888 642.694 475.682 644.323 480.166C645.951 484.653 648.272 488.616 651.283 492.058C654.293 495.499 657.873 498.188 662.022 500.124C666.17 502.059 670.733 503.027 675.71 503.027C680.073 503.027 684.037 502.474 687.602 501.367C691.166 500.261 694.253 498.665 696.866 496.574C699.477 494.485 701.536 492.011 703.042 489.154C704.547 486.296 705.453 483.147 705.761 479.706L674.789 479.706L674.789 458.689L736.827 458.689L736.827 466.432C736.827 475.158 735.365 483.3 732.447 490.859C729.528 498.418 725.364 505.055 719.957 510.77C714.549 516.485 708.096 520.941 700.6 524.137C693.101 527.33 684.805 528.929 675.71 528.929C666.309 528.929 657.781 527.316 650.13 524.09C642.479 520.865 635.889 516.364 630.358 510.586C624.827 504.81 620.587 498.095 617.638 490.444C614.688 482.793 613.212 474.576 613.212 465.786C613.212 457.061 614.688 448.871 617.638 441.22C620.587 433.569 624.827 426.872 630.358 421.125C635.889 415.38 642.479 410.893 650.13 407.667C657.781 404.44 666.309 402.827 675.71 402.827C683.391 402.827 691.765 405.012 697.634 406.672L687.948 429.983Z" fill="#1d1d1b" fill-rule="nonzero" opacity="1" stroke="none" vectornator:layerName="path"/>
<path d="M727.055 438.217C722.631 438.217 718.882 436.666 715.809 433.562C712.736 430.46 711.201 426.756 711.201 422.455C711.201 418.153 712.752 414.42 715.855 411.255C718.958 408.09 722.691 406.507 727.055 406.507C729.943 406.507 732.586 407.231 734.982 408.674C737.379 410.118 739.315 412.038 740.791 414.434C742.265 416.832 743.003 419.505 743.003 422.455C743.003 426.756 741.435 430.46 738.301 433.562C735.167 436.666 731.418 438.217 727.055 438.217" fill="#e10d19" fill-rule="nonzero" opacity="1" stroke="none" vectornator:layerName="path"/>
</g>
</g>
</g>
</svg>
