<svg xmlns="http://www.w3.org/2000/svg" viewBox="0 0 101.31 58.08"><defs><style>.cls-1{fill:#1d498f;}.cls-2{fill:#e5752f;}</style></defs><g id="Livello_2" data-name="Livello 2"><g id="Livello_1-2" data-name="Livello 1"><g id="Livello_2-2" data-name="Livello 2"><g id="Livello_1-2-2" data-name="Livello 1-2"><path class="cls-1" d="M88.43,14.41a3.55,3.55,0,0,0,.55-1.1A3.88,3.88,0,0,0,86.5,8.66a9.48,9.48,0,0,0-4-.55,13.83,13.83,0,0,0-4.41,1,5.62,5.62,0,0,0-3.52,6.53,1.19,1.19,0,0,1-.26,1.19,4.1,4.1,0,0,0,1,5.95,6.89,6.89,0,0,0,3.9,1.08,13.25,13.25,0,0,0,7-1.57c2.78-1.65,3.68-5,2.18-7.26A.47.47,0,0,1,88.43,14.41Zm-2.37,4.95a6.13,6.13,0,0,1-3.47,1.78,11,11,0,0,1-4.6.19,4.76,4.76,0,0,1-1.17-.4,1.79,1.79,0,0,1-1-2.18,1.87,1.87,0,0,1,2-1.14,2.09,2.09,0,0,1,2.1,2c0,.32.18.46.5.45a1.79,1.79,0,0,0,1.21-.34,1,1,0,0,0,.18-1.47,1.2,1.2,0,0,0-.29-.26,8.9,8.9,0,0,0-2.15-.84,6.92,6.92,0,0,1-1.4-.59,2.79,2.79,0,0,1-.15-4.6,7.21,7.21,0,0,1,4-1.41,7.32,7.32,0,0,1,1.41-.1,6.25,6.25,0,0,1,2.42.4,1.52,1.52,0,0,1,1.14,1.55c0,.64-.5,1.12-1.31,1.35a3,3,0,0,1-1.86,0,1.45,1.45,0,0,1-1.07-1.32c0-.34-.2-.42-.51-.42a1.22,1.22,0,0,0-1.25.77A1.24,1.24,0,0,0,81.56,14c.9.4,1.87.63,2.8,1a7.62,7.62,0,0,1,1,.41,2.46,2.46,0,0,1,.67,4Z"/><path class="cls-2" d="M74.65,38.13a21.1,21.1,0,0,1-1,6.15,2.16,2.16,0,0,1-1.4,1.36c-.74.22-1.12-.12-1-.85.35-2.31.67-4.62,1-6.92a2.09,2.09,0,0,1,1.12-1.55.73.73,0,0,1,1.18.53A5,5,0,0,1,74.65,38.13Z"/><path class="cls-1" d="M60.29,13.19A33.85,33.85,0,0,1,59,20.66a2.56,2.56,0,0,1-.65,1.14A.79.79,0,0,1,57,21.47a4.94,4.94,0,0,1-.11-2.09,39.24,39.24,0,0,1,1-6.09,5.43,5.43,0,0,1,.73-1.63,1,1,0,0,1,1-.51c.45.09.55.43.63.81A8.48,8.48,0,0,1,60.29,13.19Z"/><path class="cls-2" d="M51.26,46.19a2.11,2.11,0,0,1,2.08-2.13,1.46,1.46,0,0,1,.29,0c.21,0,.37.1.34.34a7.06,7.06,0,0,1-.55,2.26.82.82,0,0,1-.16.22,1.28,1.28,0,0,1-1.33.52A1.21,1.21,0,0,1,51.26,46.19Z"/><path class="cls-2" d="M91.53,33.43A4.12,4.12,0,0,1,90.86,36a1.84,1.84,0,0,1-1.25.79c-.33.06-.52-.07-.49-.41a9.14,9.14,0,0,1,1-3.86,1.64,1.64,0,0,1,.27-.32c.38-.36.76-.29,1,.21A2.65,2.65,0,0,1,91.53,33.43Z"/><path class="cls-1" d="M75,4.19A4.89,4.89,0,0,0,68.45.29a4.17,4.17,0,0,0-2.76,4.6,10.25,10.25,0,0,0,.38,1.34.85.85,0,0,1-.23,0A11.25,11.25,0,0,0,60,5.27a15.39,15.39,0,0,0-9.31,3.88.48.48,0,0,1-.74,0,7.5,7.5,0,0,0-3.05-1.39,13.47,13.47,0,0,0-7.25.6,12.68,12.68,0,0,0-2.68,1.28,6.58,6.58,0,0,0,0-1.6,5.74,5.74,0,0,0-7.82-4.56,5.92,5.92,0,0,0-3.33,3.08c-.16.34-.31.46-.7.31a3.5,3.5,0,0,0-1.78-.21,42.45,42.45,0,0,0-4.75.81,4.11,4.11,0,0,0-2.91,2.66c-.2.54-.21.56-.6.14a4.83,4.83,0,0,0-4.3-1.69,40.06,40.06,0,0,0-5.22.77,4,4,0,0,0-3.14,3.37,4.55,4.55,0,0,0,.62,3,1.06,1.06,0,0,1,.2.69c-.11.74-.17,1.48-.27,2.23-.36,2.81-.73,5.63-1.09,8.44a2.64,2.64,0,0,1-.65,1.5,4.07,4.07,0,0,0-.73,4.65A3.72,3.72,0,0,0,4.31,35.5a22.62,22.62,0,0,0,5-.81,4.17,4.17,0,0,0,3.05-4.62c.07,0,.11,0,.12.06s.2.27.3.41a7.34,7.34,0,0,0,2.49,2.28,6.18,6.18,0,0,0,6.5-.4c.2-.12.35-.39.6-.32a10.13,10.13,0,0,0,1.89.42c3-1.71,7.54-1.68,9.45-1.58a4.79,4.79,0,0,0,2.06-1.85c.08-.14.19-.25.37-.15A10.73,10.73,0,0,0,40.38,30l.1,0a6.48,6.48,0,0,1,4.29-.5l.22-.13a11.35,11.35,0,0,0,4.57-3.12c.17-.19.32-.17.52,0a8.34,8.34,0,0,0,1.65.93,12.24,12.24,0,0,0,5.36.74,16.58,16.58,0,0,0,6.19-1.6,13.14,13.14,0,0,0,7.15-13.93c-.05-.3,0-.47.32-.59A6.71,6.71,0,0,0,75,4.19ZM21.72,22.81c-.18,1.39-.35,2.78-.52,4.18a10.78,10.78,0,0,1-.29,1.25,2.94,2.94,0,0,1-4.82,1.12,13.38,13.38,0,0,1-1.29-1.61q-2.58-3.91-5.18-7.82c-.07-.12-.13-.32-.32-.26s-.14.25-.16.4l-1.08,8A2,2,0,0,0,8.74,30c.63.51.47,1.2-.34,1.44a22.54,22.54,0,0,1-3.18.58,5,5,0,0,1-1.15.1c-.27,0-.54,0-.67-.32A.81.81,0,0,1,3.47,31a1,1,0,0,1,.24-.26A3.51,3.51,0,0,0,5,28c.3-2.5.65-5,1-7.49l.6-4.91A.91.91,0,0,0,6.37,15a6.5,6.5,0,0,1-.65-1.07.88.88,0,0,1,.74-1.34c1.42-.23,2.84-.43,4.26-.65a2,2,0,0,1,2.07.84c1.4,1.84,2.65,3.79,4,5.68.56.81,1.11,1.62,1.67,2.41.06.09.11.22.23.2s.15-.19.18-.3c.11-.79.22-1.57.32-2.36.17-1.39.33-2.79.52-4.18A2.13,2.13,0,0,0,19,12.13c-.65-.58-.42-1.22.41-1.46a8.73,8.73,0,0,1,1-.21l3-.44c.36,0,.77,0,.94.36a.89.89,0,0,1-.33,1.11,3.61,3.61,0,0,0-1.28,2.73C22.45,17.09,22.07,20,21.72,22.81Zm10.85,3.88c.57.39.52.83-.12,1.13a5.09,5.09,0,0,1-1.48.36q-3,.46-6,.9a3.87,3.87,0,0,1-.83,0,.64.64,0,0,1-.64-.38c-.1-.28.08-.46.23-.66a.49.49,0,0,1,.13-.12A2.83,2.83,0,0,0,25,25.83c.36-2.72.73-5.45,1.19-8.16a1.33,1.33,0,0,0-.75-1.59c-.53-.26-.58-.71-.19-1.16A3.88,3.88,0,0,1,26.73,14a9.84,9.84,0,0,1,4-1c1.73,0,2.52.79,2.52,2.76-.1,1.11-.33,2.47-.54,3.83-.28,1.82-.57,3.65-.84,5.47A1.52,1.52,0,0,0,32.57,26.69ZM30.75,12a2.53,2.53,0,0,1-2.47-2.52,3,3,0,0,1,3-3A2.33,2.33,0,0,1,33.64,9,2.9,2.9,0,0,1,30.75,12Zm18.46,2.73a2.28,2.28,0,0,1-1.46,1.81A3.08,3.08,0,0,1,44.19,16a2.82,2.82,0,0,1-.63-2c0-.18.11-.44-.11-.54s-.38.08-.55.19a4.65,4.65,0,0,0-2.22,3.9,8.22,8.22,0,0,0,.08,1.92,3,3,0,0,0,3.46,2.5,7,7,0,0,0,3.17-1.21c.23-.15.47-.43.78-.28s.23.55.19.84a4.43,4.43,0,0,1-1.14,2.5A7.68,7.68,0,0,1,41,26.65a5.89,5.89,0,0,1-5.31-2.39,6.94,6.94,0,0,1-1.13-4.77A14.39,14.39,0,0,1,34.7,18a7.8,7.8,0,0,1,3.59-5.33A10.94,10.94,0,0,1,46,11a4.63,4.63,0,0,1,1.91.81A2.86,2.86,0,0,1,49.21,14.71Zm18.08-.28a9.77,9.77,0,0,1-6.7,9.37,12,12,0,0,1-6.84.48,5.17,5.17,0,0,1-4-4.6c-.36-4.37,1.6-7.49,5.33-9.65a12.59,12.59,0,0,1,6-1.49,6.68,6.68,0,0,1,2.9.5,5,5,0,0,1,3.24,4.48,6.91,6.91,0,0,1,0,.91Zm2.48-5.09a2.49,2.49,0,0,1-.81.17c-.23,0-.48,0-.59-.25a.64.64,0,0,1,.14-.72,12.89,12.89,0,0,0,1-1.07.85.85,0,0,0-.09-1.3c-.24-.25-.51-.49-.73-.77a1.61,1.61,0,0,1-.27-2,2.06,2.06,0,0,1,2.16-.82c1.26.32,1.9,1.27,1.9,2.82a4,4,0,0,1-2.72,3.91Z"/><path class="cls-2" d="M99.89,37.7A7.39,7.39,0,0,0,101.31,33a6.68,6.68,0,0,0-1.63-4.23c-.09-.11-.2-.21-.3-.32a7.25,7.25,0,0,0-3-1.85,10.23,10.23,0,0,0-2.79-.45h-.73a1.1,1.1,0,0,1-.26,0h0a15.44,15.44,0,0,0-1.67.12l-.12,0-.66.09a13.58,13.58,0,0,0-2.81.69,13.19,13.19,0,0,0-4.24,2.59c-.26.23-.4.72-.82.67s-.59-.41-.89-.62a7.91,7.91,0,0,0-8.74.09,1,1,0,0,1-1,.17,4.92,4.92,0,0,0-1.86-.31,11.79,11.79,0,0,0-4,.79,7.75,7.75,0,0,0-4.21,2.9c-.17.27-.35.23-.58.09a10,10,0,0,0-5.19-1.48,18.33,18.33,0,0,0-6.15.88c-.32.1-.56.13-.76,0a1.29,1.29,0,0,1-.22-.3,5.39,5.39,0,0,0-.91-1.31L47.58,31a5.49,5.49,0,0,0-1.64-1.1l-.33-.13a4.56,4.56,0,0,0-.71-.24l-.13,0a6.55,6.55,0,0,0-4.29.48l-.1.05-.13.07-.14.08-.14.08-.24.14a7.59,7.59,0,0,0-2.19,2.11c-.13.17-.24.16-.34.08l-.1-.12-.25-.3,0,0A3.94,3.94,0,0,0,34.59,31h0c-.11,0-.42,0-.87-.06-1.91-.1-6.42-.13-9.44,1.58l0,0h0a2,2,0,0,0-.29.17,2.71,2.71,0,0,0-.25.17A4.3,4.3,0,0,0,23,39.12l.13.14a3.6,3.6,0,0,0,.52.43,1.73,1.73,0,0,1,.21.17,1.37,1.37,0,0,1,.29.56c.22.72.47,1.42.71,2.14.84,2.51,1.67,5,2.53,7.56a26.92,26.92,0,0,0,1.42,3.82,5.56,5.56,0,0,0,1,1.43l0,0a5,5,0,0,0,5,1.31,6,6,0,0,0,3.9-3.53c.82-1.75,1.49-3.55,2.22-5.34.06-.15.07-.33.27-.44l.05.07a1.17,1.17,0,0,1,.07.49,7.14,7.14,0,0,0,1.82,4.38l.12.13a7,7,0,0,0,3,1.8,8.7,8.7,0,0,0,7.58-1.13.82.82,0,0,1,.77-.13,7.8,7.8,0,0,0,3.39.35c.31,0,.48,0,.55.09a.81.81,0,0,1,.05.46,3.55,3.55,0,0,0,1,3,4.34,4.34,0,0,0,3.49,1.2c1-.12,2-.25,2.93-.43,1.75-.3,3.53-.42,5.26-.86a4.08,4.08,0,0,0,3.1-5.2c-.11-.38,0-.49.37-.53a7.67,7.67,0,0,0,1.5-.3,11.26,11.26,0,0,0,6-4c.24-.32.45-.35.76-.11a8.09,8.09,0,0,0,1.54.93,11.53,11.53,0,0,0,7,.81,10.22,10.22,0,0,0,6.76-3.89,6.78,6.78,0,0,0,1.38-6.38A.44.44,0,0,1,99.89,37.7ZM43.21,38.77a2.36,2.36,0,0,1-1.31-.41c-.46-.28-.53-.28-.74.23-.79,1.92-1.57,3.85-2.35,5.77-1,2.45-2,4.9-3,7.34a3,3,0,0,1-1.25,1.55A1.85,1.85,0,0,1,32.18,53l0,0a2.64,2.64,0,0,1-.41-.58,15.82,15.82,0,0,1-.89-2.5q-1.69-5-3.37-10L27,38.4a1.8,1.8,0,0,0-.36-.59l-.06-.07a5.34,5.34,0,0,0-.44-.39l-.37-.28-.17-.13a.87.87,0,0,1-.28-.85.86.86,0,0,1,.8-.66l2.61-.4,4.73-.71a1.15,1.15,0,0,1,1,.2l.09.11a.68.68,0,0,1,.12.92,2.89,2.89,0,0,0-.2,2.87c.58,1.66,1.07,3.35,1.59,5,0,.12,0,.29.16.34a.19.19,0,0,0,.1,0c.22,0,.21-.24.27-.38.93-2.41,1.84-4.82,2.79-7.23a6.89,6.89,0,0,1,1.55-2.54,3.84,3.84,0,0,1,3.93-.6,2.93,2.93,0,0,1,.48.39l0,0A2.74,2.74,0,0,1,46,34.65a3.21,3.21,0,0,1-1.33,3.73A2.61,2.61,0,0,1,43.21,38.77ZM57.66,50a4.15,4.15,0,0,1-3-.71l-.13-.12-.06-.05a4.09,4.09,0,0,1-.28-.33l0,0h0c-.18-.21-.34-.2-.54,0a5.74,5.74,0,0,1-2.39,2A5,5,0,0,1,46,50.44a3.31,3.31,0,0,1-.44-.39.3.3,0,0,1-.08-.08,3.57,3.57,0,0,1-.89-2.13,4.77,4.77,0,0,1,3.61-5.19,12.27,12.27,0,0,1,5.32-.34c.64.08.73,0,.87-.57A20.7,20.7,0,0,0,54.88,39a1.84,1.84,0,0,0-.36-1.34,1.51,1.51,0,0,0-1.33-.49c-.31,0-.48.12-.34.46a2.58,2.58,0,0,1-2.14,3.46A3.94,3.94,0,0,1,48.43,41a2.2,2.2,0,0,1-.69-.48,2,2,0,0,1-.24-2.36,4.46,4.46,0,0,1,1.82-1.65A12.91,12.91,0,0,1,54,35.28a9.55,9.55,0,0,1,3.76.3,4.46,4.46,0,0,1,2,1.17l0,0a4.18,4.18,0,0,1,1.11,2.87v.64a30.43,30.43,0,0,1-.5,4.13c0,.38-.12.76-.14,1.14a.66.66,0,0,0,.2.56.42.42,0,0,0,.14.09.68.68,0,0,0,.7-.27c.12-.11.17-.37.41-.29a.3.3,0,0,1,.14.11.91.91,0,0,1,.1.4,2.17,2.17,0,0,1-.34,1.49A4.71,4.71,0,0,1,57.66,50Zm24.08-11a10.82,10.82,0,0,1-1,4.15,8.38,8.38,0,0,1-7.53,4.65,4.82,4.82,0,0,1-1.92-.28c-.36-.13-.54,0-.59.37-.11,1-.25,2-.38,3a1.35,1.35,0,0,0,.39,1.21l0,0,.2.17.25.22h0c.3.35.17.66-.39.92a4.51,4.51,0,0,1-1.34.36l-6.05.88a6.79,6.79,0,0,1-.78,0,.69.69,0,0,1-.5-.14.43.43,0,0,1-.15-.2.59.59,0,0,1,.22-.7,3,3,0,0,0,1.1-1.8c.16-1,.32-2,.47-2.93.3-2,.6-4,.89-6l.78-5.35a1.41,1.41,0,0,0-.29-1.27A1.6,1.6,0,0,0,64.6,36a1.25,1.25,0,0,1-.24-.16h0c-.25-.24-.2-.52.07-.89a2.44,2.44,0,0,1,1-.73A9.53,9.53,0,0,1,69.76,33a2.43,2.43,0,0,1,1.84.71h0a3,3,0,0,1,.47.66,1.09,1.09,0,0,0,.22.36h0c.1.07.19,0,.38-.32a5.69,5.69,0,0,1,2.24-2.14,4.5,4.5,0,0,1,5.22.69l.07.07a4.85,4.85,0,0,1,.94,1.47,9.46,9.46,0,0,1,.59,4.53Zm14.19-2.31a13.52,13.52,0,0,1-6,1.56c-.78,0-.88.15-.64.91a2,2,0,0,0,.5.86.13.13,0,0,0,.06.07,2.66,2.66,0,0,0,1.74.65A6.64,6.64,0,0,0,94.88,40c.41-.2.8-.41,1.21-.58s.48-.12.58,0a.79.79,0,0,1,.1.37,3.29,3.29,0,0,1-.33,1.6,6,6,0,0,1-3.39,3.14,8.86,8.86,0,0,1-6.25.3,5.63,5.63,0,0,1-2.28-1.35l-.09-.09A5.84,5.84,0,0,1,82.93,40a5.82,5.82,0,0,1-.11-1.18,9.68,9.68,0,0,1,1.47-5.51,8.85,8.85,0,0,1,5.89-3.63,15.35,15.35,0,0,1,4.06-.21,4.49,4.49,0,0,1,2.88,1.38s0,0,0,0A3.51,3.51,0,0,1,98,32.68a3.84,3.84,0,0,1-2.07,4.06Z"/></g></g></g></g></svg>