<svg xmlns="http://www.w3.org/2000/svg" viewBox="0 0 89.86 34.23"><defs><style>.cls-1{fill:#c72d2b;}.cls-2{fill:#54211c;}.cls-3{isolation:isolate;}.cls-4{fill:#1d1d1b;}</style></defs><g id="Livello_2" data-name="Livello 2"><g id="Livello_1-2" data-name="Livello 1"><g id="Livello_2-2" data-name="Livello 2"><g id="Livello_1-2-2" data-name="Livello 1-2"><g id="bPgnJZ"><path class="cls-1" d="M75.78,19.4a6.21,6.21,0,0,1-7.1.47A7.08,7.08,0,0,1,65,13.38a7.12,7.12,0,0,1,5.23-7.21,6.21,6.21,0,0,1,5,.88c.61.37.64.37.65-.31,0-.43.23-.47.56-.46,1.15,0,2.3,0,3.45,0,.52,0,.62.18.62.65v13c0,.42-.14.54-.54.53-1.12,0-2.24,0-3.4,0-.55,0-.77-.16-.68-.71A2.25,2.25,0,0,0,75.78,19.4ZM76,13.32a3.21,3.21,0,1,0-3.17,3.29A3.24,3.24,0,0,0,76,13.32Z"/><path class="cls-2" d="M89.81,27.59a.56.56,0,0,1,0,.44,4,4,0,0,1-.42.92A2.41,2.41,0,0,0,89,30c0,.75-1.31,1.28-1.94.9a.55.55,0,0,1-.29-.43c0-.2,0-.32.26-.34a2.68,2.68,0,0,0,.83-.26.21.21,0,0,0,.16-.26l0-.06A5.2,5.2,0,0,0,87,28c-.09.44-.18.85-.25,1.25a3.62,3.62,0,0,1-.56,1.29,1.74,1.74,0,0,1-.5.51c-.63.37-1.35.46-1.73-.49,0-.08-.07-.16-.12-.27-.12.21-.21.41-.33.6a1.06,1.06,0,0,1-1,.61c-.46,0-.68-.33-.86-.7l-.1-.25c-.34.6-.69,1.24-1.5,1.09-.64-.12-.66-.75-.84-1.3-.1.25-.17.45-.25.66a2.25,2.25,0,0,1-.38.63.74.74,0,0,1-1,.17.68.68,0,0,1-.24-.29,2.32,2.32,0,0,1-.17-.32c-.45.87-1,1.54-2.1,1.41s-1.2-.87-1.45-1.66A2.87,2.87,0,0,0,73,32.21a1.47,1.47,0,0,1-2,1,.52.52,0,0,1-.31-.41c0-.22,0-.34.27-.38,1.21-.29,1.17-.28.53-1.32a2.83,2.83,0,0,0-.59-.75c-.07.32-.13.62-.2.92a4.61,4.61,0,0,1-.65,1.55,2.23,2.23,0,0,1-.35.4.94.94,0,0,1-1.33-.1l-.12-.17a2.19,2.19,0,0,1-.25-.94,13.36,13.36,0,0,1,.1-2.36c0-.18.08-.24.27-.23.56,0,.78.26.7.85A7.4,7.4,0,0,0,69,31.66c0,.13,0,.27,0,.4s.1.44.35.49a.59.59,0,0,0,.58-.28,2.47,2.47,0,0,0,.47-1.12,3.07,3.07,0,0,0,.07-1.85,1.21,1.21,0,0,1,.27-1.12c.1-.16.21-.37.47-.26a.6.6,0,0,1,.46.56,1.82,1.82,0,0,1-.18.72.49.49,0,0,0,.07.55c.37.48.75,1,1.12,1.45.11.15.18.13.28,0a3.19,3.19,0,0,0,.7-1.29,2.62,2.62,0,0,1,.52-1.12,1.07,1.07,0,0,1,1.15-.45c.25.07.31,0,.31-.24s.2-.29.41-.26.45.21.38.46a3.55,3.55,0,0,0-.17,1.16c0,.11,0,.21-.13.25a.26.26,0,0,1-.32-.13,1.58,1.58,0,0,1-.21-.74c0-.26-.16-.23-.31-.11a.7.7,0,0,0-.2.22,2.86,2.86,0,0,0-.38,2.33.87.87,0,0,0,1,.68.85.85,0,0,0,.34-.14,1.71,1.71,0,0,0,.66-.75,4.74,4.74,0,0,0,.39-1.7c0-.33.12-.66.18-1s.12-.25.3-.2c.49.12.7.31.57.83A5,5,0,0,0,78,30.5a1.53,1.53,0,0,0,0,.3c0,.13.06.28.23.31s.25-.09.32-.2a4.66,4.66,0,0,0,.5-1.5c.09-.43.17-.86.23-1.29,0-.22.13-.27.34-.25.46,0,.66.34.56.87a4.92,4.92,0,0,0-.11,1.38c0,.27,0,.58.34.67s.52-.18.68-.43a2.05,2.05,0,0,0,.32-1.05c0-.53.07-1,.1-1.58,0-.2.09-.27.3-.25.54.06.75.28.66.83a7.88,7.88,0,0,0-.11,1.61,1.88,1.88,0,0,0,0,.33c.12.44.47.53.79.21a1.62,1.62,0,0,0,.47-1.1,11,11,0,0,1,.14-1.71c0-.25,0-.37-.28-.31a.49.49,0,0,1-.24,0,.27.27,0,0,1-.23-.25.25.25,0,0,1,.15-.31.1.1,0,0,1,.06,0c.68-.1.9-.57,1-1.17,0-.17,0-.46.33-.4s.5.26.45.54c-.09.48,0,.67.54.63a.58.58,0,0,1,.33.14.4.4,0,0,1,.19.41c0,.17-.21.12-.34.14a2.65,2.65,0,0,1-.63.07c-.35,0-.44.15-.46.45a7.82,7.82,0,0,0,0,2.05c0,.32.07.71.46.79s.62-.23.79-.52a6.38,6.38,0,0,0,.67-2.32.46.46,0,0,0-.06-.23A1.34,1.34,0,0,1,86.79,26c.09-.15.17-.37.43-.3a.62.62,0,0,1,.47.55,1,1,0,0,1-.11.56.79.79,0,0,0,.15.95,13.7,13.7,0,0,1,.93,1.2c.14.2.23.15.35,0a4.25,4.25,0,0,0,.63-1.07C89.68,27.79,89.68,27.65,89.81,27.59Z"/><path class="cls-1" d="M47.08,14.2H42.62c-.48,0-.59.16-.42.59a2.55,2.55,0,0,0,2.18,1.75,2.39,2.39,0,0,0,2.47-1.15,1,1,0,0,1,1-.52c1.12,0,2.26,0,3.39,0,.55,0,.63.15.46.65A7.44,7.44,0,0,1,45,20.62a7.22,7.22,0,0,1-7-4.82A7.63,7.63,0,0,1,43.39,5.55a7.39,7.39,0,0,1,8.58,6c0,.18.06.36.08.54a10.29,10.29,0,0,1,0,1.57c0,.42-.17.57-.6.56-1.47,0-2.93,0-4.4,0ZM44.7,11.41h2.13c.33,0,.45-.1.34-.45a2.68,2.68,0,0,0-2.39-1.64,2.65,2.65,0,0,0-2.44,1.55c-.14.37-.07.55.37.54h2Z"/><path class="cls-1" d="M22.66,19c-.42.35-.7.59-1,.81a4.79,4.79,0,0,1-7-1.37A5,5,0,0,1,14.13,16c0-3,0-6.07,0-9.11,0-.53.17-.68.68-.66,1.08,0,2.18,0,3.26,0,.45,0,.58.13.57.57,0,2.34,0,4.69-.06,7a5,5,0,0,0,.19,1.8,1.9,1.9,0,0,0,3.62.06,3.5,3.5,0,0,0,.22-1.36c0-2.47,0-4.94,0-7.41,0-.54.15-.73.71-.71,1.12,0,2.22,0,3.33,0,.37,0,.51.1.51.49q0,6.6-.07,13.19c0,.4-.16.5-.53.49-1.12,0-2.24,0-3.39,0-.46,0-.66-.12-.6-.59A7.12,7.12,0,0,0,22.66,19Z"/><path d="M4.6,7.51c.27,0,.4-.27.59-.43a4.85,4.85,0,0,1,5.23-.75A4.12,4.12,0,0,1,13,10.45c0,3.16,0,6.32,0,9.48,0,.35-.1.48-.46.48-1.17,0-2.35,0-3.52,0-.46,0-.56-.17-.55-.59,0-2.51,0-5,0-7.54a3.37,3.37,0,0,0-.27-1.47,1.83,1.83,0,0,0-2.38-1,1.77,1.77,0,0,0-.93.82,3.06,3.06,0,0,0-.37,1.57c0,2.53,0,5.06,0,7.6,0,.52-.15.68-.66.67-1.13,0-2.23,0-3.33,0C.14,20.49,0,20.4,0,20c0-4.38,0-8.77,0-13.17,0-.44.17-.52.56-.52,1.12,0,2.22,0,3.33,0,.47,0,.7.1.63.62A.86.86,0,0,0,4.6,7.51Z"/><path class="cls-1" d="M29.94,13.83V10.44c0-.41-.13-.54-.54-.54-1.33,0-1.33,0-1.33-1.36V6.72c0-.35.08-.52.49-.53,1.38,0,1.38-.06,1.38-1.44s0-1.5,1.37-2c.91-.38,1.83-.71,2.74-1.08.37-.16.48,0,.48.33V5.61c0,.43.11.61.57.59s1.12,0,1.69,0c.35,0,.49.1.49.46,0,.94,0,1.89,0,2.83,0,.32-.13.44-.45.44H35c-.35,0-.49.11-.49.46,0,1.72,0,3.44,0,5.15,0,.88.37,1.19,1.32,1.24,1.29.07,1.29.07,1.28,1.36V20c0,.32-.12.43-.44.43-1.24,0-2.47,0-3.71,0a3.13,3.13,0,0,1-3-3.2c0-1.12,0-2.21,0-3.32Z"/><path class="cls-1" d="M53,10.15V.67c0-.53.15-.68.67-.67C54.81,0,56,0,57.2,0c.4,0,.55.12.55.54q0,9.63,0,19.28c0,.46-.18.56-.59.55-1.22,0-2.43,0-3.64,0-.5,0-.59-.18-.59-.62V10.14Z"/><path class="cls-1" d="M64.11,10.19v9.55c0,.55-.19.66-.68.65-1.12,0-2.27,0-3.4,0-.55,0-.7-.14-.7-.7V2.17c0-.5,0-1,0-1.5S59.49,0,60,0c1.15,0,2.31,0,3.46,0,.49,0,.64.14.64.64,0,3.18,0,6.35,0,9.54Z"/><path class="cls-2" d="M65.21,30.64l.18-.29c.24-.31.48-.66.92-.57a1.29,1.29,0,0,1,1.09.9A3.09,3.09,0,0,1,67,33.3c-.44.65-1,.75-2,.37v.16c0,.13.09.32-.12.38a.47.47,0,0,1-.5-.15,1.24,1.24,0,0,1-.27-.81A23.23,23.23,0,0,1,64.3,30c.08-.83.19-1.65.27-2.48,0-.29.16-.37.42-.3a.75.75,0,0,1,.65.78,5.21,5.21,0,0,1-.26,1.52A4.58,4.58,0,0,0,65.21,30.64Zm1.24.63a2.51,2.51,0,0,0-.1-.77c-.11-.34-.29-.38-.53-.13a2,2,0,0,0-.27.37A4.78,4.78,0,0,0,65,32.86a.47.47,0,0,0,.41.54.48.48,0,0,0,.33-.07,1,1,0,0,0,.47-.6,4.11,4.11,0,0,0,.25-1.48Z"/><path class="cls-2" d="M68.15,27.82c0-.37.16-.51.52-.49a1.8,1.8,0,0,1,.46.1.44.44,0,0,1,.34.52l0,.08a5.7,5.7,0,0,1-.16.55.47.47,0,0,1-.56.34.54.54,0,0,1-.28-.19A1.31,1.31,0,0,1,68.15,27.82Z"/><path class="cls-2" d="M82.11,25.47a1.26,1.26,0,0,1,.43.08c.27.1.41.26.32.56s-.09.4-.16.58a.47.47,0,0,1-.56.35.44.44,0,0,1-.29-.22,1.29,1.29,0,0,1-.26-1C81.62,25.49,81.86,25.46,82.11,25.47Z"/><g class="cls-3"><g class="cls-3"><path class="cls-4" d="M64.39,25.74a.26.26,0,0,1,.13-.08.4.4,0,0,1,.15,0,.36.36,0,0,1,.25.1A.28.28,0,0,1,65,26a.47.47,0,0,1-.11.27,1.36,1.36,0,0,1-.49.34,1.47,1.47,0,0,1-.58.12,1.32,1.32,0,0,1-.39-.06,1.17,1.17,0,0,1-.36-.16,1.14,1.14,0,0,1-.31-.27,1,1,0,0,1-.2-.37h0a1.64,1.64,0,0,1-.15-.87,2.17,2.17,0,0,1,.45-1.22,1.67,1.67,0,0,1,.49-.43,1.18,1.18,0,0,1,.62-.17l.2,0a.71.71,0,0,1,.2,0,2,2,0,0,1,.39.18,1.81,1.81,0,0,1,.34.26.46.46,0,0,1,.07.22.31.31,0,0,1,0,.17.25.25,0,0,1-.13.12.48.48,0,0,1-.18,0,.49.49,0,0,1-.23-.06,1.24,1.24,0,0,0-.31-.24.61.61,0,0,0-.28-.07.6.6,0,0,0-.34.11.84.84,0,0,0-.27.29,1.38,1.38,0,0,0-.18.41,1.43,1.43,0,0,0-.07.46,1.06,1.06,0,0,0,0,.25.61.61,0,0,0,.07.24.76.76,0,0,0,.25.34.61.61,0,0,0,.34.1.6.6,0,0,0,.27-.07.94.94,0,0,0,.27-.2Z"/></g><g class="cls-3"><path class="cls-4" d="M68.19,25.66a.44.44,0,0,1,.22,0,.35.35,0,0,1,.18.05.43.43,0,0,1,.11.12.26.26,0,0,1,0,.15.3.3,0,0,1,0,.16.42.42,0,0,1-.17.15,3.85,3.85,0,0,1-.68.32,2.14,2.14,0,0,1-.74.13,1.72,1.72,0,0,1-.44-.06,1.35,1.35,0,0,1-.42-.2,1.53,1.53,0,0,1-.5-.62,1.78,1.78,0,0,1-.18-.78,1.94,1.94,0,0,1,.16-.75,1.34,1.34,0,0,1,.49-.59,2.52,2.52,0,0,1,.59-.3,1.83,1.83,0,0,1,.66-.11,2,2,0,0,1,.35,0,.87.87,0,0,1,.31.14.88.88,0,0,1,.25.22,1.22,1.22,0,0,1,.17.29.91.91,0,0,1,.06.32.64.64,0,0,1,0,.2.46.46,0,0,1-.08.19.92.92,0,0,1-.31.31,2,2,0,0,1-.43.23,3.39,3.39,0,0,1-.48.17l-.47.12-.3.08h-.08a.81.81,0,0,0,.31.35.75.75,0,0,0,.48.1,1.22,1.22,0,0,0,.5-.14A3.67,3.67,0,0,0,68.19,25.66ZM66.8,24.15a.87.87,0,0,0-.37.34,1.07,1.07,0,0,0-.13.48l.07,0,.17-.05.33-.1.23-.06.3-.1.29-.13a.5.5,0,0,0,.18-.17.38.38,0,0,0-.1-.3A.5.5,0,0,0,67.5,24a1.24,1.24,0,0,0-.37.06Z"/></g><g class="cls-3"><path class="cls-4" d="M69.57,24a.59.59,0,0,1-.2-.17.27.27,0,0,1-.06-.17.32.32,0,0,1,.1-.22.4.4,0,0,1,.27-.09.73.73,0,0,1,.26.06.9.9,0,0,1,.24.15,2.05,2.05,0,0,1,.47-.3,1.11,1.11,0,0,1,.5-.12.84.84,0,0,1,.23,0,1,1,0,0,1,.3.12.86.86,0,0,1,.26.2.4.4,0,0,1,.12.29A.29.29,0,0,1,72,24a.37.37,0,0,1-.25.09.29.29,0,0,1-.17,0L71.4,24l-.12-.1a.24.24,0,0,0-.13,0,.41.41,0,0,0-.2.06,1.42,1.42,0,0,0-.23.14l-.22.18-.18.18v2a.37.37,0,0,1-.13.28.38.38,0,0,1-.24.09.36.36,0,0,1-.24-.09.4.4,0,0,1-.13-.26V24Z"/></g><g class="cls-3"><path class="cls-4" d="M74.76,25.66a.47.47,0,0,1,.23,0,.34.34,0,0,1,.17.05.25.25,0,0,1,.11.12.27.27,0,0,1,0,.15.25.25,0,0,1-.06.16.39.39,0,0,1-.16.15,3.64,3.64,0,0,1-.69.32,2.08,2.08,0,0,1-.73.13,1.74,1.74,0,0,1-.45-.06,1.35,1.35,0,0,1-.42-.2,1.51,1.51,0,0,1-.49-.62,1.78,1.78,0,0,1-.18-.78,1.93,1.93,0,0,1,.15-.75,1.36,1.36,0,0,1,.5-.59,2.34,2.34,0,0,1,.59-.3A1.81,1.81,0,0,1,74,23.3a2.19,2.19,0,0,1,.36,0,1,1,0,0,1,.31.14,1.27,1.27,0,0,1,.25.22,1.18,1.18,0,0,1,.16.29.91.91,0,0,1,.06.32,1.23,1.23,0,0,1,0,.2.64.64,0,0,1-.08.19,1,1,0,0,1-.31.31,2.22,2.22,0,0,1-.43.23,4,4,0,0,1-.49.17l-.46.12-.3.08H73a.85.85,0,0,0,.3.35.75.75,0,0,0,.48.1,1.26,1.26,0,0,0,.51-.14A3,3,0,0,0,74.76,25.66Zm-1.38-1.51a.82.82,0,0,0-.37.34,1.08,1.08,0,0,0-.14.48L73,25l.17-.05.32-.1.23-.06.31-.1.28-.13a.43.43,0,0,0,.18-.17.32.32,0,0,0-.1-.3.46.46,0,0,0-.27-.08,1.29,1.29,0,0,0-.37.06Z"/></g><g class="cls-3"><path class="cls-4" d="M78.86,26.24a.31.31,0,0,1,0,.21.32.32,0,0,1-.1.17.35.35,0,0,1-.2.07.5.5,0,0,1-.26-.05l-.12-.13a.47.47,0,0,1-.09-.12,1.54,1.54,0,0,1-.51.26,2.12,2.12,0,0,1-.52.06,1.67,1.67,0,0,1-.39-.05,1,1,0,0,1-.39-.17,1.11,1.11,0,0,1-.41-.48,1.45,1.45,0,0,1-.12-.59,2,2,0,0,1,.09-.6,2.3,2.3,0,0,1,.26-.52,2.38,2.38,0,0,1,.38-.45,3.32,3.32,0,0,1,.47-.37l.15-.06.21-.07a1,1,0,0,1,.25-.06l.25,0a1.42,1.42,0,0,1,.42.06.41.41,0,0,1,.26.27v.93c0,.18,0,.36,0,.55a4.87,4.87,0,0,0,.06.55.44.44,0,0,0,.07.2,1,1,0,0,0,.11.2h0l.08.14S78.87,26.23,78.86,26.24Zm-1-.54a3.18,3.18,0,0,1-.07-.55c0-.18,0-.37,0-.56s0-.25,0-.35,0-.21,0-.31a.84.84,0,0,0-.26.07l-.19.07a1.27,1.27,0,0,0-.36.26,1.41,1.41,0,0,0-.27.37,2,2,0,0,0-.16.43,1.24,1.24,0,0,0,0,.43.56.56,0,0,0,.12.27.6.6,0,0,0,.22.17.67.67,0,0,0,.28.06.87.87,0,0,0,.28,0A3.11,3.11,0,0,0,77.84,25.7Z"/></g><g class="cls-3"><path class="cls-4" d="M80.35,26.18a.41.41,0,0,1,.2.31.29.29,0,0,1,0,.16.34.34,0,0,1-.12.12.37.37,0,0,1-.18.05.47.47,0,0,1-.22-.05l-.32-.22a.22.22,0,0,1-.09-.11.39.39,0,0,1,0-.14V22.16a.52.52,0,0,1,.13-.23.38.38,0,0,1,.23-.08.35.35,0,0,1,.22.08.37.37,0,0,1,.15.21v4l0,0Z"/></g></g></g></g></g></g></g></svg>