<svg xmlns="http://www.w3.org/2000/svg" viewBox="0 0 710.44 173.45"><defs><style>.cls-1{fill:#581412;}.cls-2{fill:#511114;}.cls-3{fill:#4d1010;}.cls-4{fill:#1d1d1b;}.cls-5{fill:#6b150f;}.cls-6{fill:#761610;}.cls-7{fill:#711510;}.cls-8{fill:#6e160e;}.cls-9{fill:#b4181a;}.cls-10{fill:#d01118;}.cls-11{fill:#c8151a;}.cls-12{fill:#bc1719;}.cls-13{fill:#fff;}.cls-14{fill:#d90e19;}.cls-15{fill:#020303;}</style></defs><g id="Livello_2" data-name="Livello 2"><g id="Livello_1-2" data-name="Livello 1"><rect class="cls-1" x="129.17" y="108.87" width="64.59" height="64.59"/><rect class="cls-2" x="64.59" y="108.87" width="64.59" height="64.59"/><path class="cls-3" d="M10.32,108.87H64.59a0,0,0,0,1,0,0v64.59a0,0,0,0,1,0,0H10.32A10.32,10.32,0,0,1,0,163.14V119.19a10.32,10.32,0,0,1,10.32-10.32Z"/><rect class="cls-4" x="193.76" y="108.87" width="64.59" height="64.59"/><rect class="cls-4" x="193.76" y="108.87" width="64.59" height="64.59"/><rect class="cls-5" x="193.76" y="108.87" width="64.59" height="64.59"/><rect class="cls-6" x="387.51" y="108.87" width="64.59" height="64.59"/><rect class="cls-7" x="322.93" y="108.87" width="64.59" height="64.59"/><rect class="cls-8" x="258.34" y="108.87" width="64.59" height="64.59"/><rect class="cls-4" x="452.1" y="108.87" width="64.59" height="64.59"/><rect class="cls-4" x="452.1" y="108.87" width="64.59" height="64.59"/><rect class="cls-9" x="452.1" y="108.87" width="64.59" height="64.59"/><path class="cls-10" d="M645.86,108.87h54.47A10.12,10.12,0,0,1,710.44,119v44.35a10.12,10.12,0,0,1-10.12,10.12H645.86a0,0,0,0,1,0,0V108.87A0,0,0,0,1,645.86,108.87Z"/><rect class="cls-11" x="581.27" y="108.87" width="64.59" height="64.59"/><rect class="cls-12" x="516.69" y="108.87" width="64.59" height="64.59"/><path class="cls-13" d="M13.86.84H239.73a0,0,0,0,1,0,0v90.4a0,0,0,0,1,0,0H13.86A12.47,12.47,0,0,1,1.39,78.78V13.31A12.47,12.47,0,0,1,13.86.84Z"/><path class="cls-14" d="M473.64,0h225a11.66,11.66,0,0,1,11.66,11.66V78.74A11.66,11.66,0,0,1,698.65,90.4h-225a0,0,0,0,1,0,0V0A0,0,0,0,1,473.64,0Z"/><rect class="cls-15" x="239.73" width="233.91" height="90.4"/><path class="cls-13" d="M313.6,46.62h9.87l-.61,2H313Zm3.73-8.11h2.13L315.82,52.3H313.7Zm-2.64,3.6h9.87l-.62,2h-9.87Zm7-3.6h2.12L320.19,52.3h-2.12Z"/><path class="cls-13" d="M326.34,45.41a9.91,9.91,0,0,1,.45-3.14A6.47,6.47,0,0,1,328,40a5.18,5.18,0,0,1,6-1.34A5,5,0,0,1,335.85,40a6.31,6.31,0,0,1,1.24,2.23,9.91,9.91,0,0,1,.45,3.14,10.41,10.41,0,0,1-.45,3.27,5.89,5.89,0,0,1-1.24,2.21,4.73,4.73,0,0,1-1.79,1.25,5.66,5.66,0,0,1-4.23,0,4.85,4.85,0,0,1-1.8-1.25,6,6,0,0,1-1.24-2.21A10.41,10.41,0,0,1,326.34,45.41Zm3.13,0a8.54,8.54,0,0,0,.3,2.47,3.09,3.09,0,0,0,.86,1.44,2,2,0,0,0,2.63,0,3,3,0,0,0,.84-1.45,8.51,8.51,0,0,0,.3-2.46,8.21,8.21,0,0,0-.3-2.38,3.36,3.36,0,0,0-.84-1.51,1.92,1.92,0,0,0-2.63,0,3.47,3.47,0,0,0-.86,1.51A8.21,8.21,0,0,0,329.47,45.41Z"/><path class="cls-13" d="M344.12,40.91a2.25,2.25,0,0,0-1.22.33A3.51,3.51,0,0,0,342,42a5,5,0,0,0-.55.79l-.21.43L338.58,42a2.37,2.37,0,0,1,.2-.55,5.08,5.08,0,0,1,.56-1,5.56,5.56,0,0,1,1-1,5.27,5.27,0,0,1,1.56-.86,6.56,6.56,0,0,1,2.2-.34,6.16,6.16,0,0,1,2.43.42,4,4,0,0,1,1.52,1.09,4.28,4.28,0,0,1,.8,1.46,5.16,5.16,0,0,1,.24,1.51,4.45,4.45,0,0,1-.36,1.74,7.2,7.2,0,0,1-.93,1.58,11.69,11.69,0,0,1-1.24,1.37,16.2,16.2,0,0,1-1.26,1.09c-.4.31-.74.55-1,.73l-.51.34H349V52.3h-9.9V49.82l.71-.51c.37-.27.82-.6,1.34-1s1.05-.83,1.61-1.31a20.15,20.15,0,0,0,1.57-1.47,9.5,9.5,0,0,0,1.19-1.5,2.62,2.62,0,0,0,.46-1.35,1.71,1.71,0,0,0-.49-1.37A2.07,2.07,0,0,0,344.12,40.91Z"/><path class="cls-13" d="M350.63,45.41a9.91,9.91,0,0,1,.45-3.14A6.47,6.47,0,0,1,352.32,40a5.18,5.18,0,0,1,6-1.34A5,5,0,0,1,360.14,40a6.31,6.31,0,0,1,1.24,2.23,9.92,9.92,0,0,1,.44,3.14,10.43,10.43,0,0,1-.44,3.27,5.89,5.89,0,0,1-1.24,2.21,4.73,4.73,0,0,1-1.79,1.25,5.66,5.66,0,0,1-4.23,0,4.85,4.85,0,0,1-1.8-1.25,6,6,0,0,1-1.24-2.21A10.41,10.41,0,0,1,350.63,45.41Zm3.13,0a8.54,8.54,0,0,0,.3,2.47,3,3,0,0,0,.86,1.44,2,2,0,0,0,2.63,0,3,3,0,0,0,.84-1.45,8.51,8.51,0,0,0,.3-2.46,8.21,8.21,0,0,0-.3-2.38,3.36,3.36,0,0,0-.84-1.51,1.92,1.92,0,0,0-2.63,0,3.38,3.38,0,0,0-.86,1.51A8.21,8.21,0,0,0,353.76,45.41Z"/><path class="cls-13" d="M363.27,41.26a3.17,3.17,0,0,1,.45-.94,4.16,4.16,0,0,1,.91-1,4.92,4.92,0,0,1,1.42-.77,5.78,5.78,0,0,1,1.95-.31,5.39,5.39,0,0,1,2.33.49,4,4,0,0,1,1.61,1.35,3.56,3.56,0,0,1,.58,2,3.14,3.14,0,0,1-.25,1.28,3,3,0,0,1-.65,1,2,2,0,0,1-.83.5,2.11,2.11,0,0,1,1,.47,3.39,3.39,0,0,1,.87,1.08,3.29,3.29,0,0,1,.37,1.6,4.22,4.22,0,0,1-.67,2.34,4.54,4.54,0,0,1-1.81,1.6,6.31,6.31,0,0,1-5.24,0,5.12,5.12,0,0,1-1.7-1.32,4.47,4.47,0,0,1-.84-1.52l2.86-1.42a3.64,3.64,0,0,0,.42.94,2.9,2.9,0,0,0,.77.83,1.79,1.79,0,0,0,1.09.34A2.16,2.16,0,0,0,369,49.6a1.9,1.9,0,0,0,.7-.68,2.05,2.05,0,0,0,.24-1,1.64,1.64,0,0,0-.27-1,1.7,1.7,0,0,0-.74-.58,2.75,2.75,0,0,0-1-.19h-.28V44H368a2.06,2.06,0,0,0,.87-.19,1.5,1.5,0,0,0,.83-1.41,1.55,1.55,0,0,0-.45-1.12,1.72,1.72,0,0,0-1.3-.47,2.19,2.19,0,0,0-.92.18,2.29,2.29,0,0,0-.65.46A2.9,2.9,0,0,0,366,42a2.19,2.19,0,0,0-.2.49Z"/><path class="cls-13" d="M374.26,45.41a9.91,9.91,0,0,1,.45-3.14A6.47,6.47,0,0,1,376,40a5.18,5.18,0,0,1,6-1.34A5,5,0,0,1,383.77,40,6.31,6.31,0,0,1,385,42.27a9.91,9.91,0,0,1,.45,3.14,10.41,10.41,0,0,1-.45,3.27,5.89,5.89,0,0,1-1.24,2.21A4.73,4.73,0,0,1,382,52.14a5.66,5.66,0,0,1-4.23,0,4.85,4.85,0,0,1-1.8-1.25,6,6,0,0,1-1.24-2.21A10.41,10.41,0,0,1,374.26,45.41Zm3.13,0a8.54,8.54,0,0,0,.3,2.47,3.09,3.09,0,0,0,.86,1.44,2,2,0,0,0,2.63,0,3,3,0,0,0,.84-1.45,8.51,8.51,0,0,0,.3-2.46A8.21,8.21,0,0,0,382,43a3.36,3.36,0,0,0-.84-1.51,1.92,1.92,0,0,0-2.63,0,3.47,3.47,0,0,0-.86,1.51A8.21,8.21,0,0,0,377.39,45.41Z"/><path class="cls-13" d="M395.07,38.51v8.15h1.59v2.73h-1.59V52.3H392V49.39h-5.68V46.92l5.21-8.41ZM392,46.66V42.51h0l-2.52,4.15Z"/><path class="cls-13" d="M552.36,46.62h9.87l-.62,2h-9.87Zm3.73-8.11h2.13L554.57,52.3h-2.12Zm-2.65,3.6h9.88l-.62,2h-9.87Zm7-3.6h2.12L559,52.3h-2.12Z"/><path class="cls-13" d="M568.05,48.68a1.56,1.56,0,0,0,.29.82,1.64,1.64,0,0,0,.72.56,2.86,2.86,0,0,0,1.11.2,4.55,4.55,0,0,0,1.09-.12,3.67,3.67,0,0,0,.85-.32,2.37,2.37,0,0,0,.56-.39l1.23,2a3,3,0,0,1-.74.54,4.76,4.76,0,0,1-1.25.43,8.74,8.74,0,0,1-1.95.18,5.75,5.75,0,0,1-2.54-.54,4,4,0,0,1-1.73-1.56,4.81,4.81,0,0,1-.63-2.54,4.69,4.69,0,0,1,.54-2.26,4,4,0,0,1,1.59-1.59,5,5,0,0,1,2.52-.59,5.44,5.44,0,0,1,2.43.51,3.62,3.62,0,0,1,1.58,1.52,5.15,5.15,0,0,1,.55,2.51v.33a1.34,1.34,0,0,1,0,.34ZM571.3,47a1.68,1.68,0,0,0-.18-.67,1.46,1.46,0,0,0-.5-.55,1.59,1.59,0,0,0-.86-.21,1.75,1.75,0,0,0-.89.21,1.52,1.52,0,0,0-.54.53,1.6,1.6,0,0,0-.22.69Z"/><path class="cls-13" d="M577.49,42.46l-2.19,1.15v-3l3.84-2.14h1.48V52.3h-3.13Z"/><path class="cls-13" d="M584.33,42.46l-2.19,1.15v-3L586,38.51h1.47V52.3h-3.13Z"/><path class="cls-13" d="M589.18,45.41a9.62,9.62,0,0,1,.46-3.14A6.31,6.31,0,0,1,590.88,40a5,5,0,0,1,1.8-1.34,5.2,5.2,0,0,1,4.23,0A5,5,0,0,1,598.7,40a6.46,6.46,0,0,1,1.23,2.23,9.91,9.91,0,0,1,.45,3.14,10.41,10.41,0,0,1-.45,3.27,6,6,0,0,1-1.23,2.21,4.73,4.73,0,0,1-1.79,1.25,5.66,5.66,0,0,1-4.23,0,4.77,4.77,0,0,1-1.8-1.25,5.89,5.89,0,0,1-1.24-2.21A10.11,10.11,0,0,1,589.18,45.41Zm3.14,0a8.54,8.54,0,0,0,.3,2.47,3,3,0,0,0,.86,1.44,2,2,0,0,0,2.62,0,3,3,0,0,0,.85-1.45,8.51,8.51,0,0,0,.3-2.46A8.21,8.21,0,0,0,597,43a3.37,3.37,0,0,0-.85-1.51,1.91,1.91,0,0,0-2.62,0,3.38,3.38,0,0,0-.86,1.51A8.21,8.21,0,0,0,592.32,45.41Z"/><path class="cls-13" d="M603.57,42.46l-2.2,1.15v-3l3.85-2.14h1.47V52.3h-3.12Z"/><path class="cls-13" d="M609.82,52.3l4.26-5a1.24,1.24,0,0,1-.44.25,2.39,2.39,0,0,1-.83.12,4.21,4.21,0,0,1-2.07-.56,4.35,4.35,0,0,1-1.64-1.58,4.51,4.51,0,0,1-.64-2.46,4.58,4.58,0,0,1,.69-2.5A5,5,0,0,1,611,38.88a5.29,5.29,0,0,1,2.57-.63,5.59,5.59,0,0,1,2.6.6,4.59,4.59,0,0,1,1.85,1.7,5,5,0,0,1,.7,2.66,6.6,6.6,0,0,1-.56,2.86,10,10,0,0,1-1.26,2l-3.43,4.2Zm3.78-7.11a2.09,2.09,0,0,0,1.1-.3,2.3,2.3,0,0,0,.79-.79,2.19,2.19,0,0,0,0-2.21,2.17,2.17,0,0,0-.8-.79,2.19,2.19,0,0,0-2.21,0,2.24,2.24,0,0,0-.79.8,2.06,2.06,0,0,0-.3,1.1,2.09,2.09,0,0,0,.3,1.1,2.24,2.24,0,0,0,.8.79A2.1,2.1,0,0,0,613.6,45.19Z"/><path class="cls-13" d="M669,72.4l-2,5h-2.91l-2.85-8.58h3.38L666,74l2-5H670L672,74l1.38-5.18h3.38l-2.83,8.58H671Z"/><path class="cls-13" d="M680.14,73.75a1.57,1.57,0,0,0,.3.82,1.64,1.64,0,0,0,.72.56,2.62,2.62,0,0,0,1.11.2,4.61,4.61,0,0,0,1.09-.12,3.59,3.59,0,0,0,.84-.31,2.46,2.46,0,0,0,.56-.39l1.23,2a2.83,2.83,0,0,1-.74.54,4.53,4.53,0,0,1-1.24.44,9.6,9.6,0,0,1-2,.17,5.85,5.85,0,0,1-2.54-.53,4.07,4.07,0,0,1-1.74-1.57,4.9,4.9,0,0,1-.62-2.54,4.72,4.72,0,0,1,.54-2.26,4,4,0,0,1,1.59-1.59,5,5,0,0,1,2.52-.59,5.44,5.44,0,0,1,2.43.51,3.62,3.62,0,0,1,1.58,1.52,5.16,5.16,0,0,1,.55,2.52v.32a2,2,0,0,1,0,.34Zm3.25-1.66a1.55,1.55,0,0,0-.17-.67,1.39,1.39,0,0,0-.51-.54,1.47,1.47,0,0,0-.85-.22,1.72,1.72,0,0,0-.89.21,1.45,1.45,0,0,0-.54.53,1.6,1.6,0,0,0-.22.69Z"/><path class="cls-13" d="M688,77.37V63h3.17v7.06a1.72,1.72,0,0,1,.49-.65,3.59,3.59,0,0,1,1-.6,4,4,0,0,1,1.46-.26,3.79,3.79,0,0,1,2.17.62,4.14,4.14,0,0,1,1.43,1.64,5.47,5.47,0,0,1,0,4.57A4.14,4.14,0,0,1,696.29,77a3.79,3.79,0,0,1-2.17.61,3.34,3.34,0,0,1-1.3-.25,3.6,3.6,0,0,1-1.05-.62,2.83,2.83,0,0,1-.66-.77v1.39Zm7.13-4.28a2.14,2.14,0,0,0-.25-1,1.86,1.86,0,0,0-1.7-1,2.07,2.07,0,0,0-1,.26,1.94,1.94,0,0,0-.71.74,2.18,2.18,0,0,0,0,2.1,1.89,1.89,0,0,0,.71.72,2,2,0,0,0,1,.26,1.89,1.89,0,0,0,1-.26,1.94,1.94,0,0,0,.7-.72A2.14,2.14,0,0,0,695.1,73.09Z"/><path class="cls-15" d="M90.24,49.23h9.88l-.62,2H89.63ZM94,41.12h2.13L92.46,54.91H90.34Zm-2.65,3.6h9.87l-.61,2.05H90.72Zm7-3.6h2.12L96.84,54.91H94.72Z"/><path class="cls-15" d="M102.75,46.33h1.42V44.06A3.88,3.88,0,0,1,104.7,42a3.62,3.62,0,0,1,1.38-1.26,3.81,3.81,0,0,1,1.76-.43,3.93,3.93,0,0,1,1.72.3,4.83,4.83,0,0,1,.74.45l-1.21,2.33a1.28,1.28,0,0,0-.26-.24.92.92,0,0,0-.55-.15,1,1,0,0,0-.44.11.82.82,0,0,0-.36.41,1.94,1.94,0,0,0-.14.86v2h2.12v2.61h-2.12v6h-3.17v-6h-1.42Z"/><path class="cls-15" d="M110.13,46.33h1.42V44.06a3.8,3.8,0,0,1,.53-2.09,3.48,3.48,0,0,1,1.38-1.26,3.77,3.77,0,0,1,1.75-.43,3.87,3.87,0,0,1,1.72.3,5.79,5.79,0,0,1,.75.45l-1.21,2.33a2.34,2.34,0,0,0-.26-.24,1,1,0,0,0-.56-.15,1.06,1.06,0,0,0-.44.11.92.92,0,0,0-.36.41,2.1,2.1,0,0,0-.14.86v2h2.12v2.61h-2.12v6h-3.16v-6h-1.42Z"/><path class="cls-15" d="M117.5,46.33h1.42V44.06a3.88,3.88,0,0,1,.53-2.09,3.62,3.62,0,0,1,1.38-1.26,3.81,3.81,0,0,1,1.76-.43,3.93,3.93,0,0,1,1.72.3,4.83,4.83,0,0,1,.74.45l-1.21,2.33a1.28,1.28,0,0,0-.26-.24A.92.92,0,0,0,123,43a1,1,0,0,0-.44.11.82.82,0,0,0-.36.41,1.94,1.94,0,0,0-.14.86v2h2.12v2.61h-2.12v6h-3.17v-6H117.5Z"/><path class="cls-15" d="M124.88,46.33h1.42V44.06a3.88,3.88,0,0,1,.53-2.09,3.62,3.62,0,0,1,1.38-1.26,3.77,3.77,0,0,1,1.75-.43,3.87,3.87,0,0,1,1.72.3,4.6,4.6,0,0,1,.75.45l-1.21,2.33a1.66,1.66,0,0,0-.26-.24,1,1,0,0,0-.56-.15,1.06,1.06,0,0,0-.44.11.92.92,0,0,0-.36.41,2.1,2.1,0,0,0-.14.86v2h2.12v2.61h-2.12v6H126.3v-6h-1.42Z"/><path class="cls-15" d="M132.25,46.33h1.42V44.06a3.8,3.8,0,0,1,.54-2.09,3.52,3.52,0,0,1,1.37-1.26,3.81,3.81,0,0,1,1.76-.43,3.93,3.93,0,0,1,1.72.3,5.79,5.79,0,0,1,.75.45l-1.22,2.33a1.28,1.28,0,0,0-.26-.24.92.92,0,0,0-.55-.15,1,1,0,0,0-.44.11.82.82,0,0,0-.36.41,2.1,2.1,0,0,0-.14.86v2H139v2.61h-2.12v6h-3.17v-6h-1.42Z"/><path class="cls-15" d="M139.63,46.33h1.42V44.06a3.88,3.88,0,0,1,.53-2.09A3.62,3.62,0,0,1,143,40.71a3.81,3.81,0,0,1,1.76-.43,3.85,3.85,0,0,1,1.71.3,4.6,4.6,0,0,1,.75.45L146,43.36a1.66,1.66,0,0,0-.26-.24,1,1,0,0,0-.56-.15,1,1,0,0,0-.43.11.82.82,0,0,0-.36.41,1.92,1.92,0,0,0-.15.86v2h2.13v2.61h-2.13v6h-3.16v-6h-1.42Z"/></g></g></svg>