<svg xmlns="http://www.w3.org/2000/svg" viewBox="0 0 332.98 199.25"><defs><style>.cls-1{fill:#581412;}.cls-2{fill:#511114;}.cls-3{fill:#4d1010;}.cls-4{fill:#1d1d1b;}.cls-5{fill:#6b150f;}.cls-6{fill:#761610;}.cls-7{fill:#711510;}.cls-8{fill:#6e160e;}.cls-9{fill:#ac181a;}.cls-10{fill:#c81118;}.cls-11{fill:#c0151a;}.cls-12{fill:#b41719;}.cls-13{fill:#fff;}.cls-14{fill:#d10e19;}.cls-15{fill:#020303;}</style></defs><g id="Livello_2" data-name="Livello 2"><g id="Livello_1-2" data-name="Livello 1"><rect class="cls-1" x="60.54" y="125.06" width="30.27" height="74.19"/><rect class="cls-2" x="30.27" y="125.06" width="30.27" height="74.19"/><path class="cls-3" d="M10.32,125.06h20a0,0,0,0,1,0,0v74.19a0,0,0,0,1,0,0h-20A10.32,10.32,0,0,1,0,188.93V135.37A10.32,10.32,0,0,1,10.32,125.06Z"/><rect class="cls-4" x="90.81" y="125.06" width="30.27" height="74.19"/><rect class="cls-4" x="90.81" y="125.06" width="30.27" height="74.19"/><rect class="cls-5" x="90.81" y="125.06" width="30.27" height="74.19"/><rect class="cls-6" x="181.62" y="125.06" width="30.27" height="74.19"/><rect class="cls-7" x="151.35" y="125.06" width="30.27" height="74.19"/><rect class="cls-8" x="121.08" y="125.06" width="30.27" height="74.19"/><rect class="cls-4" x="211.89" y="125.06" width="30.27" height="74.19"/><rect class="cls-4" x="211.89" y="125.06" width="30.27" height="74.19"/><rect class="cls-9" x="211.89" y="125.06" width="30.27" height="74.19"/><path class="cls-10" d="M302.71,125.06h20.15A10.12,10.12,0,0,1,333,135.17v54a10.12,10.12,0,0,1-10.12,10.12H302.71a0,0,0,0,1,0,0V125.06A0,0,0,0,1,302.71,125.06Z"/><rect class="cls-11" x="272.44" y="125.06" width="30.27" height="74.19"/><rect class="cls-12" x="242.16" y="125.06" width="30.27" height="74.19"/><path class="cls-13" d="M13.12,1h99.24a0,0,0,0,1,0,0V104.81a0,0,0,0,1,0,0H13.12A12.47,12.47,0,0,1,.65,92.34V13.43A12.47,12.47,0,0,1,13.12,1Z"/><path class="cls-14" d="M222,0h99.26a11.66,11.66,0,0,1,11.66,11.66V92.18a11.66,11.66,0,0,1-11.66,11.66H222a0,0,0,0,1,0,0V0A0,0,0,0,1,222,0Z"/><rect class="cls-15" x="112.36" width="109.63" height="103.84"/><path class="cls-15" d="M28.66,55.51h9.87l-.62,2H28Zm3.73-8.12h2.13L30.87,61.18H28.75ZM29.74,51h9.88L39,53H29.13Zm7-3.61h2.12L35.25,61.18H33.13Z"/><path class="cls-15" d="M41.16,52.61h1.42V50.34a3.77,3.77,0,0,1,.54-2.09A3.48,3.48,0,0,1,44.49,47,4.4,4.4,0,0,1,48,46.86a4.11,4.11,0,0,1,.75.45L47.5,49.64a.88.88,0,0,0-.26-.24.86.86,0,0,0-.55-.16.91.91,0,0,0-.44.12.79.79,0,0,0-.36.4,2.13,2.13,0,0,0-.14.86v2h2.12v2.61H45.75v6H42.58v-6H41.16Z"/><path class="cls-15" d="M48.54,52.61H50V50.34a3.86,3.86,0,0,1,.53-2.09A3.57,3.57,0,0,1,51.87,47a4.37,4.37,0,0,1,3.47-.12,3.47,3.47,0,0,1,.75.45l-1.21,2.33a1,1,0,0,0-.26-.24.89.89,0,0,0-.56-.16.94.94,0,0,0-.44.12.89.89,0,0,0-.36.4,2.13,2.13,0,0,0-.14.86v2h2.12v2.61H53.12v6H50v-6H48.54Z"/><path class="cls-15" d="M55.91,52.61h1.42V50.34a3.77,3.77,0,0,1,.54-2.09A3.44,3.44,0,0,1,59.25,47,3.86,3.86,0,0,1,61,46.56a3.9,3.9,0,0,1,1.72.3,4.11,4.11,0,0,1,.75.45l-1.22,2.33A.88.88,0,0,0,62,49.4a.86.86,0,0,0-.55-.16.91.91,0,0,0-.44.12.79.79,0,0,0-.36.4,2.13,2.13,0,0,0-.14.86v2h2.12v2.61H60.5v6H57.33v-6H55.91Z"/><path class="cls-15" d="M63.29,52.61h1.42V50.34a3.86,3.86,0,0,1,.53-2.09A3.57,3.57,0,0,1,66.62,47a4.4,4.4,0,0,1,3.48-.12,3.59,3.59,0,0,1,.74.45l-1.21,2.33a.88.88,0,0,0-.26-.24.86.86,0,0,0-.55-.16.88.88,0,0,0-.44.12.79.79,0,0,0-.36.4,2,2,0,0,0-.14.86v2H70v2.61H67.88v6H64.71v-6H63.29Z"/><path class="cls-15" d="M70.66,52.61h1.43V50.34a3.77,3.77,0,0,1,.53-2.09A3.44,3.44,0,0,1,74,47a4.37,4.37,0,0,1,3.47-.12,4.11,4.11,0,0,1,.75.45L77,49.64a1.15,1.15,0,0,0-.27-.24.86.86,0,0,0-.55-.16.91.91,0,0,0-.44.12.89.89,0,0,0-.36.4,2.13,2.13,0,0,0-.14.86v2h2.12v2.61H75.25v6H72.09v-6H70.66Z"/><path class="cls-15" d="M78,52.61h1.42V50.34A3.86,3.86,0,0,1,80,48.25,3.57,3.57,0,0,1,81.37,47a4.4,4.4,0,0,1,3.48-.12,3.59,3.59,0,0,1,.74.45l-1.21,2.33a.88.88,0,0,0-.26-.24.86.86,0,0,0-.55-.16.88.88,0,0,0-.44.12.79.79,0,0,0-.36.4,2,2,0,0,0-.14.86v2h2.12v2.61H82.63v6H79.46v-6H78Z"/><path class="cls-13" d="M123.93,55.51h9.87l-.62,2h-9.87Zm3.73-8.12h2.13l-3.65,13.79H124ZM125,51h9.88l-.62,2H124.4Zm7-3.61h2.12l-3.65,13.79H128.4Z"/><path class="cls-13" d="M136.66,54.3a9.58,9.58,0,0,1,.46-3.14,6.52,6.52,0,0,1,1.24-2.24,5.37,5.37,0,0,1,1.8-1.34,5.15,5.15,0,0,1,6,1.34,6.5,6.5,0,0,1,1.23,2.24,9.86,9.86,0,0,1,.45,3.14,10.5,10.5,0,0,1-.45,3.27,6.09,6.09,0,0,1-1.23,2.21A5,5,0,0,1,144.39,61a5.79,5.79,0,0,1-4.23,0,5.09,5.09,0,0,1-1.8-1.25,6.11,6.11,0,0,1-1.24-2.21A10.19,10.19,0,0,1,136.66,54.3Zm3.14,0a8.51,8.51,0,0,0,.3,2.46,3,3,0,0,0,.86,1.45,2.06,2.06,0,0,0,2.62,0,3,3,0,0,0,.85-1.45,8.51,8.51,0,0,0,.3-2.46,8.28,8.28,0,0,0-.3-2.39,3.39,3.39,0,0,0-.85-1.5,1.91,1.91,0,0,0-2.62,0,3.4,3.4,0,0,0-.86,1.5A8.28,8.28,0,0,0,139.8,54.3Z"/><path class="cls-13" d="M154.44,49.79a2.22,2.22,0,0,0-1.21.33,3.72,3.72,0,0,0-.89.77,5,5,0,0,0-.55.8c-.13.24-.19.38-.21.42l-2.67-1.22a3.22,3.22,0,0,1,.19-.55,5.51,5.51,0,0,1,.57-1,5.31,5.31,0,0,1,1-1.06,5.49,5.49,0,0,1,1.56-.85,6.3,6.3,0,0,1,2.19-.34,6.09,6.09,0,0,1,2.43.42,4,4,0,0,1,1.53,1.09,4.19,4.19,0,0,1,.8,1.46,5.09,5.09,0,0,1,.24,1.5,4.37,4.37,0,0,1-.36,1.74,7.56,7.56,0,0,1-.94,1.59,11.54,11.54,0,0,1-1.23,1.37q-.66.61-1.26,1.08c-.4.31-.74.56-1,.74s-.44.29-.5.34h5.19v2.71h-9.89V58.71l.71-.52c.37-.26.81-.59,1.33-1s1.06-.83,1.62-1.31,1.08-1,1.57-1.48a9.83,9.83,0,0,0,1.18-1.49,2.56,2.56,0,0,0,.46-1.35,1.68,1.68,0,0,0-.48-1.37A2.1,2.1,0,0,0,154.44,49.79Z"/><path class="cls-13" d="M161,54.3a9.58,9.58,0,0,1,.46-3.14,6.36,6.36,0,0,1,1.24-2.24,5.15,5.15,0,0,1,7.82,0,6.5,6.5,0,0,1,1.23,2.24,9.86,9.86,0,0,1,.45,3.14,10.5,10.5,0,0,1-.45,3.27,6.09,6.09,0,0,1-1.23,2.21A5,5,0,0,1,168.68,61a5.79,5.79,0,0,1-4.23,0,5,5,0,0,1-1.8-1.25,6,6,0,0,1-1.24-2.21A10.19,10.19,0,0,1,161,54.3Zm3.14,0a8.51,8.51,0,0,0,.3,2.46,3,3,0,0,0,.86,1.45,2.06,2.06,0,0,0,2.62,0,3,3,0,0,0,.85-1.45,8.51,8.51,0,0,0,.3-2.46,8.28,8.28,0,0,0-.3-2.39,3.39,3.39,0,0,0-.85-1.5,1.91,1.91,0,0,0-2.62,0,3.4,3.4,0,0,0-.86,1.5A8.28,8.28,0,0,0,164.09,54.3Z"/><path class="cls-13" d="M173.59,50.15a3.76,3.76,0,0,1,.45-.94,4,4,0,0,1,.92-1,4.8,4.8,0,0,1,1.42-.78,5.79,5.79,0,0,1,2-.3,5.28,5.28,0,0,1,2.33.49,3.86,3.86,0,0,1,1.6,1.35,3.54,3.54,0,0,1,.59,2,3.36,3.36,0,0,1-.25,1.28,3,3,0,0,1-.65,1,1.76,1.76,0,0,1-.84.5,2.12,2.12,0,0,1,1,.47,3.33,3.33,0,0,1,.88,1.09,3.37,3.37,0,0,1,.36,1.6,4.18,4.18,0,0,1-.66,2.33,4.64,4.64,0,0,1-1.81,1.61,6.41,6.41,0,0,1-5.24,0A5.19,5.19,0,0,1,174,59.56a4.44,4.44,0,0,1-.84-1.51L176,56.63a3.64,3.64,0,0,0,.42.94,2.89,2.89,0,0,0,.77.83,1.83,1.83,0,0,0,1.08.34,2.28,2.28,0,0,0,1.09-.25,1.76,1.76,0,0,0,.69-.69,1.93,1.93,0,0,0,.25-1,1.57,1.57,0,0,0-1-1.54,2.61,2.61,0,0,0-1-.19H178V52.83h.36a1.84,1.84,0,0,0,.86-.19,1.42,1.42,0,0,0,.61-.55,1.59,1.59,0,0,0,.23-.85,1.57,1.57,0,0,0-.45-1.13,1.74,1.74,0,0,0-1.31-.46,2.17,2.17,0,0,0-.91.18,2.11,2.11,0,0,0-.65.46,2.92,2.92,0,0,0-.42.56,2.14,2.14,0,0,0-.19.5Z"/><path class="cls-13" d="M184.58,54.3a9.58,9.58,0,0,1,.46-3.14,6.52,6.52,0,0,1,1.24-2.24,5.37,5.37,0,0,1,1.8-1.34,5.15,5.15,0,0,1,6,1.34,6.5,6.5,0,0,1,1.23,2.24,9.86,9.86,0,0,1,.45,3.14,10.5,10.5,0,0,1-.45,3.27,6.09,6.09,0,0,1-1.23,2.21A5,5,0,0,1,192.31,61a5.79,5.79,0,0,1-4.23,0,5.09,5.09,0,0,1-1.8-1.25A6.11,6.11,0,0,1,185,57.57,10.19,10.19,0,0,1,184.58,54.3Zm3.14,0a8.51,8.51,0,0,0,.3,2.46,3,3,0,0,0,.86,1.45,2.06,2.06,0,0,0,2.62,0,3,3,0,0,0,.85-1.45,8.51,8.51,0,0,0,.3-2.46,8.28,8.28,0,0,0-.3-2.39,3.39,3.39,0,0,0-.85-1.5,1.91,1.91,0,0,0-2.62,0,3.4,3.4,0,0,0-.86,1.5A8.28,8.28,0,0,0,187.72,54.3Z"/><path class="cls-13" d="M205.39,47.39v8.16H207v2.73h-1.6v2.9h-3.11v-2.9H196.6V55.8l5.21-8.41Zm-3.11,8.16V51.39h0l-2.52,4.16Z"/><path class="cls-13" d="M244,55.76h9.87l-.62,2h-9.87Zm3.73-8.12h2.13L246.2,61.43h-2.12Zm-2.65,3.61H255l-.62,2h-9.87Zm7-3.61h2.12l-3.65,13.79h-2.12Z"/><path class="cls-13" d="M259.68,57.82a1.59,1.59,0,0,0,.29.82,1.76,1.76,0,0,0,.72.56,2.86,2.86,0,0,0,1.11.2,4.55,4.55,0,0,0,1.09-.12,3.51,3.51,0,0,0,.85-.32,2.71,2.71,0,0,0,.56-.39l1.23,2a3.31,3.31,0,0,1-.74.55,4.81,4.81,0,0,1-1.24.43,9,9,0,0,1-2,.17,5.74,5.74,0,0,1-2.54-.53,4,4,0,0,1-1.73-1.57,4.77,4.77,0,0,1-.63-2.53,4.69,4.69,0,0,1,.54-2.26,4.05,4.05,0,0,1,1.59-1.59,5,5,0,0,1,2.52-.59,5.44,5.44,0,0,1,2.43.51,3.57,3.57,0,0,1,1.58,1.52,5.15,5.15,0,0,1,.56,2.51v.33a2.22,2.22,0,0,1,0,.34Zm3.25-1.66a1.64,1.64,0,0,0-.18-.67,1.39,1.39,0,0,0-.5-.55,1.59,1.59,0,0,0-.86-.21,1.69,1.69,0,0,0-.88.21,1.4,1.4,0,0,0-.55.53,1.65,1.65,0,0,0-.22.69Z"/><path class="cls-13" d="M269.12,51.6l-2.19,1.15v-3l3.84-2.14h1.48V61.43h-3.13Z"/><path class="cls-13" d="M276,51.6l-2.2,1.15v-3l3.85-2.14h1.47V61.43H276Z"/><path class="cls-13" d="M280.81,54.55a9.85,9.85,0,0,1,.46-3.14,6.52,6.52,0,0,1,1.24-2.24,5.2,5.2,0,0,1,1.8-1.33,5.17,5.17,0,0,1,6,1.33,6.5,6.5,0,0,1,1.23,2.24,9.86,9.86,0,0,1,.45,3.14,10.5,10.5,0,0,1-.45,3.27A6.09,6.09,0,0,1,290.33,60a4.85,4.85,0,0,1-1.79,1.25,5.79,5.79,0,0,1-4.23,0,5,5,0,0,1-1.8-1.25,6.11,6.11,0,0,1-1.24-2.21A10.48,10.48,0,0,1,280.81,54.55Zm3.14,0a8.46,8.46,0,0,0,.3,2.46,3,3,0,0,0,.86,1.45,1.94,1.94,0,0,0,1.31.48,1.91,1.91,0,0,0,1.31-.48,3,3,0,0,0,.85-1.45,8.51,8.51,0,0,0,.3-2.46,8.21,8.21,0,0,0-.3-2.38,3.37,3.37,0,0,0-.85-1.51,1.81,1.81,0,0,0-1.31-.52,1.84,1.84,0,0,0-1.31.52,3.38,3.38,0,0,0-.86,1.51A8.21,8.21,0,0,0,284,54.55Z"/><path class="cls-13" d="M295.2,51.6,293,52.75v-3l3.84-2.14h1.47V61.43H295.2Z"/><path class="cls-13" d="M301.46,61.43l4.25-5a1.3,1.3,0,0,1-.44.25,2.35,2.35,0,0,1-.83.12,4.24,4.24,0,0,1-2.07-.56,4.5,4.5,0,0,1-1.64-1.58,5,5,0,0,1,0-5A5,5,0,0,1,302.64,48a5.29,5.29,0,0,1,2.57-.63,5.68,5.68,0,0,1,2.6.59,4.61,4.61,0,0,1,1.85,1.71,4.83,4.83,0,0,1,.7,2.65,6.61,6.61,0,0,1-.56,2.87,9.66,9.66,0,0,1-1.26,2l-3.43,4.2Zm3.77-7.1a2.09,2.09,0,0,0,1.1-.3,2.22,2.22,0,0,0,.79-.79,2.19,2.19,0,0,0,0-2.21,2.12,2.12,0,0,0-.8-.8,2.18,2.18,0,0,0-1.1-.29,2.06,2.06,0,0,0-1.1.3,2.24,2.24,0,0,0-.8.79,2.19,2.19,0,0,0,0,2.21,2.33,2.33,0,0,0,.8.79A2.1,2.1,0,0,0,305.23,54.33Z"/><path class="cls-13" d="M294.15,81.53l-2,5h-2.92l-2.84-8.58h3.38l1.37,5.18,2-5h2.09l1.94,5,1.38-5.18h3.38l-2.84,8.58h-2.9Z"/><path class="cls-13" d="M305.33,82.89a1.49,1.49,0,0,0,.3.82,1.64,1.64,0,0,0,.72.56,2.77,2.77,0,0,0,1.1.2,4.63,4.63,0,0,0,1.1-.12,4.1,4.1,0,0,0,.84-.31,2.19,2.19,0,0,0,.56-.4l1.23,2a2.83,2.83,0,0,1-.74.54,4.35,4.35,0,0,1-1.24.43,8.9,8.9,0,0,1-2,.18,5.67,5.67,0,0,1-2.53-.54A4,4,0,0,1,303,84.66a4.81,4.81,0,0,1-.62-2.54,4.69,4.69,0,0,1,.54-2.26,3.93,3.93,0,0,1,1.59-1.59,5,5,0,0,1,2.51-.59,5.38,5.38,0,0,1,2.43.51A3.59,3.59,0,0,1,311,79.71a5.26,5.26,0,0,1,.55,2.51v.33a2.12,2.12,0,0,1,0,.34Zm3.25-1.66a1.53,1.53,0,0,0-.18-.67,1.38,1.38,0,0,0-.5-.55,1.57,1.57,0,0,0-.85-.21,1.7,1.7,0,0,0-.89.21,1.56,1.56,0,0,0-.55.53,1.73,1.73,0,0,0-.21.69Z"/><path class="cls-13" d="M313.16,86.51V72.13h3.17v7.05a1.7,1.7,0,0,1,.49-.64,3.84,3.84,0,0,1,1-.61,4,4,0,0,1,1.46-.25,3.72,3.72,0,0,1,2.17.62,4,4,0,0,1,1.42,1.64,5.37,5.37,0,0,1,0,4.57,4,4,0,0,1-1.42,1.64,3.87,3.87,0,0,1-2.17.61,3.34,3.34,0,0,1-1.3-.25,3.41,3.41,0,0,1-1.05-.63,2.8,2.8,0,0,1-.66-.76v1.39Zm7.13-4.29a2.14,2.14,0,0,0-.25-1,2,2,0,0,0-.7-.73,1.89,1.89,0,0,0-1-.26,2,2,0,0,0-1,.26,1.91,1.91,0,0,0-.71.73,2.18,2.18,0,0,0,0,2.1,1.91,1.91,0,0,0,.71.73,2.07,2.07,0,0,0,1,.26,2,2,0,0,0,1-.26,2,2,0,0,0,.7-.73A2.14,2.14,0,0,0,320.29,82.22Z"/></g></g></svg>