<svg xmlns="http://www.w3.org/2000/svg" viewBox="0 0 201.54 160.25"><defs><style>.cls-1{fill:#eb9d9d;}.cls-2{fill:#d1d1d1;}.cls-3{fill:#1d1d1b;}.cls-4{fill:#d90e19;}.cls-5{fill:#020303;}</style></defs><g id="Livello_2" data-name="Livello 2"><g id="Livello_1-2" data-name="Livello 1"><rect class="cls-1" width="201.54" height="159.9" rx="22.58"/><path class="cls-2" d="M201.54,119.09v19.84c0,11.77-10.71,21.32-23.91,21.32H23.92C10.71,160.25,0,150.7,0,138.93V119.09Z"/><path class="cls-3" d="M72.77,64.85a9.23,9.23,0,0,0-5.38.31,6.84,6.84,0,0,0-2.23,1.68,7.53,7.53,0,0,0-1.45,2.47,9,9,0,0,0,0,6,7.68,7.68,0,0,0,1.45,2.48A6.6,6.6,0,0,0,70.23,80a8.29,8.29,0,0,0,2.47-.34,5.8,5.8,0,0,0,1.93-1,4.73,4.73,0,0,0,1.28-1.54,5.31,5.31,0,0,0,.57-2H70V70.81H82.93v1.61A13.93,13.93,0,0,1,82,77.5a12.38,12.38,0,0,1-2.6,4.13,11.73,11.73,0,0,1-4,2.78,13.09,13.09,0,0,1-5.17,1,13.55,13.55,0,0,1-5.31-1,12.17,12.17,0,0,1-4.11-2.81,12.38,12.38,0,0,1-2.64-4.18,14.68,14.68,0,0,1,0-10.23,12.22,12.22,0,0,1,6.75-7,13.55,13.55,0,0,1,5.31-1,17.44,17.44,0,0,1,4.56.8Z"/><path class="cls-4" d="M80.9,66.56a3.28,3.28,0,0,1-3.29-3.28,3.22,3.22,0,0,1,1-2.32,3.24,3.24,0,0,1,4-.54,3.53,3.53,0,0,1,1.2,1.2,3.08,3.08,0,0,1,.46,1.66,3.12,3.12,0,0,1-1,2.31A3.2,3.2,0,0,1,80.9,66.56Z"/><path class="cls-3" d="M94.42,64.16h5.23v.65a5.55,5.55,0,0,1-.37,2.06,5,5,0,0,1-1,1.68,4.72,4.72,0,0,1-1.64,1.13,5.28,5.28,0,0,1-2.1.41,5.49,5.49,0,0,1-2.15-.41,4.77,4.77,0,0,1-1.67-1.14,5.13,5.13,0,0,1-1.08-1.7,6,6,0,0,1-.37-2.08,5.85,5.85,0,0,1,.37-2.07A4.94,4.94,0,0,1,90.67,61a4.75,4.75,0,0,1,1.67-1.13,5.32,5.32,0,0,1,2.15-.41,6.38,6.38,0,0,1,1.72.21,4.55,4.55,0,0,1,1.28.56,4.64,4.64,0,0,1,.91.76,6.75,6.75,0,0,1,.62.81l-2.21,1.05a3,3,0,0,0-.87-.86,2.95,2.95,0,0,0-2.6-.11,2.75,2.75,0,0,0-.91.68,2.92,2.92,0,0,0-.58,1,3.59,3.59,0,0,0,0,2.42,3.06,3.06,0,0,0,.58,1,2.9,2.9,0,0,0,.91.68,2.72,2.72,0,0,0,1.15.24,3.52,3.52,0,0,0,1-.14,2.4,2.4,0,0,0,.78-.4,2.09,2.09,0,0,0,.52-.63,2.12,2.12,0,0,0,.23-.8H94.42Z"/><path class="cls-3" d="M103.15,69.9h-2.36V63.51h2.36v1h0a1.65,1.65,0,0,1,.3-.45,2.26,2.26,0,0,1,1.75-.72,2.33,2.33,0,0,1,.81.13,3.22,3.22,0,0,1,.55.26l-.92,1.93a1.13,1.13,0,0,0-.38-.28,1.47,1.47,0,0,0-.69-.14,1.21,1.21,0,0,0-.78.24,1.33,1.33,0,0,0-.45.58,1.61,1.61,0,0,0-.15.65Z"/><path class="cls-3" d="M112.11,69.9v-1a2.11,2.11,0,0,1-.35.45,3,3,0,0,1-.75.53,2.39,2.39,0,0,1-1.09.24,3,3,0,0,1-1.64-.46,3,3,0,0,1-1.08-1.22,3.9,3.9,0,0,1,0-3.4,3,3,0,0,1,1.08-1.22,2.91,2.91,0,0,1,1.64-.46,2.62,2.62,0,0,1,1,.19,2.68,2.68,0,0,1,.73.45,1.75,1.75,0,0,1,.39.48v-.94h2.35V69.9Zm-3-3.19a1.47,1.47,0,0,0,.21.78,1.4,1.4,0,0,0,.54.54,1.51,1.51,0,0,0,1.5,0,1.42,1.42,0,0,0,.52-.54,1.7,1.7,0,0,0,0-1.56,1.52,1.52,0,0,0-.52-.55,1.58,1.58,0,0,0-1.5,0,1.5,1.5,0,0,0-.54.55A1.47,1.47,0,0,0,109.12,66.71Z"/><path class="cls-3" d="M118.26,73.14h-2.34V63.51h2.37v.94a1.54,1.54,0,0,1,.41-.48,3.09,3.09,0,0,1,.79-.45,2.85,2.85,0,0,1,1.08-.19,2.7,2.7,0,0,1,1.6.46,2.9,2.9,0,0,1,1,1.22,4,4,0,0,1,.36,1.7,3.82,3.82,0,0,1-.38,1.7,3,3,0,0,1-1.07,1.22,2.9,2.9,0,0,1-1.62.46,2.46,2.46,0,0,1-1.14-.24,2.76,2.76,0,0,1-.74-.53,2.07,2.07,0,0,1-.34-.45Zm3-6.43a1.5,1.5,0,0,0-.72-1.33,1.43,1.43,0,0,0-.74-.19,1.52,1.52,0,0,0-.77.19,1.62,1.62,0,0,0-.53,2.11A1.45,1.45,0,0,0,119,68a1.52,1.52,0,0,0,.77.2,1.45,1.45,0,0,0,1.27-.74A1.55,1.55,0,0,0,121.24,66.71Z"/><path class="cls-3" d="M129.19,63.33a3.34,3.34,0,0,1,1.31.27,2.49,2.49,0,0,1,1.05.86A2.65,2.65,0,0,1,132,66v3.9H129.6V66.39a1.54,1.54,0,0,0-.31-1,1.06,1.06,0,0,0-.84-.34,1.37,1.37,0,0,0-1.18.69,1.39,1.39,0,0,0-.2.76V69.9H124.7V59.2h2.37v5.26a1.1,1.1,0,0,1,.38-.52,2.62,2.62,0,0,1,.76-.44A2.84,2.84,0,0,1,129.19,63.33Z"/><path class="cls-3" d="M134.65,62.2a1.33,1.33,0,0,1-.94-2.28,1.29,1.29,0,0,1,.94-.4,1.21,1.21,0,0,1,.67.19,1.5,1.5,0,0,1,.49.48,1.31,1.31,0,0,1-.21,1.62A1.3,1.3,0,0,1,134.65,62.2Zm-1.21,7.7V63.51h2.36V69.9Z"/><path class="cls-3" d="M140.9,68.23a1.58,1.58,0,0,0,.73-.15,2.22,2.22,0,0,0,.39-.25l1.08,1.6a2.63,2.63,0,0,1-.43.26,3.48,3.48,0,0,1-.76.28,4.07,4.07,0,0,1-1,.12,4.25,4.25,0,0,1-1.93-.42,3.13,3.13,0,0,1-1.29-1.18,3.71,3.71,0,0,1,0-3.58,3.18,3.18,0,0,1,1.29-1.17,4.38,4.38,0,0,1,1.93-.41,4,4,0,0,1,1,.12,4.25,4.25,0,0,1,.77.27,2,2,0,0,1,.43.26L142,65.6l-.2-.16a2.13,2.13,0,0,0-.37-.18,1.7,1.7,0,0,0-.53-.07,1.39,1.39,0,0,0-.72.19,1.52,1.52,0,0,0-.53.54,1.64,1.64,0,0,0,0,1.57,1.52,1.52,0,0,0,.53.54A1.39,1.39,0,0,0,140.9,68.23Z"/><path class="cls-3" d="M91.25,82.33a2.72,2.72,0,0,1-1.53-.44,2.86,2.86,0,0,1-1-1.16,3.69,3.69,0,0,1-.35-1.61,3.77,3.77,0,0,1,.35-1.62,3,3,0,0,1,1-1.16,2.72,2.72,0,0,1,1.53-.44,2.8,2.8,0,0,1,1,.18,2.66,2.66,0,0,1,.73.43,1.06,1.06,0,0,1,.34.46V72h2.25V82.15H93.38v-1a1.7,1.7,0,0,1-.46.54,2.59,2.59,0,0,1-.74.44A2.41,2.41,0,0,1,91.25,82.33Zm.69-1.77a1.37,1.37,0,0,0,.73-.19,1.39,1.39,0,0,0,.51-.51,1.53,1.53,0,0,0,.18-.74,1.5,1.5,0,0,0-.18-.74,1.41,1.41,0,0,0-.51-.52,1.37,1.37,0,0,0-.73-.19,1.29,1.29,0,0,0-.7.19,1.32,1.32,0,0,0-.5.52,1.5,1.5,0,0,0-.18.74,1.53,1.53,0,0,0,.18.74,1.37,1.37,0,0,0,1.2.7Z"/><path class="cls-3" d="M98.7,79.59a1,1,0,0,0,.21.58,1.22,1.22,0,0,0,.51.4,2,2,0,0,0,.78.14,3,3,0,0,0,.77-.09,2.34,2.34,0,0,0,.6-.22,1.64,1.64,0,0,0,.4-.28l.87,1.39a1.92,1.92,0,0,1-.53.39,3.76,3.76,0,0,1-.87.31,6.71,6.71,0,0,1-1.39.12A4.09,4.09,0,0,1,98.26,82,2.76,2.76,0,0,1,97,80.84a3.39,3.39,0,0,1-.45-1.8A3.23,3.23,0,0,1,97,77.45a2.83,2.83,0,0,1,1.12-1.13,3.58,3.58,0,0,1,1.78-.42,3.67,3.67,0,0,1,1.72.37,2.47,2.47,0,0,1,1.12,1.07,3.58,3.58,0,0,1,.4,1.78v.23a1.1,1.1,0,0,1,0,.24Zm2.3-1.17a1.23,1.23,0,0,0-.13-.48,1,1,0,0,0-.35-.38,1,1,0,0,0-.61-.16,1.22,1.22,0,0,0-.63.15,1.06,1.06,0,0,0-.38.38,1.18,1.18,0,0,0-.16.49Z"/><path class="cls-3" d="M107,75.9a6.15,6.15,0,0,1,1.1.1,5.05,5.05,0,0,1,.83.23,1.27,1.27,0,0,1,.43.21l-.73,1.32a2.87,2.87,0,0,0-.52-.27,2.11,2.11,0,0,0-.85-.16,1.4,1.4,0,0,0-.6.11.35.35,0,0,0-.24.33.41.41,0,0,0,.27.37,3.31,3.31,0,0,0,.78.24,4.44,4.44,0,0,1,.9.28,2,2,0,0,1,.77.57,1.52,1.52,0,0,1,.3,1,1.91,1.91,0,0,1-.27,1,1.78,1.78,0,0,1-.72.64,3.54,3.54,0,0,1-1,.33,6,6,0,0,1-1,.09,4.82,4.82,0,0,1-1.21-.13,3.6,3.6,0,0,1-.83-.29,2.09,2.09,0,0,1-.44-.26l.72-1.47a3.22,3.22,0,0,0,.63.36,2.09,2.09,0,0,0,.92.2,1.52,1.52,0,0,0,.74-.14.4.4,0,0,0,.25-.37.37.37,0,0,0-.12-.29.94.94,0,0,0-.36-.19,2.86,2.86,0,0,0-.55-.15,3.43,3.43,0,0,1-.63-.19,2.42,2.42,0,0,1-.63-.34,1.69,1.69,0,0,1-.48-.55,1.67,1.67,0,0,1-.18-.81,1.36,1.36,0,0,1,.39-1,2.37,2.37,0,0,1,1-.6A4.15,4.15,0,0,1,107,75.9Z"/><path class="cls-3" d="M111.86,74.83a1.26,1.26,0,0,1-1.27-1.26,1.22,1.22,0,0,1,.37-.9,1.27,1.27,0,0,1,1.54-.21,1.44,1.44,0,0,1,.46.46,1.2,1.2,0,0,1,.18.65,1.28,1.28,0,0,1-1.28,1.26Zm-1.15,7.32V76.08H113v6.07Z"/><path class="cls-3" d="M119.22,82.15v-1a1.85,1.85,0,0,1-.34.42,2.65,2.65,0,0,1-.71.51,2.28,2.28,0,0,1-1,.23,2.76,2.76,0,0,1-1.55-.44,2.85,2.85,0,0,1-1-1.16,3.56,3.56,0,0,1-.37-1.61,3.64,3.64,0,0,1,.37-1.62,3,3,0,0,1,1-1.16,2.76,2.76,0,0,1,1.55-.44,2.59,2.59,0,0,1,1,.18,2.27,2.27,0,0,1,.69.43,1.73,1.73,0,0,1,.37.46v-.89h2.24v6.07Zm-1.53,3.25a6.72,6.72,0,0,1-1.26-.12,4.14,4.14,0,0,1-1.16-.37,2.6,2.6,0,0,1-.91-.73l1.31-1.37a4,4,0,0,0,.42.39,2.25,2.25,0,0,0,.62.32,2.86,2.86,0,0,0,.89.12,1.9,1.9,0,0,0,.85-.17A1.28,1.28,0,0,0,119,83a1.43,1.43,0,0,0,.21-.79V82h2.21v.28a2.82,2.82,0,0,1-.5,1.69,3.09,3.09,0,0,1-1.34,1A5,5,0,0,1,117.69,85.4Zm-1.31-6.28a1.43,1.43,0,0,0,.19.74,1.39,1.39,0,0,0,.51.51,1.36,1.36,0,0,0,.72.19,1.28,1.28,0,0,0,.71-.19,1.36,1.36,0,0,0,.5-.51,1.53,1.53,0,0,0,.18-.74,1.5,1.5,0,0,0-.18-.74,1.39,1.39,0,0,0-.5-.52,1.28,1.28,0,0,0-.71-.19,1.36,1.36,0,0,0-.72.19,1.44,1.44,0,0,0-.7,1.26Z"/><path class="cls-3" d="M127.05,75.9a3.21,3.21,0,0,1,1.24.26,2.4,2.4,0,0,1,1,.82,2.51,2.51,0,0,1,.39,1.47v3.7h-2.26V78.82a1.36,1.36,0,0,0-.31-1,1.06,1.06,0,0,0-.81-.33,1.19,1.19,0,0,0-.63.17,1.38,1.38,0,0,0-.47.49,1.43,1.43,0,0,0-.18.72v3.26h-2.25V76.08H125V77a1.29,1.29,0,0,1,.37-.49,2.47,2.47,0,0,1,.72-.41A2.62,2.62,0,0,1,127.05,75.9Z"/><path class="cls-3" d="M132.78,79.59a1.07,1.07,0,0,0,.2.58,1.36,1.36,0,0,0,.51.4,2.07,2.07,0,0,0,.79.14,3.07,3.07,0,0,0,.77-.09,2.34,2.34,0,0,0,.6-.22,1.4,1.4,0,0,0,.39-.28l.88,1.39a2.08,2.08,0,0,1-.53.39,3.69,3.69,0,0,1-.88.31,6.54,6.54,0,0,1-1.38.12,4.11,4.11,0,0,1-1.8-.38,2.87,2.87,0,0,1-1.23-1.11,3.48,3.48,0,0,1-.44-1.8,3.23,3.23,0,0,1,.39-1.59,2.77,2.77,0,0,1,1.12-1.13A3.55,3.55,0,0,1,134,75.9a3.73,3.73,0,0,1,1.72.37,2.47,2.47,0,0,1,1.12,1.07,3.69,3.69,0,0,1,.39,1.78v.23a1.36,1.36,0,0,1,0,.24Zm2.29-1.17a1.07,1.07,0,0,0-.12-.48,1.05,1.05,0,0,0-1-.54,1.22,1.22,0,0,0-.63.15.93.93,0,0,0-.38.38,1.05,1.05,0,0,0-.16.49Z"/><path class="cls-3" d="M140.41,82.15h-2.25V76.08h2.25V77h0a1.24,1.24,0,0,1,.29-.43,2,2,0,0,1,.64-.48,2.22,2.22,0,0,1,1-.21,2.45,2.45,0,0,1,.78.13,2.3,2.3,0,0,1,.52.25l-.88,1.83a1,1,0,0,0-.36-.27,1.44,1.44,0,0,0-.66-.13,1.13,1.13,0,0,0-.74.23,1.36,1.36,0,0,0-.43.55,1.6,1.6,0,0,0-.13.61Z"/><path class="cls-5" d="M89,141.8a2.58,2.58,0,0,0,.28.58,1.88,1.88,0,0,0,.43.51,1.93,1.93,0,0,0,.63.36,2.47,2.47,0,0,0,.86.13,2,2,0,0,0,1.57-.64,2.43,2.43,0,0,0,.54-1.68,2.21,2.21,0,0,0-.53-1.55,1.89,1.89,0,0,0-1.44-.56,2.2,2.2,0,0,0-1,.21,2.26,2.26,0,0,0-.69.47,1.82,1.82,0,0,0-.37.5l-2.68-1,1.27-7.62h8v2.81H90.6l-.45,2.7a1.42,1.42,0,0,1,.34-.24,3.53,3.53,0,0,1,.76-.3,3.85,3.85,0,0,1,1.07-.14,4.68,4.68,0,0,1,2,.47A3.86,3.86,0,0,1,96,138.3a4.79,4.79,0,0,1,.63,2.58,5.32,5.32,0,0,1-.68,2.75,4.69,4.69,0,0,1-1.85,1.82,5.68,5.68,0,0,1-2.71.64,6.87,6.87,0,0,1-2-.28,5.18,5.18,0,0,1-1.49-.73,4.48,4.48,0,0,1-1-1,4.85,4.85,0,0,1-.58-1.06Z"/><path class="cls-5" d="M109.09,135.43a6.67,6.67,0,0,0-1.28-2.31,5.29,5.29,0,0,0-1.86-1.39,5.44,5.44,0,0,0-4.38,0,5.29,5.29,0,0,0-1.86,1.39,6.52,6.52,0,0,0-1.29,2.31,10.05,10.05,0,0,0-.47,3.26,10.59,10.59,0,0,0,.47,3.39,6,6,0,0,0,1.29,2.28,4.91,4.91,0,0,0,1.86,1.3,5.92,5.92,0,0,0,4.38,0,4.91,4.91,0,0,0,1.86-1.3,6.1,6.1,0,0,0,1.28-2.28,10.9,10.9,0,0,0,.46-3.39A10.34,10.34,0,0,0,109.09,135.43ZM106,141.24a3.2,3.2,0,0,1-.88,1.5,2.13,2.13,0,0,1-2.72,0,3.13,3.13,0,0,1-.89-1.5,8.62,8.62,0,0,1-.32-2.55,8.42,8.42,0,0,1,.32-2.47,3.45,3.45,0,0,1,.89-1.56,2,2,0,0,1,2.72,0,3.54,3.54,0,0,1,.88,1.56,8.83,8.83,0,0,1,.3,2.47A9.19,9.19,0,0,1,106,141.24Z"/><path class="cls-5" d="M117.94,133a3.5,3.5,0,0,0-1.32-1.24,4.43,4.43,0,0,0-3.93,0,3.46,3.46,0,0,0-1.33,1.24,3.18,3.18,0,0,0-.48,1.71,3.22,3.22,0,0,0,.47,1.7,3.58,3.58,0,0,0,1.32,1.24,4.1,4.1,0,0,0,2,.48,4,4,0,0,0,2-.48,3.58,3.58,0,0,0,1.32-1.24,3.22,3.22,0,0,0,.47-1.7A3.18,3.18,0,0,0,117.94,133Zm-2.2,2.86a1.47,1.47,0,0,1-1.09.42,1.53,1.53,0,0,1-1.11-.42,1.72,1.72,0,0,1,0-2.29,1.43,1.43,0,0,1,1.1-.44,1.41,1.41,0,0,1,1.09.44,1.61,1.61,0,0,1,.41,1.14A1.59,1.59,0,0,1,115.74,135.83Z"/><polygon class="cls-5" points="122.32 131.54 124.47 131.54 115.53 145.83 113.38 145.83 122.32 131.54"/><path class="cls-5" d="M126.47,141a3.51,3.51,0,0,0-1.33-1.23,4,4,0,0,0-2-.47,4.07,4.07,0,0,0-2,.47,3.51,3.51,0,0,0-1.33,1.23,3.15,3.15,0,0,0-.48,1.71,3.25,3.25,0,0,0,.47,1.7,3.43,3.43,0,0,0,1.32,1.24,4.43,4.43,0,0,0,4,0,3.43,3.43,0,0,0,1.32-1.24,3.25,3.25,0,0,0,.47-1.7A3.15,3.15,0,0,0,126.47,141Zm-2.21,2.85a1.43,1.43,0,0,1-1.08.43,1.47,1.47,0,0,1-1.11-.43,1.54,1.54,0,0,1-.43-1.14,1.57,1.57,0,0,1,.43-1.13,1.45,1.45,0,0,1,1.11-.46,1.39,1.39,0,0,1,1.08.46,1.78,1.78,0,0,1,0,2.27Z"/></g></g></svg>