<svg xmlns="http://www.w3.org/2000/svg" viewBox="0 0 331.75 295.26"><defs><style>.cls-1{fill:#eb9d9d;}.cls-2{fill:#1d1d1b;}.cls-3{fill:#d90e19;}.cls-4{fill:#d1d1d1;}.cls-5{fill:#fff;}</style></defs><g id="Livello_2" data-name="Livello 2"><g id="Livello_1-2" data-name="Livello 1"><path class="cls-1" d="M331.75,39.36V219.27H0V39.36A39.37,39.37,0,0,1,39.37,0h253A39.36,39.36,0,0,1,331.75,39.36Z"/><path class="cls-2" d="M175.18,46.63a25.09,25.09,0,0,0-14.6.85A18.53,18.53,0,0,0,154.53,52a20.68,20.68,0,0,0-3.92,6.69,24.54,24.54,0,0,0,0,16.17,21,21,0,0,0,3.92,6.7,18.26,18.26,0,0,0,6.05,4.54,18,18,0,0,0,7.71,1.63,22.63,22.63,0,0,0,6.69-.93,15.57,15.57,0,0,0,5.22-2.7,13.26,13.26,0,0,0,3.48-4.18,14.21,14.21,0,0,0,1.53-5.32H167.77V62.79H202.7v4.36a37.69,37.69,0,0,1-2.47,13.75,33.89,33.89,0,0,1-7,11.21,32.25,32.25,0,0,1-10.9,7.53,35.35,35.35,0,0,1-14,2.7,36.68,36.68,0,0,1-14.41-2.73A33,33,0,0,1,142.75,92a33.79,33.79,0,0,1-7.16-11.34,39.82,39.82,0,0,1,0-27.72,33.09,33.09,0,0,1,18.29-18.89,36.68,36.68,0,0,1,14.41-2.73,48,48,0,0,1,12.34,2.17Z"/><path class="cls-3" d="M197.2,51.26a8.89,8.89,0,0,1-8.93-8.87,8.69,8.69,0,0,1,2.62-6.31,8.53,8.53,0,0,1,6.31-2.67,8.43,8.43,0,0,1,4.46,1.22,9.56,9.56,0,0,1,3.27,3.24,8.74,8.74,0,0,1-1.4,10.77A8.69,8.69,0,0,1,197.2,51.26Z"/><path class="cls-2" d="M103.15,128.73h15.48v1.93a16.77,16.77,0,0,1-1.09,6.1,15.16,15.16,0,0,1-3.12,5,14.39,14.39,0,0,1-4.83,3.33,15.63,15.63,0,0,1-6.21,1.2A16.16,16.16,0,0,1,97,145.05a14.7,14.7,0,0,1-4.94-3.37,14.92,14.92,0,0,1-3.17-5,17.71,17.71,0,0,1,0-12.29,14.69,14.69,0,0,1,3.17-5A14.54,14.54,0,0,1,97,116a16.16,16.16,0,0,1,6.38-1.21,18.42,18.42,0,0,1,5.07.62,13.6,13.6,0,0,1,3.79,1.66,13.8,13.8,0,0,1,2.69,2.26,18.35,18.35,0,0,1,1.84,2.4l-6.54,3.09a8.7,8.7,0,0,0-2.56-2.53,7.62,7.62,0,0,0-4.29-1.08,7.92,7.92,0,0,0-3.42.73,8.28,8.28,0,0,0-2.68,2,9,9,0,0,0-1.73,3,10.84,10.84,0,0,0,0,7.17,9.17,9.17,0,0,0,1.73,3,7.91,7.91,0,0,0,6.1,2.73,10.2,10.2,0,0,0,3-.41,7,7,0,0,0,2.31-1.2,5.93,5.93,0,0,0,1.54-1.85,6.16,6.16,0,0,0,.68-2.36h-7.73Z"/><path class="cls-2" d="M129,145.7h-7V126.82h7v2.92h-.11a4.54,4.54,0,0,1,.89-1.34,6.71,6.71,0,0,1,2-1.48,6.87,6.87,0,0,1,3.16-.65,7,7,0,0,1,2.41.4,7.14,7.14,0,0,1,1.61.77l-2.71,5.68a3.81,3.81,0,0,0-1.14-.81,4.31,4.31,0,0,0-2-.43,3.68,3.68,0,0,0-2.31.71,4.3,4.3,0,0,0-1.33,1.73,4.85,4.85,0,0,0-.43,1.91Z"/><path class="cls-2" d="M155.48,145.7v-3a6.12,6.12,0,0,1-1,1.33,8.08,8.08,0,0,1-2.22,1.57,7,7,0,0,1-3.22.71,8.64,8.64,0,0,1-4.83-1.35,9.15,9.15,0,0,1-3.22-3.61,11.55,11.55,0,0,1,0-10.05,9.34,9.34,0,0,1,3.22-3.63,8.64,8.64,0,0,1,4.83-1.35,8.07,8.07,0,0,1,3.11.56,7.45,7.45,0,0,1,2.16,1.33,5.33,5.33,0,0,1,1.15,1.42v-2.76h7V145.7Zm-8.83-9.43a4.53,4.53,0,0,0,.6,2.32,4.26,4.26,0,0,0,1.59,1.59,4.33,4.33,0,0,0,2.22.58,4.19,4.19,0,0,0,2.23-.58,4,4,0,0,0,1.53-1.59,5,5,0,0,0,0-4.63,4.15,4.15,0,0,0-3.76-2.2,4.34,4.34,0,0,0-2.22.59,4.39,4.39,0,0,0-1.59,1.61A4.5,4.5,0,0,0,146.65,136.27Z"/><path class="cls-2" d="M173.67,155.27h-6.92V126.82h7v2.76a5.11,5.11,0,0,1,1.23-1.42,8.54,8.54,0,0,1,2.33-1.33,8.71,8.71,0,0,1,3.21-.56,8.12,8.12,0,0,1,4.72,1.35,9,9,0,0,1,3,3.63,11.79,11.79,0,0,1,1.06,5,11.13,11.13,0,0,1-1.13,5,9.08,9.08,0,0,1-3.16,3.61,8.5,8.5,0,0,1-4.8,1.35,7.46,7.46,0,0,1-5.55-2.27,5.85,5.85,0,0,1-1-1.34Zm8.81-19a4.68,4.68,0,0,0-.57-2.31,4.36,4.36,0,0,0-1.55-1.61,4.21,4.21,0,0,0-2.2-.59,4.44,4.44,0,0,0-2.27.59,4.26,4.26,0,0,0-1.57,1.61,4.91,4.91,0,0,0,0,4.63,4.14,4.14,0,0,0,1.57,1.59,4.43,4.43,0,0,0,2.27.58,4.21,4.21,0,0,0,3.75-2.17A4.72,4.72,0,0,0,182.48,136.27Z"/><path class="cls-2" d="M206,126.27a9.89,9.89,0,0,1,3.86.8,7.14,7.14,0,0,1,3.1,2.54,7.75,7.75,0,0,1,1.22,4.57V145.7h-7V135.33a4.46,4.46,0,0,0-.91-3.05,3.15,3.15,0,0,0-2.47-1,3.93,3.93,0,0,0-2,.54,4.21,4.21,0,0,0-1.53,1.52,4.28,4.28,0,0,0-.59,2.24V145.7h-7V114.05h7V129.6a3.76,3.76,0,0,1,1.14-1.53,7.46,7.46,0,0,1,2.23-1.28A8,8,0,0,1,206,126.27Z"/><path class="cls-2" d="M222.14,122.93a3.94,3.94,0,0,1-4-3.93,3.89,3.89,0,0,1,1.16-2.8,3.82,3.82,0,0,1,2.8-1.18,3.78,3.78,0,0,1,2,.54,4.25,4.25,0,0,1,1.45,1.44,3.71,3.71,0,0,1,.55,2,3.76,3.76,0,0,1-1.17,2.77A3.88,3.88,0,0,1,222.14,122.93Zm-3.59,22.77V126.82h7V145.7Z"/><path class="cls-2" d="M240.61,140.76a4.58,4.58,0,0,0,2.16-.45,6.22,6.22,0,0,0,1.15-.72l3.2,4.74a8.29,8.29,0,0,1-1.27.76,9.9,9.9,0,0,1-2.24.82,12.35,12.35,0,0,1-3.07.35,12.59,12.59,0,0,1-5.7-1.23,9.06,9.06,0,0,1-3.83-3.49A10.9,10.9,0,0,1,231,131a9.13,9.13,0,0,1,3.83-3.46,12.59,12.59,0,0,1,5.7-1.23,12.3,12.3,0,0,1,5.31,1.16,5.79,5.79,0,0,1,1.29.77L243.88,133a5.61,5.61,0,0,0-.59-.45,4.26,4.26,0,0,0-1.09-.53,4.75,4.75,0,0,0-1.59-.24,4.1,4.1,0,0,0-2.1.58,4.3,4.3,0,0,0-1.58,1.59,4.46,4.46,0,0,0-.6,2.32,4.55,4.55,0,0,0,.6,2.34,4.3,4.3,0,0,0,1.58,1.59A4,4,0,0,0,240.61,140.76Z"/><path class="cls-2" d="M96,181.72a7.85,7.85,0,0,1-4.42-1.25,8.39,8.39,0,0,1-2.91-3.35,11.06,11.06,0,0,1,0-9.32,8.45,8.45,0,0,1,2.91-3.37A7.85,7.85,0,0,1,96,163.17a8,8,0,0,1,3,.53,7.38,7.38,0,0,1,2.11,1.23,3,3,0,0,1,1,1.32v-14.4h6.49V181.2h-6.42v-2.83a5.3,5.3,0,0,1-1.33,1.56,7.76,7.76,0,0,1-2.15,1.28A7,7,0,0,1,96,181.72Zm2-5.1a4.12,4.12,0,0,0,2.11-.54,3.85,3.85,0,0,0,1.46-1.48,4.61,4.61,0,0,0,0-4.29,3.94,3.94,0,0,0-1.46-1.49,4.12,4.12,0,0,0-2.11-.55,3.9,3.9,0,0,0-3.46,2,4.68,4.68,0,0,0,0,4.29A3.77,3.77,0,0,0,96,176.08,3.88,3.88,0,0,0,98,176.62Z"/><path class="cls-2" d="M117.5,173.82a3.18,3.18,0,0,0,.59,1.68,3.52,3.52,0,0,0,1.47,1.14,5.72,5.72,0,0,0,2.27.41,9.57,9.57,0,0,0,2.23-.25,7.35,7.35,0,0,0,1.72-.64,5.18,5.18,0,0,0,1.15-.8l2.51,4a6.64,6.64,0,0,1-1.51,1.11,9.66,9.66,0,0,1-2.54.89,19.09,19.09,0,0,1-4,.35,11.85,11.85,0,0,1-5.18-1.09,8.27,8.27,0,0,1-3.55-3.2,9.89,9.89,0,0,1-1.28-5.19,9.55,9.55,0,0,1,1.11-4.61,8.19,8.19,0,0,1,3.25-3.25,10.31,10.31,0,0,1,5.14-1.21,11.12,11.12,0,0,1,5,1.05,7.33,7.33,0,0,1,3.23,3.1,10.52,10.52,0,0,1,1.13,5.13v.68a3.4,3.4,0,0,1,0,.69Zm6.63-3.39a3.1,3.1,0,0,0-.36-1.36,2.86,2.86,0,0,0-1-1.13,3.16,3.16,0,0,0-1.74-.43,3.6,3.6,0,0,0-1.82.42,3.14,3.14,0,0,0-1.11,1.09,3.54,3.54,0,0,0-.45,1.41Z"/><path class="cls-2" d="M141.43,163.17a16.11,16.11,0,0,1,3.16.29,17.12,17.12,0,0,1,2.4.65,5.32,5.32,0,0,1,1.25.6l-2.11,3.82a8.61,8.61,0,0,0-1.51-.77,6.17,6.17,0,0,0-2.44-.47,4.42,4.42,0,0,0-1.73.31,1,1,0,0,0-.7,1,1.18,1.18,0,0,0,.78,1,9.47,9.47,0,0,0,2.25.69,13.61,13.61,0,0,1,2.6.81,5.75,5.75,0,0,1,2.21,1.64,4.37,4.37,0,0,1,.88,2.87,5,5,0,0,1-2.88,4.88,10,10,0,0,1-2.81.93,16.77,16.77,0,0,1-2.95.27,14.28,14.28,0,0,1-3.48-.37,10.69,10.69,0,0,1-2.4-.83,8,8,0,0,1-1.28-.75l2.09-4.26a8.57,8.57,0,0,0,1.81,1.05,6.12,6.12,0,0,0,2.67.59,4.49,4.49,0,0,0,2.11-.41,1.2,1.2,0,0,0,.75-1.06,1,1,0,0,0-.37-.85,3,3,0,0,0-1-.56,12.15,12.15,0,0,0-1.6-.42,12.52,12.52,0,0,1-1.81-.54,7.5,7.5,0,0,1-1.82-1,5,5,0,0,1-1.39-1.59,4.8,4.8,0,0,1-.53-2.33,4,4,0,0,1,1.13-2.9,7.25,7.25,0,0,1,2.92-1.74A12.27,12.27,0,0,1,141.43,163.17Z"/><path class="cls-2" d="M155.47,160.08a3.65,3.65,0,0,1-3.66-3.65,3.57,3.57,0,0,1,1.07-2.59,3.51,3.51,0,0,1,2.59-1.1,3.47,3.47,0,0,1,1.84.51,3.88,3.88,0,0,1,1.34,1.33,3.37,3.37,0,0,1,.51,1.85,3.48,3.48,0,0,1-1.08,2.57A3.59,3.59,0,0,1,155.47,160.08Zm-3.32,21.12V163.69h6.48V181.2Z"/><path class="cls-2" d="M176.7,181.2v-2.83a5.41,5.41,0,0,1-1,1.23,7.24,7.24,0,0,1-2.06,1.46,6.43,6.43,0,0,1-3,.66,8.07,8.07,0,0,1-4.48-1.25,8.48,8.48,0,0,1-3-3.35,10.68,10.68,0,0,1,0-9.32,8.53,8.53,0,0,1,3-3.37,8.07,8.07,0,0,1,4.48-1.26,7.29,7.29,0,0,1,2.88.53,6.89,6.89,0,0,1,2,1.23,5,5,0,0,1,1.07,1.32v-2.56h6.44V181.2Zm-4.39,9.37a21.05,21.05,0,0,1-3.64-.32,12.49,12.49,0,0,1-3.36-1.09,7.52,7.52,0,0,1-2.63-2.11l3.8-4a7.82,7.82,0,0,0,1.21,1.13,5.89,5.89,0,0,0,1.77.92,8,8,0,0,0,2.57.37,5.82,5.82,0,0,0,2.45-.49,3.75,3.75,0,0,0,1.63-1.44,4.12,4.12,0,0,0,.59-2.28v-.43h6.38v.81a8.09,8.09,0,0,1-1.44,4.89,8.78,8.78,0,0,1-3.87,3A14.2,14.2,0,0,1,172.31,190.57Zm-3.8-18.12a4.17,4.17,0,0,0,.55,2.15,4.07,4.07,0,0,0,3.54,2,3.89,3.89,0,0,0,2.07-.54,3.82,3.82,0,0,0,1.42-1.48,4.61,4.61,0,0,0,0-4.29,3.87,3.87,0,0,0-3.49-2,4,4,0,0,0-2,.55,4.09,4.09,0,0,0-1.49,1.49A4.19,4.19,0,0,0,168.51,172.45Z"/><path class="cls-2" d="M199.3,163.17a9.2,9.2,0,0,1,3.58.75,6.6,6.6,0,0,1,2.88,2.36,7.25,7.25,0,0,1,1.13,4.23V181.2h-6.51v-9.62a4,4,0,0,0-.89-2.82,3.06,3.06,0,0,0-2.35-.95,3.4,3.4,0,0,0-1.8.5,3.84,3.84,0,0,0-1.37,1.4,4.09,4.09,0,0,0-.52,2.08v9.41H187V163.69h6.49v2.58a3.6,3.6,0,0,1,1.08-1.42,6.83,6.83,0,0,1,2.07-1.19A7.45,7.45,0,0,1,199.3,163.17Z"/><path class="cls-2" d="M215.83,173.82a3.11,3.11,0,0,0,.6,1.68,3.4,3.4,0,0,0,1.47,1.14,5.7,5.7,0,0,0,2.26.41,9.44,9.44,0,0,0,2.23-.25,7.43,7.43,0,0,0,1.73-.64,5.09,5.09,0,0,0,1.14-.8l2.52,4a6.72,6.72,0,0,1-1.52,1.11,9.58,9.58,0,0,1-2.53.89,19.22,19.22,0,0,1-4,.35,11.92,11.92,0,0,1-5.19-1.09,8.19,8.19,0,0,1-3.54-3.2,9.89,9.89,0,0,1-1.28-5.19,9.55,9.55,0,0,1,1.11-4.61,8.23,8.23,0,0,1,3.24-3.25,10.34,10.34,0,0,1,5.14-1.21,11.09,11.09,0,0,1,5,1.05,7.41,7.41,0,0,1,3.24,3.1,10.63,10.63,0,0,1,1.13,5.13v.68a4.4,4.4,0,0,1,0,.69Zm6.64-3.39a3.26,3.26,0,0,0-.37-1.36,2.83,2.83,0,0,0-1-1.13,3.22,3.22,0,0,0-1.75-.43,3.54,3.54,0,0,0-1.81.42,3,3,0,0,0-1.11,1.09,3.25,3.25,0,0,0-.45,1.41Z"/><path class="cls-2" d="M237.85,181.2h-6.49V163.69h6.49v2.71h-.11a4.27,4.27,0,0,1,.83-1.25,6.24,6.24,0,0,1,1.86-1.37,7.07,7.07,0,0,1,5.16-.23,6.85,6.85,0,0,1,1.5.71l-2.52,5.27a3.41,3.41,0,0,0-1.06-.75,4,4,0,0,0-1.89-.4,3.37,3.37,0,0,0-2.14.66,4.09,4.09,0,0,0-1.24,1.6,4.66,4.66,0,0,0-.39,1.77Z"/><path class="cls-4" d="M331.75,219.27V255.9a39.36,39.36,0,0,1-39.36,39.36h-253A39.37,39.37,0,0,1,0,255.9V219.27Z"/><path class="cls-5" d="M74.41,270.78H67L56.77,242h7.36l6.6,20.5L77.32,242h7.36Z"/><path class="cls-5" d="M87.88,242h18.41v5.72H94.39v5.87h11.79v5.55H94.39v6h11.9v5.72H87.88Z"/><path class="cls-5" d="M111.09,242h11.75a9.34,9.34,0,0,1,4.47,1,7.68,7.68,0,0,1,3.12,3,9.28,9.28,0,0,1,1.14,4.71,9.07,9.07,0,0,1-1,4.46,7.08,7.08,0,0,1-2.33,2.6,6.49,6.49,0,0,1-2.51,1l7,11.95h-7.33l-6.25-11.45h-1.57v11.45h-6.53Zm6.53,12.85h2.88a5.53,5.53,0,0,0,3.06-.84,3.34,3.34,0,0,0,1.31-3,3.31,3.31,0,0,0-1.29-3,5.44,5.44,0,0,0-3-.84h-2.92Z"/><path class="cls-5" d="M142.42,247.68h-6.88V242h20.27v5.72H149v23.1h-6.53Z"/><path class="cls-5" d="M159.56,242h6.53v28.82h-6.53Z"/><path class="cls-5" d="M186.39,264.84a11.48,11.48,0,0,0,6.12-1.75l2.79,5.55a11.74,11.74,0,0,1-3.5,1.76,17.33,17.33,0,0,1-5.89.9,16.05,16.05,0,0,1-6-1.11,15.43,15.43,0,0,1-4.92-3.14,14.7,14.7,0,0,1-3.35-4.73,14.49,14.49,0,0,1-1.21-5.91,14.65,14.65,0,0,1,1.2-5.93,15,15,0,0,1,3.33-4.77,15.55,15.55,0,0,1,4.94-3.15,16,16,0,0,1,6-1.13,17.33,17.33,0,0,1,5.89.9,11.48,11.48,0,0,1,3.5,1.77l-2.79,5.54a9.8,9.8,0,0,0-2.46-1.16,10.89,10.89,0,0,0-3.66-.58,10,10,0,0,0-3.88.68,7.71,7.71,0,0,0-4.43,4.6,9.07,9.07,0,0,0-.55,3.17,9.18,9.18,0,0,0,.55,3.19,7.69,7.69,0,0,0,4.43,4.61A10,10,0,0,0,186.39,264.84Z"/><path class="cls-5" d="M208.62,242h6.48l11.37,28.82h-7L217.42,265h-11.1l-2.12,5.79h-7Zm-.11,17.31h6.74l-3.34-9.45h-.06Z"/><path class="cls-5" d="M228.94,242h6.53v23.1h10.45v5.72h-17Z"/><path class="cls-5" d="M250.16,242h18.4v5.72H256.67v5.87h11.79v5.55H256.67v6h11.89v5.72h-18.4Z"/></g></g></svg>