<svg xmlns="http://www.w3.org/2000/svg" viewBox="0 0 322.54 139.45"><defs><style>.cls-1{fill:#020303;}.cls-2{fill:#fff;}.cls-3{fill:#d90e19;}</style></defs><g id="Livello_2" data-name="Livello 2"><g id="Livello_1-2" data-name="Livello 1"><rect class="cls-1" width="322.54" height="139.45" rx="42.52"/><path class="cls-2" d="M166.88,115.2h4.44v.56a4.85,4.85,0,0,1-.31,1.75,4.29,4.29,0,0,1-.9,1.42,4.08,4.08,0,0,1-1.38,1,4.89,4.89,0,0,1-3.61,0,4.24,4.24,0,0,1-1.42-1,4.49,4.49,0,0,1-.9-1.44,5,5,0,0,1,0-3.53,4.34,4.34,0,0,1,.9-1.43,4.24,4.24,0,0,1,1.42-1,4.7,4.7,0,0,1,1.83-.35,5.27,5.27,0,0,1,1.45.18,4,4,0,0,1,1.09.47,4.19,4.19,0,0,1,.77.65,7.12,7.12,0,0,1,.53.69l-1.88.88a2.64,2.64,0,0,0-.73-.72,2.16,2.16,0,0,0-1.23-.31,2.27,2.27,0,0,0-1,.21,2.3,2.3,0,0,0-.77.58,2.65,2.65,0,0,0-.5.85,3.18,3.18,0,0,0,0,2,2.77,2.77,0,0,0,.5.85,2.3,2.3,0,0,0,.77.58,2.27,2.27,0,0,0,1,.21,2.86,2.86,0,0,0,.85-.12,2.08,2.08,0,0,0,.66-.35,1.49,1.49,0,0,0,.44-.53,1.69,1.69,0,0,0,.2-.67h-2.22Z"/><path class="cls-2" d="M174.29,120.07h-2v-5.41h2v.83h0a1.42,1.42,0,0,1,.26-.38,1.84,1.84,0,0,1,.57-.42,1.94,1.94,0,0,1,.91-.19,2,2,0,0,1,1.15.34l-.78,1.62a1.15,1.15,0,0,0-.32-.23,1.29,1.29,0,0,0-.59-.12,1.08,1.08,0,0,0-.66.2,1.24,1.24,0,0,0-.38.5,1.39,1.39,0,0,0-.12.54Z"/><path class="cls-2" d="M181.88,120.07v-.88a1.49,1.49,0,0,1-.3.38,2.34,2.34,0,0,1-.64.46,2,2,0,0,1-.92.2,2.43,2.43,0,0,1-1.38-.39,2.57,2.57,0,0,1-.93-1,3.17,3.17,0,0,1-.33-1.44,3.12,3.12,0,0,1,.33-1.44,2.6,2.6,0,0,1,.93-1,2.43,2.43,0,0,1,1.38-.39,2.21,2.21,0,0,1,.89.16,2.27,2.27,0,0,1,.62.38,1.41,1.41,0,0,1,.33.41v-.79h2v5.41Zm-2.53-2.7a1.35,1.35,0,0,0,.17.66,1.27,1.27,0,0,0,.46.46,1.23,1.23,0,0,0,.63.16,1.19,1.19,0,0,0,.64-.16,1.14,1.14,0,0,0,.44-.46,1.46,1.46,0,0,0,0-1.33,1.21,1.21,0,0,0-.44-.46,1.2,1.2,0,0,0-.64-.17,1.24,1.24,0,0,0-.63.17,1.26,1.26,0,0,0-.63,1.13Z"/><path class="cls-2" d="M187.1,122.81h-2v-8.15h2v.79a1.23,1.23,0,0,1,.35-.41,2.55,2.55,0,0,1,.66-.38,2.43,2.43,0,0,1,.92-.16,2.34,2.34,0,0,1,1.36.39,2.62,2.62,0,0,1,.87,1,3.37,3.37,0,0,1,.3,1.44,3.3,3.3,0,0,1-.32,1.44,2.6,2.6,0,0,1-.91,1,2.43,2.43,0,0,1-1.38.39,2.16,2.16,0,0,1-1-.2,2.32,2.32,0,0,1-.63-.45,1.31,1.31,0,0,1-.28-.39Zm2.52-5.44a1.35,1.35,0,0,0-.16-.67,1.32,1.32,0,0,0-.45-.46,1.24,1.24,0,0,0-.63-.17,1.29,1.29,0,0,0-.65.17,1.32,1.32,0,0,0-.45.46,1.46,1.46,0,0,0,0,1.33,1.24,1.24,0,0,0,.45.46,1.28,1.28,0,0,0,.65.16,1.2,1.2,0,0,0,1.08-.62A1.34,1.34,0,0,0,189.62,117.37Z"/><path class="cls-2" d="M196.36,114.5a2.87,2.87,0,0,1,1.11.23,2.09,2.09,0,0,1,.89.73,2.26,2.26,0,0,1,.35,1.31v3.3h-2v-3a1.32,1.32,0,0,0-.26-.88.91.91,0,0,0-.71-.29,1.12,1.12,0,0,0-.56.15,1.16,1.16,0,0,0-.44.44,1.25,1.25,0,0,0-.17.64v2.91h-2V111h2v4.46a1,1,0,0,1,.33-.44,2,2,0,0,1,.63-.37A2.32,2.32,0,0,1,196.36,114.5Z"/><path class="cls-2" d="M201,113.54a1.1,1.1,0,0,1-.81-.33,1.09,1.09,0,0,1-.33-.79,1.13,1.13,0,0,1,.33-.81,1.12,1.12,0,0,1,.81-.33,1.09,1.09,0,0,1,.56.15,1.27,1.27,0,0,1,.42.41,1.15,1.15,0,0,1,.16.58,1.14,1.14,0,0,1-1.14,1.12Zm-1,6.53v-5.41h2v5.41Z"/><path class="cls-2" d="M206.28,118.65a1.27,1.27,0,0,0,.62-.13,1.83,1.83,0,0,0,.33-.2l.92,1.36a2.51,2.51,0,0,1-.37.21,2.6,2.6,0,0,1-.64.24,3.38,3.38,0,0,1-.88.1,3.66,3.66,0,0,1-1.63-.35,2.61,2.61,0,0,1-1.1-1,3.16,3.16,0,0,1,0-3,2.65,2.65,0,0,1,1.1-1,3.66,3.66,0,0,1,1.63-.35,3.25,3.25,0,0,1,.87.1,4,4,0,0,1,.65.23,2,2,0,0,1,.37.22l-.93,1.37-.17-.13a1.49,1.49,0,0,0-.31-.15,1.53,1.53,0,0,0-.46-.07,1.13,1.13,0,0,0-.6.17,1.21,1.21,0,0,0-.45.45,1.34,1.34,0,0,0,0,1.34,1.24,1.24,0,0,0,.45.46A1.12,1.12,0,0,0,206.28,118.65Z"/><path class="cls-2" d="M214.78,120.23a2.4,2.4,0,0,1-1.37-.39,2.65,2.65,0,0,1-.9-1,3.3,3.3,0,0,1-.32-1.44,3.24,3.24,0,0,1,.32-1.44,2.68,2.68,0,0,1,.9-1,2.65,2.65,0,0,1,2.29-.23,2.32,2.32,0,0,1,.65.38,1,1,0,0,1,.31.41V111h2v9.07h-2v-.88a1.65,1.65,0,0,1-.41.49,2.32,2.32,0,0,1-.67.39A2,2,0,0,1,214.78,120.23Zm.61-1.58a1.28,1.28,0,0,0,.65-.16,1.24,1.24,0,0,0,.45-.46,1.39,1.39,0,0,0,0-1.33,1.32,1.32,0,0,0-.45-.46,1.29,1.29,0,0,0-.65-.17,1.24,1.24,0,0,0-.63.17,1.29,1.29,0,0,0-.44.46,1.46,1.46,0,0,0,0,1.33,1.22,1.22,0,0,0,.44.46A1.23,1.23,0,0,0,215.39,118.65Z"/><path class="cls-2" d="M221.42,117.79a1,1,0,0,0,.18.52,1,1,0,0,0,.46.35,1.79,1.79,0,0,0,.7.12,2.84,2.84,0,0,0,.68-.07,2.26,2.26,0,0,0,.54-.2,1.26,1.26,0,0,0,.35-.25l.78,1.24a2.05,2.05,0,0,1-.47.35,2.94,2.94,0,0,1-.78.27,6.05,6.05,0,0,1-1.24.11,3.58,3.58,0,0,1-1.6-.34,2.49,2.49,0,0,1-1.09-1,3,3,0,0,1-.4-1.6,3,3,0,0,1,.34-1.42,2.58,2.58,0,0,1,1-1,3.17,3.17,0,0,1,1.59-.37,3.48,3.48,0,0,1,1.53.32,2.37,2.37,0,0,1,1,1,3.31,3.31,0,0,1,.35,1.59v.21a.91.91,0,0,1,0,.21Zm2.05-1.05a1.09,1.09,0,0,0-.11-.42.88.88,0,0,0-.86-.48,1.06,1.06,0,0,0-.56.13.85.85,0,0,0-.34.34,1,1,0,0,0-.14.43Z"/><path class="cls-2" d="M228.81,114.5a4.88,4.88,0,0,1,1,.09,4.56,4.56,0,0,1,.74.2,1.85,1.85,0,0,1,.39.18l-.66,1.18a2.1,2.1,0,0,0-.46-.23,1.87,1.87,0,0,0-.76-.15,1.22,1.22,0,0,0-.53.1.32.32,0,0,0-.22.3.36.36,0,0,0,.24.32,2.51,2.51,0,0,0,.7.22,3.68,3.68,0,0,1,.8.25,1.73,1.73,0,0,1,.69.5,1.37,1.37,0,0,1,.27.89,1.7,1.7,0,0,1-.24.94,1.79,1.79,0,0,1-.65.57,3.56,3.56,0,0,1-.87.29,5.8,5.8,0,0,1-.91.08,4.92,4.92,0,0,1-1.08-.11,3.68,3.68,0,0,1-.74-.26l-.4-.23.65-1.32a2.34,2.34,0,0,0,.56.33,2,2,0,0,0,.83.18,1.31,1.31,0,0,0,.65-.13.37.37,0,0,0,.23-.33.33.33,0,0,0-.11-.26,1,1,0,0,0-.32-.17,3.8,3.8,0,0,0-.49-.13,3.23,3.23,0,0,1-.56-.17,2.27,2.27,0,0,1-.57-.31,1.54,1.54,0,0,1-.42-.49,1.45,1.45,0,0,1-.17-.72,1.23,1.23,0,0,1,.35-.89,2.13,2.13,0,0,1,.9-.54A3.83,3.83,0,0,1,228.81,114.5Z"/><path class="cls-2" d="M233.15,113.54a1.13,1.13,0,0,1-1.13-1.12,1.13,1.13,0,0,1,.33-.81,1.14,1.14,0,0,1,1.37-.18,1.15,1.15,0,0,1,.41.41,1.06,1.06,0,0,1,.16.58,1.09,1.09,0,0,1-.33.79A1.13,1.13,0,0,1,233.15,113.54Zm-1,6.53v-5.41h2v5.41Z"/><path class="cls-2" d="M239.71,120.07v-.88a1.49,1.49,0,0,1-.3.38,2.44,2.44,0,0,1-.63.46,2.12,2.12,0,0,1-.93.2,2.45,2.45,0,0,1-1.38-.39,2.57,2.57,0,0,1-.93-1,3.3,3.3,0,0,1-.32-1.44,3.24,3.24,0,0,1,.32-1.44,2.6,2.6,0,0,1,.93-1,2.45,2.45,0,0,1,1.38-.39,2.21,2.21,0,0,1,.89.16,2.27,2.27,0,0,1,.62.38,1.41,1.41,0,0,1,.33.41v-.79h2v5.41ZM238.35,123a7,7,0,0,1-1.12-.09,4,4,0,0,1-1-.34,2.45,2.45,0,0,1-.81-.65l1.17-1.22a2.63,2.63,0,0,0,.38.35,2.1,2.1,0,0,0,.54.28,2.66,2.66,0,0,0,.8.11,1.81,1.81,0,0,0,.76-.15,1.19,1.19,0,0,0,.5-.44,1.31,1.31,0,0,0,.18-.71V120h2v.25a2.54,2.54,0,0,1-.44,1.51,2.7,2.7,0,0,1-1.2.92A4.32,4.32,0,0,1,238.35,123Zm-1.17-5.59a1.26,1.26,0,0,0,.63,1.12,1.36,1.36,0,0,0,1.28,0,1.19,1.19,0,0,0,.43-.46,1.39,1.39,0,0,0,0-1.33,1.26,1.26,0,0,0-.43-.46,1.29,1.29,0,0,0-1.28,0,1.44,1.44,0,0,0-.46.46A1.36,1.36,0,0,0,237.18,117.37Z"/><path class="cls-2" d="M246.69,114.5a2.87,2.87,0,0,1,1.11.23,2,2,0,0,1,.89.73,2.26,2.26,0,0,1,.35,1.31v3.3h-2v-3a1.22,1.22,0,0,0-.28-.88,1,1,0,0,0-.72-.29,1.09,1.09,0,0,0-.56.15,1.27,1.27,0,0,0-.42.44,1.24,1.24,0,0,0-.16.64v2.91h-2v-5.41h2v.8a1,1,0,0,1,.33-.44,2.07,2.07,0,0,1,.64-.37A2.27,2.27,0,0,1,246.69,114.5Z"/><path class="cls-2" d="M251.8,117.79a1.1,1.1,0,0,0,.19.52,1.06,1.06,0,0,0,.45.35,1.86,1.86,0,0,0,.7.12,2.87,2.87,0,0,0,.69-.07,2.34,2.34,0,0,0,.53-.2,1.33,1.33,0,0,0,.36-.25l.77,1.24a2,2,0,0,1-.46.35,2.89,2.89,0,0,1-.79.27,5.88,5.88,0,0,1-1.23.11,3.55,3.55,0,0,1-1.6-.34,2.51,2.51,0,0,1-1.1-1,3.06,3.06,0,0,1-.39-1.6,2.9,2.9,0,0,1,.34-1.42,2.55,2.55,0,0,1,1-1,3.17,3.17,0,0,1,1.59-.37,3.45,3.45,0,0,1,1.53.32,2.27,2.27,0,0,1,1,1,3.2,3.2,0,0,1,.35,1.59v.21a1.1,1.1,0,0,1,0,.21Zm2-1.05a.94.94,0,0,0-.11-.42.89.89,0,0,0-.32-.35,1,1,0,0,0-.54-.13,1.08,1.08,0,0,0-.56.13.92.92,0,0,0-.34.34,1.09,1.09,0,0,0-.14.43Z"/><path class="cls-2" d="M258.61,120.07h-2v-5.41h2v.83h0a1.42,1.42,0,0,1,.26-.38,1.84,1.84,0,0,1,.57-.42,1.94,1.94,0,0,1,.91-.19,2,2,0,0,1,1.15.34l-.78,1.62a1.15,1.15,0,0,0-.32-.23,1.29,1.29,0,0,0-.59-.12,1.08,1.08,0,0,0-.66.2,1.24,1.24,0,0,0-.38.5,1.39,1.39,0,0,0-.12.54Z"/><path class="cls-2" d="M90,73.39H71.51A14.94,14.94,0,0,0,73.14,79a13.78,13.78,0,0,0,3.68,4.42,16.57,16.57,0,0,0,5.53,2.86,23.87,23.87,0,0,0,7.09,1,19,19,0,0,0,8.17-1.73A19.19,19.19,0,0,0,104,80.76a22,22,0,0,0,4.15-7.1,25.85,25.85,0,0,0,0-17.13A21.62,21.62,0,0,0,104,49.44a19.77,19.77,0,0,0-6.41-4.82,18.87,18.87,0,0,0-8.17-1.76q-6.37,0-10.25,2.59a21.22,21.22,0,0,0-6.14,6L57.43,44.13a43,43,0,0,1,4.4-5.75A32.32,32.32,0,0,1,68.27,33a32.72,32.72,0,0,1,9-4,44.68,44.68,0,0,1,12.12-1.48,38.88,38.88,0,0,1,15.27,2.89,35,35,0,0,1,11.79,8,35.48,35.48,0,0,1,7.59,12,42.16,42.16,0,0,1,0,29.37,35.76,35.76,0,0,1-7.59,12,34.81,34.81,0,0,1-11.79,8.06,38.88,38.88,0,0,1-15.27,2.89A37.48,37.48,0,0,1,74.59,99.9a34.24,34.24,0,0,1-11.55-8A36,36,0,0,1,55.59,80,40.1,40.1,0,0,1,53,65.47V60.85H90Z"/><path class="cls-2" d="M145.32,47a9.44,9.44,0,0,1-9.46-9.41,9.25,9.25,0,0,1,2.78-6.68,9.31,9.31,0,0,1,11.41-1.54,10.2,10.2,0,0,1,3.47,3.44A9.26,9.26,0,0,1,152,44.21,9.2,9.2,0,0,1,145.32,47Zm-8.58,54.45V56.28h16.72v45.16Z"/><rect class="cls-2" x="246.41" y="56.28" width="16.72" height="45.16"/><path class="cls-2" d="M208,43.72c-5.6-1.66-13-.27-15.47.9a19.77,19.77,0,0,0-6.41,4.82A21.62,21.62,0,0,0,182,56.53a25.85,25.85,0,0,0,0,17.13,22,22,0,0,0,4.15,7.1,19.19,19.19,0,0,0,6.41,4.81,19,19,0,0,0,8.17,1.73,23.87,23.87,0,0,0,7.09-1,16.57,16.57,0,0,0,5.53-2.86A13.78,13.78,0,0,0,217,79a14.94,14.94,0,0,0,1.63-5.64H200.15V60.85h37v4.62A40.1,40.1,0,0,1,234.55,80a36,36,0,0,1-7.45,11.88,34.24,34.24,0,0,1-11.55,8,37.48,37.48,0,0,1-14.85,2.86,38.88,38.88,0,0,1-15.27-2.89,34.81,34.81,0,0,1-11.79-8.06,35.76,35.76,0,0,1-7.59-12,42.16,42.16,0,0,1,0-29.37,35.48,35.48,0,0,1,7.59-12,35,35,0,0,1,11.79-8,38.88,38.88,0,0,1,15.27-2.89c4.58,0,9.58,1.3,13.08,2.29Z"/><path class="cls-3" d="M231.33,48.63a9.42,9.42,0,0,1-9.46-9.4,9.23,9.23,0,0,1,2.78-6.68A9.27,9.27,0,0,1,236.06,31a10.17,10.17,0,0,1,3.47,3.43A9.28,9.28,0,0,1,238,45.86,9.19,9.19,0,0,1,231.33,48.63Z"/></g></g></svg>