<svg xmlns="http://www.w3.org/2000/svg" viewBox="0 0 160.2 201.54"><defs><style>.cls-1{fill:#e39595;}.cls-2{fill:#c9c9c9;}.cls-3{fill:#020303;}.cls-4{fill:#1d1d1b;}.cls-5{fill:#d10e19;}</style></defs><g id="Livello_2" data-name="Livello 2"><g id="Livello_1-2" data-name="Livello 1"><rect class="cls-1" x="-20.65" y="20.69" width="201.54" height="160.16" rx="22.58" transform="translate(180.89 20.65) rotate(90)"/><path class="cls-2" d="M160.2,160.19V180c0,11.77-8.51,21.31-19,21.31H19c-10.5,0-19-9.54-19-21.31V160.19Z"/><polygon class="cls-3" points="69.09 171.63 79.36 171.63 79.36 173.81 72.47 185.92 68.89 185.92 75.58 174.45 69.09 174.45 69.09 171.63"/><path class="cls-3" d="M83,181.9a2.34,2.34,0,0,0,.27.58,2.08,2.08,0,0,0,.43.51,1.93,1.93,0,0,0,.63.36,2.75,2.75,0,0,0,.87.13,2,2,0,0,0,1.56-.65,2.47,2.47,0,0,0,.55-1.67,2.24,2.24,0,0,0-.54-1.55,1.88,1.88,0,0,0-1.43-.56,2.39,2.39,0,0,0-1,.2,2.63,2.63,0,0,0-.69.48,2.05,2.05,0,0,0-.37.5l-2.68-1,1.27-7.62h8v2.82H84.58l-.45,2.69a1.35,1.35,0,0,1,.35-.24,4.07,4.07,0,0,1,.75-.29,3.91,3.91,0,0,1,1.07-.14,4.61,4.61,0,0,1,2,.47,3.82,3.82,0,0,1,1.61,1.46,4.74,4.74,0,0,1,.62,2.58,5.41,5.41,0,0,1-.67,2.75A4.63,4.63,0,0,1,88,185.54a5.55,5.55,0,0,1-2.7.64,6.84,6.84,0,0,1-2-.27,5.18,5.18,0,0,1-1.49-.73,4.51,4.51,0,0,1-1-1,4.23,4.23,0,0,1-.58-1.05Z"/><path class="cls-3" d="M99.09,173.07a3.48,3.48,0,0,0-1.32-1.23,4,4,0,0,0-2-.46,4.08,4.08,0,0,0-2,.46,3.44,3.44,0,0,0-1.33,1.23,3.29,3.29,0,0,0-.47,1.72,3.21,3.21,0,0,0,.47,1.69,3.46,3.46,0,0,0,1.32,1.25,4.09,4.09,0,0,0,2,.47,4,4,0,0,0,2-.47,3.5,3.5,0,0,0,1.31-1.25,3.12,3.12,0,0,0,.47-1.69A3.29,3.29,0,0,0,99.09,173.07Zm-2.21,2.85a1.42,1.42,0,0,1-1.08.44,1.48,1.48,0,0,1-1.11-.44,1.5,1.5,0,0,1-.43-1.13,1.57,1.57,0,0,1,.43-1.14,1.48,1.48,0,0,1,1.11-.45,1.4,1.4,0,0,1,1.08.45,1.61,1.61,0,0,1,.42,1.14A1.53,1.53,0,0,1,96.88,175.92Z"/><polygon class="cls-3" points="103.47 171.63 105.61 171.63 96.67 185.92 94.53 185.92 103.47 171.63"/><path class="cls-3" d="M107.62,181.07a3.46,3.46,0,0,0-1.33-1.24,4.43,4.43,0,0,0-3.93,0,3.49,3.49,0,0,0-1.34,1.24,3.23,3.23,0,0,0-.47,1.71,3.18,3.18,0,0,0,.47,1.7,3.36,3.36,0,0,0,1.32,1.24,4.09,4.09,0,0,0,2,.47,4,4,0,0,0,2-.47,3.36,3.36,0,0,0,1.32-1.24,3.18,3.18,0,0,0,.47-1.7A3.23,3.23,0,0,0,107.62,181.07Zm-2.22,2.84a1.42,1.42,0,0,1-1.07.44,1.48,1.48,0,0,1-1.12-.44,1.55,1.55,0,0,1-.42-1.13,1.59,1.59,0,0,1,.43-1.15,1.48,1.48,0,0,1,1.11-.44,1.42,1.42,0,0,1,1.07.44,1.63,1.63,0,0,1,.42,1.15A1.55,1.55,0,0,1,105.4,183.91Z"/><path class="cls-4" d="M45.35,86.33a11.58,11.58,0,0,0-6.75.4,8.75,8.75,0,0,0-2.8,2.09A9.66,9.66,0,0,0,34,91.92a11.39,11.39,0,0,0,0,7.47,9.88,9.88,0,0,0,1.81,3.1,8.31,8.31,0,0,0,6.36,2.86,10.36,10.36,0,0,0,3.1-.44,7.14,7.14,0,0,0,2.41-1.24,6.24,6.24,0,0,0,1.61-1.94,6.44,6.44,0,0,0,.7-2.46H41.92V93.8H58.07v2a17.52,17.52,0,0,1-1.14,6.36,15.62,15.62,0,0,1-3.25,5.18,14.87,14.87,0,0,1-5,3.48,16.38,16.38,0,0,1-6.48,1.25,17,17,0,0,1-6.66-1.26,15.14,15.14,0,0,1-5.14-3.52,15.46,15.46,0,0,1-3.31-5.24,18.26,18.26,0,0,1,0-12.81,15.34,15.34,0,0,1,8.45-8.74,17,17,0,0,1,6.66-1.26,22.24,22.24,0,0,1,5.71,1Z"/><path class="cls-5" d="M55.53,88.48a4.11,4.11,0,0,1-2.92-7,3.92,3.92,0,0,1,2.92-1.24,3.87,3.87,0,0,1,2.06.57,4.39,4.39,0,0,1,1.51,1.49,4,4,0,0,1-.65,5A4,4,0,0,1,55.53,88.48Z"/><path class="cls-4" d="M72.46,85.47H79v.82a7.08,7.08,0,0,1-.46,2.58A6.34,6.34,0,0,1,77.24,91a5.94,5.94,0,0,1-2,1.42,6.59,6.59,0,0,1-2.63.5,6.91,6.91,0,0,1-2.7-.51A6,6,0,0,1,67.77,91a6.29,6.29,0,0,1-1.35-2.12,7.45,7.45,0,0,1,0-5.21,6.24,6.24,0,0,1,3.44-3.54,6.74,6.74,0,0,1,2.7-.52,7.75,7.75,0,0,1,2.15.27,5.73,5.73,0,0,1,1.6.7,5.46,5.46,0,0,1,1.14,1,6.71,6.71,0,0,1,.78,1l-2.76,1.31a3.84,3.84,0,0,0-1.09-1.07,3.29,3.29,0,0,0-1.82-.46A3.33,3.33,0,0,0,70,83.45a4,4,0,0,0-.74,1.25,4.57,4.57,0,0,0,0,3A4.19,4.19,0,0,0,70,89a3.62,3.62,0,0,0,1.13.85,3.49,3.49,0,0,0,1.45.31A4.17,4.17,0,0,0,73.82,90a3.15,3.15,0,0,0,1-.51,2.51,2.51,0,0,0,.94-1.78H72.46Z"/><path class="cls-4" d="M83.41,92.66h-3v-8h3V85.9h0a1.91,1.91,0,0,1,.38-.57,2.81,2.81,0,0,1,.85-.63,3,3,0,0,1,1.33-.28,2.9,2.9,0,0,1,1,.18,3.13,3.13,0,0,1,.68.32l-1.15,2.41A1.51,1.51,0,0,0,86,87a1.83,1.83,0,0,0-.86-.18,1.51,1.51,0,0,0-1,.31,1.82,1.82,0,0,0-.56.73,2.05,2.05,0,0,0-.18.81Z"/><path class="cls-4" d="M94.63,92.66V91.37a2.33,2.33,0,0,1-.44.56,3.49,3.49,0,0,1-.94.67,2.93,2.93,0,0,1-1.36.29,3.67,3.67,0,0,1-2-.57,3.9,3.9,0,0,1-1.37-1.53,4.94,4.94,0,0,1,0-4.25A3.86,3.86,0,0,1,89.84,85a3.68,3.68,0,0,1,2-.58,3.52,3.52,0,0,1,1.31.24,3.14,3.14,0,0,1,.92.57,2.32,2.32,0,0,1,.48.6V84.66h3v8Zm-3.74-4a1.89,1.89,0,0,0,.26,1,1.75,1.75,0,0,0,.67.68,1.91,1.91,0,0,0,.94.25,1.84,1.84,0,0,0,.95-.25,1.77,1.77,0,0,0,.65-.68,2.18,2.18,0,0,0,0-2,1.88,1.88,0,0,0-.65-.69,1.84,1.84,0,0,0-.95-.25,1.91,1.91,0,0,0-.94.25,1.85,1.85,0,0,0-.67.69A1.88,1.88,0,0,0,90.89,88.66Z"/><path class="cls-4" d="M102.34,96.71H99.41v-12h3v1.17a2.2,2.2,0,0,1,.52-.6,3.58,3.58,0,0,1,1-.57,3.83,3.83,0,0,1,1.36-.24,3.47,3.47,0,0,1,2,.58,3.73,3.73,0,0,1,1.28,1.54,4.91,4.91,0,0,1,.45,2.12,4.67,4.67,0,0,1-.48,2.13,3.83,3.83,0,0,1-1.34,1.53,3.58,3.58,0,0,1-2,.57,3.12,3.12,0,0,1-1.43-.29,3.08,3.08,0,0,1-.92-.67,2.36,2.36,0,0,1-.43-.56Zm3.73-8a2,2,0,0,0-.24-1,1.82,1.82,0,0,0-.66-.69,1.8,1.8,0,0,0-.93-.25,1.91,1.91,0,0,0-1,.25,1.93,1.93,0,0,0-.67.69,2.1,2.1,0,0,0,0,2,1.82,1.82,0,0,0,.67.68,1.91,1.91,0,0,0,1,.25,1.8,1.8,0,0,0,.93-.25,1.73,1.73,0,0,0,.66-.68A2,2,0,0,0,106.07,88.66Z"/><path class="cls-4" d="M116,84.42a4.1,4.1,0,0,1,1.64.35A3,3,0,0,1,119,85.84a3.35,3.35,0,0,1,.51,1.94v4.88h-3V88.27a1.94,1.94,0,0,0-.38-1.3,1.34,1.34,0,0,0-1-.43,1.71,1.71,0,0,0-.84.23,1.81,1.81,0,0,0-.65.64,1.9,1.9,0,0,0-.25,1v4.3h-3V79.25h3v6.59a1.64,1.64,0,0,1,.49-.65,3.15,3.15,0,0,1,.94-.55A3.53,3.53,0,0,1,116,84.42Z"/><path class="cls-4" d="M122.87,83a1.67,1.67,0,0,1-1.67-1.66,1.64,1.64,0,0,1,.49-1.19,1.64,1.64,0,0,1,2-.27,1.81,1.81,0,0,1,.62.61,1.64,1.64,0,0,1,.23.85A1.69,1.69,0,0,1,122.87,83Zm-1.52,9.65v-8h3v8Z"/><path class="cls-4" d="M130.7,90.57a1.93,1.93,0,0,0,.92-.2,2,2,0,0,0,.48-.3l1.36,2a3.8,3.8,0,0,1-.54.32,4.66,4.66,0,0,1-.95.35,5.13,5.13,0,0,1-1.3.14,5.32,5.32,0,0,1-2.42-.52,4,4,0,0,1-1.62-1.47,4.63,4.63,0,0,1,0-4.49A3.89,3.89,0,0,1,128.25,85a5.32,5.32,0,0,1,2.42-.53,5.35,5.35,0,0,1,2.25.5,2.66,2.66,0,0,1,.55.32l-1.39,2a1,1,0,0,0-.25-.19,1.79,1.79,0,0,0-.46-.23,2.2,2.2,0,0,0-.67-.1,1.73,1.73,0,0,0-.89.25,1.87,1.87,0,0,0-.67.67,1.92,1.92,0,0,0-.25,1,1.88,1.88,0,0,0,.25,1,1.82,1.82,0,0,0,.67.68A1.73,1.73,0,0,0,130.7,90.57Z"/><path class="cls-4" d="M68.5,108.23a3.43,3.43,0,0,1-1.92-.54,3.66,3.66,0,0,1-1.26-1.46,4.76,4.76,0,0,1,0-4,3.66,3.66,0,0,1,1.26-1.46,3.35,3.35,0,0,1,1.92-.55,3.51,3.51,0,0,1,1.3.23,3.33,3.33,0,0,1,.92.53,1.33,1.33,0,0,1,.42.58V95.26H74V108H71.17v-1.23a2.6,2.6,0,0,1-.57.68,3.47,3.47,0,0,1-.94.55A3,3,0,0,1,68.5,108.23Zm.86-2.21a1.78,1.78,0,0,0,.92-.24,1.62,1.62,0,0,0,.63-.64,1.89,1.89,0,0,0,.23-.93,1.91,1.91,0,0,0-.23-.93,1.71,1.71,0,0,0-.63-.65,1.78,1.78,0,0,0-.92-.24,1.66,1.66,0,0,0-.88.24,1.69,1.69,0,0,0-.62.65,1.91,1.91,0,0,0-.23.93,1.89,1.89,0,0,0,.23.93,1.59,1.59,0,0,0,.62.64A1.66,1.66,0,0,0,69.36,106Z"/><path class="cls-4" d="M77.83,104.8a1.32,1.32,0,0,0,.26.73,1.54,1.54,0,0,0,.64.5,2.61,2.61,0,0,0,1,.17,4.13,4.13,0,0,0,1-.1,3.27,3.27,0,0,0,.75-.28,2.07,2.07,0,0,0,.49-.35l1.1,1.74a2.56,2.56,0,0,1-.66.48,4,4,0,0,1-1.1.39,8.36,8.36,0,0,1-1.73.15,5.25,5.25,0,0,1-2.26-.47,3.61,3.61,0,0,1-1.53-1.39,4.27,4.27,0,0,1-.56-2.25,4.14,4.14,0,0,1,.48-2,3.5,3.5,0,0,1,1.41-1.42,4.57,4.57,0,0,1,2.23-.52,4.71,4.71,0,0,1,2.16.46,3.23,3.23,0,0,1,1.4,1.34,4.57,4.57,0,0,1,.49,2.23v.29a1.62,1.62,0,0,1,0,.3Zm2.88-1.47a1.45,1.45,0,0,0-.16-.59,1.22,1.22,0,0,0-.44-.49,1.36,1.36,0,0,0-.76-.19,1.47,1.47,0,0,0-.79.19,1.28,1.28,0,0,0-.48.47,1.32,1.32,0,0,0-.19.61Z"/><path class="cls-4" d="M88.22,100.18a6.6,6.6,0,0,1,1.38.13,6.13,6.13,0,0,1,1,.28,1.9,1.9,0,0,1,.54.26l-.92,1.66a3.56,3.56,0,0,0-.65-.34,2.78,2.78,0,0,0-1.06-.2,1.83,1.83,0,0,0-.75.13.44.44,0,0,0-.31.43.5.5,0,0,0,.34.45,3.57,3.57,0,0,0,1,.3,6.69,6.69,0,0,1,1.13.36,2.49,2.49,0,0,1,1,.7,2,2,0,0,1,.38,1.25A2.19,2.19,0,0,1,90,107.71a4.5,4.5,0,0,1-1.22.41,8.2,8.2,0,0,1-1.28.11,6.22,6.22,0,0,1-1.52-.16,4.63,4.63,0,0,1-1-.36,3.5,3.5,0,0,1-.55-.32l.9-1.86a3.65,3.65,0,0,0,.79.46,2.73,2.73,0,0,0,1.16.26,2,2,0,0,0,.92-.18.53.53,0,0,0,.32-.46.44.44,0,0,0-.16-.37,1.38,1.38,0,0,0-.44-.24,5.24,5.24,0,0,0-.7-.19,4.49,4.49,0,0,1-.78-.23,3.2,3.2,0,0,1-.79-.43,2,2,0,0,1-.83-1.7,1.72,1.72,0,0,1,.49-1.26,3.07,3.07,0,0,1,1.27-.75A5.23,5.23,0,0,1,88.22,100.18Z"/><path class="cls-4" d="M94.32,98.84a1.59,1.59,0,0,1-1.59-1.59,1.6,1.6,0,0,1,1.59-1.6,1.48,1.48,0,0,1,.8.22,1.69,1.69,0,0,1,.58.58,1.48,1.48,0,0,1,.22.8,1.6,1.6,0,0,1-1.6,1.59ZM92.87,108V100.4h2.82V108Z"/><path class="cls-4" d="M103.54,108v-1.23a2.38,2.38,0,0,1-.43.53,3.14,3.14,0,0,1-.89.64,2.8,2.8,0,0,1-1.3.28,3.47,3.47,0,0,1-1.94-.54,3.68,3.68,0,0,1-1.3-1.46,4.67,4.67,0,0,1,0-4,3.68,3.68,0,0,1,1.3-1.46,3.4,3.4,0,0,1,1.94-.55,3.17,3.17,0,0,1,1.25.23,3,3,0,0,1,.87.53,2.06,2.06,0,0,1,.47.58V100.4h2.8V108Zm-1.91,4.07a9.28,9.28,0,0,1-1.58-.14,5.44,5.44,0,0,1-1.46-.48,3.26,3.26,0,0,1-1.14-.91l1.65-1.72a3.08,3.08,0,0,0,.52.49,2.54,2.54,0,0,0,.77.4,3.36,3.36,0,0,0,1.12.16,2.51,2.51,0,0,0,1.06-.21,1.65,1.65,0,0,0,.71-.62,1.87,1.87,0,0,0,.26-1v-.19h2.77v.35a3.48,3.48,0,0,1-.63,2.12,3.83,3.83,0,0,1-1.68,1.3A6.21,6.21,0,0,1,101.63,112.08ZM100,104.21a1.79,1.79,0,0,0,.24.93,1.64,1.64,0,0,0,.64.64,1.73,1.73,0,0,0,.9.24,1.68,1.68,0,0,0,.9-.24,1.57,1.57,0,0,0,.61-.64,1.89,1.89,0,0,0,.23-.93,1.91,1.91,0,0,0-.23-.93,1.66,1.66,0,0,0-.61-.65,1.68,1.68,0,0,0-.9-.24,1.75,1.75,0,0,0-1.54.89A1.81,1.81,0,0,0,100,104.21Z"/><path class="cls-4" d="M113.35,100.18a4,4,0,0,1,1.55.32,2.85,2.85,0,0,1,1.25,1,3.13,3.13,0,0,1,.49,1.84V108h-2.82v-4.18a1.75,1.75,0,0,0-.39-1.23,1.36,1.36,0,0,0-1-.41,1.44,1.44,0,0,0-.78.22,1.67,1.67,0,0,0-.6.61,1.77,1.77,0,0,0-.22.9V108H108V100.4h2.82v1.12a1.48,1.48,0,0,1,.47-.61,2.83,2.83,0,0,1,.89-.52A3.29,3.29,0,0,1,113.35,100.18Z"/><path class="cls-4" d="M120.53,104.8a1.31,1.31,0,0,0,.25.73,1.61,1.61,0,0,0,.64.5,2.66,2.66,0,0,0,1,.17,4,4,0,0,0,1-.1,3.27,3.27,0,0,0,.75-.28,2.15,2.15,0,0,0,.5-.35l1.09,1.74a2.56,2.56,0,0,1-.66.48,3.77,3.77,0,0,1-1.1.39,8.23,8.23,0,0,1-1.73.15,5.17,5.17,0,0,1-2.25-.47,3.58,3.58,0,0,1-1.54-1.39,4.26,4.26,0,0,1-.55-2.25,4.14,4.14,0,0,1,.48-2,3.5,3.5,0,0,1,1.41-1.42,4.54,4.54,0,0,1,2.23-.52,4.67,4.67,0,0,1,2.15.46,3.2,3.2,0,0,1,1.41,1.34,4.68,4.68,0,0,1,.49,2.23v.29a1.62,1.62,0,0,1,0,.3Zm2.88-1.47a1.45,1.45,0,0,0-.16-.59,1.24,1.24,0,0,0-.45-.49,1.34,1.34,0,0,0-.76-.19,1.46,1.46,0,0,0-.78.19,1.28,1.28,0,0,0-.48.47,1.34,1.34,0,0,0-.2.61Z"/><path class="cls-4" d="M130.08,108h-2.81V100.4h2.81v1.18h0a1.91,1.91,0,0,1,.36-.54,2.67,2.67,0,0,1,.81-.6,2.8,2.8,0,0,1,1.26-.26,3.05,3.05,0,0,1,1,.16,3.64,3.64,0,0,1,.65.31l-1.1,2.29a1.6,1.6,0,0,0-.46-.33,1.78,1.78,0,0,0-.82-.17,1.49,1.49,0,0,0-.93.29,1.69,1.69,0,0,0-.53.69,2,2,0,0,0-.18.77Z"/></g></g></svg>