<svg xmlns="http://www.w3.org/2000/svg" viewBox="0 0 322.55 103.29"><defs><style>.cls-1{fill:#bc1719;}.cls-2{fill:#e25e61;}.cls-3{fill:#020303;}.cls-4{fill:#1d1d1b;}.cls-5{fill:#d90e19;}.cls-6{fill:#fff;}</style></defs><g id="Livello_2" data-name="Livello 2"><g id="Livello_1-2" data-name="Livello 1"><path class="cls-1" d="M322.55,35.14v33a35.15,35.15,0,0,1-35.15,35.14H161.27V0H287.4A35.15,35.15,0,0,1,322.55,35.14Z"/><path class="cls-2" d="M161.27,0V103.29H35.14A35.14,35.14,0,0,1,0,68.15v-33A35.14,35.14,0,0,1,35.14,0Z"/><rect class="cls-3" x="105.89" width="113.24" height="103.29"/><path class="cls-4" d="M64.77,30.74c-5.59-1.66-13-.27-15.47.9a19.73,19.73,0,0,0-6.4,4.82,21.82,21.82,0,0,0-4.16,7.09,26,26,0,0,0,0,17.13,22.19,22.19,0,0,0,4.16,7.1,18.91,18.91,0,0,0,14.57,6.54,23.89,23.89,0,0,0,7.1-1,16.52,16.52,0,0,0,5.52-2.86,13.94,13.94,0,0,0,3.69-4.42,14.75,14.75,0,0,0,1.62-5.64H56.92V47.87h37v4.62a40.1,40.1,0,0,1-2.61,14.57,36,36,0,0,1-7.46,11.88,34,34,0,0,1-11.55,8,37.59,37.59,0,0,1-14.85,2.86,38.79,38.79,0,0,1-15.26-2.89,34.75,34.75,0,0,1-11.8-8.06,35.76,35.76,0,0,1-7.59-12A40.58,40.58,0,0,1,20.18,52.1a40.36,40.36,0,0,1,2.64-14.65,35.38,35.38,0,0,1,7.59-12,35,35,0,0,1,11.8-8,38.79,38.79,0,0,1,15.26-2.89c4.59,0,9.58,1.3,13.08,2.29Z"/><path class="cls-5" d="M88.11,35.65a9.42,9.42,0,0,1-9.46-9.4,9.17,9.17,0,0,1,2.78-6.68A9.27,9.27,0,0,1,92.84,18a10.14,10.14,0,0,1,3.46,3.43,9.29,9.29,0,0,1-1.48,11.42A9.21,9.21,0,0,1,88.11,35.65Z"/><path class="cls-4" d="M276.31,30.74c-5.59-1.66-13-.27-15.46.9a19.66,19.66,0,0,0-6.41,4.82,21.82,21.82,0,0,0-4.16,7.09,26,26,0,0,0,0,17.13,22.19,22.19,0,0,0,4.16,7.1A19,19,0,0,0,269,74.32a23.89,23.89,0,0,0,7.1-1,16.67,16.67,0,0,0,5.53-2.86,14,14,0,0,0,3.68-4.42,14.75,14.75,0,0,0,1.62-5.64H268.46V47.87h37v4.62a40.1,40.1,0,0,1-2.61,14.57,36,36,0,0,1-7.46,11.88,34,34,0,0,1-11.55,8A37.59,37.59,0,0,1,269,89.78a38.79,38.79,0,0,1-15.26-2.89A34.75,34.75,0,0,1,242,78.83a35.76,35.76,0,0,1-7.59-12,40.58,40.58,0,0,1-2.64-14.72,40.36,40.36,0,0,1,2.64-14.65,35.38,35.38,0,0,1,7.59-12,35,35,0,0,1,11.8-8A38.79,38.79,0,0,1,269,14.54c4.59,0,9.58,1.3,13.08,2.29Z"/><path class="cls-6" d="M299.65,35.65a9.42,9.42,0,0,1-9.46-9.4A9.17,9.17,0,0,1,293,19.57,9.27,9.27,0,0,1,304.38,18a10.14,10.14,0,0,1,3.46,3.43,9.29,9.29,0,0,1-1.48,11.42A9.21,9.21,0,0,1,299.65,35.65Z"/><path class="cls-6" d="M169.7,28.45c-5.6-1.66-13-.28-15.47.9a19.74,19.74,0,0,0-6.41,4.81,21.67,21.67,0,0,0-4.15,7.1,25.85,25.85,0,0,0,0,17.13,21.94,21.94,0,0,0,4.15,7.09A18.92,18.92,0,0,0,162.4,72a23.87,23.87,0,0,0,7.09-1A16.57,16.57,0,0,0,175,68.18a13.81,13.81,0,0,0,3.68-4.43,14.83,14.83,0,0,0,1.63-5.64H161.85V45.57h37v4.62a40.16,40.16,0,0,1-2.61,14.58,36,36,0,0,1-7.45,11.88,34.08,34.08,0,0,1-11.55,8,37.48,37.48,0,0,1-14.85,2.86,39.06,39.06,0,0,1-15.27-2.88,35,35,0,0,1-11.79-8.06,35.81,35.81,0,0,1-7.59-12,40.53,40.53,0,0,1-2.64-14.71,40.41,40.41,0,0,1,2.64-14.66,35.58,35.58,0,0,1,7.59-12,35.16,35.16,0,0,1,11.79-8,38.88,38.88,0,0,1,15.27-2.89c4.58,0,9.58,1.31,13.08,2.3Z"/><path class="cls-5" d="M193,33.36A9.44,9.44,0,0,1,183.57,24a9.25,9.25,0,0,1,2.78-6.68,9.31,9.31,0,0,1,11.41-1.54,10.2,10.2,0,0,1,3.47,3.44,9.26,9.26,0,0,1-1.49,11.41A9.2,9.2,0,0,1,193,33.36Z"/></g></g></svg>