<svg xmlns="http://www.w3.org/2000/svg" viewBox="0 0 201.54 160.25"><defs><style>.cls-1{fill:#eb9d9d;}.cls-2{fill:#d1d1d1;}.cls-3{fill:#020303;}.cls-4{fill:#1d1d1b;}.cls-5{fill:#d90e19;}</style></defs><g id="Livello_2" data-name="Livello 2"><g id="Livello_1-2" data-name="Livello 1"><rect class="cls-1" width="201.54" height="159.9" rx="22.58"/><path class="cls-2" d="M201.54,119.09v19.84c0,11.77-10.71,21.32-23.91,21.32H23.92C10.71,160.25,0,150.7,0,138.93V119.09Z"/><path class="cls-3" d="M89,141.8a2.58,2.58,0,0,0,.28.58,1.88,1.88,0,0,0,.43.51,1.93,1.93,0,0,0,.63.36,2.47,2.47,0,0,0,.86.13,2,2,0,0,0,1.57-.64,2.43,2.43,0,0,0,.54-1.68,2.21,2.21,0,0,0-.53-1.55,1.89,1.89,0,0,0-1.44-.56,2.2,2.2,0,0,0-1,.21,2.26,2.26,0,0,0-.69.47,1.82,1.82,0,0,0-.37.5l-2.68-1,1.27-7.62h8v2.81H90.6l-.45,2.7a1.42,1.42,0,0,1,.34-.24,3.53,3.53,0,0,1,.76-.3,3.85,3.85,0,0,1,1.07-.14,4.68,4.68,0,0,1,2,.47A3.86,3.86,0,0,1,96,138.3a4.79,4.79,0,0,1,.63,2.58,5.32,5.32,0,0,1-.68,2.75,4.69,4.69,0,0,1-1.85,1.82,5.68,5.68,0,0,1-2.71.64,6.87,6.87,0,0,1-2-.28,5.18,5.18,0,0,1-1.49-.73,4.48,4.48,0,0,1-1-1,4.85,4.85,0,0,1-.58-1.06Z"/><path class="cls-3" d="M109.08,135.44a6.56,6.56,0,0,0-1.28-2.32,5.34,5.34,0,0,0-1.85-1.39,5.35,5.35,0,0,0-6.25,1.39,6.9,6.9,0,0,0-1.29,2.32,10.22,10.22,0,0,0-.47,3.25,10.88,10.88,0,0,0,.47,3.39,6.47,6.47,0,0,0,1.29,2.29,5.17,5.17,0,0,0,1.86,1.29,5.95,5.95,0,0,0,4.39,0,5,5,0,0,0,1.85-1.29,6.17,6.17,0,0,0,1.28-2.29,10.88,10.88,0,0,0,.47-3.39A10.22,10.22,0,0,0,109.08,135.44Zm-3.09,5.8a3.12,3.12,0,0,1-.88,1.5,2,2,0,0,1-1.35.49,2,2,0,0,1-1.37-.49,3.21,3.21,0,0,1-.89-1.5,9,9,0,0,1-.31-2.55,8.8,8.8,0,0,1,.31-2.47,3.55,3.55,0,0,1,.89-1.56,1.93,1.93,0,0,1,1.37-.54,1.88,1.88,0,0,1,1.35.54,3.44,3.44,0,0,1,.88,1.56,8.44,8.44,0,0,1,.31,2.47A8.79,8.79,0,0,1,106,141.24Z"/><path class="cls-3" d="M117.94,133a3.5,3.5,0,0,0-1.32-1.24,4.14,4.14,0,0,0-2-.46,4.19,4.19,0,0,0-2,.46,3.36,3.36,0,0,0-1.32,1.24,3.15,3.15,0,0,0-.48,1.71,3.25,3.25,0,0,0,.47,1.7,3.44,3.44,0,0,0,1.32,1.24,4,4,0,0,0,2,.47,3.93,3.93,0,0,0,2-.47,3.48,3.48,0,0,0,1.31-1.24,3.16,3.16,0,0,0,.47-1.7A3.23,3.23,0,0,0,117.94,133Zm-2.21,2.85a1.42,1.42,0,0,1-1.08.43,1.47,1.47,0,0,1-1.11-.43,1.54,1.54,0,0,1-.43-1.14,1.57,1.57,0,0,1,.43-1.14,1.48,1.48,0,0,1,1.11-.45,1.4,1.4,0,0,1,1.08.45,1.61,1.61,0,0,1,.42,1.14A1.57,1.57,0,0,1,115.73,135.82Z"/><polygon class="cls-3" points="122.32 131.54 124.47 131.54 115.53 145.83 113.38 145.83 122.32 131.54"/><path class="cls-3" d="M126.47,141a3.51,3.51,0,0,0-1.33-1.23,4.34,4.34,0,0,0-3.93,0,3.54,3.54,0,0,0-1.34,1.23,3.23,3.23,0,0,0-.47,1.71,3.18,3.18,0,0,0,.47,1.7,3.39,3.39,0,0,0,1.32,1.25,4.09,4.09,0,0,0,2,.46,4,4,0,0,0,2-.46,3.39,3.39,0,0,0,1.32-1.25,3.18,3.18,0,0,0,.47-1.7A3.23,3.23,0,0,0,126.47,141Zm-2.22,2.85a1.39,1.39,0,0,1-1.07.43,1.48,1.48,0,0,1-1.12-.43,1.74,1.74,0,0,1,0-2.28,1.45,1.45,0,0,1,1.11-.45,1.37,1.37,0,0,1,1.07.45,1.61,1.61,0,0,1,.42,1.14A1.57,1.57,0,0,1,124.25,143.81Z"/><path class="cls-4" d="M103.93,86.31h1.7v.22a1.89,1.89,0,0,1-.12.67,1.6,1.6,0,0,1-.34.54,1.64,1.64,0,0,1-.53.37,1.68,1.68,0,0,1-.68.13,1.8,1.8,0,0,1-.71-.13,1.58,1.58,0,0,1-.54-.37,1.71,1.71,0,0,1-.35-.56,1.85,1.85,0,0,1-.12-.67,1.91,1.91,0,0,1,.12-.68,1.67,1.67,0,0,1,.35-.55,1.58,1.58,0,0,1,.54-.37,1.8,1.8,0,0,1,.71-.13,1.84,1.84,0,0,1,.55.07,1.33,1.33,0,0,1,.42.18,1.53,1.53,0,0,1,.3.25c.08.09.14.18.2.26l-.72.34a1.06,1.06,0,0,0-.28-.28.84.84,0,0,0-.47-.12.79.79,0,0,0-.38.09.89.89,0,0,0-.3.22,1.13,1.13,0,0,0-.19.32,1.34,1.34,0,0,0-.06.4,1.23,1.23,0,0,0,.06.39,1.19,1.19,0,0,0,.19.33,1.05,1.05,0,0,0,.3.22.92.92,0,0,0,.38.08,1.07,1.07,0,0,0,.32,0,.79.79,0,0,0,.26-.13.67.67,0,0,0,.17-.2.77.77,0,0,0,.07-.26h-.85Z"/><path class="cls-4" d="M106.77,88.18H106V86.1h.77v.32h0a.63.63,0,0,1,.1-.14.67.67,0,0,1,.22-.17.87.87,0,0,1,.35-.07.75.75,0,0,1,.26,0,.78.78,0,0,1,.18.08l-.3.63a.36.36,0,0,0-.13-.09.48.48,0,0,0-.22,0,.39.39,0,0,0-.25.08.4.4,0,0,0-.15.19.54.54,0,0,0,0,.21Z"/><path class="cls-4" d="M109.69,88.18v-.34a.64.64,0,0,1-.12.15.74.74,0,0,1-.24.17.68.68,0,0,1-.36.08.94.94,0,0,1-.53-.15,1,1,0,0,1-.35-.39,1.16,1.16,0,0,1-.13-.56,1.14,1.14,0,0,1,.13-.55,1,1,0,0,1,.35-.4A.94.94,0,0,1,109,86a1,1,0,0,1,.35.06,1,1,0,0,1,.23.15.43.43,0,0,1,.13.16V86.1h.77v2.08Zm-1-1a.55.55,0,0,0,.06.26.49.49,0,0,0,.18.17.4.4,0,0,0,.24.07.41.41,0,0,0,.25-.07.46.46,0,0,0,.17-.17.55.55,0,0,0,.06-.26.51.51,0,0,0-.06-.25.42.42,0,0,0-.17-.18.49.49,0,0,0-.25-.06.48.48,0,0,0-.24.06.45.45,0,0,0-.18.18A.51.51,0,0,0,108.72,87.14Z"/><path class="cls-4" d="M111.69,89.23h-.76V86.1h.77v.31a.57.57,0,0,1,.13-.16,1.27,1.27,0,0,1,.26-.15,1,1,0,0,1,.35-.06.89.89,0,0,1,.52.15,1,1,0,0,1,.34.4,1.42,1.42,0,0,1,.11.55,1.28,1.28,0,0,1-.12.56,1,1,0,0,1-.35.39.94.94,0,0,1-.53.15.72.72,0,0,1-.37-.08.74.74,0,0,1-.24-.17.55.55,0,0,1-.11-.15Zm1-2.09a.51.51,0,0,0-.06-.25.49.49,0,0,0-.17-.18.55.55,0,0,0-.5,0,.42.42,0,0,0-.17.18.51.51,0,0,0-.06.25.55.55,0,0,0,.06.26.46.46,0,0,0,.17.17.48.48,0,0,0,.5,0,.46.46,0,0,0,.23-.43Z"/><path class="cls-4" d="M115.25,86a1.06,1.06,0,0,1,.42.09.77.77,0,0,1,.34.28.85.85,0,0,1,.14.5v1.27h-.77V87a.49.49,0,0,0-.1-.34.37.37,0,0,0-.27-.11.43.43,0,0,0-.22.06.46.46,0,0,0-.17.17.48.48,0,0,0-.06.24v1.12h-.78V84.7h.78v1.71a.36.36,0,0,1,.12-.17.86.86,0,0,1,.25-.14A.83.83,0,0,1,115.25,86Z"/><path class="cls-4" d="M117,85.67a.41.41,0,0,1-.43-.43.44.44,0,0,1,.43-.44.4.4,0,0,1,.22.06.49.49,0,0,1,.16.16.43.43,0,0,1,.06.22.42.42,0,0,1-.13.31A.43.43,0,0,1,117,85.67Zm-.39,2.51V86.1h.77v2.08Z"/><path class="cls-4" d="M119.06,87.64a.52.52,0,0,0,.23,0l.13-.08.35.52a.51.51,0,0,1-.14.08.67.67,0,0,1-.24.09,1.18,1.18,0,0,1-.34,0,1.39,1.39,0,0,1-.63-.13,1,1,0,0,1-.42-.39,1.2,1.2,0,0,1,0-1.16,1,1,0,0,1,.42-.38,1.39,1.39,0,0,1,.63-.14,1.57,1.57,0,0,1,.33,0l.25.09.15.08-.36.53-.07,0-.12-.06-.17,0a.5.5,0,0,0-.24.06.5.5,0,0,0,0,.86A.42.42,0,0,0,119.06,87.64Z"/><path class="cls-4" d="M122.32,88.24a.94.94,0,0,1-.53-.15,1.07,1.07,0,0,1-.34-.39,1.28,1.28,0,0,1-.12-.56,1.26,1.26,0,0,1,.12-.55,1,1,0,0,1,.34-.4.94.94,0,0,1,.53-.15,1,1,0,0,1,.35.06.82.82,0,0,1,.25.15.32.32,0,0,1,.12.16V84.7h.77v3.48h-.76v-.34a.56.56,0,0,1-.16.19,1,1,0,0,1-.25.15A.87.87,0,0,1,122.32,88.24Zm.23-.6a.41.41,0,0,0,.25-.07.49.49,0,0,0,.18-.17.55.55,0,0,0,.06-.26.51.51,0,0,0-.06-.25.45.45,0,0,0-.18-.18.49.49,0,0,0-.25-.06.48.48,0,0,0-.24.06.42.42,0,0,0-.17.18.51.51,0,0,0-.06.25.55.55,0,0,0,.06.26.46.46,0,0,0,.17.17A.4.4,0,0,0,122.55,87.64Z"/><path class="cls-4" d="M124.87,87.31a.32.32,0,0,0,.07.19.39.39,0,0,0,.17.14.76.76,0,0,0,.27,0,1.12,1.12,0,0,0,.27,0l.2-.08.14-.09.3.47a.83.83,0,0,1-.18.13,1,1,0,0,1-.31.11,2.05,2.05,0,0,1-.47,0,1.31,1.31,0,0,1-.61-.13.91.91,0,0,1-.42-.38,1.07,1.07,0,0,1-.16-.61,1.12,1.12,0,0,1,.14-.55,1,1,0,0,1,.38-.39,1.28,1.28,0,0,1,.61-.14,1.22,1.22,0,0,1,.59.13.88.88,0,0,1,.38.36,1.28,1.28,0,0,1,.14.61v.08s0,.07,0,.09Zm.78-.41a.32.32,0,0,0,0-.16.37.37,0,0,0-.12-.13.33.33,0,0,0-.21,0,.36.36,0,0,0-.21,0,.27.27,0,0,0-.13.13.44.44,0,0,0-.06.16Z"/><path class="cls-4" d="M127.71,86a1.45,1.45,0,0,1,.37,0,1.54,1.54,0,0,1,.29.07l.15.07-.26.46a.52.52,0,0,0-.17-.09.72.72,0,0,0-.29-.06.46.46,0,0,0-.21,0,.12.12,0,0,0-.08.11.15.15,0,0,0,.09.13,1,1,0,0,0,.27.08,1.39,1.39,0,0,1,.31.1.61.61,0,0,1,.26.19.53.53,0,0,1,.1.34.64.64,0,0,1-.09.36.67.67,0,0,1-.25.22,1.17,1.17,0,0,1-.33.11l-.35,0a1.76,1.76,0,0,1-.42,0,1.28,1.28,0,0,1-.28-.1l-.15-.09.25-.51a.86.86,0,0,0,.21.13.71.71,0,0,0,.32.07.58.58,0,0,0,.25,0,.14.14,0,0,0,.09-.12.14.14,0,0,0-.05-.11l-.12-.06a.74.74,0,0,0-.19,0l-.21-.07a.65.65,0,0,1-.22-.11.58.58,0,0,1-.16-.19.51.51,0,0,1-.07-.28.46.46,0,0,1,.14-.34.89.89,0,0,1,.34-.21A1.77,1.77,0,0,1,127.71,86Z"/><path class="cls-4" d="M129.37,85.67a.41.41,0,0,1-.43-.43.44.44,0,0,1,.43-.44.4.4,0,0,1,.22.06.49.49,0,0,1,.16.16.43.43,0,0,1,.06.22.42.42,0,0,1-.13.31A.43.43,0,0,1,129.37,85.67ZM129,88.18V86.1h.77v2.08Z"/><path class="cls-4" d="M131.89,88.18v-.34a.4.4,0,0,1-.11.15.92.92,0,0,1-.25.17.67.67,0,0,1-.35.08.94.94,0,0,1-.53-.15,1,1,0,0,1-.36-.39,1.28,1.28,0,0,1-.12-.56,1.26,1.26,0,0,1,.12-.55,1,1,0,0,1,.36-.4.94.94,0,0,1,.53-.15.82.82,0,0,1,.58.21.51.51,0,0,1,.12.16V86.1h.77v2.08Zm-.52,1.11a2.09,2.09,0,0,1-.43,0,1.11,1.11,0,0,1-.4-.13.84.84,0,0,1-.31-.25l.45-.46.14.13a1,1,0,0,0,.21.11,1,1,0,0,0,.31,0,.65.65,0,0,0,.29-.06.35.35,0,0,0,.19-.17.45.45,0,0,0,.07-.27v0h.76v.1a1,1,0,0,1-.17.58,1.07,1.07,0,0,1-.46.35A1.67,1.67,0,0,1,131.37,89.29Zm-.45-2.15a.49.49,0,0,0,.24.43.43.43,0,0,0,.25.07.4.4,0,0,0,.24-.07.46.46,0,0,0,.17-.17.55.55,0,0,0,.06-.26.51.51,0,0,0-.06-.25.42.42,0,0,0-.17-.18.48.48,0,0,0-.24-.06.51.51,0,0,0-.25.06.42.42,0,0,0-.17.18A.43.43,0,0,0,130.92,87.14Z"/><path class="cls-4" d="M134.57,86a1.07,1.07,0,0,1,.43.09.77.77,0,0,1,.34.28.84.84,0,0,1,.13.5v1.27h-.77V87a.49.49,0,0,0-.1-.34.41.41,0,0,0-.28-.11.43.43,0,0,0-.22.06.52.52,0,0,0-.16.17.48.48,0,0,0-.06.24v1.12h-.77V86.1h.77v.31a.39.39,0,0,1,.13-.17.69.69,0,0,1,.24-.14A.87.87,0,0,1,134.57,86Z"/><path class="cls-4" d="M136.53,87.31a.4.4,0,0,0,.07.19.42.42,0,0,0,.18.14.68.68,0,0,0,.27,0,1,1,0,0,0,.47-.11.48.48,0,0,0,.13-.09l.3.47a.52.52,0,0,1-.18.13.86.86,0,0,1-.3.11,2.05,2.05,0,0,1-.47,0,1.38,1.38,0,0,1-.62-.13.91.91,0,0,1-.42-.38,1.15,1.15,0,0,1-.15-.61,1.12,1.12,0,0,1,.13-.55,1,1,0,0,1,.39-.39,1.25,1.25,0,0,1,.61-.14,1.18,1.18,0,0,1,.58.13.85.85,0,0,1,.39.36,1.28,1.28,0,0,1,.13.61v.17Zm.79-.41a.47.47,0,0,0,0-.16.37.37,0,0,0-.12-.13.36.36,0,0,0-.21,0,.38.38,0,0,0-.22,0,.33.33,0,0,0-.13.13.3.3,0,0,0,0,.16Z"/><path class="cls-4" d="M139.15,88.18h-.77V86.1h.77v.32h0l.1-.14a.8.8,0,0,1,.22-.17.91.91,0,0,1,.35-.07.71.71,0,0,1,.26,0,.62.62,0,0,1,.18.08l-.3.63a.31.31,0,0,0-.12-.09.52.52,0,0,0-.23,0,.41.41,0,0,0-.25.08.4.4,0,0,0-.15.19.52.52,0,0,0,0,.21Z"/><path class="cls-4" d="M74.41,70.26h-7.1a5.71,5.71,0,0,0,.63,2.16,5.22,5.22,0,0,0,1.41,1.7,6.37,6.37,0,0,0,2.12,1.1,9.33,9.33,0,0,0,2.73.38,7.35,7.35,0,0,0,3.13-.66,7.46,7.46,0,0,0,2.46-1.85,8.47,8.47,0,0,0,1.6-2.73,9.92,9.92,0,0,0,0-6.57,8.26,8.26,0,0,0-1.6-2.73,7.74,7.74,0,0,0-2.46-1.85,7.2,7.2,0,0,0-3.13-.67,7,7,0,0,0-3.94,1,8.12,8.12,0,0,0-2.35,2.32l-6-2.83a16.23,16.23,0,0,1,1.69-2.2,11.92,11.92,0,0,1,2.47-2.08,12.42,12.42,0,0,1,3.47-1.52,17.23,17.23,0,0,1,4.66-.57,14.93,14.93,0,0,1,5.86,1.11,13.34,13.34,0,0,1,4.53,3.08,13.54,13.54,0,0,1,2.91,4.6,16.1,16.1,0,0,1,0,11.28,13.58,13.58,0,0,1-2.91,4.61,13.39,13.39,0,0,1-4.53,3.1,14.93,14.93,0,0,1-5.86,1.1,14.41,14.41,0,0,1-5.7-1.09,13.23,13.23,0,0,1-4.44-3.07,13.61,13.61,0,0,1-2.86-4.56,15.33,15.33,0,0,1-1-5.59V65.44H74.41Z"/><path class="cls-4" d="M95.65,60.12A3.62,3.62,0,0,1,92,56.51,3.54,3.54,0,0,1,93.09,54a3.43,3.43,0,0,1,2.56-1.09,3.48,3.48,0,0,1,1.82.49,4.09,4.09,0,0,1,1.33,1.32,3.56,3.56,0,0,1-.57,4.39A3.54,3.54,0,0,1,95.65,60.12ZM92.36,81V63.69h6.42V81Z"/><rect class="cls-4" x="134.46" y="63.69" width="6.42" height="17.34"/><path class="cls-4" d="M119.72,58.87a10.22,10.22,0,0,0-5.94.34,7.74,7.74,0,0,0-2.46,1.85,8.44,8.44,0,0,0-1.6,2.73,9.92,9.92,0,0,0,0,6.57,8.66,8.66,0,0,0,1.6,2.73,7.46,7.46,0,0,0,2.46,1.85,7.35,7.35,0,0,0,3.13.66,9.33,9.33,0,0,0,2.73-.38,6.37,6.37,0,0,0,2.12-1.1,5.22,5.22,0,0,0,1.41-1.7,5.53,5.53,0,0,0,.63-2.16h-7.1V65.44h14.21v1.78a15.33,15.33,0,0,1-1,5.59,13.61,13.61,0,0,1-2.86,4.56,13.23,13.23,0,0,1-4.44,3.07,14.37,14.37,0,0,1-5.7,1.09,15,15,0,0,1-5.86-1.1,13.39,13.39,0,0,1-4.53-3.1,13.74,13.74,0,0,1-2.91-4.61,16.25,16.25,0,0,1,0-11.28,13.69,13.69,0,0,1,2.91-4.6,13.34,13.34,0,0,1,4.53-3.08,15,15,0,0,1,5.86-1.11,19.41,19.41,0,0,1,5,.88Z"/><path class="cls-5" d="M128.67,60.75A3.62,3.62,0,0,1,125,57.14a3.54,3.54,0,0,1,1.07-2.56,3.56,3.56,0,0,1,4.38-.59,3.91,3.91,0,0,1,1.33,1.32,3.41,3.41,0,0,1,.51,1.83,3.46,3.46,0,0,1-1.08,2.55A3.54,3.54,0,0,1,128.67,60.75Z"/></g></g></svg>