<svg xmlns="http://www.w3.org/2000/svg" viewBox="0 0 201.54 160.25"><defs><style>.cls-1{fill:#eb9d9d;}.cls-2{fill:#d1d1d1;}.cls-3{fill:#1d1d1b;}.cls-4{fill:#d90e19;}.cls-5{fill:#020303;}</style></defs><g id="Livello_2" data-name="Livello 2"><g id="Livello_1-2" data-name="Livello 1"><rect class="cls-1" width="201.54" height="159.9" rx="22.58"/><path class="cls-2" d="M201.54,119.09v19.84c0,11.77-10.71,21.32-23.91,21.32H23.92C10.71,160.25,0,150.7,0,138.93V119.09Z"/><path class="cls-3" d="M46.48,56.08a18.48,18.48,0,0,0-10.77.63,13.61,13.61,0,0,0-4.46,3.35A14.93,14.93,0,0,0,28.36,65a18,18,0,0,0,0,11.93,15.35,15.35,0,0,0,2.89,4.94,13.34,13.34,0,0,0,4.46,3.35,13.2,13.2,0,0,0,5.69,1.21,16.61,16.61,0,0,0,4.94-.69,11.81,11.81,0,0,0,3.85-2,9.72,9.72,0,0,0,2.56-3.09,10,10,0,0,0,1.13-3.92H41V68H66.79v3.22A28,28,0,0,1,65,81.37a24.87,24.87,0,0,1-5.19,8.27,23.7,23.7,0,0,1-8,5.56,26.08,26.08,0,0,1-10.34,2,27.11,27.11,0,0,1-10.63-2,24.32,24.32,0,0,1-8.22-5.61,25,25,0,0,1-5.28-8.37,29.33,29.33,0,0,1,0-20.45,24.41,24.41,0,0,1,13.5-14,27.11,27.11,0,0,1,10.63-2,35.3,35.3,0,0,1,9.11,1.6Z"/><path class="cls-4" d="M62.73,59.5A6.59,6.59,0,0,1,56.14,53a6.41,6.41,0,0,1,1.94-4.65,6.47,6.47,0,0,1,8-1.08,7.09,7.09,0,0,1,2.41,2.4,6.43,6.43,0,0,1-1,7.94A6.41,6.41,0,0,1,62.73,59.5Z"/><path class="cls-3" d="M89.77,54.7h10.47V56a11.42,11.42,0,0,1-.74,4.12,10.45,10.45,0,0,1-2.11,3.36,9.65,9.65,0,0,1-3.27,2.25,10.56,10.56,0,0,1-4.2.81,11.07,11.07,0,0,1-4.31-.81,9.92,9.92,0,0,1-3.34-2.28,10.13,10.13,0,0,1-2.15-3.4,12,12,0,0,1,0-8.31,10,10,0,0,1,2.15-3.39,9.75,9.75,0,0,1,3.34-2.27,11.07,11.07,0,0,1,4.31-.82,12.63,12.63,0,0,1,3.43.42,9.42,9.42,0,0,1,2.56,1.12,9.32,9.32,0,0,1,1.82,1.53A12.93,12.93,0,0,1,99,50l-4.42,2.09a6.07,6.07,0,0,0-1.74-1.72,5.19,5.19,0,0,0-2.9-.73,5.35,5.35,0,0,0-2.31.5,5.5,5.5,0,0,0-1.81,1.36,6.11,6.11,0,0,0-1.17,2,7.18,7.18,0,0,0,0,4.84,6.11,6.11,0,0,0,1.17,2,5.5,5.5,0,0,0,1.81,1.36,5.35,5.35,0,0,0,2.31.49,6.64,6.64,0,0,0,2-.28,4.81,4.81,0,0,0,1.56-.81,3.89,3.89,0,0,0,1-1.25,4,4,0,0,0,.46-1.6H89.77Z"/><path class="cls-3" d="M107.24,66.18h-4.73V53.41h4.73v2h-.08a3,3,0,0,1,.6-.91,4.64,4.64,0,0,1,1.36-1,4.59,4.59,0,0,1,2.13-.45,4.77,4.77,0,0,1,1.63.28,4.45,4.45,0,0,1,1.09.52l-1.83,3.84a2.53,2.53,0,0,0-.78-.55,2.93,2.93,0,0,0-1.37-.29,2.49,2.49,0,0,0-1.57.48,2.93,2.93,0,0,0-.9,1.17,3.38,3.38,0,0,0-.28,1.29Z"/><path class="cls-3" d="M125.16,66.18V64.11a3.89,3.89,0,0,1-.71.9,5.55,5.55,0,0,1-1.5,1.07,4.73,4.73,0,0,1-2.18.47,5.82,5.82,0,0,1-3.27-.91,6.2,6.2,0,0,1-2.18-2.44,7.89,7.89,0,0,1,0-6.8A6.3,6.3,0,0,1,117.5,54a5.83,5.83,0,0,1,3.27-.92,5.43,5.43,0,0,1,2.1.38,5,5,0,0,1,1.46.91,3.62,3.62,0,0,1,.78,1V53.41h4.7V66.18Zm-6-6.38a3,3,0,0,0,.41,1.56,2.87,2.87,0,0,0,1.08,1.08,2.94,2.94,0,0,0,1.5.39,2.9,2.9,0,0,0,1.51-.39,2.75,2.75,0,0,0,1-1.08,3.39,3.39,0,0,0,0-3.12,2.85,2.85,0,0,0-1-1.09,2.91,2.91,0,0,0-1.51-.4,2.95,2.95,0,0,0-2.58,1.49A3,3,0,0,0,119.18,59.8Z"/><path class="cls-3" d="M137.46,72.65h-4.68V53.41h4.73v1.86a3.09,3.09,0,0,1,.83-1,5.69,5.69,0,0,1,1.57-.91,5.91,5.91,0,0,1,2.17-.38,5.53,5.53,0,0,1,3.2.92,6.05,6.05,0,0,1,2,2.45,7.91,7.91,0,0,1,.72,3.4,7.61,7.61,0,0,1-.76,3.4,6.19,6.19,0,0,1-2.14,2.44,5.73,5.73,0,0,1-3.25.91,5,5,0,0,1-2.28-.47A5.11,5.11,0,0,1,138.14,65a3.63,3.63,0,0,1-.68-.91Zm6-12.85a3.11,3.11,0,0,0-.39-1.56,2.86,2.86,0,0,0-2.54-1.49,3,3,0,0,0-1.53.4,2.78,2.78,0,0,0-1.06,1.09,3.31,3.31,0,0,0,0,3.12A2.69,2.69,0,0,0,139,62.44a3,3,0,0,0,1.53.39,2.88,2.88,0,0,0,1.49-.39A2.8,2.8,0,0,0,143,61.36,3.11,3.11,0,0,0,143.42,59.8Z"/><path class="cls-3" d="M159.32,53a6.65,6.65,0,0,1,2.61.55A4.8,4.8,0,0,1,164,55.3a5.26,5.26,0,0,1,.82,3.09v7.79h-4.72v-7a3,3,0,0,0-.62-2.06,2.13,2.13,0,0,0-1.67-.69,2.7,2.7,0,0,0-1.34.36,2.9,2.9,0,0,0-1.43,2.55v6.86h-4.74V44.77h4.74V55.29a2.47,2.47,0,0,1,.77-1,5.31,5.31,0,0,1,1.51-.87A5.47,5.47,0,0,1,159.32,53Z"/><path class="cls-3" d="M170.23,50.78a2.68,2.68,0,0,1-2.67-2.66,2.7,2.7,0,0,1,2.67-2.69,2.56,2.56,0,0,1,1.34.36,2.87,2.87,0,0,1,1,1,2.49,2.49,0,0,1,.37,1.35,2.53,2.53,0,0,1-.79,1.87A2.58,2.58,0,0,1,170.23,50.78Zm-2.42,15.4V53.41h4.73V66.18Z"/><path class="cls-3" d="M182.72,62.83a3.18,3.18,0,0,0,1.47-.3A4,4,0,0,0,185,62l2.16,3.21a5.85,5.85,0,0,1-.86.52,7.43,7.43,0,0,1-1.51.55,8.71,8.71,0,0,1-2.08.23,8.6,8.6,0,0,1-3.86-.83,6.23,6.23,0,0,1-2.59-2.36,7.41,7.41,0,0,1,0-7.15,6.19,6.19,0,0,1,2.59-2.34,8.47,8.47,0,0,1,3.86-.84,8.07,8.07,0,0,1,2.06.25,8.38,8.38,0,0,1,1.53.54,3.67,3.67,0,0,1,.87.52l-2.21,3.23a3,3,0,0,0-.39-.3,2.69,2.69,0,0,0-.74-.36,3.15,3.15,0,0,0-1.08-.16,2.76,2.76,0,0,0-1.42.39,3,3,0,0,0-1.06,1.07,3.07,3.07,0,0,0-.41,1.58,3,3,0,0,0,.41,1.57,2.89,2.89,0,0,0,1.06,1.08A2.76,2.76,0,0,0,182.72,62.83Z"/><path class="cls-3" d="M83.44,91a5.46,5.46,0,0,1-3.06-.86,5.84,5.84,0,0,1-2-2.32,7.7,7.7,0,0,1,0-6.46,5.8,5.8,0,0,1,2-2.33,5.39,5.39,0,0,1,3.06-.88,5.54,5.54,0,0,1,2.07.36A5.64,5.64,0,0,1,87,79.4a2.18,2.18,0,0,1,.68.91v-10h4.49V90.68H87.7v-2a3.59,3.59,0,0,1-.92,1.09,5.61,5.61,0,0,1-1.49.89A4.91,4.91,0,0,1,83.44,91Zm1.38-3.53a2.82,2.82,0,0,0,1.45-.37,2.73,2.73,0,0,0,1-1,3.17,3.17,0,0,0,0-3,2.83,2.83,0,0,0-1-1,2.92,2.92,0,0,0-1.45-.37,2.74,2.74,0,0,0-1.41.37,2.85,2.85,0,0,0-1,1,3.24,3.24,0,0,0,0,3,2.75,2.75,0,0,0,1,1A2.65,2.65,0,0,0,84.82,87.5Z"/><path class="cls-3" d="M98.33,85.56a2.15,2.15,0,0,0,.42,1.16,2.36,2.36,0,0,0,1,.8,4,4,0,0,0,1.56.28,6.63,6.63,0,0,0,1.55-.17,5.57,5.57,0,0,0,1.2-.45,3.59,3.59,0,0,0,.79-.55l1.74,2.78a4.46,4.46,0,0,1-1,.77,6.75,6.75,0,0,1-1.76.61A13.21,13.21,0,0,1,101,91a8.2,8.2,0,0,1-3.59-.75A5.63,5.63,0,0,1,95,88.06a6.8,6.8,0,0,1-.89-3.59,6.67,6.67,0,0,1,.77-3.2A5.73,5.73,0,0,1,97.12,79a7.1,7.1,0,0,1,3.56-.84,7.68,7.68,0,0,1,3.44.73,5.06,5.06,0,0,1,2.24,2.15,7.35,7.35,0,0,1,.79,3.56v.46a2.36,2.36,0,0,1,0,.48Zm4.6-2.35a2.2,2.2,0,0,0-.25-.94,2,2,0,0,0-.71-.78,2.24,2.24,0,0,0-1.21-.3,2.42,2.42,0,0,0-1.26.29,2.16,2.16,0,0,0-.77.76,2.26,2.26,0,0,0-.31,1Z"/><path class="cls-3" d="M114.92,78.18a11.34,11.34,0,0,1,2.19.2,13.4,13.4,0,0,1,1.67.45,3.52,3.52,0,0,1,.86.42l-1.46,2.65a5.94,5.94,0,0,0-1.05-.54,4.35,4.35,0,0,0-1.69-.32,3.07,3.07,0,0,0-1.2.21.73.73,0,0,0-.49.68.84.84,0,0,0,.54.73,6.72,6.72,0,0,0,1.57.48,9.29,9.29,0,0,1,1.8.56,3.93,3.93,0,0,1,1.53,1.13,3,3,0,0,1,.61,2,3.49,3.49,0,0,1-2,3.38,6.79,6.79,0,0,1-2,.65,12.09,12.09,0,0,1-2,.18,10.08,10.08,0,0,1-2.41-.25,7.81,7.81,0,0,1-1.67-.58,6.32,6.32,0,0,1-.88-.51l1.45-3a5.55,5.55,0,0,0,1.25.73,4.35,4.35,0,0,0,1.85.41,3.25,3.25,0,0,0,1.47-.28.85.85,0,0,0,.51-.74.74.74,0,0,0-.25-.59,2.13,2.13,0,0,0-.71-.39,10.26,10.26,0,0,0-1.11-.29,8.27,8.27,0,0,1-1.26-.37,5.28,5.28,0,0,1-1.25-.69,3.28,3.28,0,0,1-1-1.1,3.25,3.25,0,0,1-.37-1.61,2.75,2.75,0,0,1,.78-2,4.83,4.83,0,0,1,2-1.21A8.44,8.44,0,0,1,114.92,78.18Z"/><path class="cls-3" d="M124.65,76a2.54,2.54,0,0,1-2.54-2.53,2.49,2.49,0,0,1,.75-1.8,2.43,2.43,0,0,1,1.79-.76,2.46,2.46,0,0,1,1.28.35,2.76,2.76,0,0,1,.93.93,2.44,2.44,0,0,1,.35,1.28,2.41,2.41,0,0,1-.75,1.78A2.48,2.48,0,0,1,124.65,76Zm-2.3,14.64V78.54h4.49V90.68Z"/><path class="cls-3" d="M139.37,90.68v-2a3.84,3.84,0,0,1-.68.86,5.12,5.12,0,0,1-1.42,1,4.57,4.57,0,0,1-2.07.45,5.63,5.63,0,0,1-3.11-.86A5.88,5.88,0,0,1,130,87.85a7.42,7.42,0,0,1,0-6.46,5.84,5.84,0,0,1,2.07-2.33,5.56,5.56,0,0,1,3.11-.88,4.9,4.9,0,0,1,3.38,1.22,3.43,3.43,0,0,1,.74.91V78.54h4.47V90.68Zm-3.05,6.49A14.14,14.14,0,0,1,133.8,97a8.5,8.5,0,0,1-2.33-.76,5.18,5.18,0,0,1-1.82-1.46L132.28,92a6.43,6.43,0,0,0,.84.78,4.18,4.18,0,0,0,1.23.63,5.4,5.4,0,0,0,1.78.26,4.09,4.09,0,0,0,1.7-.34,2.66,2.66,0,0,0,1.13-1,3,3,0,0,0,.41-1.59v-.29h4.42V91a5.67,5.67,0,0,1-1,3.39,6.12,6.12,0,0,1-2.69,2.06A9.68,9.68,0,0,1,136.32,97.17Zm-2.63-12.55a2.83,2.83,0,0,0,1.41,2.51,2.77,2.77,0,0,0,1.43.37,2.7,2.7,0,0,0,1.43-.37,2.63,2.63,0,0,0,1-1,3.17,3.17,0,0,0,0-3,2.72,2.72,0,0,0-1-1,2.79,2.79,0,0,0-1.43-.37,2.87,2.87,0,0,0-1.43.37,2.93,2.93,0,0,0-1,1A2.85,2.85,0,0,0,133.69,84.62Z"/><path class="cls-3" d="M155,78.18a6.39,6.39,0,0,1,2.49.52,4.67,4.67,0,0,1,2,1.64,5,5,0,0,1,.78,2.93v7.41h-4.51V84a2.78,2.78,0,0,0-.62-2,2.15,2.15,0,0,0-1.63-.66,2.43,2.43,0,0,0-1.25.35,2.61,2.61,0,0,0-.94,1,2.76,2.76,0,0,0-.37,1.44v6.52h-4.49V78.54H151v1.79a2.5,2.5,0,0,1,.75-1,5,5,0,0,1,1.43-.82A5.22,5.22,0,0,1,155,78.18Z"/><path class="cls-3" d="M166.48,85.56a2.15,2.15,0,0,0,.42,1.16,2.36,2.36,0,0,0,1,.8,4,4,0,0,0,1.57.28,6.6,6.6,0,0,0,1.54-.17,5.57,5.57,0,0,0,1.2-.45,3.59,3.59,0,0,0,.79-.55l1.74,2.78a4.6,4.6,0,0,1-1,.77,7,7,0,0,1-1.76.61,13.31,13.31,0,0,1-2.77.24,8.2,8.2,0,0,1-3.59-.75,5.63,5.63,0,0,1-2.46-2.22,6.8,6.8,0,0,1-.88-3.59,6.66,6.66,0,0,1,.76-3.2A5.79,5.79,0,0,1,165.27,79a7.14,7.14,0,0,1,3.57-.84,7.64,7.64,0,0,1,3.43.73,5.06,5.06,0,0,1,2.24,2.15,7.24,7.24,0,0,1,.79,3.56v.46a2.36,2.36,0,0,1,0,.48Zm4.6-2.35a2.2,2.2,0,0,0-.25-.94,1.9,1.9,0,0,0-.71-.78,2.21,2.21,0,0,0-1.21-.3,2.45,2.45,0,0,0-1.26.29,2.16,2.16,0,0,0-.77.76,2.4,2.4,0,0,0-.31,1Z"/><path class="cls-3" d="M181.74,90.68h-4.49V78.54h4.49v1.88h-.07a2.87,2.87,0,0,1,.58-.87,4.14,4.14,0,0,1,1.28-1,4.48,4.48,0,0,1,2-.42,4.54,4.54,0,0,1,1.55.26,4.59,4.59,0,0,1,1,.5l-1.75,3.65a2.33,2.33,0,0,0-.73-.52,2.73,2.73,0,0,0-1.31-.28,2.3,2.3,0,0,0-1.48.46,2.72,2.72,0,0,0-.86,1.11,3.21,3.21,0,0,0-.28,1.23Z"/><polygon class="cls-5" points="80.18 137.16 77.91 138.35 77.91 135.27 81.89 133.05 83.42 133.05 83.42 147.34 80.18 147.34 80.18 137.16"/><path class="cls-5" d="M96.34,137a6.51,6.51,0,0,0-1.28-2.31,5.38,5.38,0,0,0-6.24-1.39A5.47,5.47,0,0,0,87,134.64,6.85,6.85,0,0,0,85.67,137a10.29,10.29,0,0,0-.47,3.26,10.77,10.77,0,0,0,.47,3.38A6.3,6.3,0,0,0,87,145.88a5.07,5.07,0,0,0,1.86,1.3,5.95,5.95,0,0,0,4.39,0,5,5,0,0,0,1.85-1.3,6,6,0,0,0,1.28-2.29,10.77,10.77,0,0,0,.47-3.38A10.29,10.29,0,0,0,96.34,137Zm-3.09,5.81a3.12,3.12,0,0,1-.88,1.5,2,2,0,0,1-1.35.49,2,2,0,0,1-1.37-.49,3.21,3.21,0,0,1-.89-1.5,8.7,8.7,0,0,1-.31-2.55,8.44,8.44,0,0,1,.31-2.47,3.55,3.55,0,0,1,.89-1.56,1.93,1.93,0,0,1,1.37-.54,1.88,1.88,0,0,1,1.35.54,3.44,3.44,0,0,1,.88,1.56,8.44,8.44,0,0,1,.31,2.47A8.79,8.79,0,0,1,93.25,142.76Z"/><path class="cls-5" d="M109.18,137a6.67,6.67,0,0,0-1.28-2.31,5.34,5.34,0,0,0-8.1,0A6.68,6.68,0,0,0,98.51,137a10.29,10.29,0,0,0-.47,3.26,10.77,10.77,0,0,0,.47,3.38,6.16,6.16,0,0,0,1.29,2.29,5,5,0,0,0,1.86,1.3,5.95,5.95,0,0,0,4.39,0,5,5,0,0,0,1.85-1.3,6.15,6.15,0,0,0,1.28-2.29,10.77,10.77,0,0,0,.47-3.38A10.29,10.29,0,0,0,109.18,137Zm-3.09,5.81a3.2,3.2,0,0,1-.88,1.5,2.13,2.13,0,0,1-2.72,0,3.21,3.21,0,0,1-.89-1.5,8.7,8.7,0,0,1-.31-2.55,8.44,8.44,0,0,1,.31-2.47,3.55,3.55,0,0,1,.89-1.56,2,2,0,0,1,2.72,0,3.54,3.54,0,0,1,.88,1.56,8.8,8.8,0,0,1,.31,2.47A9.15,9.15,0,0,1,106.09,142.76Z"/><path class="cls-5" d="M118,134.49a3.36,3.36,0,0,0-1.32-1.24,4,4,0,0,0-2-.46,4,4,0,0,0-2,.46,3.46,3.46,0,0,0-1.33,1.24,3.23,3.23,0,0,0-.47,1.71,3.18,3.18,0,0,0,.47,1.7,3.44,3.44,0,0,0,1.32,1.24,4.05,4.05,0,0,0,2,.47,4,4,0,0,0,2-.47A3.44,3.44,0,0,0,118,137.9a3.27,3.27,0,0,0,.47-1.7A3.15,3.15,0,0,0,118,134.49Zm-2.2,2.85a1.44,1.44,0,0,1-1.09.43,1.5,1.5,0,0,1-1.11-.43,1.74,1.74,0,0,1,0-2.28,1.47,1.47,0,0,1,1.1-.45,1.42,1.42,0,0,1,1.09.45,1.61,1.61,0,0,1,.42,1.14A1.57,1.57,0,0,1,115.83,137.34Z"/><polygon class="cls-5" points="122.42 133.05 124.56 133.05 115.62 147.34 113.48 147.34 122.42 133.05"/><path class="cls-5" d="M126.56,142.48a3.41,3.41,0,0,0-1.32-1.23,4.36,4.36,0,0,0-3.94,0,3.51,3.51,0,0,0-1.33,1.23,3.14,3.14,0,0,0-.47,1.71,3.18,3.18,0,0,0,.47,1.7,3.36,3.36,0,0,0,1.32,1.24,4.41,4.41,0,0,0,4,0,3.36,3.36,0,0,0,1.32-1.24,3.27,3.27,0,0,0,.47-1.7A3.15,3.15,0,0,0,126.56,142.48Zm-2.21,2.85a1.47,1.47,0,0,1-1.08.43,1.51,1.51,0,0,1-1.11-.43,1.57,1.57,0,0,1-.42-1.14,1.61,1.61,0,0,1,.42-1.14,1.48,1.48,0,0,1,1.11-.45,1.41,1.41,0,0,1,1.08.45,1.61,1.61,0,0,1,.42,1.14A1.57,1.57,0,0,1,124.35,145.33Z"/></g></g></svg>