<svg xmlns="http://www.w3.org/2000/svg" viewBox="0 0 160.2 201.54"><defs><style>.cls-1{fill:#e39595;}.cls-2{fill:#c9c9c9;}.cls-3{fill:#020303;}.cls-4{fill:#1d1d1b;}.cls-5{fill:#d10e19;}</style></defs><g id="Livello_2" data-name="Livello 2"><g id="Livello_1-2" data-name="Livello 1"><rect class="cls-1" x="-20.65" y="20.69" width="201.54" height="160.16" rx="22.58" transform="translate(180.89 20.65) rotate(90)"/><path class="cls-2" d="M160.2,160.19V180c0,11.77-8.51,21.31-19,21.31H19c-10.5,0-19-9.54-19-21.31V160.19Z"/><path class="cls-3" d="M65.81,182.32a3.38,3.38,0,0,0,.27.58,2.13,2.13,0,0,0,.44.51,1.93,1.93,0,0,0,.63.36,2.73,2.73,0,0,0,.86.13,2,2,0,0,0,1.57-.65,2.42,2.42,0,0,0,.54-1.67,2.19,2.19,0,0,0-.53-1.55,1.89,1.89,0,0,0-1.44-.56,2.28,2.28,0,0,0-1.69.68,2.13,2.13,0,0,0-.38.5l-2.67-1,1.27-7.62h8v2.82H67.39L67,177.56a1.42,1.42,0,0,1,.34-.24,4.2,4.2,0,0,1,.76-.29,3.85,3.85,0,0,1,1.07-.14,4.68,4.68,0,0,1,2,.47,3.79,3.79,0,0,1,1.6,1.46,4.74,4.74,0,0,1,.63,2.58,5.42,5.42,0,0,1-.68,2.75A4.67,4.67,0,0,1,70.85,186a5.57,5.57,0,0,1-2.71.64,6.88,6.88,0,0,1-2-.27,5.31,5.31,0,0,1-1.49-.73,4.73,4.73,0,0,1-1-1,4.58,4.58,0,0,1-.58-1Z"/><path class="cls-3" d="M85.88,176a6.56,6.56,0,0,0-1.28-2.32,5.34,5.34,0,0,0-1.85-1.39,5.35,5.35,0,0,0-6.25,1.39A6.9,6.9,0,0,0,75.21,176a10.22,10.22,0,0,0-.47,3.25,10.88,10.88,0,0,0,.47,3.39,6.47,6.47,0,0,0,1.29,2.29,5.17,5.17,0,0,0,1.86,1.29,5.95,5.95,0,0,0,4.39,0,5,5,0,0,0,1.85-1.29,6.17,6.17,0,0,0,1.28-2.29,10.88,10.88,0,0,0,.47-3.39A10.22,10.22,0,0,0,85.88,176Zm-3.09,5.8a3.12,3.12,0,0,1-.88,1.5,2,2,0,0,1-1.35.49,2,2,0,0,1-1.37-.49,3.21,3.21,0,0,1-.89-1.5,9,9,0,0,1-.31-2.55,8.8,8.8,0,0,1,.31-2.47,3.55,3.55,0,0,1,.89-1.56,1.93,1.93,0,0,1,1.37-.54,1.88,1.88,0,0,1,1.35.54,3.44,3.44,0,0,1,.88,1.56,8.44,8.44,0,0,1,.31,2.47A8.79,8.79,0,0,1,82.79,181.76Z"/><path class="cls-3" d="M94.74,173.49a3.5,3.5,0,0,0-1.32-1.24,4.14,4.14,0,0,0-2-.46,4.19,4.19,0,0,0-2,.46,3.36,3.36,0,0,0-1.32,1.24,3.15,3.15,0,0,0-.48,1.71,3.25,3.25,0,0,0,.47,1.7,3.44,3.44,0,0,0,1.32,1.24,4,4,0,0,0,2,.47,3.93,3.93,0,0,0,2-.47,3.48,3.48,0,0,0,1.31-1.24,3.16,3.16,0,0,0,.47-1.7A3.23,3.23,0,0,0,94.74,173.49Zm-2.21,2.85a1.42,1.42,0,0,1-1.08.43,1.47,1.47,0,0,1-1.11-.43,1.54,1.54,0,0,1-.43-1.14,1.57,1.57,0,0,1,.43-1.14,1.48,1.48,0,0,1,1.11-.45,1.4,1.4,0,0,1,1.08.45A1.61,1.61,0,0,1,93,175.2,1.57,1.57,0,0,1,92.53,176.34Z"/><polygon class="cls-3" points="99.12 172.05 101.27 172.05 92.32 186.34 90.18 186.34 99.12 172.05"/><path class="cls-3" d="M103.27,181.48a3.51,3.51,0,0,0-1.33-1.23,4.34,4.34,0,0,0-3.93,0,3.54,3.54,0,0,0-1.34,1.23,3.23,3.23,0,0,0-.47,1.71,3.18,3.18,0,0,0,.47,1.7A3.39,3.39,0,0,0,98,186.14a4.09,4.09,0,0,0,2,.46,4,4,0,0,0,2-.46,3.39,3.39,0,0,0,1.32-1.25,3.18,3.18,0,0,0,.47-1.7A3.23,3.23,0,0,0,103.27,181.48Zm-2.22,2.85a1.39,1.39,0,0,1-1.07.43,1.48,1.48,0,0,1-1.12-.43,1.74,1.74,0,0,1,0-2.28,1.45,1.45,0,0,1,1.11-.45,1.37,1.37,0,0,1,1.07.45,1.61,1.61,0,0,1,.42,1.14A1.57,1.57,0,0,1,101.05,184.33Z"/><path class="cls-4" d="M81.79,111.91h1.52v.19a1.72,1.72,0,0,1-.1.6,1.93,1.93,0,0,1-.31.49,1.35,1.35,0,0,1-.48.32,1.48,1.48,0,0,1-.61.12,1.61,1.61,0,0,1-.63-.12,1.47,1.47,0,0,1-.48-.33,1.41,1.41,0,0,1-.31-.49,1.54,1.54,0,0,1-.11-.61,1.49,1.49,0,0,1,.11-.6,1.36,1.36,0,0,1,.31-.5,1.47,1.47,0,0,1,.48-.33,1.61,1.61,0,0,1,.63-.12,1.85,1.85,0,0,1,.5.06,1.42,1.42,0,0,1,.37.17A1.23,1.23,0,0,1,83,111a1.88,1.88,0,0,1,.18.24l-.64.3a.89.89,0,0,0-.26-.25.88.88,0,0,0-.75,0,.76.76,0,0,0-.27.2.92.92,0,0,0-.17.29,1,1,0,0,0-.06.35,1,1,0,0,0,.06.35,1.11,1.11,0,0,0,.17.3.9.9,0,0,0,.6.27.84.84,0,0,0,.29,0,.55.55,0,0,0,.23-.11.53.53,0,0,0,.15-.19.56.56,0,0,0,.07-.23h-.76Z"/><path class="cls-4" d="M84.33,113.58h-.69v-1.86h.69V112h0a.4.4,0,0,1,.09-.14.64.64,0,0,1,.2-.14.57.57,0,0,1,.31-.07.85.85,0,0,1,.23,0,.76.76,0,0,1,.16.08l-.26.56a.41.41,0,0,0-.12-.08.4.4,0,0,0-.2,0,.32.32,0,0,0-.22.07.39.39,0,0,0-.14.17.65.65,0,0,0,0,.18Z"/><path class="cls-4" d="M86.94,113.58v-.3a.64.64,0,0,1-.1.13.94.94,0,0,1-.22.15.66.66,0,0,1-.32.07.81.81,0,0,1-.47-.13.93.93,0,0,1-.32-.36,1,1,0,0,1-.11-.49,1,1,0,0,1,.11-.5.9.9,0,0,1,.32-.35.82.82,0,0,1,.47-.14.75.75,0,0,1,.31.06.69.69,0,0,1,.21.13.6.6,0,0,1,.11.14v-.27h.69v1.86Zm-.87-.93a.46.46,0,0,0,.06.23.39.39,0,0,0,.16.15.4.4,0,0,0,.22.06.43.43,0,0,0,.37-.21.59.59,0,0,0,.05-.23.56.56,0,0,0-.05-.23.46.46,0,0,0-.15-.16.43.43,0,0,0-.22-.06.4.4,0,0,0-.22.06.41.41,0,0,0-.16.16A.44.44,0,0,0,86.07,112.65Z"/><path class="cls-4" d="M88.73,114.52h-.68v-2.8h.69V112a.47.47,0,0,1,.12-.14,1,1,0,0,1,.23-.13.78.78,0,0,1,.31-.06.79.79,0,0,1,.47.14.85.85,0,0,1,.3.35,1.18,1.18,0,0,1,.1.5,1.14,1.14,0,0,1-.11.49.9.9,0,0,1-.31.36.81.81,0,0,1-.47.13.67.67,0,0,1-.33-.07.65.65,0,0,1-.22-.15l-.1-.13Zm.87-1.87a.44.44,0,0,0-.06-.23.46.46,0,0,0-.15-.16.4.4,0,0,0-.22-.06.43.43,0,0,0-.22.06.33.33,0,0,0-.15.16.44.44,0,0,0-.06.23.46.46,0,0,0,.06.23A.31.31,0,0,0,89,113a.43.43,0,0,0,.22.06.4.4,0,0,0,.22-.06.43.43,0,0,0,.15-.15A.46.46,0,0,0,89.6,112.65Z"/><path class="cls-4" d="M91.91,111.66a1,1,0,0,1,.38.08.76.76,0,0,1,.31.25.79.79,0,0,1,.12.45v1.14H92v-1a.41.41,0,0,0-.09-.3.3.3,0,0,0-.24-.11.39.39,0,0,0-.2.06.36.36,0,0,0-.15.15.4.4,0,0,0-.06.22v1H90.6v-3.12h.69V112a.4.4,0,0,1,.12-.15.91.91,0,0,1,.22-.13A.82.82,0,0,1,91.91,111.66Z"/><path class="cls-4" d="M93.5,111.34a.34.34,0,0,1-.27-.12.37.37,0,0,1-.12-.27.38.38,0,0,1,.12-.28.39.39,0,0,1,.27-.11.35.35,0,0,1,.2,0,.47.47,0,0,1,.14.14.35.35,0,0,1,0,.2.36.36,0,0,1-.11.27A.38.38,0,0,1,93.5,111.34Zm-.35,2.24v-1.86h.69v1.86Z"/><path class="cls-4" d="M95.32,113.09a.41.41,0,0,0,.21,0,.48.48,0,0,0,.12-.08l.31.47a.48.48,0,0,1-.12.08l-.22.08a1.42,1.42,0,0,1-.31,0,1.25,1.25,0,0,1-.56-.12.82.82,0,0,1-.37-.34,1,1,0,0,1-.14-.52,1,1,0,0,1,.14-.52.9.9,0,0,1,.37-.35,1.25,1.25,0,0,1,.56-.12,1.21,1.21,0,0,1,.3,0,1,1,0,0,1,.23.08l.12.07-.32.47-.06,0a.23.23,0,0,0-.1,0,.41.41,0,0,0-.16,0,.42.42,0,0,0-.21.06.46.46,0,0,0-.15.16.41.41,0,0,0-.06.23.46.46,0,0,0,.06.23.43.43,0,0,0,.15.15A.42.42,0,0,0,95.32,113.09Z"/><path class="cls-4" d="M98.24,113.63a.81.81,0,0,1-.47-.13.9.9,0,0,1-.31-.36,1.14,1.14,0,0,1-.11-.49,1.18,1.18,0,0,1,.11-.5.88.88,0,0,1,.31-.35.82.82,0,0,1,.47-.14.83.83,0,0,1,.32.06.91.91,0,0,1,.22.13.28.28,0,0,1,.1.14v-1.53h.69v3.12h-.68v-.3a.5.5,0,0,1-.14.16.74.74,0,0,1-.23.14A.87.87,0,0,1,98.24,113.63Zm.21-.54a.4.4,0,0,0,.22-.06.39.39,0,0,0,.16-.15.46.46,0,0,0,0-.23.43.43,0,0,0,0-.23.41.41,0,0,0-.16-.16.4.4,0,0,0-.22-.06.43.43,0,0,0-.22.06.46.46,0,0,0-.15.16.43.43,0,0,0,0,.23.46.46,0,0,0,0,.23.43.43,0,0,0,.37.21Z"/><path class="cls-4" d="M100.52,112.79a.28.28,0,0,0,.06.18.4.4,0,0,0,.16.12.6.6,0,0,0,.24,0,.88.88,0,0,0,.24,0,.75.75,0,0,0,.18-.07l.12-.08.27.42a1.11,1.11,0,0,1-.16.12.85.85,0,0,1-.27.09,1.74,1.74,0,0,1-.43,0,1.38,1.38,0,0,1-.55-.11.87.87,0,0,1-.37-.34,1.07,1.07,0,0,1-.14-.55,1,1,0,0,1,.12-.49.88.88,0,0,1,.34-.35,1.18,1.18,0,0,1,.55-.13,1.25,1.25,0,0,1,.53.11.9.9,0,0,1,.34.33,1.15,1.15,0,0,1,.12.55v.07s0,.06,0,.07Zm.7-.36a.27.27,0,0,0,0-.14.29.29,0,0,0-.1-.12.39.39,0,0,0-.38,0,.43.43,0,0,0-.12.11.44.44,0,0,0,0,.15Z"/><path class="cls-4" d="M103.06,111.66a1.69,1.69,0,0,1,.33,0l.26.07.13.07-.22.4-.16-.08a.75.75,0,0,0-.26-.05.48.48,0,0,0-.18,0s-.08.06-.08.11a.14.14,0,0,0,.08.11,1,1,0,0,0,.24.07l.28.09a.66.66,0,0,1,.23.17.45.45,0,0,1,.1.31.55.55,0,0,1-.09.32.51.51,0,0,1-.22.19,1,1,0,0,1-.3.1,1.63,1.63,0,0,1-.31,0,1.35,1.35,0,0,1-.37,0,.66.66,0,0,1-.25-.09l-.14-.08.22-.45a.63.63,0,0,0,.19.11.59.59,0,0,0,.29.07.45.45,0,0,0,.22-.05s.08-.06.08-.11a.1.1,0,0,0,0-.09l-.11-.06a.61.61,0,0,0-.17,0l-.19-.06a.72.72,0,0,1-.19-.11.5.5,0,0,1-.15-.17.45.45,0,0,1-.06-.24.41.41,0,0,1,.12-.31.79.79,0,0,1,.31-.18A1.14,1.14,0,0,1,103.06,111.66Z"/><path class="cls-4" d="M104.55,111.34a.38.38,0,0,1-.28-.12.4.4,0,0,1-.11-.27.38.38,0,0,1,.39-.39.3.3,0,0,1,.19,0,.5.5,0,0,1,.15.14.46.46,0,0,1,0,.2.4.4,0,0,1-.11.27A.38.38,0,0,1,104.55,111.34Zm-.35,2.24v-1.86h.68v1.86Z"/><path class="cls-4" d="M106.8,113.58v-.3a.64.64,0,0,1-.1.13.94.94,0,0,1-.22.15.66.66,0,0,1-.32.07.81.81,0,0,1-.47-.13.93.93,0,0,1-.32-.36,1.14,1.14,0,0,1-.11-.49,1.18,1.18,0,0,1,.11-.5.9.9,0,0,1,.32-.35.82.82,0,0,1,.47-.14.75.75,0,0,1,.31.06.7.7,0,0,1,.33.27v-.27h.68v1.86Zm-.46,1a2.56,2.56,0,0,1-.39,0,1.39,1.39,0,0,1-.36-.12.85.85,0,0,1-.28-.22l.41-.42a.81.81,0,0,0,.31.22,1.14,1.14,0,0,0,.28,0,.55.55,0,0,0,.26,0,.35.35,0,0,0,.17-.15.48.48,0,0,0,.06-.24v0h.68v.09a.89.89,0,0,1-.15.52,1,1,0,0,1-.41.31A1.4,1.4,0,0,1,106.34,114.57Zm-.41-1.92a.46.46,0,0,0,.06.23.39.39,0,0,0,.16.15.4.4,0,0,0,.22.06.43.43,0,0,0,.37-.21.59.59,0,0,0,.05-.23.56.56,0,0,0-.05-.23.46.46,0,0,0-.15-.16.43.43,0,0,0-.22-.06.4.4,0,0,0-.22.06.41.41,0,0,0-.16.16A.44.44,0,0,0,105.93,112.65Z"/><path class="cls-4" d="M109.2,111.66a1,1,0,0,1,.38.08.84.84,0,0,1,.31.25.79.79,0,0,1,.12.45v1.14h-.69v-1a.41.41,0,0,0-.1-.3.33.33,0,0,0-.25-.11.33.33,0,0,0-.19.06.29.29,0,0,0-.14.15.4.4,0,0,0-.06.22v1h-.69v-1.86h.69V112a.48.48,0,0,1,.11-.15,1.16,1.16,0,0,1,.22-.13A.93.93,0,0,1,109.2,111.66Z"/><path class="cls-4" d="M111,112.79a.36.36,0,0,0,.07.18.44.44,0,0,0,.15.12.6.6,0,0,0,.24,0,.88.88,0,0,0,.24,0,.75.75,0,0,0,.18-.07A.49.49,0,0,0,112,113l.26.42a.74.74,0,0,1-.16.12.85.85,0,0,1-.27.09,1.66,1.66,0,0,1-.42,0,1.35,1.35,0,0,1-.55-.11.9.9,0,0,1-.38-.34,1.07,1.07,0,0,1-.13-.55,1,1,0,0,1,.12-.49.82.82,0,0,1,.34-.35,1.13,1.13,0,0,1,.54-.13,1.22,1.22,0,0,1,.53.11.83.83,0,0,1,.34.33,1.15,1.15,0,0,1,.12.55v.14Zm.71-.36a.43.43,0,0,0,0-.14.25.25,0,0,0-.11-.12.35.35,0,0,0-.18,0,.42.42,0,0,0-.2,0,.29.29,0,0,0-.11.11.3.3,0,0,0,0,.15Z"/><path class="cls-4" d="M113.29,113.58h-.69v-1.86h.69V112h0a.4.4,0,0,1,.09-.14.64.64,0,0,1,.2-.14.57.57,0,0,1,.31-.07.85.85,0,0,1,.23,0,.76.76,0,0,1,.16.08l-.27.56a.26.26,0,0,0-.11-.08.4.4,0,0,0-.2,0,.35.35,0,0,0-.23.07.45.45,0,0,0-.13.17.65.65,0,0,0,0,.18Z"/><path class="cls-4" d="M55.38,97.54H49a5,5,0,0,0,.55,1.94A4.74,4.74,0,0,0,50.86,101a5.52,5.52,0,0,0,1.9,1,8.06,8.06,0,0,0,2.43.34,6.52,6.52,0,0,0,2.81-.59,6.74,6.74,0,0,0,2.2-1.65,7.73,7.73,0,0,0,1.43-2.44,8.92,8.92,0,0,0,0-5.89,7.57,7.57,0,0,0-1.43-2.43A6.74,6.74,0,0,0,58,87.67a6.39,6.39,0,0,0-2.81-.61,6.27,6.27,0,0,0-3.52.89A7.22,7.22,0,0,0,49.56,90L44.2,87.5a14.07,14.07,0,0,1,1.51-2,11.43,11.43,0,0,1,2.21-1.86A11.24,11.24,0,0,1,51,82.3a15.33,15.33,0,0,1,4.16-.51,13.42,13.42,0,0,1,5.25,1,12,12,0,0,1,6.65,6.88,14.44,14.44,0,0,1,0,10.09,12.27,12.27,0,0,1-2.6,4.12,12,12,0,0,1-4,2.77,13.42,13.42,0,0,1-5.25,1,13,13,0,0,1-5.1-1,11.76,11.76,0,0,1-4-2.74,12.32,12.32,0,0,1-2.56-4.08,13.76,13.76,0,0,1-.9-5V93.24H55.38Z"/><path class="cls-4" d="M74.38,88.48a3.24,3.24,0,0,1-3.24-3.23,3.17,3.17,0,0,1,1-2.3,3.09,3.09,0,0,1,2.29-1,3.14,3.14,0,0,1,1.63.44A3.53,3.53,0,0,1,77.2,83.6a3.2,3.2,0,0,1-.51,3.92A3.15,3.15,0,0,1,74.38,88.48Zm-2.94,18.7V91.67h5.74v15.51Z"/><rect class="cls-4" x="109.1" y="91.67" width="5.74" height="15.51"/><path class="cls-4" d="M95.91,87.36a9.08,9.08,0,0,0-5.31.31,6.64,6.64,0,0,0-2.2,1.65A7.4,7.4,0,0,0,87,91.75a8.92,8.92,0,0,0,0,5.89,7.55,7.55,0,0,0,1.43,2.44,6.64,6.64,0,0,0,2.2,1.65,6.48,6.48,0,0,0,2.8.59,8.09,8.09,0,0,0,2.44-.34,5.61,5.61,0,0,0,1.9-1A4.84,4.84,0,0,0,99,99.48a5,5,0,0,0,.56-1.94H93.21v-4.3h12.72v1.58a13.76,13.76,0,0,1-.9,5,12.32,12.32,0,0,1-2.56,4.08,11.8,11.8,0,0,1-4,2.74,12.92,12.92,0,0,1-5.1,1,13.41,13.41,0,0,1-5.24-1,11.83,11.83,0,0,1-4-2.77,12.46,12.46,0,0,1-2.61-4.12,14.59,14.59,0,0,1,0-10.09,12.36,12.36,0,0,1,2.61-4.12,11.94,11.94,0,0,1,4-2.76,13.41,13.41,0,0,1,5.24-1,17.48,17.48,0,0,1,4.5.79Z"/><path class="cls-5" d="M103.92,89a3.23,3.23,0,0,1-2.29-5.52,3.1,3.1,0,0,1,2.29-1,3.05,3.05,0,0,1,1.63.45,3.45,3.45,0,0,1,1.19,1.18,3.2,3.2,0,0,1-.51,3.92A3.18,3.18,0,0,1,103.92,89Z"/></g></g></svg>