<svg xmlns="http://www.w3.org/2000/svg" viewBox="0 0 160.2 201.54"><defs><style>.cls-1{fill:#e39595;}.cls-2{fill:#c9c9c9;}.cls-3{fill:#020303;}.cls-4{fill:#1d1d1b;}.cls-5{fill:#d10e19;}</style></defs><g id="Livello_2" data-name="Livello 2"><g id="Livello_1-2" data-name="Livello 1"><rect class="cls-1" x="-20.65" y="20.69" width="201.54" height="160.16" rx="22.58" transform="translate(180.89 20.65) rotate(90)"/><path class="cls-2" d="M160.2,160.19V180c0,11.77-8.51,21.31-19,21.31H19c-10.5,0-19-9.54-19-21.31V160.19Z"/><polygon class="cls-3" points="57.7 177.72 55.42 178.91 55.42 175.84 59.41 173.62 60.93 173.62 60.93 187.91 57.7 187.91 57.7 177.72"/><path class="cls-3" d="M73.86,177.52a6.67,6.67,0,0,0-1.28-2.31,5.29,5.29,0,0,0-1.86-1.39,5.44,5.44,0,0,0-2.19-.46,5.51,5.51,0,0,0-2.19.46,5.29,5.29,0,0,0-1.86,1.39,6.52,6.52,0,0,0-1.29,2.31,10.33,10.33,0,0,0-.47,3.26,10.88,10.88,0,0,0,.47,3.39,6.18,6.18,0,0,0,1.29,2.29,5,5,0,0,0,1.86,1.29,5.84,5.84,0,0,0,2.19.42,5.77,5.77,0,0,0,2.19-.42,5,5,0,0,0,1.86-1.29,6.31,6.31,0,0,0,1.28-2.29,10.9,10.9,0,0,0,.46-3.39A10.34,10.34,0,0,0,73.86,177.52Zm-3.09,5.81a3.2,3.2,0,0,1-.88,1.5,2.13,2.13,0,0,1-2.72,0,3.13,3.13,0,0,1-.89-1.5,8.7,8.7,0,0,1-.31-2.55,8.44,8.44,0,0,1,.31-2.47,3.45,3.45,0,0,1,.89-1.56,2,2,0,0,1,2.72,0,3.54,3.54,0,0,1,.88,1.56,8.8,8.8,0,0,1,.31,2.47A9.15,9.15,0,0,1,70.77,183.33Z"/><path class="cls-3" d="M86.7,177.52a6.67,6.67,0,0,0-1.28-2.31,5.29,5.29,0,0,0-1.86-1.39,5.44,5.44,0,0,0-4.38,0,5.29,5.29,0,0,0-1.86,1.39A6.52,6.52,0,0,0,76,177.52a10.05,10.05,0,0,0-.47,3.26,10.59,10.59,0,0,0,.47,3.39,6.18,6.18,0,0,0,1.29,2.29,5,5,0,0,0,1.86,1.29,5.92,5.92,0,0,0,4.38,0,5,5,0,0,0,1.86-1.29,6.31,6.31,0,0,0,1.28-2.29,10.9,10.9,0,0,0,.46-3.39A10.34,10.34,0,0,0,86.7,177.52Zm-3.09,5.81a3.2,3.2,0,0,1-.88,1.5,2.13,2.13,0,0,1-2.72,0,3.13,3.13,0,0,1-.89-1.5,8.66,8.66,0,0,1-.32-2.55,8.42,8.42,0,0,1,.32-2.47,3.45,3.45,0,0,1,.89-1.56,2,2,0,0,1,2.72,0,3.54,3.54,0,0,1,.88,1.56,8.83,8.83,0,0,1,.3,2.47A9.19,9.19,0,0,1,83.61,183.33Z"/><path class="cls-3" d="M95.55,175.06a3.5,3.5,0,0,0-1.32-1.24,4.43,4.43,0,0,0-3.93,0A3.46,3.46,0,0,0,89,175.06a3.15,3.15,0,0,0-.48,1.71,3.25,3.25,0,0,0,.47,1.7,3.58,3.58,0,0,0,1.32,1.24,4,4,0,0,0,2,.47,3.91,3.91,0,0,0,2-.47,3.58,3.58,0,0,0,1.32-1.24,3.25,3.25,0,0,0,.47-1.7A3.15,3.15,0,0,0,95.55,175.06Zm-2.2,2.85a1.44,1.44,0,0,1-1.09.43,1.5,1.5,0,0,1-1.11-.43,1.54,1.54,0,0,1-.43-1.14,1.58,1.58,0,0,1,.44-1.14,1.44,1.44,0,0,1,1.1-.45,1.42,1.42,0,0,1,1.09.45,1.6,1.6,0,0,1,.41,1.14A1.57,1.57,0,0,1,93.35,177.91Z"/><polygon class="cls-3" points="99.94 173.62 102.08 173.62 93.14 187.91 90.99 187.91 99.94 173.62"/><path class="cls-3" d="M104.08,183.05a3.51,3.51,0,0,0-1.33-1.23,4,4,0,0,0-2-.47,4.07,4.07,0,0,0-2,.47,3.51,3.51,0,0,0-1.33,1.23,3.15,3.15,0,0,0-.48,1.71,3.27,3.27,0,0,0,.47,1.7,3.53,3.53,0,0,0,1.32,1.25,4.51,4.51,0,0,0,4,0,3.53,3.53,0,0,0,1.32-1.25,3.27,3.27,0,0,0,.47-1.7A3.15,3.15,0,0,0,104.08,183.05Zm-2.21,2.85a1.43,1.43,0,0,1-1.08.43,1.51,1.51,0,0,1-1.12-.43,1.57,1.57,0,0,1-.42-1.14,1.61,1.61,0,0,1,.43-1.14,1.48,1.48,0,0,1,1.11-.45,1.41,1.41,0,0,1,1.08.45,1.64,1.64,0,0,1,.41,1.14A1.61,1.61,0,0,1,101.87,185.9Z"/><path class="cls-4" d="M32.6,79.65a15.46,15.46,0,0,0-9,.52A11.45,11.45,0,0,0,19.88,83a12.61,12.61,0,0,0-2.42,4.13,15.18,15.18,0,0,0,0,10,12.82,12.82,0,0,0,2.42,4.13A11,11,0,0,0,28.36,105a13.63,13.63,0,0,0,4.12-.58,9.73,9.73,0,0,0,3.22-1.66,8.12,8.12,0,0,0,2.14-2.58,8.5,8.5,0,0,0,.95-3.28H28V89.61H49.57V92.3a23.37,23.37,0,0,1-1.52,8.47,20.71,20.71,0,0,1-4.34,6.91A19.69,19.69,0,0,1,37,112.32,21.86,21.86,0,0,1,28.36,114a22.6,22.6,0,0,1-8.88-1.68,20.19,20.19,0,0,1-6.86-4.69,20.84,20.84,0,0,1-4.42-7,24.6,24.6,0,0,1,0-17.08,20.8,20.8,0,0,1,4.42-7,20.43,20.43,0,0,1,6.86-4.67,22.6,22.6,0,0,1,8.88-1.68A29.38,29.38,0,0,1,36,71.56Z"/><path class="cls-5" d="M46.18,82.5A5.48,5.48,0,0,1,40.67,77a5.35,5.35,0,0,1,1.62-3.88,5.41,5.41,0,0,1,6.64-.9,5.92,5.92,0,0,1,2,2A5.13,5.13,0,0,1,51.71,77a5.23,5.23,0,0,1-1.63,3.86A5.34,5.34,0,0,1,46.18,82.5Z"/><path class="cls-4" d="M68.76,78.49H77.5v1.1A9.54,9.54,0,0,1,76.89,83a8.68,8.68,0,0,1-1.76,2.81,8.28,8.28,0,0,1-2.73,1.88,8.89,8.89,0,0,1-3.51.68,9.11,9.11,0,0,1-3.61-.69,8,8,0,0,1-2.78-1.9A8.58,8.58,0,0,1,60.7,83a10,10,0,0,1,0-6.94,8.44,8.44,0,0,1,1.8-2.83,8.33,8.33,0,0,1,2.78-1.9,9.29,9.29,0,0,1,3.61-.68,10.66,10.66,0,0,1,2.86.35,8,8,0,0,1,2.14.94,7.2,7.2,0,0,1,1.52,1.28,9.81,9.81,0,0,1,1,1.35l-3.69,1.75a4.83,4.83,0,0,0-1.45-1.43,4.28,4.28,0,0,0-2.42-.62,4.4,4.4,0,0,0-1.93.42,4.6,4.6,0,0,0-1.51,1.14,4.91,4.91,0,0,0-1,1.67,6,6,0,0,0,0,4,5,5,0,0,0,1,1.68,4.54,4.54,0,0,0,3.44,1.55,5.59,5.59,0,0,0,1.68-.24,4.1,4.1,0,0,0,1.3-.67,3.35,3.35,0,0,0,.87-1,3.67,3.67,0,0,0,.39-1.33H68.76Z"/><path class="cls-4" d="M83.35,88.08H79.4V77.42h3.95v1.65h-.06a2.25,2.25,0,0,1,.5-.76,3.82,3.82,0,0,1,1.13-.84,4.35,4.35,0,0,1,3.15-.14,3.85,3.85,0,0,1,.91.44L87.44,81a2,2,0,0,0-.64-.46,2.36,2.36,0,0,0-1.15-.25,2.07,2.07,0,0,0-1.31.41,2.43,2.43,0,0,0-.75,1,2.79,2.79,0,0,0-.24,1.08Z"/><path class="cls-4" d="M98.32,88.08V86.36a3.56,3.56,0,0,1-.59.75,4.61,4.61,0,0,1-1.26.89,4,4,0,0,1-1.82.4,4.87,4.87,0,0,1-2.72-.77,5.11,5.11,0,0,1-1.82-2,6.53,6.53,0,0,1,0-5.68,5.16,5.16,0,0,1,1.82-2,4.87,4.87,0,0,1,2.72-.77,4.53,4.53,0,0,1,1.76.32,4.32,4.32,0,0,1,1.22.76,2.89,2.89,0,0,1,.65.8V77.42h3.92V88.08Zm-5-5.32a2.47,2.47,0,0,0,.34,1.3,2.29,2.29,0,0,0,.9.9,2.43,2.43,0,0,0,1.25.33A2.37,2.37,0,0,0,97.08,85a2.22,2.22,0,0,0,.87-.9,2.66,2.66,0,0,0,.32-1.3A2.7,2.7,0,0,0,98,81.45a2.31,2.31,0,0,0-.87-.91,2.37,2.37,0,0,0-1.26-.33,2.43,2.43,0,0,0-1.25.33,2.38,2.38,0,0,0-.9.91A2.51,2.51,0,0,0,93.33,82.76Z"/><path class="cls-4" d="M108.6,93.49h-3.92V77.42h4V79a2.64,2.64,0,0,1,.69-.8,4.81,4.81,0,0,1,3.13-1.08,4.56,4.56,0,0,1,2.66.77,4.91,4.91,0,0,1,1.71,2,6.6,6.6,0,0,1,.6,2.84,6.36,6.36,0,0,1-.63,2.84,5.11,5.11,0,0,1-1.79,2,4.79,4.79,0,0,1-2.71.77,4.26,4.26,0,0,1-3.14-1.28,3,3,0,0,1-.56-.76Zm5-10.73a2.7,2.7,0,0,0-.32-1.31,2.41,2.41,0,0,0-.88-.91,2.37,2.37,0,0,0-1.24-.33,2.49,2.49,0,0,0-1.28.33,2.36,2.36,0,0,0-.89.91,2.6,2.6,0,0,0-.32,1.31,2.56,2.56,0,0,0,.32,1.3,2.27,2.27,0,0,0,.89.9,2.49,2.49,0,0,0,1.28.33,2.37,2.37,0,0,0,1.24-.33,2.31,2.31,0,0,0,.88-.9A2.66,2.66,0,0,0,113.57,82.76Z"/><path class="cls-4" d="M126.85,77.1a5.59,5.59,0,0,1,2.19.46A4,4,0,0,1,130.79,79a4.42,4.42,0,0,1,.69,2.58v6.51h-3.95V82.22A2.49,2.49,0,0,0,127,80.5a1.77,1.77,0,0,0-1.39-.58,2.28,2.28,0,0,0-1.12.31,2.36,2.36,0,0,0-.86.86,2.42,2.42,0,0,0-.33,1.26v5.73h-4V70.2h4V79a2,2,0,0,1,.64-.87,4.21,4.21,0,0,1,1.26-.72A4.43,4.43,0,0,1,126.85,77.1Z"/><path class="cls-4" d="M136,75.22a2.13,2.13,0,0,1-1.58-.66,2.11,2.11,0,0,1-.65-1.56,2.21,2.21,0,0,1,.65-1.58,2.13,2.13,0,0,1,1.58-.67,2.08,2.08,0,0,1,1.12.31,2.35,2.35,0,0,1,.82.81,2.09,2.09,0,0,1,.31,1.13,2.12,2.12,0,0,1-.66,1.56A2.17,2.17,0,0,1,136,75.22Zm-2,12.86V77.42h4V88.08Z"/><path class="cls-4" d="M146.41,85.29a2.6,2.6,0,0,0,1.22-.25,3.57,3.57,0,0,0,.65-.41l1.8,2.68a5.08,5.08,0,0,1-.71.43,5.78,5.78,0,0,1-1.27.46,6.91,6.91,0,0,1-1.73.2,7.13,7.13,0,0,1-3.22-.7,5.18,5.18,0,0,1-2.17-2,6.19,6.19,0,0,1,0-6,5.27,5.27,0,0,1,2.17-2,7.13,7.13,0,0,1,3.22-.7,6.48,6.48,0,0,1,1.72.21,6.74,6.74,0,0,1,1.28.45,3.65,3.65,0,0,1,.73.43l-1.85,2.71a2.51,2.51,0,0,0-.33-.26,2.76,2.76,0,0,0-.62-.3,2.65,2.65,0,0,0-.89-.13,2.27,2.27,0,0,0-1.19.33,2.38,2.38,0,0,0-.89.89,2.71,2.71,0,0,0,0,2.63,2.33,2.33,0,0,0,.89.9A2.27,2.27,0,0,0,146.41,85.29Z"/><path class="cls-4" d="M63.48,108.85a4.53,4.53,0,0,1-2.56-.73,4.76,4.76,0,0,1-1.69-1.94,6.35,6.35,0,0,1,0-5.39,4.85,4.85,0,0,1,1.69-2,4.53,4.53,0,0,1,2.56-.73,4.41,4.41,0,0,1,3,1,1.85,1.85,0,0,1,.57.76V91.55h3.75v17H67v-1.64a3,3,0,0,1-.76.9,4.54,4.54,0,0,1-1.25.74A4,4,0,0,1,63.48,108.85Zm1.14-3a2.36,2.36,0,0,0,1.22-.31,2.24,2.24,0,0,0,.85-.85,2.6,2.6,0,0,0,.31-1.25,2.56,2.56,0,0,0-.31-1.24,2.34,2.34,0,0,0-.85-.86,2.36,2.36,0,0,0-1.22-.32,2.27,2.27,0,0,0-2,1.18,2.56,2.56,0,0,0-.3,1.24,2.6,2.6,0,0,0,.3,1.25,2.12,2.12,0,0,0,.83.85A2.23,2.23,0,0,0,64.62,105.89Z"/><path class="cls-4" d="M75.91,104.28a1.81,1.81,0,0,0,.35,1,2,2,0,0,0,.85.67,3.41,3.41,0,0,0,1.31.23,5.6,5.6,0,0,0,1.29-.14,4.65,4.65,0,0,0,1-.37,2.68,2.68,0,0,0,.66-.47l1.46,2.33a3.85,3.85,0,0,1-.88.64,5.55,5.55,0,0,1-1.47.51,10.58,10.58,0,0,1-2.31.21,7,7,0,0,1-3-.63,4.79,4.79,0,0,1-2-1.86,5.7,5.7,0,0,1-.74-3,5.6,5.6,0,0,1,.64-2.67,4.79,4.79,0,0,1,1.88-1.88,6,6,0,0,1,3-.7,6.29,6.29,0,0,1,2.87.61,4.26,4.26,0,0,1,1.87,1.79,6.1,6.1,0,0,1,.66,3v.39a1.76,1.76,0,0,1,0,.41Zm3.84-2a1.67,1.67,0,0,0-.21-.79,1.59,1.59,0,0,0-.59-.65,1.82,1.82,0,0,0-1-.25,2,2,0,0,0-1,.25,1.68,1.68,0,0,0-.64.63,1.8,1.8,0,0,0-.26.81Z"/><path class="cls-4" d="M89.77,98.11a9.34,9.34,0,0,1,1.83.17,8,8,0,0,1,1.39.38,2.84,2.84,0,0,1,.72.34l-1.22,2.21a5.55,5.55,0,0,0-.87-.44,3.63,3.63,0,0,0-1.42-.27,2.52,2.52,0,0,0-1,.17.59.59,0,0,0-.4.57.69.69,0,0,0,.45.61,5.62,5.62,0,0,0,1.3.4,7.69,7.69,0,0,1,1.51.47,3.33,3.33,0,0,1,1.28.94,2.56,2.56,0,0,1,.51,1.67,2.95,2.95,0,0,1-1.67,2.82,5.58,5.58,0,0,1-1.63.54,10.06,10.06,0,0,1-1.7.16,8,8,0,0,1-2-.22,5.85,5.85,0,0,1-1.39-.48,4.7,4.7,0,0,1-.74-.43l1.21-2.47a4.53,4.53,0,0,0,1,.61,3.53,3.53,0,0,0,1.54.34,2.67,2.67,0,0,0,1.22-.23.71.71,0,0,0,.43-.62.58.58,0,0,0-.21-.49,1.55,1.55,0,0,0-.59-.33,6.36,6.36,0,0,0-.92-.24,7.16,7.16,0,0,1-1.05-.31,4.47,4.47,0,0,1-1-.57,2.92,2.92,0,0,1-.81-.93,2.79,2.79,0,0,1-.31-1.34,2.28,2.28,0,0,1,.66-1.68,4.06,4.06,0,0,1,1.69-1A7.25,7.25,0,0,1,89.77,98.11Z"/><path class="cls-4" d="M97.9,96.32a2.08,2.08,0,0,1-1.51-.62,2.06,2.06,0,0,1-.61-1.49A2.11,2.11,0,0,1,99,92.36a2.39,2.39,0,0,1,.78.77,2,2,0,0,1,.3,1.08,2,2,0,0,1-.63,1.49A2.1,2.1,0,0,1,97.9,96.32ZM96,108.55V98.41h3.76v10.14Z"/><path class="cls-4" d="M110.19,108.55v-1.64a3.28,3.28,0,0,1-.56.71,4.19,4.19,0,0,1-1.2.85,3.77,3.77,0,0,1-1.73.38,4.67,4.67,0,0,1-2.59-.73,4.85,4.85,0,0,1-1.73-1.94,6.17,6.17,0,0,1,0-5.39,5,5,0,0,1,1.73-2,4.67,4.67,0,0,1,2.59-.73,4.29,4.29,0,0,1,1.67.3,4.12,4.12,0,0,1,1.16.72,2.75,2.75,0,0,1,.62.76V98.41h3.73v10.14ZM107.64,114a12.32,12.32,0,0,1-2.1-.18,7.68,7.68,0,0,1-2-.63,4.54,4.54,0,0,1-1.52-1.23l2.2-2.28a4.44,4.44,0,0,0,.7.65,3.5,3.5,0,0,0,1,.53,4.65,4.65,0,0,0,1.49.21,3.27,3.27,0,0,0,1.42-.28,2.2,2.2,0,0,0,.95-.83,2.4,2.4,0,0,0,.34-1.32v-.25h3.69v.47a4.72,4.72,0,0,1-.83,2.83,5.17,5.17,0,0,1-2.24,1.73A8.21,8.21,0,0,1,107.64,114Zm-2.19-10.49a2.4,2.4,0,0,0,.32,1.25,2.35,2.35,0,0,0,2,1.16,2.22,2.22,0,0,0,1.19-.31,2.26,2.26,0,0,0,.83-.85,2.6,2.6,0,0,0,.3-1.25,2.56,2.56,0,0,0-.3-1.24,2.36,2.36,0,0,0-.83-.86,2.23,2.23,0,0,0-1.19-.32,2.28,2.28,0,0,0-1.19.32,2.37,2.37,0,0,0-1.18,2.1Z"/><path class="cls-4" d="M123.27,98.11a5.33,5.33,0,0,1,2.07.43A3.89,3.89,0,0,1,127,99.91a4.15,4.15,0,0,1,.65,2.45v6.19H123.9V103a2.29,2.29,0,0,0-.52-1.64,1.78,1.78,0,0,0-1.36-.55,2,2,0,0,0-1,.29,2.22,2.22,0,0,0-.79.82,2.38,2.38,0,0,0-.31,1.2v5.45h-3.75V98.41h3.75V99.9a2.13,2.13,0,0,1,.63-.82,3.83,3.83,0,0,1,1.2-.69A4.2,4.2,0,0,1,123.27,98.11Z"/><path class="cls-4" d="M132.84,104.28a1.81,1.81,0,0,0,.35,1,2,2,0,0,0,.85.67,3.41,3.41,0,0,0,1.31.23,5.6,5.6,0,0,0,1.29-.14,4.85,4.85,0,0,0,1-.37,3.13,3.13,0,0,0,.66-.47l1.46,2.33a4.09,4.09,0,0,1-.88.64,5.55,5.55,0,0,1-1.47.51,10.58,10.58,0,0,1-2.31.21,7,7,0,0,1-3-.63,4.73,4.73,0,0,1-2-1.86,5.7,5.7,0,0,1-.74-3,5.49,5.49,0,0,1,.64-2.67,4.72,4.72,0,0,1,1.88-1.88,6,6,0,0,1,3-.7,6.33,6.33,0,0,1,2.88.61,4.26,4.26,0,0,1,1.87,1.79,6.21,6.21,0,0,1,.65,3v.39a3.13,3.13,0,0,1,0,.41Zm3.84-2a1.94,1.94,0,0,0-.21-.79,1.67,1.67,0,0,0-.59-.65,1.82,1.82,0,0,0-1-.25,2,2,0,0,0-1.05.25,1.71,1.71,0,0,0-.65.63,2.08,2.08,0,0,0-.26.81Z"/><path class="cls-4" d="M145.59,108.55h-3.76V98.41h3.76V100h-.06a2.33,2.33,0,0,1,.48-.73,3.58,3.58,0,0,1,1.07-.79,3.77,3.77,0,0,1,1.69-.35,3.66,3.66,0,0,1,1.3.22,3.46,3.46,0,0,1,.86.41l-1.45,3.05a2.23,2.23,0,0,0-.61-.44,2.42,2.42,0,0,0-1.1-.22,1.93,1.93,0,0,0-1.24.38,2.27,2.27,0,0,0-.71.92,2.57,2.57,0,0,0-.23,1Z"/></g></g></svg>