<svg xmlns="http://www.w3.org/2000/svg" viewBox="0 0 322.54 123.63"><defs><style>.cls-1{fill:#020303;}.cls-2{fill:#de393a;}.cls-3{fill:#fff;}</style></defs><g id="Livello_2" data-name="Livello 2"><g id="Livello_1-2" data-name="Livello 1"><rect class="cls-1" width="322.54" height="123.63" rx="40.03"/><circle class="cls-2" cx="70.01" cy="49.15" r="30.97"/><circle class="cls-2" cx="256.43" cy="50.32" r="30.97"/><path class="cls-3" d="M69.92,46.5H92.76v2.85a24.83,24.83,0,0,1-1.61,9,22.26,22.26,0,0,1-4.6,7.33,20.88,20.88,0,0,1-7.13,4.92,23.06,23.06,0,0,1-9.16,1.77,23.92,23.92,0,0,1-9.41-1.79,21.28,21.28,0,0,1-7.28-5,21.82,21.82,0,0,1-4.68-7.41,26,26,0,0,1,0-18.12,21.58,21.58,0,0,1,12-12.35,23.92,23.92,0,0,1,9.41-1.78,27.19,27.19,0,0,1,7.48.92,20.34,20.34,0,0,1,5.59,2.44,19.73,19.73,0,0,1,4,3.34A26.11,26.11,0,0,1,90,36.19l-9.64,4.54A13.06,13.06,0,0,0,76.59,37a11.26,11.26,0,0,0-6.33-1.59,11.69,11.69,0,0,0-5,1.08,12.42,12.42,0,0,0-3.95,3,13.48,13.48,0,0,0-2.56,4.38,16,16,0,0,0,0,10.57,13.54,13.54,0,0,0,2.56,4.37,11.86,11.86,0,0,0,3.95,3,11.68,11.68,0,0,0,5,1.07,14.63,14.63,0,0,0,4.38-.61,10.3,10.3,0,0,0,3.41-1.76,8.52,8.52,0,0,0,2.27-2.74,9,9,0,0,0,1-3.47H69.92Z"/><path class="cls-3" d="M256.41,39.36a5.8,5.8,0,0,1-4.12-9.92,5.53,5.53,0,0,1,4.12-1.75,5.6,5.6,0,0,1,2.92.8,6.26,6.26,0,0,1,2.13,2.12,5.44,5.44,0,0,1,.82,3,5.57,5.57,0,0,1-1.73,4.09A5.7,5.7,0,0,1,256.41,39.36ZM251.12,73V45.1h10.31V73Z"/><polygon class="cls-3" points="176.37 47.53 165.61 47.53 165.61 36.77 157.78 36.77 157.78 47.53 147.02 47.53 147.02 55.35 157.78 55.35 157.78 66.12 165.61 66.12 165.61 55.35 176.37 55.35 176.37 47.53"/><path class="cls-3" d="M41,95h2.13v7.53h3.4v1.86H41Z"/><path class="cls-3" d="M49.62,101.88a1,1,0,0,0,.2.56,1.18,1.18,0,0,0,.49.38,1.9,1.9,0,0,0,.75.13,2.8,2.8,0,0,0,.74-.08,2.44,2.44,0,0,0,.58-.21,1.78,1.78,0,0,0,.38-.27l.84,1.34a2,2,0,0,1-.51.37,3.14,3.14,0,0,1-.84.29,6.16,6.16,0,0,1-1.33.12,4,4,0,0,1-1.73-.36A2.77,2.77,0,0,1,48,103.08a3.34,3.34,0,0,1-.43-1.73A3.21,3.21,0,0,1,48,99.82,2.76,2.76,0,0,1,49,98.73a3.55,3.55,0,0,1,1.72-.4,3.71,3.71,0,0,1,1.65.35,2.45,2.45,0,0,1,1.08,1,3.54,3.54,0,0,1,.38,1.71v.23a1.06,1.06,0,0,1,0,.23Zm2.21-1.13a1.36,1.36,0,0,0-.12-.46,1,1,0,0,0-.34-.37,1.05,1.05,0,0,0-.59-.15,1.11,1.11,0,0,0-.6.15,1,1,0,0,0-.37.36,1.29,1.29,0,0,0-.15.47Z"/><path class="cls-3" d="M54.48,98.5h1V96.11h2.14V98.5h1.3v1.78h-1.3v1.63a1.37,1.37,0,0,0,.1.58.39.39,0,0,0,.39.23.58.58,0,0,0,.33-.09.55.55,0,0,0,.16-.11l.74,1.53a1.1,1.1,0,0,1-.31.16,3.31,3.31,0,0,1-.65.21,4.06,4.06,0,0,1-.89.09,2.08,2.08,0,0,1-1.44-.5,1.88,1.88,0,0,1-.57-1.52v-2.21h-1Z"/><path class="cls-3" d="M59.65,98.5h1V96.11h2.14V98.5h1.3v1.78h-1.3v1.63a1.37,1.37,0,0,0,.1.58.39.39,0,0,0,.39.23.58.58,0,0,0,.33-.09.77.77,0,0,0,.16-.11l.74,1.53a1.1,1.1,0,0,1-.31.16,3.31,3.31,0,0,1-.65.21,4.13,4.13,0,0,1-.89.09,2.13,2.13,0,0,1-1.45-.5,1.88,1.88,0,0,1-.56-1.52v-2.21h-1Z"/><path class="cls-3" d="M67,101.88a1,1,0,0,0,.2.56,1.12,1.12,0,0,0,.49.38,1.9,1.9,0,0,0,.75.13,2.8,2.8,0,0,0,.74-.08,2.61,2.61,0,0,0,.58-.21,1.78,1.78,0,0,0,.38-.27l.84,1.34a2,2,0,0,1-.51.37,3.14,3.14,0,0,1-.84.29,6.16,6.16,0,0,1-1.33.12,4,4,0,0,1-1.73-.36,2.72,2.72,0,0,1-1.18-1.07,3.34,3.34,0,0,1-.43-1.73,3.21,3.21,0,0,1,.37-1.53,2.76,2.76,0,0,1,1.08-1.09,3.55,3.55,0,0,1,1.72-.4,3.71,3.71,0,0,1,1.65.35,2.45,2.45,0,0,1,1.08,1,3.55,3.55,0,0,1,.37,1.71v.23a1.29,1.29,0,0,1,0,.23Zm2.21-1.13a1.36,1.36,0,0,0-.12-.46,1,1,0,0,0-.34-.37,1.08,1.08,0,0,0-.59-.15,1.11,1.11,0,0,0-.6.15.92.92,0,0,0-.37.36,1,1,0,0,0-.15.47Z"/><path class="cls-3" d="M74.37,104.34H72.21V98.5h2.16v.9h0a1.56,1.56,0,0,1,.28-.41,2,2,0,0,1,.61-.46,2.22,2.22,0,0,1,1-.2,2,2,0,0,1,.74.13,2.18,2.18,0,0,1,.5.23l-.84,1.76a1,1,0,0,0-.35-.25,1.34,1.34,0,0,0-.63-.13,1.1,1.1,0,0,0-.71.22,1.18,1.18,0,0,0-.41.53,1.49,1.49,0,0,0-.14.59Z"/><path class="cls-3" d="M82.56,104.34v-1a1.63,1.63,0,0,1-.32.42,2.33,2.33,0,0,1-.69.48,2.07,2.07,0,0,1-1,.22,2.63,2.63,0,0,1-1.49-.42,2.82,2.82,0,0,1-1-1.11,3.37,3.37,0,0,1-.35-1.56,3.33,3.33,0,0,1,.35-1.55,2.85,2.85,0,0,1,1-1.12,2.63,2.63,0,0,1,1.49-.42,2.42,2.42,0,0,1,1,.18,2.18,2.18,0,0,1,.67.41,1.53,1.53,0,0,1,.35.43V98.5h2.15v5.84Zm-2.73-2.92a1.43,1.43,0,0,0,.19.72,1.34,1.34,0,0,0,1.18.67,1.31,1.31,0,0,0,.69-.18,1.23,1.23,0,0,0,.47-.49,1.51,1.51,0,0,0,0-1.43,1.26,1.26,0,0,0-.47-.5,1.31,1.31,0,0,0-.69-.18,1.37,1.37,0,0,0-.69.18,1.38,1.38,0,0,0-.49.5A1.42,1.42,0,0,0,79.83,101.42Z"/><path class="cls-3" d="M94.27,99.09h4.79v.6a5.06,5.06,0,0,1-.34,1.88,4.61,4.61,0,0,1-1,1.54,4.51,4.51,0,0,1-1.5,1,4.73,4.73,0,0,1-1.92.37,5,5,0,0,1-2-.37,4.6,4.6,0,0,1-2.5-2.6,5.33,5.33,0,0,1,0-3.8,4.49,4.49,0,0,1,2.5-2.58,5,5,0,0,1,2-.38,5.65,5.65,0,0,1,1.57.2,3.91,3.91,0,0,1,1.17.51,3.62,3.62,0,0,1,.83.7,5.08,5.08,0,0,1,.57.74l-2,.95a2.67,2.67,0,0,0-.79-.78,2.38,2.38,0,0,0-1.33-.33,2.44,2.44,0,0,0-1,.22,2.57,2.57,0,0,0-.83.63,3,3,0,0,0-.54.91,3.51,3.51,0,0,0,0,2.22,3.14,3.14,0,0,0,.54.92,2.55,2.55,0,0,0,.83.62,2.44,2.44,0,0,0,1,.22,2.92,2.92,0,0,0,.92-.13A1.89,1.89,0,0,0,96,102a1.71,1.71,0,0,0,.47-.57,1.77,1.77,0,0,0,.21-.73H94.27Z"/><path class="cls-3" d="M230.76,96.07h2.13v7.52h3.4v1.86h-5.53Z"/><path class="cls-3" d="M239.4,103a1,1,0,0,0,.2.56,1.12,1.12,0,0,0,.49.38,1.89,1.89,0,0,0,.75.14,2.78,2.78,0,0,0,.74-.09,2.19,2.19,0,0,0,.58-.21,1.78,1.78,0,0,0,.38-.27l.84,1.34a2,2,0,0,1-.51.37,3.11,3.11,0,0,1-.84.3,7,7,0,0,1-1.33.11,4,4,0,0,1-1.73-.36,2.72,2.72,0,0,1-1.18-1.07,3.53,3.53,0,0,1-.06-3.26,2.74,2.74,0,0,1,1.08-1.08,3.45,3.45,0,0,1,1.72-.41,3.71,3.71,0,0,1,1.65.35,2.47,2.47,0,0,1,1.08,1,3.49,3.49,0,0,1,.37,1.71v.22a1.23,1.23,0,0,1,0,.23Zm2.21-1.13a1.26,1.26,0,0,0-.12-.45,1,1,0,0,0-.34-.38,1.17,1.17,0,0,0-.59-.14,1.11,1.11,0,0,0-.6.14,1,1,0,0,0-.37.36,1,1,0,0,0-.15.47Z"/><path class="cls-3" d="M244.26,99.62h1v-2.4h2.14v2.4h1.3v1.77h-1.3V103a1.42,1.42,0,0,0,.1.59.39.39,0,0,0,.39.22.67.67,0,0,0,.33-.08l.16-.12.74,1.54a1.21,1.21,0,0,1-.31.15,3.31,3.31,0,0,1-.65.21,4.13,4.13,0,0,1-.89.09,2.12,2.12,0,0,1-1.45-.49,1.92,1.92,0,0,1-.56-1.53v-2.21h-1Z"/><path class="cls-3" d="M249.43,99.62h1v-2.4h2.15v2.4h1.3v1.77h-1.3V103a1.42,1.42,0,0,0,.1.59.39.39,0,0,0,.39.22.67.67,0,0,0,.33-.08l.16-.12.74,1.54a1.21,1.21,0,0,1-.31.15,3.22,3.22,0,0,1-.66.21,4,4,0,0,1-.88.09,2.12,2.12,0,0,1-1.45-.49,1.92,1.92,0,0,1-.57-1.53v-2.21h-1Z"/><path class="cls-3" d="M256.82,103a1,1,0,0,0,.2.56,1.12,1.12,0,0,0,.49.38,1.86,1.86,0,0,0,.75.14A2.83,2.83,0,0,0,259,104a2.33,2.33,0,0,0,.58-.21,1.78,1.78,0,0,0,.38-.27l.84,1.34a2.17,2.17,0,0,1-.51.37,3.11,3.11,0,0,1-.84.3,7,7,0,0,1-1.33.11,4,4,0,0,1-1.73-.36,2.72,2.72,0,0,1-1.18-1.07,3.53,3.53,0,0,1-.06-3.26,2.74,2.74,0,0,1,1.08-1.08,3.45,3.45,0,0,1,1.72-.41,3.71,3.71,0,0,1,1.65.35,2.47,2.47,0,0,1,1.08,1,3.49,3.49,0,0,1,.37,1.71v.22a1.23,1.23,0,0,1,0,.23Zm2.21-1.13a1.26,1.26,0,0,0-.12-.45,1,1,0,0,0-.34-.38,1.17,1.17,0,0,0-.59-.14,1.11,1.11,0,0,0-.6.14,1,1,0,0,0-.37.36,1,1,0,0,0-.15.47Z"/><path class="cls-3" d="M264.15,105.45H262V99.62h2.16v.9h0a1.43,1.43,0,0,1,.28-.42,1.86,1.86,0,0,1,.61-.45,2.09,2.09,0,0,1,1-.21,2.17,2.17,0,0,1,.74.13,1.79,1.79,0,0,1,.5.24l-.84,1.75a1.09,1.09,0,0,0-.35-.25,1.34,1.34,0,0,0-.63-.13,1.08,1.08,0,0,0-.71.22,1.34,1.34,0,0,0-.42.53,1.71,1.71,0,0,0-.13.59Z"/><path class="cls-3" d="M272.34,105.45v-.94a1.83,1.83,0,0,1-.32.41,2.55,2.55,0,0,1-.69.49,2.19,2.19,0,0,1-1,.21,2.71,2.71,0,0,1-1.49-.41,2.85,2.85,0,0,1-1-1.12,3.34,3.34,0,0,1-.36-1.55,3.38,3.38,0,0,1,.36-1.56,2.92,2.92,0,0,1,1-1.12,2.63,2.63,0,0,1,1.49-.42,2.42,2.42,0,0,1,1,.18,2.18,2.18,0,0,1,.67.41,1.55,1.55,0,0,1,.35.44v-.85h2.15v5.83Zm-2.73-2.91a1.33,1.33,0,0,0,.19.71,1.38,1.38,0,0,0,.49.5,1.47,1.47,0,0,0,.69.17,1.41,1.41,0,0,0,.69-.17,1.26,1.26,0,0,0,.47-.5,1.51,1.51,0,0,0,0-1.43,1.26,1.26,0,0,0-1.16-.68,1.37,1.37,0,0,0-.69.18,1.47,1.47,0,0,0-.49.5A1.34,1.34,0,0,0,269.61,102.54Z"/><path class="cls-3" d="M280.79,98.41a1.19,1.19,0,0,1-.87-.36,1.17,1.17,0,0,1-.35-.85,1.22,1.22,0,0,1,.36-.87,1.16,1.16,0,0,1,.86-.36,1.08,1.08,0,0,1,.61.17,1.26,1.26,0,0,1,.45.44,1.18,1.18,0,0,1,.17.62,1.14,1.14,0,0,1-.36.85A1.19,1.19,0,0,1,280.79,98.41Zm-1.11,7V99.62h2.16v5.83Z"/></g></g></svg>