<svg xmlns="http://www.w3.org/2000/svg" viewBox="0 0 160.2 201.54"><defs><style>.cls-1{fill:#e39595;}.cls-2{fill:#c9c9c9;}.cls-3{fill:#020303;}.cls-4{fill:#1d1d1b;}.cls-5{fill:#d10e19;}</style></defs><g id="Livello_2" data-name="Livello 2"><g id="Livello_1-2" data-name="Livello 1"><rect class="cls-1" x="-20.65" y="20.69" width="201.54" height="160.16" rx="22.58" transform="translate(180.89 20.65) rotate(90)"/><path class="cls-2" d="M160.2,160.19V180c0,11.77-8.51,21.31-19,21.31H19c-10.5,0-19-9.54-19-21.31V160.19Z"/><polygon class="cls-3" points="57.7 177.72 55.42 178.91 55.42 175.84 59.41 173.62 60.93 173.62 60.93 187.91 57.7 187.91 57.7 177.72"/><path class="cls-3" d="M73.86,177.52a6.67,6.67,0,0,0-1.28-2.31,5.29,5.29,0,0,0-1.86-1.39,5.44,5.44,0,0,0-2.19-.46,5.51,5.51,0,0,0-2.19.46,5.29,5.29,0,0,0-1.86,1.39,6.52,6.52,0,0,0-1.29,2.31,10.33,10.33,0,0,0-.47,3.26,10.88,10.88,0,0,0,.47,3.39,6.18,6.18,0,0,0,1.29,2.29,5,5,0,0,0,1.86,1.29,5.84,5.84,0,0,0,2.19.42,5.77,5.77,0,0,0,2.19-.42,5,5,0,0,0,1.86-1.29,6.31,6.31,0,0,0,1.28-2.29,10.9,10.9,0,0,0,.46-3.39A10.34,10.34,0,0,0,73.86,177.52Zm-3.09,5.81a3.2,3.2,0,0,1-.88,1.5,2.13,2.13,0,0,1-2.72,0,3.13,3.13,0,0,1-.89-1.5,8.7,8.7,0,0,1-.31-2.55,8.44,8.44,0,0,1,.31-2.47,3.45,3.45,0,0,1,.89-1.56,2,2,0,0,1,2.72,0,3.54,3.54,0,0,1,.88,1.56,8.8,8.8,0,0,1,.31,2.47A9.15,9.15,0,0,1,70.77,183.33Z"/><path class="cls-3" d="M86.7,177.52a6.67,6.67,0,0,0-1.28-2.31,5.29,5.29,0,0,0-1.86-1.39,5.44,5.44,0,0,0-4.38,0,5.29,5.29,0,0,0-1.86,1.39A6.52,6.52,0,0,0,76,177.52a10.05,10.05,0,0,0-.47,3.26,10.59,10.59,0,0,0,.47,3.39,6.18,6.18,0,0,0,1.29,2.29,5,5,0,0,0,1.86,1.29,5.92,5.92,0,0,0,4.38,0,5,5,0,0,0,1.86-1.29,6.31,6.31,0,0,0,1.28-2.29,10.9,10.9,0,0,0,.46-3.39A10.34,10.34,0,0,0,86.7,177.52Zm-3.09,5.81a3.2,3.2,0,0,1-.88,1.5,2.13,2.13,0,0,1-2.72,0,3.13,3.13,0,0,1-.89-1.5,8.66,8.66,0,0,1-.32-2.55,8.42,8.42,0,0,1,.32-2.47,3.45,3.45,0,0,1,.89-1.56,2,2,0,0,1,2.72,0,3.54,3.54,0,0,1,.88,1.56,8.83,8.83,0,0,1,.3,2.47A9.19,9.19,0,0,1,83.61,183.33Z"/><path class="cls-3" d="M95.55,175.06a3.5,3.5,0,0,0-1.32-1.24,4.43,4.43,0,0,0-3.93,0A3.46,3.46,0,0,0,89,175.06a3.15,3.15,0,0,0-.48,1.71,3.25,3.25,0,0,0,.47,1.7,3.58,3.58,0,0,0,1.32,1.24,4,4,0,0,0,2,.47,3.91,3.91,0,0,0,2-.47,3.58,3.58,0,0,0,1.32-1.24,3.25,3.25,0,0,0,.47-1.7A3.15,3.15,0,0,0,95.55,175.06Zm-2.2,2.85a1.44,1.44,0,0,1-1.09.43,1.5,1.5,0,0,1-1.11-.43,1.54,1.54,0,0,1-.43-1.14,1.58,1.58,0,0,1,.44-1.14,1.44,1.44,0,0,1,1.1-.45,1.42,1.42,0,0,1,1.09.45,1.6,1.6,0,0,1,.41,1.14A1.57,1.57,0,0,1,93.35,177.91Z"/><polygon class="cls-3" points="99.94 173.62 102.08 173.62 93.14 187.91 90.99 187.91 99.94 173.62"/><path class="cls-3" d="M104.08,183.05a3.51,3.51,0,0,0-1.33-1.23,4,4,0,0,0-2-.47,4.07,4.07,0,0,0-2,.47,3.51,3.51,0,0,0-1.33,1.23,3.15,3.15,0,0,0-.48,1.71,3.27,3.27,0,0,0,.47,1.7,3.53,3.53,0,0,0,1.32,1.25,4.51,4.51,0,0,0,4,0,3.53,3.53,0,0,0,1.32-1.25,3.27,3.27,0,0,0,.47-1.7A3.15,3.15,0,0,0,104.08,183.05Zm-2.21,2.85a1.43,1.43,0,0,1-1.08.43,1.51,1.51,0,0,1-1.12-.43,1.57,1.57,0,0,1-.42-1.14,1.61,1.61,0,0,1,.43-1.14,1.48,1.48,0,0,1,1.11-.45,1.41,1.41,0,0,1,1.08.45,1.64,1.64,0,0,1,.41,1.14A1.61,1.61,0,0,1,101.87,185.9Z"/><path class="cls-4" d="M87,119.4h3v.38a3.36,3.36,0,0,1-.21,1.2,3,3,0,0,1-.62,1,2.64,2.64,0,0,1-1,.65,3,3,0,0,1-1.22.24,3.22,3.22,0,0,1-1.26-.24A2.85,2.85,0,0,1,84.24,121a3.44,3.44,0,0,1,0-2.42,2.85,2.85,0,0,1,1.59-1.65,3.22,3.22,0,0,1,1.26-.24,3.37,3.37,0,0,1,1,.13,2.8,2.8,0,0,1,.74.32,2.67,2.67,0,0,1,.53.45,3.6,3.6,0,0,1,.37.47l-1.29.61a1.63,1.63,0,0,0-.51-.5,1.49,1.49,0,0,0-.84-.21,1.54,1.54,0,0,0-1.2.54,1.77,1.77,0,0,0-.34.58,2.12,2.12,0,0,0-.12.71,2,2,0,0,0,.12.7,1.82,1.82,0,0,0,.34.59,1.64,1.64,0,0,0,1.2.54,2.08,2.08,0,0,0,.58-.08,1.54,1.54,0,0,0,.46-.24,1,1,0,0,0,.3-.36,1.28,1.28,0,0,0,.14-.47H87Z"/><path class="cls-4" d="M92.13,122.74H90.75V119h1.38v.58h0a.88.88,0,0,1,.17-.27,1.65,1.65,0,0,1,.4-.29,1.42,1.42,0,0,1,.62-.13,1.4,1.4,0,0,1,.47.08,1.55,1.55,0,0,1,.32.16l-.53,1.11a1,1,0,0,0-.23-.16,1,1,0,0,0-.4-.08.73.73,0,0,0-.45.14.89.89,0,0,0-.27.34,1.08,1.08,0,0,0-.08.38Z"/><path class="cls-4" d="M97.35,122.74v-.6a1.17,1.17,0,0,1-.21.26,1.5,1.5,0,0,1-.44.31,1.39,1.39,0,0,1-.63.14,1.68,1.68,0,0,1-.95-.27,1.84,1.84,0,0,1-.64-.71,2.32,2.32,0,0,1,0-2,1.94,1.94,0,0,1,.64-.72,1.68,1.68,0,0,1,.95-.27,1.62,1.62,0,0,1,.61.11,1.59,1.59,0,0,1,.43.27,1,1,0,0,1,.22.28V119H98.7v3.72Zm-1.74-1.86a.9.9,0,0,0,.12.46.77.77,0,0,0,.31.31.87.87,0,0,0,.88,0,.89.89,0,0,0,.3-.31,1,1,0,0,0,.11-.46.94.94,0,0,0-.11-.45.88.88,0,0,0-1.18-.32.8.8,0,0,0-.31.32A.84.84,0,0,0,95.61,120.88Z"/><path class="cls-4" d="M100.93,124.62H99.56V119h1.38v.55a.83.83,0,0,1,.24-.28,2,2,0,0,1,.46-.27,1.81,1.81,0,0,1,.63-.11,1.55,1.55,0,0,1,.93.27,1.76,1.76,0,0,1,.6.72,2.36,2.36,0,0,1,0,2,1.74,1.74,0,0,1-.63.71,1.62,1.62,0,0,1-.94.27,1.46,1.46,0,0,1-.66-.14,1.22,1.22,0,0,1-.43-.31,1.05,1.05,0,0,1-.2-.26Zm1.73-3.74a.94.94,0,0,0-.11-.45.82.82,0,0,0-.74-.43.93.93,0,0,0-.44.11.74.74,0,0,0-.31.32.84.84,0,0,0-.12.45.9.9,0,0,0,.12.46.71.71,0,0,0,.31.31.83.83,0,0,0,.44.12.77.77,0,0,0,.43-.12.84.84,0,0,0,.31-.31A1,1,0,0,0,102.66,120.88Z"/><path class="cls-4" d="M107.29,118.91a2,2,0,0,1,.76.16,1.41,1.41,0,0,1,.61.5,1.54,1.54,0,0,1,.24.9v2.27h-1.37v-2a.86.86,0,0,0-.18-.6.6.6,0,0,0-.49-.2.78.78,0,0,0-.39.1.86.86,0,0,0-.3.3.83.83,0,0,0-.12.44v2h-1.38v-6.23h1.38v3.06a.76.76,0,0,1,.23-.3,1.33,1.33,0,0,1,.44-.25A1.52,1.52,0,0,1,107.29,118.91Z"/><path class="cls-4" d="M110.47,118.26a.75.75,0,0,1-.55-.23.76.76,0,0,1-.23-.55.78.78,0,0,1,.23-.55.76.76,0,0,1,.94-.12.75.75,0,0,1,.28.28.68.68,0,0,1,.11.39.73.73,0,0,1-.23.55A.76.76,0,0,1,110.47,118.26Zm-.71,4.48V119h1.38v3.72Z"/><path class="cls-4" d="M114.11,121.77a.87.87,0,0,0,.42-.09l.23-.14.63.93a1.46,1.46,0,0,1-.25.15,2,2,0,0,1-.44.16,2.27,2.27,0,0,1-.61.07,2.49,2.49,0,0,1-1.12-.24,1.73,1.73,0,0,1-.75-.69,2.14,2.14,0,0,1,0-2.08,1.77,1.77,0,0,1,.75-.68,2.5,2.5,0,0,1,1.12-.25,2.6,2.6,0,0,1,.6.07,2.56,2.56,0,0,1,.45.16,1.46,1.46,0,0,1,.25.15l-.64.95-.12-.09a.68.68,0,0,0-.21-.11,1,1,0,0,0-.31,0,.78.78,0,0,0-.42.11.92.92,0,0,0-.31.31.94.94,0,0,0,0,.92.84.84,0,0,0,.31.31A.79.79,0,0,0,114.11,121.77Z"/><path class="cls-4" d="M119.94,122.85a1.59,1.59,0,0,1-.93-.27,1.65,1.65,0,0,1-.62-.71,2.32,2.32,0,0,1,0-2,1.74,1.74,0,0,1,.62-.72,1.59,1.59,0,0,1,.93-.27,1.83,1.83,0,0,1,.64.11,1.91,1.91,0,0,1,.45.27.59.59,0,0,1,.2.28v-3.06h1.38v6.23h-1.36v-.6a1.17,1.17,0,0,1-.28.33,1.74,1.74,0,0,1-.46.27A1.52,1.52,0,0,1,119.94,122.85Zm.42-1.08a.84.84,0,0,0,.45-.12.77.77,0,0,0,.31-.31.9.9,0,0,0,.11-.46.84.84,0,0,0-.11-.45.8.8,0,0,0-.31-.32.94.94,0,0,0-.45-.11.89.89,0,0,0-.43.11.77.77,0,0,0-.3.32.84.84,0,0,0-.11.45.9.9,0,0,0,.11.46.75.75,0,0,0,.3.31A.8.8,0,0,0,120.36,121.77Z"/><path class="cls-4" d="M124.5,121.17a.63.63,0,0,0,.13.36.83.83,0,0,0,.31.24,1.21,1.21,0,0,0,.48.09,2.28,2.28,0,0,0,.48,0,1.5,1.5,0,0,0,.36-.14.83.83,0,0,0,.24-.17l.54.85a1.77,1.77,0,0,1-.32.24,3,3,0,0,1-.54.19,4.84,4.84,0,0,1-.85.07,2.57,2.57,0,0,1-1.1-.23,1.76,1.76,0,0,1-.75-.68,2.29,2.29,0,0,1,0-2.08,1.76,1.76,0,0,1,.69-.69,2.2,2.2,0,0,1,1.09-.26,2.33,2.33,0,0,1,1.06.23,1.52,1.52,0,0,1,.68.65,2.28,2.28,0,0,1,.24,1.09V121a.45.45,0,0,1,0,.14Zm1.41-.72a.67.67,0,0,0-.08-.29.58.58,0,0,0-.21-.23.62.62,0,0,0-.37-.1.75.75,0,0,0-.39.09.63.63,0,0,0-.23.23.71.71,0,0,0-.1.3Z"/><path class="cls-4" d="M129.58,118.91a3.36,3.36,0,0,1,.67.07,3.1,3.1,0,0,1,.51.13,1.71,1.71,0,0,1,.27.13l-.45.81a1.53,1.53,0,0,0-.32-.16,1.24,1.24,0,0,0-.52-.1,1,1,0,0,0-.36.06.23.23,0,0,0-.15.21.24.24,0,0,0,.16.22,1.7,1.7,0,0,0,.48.15,3.14,3.14,0,0,1,.55.17,1.19,1.19,0,0,1,.47.35.91.91,0,0,1,.19.61,1.15,1.15,0,0,1-.17.64,1.21,1.21,0,0,1-.44.4,2.1,2.1,0,0,1-.6.19,3.36,3.36,0,0,1-.63.06,3.22,3.22,0,0,1-.74-.08,2.39,2.39,0,0,1-.5-.17,2.45,2.45,0,0,1-.28-.16l.45-.91a1.85,1.85,0,0,0,.38.23,1.39,1.39,0,0,0,.57.12,1,1,0,0,0,.45-.09.24.24,0,0,0,.15-.22.21.21,0,0,0-.07-.18.57.57,0,0,0-.22-.12l-.34-.09a3.18,3.18,0,0,1-.38-.11,2.42,2.42,0,0,1-.39-.21,1.05,1.05,0,0,1-.29-.34,1,1,0,0,1-.12-.5.84.84,0,0,1,.24-.61,1.43,1.43,0,0,1,.62-.37A2.75,2.75,0,0,1,129.58,118.91Z"/><path class="cls-4" d="M132.56,118.26A.76.76,0,0,1,132,118a.75.75,0,0,1-.22-.55.77.77,0,0,1,.22-.55.78.78,0,0,1,.55-.23.71.71,0,0,1,.39.11.78.78,0,0,1,.29.28.76.76,0,0,1-.12.94A.79.79,0,0,1,132.56,118.26Zm-.7,4.48V119h1.37v3.72Z"/><path class="cls-4" d="M137.07,122.74v-.6a1.17,1.17,0,0,1-.21.26,1.46,1.46,0,0,1-1.07.45,1.68,1.68,0,0,1-.95-.27,1.74,1.74,0,0,1-.63-.71,2.22,2.22,0,0,1,0-2,1.83,1.83,0,0,1,.63-.72,1.68,1.68,0,0,1,.95-.27,1.48,1.48,0,0,1,1,.38,1.09,1.09,0,0,1,.23.28V119h1.36v3.72Zm-.93,2a4.11,4.11,0,0,1-.78-.07,2.46,2.46,0,0,1-.71-.23,1.74,1.74,0,0,1-.56-.45l.81-.84a1.2,1.2,0,0,0,.26.24,1.18,1.18,0,0,0,.37.2,1.73,1.73,0,0,0,.55.08,1.21,1.21,0,0,0,.52-.11.85.85,0,0,0,.35-.3.94.94,0,0,0,.12-.49v-.09h1.35v.18a1.72,1.72,0,0,1-.3,1,2,2,0,0,1-.82.64A3.07,3.07,0,0,1,136.14,124.73Zm-.81-3.85a.9.9,0,0,0,.12.46.87.87,0,0,0,.75.43.81.81,0,0,0,.44-.12.75.75,0,0,0,.3-.31,1,1,0,0,0,.11-.46.94.94,0,0,0-.11-.45.77.77,0,0,0-.3-.32.9.9,0,0,0-.44-.11.93.93,0,0,0-.44.11.87.87,0,0,0-.31.32A.84.84,0,0,0,135.33,120.88Z"/><path class="cls-4" d="M141.87,118.91a2,2,0,0,1,.76.16,1.47,1.47,0,0,1,.61.5,1.54,1.54,0,0,1,.24.9v2.27H142.1v-2a.86.86,0,0,0-.19-.6.65.65,0,0,0-.5-.2.7.7,0,0,0-.38.1.76.76,0,0,0-.29.3.83.83,0,0,0-.12.44v2h-1.37V119h1.37v.55a.86.86,0,0,1,.23-.3,1.44,1.44,0,0,1,.44-.25A1.58,1.58,0,0,1,141.87,118.91Z"/><path class="cls-4" d="M145.37,121.17a.71.71,0,0,0,.13.36.83.83,0,0,0,.31.24,1.21,1.21,0,0,0,.48.09,2.28,2.28,0,0,0,.48,0,1.5,1.5,0,0,0,.36-.14,1.08,1.08,0,0,0,.25-.17l.53.85a1.77,1.77,0,0,1-.32.24,3,3,0,0,1-.54.19,4.84,4.84,0,0,1-.85.07,2.57,2.57,0,0,1-1.1-.23,1.76,1.76,0,0,1-.75-.68,2.11,2.11,0,0,1-.27-1.1,2,2,0,0,1,.24-1,1.67,1.67,0,0,1,.68-.69,2.22,2.22,0,0,1,1.09-.26,2.33,2.33,0,0,1,1.06.23,1.48,1.48,0,0,1,.68.65,2.28,2.28,0,0,1,.24,1.09v.29Zm1.41-.72a.82.82,0,0,0-.07-.29.6.6,0,0,0-.22-.23.62.62,0,0,0-.37-.1.78.78,0,0,0-.39.09.63.63,0,0,0-.23.23.71.71,0,0,0-.1.3Z"/><path class="cls-4" d="M150.05,122.74h-1.38V119h1.38v.58h0a.88.88,0,0,1,.17-.27,1.65,1.65,0,0,1,.4-.29,1.42,1.42,0,0,1,.62-.13,1.4,1.4,0,0,1,.47.08,1.55,1.55,0,0,1,.32.16l-.54,1.11a.73.73,0,0,0-.22-.16,1,1,0,0,0-.4-.08.76.76,0,0,0-.46.14,1,1,0,0,0-.26.34,1.08,1.08,0,0,0-.08.38Z"/><path class="cls-4" d="M34.23,90.68H21.54a10,10,0,0,0,1.11,3.87,9.68,9.68,0,0,0,2.53,3,11.31,11.31,0,0,0,3.8,2,16.15,16.15,0,0,0,4.87.68,13,13,0,0,0,10-4.49,15.23,15.23,0,0,0,2.86-4.87,17.82,17.82,0,0,0,0-11.77,15,15,0,0,0-2.86-4.88,13.51,13.51,0,0,0-4.4-3.3,12.87,12.87,0,0,0-5.61-1.21,12.51,12.51,0,0,0-7,1.77,14.69,14.69,0,0,0-4.22,4.16L11.86,70.58a29.41,29.41,0,0,1,3-4,21.9,21.9,0,0,1,4.42-3.72,22.28,22.28,0,0,1,6.21-2.72,30.73,30.73,0,0,1,8.33-1,26.79,26.79,0,0,1,10.49,2,24.08,24.08,0,0,1,8.1,5.52,24.33,24.33,0,0,1,5.21,8.23,28.88,28.88,0,0,1,0,20.18,24.52,24.52,0,0,1-5.21,8.25,24,24,0,0,1-8.1,5.54,26.79,26.79,0,0,1-10.49,2,25.73,25.73,0,0,1-10.2-2,23.43,23.43,0,0,1-7.93-5.48,24.63,24.63,0,0,1-5.12-8.16,27.5,27.5,0,0,1-1.8-10V82.06H34.23Z"/><path class="cls-4" d="M72.23,72.54a6.49,6.49,0,0,1-6.49-6.46,6.35,6.35,0,0,1,1.9-4.59,6.42,6.42,0,0,1,7.84-1.06,7,7,0,0,1,2.38,2.36,6.36,6.36,0,0,1-1,7.84A6.28,6.28,0,0,1,72.23,72.54Zm-5.89,37.4v-31H77.83v31Z"/><rect class="cls-4" x="141.67" y="78.93" width="11.48" height="31.02"/><path class="cls-4" d="M115.29,70.3a18.27,18.27,0,0,0-10.63.62,13.51,13.51,0,0,0-4.4,3.3,14.76,14.76,0,0,0-2.85,4.88,17.82,17.82,0,0,0,0,11.77,15,15,0,0,0,2.85,4.87,13,13,0,0,0,10,4.49,16.15,16.15,0,0,0,4.87-.68,11.31,11.31,0,0,0,3.8-2,9.68,9.68,0,0,0,2.53-3,10.17,10.17,0,0,0,1.12-3.87h-12.7V82.06h25.43v3.18a27.5,27.5,0,0,1-1.8,10,24.47,24.47,0,0,1-5.12,8.16,23.43,23.43,0,0,1-7.93,5.48,25.73,25.73,0,0,1-10.2,2,26.74,26.74,0,0,1-10.48-2,23.93,23.93,0,0,1-8.11-5.54,24.67,24.67,0,0,1-5.21-8.25,29,29,0,0,1,0-20.18,24.49,24.49,0,0,1,5.21-8.23,24,24,0,0,1,8.11-5.52,26.74,26.74,0,0,1,10.48-2,34.89,34.89,0,0,1,9,1.57Z"/><path class="cls-5" d="M131.31,73.67a6.47,6.47,0,0,1-6.49-6.46,6.35,6.35,0,0,1,1.9-4.59,6.42,6.42,0,0,1,7.84-1.06,6.92,6.92,0,0,1,2.38,2.37,6.07,6.07,0,0,1,.91,3.28,6.15,6.15,0,0,1-1.93,4.55A6.28,6.28,0,0,1,131.31,73.67Z"/></g></g></svg>