<svg xmlns="http://www.w3.org/2000/svg" viewBox="0 0 160.2 201.54"><defs><style>.cls-1{fill:#e39595;}.cls-2{fill:#c9c9c9;}.cls-3{fill:#020303;}.cls-4{fill:#1d1d1b;}.cls-5{fill:#d10e19;}</style></defs><g id="Livello_2" data-name="Livello 2"><g id="Livello_1-2" data-name="Livello 1"><rect class="cls-1" x="-20.65" y="20.69" width="201.54" height="160.16" rx="22.58" transform="translate(180.89 20.65) rotate(90)"/><path class="cls-2" d="M160.2,160.19V180c0,11.77-8.51,21.31-19,21.31H19c-10.5,0-19-9.54-19-21.31V160.19Z"/><polygon class="cls-3" points="61.96 172.22 72.23 172.22 72.23 174.39 65.33 186.51 61.76 186.51 68.45 175.03 61.96 175.03 61.96 172.22"/><path class="cls-3" d="M75.87,182.48a2.4,2.4,0,0,0,.27.59,2.24,2.24,0,0,0,.43.5,1.93,1.93,0,0,0,.63.36,2.49,2.49,0,0,0,.87.13,1.94,1.94,0,0,0,1.56-.64,2.48,2.48,0,0,0,.55-1.68,2.21,2.21,0,0,0-.54-1.54,1.85,1.85,0,0,0-1.43-.57,2.25,2.25,0,0,0-1,.21,2.61,2.61,0,0,0-.69.47,2.26,2.26,0,0,0-.37.5l-2.68-1,1.27-7.62h8V175H77.45l-.45,2.7a1.35,1.35,0,0,1,.35-.24,3.42,3.42,0,0,1,.75-.3,3.92,3.92,0,0,1,1.07-.13,4.6,4.6,0,0,1,2,.46A3.88,3.88,0,0,1,82.81,179a4.79,4.79,0,0,1,.62,2.58,5.48,5.48,0,0,1-.67,2.76,4.69,4.69,0,0,1-1.86,1.81,5.67,5.67,0,0,1-2.7.64,6.51,6.51,0,0,1-2-.28,4.93,4.93,0,0,1-1.49-.73,4.28,4.28,0,0,1-1-1,4.47,4.47,0,0,1-.58-1.06Z"/><path class="cls-3" d="M92,173.65a3.48,3.48,0,0,0-1.32-1.23,4,4,0,0,0-2-.46,4.08,4.08,0,0,0-2,.46,3.44,3.44,0,0,0-1.33,1.23,3.29,3.29,0,0,0-.47,1.72,3.21,3.21,0,0,0,.47,1.69,3.46,3.46,0,0,0,1.32,1.25,4.09,4.09,0,0,0,2,.47,4,4,0,0,0,2-.47A3.5,3.5,0,0,0,92,177.06a3.12,3.12,0,0,0,.47-1.69A3.29,3.29,0,0,0,92,173.65Zm-2.21,2.85a1.42,1.42,0,0,1-1.08.44,1.48,1.48,0,0,1-1.11-.44,1.5,1.5,0,0,1-.43-1.13,1.57,1.57,0,0,1,.43-1.14,1.48,1.48,0,0,1,1.11-.45,1.4,1.4,0,0,1,1.08.45,1.61,1.61,0,0,1,.42,1.14A1.53,1.53,0,0,1,89.75,176.5Z"/><polygon class="cls-3" points="96.34 172.22 98.48 172.22 89.54 186.51 87.4 186.51 96.34 172.22"/><path class="cls-3" d="M100.49,181.65a3.46,3.46,0,0,0-1.33-1.24,4.43,4.43,0,0,0-3.93,0,3.49,3.49,0,0,0-1.34,1.24,3.23,3.23,0,0,0-.47,1.71,3.18,3.18,0,0,0,.47,1.7,3.36,3.36,0,0,0,1.32,1.24,4.09,4.09,0,0,0,2,.47,4,4,0,0,0,2-.47,3.36,3.36,0,0,0,1.32-1.24,3.18,3.18,0,0,0,.47-1.7A3.23,3.23,0,0,0,100.49,181.65Zm-2.22,2.84a1.42,1.42,0,0,1-1.07.44,1.48,1.48,0,0,1-1.12-.44,1.55,1.55,0,0,1-.42-1.13,1.59,1.59,0,0,1,.43-1.15,1.48,1.48,0,0,1,1.11-.44,1.42,1.42,0,0,1,1.07.44,1.63,1.63,0,0,1,.42,1.15A1.55,1.55,0,0,1,98.27,184.49Z"/><path class="cls-4" d="M83.35,120.77h2.28v.28a2.44,2.44,0,0,1-.16.9,2.25,2.25,0,0,1-.46.74,2.1,2.1,0,0,1-.71.49,2.29,2.29,0,0,1-.92.18,2.39,2.39,0,0,1-.94-.18,2.21,2.21,0,0,1-.73-.5,2.28,2.28,0,0,1-.47-.74,2.49,2.49,0,0,1-.16-.91,2.53,2.53,0,0,1,.16-.91,2.39,2.39,0,0,1,.47-.74,2.18,2.18,0,0,1,.73-.49,2.39,2.39,0,0,1,.94-.18,2.8,2.8,0,0,1,.75.09,1.8,1.8,0,0,1,.56.25,1.9,1.9,0,0,1,.4.33,2.11,2.11,0,0,1,.27.36l-1,.45a1.19,1.19,0,0,0-.37-.37,1.13,1.13,0,0,0-.64-.16,1,1,0,0,0-.5.11,1.18,1.18,0,0,0-.4.29,1.48,1.48,0,0,0-.25.44,1.61,1.61,0,0,0,0,1.06,1.36,1.36,0,0,0,.25.44,1.18,1.18,0,0,0,.4.29,1,1,0,0,0,.5.11,1.51,1.51,0,0,0,.44-.06.92.92,0,0,0,.34-.18.75.75,0,0,0,.23-.27,1,1,0,0,0,.1-.35H83.35Z"/><path class="cls-4" d="M87.16,123.27h-1v-2.78h1v.43h0a.55.55,0,0,1,.13-.2,1.16,1.16,0,0,1,.29-.22,1.12,1.12,0,0,1,.47-.1,1,1,0,0,1,.36.06,1,1,0,0,1,.23.12l-.4.84a.5.5,0,0,0-.17-.12.62.62,0,0,0-.64,0,.58.58,0,0,0-.19.25.65.65,0,0,0-.07.29Z"/><path class="cls-4" d="M91.07,123.27v-.45a.84.84,0,0,1-.15.2,1.07,1.07,0,0,1-.33.23,1,1,0,0,1-.47.11,1.34,1.34,0,0,1-.72-.2,1.3,1.3,0,0,1-.47-.54,1.7,1.7,0,0,1,0-1.48,1.34,1.34,0,0,1,.47-.53,1.27,1.27,0,0,1,.72-.21,1.14,1.14,0,0,1,.46.09,1,1,0,0,1,.31.19.71.71,0,0,1,.17.21v-.4h1v2.78Zm-1.3-1.39a.64.64,0,0,0,.09.34.69.69,0,0,0,.24.24.57.57,0,0,0,.32.08.58.58,0,0,0,.33-.08.66.66,0,0,0,.23-.24.74.74,0,0,0,.08-.34.77.77,0,0,0-.08-.34.66.66,0,0,0-.23-.24.67.67,0,0,0-.33-.08.66.66,0,0,0-.32.08.69.69,0,0,0-.24.24A.67.67,0,0,0,89.77,121.88Z"/><path class="cls-4" d="M93.76,124.69h-1v-4.2h1v.4a.77.77,0,0,1,.18-.21,1.28,1.28,0,0,1,.35-.19,1.16,1.16,0,0,1,.47-.09,1.18,1.18,0,0,1,.7.21,1.27,1.27,0,0,1,.44.53,1.64,1.64,0,0,1,.16.74,1.52,1.52,0,0,1-.17.74,1.24,1.24,0,0,1-1.17.74,1.09,1.09,0,0,1-.5-.11,1,1,0,0,1-.32-.23.68.68,0,0,1-.15-.2Zm1.3-2.81a.77.77,0,0,0-.08-.34.76.76,0,0,0-.23-.24.72.72,0,0,0-.66,0,.59.59,0,0,0-.23.24.67.67,0,0,0-.09.34.64.64,0,0,0,.09.34.59.59,0,0,0,.23.24.72.72,0,0,0,.66,0,.76.76,0,0,0,.23-.24A.74.74,0,0,0,95.06,121.88Z"/><path class="cls-4" d="M98.53,120.4a1.39,1.39,0,0,1,.57.12,1.06,1.06,0,0,1,.46.38,1.13,1.13,0,0,1,.18.67v1.7h-1v-1.53a.65.65,0,0,0-.13-.45.48.48,0,0,0-.37-.15.6.6,0,0,0-.29.08.72.72,0,0,0-.23.23.67.67,0,0,0-.08.33v1.49h-1V118.6h1v2.3a.54.54,0,0,1,.16-.23,1.3,1.3,0,0,1,.33-.19A1.26,1.26,0,0,1,98.53,120.4Z"/><path class="cls-4" d="M100.92,119.91a.55.55,0,0,1-.42-.17.57.57,0,0,1-.17-.41.58.58,0,0,1,.17-.41.58.58,0,0,1,.42-.18.6.6,0,0,1,.29.08.63.63,0,0,1,.21.22.47.47,0,0,1,.08.29.58.58,0,0,1-.58.58Zm-.53,3.36v-2.78h1v2.78Z"/><path class="cls-4" d="M103.64,122.54a.73.73,0,0,0,.32-.06.82.82,0,0,0,.17-.11l.48.7a1,1,0,0,1-.19.11,1.75,1.75,0,0,1-.33.13,2.09,2.09,0,0,1-.46,0,1.76,1.76,0,0,1-.84-.19,1.32,1.32,0,0,1-.56-.51,1.55,1.55,0,0,1,0-1.56,1.32,1.32,0,0,1,.56-.51,1.89,1.89,0,0,1,.84-.19,1.53,1.53,0,0,1,.45.06,1.22,1.22,0,0,1,.34.12,1,1,0,0,1,.19.11l-.48.71-.09-.07a.6.6,0,0,0-.16-.08.83.83,0,0,0-.24,0,.68.68,0,0,0-.31.08.76.76,0,0,0-.23.24.69.69,0,0,0,0,.68.76.76,0,0,0,.23.24A.58.58,0,0,0,103.64,122.54Z"/><path class="cls-4" d="M108,123.36a1.25,1.25,0,0,1-.7-.2,1.28,1.28,0,0,1-.46-.54,1.7,1.7,0,0,1,0-1.48,1.32,1.32,0,0,1,.46-.53,1.18,1.18,0,0,1,.7-.21,1.21,1.21,0,0,1,.48.09,1,1,0,0,1,.33.19.53.53,0,0,1,.16.21V118.6h1v4.67h-1v-.45a.68.68,0,0,1-.21.25,1.3,1.3,0,0,1-.34.21A1.22,1.22,0,0,1,108,123.36Zm.32-.82a.62.62,0,0,0,.33-.08.69.69,0,0,0,.24-.24.74.74,0,0,0,.08-.34.77.77,0,0,0-.08-.34.69.69,0,0,0-.24-.24.72.72,0,0,0-.66,0,.64.64,0,0,0-.22.24.67.67,0,0,0-.09.34.71.71,0,0,0,.31.58A.62.62,0,0,0,108.34,122.54Z"/><path class="cls-4" d="M111.44,122.1a.52.52,0,0,0,.1.27.53.53,0,0,0,.23.18,1,1,0,0,0,.36.06,1.37,1.37,0,0,0,.36,0,1.08,1.08,0,0,0,.27-.1.52.52,0,0,0,.18-.13l.4.64a.83.83,0,0,1-.24.18,1.42,1.42,0,0,1-.4.14,2.84,2.84,0,0,1-.64.06,1.8,1.8,0,0,1-.82-.18,1.21,1.21,0,0,1-.56-.51,1.66,1.66,0,0,1,0-1.56,1.32,1.32,0,0,1,.51-.51,1.63,1.63,0,0,1,.82-.2,1.74,1.74,0,0,1,.79.17,1.14,1.14,0,0,1,.52.5,1.65,1.65,0,0,1,.18.81V122c0,.05,0,.09,0,.11Zm1.06-.54a.46.46,0,0,0-.06-.22.55.55,0,0,0-.16-.18.58.58,0,0,0-.28-.07.51.51,0,0,0-.47.25.57.57,0,0,0-.07.22Z"/><path class="cls-4" d="M115.25,120.4a2.67,2.67,0,0,1,.51,0l.38.1a.71.71,0,0,1,.2.1l-.34.61a1.16,1.16,0,0,0-.24-.13,1.23,1.23,0,0,0-.39-.07.68.68,0,0,0-.27,0,.16.16,0,0,0-.12.15.2.2,0,0,0,.13.17,1.41,1.41,0,0,0,.36.11,2.41,2.41,0,0,1,.41.13.92.92,0,0,1,.35.26.68.68,0,0,1,.14.46.9.9,0,0,1-.12.48.94.94,0,0,1-.33.3,1.39,1.39,0,0,1-.45.14,2.59,2.59,0,0,1-.47,0,2.34,2.34,0,0,1-.56-.06,2.09,2.09,0,0,1-.38-.13,1.27,1.27,0,0,1-.2-.12l.33-.68a2,2,0,0,0,.29.17,1,1,0,0,0,.42.09.64.64,0,0,0,.34-.07.18.18,0,0,0,.12-.17.16.16,0,0,0-.06-.13l-.16-.09-.26-.07-.29-.08a1.12,1.12,0,0,1-.28-.16.75.75,0,0,1-.22-.25.72.72,0,0,1-.09-.37.62.62,0,0,1,.18-.46,1.06,1.06,0,0,1,.47-.28A2,2,0,0,1,115.25,120.4Z"/><path class="cls-4" d="M117.49,119.91a.58.58,0,0,1-.59-.58.55.55,0,0,1,.18-.41.54.54,0,0,1,.41-.18.6.6,0,0,1,.29.08.63.63,0,0,1,.21.22.48.48,0,0,1,.09.29.54.54,0,0,1-.18.41A.53.53,0,0,1,117.49,119.91Zm-.53,3.36v-2.78h1v2.78Z"/><path class="cls-4" d="M120.87,123.27v-.45a.71.71,0,0,1-.16.2,1.14,1.14,0,0,1-.32.23,1.06,1.06,0,0,1-.48.11,1.28,1.28,0,0,1-.71-.2,1.26,1.26,0,0,1-.48-.54,1.7,1.7,0,0,1,0-1.48,1.29,1.29,0,0,1,.48-.53,1.21,1.21,0,0,1,.71-.21,1.11,1.11,0,0,1,.46.09,1.08,1.08,0,0,1,.32.19.92.92,0,0,1,.17.21v-.4h1v2.78Zm-.7,1.5a2.78,2.78,0,0,1-.58-.06,2,2,0,0,1-.54-.17,1.2,1.2,0,0,1-.41-.33l.6-.63a1.66,1.66,0,0,0,.19.18,1,1,0,0,0,.28.14,1.27,1.27,0,0,0,.41.06.93.93,0,0,0,.39-.08.63.63,0,0,0,.26-.22.64.64,0,0,0,.1-.37v-.07h1v.13a1.24,1.24,0,0,1-.23.78,1.4,1.4,0,0,1-.61.48A2.41,2.41,0,0,1,120.17,124.77Zm-.61-2.89a.64.64,0,0,0,.09.34.69.69,0,0,0,.24.24.62.62,0,0,0,.33.08.57.57,0,0,0,.32-.08.59.59,0,0,0,.23-.24.63.63,0,0,0,.08-.34.66.66,0,0,0-.08-.34.59.59,0,0,0-.23-.24.66.66,0,0,0-.32-.08.73.73,0,0,0-.33.08.69.69,0,0,0-.24.24A.67.67,0,0,0,119.56,121.88Z"/><path class="cls-4" d="M124.46,120.4a1.39,1.39,0,0,1,.57.12,1.06,1.06,0,0,1,.46.38,1.13,1.13,0,0,1,.18.67v1.7h-1v-1.53a.61.61,0,0,0-.15-.45.48.48,0,0,0-.37-.15.6.6,0,0,0-.29.08.7.7,0,0,0-.3.56v1.49h-1v-2.78h1v.41a.68.68,0,0,1,.17-.23,1.3,1.3,0,0,1,.33-.19A1.26,1.26,0,0,1,124.46,120.4Z"/><path class="cls-4" d="M127.1,122.1a.44.44,0,0,0,.09.27.63.63,0,0,0,.24.18,1,1,0,0,0,.36.06,1.25,1.25,0,0,0,.35,0,1,1,0,0,0,.28-.1.83.83,0,0,0,.18-.13l.4.64a1.25,1.25,0,0,1-.24.18,1.5,1.5,0,0,1-.41.14,2.74,2.74,0,0,1-.63.06,1.84,1.84,0,0,1-.83-.18,1.21,1.21,0,0,1-.56-.51,1.66,1.66,0,0,1,0-1.56,1.28,1.28,0,0,1,.52-.51,1.61,1.61,0,0,1,.82-.2,1.8,1.8,0,0,1,.79.17,1.17,1.17,0,0,1,.51.5,1.65,1.65,0,0,1,.18.81V122a.31.31,0,0,1,0,.11Zm1.05-.54a.51.51,0,0,0-.22-.4.55.55,0,0,0-.28-.07.65.65,0,0,0-.29.07.58.58,0,0,0-.17.18.44.44,0,0,0-.07.22Z"/><path class="cls-4" d="M130.6,123.27h-1v-2.78h1v.43h0a.82.82,0,0,1,.14-.2,1.16,1.16,0,0,1,.29-.22,1.09,1.09,0,0,1,.47-.1,1,1,0,0,1,.35.06.88.88,0,0,1,.24.12l-.4.84a.5.5,0,0,0-.17-.12.56.56,0,0,0-.3-.07.53.53,0,0,0-.34.11.69.69,0,0,0-.2.25.79.79,0,0,0-.06.29Z"/><path class="cls-4" d="M43.74,99.23H34.22a7.61,7.61,0,0,0,.83,2.9,7.29,7.29,0,0,0,1.9,2.28,8.55,8.55,0,0,0,2.85,1.47,11.92,11.92,0,0,0,3.65.52A9.8,9.8,0,0,0,51,103a11.19,11.19,0,0,0,2.14-3.65,13.37,13.37,0,0,0,0-8.83A11.09,11.09,0,0,0,51,86.89a10,10,0,0,0-3.3-2.48,9.61,9.61,0,0,0-4.21-.91,9.35,9.35,0,0,0-5.28,1.33A11.06,11.06,0,0,0,35,88l-8-3.8a22.33,22.33,0,0,1,2.27-3,16.77,16.77,0,0,1,3.31-2.79,17,17,0,0,1,4.67-2,23,23,0,0,1,6.24-.76,20.11,20.11,0,0,1,7.87,1.48,18.09,18.09,0,0,1,10,10.32,21.72,21.72,0,0,1,0,15.13,18.4,18.4,0,0,1-3.91,6.19,18,18,0,0,1-6.07,4.15,20.11,20.11,0,0,1-7.87,1.49,19.22,19.22,0,0,1-7.65-1.48,17.74,17.74,0,0,1-5.95-4.1A18.6,18.6,0,0,1,26,102.65a20.76,20.76,0,0,1-1.34-7.5V92.77H43.74Z"/><path class="cls-4" d="M72.24,85.63a4.85,4.85,0,0,1-3.44-8.29,4.61,4.61,0,0,1,3.44-1.46,4.68,4.68,0,0,1,2.44.66,5.32,5.32,0,0,1,1.78,1.78,4.51,4.51,0,0,1,.68,2.46,4.63,4.63,0,0,1-1.44,3.41A4.74,4.74,0,0,1,72.24,85.63Zm-4.42,28.05V90.41h8.61v23.27Z"/><rect class="cls-4" x="124.32" y="90.41" width="8.61" height="23.26"/><path class="cls-4" d="M104.53,83.94a13.72,13.72,0,0,0-8,.47,10.07,10.07,0,0,0-3.3,2.48,11.09,11.09,0,0,0-2.14,3.65,13.37,13.37,0,0,0,0,8.83A11.19,11.19,0,0,0,93.26,103a9.8,9.8,0,0,0,7.51,3.38,11.92,11.92,0,0,0,3.65-.52,8.55,8.55,0,0,0,2.85-1.47,7.16,7.16,0,0,0,1.9-2.28,7.8,7.8,0,0,0,.84-2.9h-9.53V92.77h19.07v2.38a20.76,20.76,0,0,1-1.34,7.5,18.6,18.6,0,0,1-3.84,6.13,17.64,17.64,0,0,1-6,4.1,19.22,19.22,0,0,1-7.65,1.48,20.06,20.06,0,0,1-7.86-1.49,18,18,0,0,1-6.08-4.15,18.4,18.4,0,0,1-3.91-6.19,21.72,21.72,0,0,1,0-15.13,18.16,18.16,0,0,1,3.91-6.18,17.94,17.94,0,0,1,6.08-4.14,20.06,20.06,0,0,1,7.86-1.48,26.18,26.18,0,0,1,6.74,1.18Z"/><path class="cls-5" d="M116.55,86.47a4.85,4.85,0,0,1-4.87-4.84,4.72,4.72,0,0,1,1.43-3.44,4.61,4.61,0,0,1,3.44-1.46,4.68,4.68,0,0,1,2.44.66,5.38,5.38,0,0,1,1.78,1.77,4.57,4.57,0,0,1,.68,2.47A4.63,4.63,0,0,1,120,85,4.74,4.74,0,0,1,116.55,86.47Z"/></g></g></svg>