<svg xmlns="http://www.w3.org/2000/svg" viewBox="0 0 331.75 295.91"><defs><style>.cls-1{fill:#eb9d9d;}.cls-2{fill:#1d1d1b;}.cls-3{fill:#d90e19;}.cls-4{fill:#d1d1d1;}.cls-5{fill:#fff;}</style></defs><g id="Livello_2" data-name="Livello 2"><g id="Livello_1-2" data-name="Livello 1"><rect class="cls-1" width="331.75" height="295.27" rx="39.36"/><path class="cls-2" d="M92.28,106.08c-5.53-1.64-12.83-.27-15.27.89a19.5,19.5,0,0,0-6.33,4.75,21.59,21.59,0,0,0-4.1,7,25.71,25.71,0,0,0,0,16.91,22,22,0,0,0,4.1,7,18.73,18.73,0,0,0,14.39,6.46,23.59,23.59,0,0,0,7-1,16.43,16.43,0,0,0,5.46-2.82,13.68,13.68,0,0,0,3.63-4.37,14.7,14.7,0,0,0,1.61-5.57H84.53V123h36.53v4.56a39.53,39.53,0,0,1-2.58,14.38,35.61,35.61,0,0,1-7.35,11.73,33.83,33.83,0,0,1-11.4,7.87,37.09,37.09,0,0,1-14.66,2.82A38.44,38.44,0,0,1,70,161.5a34.53,34.53,0,0,1-11.64-7.95,35.38,35.38,0,0,1-7.49-11.86,41.55,41.55,0,0,1,0-29A34.63,34.63,0,0,1,70,92.94a38.44,38.44,0,0,1,15.07-2.85c4.52,0,9.45,1.29,12.91,2.26Z"/><path class="cls-3" d="M115.31,110.93a9.3,9.3,0,0,1-9.34-9.28,9.12,9.12,0,0,1,2.74-6.6A9.19,9.19,0,0,1,120,93.53a10,10,0,0,1,3.43,3.4,9.15,9.15,0,0,1-1.47,11.26A9.07,9.07,0,0,1,115.31,110.93Z"/><path class="cls-2" d="M153.62,104.13h14.84V106a16,16,0,0,1-1.05,5.84,14.35,14.35,0,0,1-3,4.77,13.69,13.69,0,0,1-4.63,3.19,14.93,14.93,0,0,1-6,1.15,15.63,15.63,0,0,1-6.12-1.16,13.82,13.82,0,0,1-4.73-3.23,14.38,14.38,0,0,1-3.05-4.81A17,17,0,0,1,140,100a14.14,14.14,0,0,1,3.05-4.8,13.94,13.94,0,0,1,4.73-3.22,15.46,15.46,0,0,1,6.12-1.16,17.87,17.87,0,0,1,4.86.59A13.24,13.24,0,0,1,162.33,93a12.76,12.76,0,0,1,2.58,2.17,18.49,18.49,0,0,1,1.77,2.3l-6.27,3A8.59,8.59,0,0,0,158,98a7.4,7.4,0,0,0-4.11-1,7.54,7.54,0,0,0-3.28.7A8,8,0,0,0,148,99.55a8.79,8.79,0,0,0-1.66,2.85,10.29,10.29,0,0,0,0,6.87,8.85,8.85,0,0,0,1.66,2.84,7.6,7.6,0,0,0,2.57,1.93,7.68,7.68,0,0,0,3.28.7,9.69,9.69,0,0,0,2.84-.4,6.87,6.87,0,0,0,2.22-1.15,5.59,5.59,0,0,0,1.47-1.78,5.82,5.82,0,0,0,.65-2.26h-7.41Z"/><path class="cls-2" d="M178.38,120.4h-6.7V102.3h6.7v2.8h-.11a4.5,4.5,0,0,1,.86-1.29,6.29,6.29,0,0,1,1.92-1.41,6.58,6.58,0,0,1,3-.63,7.13,7.13,0,0,1,3.86,1.12l-2.6,5.45a3.6,3.6,0,0,0-1.09-.78,4.11,4.11,0,0,0-2-.41,3.52,3.52,0,0,0-2.22.68,4.16,4.16,0,0,0-1.28,1.65,4.84,4.84,0,0,0-.41,1.84Z"/><path class="cls-2" d="M203.78,120.4v-2.93a5.46,5.46,0,0,1-1,1.27,7.76,7.76,0,0,1-2.13,1.52,6.7,6.7,0,0,1-3.09.67,8.33,8.33,0,0,1-4.63-1.29,8.74,8.74,0,0,1-3.08-3.46,11.11,11.11,0,0,1,0-9.64,8.84,8.84,0,0,1,3.08-3.47,8.34,8.34,0,0,1,4.63-1.3,7.59,7.59,0,0,1,3,.54,7.1,7.1,0,0,1,2.07,1.28,4.9,4.9,0,0,1,1.1,1.35V102.3h6.67v18.1Zm-8.46-9a4.37,4.37,0,0,0,.57,2.22,4.16,4.16,0,0,0,1.53,1.53,4.28,4.28,0,0,0,2.13.55,4.18,4.18,0,0,0,2.14-.55,4,4,0,0,0,1.46-1.53,4.83,4.83,0,0,0,0-4.44,3.95,3.95,0,0,0-3.6-2.1,4.18,4.18,0,0,0-2.13.56,4.26,4.26,0,0,0-1.53,1.54A4.37,4.37,0,0,0,195.32,111.36Z"/><path class="cls-2" d="M221.22,129.57h-6.64V102.3h6.71v2.64a4.56,4.56,0,0,1,1.18-1.35,8,8,0,0,1,2.23-1.28,8.2,8.2,0,0,1,3.07-.54,7.85,7.85,0,0,1,4.53,1.3,8.5,8.5,0,0,1,2.9,3.47,11.22,11.22,0,0,1,1,4.82,10.67,10.67,0,0,1-1.08,4.82,8.7,8.7,0,0,1-3,3.46,8.14,8.14,0,0,1-4.6,1.29,7.13,7.13,0,0,1-3.23-.67,7.45,7.45,0,0,1-2.09-1.5,5.35,5.35,0,0,1-1-1.29Zm8.44-18.21a4.46,4.46,0,0,0-.55-2.22,4.13,4.13,0,0,0-1.48-1.54,4.08,4.08,0,0,0-2.11-.56,4.25,4.25,0,0,0-2.17.56,4.13,4.13,0,0,0-1.51,1.54,4.76,4.76,0,0,0,0,4.44,4,4,0,0,0,1.51,1.53,4.35,4.35,0,0,0,2.17.55,4.17,4.17,0,0,0,2.11-.55,4,4,0,0,0,1.48-1.53A4.46,4.46,0,0,0,229.66,111.36Z"/><path class="cls-2" d="M252.2,101.77a9.4,9.4,0,0,1,3.7.77,6.92,6.92,0,0,1,3,2.44,7.43,7.43,0,0,1,1.17,4.37V120.4h-6.7v-9.94a4.26,4.26,0,0,0-.87-2.92,3,3,0,0,0-2.37-1,3.8,3.8,0,0,0-1.9.52,4.07,4.07,0,0,0-2,3.6v9.73h-6.72V90.06h6.72V105a3.5,3.5,0,0,1,1.09-1.47,7.2,7.2,0,0,1,2.14-1.23A7.72,7.72,0,0,1,252.2,101.77Z"/><path class="cls-2" d="M267.67,98.57a3.79,3.79,0,0,1-3.79-3.77A3.68,3.68,0,0,1,265,92.12,3.62,3.62,0,0,1,267.67,91a3.55,3.55,0,0,1,1.9.52A4,4,0,0,1,271,92.88a3.73,3.73,0,0,1-.59,4.58A3.71,3.71,0,0,1,267.67,98.57Zm-3.43,21.83V102.3h6.7v18.1Z"/><path class="cls-2" d="M285.38,115.66a4.35,4.35,0,0,0,2.07-.43,6.59,6.59,0,0,0,1.11-.69l3.06,4.54a7.62,7.62,0,0,1-1.21.73,9.64,9.64,0,0,1-2.15.79,11.93,11.93,0,0,1-2.95.33,12.12,12.12,0,0,1-5.46-1.18,8.83,8.83,0,0,1-3.68-3.34,9.62,9.62,0,0,1-1.31-5.07,9.52,9.52,0,0,1,1.31-5.07,8.85,8.85,0,0,1,3.68-3.32,12,12,0,0,1,5.46-1.18,11.26,11.26,0,0,1,2.92.34,13,13,0,0,1,2.18.77,6,6,0,0,1,1.23.74l-3.13,4.59a3.87,3.87,0,0,0-.56-.44,4.28,4.28,0,0,0-1.05-.51,4.6,4.6,0,0,0-1.52-.22,3.91,3.91,0,0,0-2,.55,4.23,4.23,0,0,0-2.08,3.75,4.39,4.39,0,0,0,.57,2.24,4.26,4.26,0,0,0,1.51,1.53A4,4,0,0,0,285.38,115.66Z"/><path class="cls-2" d="M144.66,155.63a7.65,7.65,0,0,1-4.34-1.23,8.17,8.17,0,0,1-2.86-3.29,10.79,10.79,0,0,1,0-9.16,8.34,8.34,0,0,1,2.86-3.3,7.65,7.65,0,0,1,4.34-1.24,7.85,7.85,0,0,1,2.93.52,7.17,7.17,0,0,1,2.08,1.21,3,3,0,0,1,1,1.29V126.29H157v28.84h-6.3v-2.79a5.38,5.38,0,0,1-1.3,1.54,7.51,7.51,0,0,1-2.12,1.25A6.68,6.68,0,0,1,144.66,155.63Zm2-5a4,4,0,0,0,2.06-.53,3.78,3.78,0,0,0,1.44-1.45,4.52,4.52,0,0,0,0-4.21,3.84,3.84,0,0,0-1.44-1.47,3.93,3.93,0,0,0-2.06-.54,3.77,3.77,0,0,0-2,.54,3.83,3.83,0,0,0-1.41,1.47,4.6,4.6,0,0,0,0,4.21,3.78,3.78,0,0,0,1.41,1.45A3.86,3.86,0,0,0,146.61,150.62Z"/><path class="cls-2" d="M165.77,147.87a3.07,3.07,0,0,0,.58,1.65,3.36,3.36,0,0,0,1.45,1.12,5.47,5.47,0,0,0,2.22.4,9.18,9.18,0,0,0,2.19-.24,7.18,7.18,0,0,0,1.7-.63,4.83,4.83,0,0,0,1.12-.79l2.47,3.94a6.18,6.18,0,0,1-1.49,1.09,9.29,9.29,0,0,1-2.49.87,18.44,18.44,0,0,1-3.92.35,11.64,11.64,0,0,1-5.09-1.07,8.08,8.08,0,0,1-3.48-3.14,9.69,9.69,0,0,1-1.26-5.1,9.41,9.41,0,0,1,1.09-4.52,8,8,0,0,1,3.19-3.2,10.09,10.09,0,0,1,5-1.19,10.89,10.89,0,0,1,4.87,1,7.26,7.26,0,0,1,3.18,3.05,10.38,10.38,0,0,1,1.11,5v.66a4.34,4.34,0,0,1,0,.68Zm6.51-3.33a3.18,3.18,0,0,0-.35-1.34,2.87,2.87,0,0,0-1-1.1,3.11,3.11,0,0,0-1.72-.43,3.47,3.47,0,0,0-1.78.42,3,3,0,0,0-1.09,1.07,3.24,3.24,0,0,0-.44,1.38Z"/><path class="cls-2" d="M189.28,137.41a15.56,15.56,0,0,1,3.1.29,15.31,15.31,0,0,1,2.36.64,4.62,4.62,0,0,1,1.23.59l-2.08,3.75a7.89,7.89,0,0,0-1.48-.76,6,6,0,0,0-2.4-.46,4.22,4.22,0,0,0-1.69.3,1,1,0,0,0-.7,1,1.16,1.16,0,0,0,.77,1,8.78,8.78,0,0,0,2.21.69,13.15,13.15,0,0,1,2.56.79,5.61,5.61,0,0,1,2.17,1.61,4.28,4.28,0,0,1,.87,2.82,5,5,0,0,1-2.83,4.79,9.82,9.82,0,0,1-2.77.92,17.14,17.14,0,0,1-2.89.26,14.39,14.39,0,0,1-3.43-.36,11,11,0,0,1-2.36-.82,8.11,8.11,0,0,1-1.25-.73l2.05-4.19a8.5,8.5,0,0,0,1.78,1,6.21,6.21,0,0,0,2.62.57,4.39,4.39,0,0,0,2.08-.4,1.17,1.17,0,0,0,.73-1,1.06,1.06,0,0,0-.36-.84,3.09,3.09,0,0,0-1-.55,12.14,12.14,0,0,0-1.57-.41,12.2,12.2,0,0,1-1.79-.53,7.73,7.73,0,0,1-1.78-1,4.81,4.81,0,0,1-1.36-1.57,4.6,4.6,0,0,1-.52-2.28,3.92,3.92,0,0,1,1.11-2.85,6.94,6.94,0,0,1,2.87-1.71A12.07,12.07,0,0,1,189.28,137.41Z"/><path class="cls-2" d="M203.07,134.38a3.6,3.6,0,0,1-3.6-3.59,3.55,3.55,0,0,1,1.05-2.55,3.48,3.48,0,0,1,2.55-1.07,3.44,3.44,0,0,1,1.81.49,3.91,3.91,0,0,1,1.31,1.31,3.35,3.35,0,0,1,.51,1.82,3.46,3.46,0,0,1-1.07,2.53A3.54,3.54,0,0,1,203.07,134.38Zm-3.27,20.75V137.92h6.37v17.21Z"/><path class="cls-2" d="M223.92,155.13v-2.79a5,5,0,0,1-.95,1.21,7.32,7.32,0,0,1-2,1.44,6.37,6.37,0,0,1-2.94.64,7.89,7.89,0,0,1-4.4-1.23,8.26,8.26,0,0,1-2.93-3.29,10.51,10.51,0,0,1,0-9.16,8.43,8.43,0,0,1,2.93-3.3,7.9,7.9,0,0,1,4.4-1.24,7.25,7.25,0,0,1,2.83.52,6.76,6.76,0,0,1,2,1.21,4.83,4.83,0,0,1,1.05,1.29v-2.51h6.33v17.21Zm-4.31,9.2A20.37,20.37,0,0,1,216,164a12,12,0,0,1-3.3-1.07,7.44,7.44,0,0,1-2.58-2.07l3.73-3.88a8,8,0,0,0,1.19,1.11,6.18,6.18,0,0,0,1.74.9,7.72,7.72,0,0,0,2.52.36,5.6,5.6,0,0,0,2.41-.48,3.69,3.69,0,0,0,1.61-1.41,4.17,4.17,0,0,0,.57-2.24v-.42h6.27v.8a8,8,0,0,1-1.41,4.8,8.67,8.67,0,0,1-3.81,2.93A13.87,13.87,0,0,1,219.61,164.33Zm-3.74-17.8a4.15,4.15,0,0,0,.55,2.11,3.91,3.91,0,0,0,1.46,1.45,4,4,0,0,0,2,.53,3.8,3.8,0,0,0,3.43-2,4.6,4.6,0,0,0,0-4.21,3.88,3.88,0,0,0-1.4-1.47,3.78,3.78,0,0,0-2-.54,3.89,3.89,0,0,0-2,.54,4,4,0,0,0-1.46,1.47A4.11,4.11,0,0,0,215.87,146.53Z"/><path class="cls-2" d="M246.12,137.41a8.9,8.9,0,0,1,3.52.74,6.61,6.61,0,0,1,2.83,2.31,7.14,7.14,0,0,1,1.11,4.17v10.5h-6.39v-9.46a3.92,3.92,0,0,0-.88-2.77A3,3,0,0,0,244,142a3.47,3.47,0,0,0-1.77.49,3.89,3.89,0,0,0-1.34,1.39,4.07,4.07,0,0,0-.52,2v9.25H234V137.92h6.37v2.54a3.61,3.61,0,0,1,1.06-1.4,6.66,6.66,0,0,1,2-1.17A7.21,7.21,0,0,1,246.12,137.41Z"/><path class="cls-2" d="M262.36,147.87a3.08,3.08,0,0,0,.59,1.65,3.39,3.39,0,0,0,1.44,1.12,5.54,5.54,0,0,0,2.22.4,9.06,9.06,0,0,0,2.19-.24,7.18,7.18,0,0,0,1.7-.63,4.62,4.62,0,0,0,1.12-.79l2.48,3.94a6.39,6.39,0,0,1-1.49,1.09,9.42,9.42,0,0,1-2.49.87,18.57,18.57,0,0,1-3.92.35,11.66,11.66,0,0,1-5.1-1.07,8.08,8.08,0,0,1-3.48-3.14,9.78,9.78,0,0,1-1.25-5.1,9.3,9.3,0,0,1,1.09-4.52,8,8,0,0,1,3.18-3.2,10.11,10.11,0,0,1,5.05-1.19,10.93,10.93,0,0,1,4.88,1,7.24,7.24,0,0,1,3.17,3.05,10.38,10.38,0,0,1,1.11,5v.66a3.34,3.34,0,0,1,0,.68Zm6.52-3.33a3.2,3.2,0,0,0-.36-1.34,2.84,2.84,0,0,0-1-1.1,3.11,3.11,0,0,0-1.72-.43,3.42,3.42,0,0,0-1.78.42,2.87,2.87,0,0,0-1.09,1.07,3.24,3.24,0,0,0-.44,1.38Z"/><path class="cls-2" d="M284,155.13h-6.37V137.92H284v2.66h-.1a4.07,4.07,0,0,1,.81-1.22,6,6,0,0,1,1.82-1.35,6.29,6.29,0,0,1,2.88-.6,6.51,6.51,0,0,1,2.2.37,6.43,6.43,0,0,1,1.46.7l-2.47,5.18a3.28,3.28,0,0,0-1-.74,3.93,3.93,0,0,0-1.85-.39,3.34,3.34,0,0,0-2.11.65,3.77,3.77,0,0,0-1.21,1.57,4.52,4.52,0,0,0-.39,1.74Z"/><path class="cls-4" d="M331.75,219.92v36.63a39.36,39.36,0,0,1-39.36,39.36h-253A39.37,39.37,0,0,1,0,256.55V219.92Z"/><path class="cls-5" d="M45.78,257.7a15.17,15.17,0,0,1,1.11-5.86A14.52,14.52,0,0,1,50,247.09a14.29,14.29,0,0,1,4.72-3.16,15.66,15.66,0,0,1,11.73,0,14.06,14.06,0,0,1,4.69,3.16,14.5,14.5,0,0,1,3.11,4.75,15.55,15.55,0,0,1,1.1,5.86,16,16,0,0,1-1.07,5.88,14.45,14.45,0,0,1-3.06,4.77,13.94,13.94,0,0,1-4.69,3.17,15.22,15.22,0,0,1-6,1.14,15.48,15.48,0,0,1-6-1.14,13.71,13.71,0,0,1-4.68-3.17,14.37,14.37,0,0,1-3-4.77A16.16,16.16,0,0,1,45.78,257.7Zm6.79,0a9.7,9.7,0,0,0,1,4.47,8.1,8.1,0,0,0,2.82,3.17,8,8,0,0,0,8.36,0,8.1,8.1,0,0,0,2.82-3.17,9.83,9.83,0,0,0,1-4.47,9.71,9.71,0,0,0-1-4.45,8.34,8.34,0,0,0-2.82-3.18,7.94,7.94,0,0,0-8.36,0,8.34,8.34,0,0,0-2.82,3.18A9.59,9.59,0,0,0,52.57,257.7Z"/><path class="cls-5" d="M79,243.32H90.71a9.33,9.33,0,0,1,4.47,1,7.83,7.83,0,0,1,3.12,3,9.22,9.22,0,0,1,1.14,4.7,9.08,9.08,0,0,1-1,4.47,7.14,7.14,0,0,1-2.33,2.59,6.59,6.59,0,0,1-2.51,1l7,11.94H93.31l-6.25-11.44H85.49v11.44H79Zm6.53,12.85h2.88a5.45,5.45,0,0,0,3.06-.85,4.12,4.12,0,0,0,0-6,5.44,5.44,0,0,0-3-.84H85.49Z"/><path class="cls-5" d="M105.16,243.32h6.53v28.81h-6.53Z"/><path class="cls-5" d="M117.17,243.32h23.66l-14.3,23.09H139.9v5.72H115.14L129.42,249H117.17Z"/><path class="cls-5" d="M143.32,257.7a15.36,15.36,0,0,1,1.11-5.86,14.71,14.71,0,0,1,3.13-4.75,14.35,14.35,0,0,1,4.71-3.16,15.68,15.68,0,0,1,11.74,0,14.27,14.27,0,0,1,4.69,3.16,14.47,14.47,0,0,1,3.1,4.75,15.35,15.35,0,0,1,1.1,5.86,15.76,15.76,0,0,1-1.07,5.88,14.27,14.27,0,0,1-3.05,4.77,14,14,0,0,1-4.7,3.17,15.17,15.17,0,0,1-6,1.14,15.44,15.44,0,0,1-6-1.14,13.75,13.75,0,0,1-4.69-3.17,14.35,14.35,0,0,1-3-4.77A16,16,0,0,1,143.32,257.7Zm6.79,0a9.83,9.83,0,0,0,1,4.47,8.1,8.1,0,0,0,2.82,3.17,8,8,0,0,0,8.36,0,8,8,0,0,0,2.82-3.17,9.7,9.7,0,0,0,1-4.47,9.59,9.59,0,0,0-1-4.45,8.26,8.26,0,0,0-2.82-3.18,7.94,7.94,0,0,0-8.36,0,8.34,8.34,0,0,0-2.82,3.18A9.71,9.71,0,0,0,150.11,257.7Z"/><path class="cls-5" d="M182.69,249.3l.48.08v22.75h-6.53V243.32h8.91L197.23,266l-.48.09V243.32h6.53v28.81h-9Z"/><path class="cls-5" d="M213.58,249H206.7v-5.71H227V249H220.1v23.1h-6.52Z"/><path class="cls-5" d="M239.82,243.32h6.48l11.38,28.81h-7l-2.09-5.78H237.53l-2.12,5.78h-7Zm-.11,17.31h6.75l-3.34-9.45h-.07Z"/><path class="cls-5" d="M260.15,243.32h6.52v23.09h10.46v5.72h-17Z"/><path class="cls-5" d="M281.37,243.32h18.4V249h-11.9v5.88h11.79v5.54H287.87v6h11.9v5.72h-18.4Z"/></g></g></svg>