<svg xmlns="http://www.w3.org/2000/svg" viewBox="0 0 201.54 160.25"><defs><style>.cls-1{fill:#eb9d9d;}.cls-2{fill:#d1d1d1;}.cls-3{fill:#1d1d1b;}.cls-4{fill:#d90e19;}.cls-5{fill:#020303;}</style></defs><g id="Livello_2" data-name="Livello 2"><g id="Livello_1-2" data-name="Livello 1"><rect class="cls-1" width="201.54" height="159.9" rx="22.58"/><path class="cls-2" d="M201.54,119.09v19.84c0,11.77-10.71,21.32-23.91,21.32H23.92C10.71,160.25,0,150.7,0,138.93V119.09Z"/><path class="cls-3" d="M58.76,64.69a13.91,13.91,0,0,0-8.08.47,10.35,10.35,0,0,0-3.35,2.51,11.34,11.34,0,0,0-2.17,3.71,13.55,13.55,0,0,0,0,9A11.61,11.61,0,0,0,47.33,84a10.24,10.24,0,0,0,3.35,2.52,10,10,0,0,0,4.26.9,12.32,12.32,0,0,0,3.71-.52,8.7,8.7,0,0,0,2.89-1.49,7.33,7.33,0,0,0,1.92-2.31,7.82,7.82,0,0,0,.85-2.95H54.66V73.63H74v2.42a21,21,0,0,1-1.37,7.61,18.55,18.55,0,0,1-3.89,6.2,17.81,17.81,0,0,1-6,4.17,19.7,19.7,0,0,1-7.76,1.49A20.26,20.26,0,0,1,47,94a18.13,18.13,0,0,1-6.16-4.2,18.82,18.82,0,0,1-4-6.28,22,22,0,0,1,0-15.34A18.33,18.33,0,0,1,47,57.73a20.43,20.43,0,0,1,8-1.51,26.8,26.8,0,0,1,6.84,1.2Z"/><path class="cls-4" d="M70.94,67.25A4.93,4.93,0,0,1,66,62.34a4.85,4.85,0,0,1,1.45-3.49,4.84,4.84,0,0,1,6-.8,5.26,5.26,0,0,1,1.81,1.79,4.85,4.85,0,0,1-.77,6A4.81,4.81,0,0,1,70.94,67.25Z"/><path class="cls-3" d="M91.22,63.65h7.85v1a8.53,8.53,0,0,1-.55,3.1,7.84,7.84,0,0,1-1.58,2.52,7.41,7.41,0,0,1-2.45,1.69,8,8,0,0,1-3.15.6,8.24,8.24,0,0,1-3.24-.61,7.42,7.42,0,0,1-2.5-1.71A7.52,7.52,0,0,1,84,67.67a8.94,8.94,0,0,1,0-6.23A7.48,7.48,0,0,1,85.6,58.9a7.39,7.39,0,0,1,2.5-1.7,8.24,8.24,0,0,1,3.24-.62,9.45,9.45,0,0,1,2.57.32,7,7,0,0,1,1.92.84,6.5,6.5,0,0,1,1.36,1.15,8.17,8.17,0,0,1,.94,1.22l-3.32,1.56a4.29,4.29,0,0,0-1.3-1.28,3.82,3.82,0,0,0-2.17-.55,4,4,0,0,0-1.73.37,4.16,4.16,0,0,0-1.36,1,4.55,4.55,0,0,0-.88,1.51,5.47,5.47,0,0,0,0,3.63,4.65,4.65,0,0,0,.88,1.51,4.16,4.16,0,0,0,1.36,1,4.09,4.09,0,0,0,1.73.37,5,5,0,0,0,1.5-.22,3.75,3.75,0,0,0,1.18-.6,3,3,0,0,0,.78-.94,3.15,3.15,0,0,0,.34-1.2H91.22Z"/><path class="cls-3" d="M104.32,72.26h-3.54V62.68h3.54v1.49h-.06a2.61,2.61,0,0,1,.46-.69,3.43,3.43,0,0,1,1-.74,3.54,3.54,0,0,1,1.6-.34,3.49,3.49,0,0,1,1.23.21,3.84,3.84,0,0,1,.81.39L108,65.88a1.84,1.84,0,0,0-.58-.41,2.15,2.15,0,0,0-1-.22,1.86,1.86,0,0,0-1.18.36,2.21,2.21,0,0,0-.67.88,2.38,2.38,0,0,0-.22,1Z"/><path class="cls-3" d="M117.76,72.26V70.71a3,3,0,0,1-.53.68,4.13,4.13,0,0,1-1.12.8,3.57,3.57,0,0,1-1.64.35,4.36,4.36,0,0,1-2.45-.68A4.59,4.59,0,0,1,110.39,70a5.9,5.9,0,0,1,0-5.1A4.68,4.68,0,0,1,112,63.09a4.45,4.45,0,0,1,2.45-.69,4,4,0,0,1,1.58.29,3.7,3.7,0,0,1,1.09.68,2.71,2.71,0,0,1,.59.72V62.68h3.52v9.58Zm-4.48-4.78a2.2,2.2,0,0,0,.31,1.17,2.1,2.1,0,0,0,.81.81,2.16,2.16,0,0,0,1.12.3,2.1,2.1,0,0,0,1.13-.3,2,2,0,0,0,.78-.81,2.39,2.39,0,0,0,.29-1.17,2.36,2.36,0,0,0-.29-1.17,2.12,2.12,0,0,0-.78-.82,2.1,2.1,0,0,0-1.13-.3,2.16,2.16,0,0,0-1.12.3,2.3,2.3,0,0,0-1.12,2Z"/><path class="cls-3" d="M127,77.12h-3.51V62.68H127v1.41a2.25,2.25,0,0,1,.62-.72,4.26,4.26,0,0,1,1.18-.68,4.39,4.39,0,0,1,1.63-.29,4.16,4.16,0,0,1,2.39.69,4.48,4.48,0,0,1,1.54,1.84,6.09,6.09,0,0,1,.53,2.55,5.68,5.68,0,0,1-.57,2.55,4.52,4.52,0,0,1-1.6,1.83,4.28,4.28,0,0,1-2.44.68,3.71,3.71,0,0,1-1.7-.35,3.78,3.78,0,0,1-1.11-.8,2.66,2.66,0,0,1-.51-.68Zm4.47-9.64a2.36,2.36,0,0,0-.29-1.17,2.22,2.22,0,0,0-.79-.82,2.1,2.1,0,0,0-1.11-.3,2.19,2.19,0,0,0-1.15.3,2.1,2.1,0,0,0-.8.82,2.26,2.26,0,0,0-.29,1.17,2.28,2.28,0,0,0,.29,1.17,2,2,0,0,0,.8.81,2.19,2.19,0,0,0,1.15.3,2.1,2.1,0,0,0,1.11-.3,2.12,2.12,0,0,0,.79-.81A2.39,2.39,0,0,0,131.46,67.48Z"/><path class="cls-3" d="M143.38,62.4a5,5,0,0,1,2,.41,3.67,3.67,0,0,1,1.58,1.29,4,4,0,0,1,.62,2.32v5.84H144V67a2.23,2.23,0,0,0-.46-1.54,1.59,1.59,0,0,0-1.26-.52,2,2,0,0,0-1,.27,2,2,0,0,0-.77.77,2.16,2.16,0,0,0-.3,1.14v5.14h-3.56V56.21h3.56V64.1a1.8,1.8,0,0,1,.58-.78,3.5,3.5,0,0,1,1.13-.65A3.92,3.92,0,0,1,143.38,62.4Z"/><path class="cls-3" d="M151.57,60.71a2,2,0,0,1-2-2,2,2,0,0,1,.58-1.42,1.94,1.94,0,0,1,1.42-.6,1.88,1.88,0,0,1,1,.28,2.18,2.18,0,0,1,.73.72,2,2,0,0,1-.31,2.42A2,2,0,0,1,151.57,60.71Zm-1.82,11.55V62.68h3.55v9.58Z"/><path class="cls-3" d="M160.94,69.76a2.39,2.39,0,0,0,1.1-.23,3.29,3.29,0,0,0,.58-.37l1.62,2.4a3.06,3.06,0,0,1-.64.39,5.28,5.28,0,0,1-1.14.42,6.59,6.59,0,0,1-1.56.17,6.47,6.47,0,0,1-2.89-.62,4.69,4.69,0,0,1-1.94-1.77,5.5,5.5,0,0,1,0-5.37A4.71,4.71,0,0,1,158,63a6.34,6.34,0,0,1,2.89-.63,6,6,0,0,1,1.55.19,5.62,5.62,0,0,1,1.15.41,3.47,3.47,0,0,1,.65.38l-1.65,2.43-.3-.23a2.35,2.35,0,0,0-.55-.27,2.47,2.47,0,0,0-.81-.12,2,2,0,0,0-1.07.3,2.27,2.27,0,0,0-.8.8,2.47,2.47,0,0,0,0,2.36,2.22,2.22,0,0,0,.8.81A2,2,0,0,0,160.94,69.76Z"/><path class="cls-3" d="M86.48,90.91a4,4,0,0,1-2.3-.66,4.33,4.33,0,0,1-1.51-1.74,5.69,5.69,0,0,1,0-4.84,4.43,4.43,0,0,1,1.51-1.75,4.08,4.08,0,0,1,2.3-.65,4.16,4.16,0,0,1,1.55.27,3.94,3.94,0,0,1,1.1.64,1.64,1.64,0,0,1,.51.68V75.38H93V90.64H89.67V89.16A2.67,2.67,0,0,1,89,90a3.85,3.85,0,0,1-1.12.66A3.54,3.54,0,0,1,86.48,90.91Zm1-2.66A2.18,2.18,0,0,0,88.6,88a2.08,2.08,0,0,0,.76-.77,2.22,2.22,0,0,0,.28-1.12A2.18,2.18,0,0,0,89.36,85a2,2,0,0,0-.76-.78,2.08,2.08,0,0,0-1.09-.28,2,2,0,0,0-1.06.28,2.06,2.06,0,0,0-.74.78,2.28,2.28,0,0,0-.27,1.11,2.32,2.32,0,0,0,.27,1.12,2,2,0,0,0,1.8,1Z"/><path class="cls-3" d="M97.65,86.8a1.56,1.56,0,0,0,.31.87,1.76,1.76,0,0,0,.76.6,3,3,0,0,0,1.18.21,5.14,5.14,0,0,0,1.16-.13A4.37,4.37,0,0,0,102,88a2.59,2.59,0,0,0,.6-.42l1.31,2.08a3.17,3.17,0,0,1-.79.58,4.68,4.68,0,0,1-1.32.46,9.9,9.9,0,0,1-2.08.19A6.08,6.08,0,0,1,97,90.34a4.29,4.29,0,0,1-1.84-1.66,5.17,5.17,0,0,1-.67-2.7,4.94,4.94,0,0,1,.58-2.39,4.25,4.25,0,0,1,1.69-1.7,5.41,5.41,0,0,1,2.67-.62,5.77,5.77,0,0,1,2.58.54,3.79,3.79,0,0,1,1.68,1.61,5.55,5.55,0,0,1,.59,2.67v.35a1.37,1.37,0,0,1,0,.36ZM101.09,85a1.7,1.7,0,0,0-.18-.71,1.43,1.43,0,0,0-.54-.58,1.58,1.58,0,0,0-.91-.23,1.82,1.82,0,0,0-.94.22,1.67,1.67,0,0,0-.58.57,1.69,1.69,0,0,0-.23.73Z"/><path class="cls-3" d="M110.09,81.27a8.32,8.32,0,0,1,1.64.15,7.84,7.84,0,0,1,1.25.34,2.29,2.29,0,0,1,.65.31l-1.1,2a4.38,4.38,0,0,0-.78-.4,3.27,3.27,0,0,0-1.27-.24,2.16,2.16,0,0,0-.9.16.52.52,0,0,0-.37.5.62.62,0,0,0,.41.55,4.53,4.53,0,0,0,1.17.36,7.45,7.45,0,0,1,1.35.42,3.06,3.06,0,0,1,1.15.85,2.32,2.32,0,0,1,.46,1.49,2.83,2.83,0,0,1-.41,1.58,2.89,2.89,0,0,1-1.09,1,5.46,5.46,0,0,1-1.46.49,9.16,9.16,0,0,1-1.53.14,8.07,8.07,0,0,1-1.82-.19,5.48,5.48,0,0,1-1.24-.44,4.43,4.43,0,0,1-.67-.39l1.09-2.21a4.64,4.64,0,0,0,.94.55,3.31,3.31,0,0,0,1.39.3,2.32,2.32,0,0,0,1.09-.21.63.63,0,0,0,.39-.55.55.55,0,0,0-.19-.45,1.72,1.72,0,0,0-.53-.29,7.48,7.48,0,0,0-.83-.22,6.46,6.46,0,0,1-.94-.27,4,4,0,0,1-1-.52,2.64,2.64,0,0,1-.72-.83A2.47,2.47,0,0,1,106,84a2.07,2.07,0,0,1,.58-1.51,3.84,3.84,0,0,1,1.52-.91A6.48,6.48,0,0,1,110.09,81.27Z"/><path class="cls-3" d="M117.39,79.66A1.85,1.85,0,0,1,116,79.1a1.83,1.83,0,0,1-.55-1.34,1.91,1.91,0,0,1,.56-1.35,1.85,1.85,0,0,1,1.35-.57,1.78,1.78,0,0,1,1,.27,2,2,0,0,1,.7.69,1.78,1.78,0,0,1,.26,1,1.8,1.8,0,0,1-.56,1.34A1.87,1.87,0,0,1,117.39,79.66Zm-1.73,11V81.53H119v9.11Z"/><path class="cls-3" d="M128.42,90.64V89.16a2.84,2.84,0,0,1-.51.65,3.91,3.91,0,0,1-1.06.76,3.51,3.51,0,0,1-1.56.34,4.16,4.16,0,0,1-2.33-.66,4.43,4.43,0,0,1-1.55-1.74,5.6,5.6,0,0,1,0-4.84A4.53,4.53,0,0,1,123,81.92a4.23,4.23,0,0,1,2.33-.65,3.86,3.86,0,0,1,1.5.27,3.55,3.55,0,0,1,1,.64,2.8,2.8,0,0,1,.56.68V81.53h3.35v9.11Zm-2.28,4.87a11,11,0,0,1-1.9-.17,6.35,6.35,0,0,1-1.74-.57,3.94,3.94,0,0,1-1.37-1.09l2-2.05a5,5,0,0,0,.62.58,3.46,3.46,0,0,0,.92.48,4.08,4.08,0,0,0,1.34.19,3,3,0,0,0,1.28-.26,1.89,1.89,0,0,0,.84-.74,2.13,2.13,0,0,0,.31-1.19v-.22h3.32v.42a4.18,4.18,0,0,1-.75,2.54A4.58,4.58,0,0,1,129,95,7.51,7.51,0,0,1,126.14,95.51Zm-2-9.42a2.22,2.22,0,0,0,.29,1.12,2.18,2.18,0,0,0,.77.77,2.15,2.15,0,0,0,1.07.27,2.11,2.11,0,0,0,1.08-.27,2.08,2.08,0,0,0,.73-.77,2.32,2.32,0,0,0,.28-1.12A2.29,2.29,0,0,0,128.1,85a2,2,0,0,0-1.81-1.06,2.06,2.06,0,0,0-1.07.28,2.13,2.13,0,0,0-.77.78A2.19,2.19,0,0,0,124.16,86.09Z"/><path class="cls-3" d="M140.16,81.27a4.72,4.72,0,0,1,1.87.39,3.38,3.38,0,0,1,1.49,1.22,3.69,3.69,0,0,1,.59,2.2v5.56h-3.38v-5a2.08,2.08,0,0,0-.47-1.47,1.59,1.59,0,0,0-1.22-.5,1.81,1.81,0,0,0-.93.26,2,2,0,0,0-.71.74,2.11,2.11,0,0,0-.27,1.08v4.89h-3.38V81.53h3.38v1.35a1.67,1.67,0,0,1,.56-.74,3.35,3.35,0,0,1,1.07-.62A3.78,3.78,0,0,1,140.16,81.27Z"/><path class="cls-3" d="M148.76,86.8a1.56,1.56,0,0,0,.31.87,1.76,1.76,0,0,0,.76.6,3,3,0,0,0,1.18.21,5.08,5.08,0,0,0,1.16-.13,4.71,4.71,0,0,0,.9-.33,2.73,2.73,0,0,0,.59-.42L155,89.68a3,3,0,0,1-.79.58,4.68,4.68,0,0,1-1.32.46,9.79,9.79,0,0,1-2.07.19,6.15,6.15,0,0,1-2.7-.57,4.35,4.35,0,0,1-1.84-1.66,5.17,5.17,0,0,1-.66-2.7,4.94,4.94,0,0,1,.57-2.39,4.32,4.32,0,0,1,1.69-1.7,5.43,5.43,0,0,1,2.67-.62,5.77,5.77,0,0,1,2.58.54,3.79,3.79,0,0,1,1.68,1.61,5.55,5.55,0,0,1,.59,2.67v.35a2.45,2.45,0,0,1,0,.36ZM152.21,85a1.71,1.71,0,0,0-.19-.71,1.48,1.48,0,0,0-.53-.58,1.6,1.6,0,0,0-.91-.23,1.79,1.79,0,0,0-.94.22,1.51,1.51,0,0,0-.58.57,1.69,1.69,0,0,0-.23.73Z"/><path class="cls-3" d="M160.2,90.64h-3.37V81.53h3.37v1.41h0a2.29,2.29,0,0,1,.43-.65,3.17,3.17,0,0,1,1-.71,3.32,3.32,0,0,1,1.52-.31,3.36,3.36,0,0,1,1.16.19,4.12,4.12,0,0,1,.78.37l-1.31,2.74a1.9,1.9,0,0,0-.55-.39,2.06,2.06,0,0,0-1-.21,1.76,1.76,0,0,0-1.12.35,2.07,2.07,0,0,0-.64.83,2.34,2.34,0,0,0-.21.92Z"/><polygon class="cls-5" points="86.35 132.29 96.63 132.29 96.63 134.47 89.73 146.59 86.16 146.59 92.85 135.11 86.35 135.11 86.35 132.29"/><path class="cls-5" d="M100.26,142.56a3.38,3.38,0,0,0,.27.58,2.13,2.13,0,0,0,.44.51,2,2,0,0,0,.62.36,2.84,2.84,0,0,0,.87.13,2,2,0,0,0,1.56-.65,2.41,2.41,0,0,0,.55-1.67,2.24,2.24,0,0,0-.54-1.55,1.87,1.87,0,0,0-1.43-.56,2.25,2.25,0,0,0-1,.21,2.21,2.21,0,0,0-.68.47,1.88,1.88,0,0,0-.38.5l-2.67-1,1.26-7.62h8v2.81h-5.32l-.44,2.7a1,1,0,0,1,.34-.24,3.33,3.33,0,0,1,.76-.3,3.83,3.83,0,0,1,1.06-.14,4.69,4.69,0,0,1,2,.47,3.86,3.86,0,0,1,1.6,1.46,4.76,4.76,0,0,1,.63,2.58,5.42,5.42,0,0,1-.68,2.75,4.69,4.69,0,0,1-1.85,1.82,5.68,5.68,0,0,1-2.71.63,6.88,6.88,0,0,1-2-.27,5.31,5.31,0,0,1-1.49-.73,4.94,4.94,0,0,1-1-1,4.47,4.47,0,0,1-.58-1.06Z"/><path class="cls-5" d="M116.35,133.73A3.48,3.48,0,0,0,115,132.5a4,4,0,0,0-2-.46,4.08,4.08,0,0,0-2,.46,3.48,3.48,0,0,0-1.32,1.23,3.3,3.3,0,0,0,0,3.41,3.61,3.61,0,0,0,1.32,1.25,4.09,4.09,0,0,0,2,.47,4,4,0,0,0,2-.47,3.61,3.61,0,0,0,1.32-1.25,3.3,3.3,0,0,0,0-3.41Zm-2.2,2.85a1.45,1.45,0,0,1-1.09.44,1.48,1.48,0,0,1-1.11-.44,1.51,1.51,0,0,1-.43-1.13,1.58,1.58,0,0,1,.44-1.15,1.44,1.44,0,0,1,1.1-.45,1.42,1.42,0,0,1,1.09.45,1.61,1.61,0,0,1,.41,1.15A1.54,1.54,0,0,1,114.15,136.58Z"/><polygon class="cls-5" points="120.73 132.29 122.88 132.29 113.93 146.59 111.79 146.59 120.73 132.29"/><path class="cls-5" d="M124.88,141.72a3.51,3.51,0,0,0-1.33-1.23,4,4,0,0,0-2-.47,4.07,4.07,0,0,0-2,.47,3.51,3.51,0,0,0-1.33,1.23,3.2,3.2,0,0,0-.48,1.71,3.25,3.25,0,0,0,.47,1.7,3.53,3.53,0,0,0,1.32,1.25,4.09,4.09,0,0,0,2,.47,4,4,0,0,0,2-.47,3.48,3.48,0,0,0,1.33-1.25,3.25,3.25,0,0,0,.47-1.7A3.2,3.2,0,0,0,124.88,141.72Zm-2.21,2.85a1.44,1.44,0,0,1-1.08.44,1.51,1.51,0,0,1-1.12-.44,1.57,1.57,0,0,1-.42-1.14,1.61,1.61,0,0,1,.43-1.14,1.46,1.46,0,0,1,1.11-.45,1.41,1.41,0,0,1,1.08.45,1.64,1.64,0,0,1,.41,1.14A1.61,1.61,0,0,1,122.67,144.57Z"/></g></g></svg>