<svg xmlns="http://www.w3.org/2000/svg" xmlns:xlink="http://www.w3.org/1999/xlink" viewBox="0 0 322.55 322.54"><defs><style>.cls-1{fill:none;}.cls-2{fill:#ecd1d1;}.cls-3{fill:url(#Sfumatura_senza_nome_51);}.cls-4{fill:#d90e19;}.cls-5{clip-path:url(#clip-path);}.cls-6{fill:#1d1d1b;}.cls-7{fill:#3e1215;}.cls-8{fill:#4d1010;}.cls-9{fill:#511114;}.cls-10{fill:#581412;}.cls-11{fill:#020303;}.cls-12{fill:#1d0909;}.cls-13{fill:#220b0d;}.cls-14{fill:#240c0e;}.cls-15{fill:#2a0f11;}.cls-16{fill:#3a1113;}.cls-17{fill:#5d1410;}.cls-18{fill:#631310;}</style><linearGradient id="Sfumatura_senza_nome_51" x1="213.62" y1="75.76" x2="103.26" y2="167.07" gradientUnits="userSpaceOnUse"><stop offset="0" stop-color="#631310"/><stop offset="0.1" stop-color="#581412"/><stop offset="0.17" stop-color="#3e1215"/><stop offset="0.3" stop-color="#3a1113"/><stop offset="0.43" stop-color="#2a0f11"/><stop offset="0.58" stop-color="#240c0e"/><stop offset="0.75" stop-color="#15090c"/><stop offset="0.88" stop-color="#0b0708"/><stop offset="1" stop-color="#0b0708"/></linearGradient><clipPath id="clip-path"><path class="cls-1" d="M322.55,242.9v17.54a62.11,62.11,0,0,1-62.1,62.1H62.11A62.1,62.1,0,0,1,0,260.44V242.9Z"/></clipPath></defs><g id="Livello_2" data-name="Livello 2"><g id="Livello_1-2" data-name="Livello 1"><path class="cls-2" d="M322.55,62.1V242.9H0V62.1A62.1,62.1,0,0,1,62.11,0H260.45A62.1,62.1,0,0,1,322.55,62.1Z"/><path class="cls-3" d="M179,73.2c-11.52-3.41-26.75-.55-31.84,1.86A40.64,40.64,0,0,0,134,85a44.69,44.69,0,0,0-8.55,14.6,53.3,53.3,0,0,0,0,35.26A45.58,45.58,0,0,0,134,149.44a39.05,39.05,0,0,0,30,13.47,49,49,0,0,0,14.6-2A34.22,34.22,0,0,0,189.94,155a28.66,28.66,0,0,0,7.59-9.11,30.61,30.61,0,0,0,3.34-11.6h-38V108.46H239V118a82.72,82.72,0,0,1-5.38,30,74.08,74.08,0,0,1-15.34,24.45,70.34,70.34,0,0,1-23.77,16.42A77.28,77.28,0,0,1,164,194.72a80.16,80.16,0,0,1-31.42-5.94,71.76,71.76,0,0,1-24.28-16.59,73.7,73.7,0,0,1-15.62-24.73,83.54,83.54,0,0,1-5.44-30.29A83.24,83.24,0,0,1,92.64,87a73.19,73.19,0,0,1,15.62-24.68A72.3,72.3,0,0,1,132.54,45.8,80,80,0,0,1,164,39.85c9.43,0,19.72,2.69,26.92,4.72Z"/><path class="cls-4" d="M227,83.32A19.43,19.43,0,0,1,207.54,64a19,19,0,0,1,5.72-13.76A19.14,19.14,0,0,1,236.75,47a21,21,0,0,1,7.13,7.08,19.08,19.08,0,0,1-3,23.49A19,19,0,0,1,227,83.32Z"/><g class="cls-5"><rect class="cls-6" x="59.77" y="241.38" width="82.67" height="82.67" transform="translate(202.22 565.44) rotate(-180)"/><rect class="cls-6" x="59.77" y="241.38" width="82.67" height="82.67" transform="translate(202.22 565.44) rotate(-180)"/><rect class="cls-7" x="45.5" y="241.38" width="82.67" height="82.67" transform="translate(173.67 565.44) rotate(-180)"/><rect class="cls-8" x="35.5" y="241.38" width="82.67" height="82.67" transform="translate(153.67 565.44) rotate(-180)"/><rect class="cls-9" x="25.5" y="241.38" width="82.67" height="82.67" transform="translate(133.68 565.44) rotate(-180)"/><rect class="cls-10" x="15.03" y="241.38" width="82.67" height="82.67" transform="translate(112.73 565.44) rotate(-180)"/><rect class="cls-11" x="156.91" y="241.38" width="82.67" height="82.67"/><rect class="cls-12" x="190.66" y="241.38" width="82.67" height="82.67"/><rect class="cls-13" x="205.89" y="241.38" width="82.67" height="82.67"/><rect class="cls-14" x="218.74" y="241.38" width="82.67" height="82.67"/><rect class="cls-15" x="232" y="241.38" width="82.67" height="82.67"/><rect class="cls-16" x="244.85" y="241.38" width="82.67" height="82.67"/><rect class="cls-17" x="4.16" y="241.38" width="82.67" height="82.67" transform="translate(91 565.44) rotate(-180)"/><rect class="cls-18" x="-5.84" y="241.38" width="82.67" height="82.67" transform="translate(71 565.44) rotate(-180)"/><rect class="cls-4" x="-15.84" y="241.38" width="82.67" height="82.67" transform="translate(51 565.44) rotate(-180)"/></g></g></g></svg>