<svg xmlns="http://www.w3.org/2000/svg" viewBox="0 0 201.54 160.25"><defs><style>.cls-1{fill:#eb9d9d;}.cls-2{fill:#d1d1d1;}.cls-3{fill:#020303;}.cls-4{fill:#1d1d1b;}.cls-5{fill:#d90e19;}</style></defs><g id="Livello_2" data-name="Livello 2"><g id="Livello_1-2" data-name="Livello 1"><rect class="cls-1" width="201.54" height="159.9" rx="22.58"/><path class="cls-2" d="M201.54,119.09v19.84c0,11.77-10.71,21.32-23.91,21.32H23.92C10.71,160.25,0,150.7,0,138.93V119.09Z"/><polygon class="cls-3" points="86.35 132.29 96.63 132.29 96.63 134.47 89.73 146.59 86.16 146.59 92.85 135.11 86.35 135.11 86.35 132.29"/><path class="cls-3" d="M100.26,142.56a3.38,3.38,0,0,0,.27.58,2.13,2.13,0,0,0,.44.51,2,2,0,0,0,.62.36,2.84,2.84,0,0,0,.87.13,2,2,0,0,0,1.56-.65,2.41,2.41,0,0,0,.55-1.67,2.24,2.24,0,0,0-.54-1.55,1.87,1.87,0,0,0-1.43-.56,2.25,2.25,0,0,0-1,.21,2.21,2.21,0,0,0-.68.47,1.88,1.88,0,0,0-.38.5l-2.67-1,1.26-7.62h8v2.81h-5.32l-.44,2.7a1,1,0,0,1,.34-.24,3.33,3.33,0,0,1,.76-.3,3.83,3.83,0,0,1,1.06-.14,4.69,4.69,0,0,1,2,.47,3.86,3.86,0,0,1,1.6,1.46,4.76,4.76,0,0,1,.63,2.58,5.42,5.42,0,0,1-.68,2.75,4.69,4.69,0,0,1-1.85,1.82,5.68,5.68,0,0,1-2.71.63,6.88,6.88,0,0,1-2-.27,5.31,5.31,0,0,1-1.49-.73,4.94,4.94,0,0,1-1-1,4.47,4.47,0,0,1-.58-1.06Z"/><path class="cls-3" d="M116.35,133.73A3.48,3.48,0,0,0,115,132.5a4,4,0,0,0-2-.46,4.08,4.08,0,0,0-2,.46,3.44,3.44,0,0,0-1.33,1.23,3.29,3.29,0,0,0-.47,1.72,3.21,3.21,0,0,0,.47,1.69,3.46,3.46,0,0,0,1.32,1.25,4.09,4.09,0,0,0,2,.47,4,4,0,0,0,2-.47,3.5,3.5,0,0,0,1.31-1.25,3.12,3.12,0,0,0,.47-1.69A3.29,3.29,0,0,0,116.35,133.73Zm-2.21,2.85a1.42,1.42,0,0,1-1.08.44,1.48,1.48,0,0,1-1.11-.44,1.5,1.5,0,0,1-.43-1.13,1.57,1.57,0,0,1,.43-1.14,1.48,1.48,0,0,1,1.11-.45,1.4,1.4,0,0,1,1.08.45,1.61,1.61,0,0,1,.42,1.14A1.53,1.53,0,0,1,114.14,136.58Z"/><polygon class="cls-3" points="120.73 132.29 122.88 132.29 113.93 146.59 111.79 146.59 120.73 132.29"/><path class="cls-3" d="M124.88,141.73a3.46,3.46,0,0,0-1.33-1.24,4.43,4.43,0,0,0-3.93,0,3.49,3.49,0,0,0-1.34,1.24,3.23,3.23,0,0,0-.47,1.71,3.18,3.18,0,0,0,.47,1.7,3.36,3.36,0,0,0,1.32,1.24,4.09,4.09,0,0,0,2,.47,4,4,0,0,0,2-.47,3.36,3.36,0,0,0,1.32-1.24,3.18,3.18,0,0,0,.47-1.7A3.23,3.23,0,0,0,124.88,141.73Zm-2.22,2.84a1.42,1.42,0,0,1-1.07.44,1.48,1.48,0,0,1-1.12-.44,1.55,1.55,0,0,1-.42-1.13,1.59,1.59,0,0,1,.43-1.15,1.48,1.48,0,0,1,1.11-.44,1.42,1.42,0,0,1,1.07.44,1.63,1.63,0,0,1,.42,1.15A1.55,1.55,0,0,1,122.66,144.57Z"/><path class="cls-4" d="M107.83,93.1h2.55v.32a2.79,2.79,0,0,1-.18,1,2.57,2.57,0,0,1-.51.82,2.24,2.24,0,0,1-.8.55,2.61,2.61,0,0,1-1,.2,2.78,2.78,0,0,1-1.06-.2,2.4,2.4,0,0,1-.81-.56,2.56,2.56,0,0,1-.53-.83,2.92,2.92,0,0,1,0-2,2.46,2.46,0,0,1,.53-.83,2.55,2.55,0,0,1,.81-.56,2.78,2.78,0,0,1,1.06-.2,3,3,0,0,1,.83.11,2.14,2.14,0,0,1,.63.27,2.33,2.33,0,0,1,.44.37,4.85,4.85,0,0,1,.31.4l-1.08.51a1.57,1.57,0,0,0-.43-.42,1.21,1.21,0,0,0-.7-.18,1.32,1.32,0,0,0-.57.12,1.48,1.48,0,0,0-.44.34,1.59,1.59,0,0,0-.29.49,1.87,1.87,0,0,0-.1.59,1.92,1.92,0,0,0,.1.59,1.72,1.72,0,0,0,.29.49,1.31,1.31,0,0,0,.44.33,1.32,1.32,0,0,0,.57.12,1.53,1.53,0,0,0,.49-.07,1.23,1.23,0,0,0,.38-.19.93.93,0,0,0,.25-.31,1,1,0,0,0,.11-.39h-1.27Z"/><path class="cls-4" d="M112.09,95.91h-1.15V92.79h1.15v.48h0a.71.71,0,0,1,.15-.22,1.08,1.08,0,0,1,.33-.24,1.05,1.05,0,0,1,.52-.11,1.25,1.25,0,0,1,.4.06,1.72,1.72,0,0,1,.27.13l-.45.94a.62.62,0,0,0-.19-.13.69.69,0,0,0-.34-.07.59.59,0,0,0-.38.11.77.77,0,0,0-.22.29.92.92,0,0,0-.07.31Z"/><path class="cls-4" d="M116.47,95.91V95.4a.9.9,0,0,1-.18.22,1.11,1.11,0,0,1-.36.26,1.16,1.16,0,0,1-.54.12,1.49,1.49,0,0,1-.79-.22,1.47,1.47,0,0,1-.53-.6,1.91,1.91,0,0,1,0-1.66,1.47,1.47,0,0,1,.53-.6,1.4,1.4,0,0,1,.79-.22,1.38,1.38,0,0,1,.52.09,1.31,1.31,0,0,1,.35.22.64.64,0,0,1,.19.24v-.46h1.15v3.12ZM115,94.35a.7.7,0,0,0,.1.38.68.68,0,0,0,.63.36.69.69,0,0,0,.36-.09.75.75,0,0,0,.26-.27.85.85,0,0,0,0-.76.75.75,0,0,0-.26-.27.69.69,0,0,0-.36-.09.68.68,0,0,0-.63.36A.7.7,0,0,0,115,94.35Z"/><path class="cls-4" d="M119.47,97.49h-1.14v-4.7h1.15v.46a.82.82,0,0,1,.2-.24,1.43,1.43,0,0,1,.92-.31,1.35,1.35,0,0,1,.78.22,1.55,1.55,0,0,1,.5.6,2.05,2.05,0,0,1,.17.83,1.78,1.78,0,0,1-.19.83,1.44,1.44,0,0,1-.52.6,1.46,1.46,0,0,1-.79.22,1.22,1.22,0,0,1-.56-.12,1.11,1.11,0,0,1-.36-.26.78.78,0,0,1-.16-.22Zm1.45-3.14a.79.79,0,0,0-.09-.38.84.84,0,0,0-.26-.27.74.74,0,0,0-.36-.09.68.68,0,0,0-.63.36.77.77,0,0,0,0,.76.74.74,0,0,0,1,.27.84.84,0,0,0,.26-.27A.79.79,0,0,0,120.92,94.35Z"/><path class="cls-4" d="M124.8,92.7a1.59,1.59,0,0,1,.64.13,1.16,1.16,0,0,1,.51.42,1.23,1.23,0,0,1,.21.75v1.91H125V94.19a.73.73,0,0,0-.15-.5.52.52,0,0,0-.41-.17.62.62,0,0,0-.32.09.69.69,0,0,0-.26.25.75.75,0,0,0-.09.37v1.68h-1.16V90.68h1.16v2.57A.59.59,0,0,1,124,93a1.16,1.16,0,0,1,.36-.22A1.51,1.51,0,0,1,124.8,92.7Z"/><path class="cls-4" d="M127.47,92.15A.64.64,0,0,1,127,92a.65.65,0,0,1,0-.92.61.61,0,0,1,.46-.2.63.63,0,0,1,.33.09.76.76,0,0,1,.23.24.56.56,0,0,1,.1.33.63.63,0,0,1-.2.46A.66.66,0,0,1,127.47,92.15Zm-.59,3.76V92.79H128v3.12Z"/><path class="cls-4" d="M130.52,95.09a.73.73,0,0,0,.35-.07.78.78,0,0,0,.19-.12l.53.78-.21.13a2,2,0,0,1-.37.13,1.9,1.9,0,0,1-.5.06,2.08,2.08,0,0,1-.95-.21,1.45,1.45,0,0,1-.63-.57,1.85,1.85,0,0,1,0-1.75,1.58,1.58,0,0,1,.63-.57,2.21,2.21,0,0,1,.95-.2,2.05,2.05,0,0,1,.87.19,1,1,0,0,1,.22.13l-.54.79-.1-.08-.18-.09a1,1,0,0,0-.26,0,.7.7,0,0,0-.35.09.72.72,0,0,0-.26.26.71.71,0,0,0-.1.39.7.7,0,0,0,.1.38.84.84,0,0,0,.26.27A.7.7,0,0,0,130.52,95.09Z"/><path class="cls-4" d="M135.41,96a1.43,1.43,0,0,1-.78-.22,1.44,1.44,0,0,1-.52-.6,1.91,1.91,0,0,1,0-1.66,1.44,1.44,0,0,1,.52-.6,1.35,1.35,0,0,1,.78-.22,1.44,1.44,0,0,1,.53.09,1.36,1.36,0,0,1,.38.22.49.49,0,0,1,.17.24V90.68h1.16v5.23H136.5V95.4a.73.73,0,0,1-.23.28,1.6,1.6,0,0,1-.38.23A1.28,1.28,0,0,1,135.41,96Zm.35-.91a.79.79,0,0,0,.38-.09.75.75,0,0,0,.26-.27.85.85,0,0,0,0-.76.75.75,0,0,0-.26-.27.79.79,0,0,0-.38-.09.74.74,0,0,0-.36.09.72.72,0,0,0-.25.27.77.77,0,0,0,0,.76.72.72,0,0,0,.25.27A.74.74,0,0,0,135.76,95.09Z"/><path class="cls-4" d="M139.23,94.59a.64.64,0,0,0,.11.3.52.52,0,0,0,.26.2,1,1,0,0,0,.41.08,1.6,1.6,0,0,0,.39,0,1.25,1.25,0,0,0,.31-.11,1.33,1.33,0,0,0,.2-.14l.45.71a1,1,0,0,1-.27.2,2.08,2.08,0,0,1-.45.16,3.48,3.48,0,0,1-.71.06,2.08,2.08,0,0,1-.92-.2,1.34,1.34,0,0,1-.63-.57,1.65,1.65,0,0,1-.23-.92,1.61,1.61,0,0,1,.2-.82,1.51,1.51,0,0,1,.57-.58,1.89,1.89,0,0,1,.92-.21,2,2,0,0,1,.88.18,1.36,1.36,0,0,1,.58.56,1.91,1.91,0,0,1,.2.91v.12a.35.35,0,0,1,0,.12Zm1.19-.6a.73.73,0,0,0-.07-.24.49.49,0,0,0-.18-.2.59.59,0,0,0-.31-.08.67.67,0,0,0-.33.07.6.6,0,0,0-.19.2.57.57,0,0,0-.08.25Z"/><path class="cls-4" d="M143.49,92.7a3.27,3.27,0,0,1,.57,0,1.77,1.77,0,0,1,.42.12.88.88,0,0,1,.23.1l-.38.68-.27-.14a1.18,1.18,0,0,0-.43-.08.71.71,0,0,0-.31.06.18.18,0,0,0-.13.17.22.22,0,0,0,.14.19,2.85,2.85,0,0,0,.4.12,2.79,2.79,0,0,1,.47.14,1.14,1.14,0,0,1,.39.3.73.73,0,0,1,.16.51,1,1,0,0,1-.14.54,1.06,1.06,0,0,1-.37.33,2.16,2.16,0,0,1-.51.16,3.15,3.15,0,0,1-.52,0,2.25,2.25,0,0,1-.62-.07,2.17,2.17,0,0,1-.43-.14l-.23-.14.38-.76a1.21,1.21,0,0,0,.32.19,1.12,1.12,0,0,0,.47.11.77.77,0,0,0,.38-.08.2.2,0,0,0,.13-.19.2.2,0,0,0-.06-.15.77.77,0,0,0-.18-.1l-.29-.07a1.46,1.46,0,0,1-.32-.1,1.23,1.23,0,0,1-.32-.17.78.78,0,0,1-.25-.29.86.86,0,0,1-.1-.41.73.73,0,0,1,.2-.52,1.41,1.41,0,0,1,.52-.31A2.2,2.2,0,0,1,143.49,92.7Z"/><path class="cls-4" d="M146,92.15a.66.66,0,0,1-.46-.19.65.65,0,0,1,0-.92.64.64,0,0,1,.79-.11.69.69,0,0,1,.24.24.63.63,0,0,1,.09.33.62.62,0,0,1-.19.46A.68.68,0,0,1,146,92.15Zm-.59,3.76V92.79h1.15v3.12Z"/><path class="cls-4" d="M149.77,95.91V95.4a.81.81,0,0,1-.17.22,1.16,1.16,0,0,1-.37.26,1.12,1.12,0,0,1-.53.12,1.52,1.52,0,0,1-.8-.22,1.54,1.54,0,0,1-.53-.6,1.91,1.91,0,0,1,0-1.66,1.54,1.54,0,0,1,.53-.6,1.44,1.44,0,0,1,.8-.22,1.33,1.33,0,0,1,.51.09,1.23,1.23,0,0,1,.36.22.94.94,0,0,1,.19.24v-.46h1.15v3.12ZM149,97.57a4.62,4.62,0,0,1-.65,0,2.49,2.49,0,0,1-.6-.2,1.28,1.28,0,0,1-.46-.37l.67-.71a1.49,1.49,0,0,0,.22.21,1.13,1.13,0,0,0,.31.16,1.56,1.56,0,0,0,.46.06,1.19,1.19,0,0,0,.44-.08.73.73,0,0,0,.29-.26.72.72,0,0,0,.1-.4v-.08h1.14V96a1.43,1.43,0,0,1-.26.87,1.46,1.46,0,0,1-.69.53A2.5,2.5,0,0,1,149,97.57Zm-.68-3.22a.8.8,0,0,0,.1.38.87.87,0,0,0,.27.27.74.74,0,0,0,.36.09.75.75,0,0,0,.37-.09.72.72,0,0,0,.25-.27.77.77,0,0,0,0-.76.72.72,0,0,0-.25-.27.75.75,0,0,0-.37-.09.74.74,0,0,0-.36.09.87.87,0,0,0-.27.27A.8.8,0,0,0,148.31,94.35Z"/><path class="cls-4" d="M153.79,92.7a1.59,1.59,0,0,1,.64.13,1.16,1.16,0,0,1,.51.42,1.23,1.23,0,0,1,.2.75v1.91H154V94.19a.73.73,0,0,0-.16-.5.57.57,0,0,0-.42-.17.59.59,0,0,0-.32.09.68.68,0,0,0-.34.62v1.68H151.6V92.79h1.15v.46a.69.69,0,0,1,.19-.25,1.21,1.21,0,0,1,.37-.22A1.51,1.51,0,0,1,153.79,92.7Z"/><path class="cls-4" d="M156.73,94.59a.64.64,0,0,0,.11.3.52.52,0,0,0,.26.2,1,1,0,0,0,.4.08,1.62,1.62,0,0,0,.4,0,1.25,1.25,0,0,0,.31-.11,1.33,1.33,0,0,0,.2-.14l.45.71a1.58,1.58,0,0,1-.27.2,2.08,2.08,0,0,1-.45.16,3.55,3.55,0,0,1-.71.06,2,2,0,0,1-.92-.2,1.34,1.34,0,0,1-.63-.57,1.65,1.65,0,0,1-.23-.92,1.61,1.61,0,0,1,.2-.82,1.51,1.51,0,0,1,.57-.58,1.89,1.89,0,0,1,.92-.21,2,2,0,0,1,.88.18,1.36,1.36,0,0,1,.58.56,1.91,1.91,0,0,1,.2.91v.12c0,.06,0,.1,0,.12Zm1.18-.6a.53.53,0,0,0-.06-.24.49.49,0,0,0-.18-.2.59.59,0,0,0-.31-.08.67.67,0,0,0-.33.07.6.6,0,0,0-.19.2.46.46,0,0,0-.08.25Z"/><path class="cls-4" d="M160.65,95.91H159.5V92.79h1.15v.48h0a.71.71,0,0,1,.15-.22,1.08,1.08,0,0,1,.33-.24,1.05,1.05,0,0,1,.52-.11,1.25,1.25,0,0,1,.4.06,1.72,1.72,0,0,1,.27.13l-.45.94a.62.62,0,0,0-.19-.13.69.69,0,0,0-.34-.07.59.59,0,0,0-.38.11.77.77,0,0,0-.22.29.92.92,0,0,0-.07.31Z"/><path class="cls-4" d="M63.55,69H52.9a8.52,8.52,0,0,0,.94,3.25A8.08,8.08,0,0,0,56,74.82a9.6,9.6,0,0,0,3.18,1.65,13.8,13.8,0,0,0,4.09.57,10.93,10.93,0,0,0,8.39-3.77A12.68,12.68,0,0,0,74,69.18a14.89,14.89,0,0,0,0-9.86,12.37,12.37,0,0,0-2.4-4.09,11.21,11.21,0,0,0-3.69-2.77,10.75,10.75,0,0,0-4.7-1,10.52,10.52,0,0,0-5.91,1.49,12.36,12.36,0,0,0-3.53,3.49l-9-4.25a24.75,24.75,0,0,1,2.53-3.31A18.38,18.38,0,0,1,51,45.74a18.76,18.76,0,0,1,5.21-2.28,25.7,25.7,0,0,1,7-.85A22.39,22.39,0,0,1,72,44.27a20.39,20.39,0,0,1,6.8,4.62,20.62,20.62,0,0,1,4.37,6.91,24.28,24.28,0,0,1,0,16.91,20.67,20.67,0,0,1-4.37,6.92A20.18,20.18,0,0,1,72,84.28a22.57,22.57,0,0,1-8.79,1.66,21.58,21.58,0,0,1-8.55-1.65A19.7,19.7,0,0,1,48,79.7a20.74,20.74,0,0,1-4.29-6.84,23,23,0,0,1-1.51-8.4V61.8H63.55Z"/><path class="cls-4" d="M95.41,53.82A5.45,5.45,0,0,1,90,48.4a5.35,5.35,0,0,1,1.6-3.85,5.35,5.35,0,0,1,6.58-.88,5.8,5.8,0,0,1,2,2,5.11,5.11,0,0,1,.76,2.75,5.22,5.22,0,0,1-1.61,3.82A5.3,5.3,0,0,1,95.41,53.82ZM90.47,85.18v-26h9.63v26Z"/><rect class="cls-4" x="153.63" y="59.17" width="9.63" height="26.01"/><path class="cls-4" d="M131.51,51.94a15.26,15.26,0,0,0-8.91.52,11.21,11.21,0,0,0-3.69,2.77,12.35,12.35,0,0,0-2.39,4.09,14.89,14.89,0,0,0,0,9.86,12.66,12.66,0,0,0,2.39,4.09A10.93,10.93,0,0,0,127.3,77a13.8,13.8,0,0,0,4.09-.57,9.6,9.6,0,0,0,3.18-1.65,8,8,0,0,0,2.12-2.55,8.52,8.52,0,0,0,.94-3.25H127V61.8H148.3v2.66a23.2,23.2,0,0,1-1.5,8.4,21.07,21.07,0,0,1-4.29,6.84,19.74,19.74,0,0,1-6.66,4.59,21.51,21.51,0,0,1-8.55,1.65,22.57,22.57,0,0,1-8.79-1.66,20,20,0,0,1-6.79-4.65,20.51,20.51,0,0,1-4.37-6.92,24.28,24.28,0,0,1,0-16.91,20.47,20.47,0,0,1,4.37-6.91,20.25,20.25,0,0,1,6.79-4.62,22.39,22.39,0,0,1,8.79-1.66,29.27,29.27,0,0,1,7.54,1.32Z"/><path class="cls-5" d="M144.94,54.77a5.42,5.42,0,0,1-3.84-9.27,5.34,5.34,0,0,1,6.57-.88,5.72,5.72,0,0,1,2,2,5.11,5.11,0,0,1,.76,2.75,5.18,5.18,0,0,1-1.61,3.82A5.34,5.34,0,0,1,144.94,54.77Z"/></g></g></svg>