<svg xmlns="http://www.w3.org/2000/svg" viewBox="0 0 160.2 201.54"><defs><style>.cls-1{fill:#e39595;}.cls-2{fill:#c9c9c9;}.cls-3{fill:#020303;}.cls-4{fill:#1d1d1b;}.cls-5{fill:#d10e19;}</style></defs><g id="Livello_2" data-name="Livello 2"><g id="Livello_1-2" data-name="Livello 1"><rect class="cls-1" x="-20.65" y="20.69" width="201.54" height="160.16" rx="22.58" transform="translate(180.89 20.65) rotate(90)"/><path class="cls-2" d="M160.2,160.19V180c0,11.77-8.51,21.31-19,21.31H19c-10.5,0-19-9.54-19-21.31V160.19Z"/><path class="cls-3" d="M67.77,183.88a2.66,2.66,0,0,0,.28.59,2.29,2.29,0,0,0,.43.51,1.75,1.75,0,0,0,.63.35,2.47,2.47,0,0,0,.86.13,2,2,0,0,0,1.57-.64,2.42,2.42,0,0,0,.54-1.67,2.17,2.17,0,0,0-.53-1.55,1.85,1.85,0,0,0-1.44-.56,2.35,2.35,0,0,0-1,.2,2.47,2.47,0,0,0-.69.48,1.68,1.68,0,0,0-.37.5l-2.68-1,1.27-7.62h8v2.82H69.36l-.45,2.69a1.42,1.42,0,0,1,.34-.24,3.57,3.57,0,0,1,.76-.29,3.51,3.51,0,0,1,1.07-.14,4.68,4.68,0,0,1,2,.47,3.73,3.73,0,0,1,1.6,1.46,4.73,4.73,0,0,1,.63,2.57,5.33,5.33,0,0,1-.68,2.76,4.67,4.67,0,0,1-1.85,1.81,5.57,5.57,0,0,1-2.71.64,6.55,6.55,0,0,1-2-.28,4.93,4.93,0,0,1-1.49-.73,4.48,4.48,0,0,1-1-1,4.8,4.8,0,0,1-.58-1Z"/><path class="cls-3" d="M87.84,177.53a6.56,6.56,0,0,0-1.28-2.32,5.34,5.34,0,0,0-1.85-1.39,5.35,5.35,0,0,0-6.25,1.39,6.9,6.9,0,0,0-1.29,2.32,10.22,10.22,0,0,0-.47,3.25,10.88,10.88,0,0,0,.47,3.39,6.47,6.47,0,0,0,1.29,2.29,5.17,5.17,0,0,0,1.86,1.29,5.95,5.95,0,0,0,4.39,0,5,5,0,0,0,1.85-1.29,6.17,6.17,0,0,0,1.28-2.29,10.88,10.88,0,0,0,.47-3.39A10.22,10.22,0,0,0,87.84,177.53Zm-3.09,5.8a3.12,3.12,0,0,1-.88,1.5,2,2,0,0,1-1.35.49,2,2,0,0,1-1.37-.49,3.21,3.21,0,0,1-.89-1.5,9,9,0,0,1-.31-2.55,8.8,8.8,0,0,1,.31-2.47,3.55,3.55,0,0,1,.89-1.56,1.93,1.93,0,0,1,1.37-.54,1.88,1.88,0,0,1,1.35.54,3.44,3.44,0,0,1,.88,1.56,8.44,8.44,0,0,1,.31,2.47A8.79,8.79,0,0,1,84.75,183.33Z"/><path class="cls-3" d="M96.7,175.06a3.5,3.5,0,0,0-1.32-1.24,4.14,4.14,0,0,0-2-.46,4.19,4.19,0,0,0-2,.46,3.36,3.36,0,0,0-1.32,1.24,3.15,3.15,0,0,0-.48,1.71,3.25,3.25,0,0,0,.47,1.7,3.44,3.44,0,0,0,1.32,1.24,4,4,0,0,0,2,.47,3.93,3.93,0,0,0,2-.47,3.48,3.48,0,0,0,1.31-1.24,3.16,3.16,0,0,0,.47-1.7A3.23,3.23,0,0,0,96.7,175.06Zm-2.21,2.85a1.42,1.42,0,0,1-1.08.43,1.47,1.47,0,0,1-1.11-.43,1.54,1.54,0,0,1-.43-1.14,1.57,1.57,0,0,1,.43-1.14,1.48,1.48,0,0,1,1.11-.45,1.4,1.4,0,0,1,1.08.45,1.61,1.61,0,0,1,.42,1.14A1.57,1.57,0,0,1,94.49,177.91Z"/><polygon class="cls-3" points="101.08 173.62 103.23 173.62 94.28 187.91 92.14 187.91 101.08 173.62"/><path class="cls-3" d="M105.23,183.05a3.51,3.51,0,0,0-1.33-1.23,4.34,4.34,0,0,0-3.93,0,3.54,3.54,0,0,0-1.34,1.23,3.23,3.23,0,0,0-.47,1.71,3.18,3.18,0,0,0,.47,1.7,3.39,3.39,0,0,0,1.32,1.25,4.09,4.09,0,0,0,2,.46,4,4,0,0,0,2-.46,3.39,3.39,0,0,0,1.32-1.25,3.18,3.18,0,0,0,.47-1.7A3.23,3.23,0,0,0,105.23,183.05ZM103,185.9a1.39,1.39,0,0,1-1.07.43,1.48,1.48,0,0,1-1.12-.43,1.74,1.74,0,0,1,0-2.28,1.45,1.45,0,0,1,1.11-.45,1.37,1.37,0,0,1,1.07.45,1.61,1.61,0,0,1,.42,1.14A1.57,1.57,0,0,1,103,185.9Z"/><path class="cls-4" d="M52.92,90.8a9.08,9.08,0,0,0-5.23.3,6.77,6.77,0,0,0-2.16,1.63,7.14,7.14,0,0,0-1.4,2.39,8.63,8.63,0,0,0,0,5.79,7.39,7.39,0,0,0,1.4,2.4,6.6,6.6,0,0,0,2.16,1.62,6.48,6.48,0,0,0,2.76.59,8.18,8.18,0,0,0,2.4-.34,5.56,5.56,0,0,0,1.86-1,4.84,4.84,0,0,0,1.25-1.5,5.23,5.23,0,0,0,.55-1.9H50.27V96.58H62.76v1.56a13.48,13.48,0,0,1-.88,4.92,12.36,12.36,0,0,1-2.51,4,11.63,11.63,0,0,1-3.9,2.69,12.8,12.8,0,0,1-5,1,13.13,13.13,0,0,1-5.15-1,11.94,11.94,0,0,1-4-2.72A12.17,12.17,0,0,1,38.75,103a14.27,14.27,0,0,1,0-9.92A11.79,11.79,0,0,1,45.3,86.3a13.13,13.13,0,0,1,5.15-1,17.29,17.29,0,0,1,4.42.77Z"/><path class="cls-5" d="M60.8,92.46A3.18,3.18,0,0,1,58.54,87a3,3,0,0,1,2.26-1,2.93,2.93,0,0,1,1.59.44,3.25,3.25,0,0,1,1.17,1.16A3,3,0,0,1,64,89.28a3.06,3.06,0,0,1-1,2.24A3.13,3.13,0,0,1,60.8,92.46Z"/><path class="cls-4" d="M73.9,90.13H79v.63a5.47,5.47,0,0,1-.36,2,5,5,0,0,1-1,1.63A4.78,4.78,0,0,1,76,95.49a5.6,5.6,0,0,1-4.13,0,4.7,4.7,0,0,1-1.62-1.1,5.07,5.07,0,0,1-1-1.65,5.82,5.82,0,0,1,0-4,4.93,4.93,0,0,1,1-1.64A4.7,4.7,0,0,1,71.89,86a5.19,5.19,0,0,1,2.09-.4,6.34,6.34,0,0,1,1.66.2,4.43,4.43,0,0,1,1.24.55,4.12,4.12,0,0,1,.89.74,5.69,5.69,0,0,1,.6.79l-2.14,1a2.89,2.89,0,0,0-.84-.83A2.5,2.5,0,0,0,74,87.66a2.59,2.59,0,0,0-1.12.24,2.9,2.9,0,0,0-.88.67,3.11,3.11,0,0,0-.57,1,3.55,3.55,0,0,0,0,2.35,3.22,3.22,0,0,0,.57,1,2.72,2.72,0,0,0,.88.66,2.59,2.59,0,0,0,1.12.24,3.24,3.24,0,0,0,1-.14,2.28,2.28,0,0,0,.76-.39,2,2,0,0,0,.51-.61,2.15,2.15,0,0,0,.22-.77H73.9Z"/><path class="cls-4" d="M82.38,95.7h-2.3V89.5h2.3v1h0a1.7,1.7,0,0,1,.29-.44,2.25,2.25,0,0,1,1.69-.7,2.47,2.47,0,0,1,.79.13,2.36,2.36,0,0,1,.53.26l-.89,1.86a1.21,1.21,0,0,0-.37-.27,1.48,1.48,0,0,0-.67-.14,1.17,1.17,0,0,0-.76.24,1.3,1.3,0,0,0-.43.56,1.54,1.54,0,0,0-.14.63Z"/><path class="cls-4" d="M91.06,95.7v-1a1.78,1.78,0,0,1-.34.44,2.69,2.69,0,0,1-.73.52,2.32,2.32,0,0,1-1,.23,2.9,2.9,0,0,1-1.59-.44,3,3,0,0,1-1-1.19,3.75,3.75,0,0,1,0-3.29,3,3,0,0,1,1-1.19,2.82,2.82,0,0,1,1.59-.45,2.54,2.54,0,0,1,1,.19,2.46,2.46,0,0,1,.7.43,1.63,1.63,0,0,1,.38.47V89.5h2.28v6.2Zm-2.89-3.1a1.45,1.45,0,0,0,.19.76,1.43,1.43,0,0,0,1.26.72,1.47,1.47,0,0,0,.73-.19,1.34,1.34,0,0,0,.5-.53,1.67,1.67,0,0,0,0-1.51,1.34,1.34,0,0,0-.5-.53,1.37,1.37,0,0,0-.73-.19,1.4,1.4,0,0,0-.73.19,1.49,1.49,0,0,0-.53.53A1.44,1.44,0,0,0,88.17,92.6Z"/><path class="cls-4" d="M97,98.83H94.76V89.5h2.29v.91a1.64,1.64,0,0,1,.41-.47,2.86,2.86,0,0,1,.76-.43,2.69,2.69,0,0,1,1-.19,2.63,2.63,0,0,1,1.55.45,2.83,2.83,0,0,1,1,1.19,3.83,3.83,0,0,1,.35,1.64,3.58,3.58,0,0,1-.37,1.65,3,3,0,0,1-1,1.19,2.81,2.81,0,0,1-1.57.44,2.45,2.45,0,0,1-1.1-.23,2.67,2.67,0,0,1-.72-.51,2,2,0,0,1-.33-.45Zm2.89-6.23a1.44,1.44,0,0,0-.19-.75,1.3,1.3,0,0,0-.51-.53,1.34,1.34,0,0,0-.72-.19,1.43,1.43,0,0,0-.74.19,1.39,1.39,0,0,0-.52.53,1.6,1.6,0,0,0,0,1.51,1.39,1.39,0,0,0,.52.53,1.54,1.54,0,0,0,.74.19,1.43,1.43,0,0,0,.72-.19,1.3,1.3,0,0,0,.51-.53A1.45,1.45,0,0,0,99.92,92.6Z"/><path class="cls-4" d="M107.63,89.32a3.19,3.19,0,0,1,1.27.27,2.26,2.26,0,0,1,1,.83,2.54,2.54,0,0,1,.4,1.5V95.7H108V92.29a1.43,1.43,0,0,0-.3-1,1,1,0,0,0-.81-.34,1.3,1.3,0,0,0-.65.18,1.46,1.46,0,0,0-.5.49,1.41,1.41,0,0,0-.19.74V95.7h-2.3V85.32h2.3v5.1a1.27,1.27,0,0,1,.37-.51,3,3,0,0,1,.73-.42A2.77,2.77,0,0,1,107.63,89.32Z"/><path class="cls-4" d="M112.92,88.23a1.28,1.28,0,0,1-.92-.38A1.3,1.3,0,0,1,112,86a1.23,1.23,0,0,1,.91-.39,1.2,1.2,0,0,1,.65.18,1.44,1.44,0,0,1,.48.47,1.26,1.26,0,0,1,.18.66,1.24,1.24,0,0,1-.39.91A1.26,1.26,0,0,1,112.92,88.23Zm-1.17,7.47V89.5H114v6.2Z"/><path class="cls-4" d="M119,94.08a1.49,1.49,0,0,0,.71-.15,2.14,2.14,0,0,0,.38-.24l1.05,1.55a3.31,3.31,0,0,1-.42.26,4,4,0,0,1-.73.27,4.4,4.4,0,0,1-1,.11,4.12,4.12,0,0,1-1.87-.41,3,3,0,0,1-1.26-1.14,3.57,3.57,0,0,1,0-3.47,3,3,0,0,1,1.26-1.13,4.12,4.12,0,0,1,1.87-.41,3.86,3.86,0,0,1,1,.12,5.2,5.2,0,0,1,.74.26,2.1,2.1,0,0,1,.42.26l-1.07,1.56-.19-.14a1.21,1.21,0,0,0-.36-.18,1.64,1.64,0,0,0-.52-.07,1.37,1.37,0,0,0-.69.18,1.42,1.42,0,0,0-.71,1.29,1.45,1.45,0,0,0,.71,1.29A1.38,1.38,0,0,0,119,94.08Z"/><path class="cls-4" d="M70.84,107.75a2.63,2.63,0,0,1-1.49-.42,2.74,2.74,0,0,1-1-1.13,3.67,3.67,0,0,1,0-3.13,2.81,2.81,0,0,1,1-1.13,2.63,2.63,0,0,1,1.49-.42,2.79,2.79,0,0,1,1,.17,2.51,2.51,0,0,1,.71.42,1.07,1.07,0,0,1,.33.44V97.71h2.18v9.87H72.9v-1a1.75,1.75,0,0,1-.44.53,2.76,2.76,0,0,1-.73.43A2.35,2.35,0,0,1,70.84,107.75ZM71.5,106a1.39,1.39,0,0,0,.71-.18,1.31,1.31,0,0,0,.49-.5,1.48,1.48,0,0,0,.18-.72,1.43,1.43,0,0,0-.18-.72,1.33,1.33,0,0,0-.49-.51,1.39,1.39,0,0,0-.71-.18,1.3,1.3,0,0,0-.68.18,1.39,1.39,0,0,0-.48.51,1.43,1.43,0,0,0-.18.72,1.48,1.48,0,0,0,.18.72,1.36,1.36,0,0,0,.48.5A1.3,1.3,0,0,0,71.5,106Z"/><path class="cls-4" d="M78.06,105.1a1,1,0,0,0,.2.56,1.18,1.18,0,0,0,.49.38,1.94,1.94,0,0,0,.76.14,3.38,3.38,0,0,0,.75-.08,2.43,2.43,0,0,0,.58-.22,1.64,1.64,0,0,0,.39-.27l.84,1.35a2,2,0,0,1-.51.37,3.2,3.2,0,0,1-.85.3,6.2,6.2,0,0,1-1.34.12,3.87,3.87,0,0,1-1.74-.37,2.69,2.69,0,0,1-1.19-1.07,3.3,3.3,0,0,1-.43-1.74,3.14,3.14,0,0,1,.37-1.55,2.75,2.75,0,0,1,1.09-1.1,3.46,3.46,0,0,1,1.73-.4,3.8,3.8,0,0,1,1.67.35,2.41,2.41,0,0,1,1.08,1,3.49,3.49,0,0,1,.38,1.73v.22a1.36,1.36,0,0,1,0,.24ZM80.29,104a1.25,1.25,0,0,0-.12-.46,1,1,0,0,0-.35-.38,1.05,1.05,0,0,0-.59-.15,1.11,1.11,0,0,0-.6.15.94.94,0,0,0-.38.36,1.34,1.34,0,0,0-.15.48Z"/><path class="cls-4" d="M86.1,101.52a5.74,5.74,0,0,1,1.06.09,6.51,6.51,0,0,1,.81.22,2.06,2.06,0,0,1,.42.2l-.71,1.29a2.4,2.4,0,0,0-.5-.26,2,2,0,0,0-.83-.16,1.43,1.43,0,0,0-.58.11.34.34,0,0,0-.23.32.39.39,0,0,0,.26.36,3.16,3.16,0,0,0,.76.23,5.39,5.39,0,0,1,.87.27,1.94,1.94,0,0,1,.74.55,1.46,1.46,0,0,1,.3,1,1.75,1.75,0,0,1-.27,1,1.78,1.78,0,0,1-.7.63,3.35,3.35,0,0,1-.94.31,5.69,5.69,0,0,1-1,.09,5.17,5.17,0,0,1-1.18-.12,3.84,3.84,0,0,1-.8-.28,3.57,3.57,0,0,1-.43-.25l.7-1.44a2.56,2.56,0,0,0,.61.36,2.09,2.09,0,0,0,.89.19,1.57,1.57,0,0,0,.72-.13.42.42,0,0,0,.25-.36.35.35,0,0,0-.13-.29,1,1,0,0,0-.34-.18,4.06,4.06,0,0,0-.54-.15,3.42,3.42,0,0,1-.61-.18,2.59,2.59,0,0,1-.61-.33,1.68,1.68,0,0,1-.46-.53,1.61,1.61,0,0,1-.18-.78,1.31,1.31,0,0,1,.38-1,2.33,2.33,0,0,1,1-.58A3.86,3.86,0,0,1,86.1,101.52Z"/><path class="cls-4" d="M90.82,100.48a1.19,1.19,0,0,1-.87-.36,1.2,1.2,0,0,1-.36-.87,1.22,1.22,0,0,1,.36-.87,1.21,1.21,0,0,1,1.49-.2,1.29,1.29,0,0,1,.45.45,1.09,1.09,0,0,1,.17.62,1.2,1.2,0,0,1-.36.87A1.22,1.22,0,0,1,90.82,100.48Zm-1.12,7.1v-5.89h2.18v5.89Z"/><path class="cls-4" d="M98,107.58v-1a2,2,0,0,1-.33.42,2.9,2.9,0,0,1-.69.49,2.15,2.15,0,0,1-1,.22,2.69,2.69,0,0,1-1.5-.42,2.84,2.84,0,0,1-1-1.13,3.67,3.67,0,0,1,0-3.13,2.9,2.9,0,0,1,1-1.13,2.69,2.69,0,0,1,1.5-.42,2.63,2.63,0,0,1,1,.17,2.26,2.26,0,0,1,.67.42,1.45,1.45,0,0,1,.36.44v-.86h2.17v5.89Zm-1.48,3.14a7.09,7.09,0,0,1-1.22-.1,4.16,4.16,0,0,1-1.13-.37,2.57,2.57,0,0,1-.89-.71l1.28-1.32a3,3,0,0,0,.41.37,1.83,1.83,0,0,0,.59.31,2.47,2.47,0,0,0,.86.13,1.92,1.92,0,0,0,.83-.17,1.29,1.29,0,0,0,.55-.48,1.45,1.45,0,0,0,.2-.77v-.14h2.14v.27a2.72,2.72,0,0,1-.48,1.64,3,3,0,0,1-1.31,1A4.81,4.81,0,0,1,96.48,110.72Zm-1.28-6.08a1.39,1.39,0,0,0,.19.72,1.33,1.33,0,0,0,.5.5,1.41,1.41,0,0,0,1.38,0,1.28,1.28,0,0,0,.48-.5,1.48,1.48,0,0,0,.18-.72,1.43,1.43,0,0,0-.18-.72,1.36,1.36,0,0,0-1.86-.51,1.36,1.36,0,0,0-.5.51A1.34,1.34,0,0,0,95.2,104.64Z"/><path class="cls-4" d="M105.55,101.52a3,3,0,0,1,1.2.25,2.26,2.26,0,0,1,1,.79,2.46,2.46,0,0,1,.38,1.42v3.6h-2.19v-3.24a1.35,1.35,0,0,0-.3-1,1,1,0,0,0-.79-.32,1.19,1.19,0,0,0-.6.17,1.37,1.37,0,0,0-.64,1.17v3.17H101.4v-5.89h2.18v.87a1.2,1.2,0,0,1,.37-.48,2.28,2.28,0,0,1,.69-.4A2.45,2.45,0,0,1,105.55,101.52Z"/><path class="cls-4" d="M111.11,105.1a1,1,0,0,0,.2.56,1.18,1.18,0,0,0,.49.38,1.91,1.91,0,0,0,.76.14,3.38,3.38,0,0,0,.75-.08,2.6,2.6,0,0,0,.58-.22,1.55,1.55,0,0,0,.38-.27l.85,1.35a2,2,0,0,1-.51.37,3.2,3.2,0,0,1-.85.3,6.26,6.26,0,0,1-1.34.12,3.84,3.84,0,0,1-1.74-.37,2.77,2.77,0,0,1-1.2-1.07,3.4,3.4,0,0,1-.43-1.74,3.15,3.15,0,0,1,.38-1.55,2.75,2.75,0,0,1,1.09-1.1,3.46,3.46,0,0,1,1.73-.4,3.73,3.73,0,0,1,1.66.35,2.44,2.44,0,0,1,1.09,1,3.6,3.6,0,0,1,.38,1.73v.22a1.1,1.1,0,0,1,0,.24Zm2.22-1.14a1,1,0,0,0-.12-.46.89.89,0,0,0-.34-.38,1.05,1.05,0,0,0-.59-.15,1.15,1.15,0,0,0-.61.15,1,1,0,0,0-.37.36,1,1,0,0,0-.15.48Z"/><path class="cls-4" d="M118.5,107.58h-2.17v-5.89h2.17v.91h0a1.43,1.43,0,0,1,.28-.42,2.08,2.08,0,0,1,.62-.46,2.25,2.25,0,0,1,1-.2,2.29,2.29,0,0,1,.76.12,3,3,0,0,1,.5.24l-.85,1.77a1.09,1.09,0,0,0-.35-.25,1.35,1.35,0,0,0-.64-.13,1.12,1.12,0,0,0-.72.22,1.34,1.34,0,0,0-.41.54,1.53,1.53,0,0,0-.14.59Z"/></g></g></svg>