<svg xmlns="http://www.w3.org/2000/svg" viewBox="0 0 322.54 214.68"><defs><style>.cls-1{fill:#e25e61;}.cls-2{fill:#fff;}</style></defs><g id="Livello_2" data-name="Livello 2"><g id="Livello_1-2" data-name="Livello 1"><rect class="cls-1" width="322.54" height="214.68" rx="52.75"/><path class="cls-2" d="M36.25,87.5h7.27l12.76,32.32H48.47l-2.35-6.49H33.68l-2.38,6.49H23.46Zm-.13,19.42h7.57L39.94,96.31h-.07Z"/><path class="cls-2" d="M74.48,119.82v-3.25A6.25,6.25,0,0,1,73.36,118,8.44,8.44,0,0,1,71,119.66a7.47,7.47,0,0,1-3.43.75A9.25,9.25,0,0,1,62.43,119,9.75,9.75,0,0,1,59,115.13a12.25,12.25,0,0,1,0-10.7,9.85,9.85,0,0,1,3.43-3.86,9.18,9.18,0,0,1,5.14-1.44,8.47,8.47,0,0,1,3.31.6,7.85,7.85,0,0,1,2.3,1.42,5.59,5.59,0,0,1,1.22,1.51V99.72h7.4v20.1Zm-9.41-10a4.7,4.7,0,0,0,.64,2.46,4.57,4.57,0,0,0,1.7,1.71,4.74,4.74,0,0,0,2.36.61,4.66,4.66,0,0,0,2.38-.61,4.47,4.47,0,0,0,1.63-1.71,5,5,0,0,0,.6-2.46,5,5,0,0,0-.6-2.46,4.44,4.44,0,0,0-4-2.34,4.65,4.65,0,0,0-4.06,2.34A4.75,4.75,0,0,0,65.07,109.78Z"/><path class="cls-2" d="M99.58,67.22h1.73v6.1h2.76v1.51H99.58Z"/><path class="cls-2" d="M106.58,72.83a.88.88,0,0,0,.17.45.81.81,0,0,0,.39.31,1.45,1.45,0,0,0,.61.11,2.8,2.8,0,0,0,.61-.06,2.45,2.45,0,0,0,.46-.18,1.18,1.18,0,0,0,.31-.21l.68,1.08a2.07,2.07,0,0,1-.41.3,2.33,2.33,0,0,1-.68.24,5.45,5.45,0,0,1-1.08.09,3.13,3.13,0,0,1-1.4-.29,2.23,2.23,0,0,1-1-.86,2.67,2.67,0,0,1-.34-1.4,2.57,2.57,0,0,1,.3-1.25,2.23,2.23,0,0,1,.87-.88A2.88,2.88,0,0,1,107.5,70a2.94,2.94,0,0,1,1.34.28,2,2,0,0,1,.87.84,2.76,2.76,0,0,1,.31,1.38v.18c0,.1,0,.16,0,.19Zm1.8-.91a1,1,0,0,0-.1-.37.76.76,0,0,0-.28-.31.93.93,0,0,0-.47-.11,1,1,0,0,0-.49.11.86.86,0,0,0-.3.3.81.81,0,0,0-.12.38Z"/><path class="cls-2" d="M114.6,74.83v-.77a1.15,1.15,0,0,1-.26.33,2.06,2.06,0,0,1-.56.4A1.73,1.73,0,0,1,113,75a2.22,2.22,0,0,1-1.21-.33,2.35,2.35,0,0,1-.8-.91,2.88,2.88,0,0,1,0-2.52,2.32,2.32,0,0,1,.8-.9A2.14,2.14,0,0,1,113,70a1.87,1.87,0,0,1,.78.14,1.55,1.55,0,0,1,.54.33,1.23,1.23,0,0,1,.29.36v-.7h1.74v4.74Zm-2.21-2.37a1.11,1.11,0,0,0,.15.58,1.11,1.11,0,0,0,.95.55,1,1,0,0,0,.56-.15,1.07,1.07,0,0,0,.39-.4,1.21,1.21,0,0,0,.14-.58,1.27,1.27,0,0,0-.14-.58,1.15,1.15,0,0,0-.39-.4,1.1,1.1,0,0,0-1.11,0,1.1,1.1,0,0,0-.4.4A1.17,1.17,0,0,0,112.39,72.46Z"/><path class="cls-2" d="M121.11,74.83v-.77a1.49,1.49,0,0,1-.27.33,2,2,0,0,1-.55.4,1.73,1.73,0,0,1-.81.17,2.22,2.22,0,0,1-1.21-.33,2.38,2.38,0,0,1-.81-.91,3,3,0,0,1,0-2.52,2.35,2.35,0,0,1,.81-.9,2.14,2.14,0,0,1,1.21-.34,1.87,1.87,0,0,1,.78.14,1.77,1.77,0,0,1,.54.33,1.42,1.42,0,0,1,.29.36v-.7h1.74v4.74Zm-1.19,2.53a5.33,5.33,0,0,1-1-.09A3.73,3.73,0,0,1,118,77a2.08,2.08,0,0,1-.71-.57l1-1.07a1.87,1.87,0,0,0,.32.3,1.55,1.55,0,0,0,.48.25,2,2,0,0,0,.69.1,1.54,1.54,0,0,0,.67-.13,1.1,1.1,0,0,0,.44-.39,1.19,1.19,0,0,0,.16-.62v-.11h1.72V75a2.19,2.19,0,0,1-.39,1.32,2.44,2.44,0,0,1-1,.81A3.81,3.81,0,0,1,119.92,77.36Zm-1-4.9A1.11,1.11,0,0,0,119,73a1.11,1.11,0,0,0,1,.55,1,1,0,0,0,.56-.15,1,1,0,0,0,.38-.4,1.11,1.11,0,0,0,.14-.58,1.16,1.16,0,0,0-.14-.58,1,1,0,0,0-.94-.55,1.09,1.09,0,0,0-.56.15,1.11,1.11,0,0,0-.55,1Z"/><path class="cls-2" d="M125.61,72.29a1.71,1.71,0,0,0,.21.9.81.81,0,0,0,.72.33.79.79,0,0,0,.72-.33,1.71,1.71,0,0,0,.21-.9v-2.2h1.73v2.38a2.63,2.63,0,0,1-.31,1.32,2.07,2.07,0,0,1-.91.87,3.19,3.19,0,0,1-1.44.3,3.12,3.12,0,0,1-1.43-.3,2.07,2.07,0,0,1-.91-.87,2.63,2.63,0,0,1-.31-1.32V70.09h1.72Z"/><path class="cls-2" d="M131.66,72.83a.87.87,0,0,0,.16.45.89.89,0,0,0,.4.31,1.42,1.42,0,0,0,.61.11,2.64,2.64,0,0,0,.6-.06,2.31,2.31,0,0,0,.47-.18,1.38,1.38,0,0,0,.31-.21l.68,1.08a2.07,2.07,0,0,1-.41.3,2.29,2.29,0,0,1-.69.24,5.27,5.27,0,0,1-1.07.09,3.1,3.1,0,0,1-1.4-.29,2.23,2.23,0,0,1-1-.86,2.67,2.67,0,0,1-.35-1.4,2.57,2.57,0,0,1,.3-1.25,2.26,2.26,0,0,1,.88-.88,2.86,2.86,0,0,1,1.39-.32,3,3,0,0,1,1.34.28,2,2,0,0,1,.87.84,2.87,2.87,0,0,1,.31,1.38v.18c0,.1,0,.16,0,.19Zm1.79-.91a.81.81,0,0,0-.09-.37.84.84,0,0,0-.28-.31.93.93,0,0,0-.47-.11,1,1,0,0,0-.49.11.86.86,0,0,0-.3.3.81.81,0,0,0-.12.38Z"/><path class="cls-2" d="M141.83,67.08a4.24,4.24,0,0,1,1.24.16,4.19,4.19,0,0,1,.85.33,3,3,0,0,1,.39.23l-.83,1.38-.31-.2a2.91,2.91,0,0,0-.53-.23,1.9,1.9,0,0,0-.63-.11,1.53,1.53,0,0,0-.72.16.51.51,0,0,0-.27.47.55.55,0,0,0,.15.38,1.28,1.28,0,0,0,.45.33,8,8,0,0,0,.77.33,5.3,5.3,0,0,1,.8.37,3,3,0,0,1,.66.5,2.32,2.32,0,0,1,.45.67,2.18,2.18,0,0,1,.17.87,2,2,0,0,1-.24,1,2.14,2.14,0,0,1-.64.7,3.07,3.07,0,0,1-.92.41,4.24,4.24,0,0,1-1.07.13,5.5,5.5,0,0,1-1.41-.17,5.22,5.22,0,0,1-1-.39,2.91,2.91,0,0,1-.45-.28l.86-1.44a2.24,2.24,0,0,0,.26.16,4.5,4.5,0,0,0,.49.24,3,3,0,0,0,.62.21,2.35,2.35,0,0,0,.64.09,1.24,1.24,0,0,0,.79-.21.62.62,0,0,0,.27-.53.68.68,0,0,0-.17-.45,1.75,1.75,0,0,0-.5-.37,7.11,7.11,0,0,0-.84-.37,5.87,5.87,0,0,1-.93-.49,2.32,2.32,0,0,1-.71-.72,2,2,0,0,1-.27-1.07,1.76,1.76,0,0,1,.36-1.11,2.29,2.29,0,0,1,.95-.72A3.21,3.21,0,0,1,141.83,67.08Z"/><path class="cls-2" d="M147.23,77.22H145.5V70.09h1.75v.7a1.19,1.19,0,0,1,.31-.36,1.88,1.88,0,0,1,.58-.33,2.29,2.29,0,0,1,2,.2,2.23,2.23,0,0,1,.76.9,3.05,3.05,0,0,1,.26,1.26,2.77,2.77,0,0,1-.28,1.26,2.33,2.33,0,0,1-.79.91,2.17,2.17,0,0,1-1.21.33,1.8,1.8,0,0,1-.84-.17,2,2,0,0,1-.55-.39,1.85,1.85,0,0,1-.25-.34Zm2.21-4.76a1.17,1.17,0,0,0-.15-.58,1,1,0,0,0-.38-.4,1.12,1.12,0,0,0-1.12,0,1.1,1.1,0,0,0-.4.4,1.27,1.27,0,0,0-.14.58,1.21,1.21,0,0,0,.14.58,1,1,0,0,0,.4.4,1.12,1.12,0,0,0,1.12,0,1,1,0,0,0,.38-.4A1.11,1.11,0,0,0,149.44,72.46Z"/><path class="cls-2" d="M155.7,74.83v-.77a1.15,1.15,0,0,1-.26.33,2.06,2.06,0,0,1-.56.4,1.71,1.71,0,0,1-.8.17,2.19,2.19,0,0,1-1.21-.33,2.3,2.3,0,0,1-.81-.91,2.88,2.88,0,0,1,0-2.52,2.27,2.27,0,0,1,.81-.9,2.12,2.12,0,0,1,1.21-.34,1.94,1.94,0,0,1,.78.14,1.77,1.77,0,0,1,.54.33,1.69,1.69,0,0,1,.29.36v-.7h1.74v4.74Zm-2.21-2.37a1.11,1.11,0,0,0,.15.58,1,1,0,0,0,.4.4,1.07,1.07,0,0,0,.56.15,1.07,1.07,0,0,0,.94-.55,1.21,1.21,0,0,0,.14-.58,1.27,1.27,0,0,0-.14-.58,1.07,1.07,0,0,0-.39-.4,1,1,0,0,0-.55-.15,1.07,1.07,0,0,0-.56.15,1.1,1.1,0,0,0-.4.4A1.17,1.17,0,0,0,153.49,72.46Z"/><path class="cls-2" d="M160.14,74.83h-1.75V70.09h1.75v.74h0a1.18,1.18,0,0,1,.23-.34,1.45,1.45,0,0,1,.5-.37,1.71,1.71,0,0,1,.79-.16,1.64,1.64,0,0,1,.6.1,1.67,1.67,0,0,1,.4.19L162,71.67a.88.88,0,0,0-.28-.2,1.13,1.13,0,0,0-.51-.11.89.89,0,0,0-.58.18,1.06,1.06,0,0,0-.33.43,1.11,1.11,0,0,0-.11.48Z"/><path class="cls-2" d="M162.7,70.09h.81V68.15h1.73v1.94h1.07v1.45h-1.07v1.32a1.06,1.06,0,0,0,.09.47.32.32,0,0,0,.32.18.44.44,0,0,0,.26-.07.55.55,0,0,0,.14-.09l.6,1.25-.26.12a3,3,0,0,1-.53.17,3.14,3.14,0,0,1-.72.07,1.71,1.71,0,0,1-1.17-.4,1.53,1.53,0,0,1-.46-1.23V71.54h-.81Z"/><path class="cls-2" d="M171,74.83v-.77a1.49,1.49,0,0,1-.27.33,2,2,0,0,1-.55.4,1.73,1.73,0,0,1-.81.17,2.22,2.22,0,0,1-1.21-.33,2.46,2.46,0,0,1-.81-.91,3,3,0,0,1,0-2.52,2.43,2.43,0,0,1,.81-.9,2.14,2.14,0,0,1,1.21-.34,1.87,1.87,0,0,1,.78.14,1.77,1.77,0,0,1,.54.33,1.23,1.23,0,0,1,.29.36v-.7h1.74v4.74Zm-2.22-2.37a1.11,1.11,0,0,0,.15.58,1.11,1.11,0,0,0,1,.55,1,1,0,0,0,.56-.15,1,1,0,0,0,.38-.4,1.11,1.11,0,0,0,.14-.58,1.16,1.16,0,0,0-.14-.58,1,1,0,0,0-.94-.55,1.09,1.09,0,0,0-.56.15,1.11,1.11,0,0,0-.55,1Z"/><path class="cls-2" d="M177.06,70a2.38,2.38,0,0,1,1,.2,1.74,1.74,0,0,1,.77.63,2,2,0,0,1,.31,1.15v2.89h-1.76v-2.6a1.09,1.09,0,0,0-.24-.77.82.82,0,0,0-.63-.25.92.92,0,0,0-.49.13,1,1,0,0,0-.37.38,1.17,1.17,0,0,0-.14.57v2.54h-1.75V70.09h1.75v.7a1,1,0,0,1,.29-.38,1.68,1.68,0,0,1,.56-.32A1.93,1.93,0,0,1,177.06,70Z"/><path class="cls-2" d="M183.22,67.22h2.61a3.89,3.89,0,0,1,1.21.18,1.93,1.93,0,0,1,.9.58,1.65,1.65,0,0,1,.34,1.1,1.75,1.75,0,0,1-.17.81,1.57,1.57,0,0,1-.45.59,1.48,1.48,0,0,1-.6.3,1.72,1.72,0,0,1,.56.17,1.64,1.64,0,0,1,.49.35,1.49,1.49,0,0,1,.35.57,2.13,2.13,0,0,1,.13.8,2.17,2.17,0,0,1-.28,1.12,1.91,1.91,0,0,1-.83.76,3,3,0,0,1-1.33.28h-2.93Zm1.73,3h.69a1.07,1.07,0,0,0,.51-.11.71.71,0,0,0,.31-.31.87.87,0,0,0,.11-.46.7.7,0,0,0-.26-.63,1.39,1.39,0,0,0-.73-.16H185Zm0,3.18h.78a1.43,1.43,0,0,0,.6-.11.73.73,0,0,0,.34-.33,1,1,0,0,0,.11-.5.8.8,0,0,0-.28-.68,1.33,1.33,0,0,0-.8-.21H185Z"/><path class="cls-2" d="M192,75a2.87,2.87,0,0,1-1.38-.32,2.35,2.35,0,0,1-.94-.88,2.39,2.39,0,0,1-.34-1.29,2.44,2.44,0,0,1,.34-1.29,2.37,2.37,0,0,1,.94-.89A2.87,2.87,0,0,1,192,70a2.75,2.75,0,0,1,1.37.33,2.28,2.28,0,0,1,.93.89,2.44,2.44,0,0,1,.34,1.29,2.39,2.39,0,0,1-.34,1.29,2.26,2.26,0,0,1-.93.88A2.75,2.75,0,0,1,192,75Zm0-1.44a1,1,0,0,0,.52-.13.87.87,0,0,0,.34-.37,1.23,1.23,0,0,0,.12-.55,1.2,1.2,0,0,0-.12-.55.84.84,0,0,0-.34-.38.88.88,0,0,0-.52-.14.9.9,0,0,0-.52.14.84.84,0,0,0-.34.38,1.09,1.09,0,0,0-.13.55,1.12,1.12,0,0,0,.13.55.87.87,0,0,0,.34.37A1,1,0,0,0,192,73.52Z"/><path class="cls-2" d="M197.33,74.83h-1.76V66.9h1.76Z"/><path class="cls-2" d="M200.49,75a2.16,2.16,0,0,1-1.2-.33,2.3,2.3,0,0,1-.78-.91,3,3,0,0,1,0-2.52,2.27,2.27,0,0,1,.78-.9,2.09,2.09,0,0,1,1.2-.34,2,2,0,0,1,.8.14,1.71,1.71,0,0,1,.57.33.8.8,0,0,1,.27.36V66.9h1.75v7.93h-1.73v-.77a1.68,1.68,0,0,1-.36.42,2.24,2.24,0,0,1-.58.35A2,2,0,0,1,200.49,75Zm.53-1.37a1.1,1.1,0,0,0,.57-.15A.94.94,0,0,0,202,73a1.11,1.11,0,0,0,.15-.58,1.17,1.17,0,0,0-.15-.58,1,1,0,0,0-.39-.4,1.1,1.1,0,0,0-.57-.15,1.06,1.06,0,0,0-.55.15,1,1,0,0,0-.38.4,1.17,1.17,0,0,0-.15.58,1.11,1.11,0,0,0,.15.58,1,1,0,0,0,.38.4A1.06,1.06,0,0,0,201,73.59Z"/><path class="cls-2" d="M101.51,91.54h1.43l2.5,6.34h-1.53l-.46-1.28H101l-.47,1.28H99Zm0,3.8H103l-.73-2.07h0Z"/><path class="cls-2" d="M106.09,91.54h2.17a3.29,3.29,0,0,1,1,.15,1.62,1.62,0,0,1,.75.48,1.39,1.39,0,0,1,.28.92,1.57,1.57,0,0,1-.14.67,1.32,1.32,0,0,1-.37.49,1.22,1.22,0,0,1-.51.25,1.59,1.59,0,0,1,.47.14,1.31,1.31,0,0,1,.41.3,1.39,1.39,0,0,1,.29.47,1.69,1.69,0,0,1,.11.66,1.8,1.8,0,0,1-.24.94,1.54,1.54,0,0,1-.69.64,2.46,2.46,0,0,1-1.11.23h-2.43Zm1.43,2.54h.58a.94.94,0,0,0,.43-.09.72.72,0,0,0,.26-.26.79.79,0,0,0,.09-.38.57.57,0,0,0-.23-.53,1.11,1.11,0,0,0-.6-.14h-.53Zm0,2.65h.65a1.08,1.08,0,0,0,.51-.1.59.59,0,0,0,.28-.26.93.93,0,0,0,.09-.42.69.69,0,0,0-.23-.57,1.09,1.09,0,0,0-.67-.18h-.63Z"/><path class="cls-2" d="M114.87,96.57a2.3,2.3,0,0,0,.81-.13,2.27,2.27,0,0,0,.54-.26l.61,1.22a2.45,2.45,0,0,1-.77.39,3.8,3.8,0,0,1-1.29.2,3.6,3.6,0,0,1-1.32-.24,3.56,3.56,0,0,1-1.08-.69,3.2,3.2,0,0,1-.73-1,3.07,3.07,0,0,1-.27-1.29,3.33,3.33,0,0,1,.26-1.31,3.32,3.32,0,0,1,1.82-1.74,3.41,3.41,0,0,1,1.32-.25,3.8,3.8,0,0,1,1.29.2,2.45,2.45,0,0,1,.77.39l-.61,1.22a1.94,1.94,0,0,0-.54-.26,2.55,2.55,0,0,0-.81-.13A2.22,2.22,0,0,0,114,93a1.66,1.66,0,0,0-.61.42,1.8,1.8,0,0,0-.36.59,2.1,2.1,0,0,0-.12.7,2,2,0,0,0,.12.7,1.7,1.7,0,0,0,1,1A2.22,2.22,0,0,0,114.87,96.57Z"/><path class="cls-2" d="M117.83,91.54h1.9a3.17,3.17,0,0,1,1.68.4,2.58,2.58,0,0,1,1,1.12,3.91,3.91,0,0,1,.33,1.64,3.84,3.84,0,0,1-.33,1.64,2.55,2.55,0,0,1-1,1.13,3.17,3.17,0,0,1-1.68.41h-1.9Zm1.43,1.27V96.6h.34a1.43,1.43,0,0,0,1.44-.92,2.5,2.5,0,0,0,.18-1,2.47,2.47,0,0,0-.18-1,1.5,1.5,0,0,0-.53-.68,1.55,1.55,0,0,0-.91-.25Z"/><path class="cls-2" d="M123.68,91.54h4v1.25h-2.62v1.3h2.6v1.22h-2.6v1.31h2.62v1.26h-4Z"/><path class="cls-2" d="M129,91.54h3.66v1.25h-2.23v1.28h2.06v1.26h-2.06v2.55H129Z"/><path class="cls-2" d="M136.64,94.33h3.23v.4a3.59,3.59,0,0,1-.23,1.28,3.06,3.06,0,0,1-.65,1,3,3,0,0,1-1,.7,3.21,3.21,0,0,1-1.3.25,3.35,3.35,0,0,1-1.33-.25,3.08,3.08,0,0,1-1-.7,3.21,3.21,0,0,1-.66-1.05,3.7,3.7,0,0,1,0-2.57,2.89,2.89,0,0,1,.66-1,3.11,3.11,0,0,1,1-.71,3.54,3.54,0,0,1,1.33-.25,3.75,3.75,0,0,1,1.06.13,2.74,2.74,0,0,1,.79.35,3,3,0,0,1,.57.47,3.89,3.89,0,0,1,.38.5l-1.36.64a1.92,1.92,0,0,0-.54-.52,1.6,1.6,0,0,0-.9-.23,1.57,1.57,0,0,0-.71.16,1.76,1.76,0,0,0-.56.42,1.86,1.86,0,0,0-.36.61,2.11,2.11,0,0,0-.13.75,2,2,0,0,0,.13.75,2,2,0,0,0,.36.62,1.76,1.76,0,0,0,.56.42,1.71,1.71,0,0,0,.71.15,2,2,0,0,0,.62-.09,1.34,1.34,0,0,0,.49-.25,1.18,1.18,0,0,0,.32-.38,1.32,1.32,0,0,0,.14-.49h-1.61Z"/><path class="cls-2" d="M144.41,95.33h-2.19v2.55h-1.43V91.54h1.43v2.53h2.19V91.54h1.43v6.34h-1.43Z"/><path class="cls-2" d="M147.08,91.54h1.44v6.34h-1.44Z"/><path class="cls-2" d="M149.77,91.54h1.43v5.08h2.3v1.26h-3.73Z"/><path class="cls-2" d="M161.29,91.54v6.34h-1.43V94.14l.06-1.06-.24,1.22-1.07,3.07H157.2l-1.06-3.07-.24-1.22.06,1.06v3.74h-1.43V91.54h2l1.28,4.23.09.5.08-.5,1.28-4.23Z"/><path class="cls-2" d="M163.86,92.85l.11,0v5h-1.44V91.54h2l2.57,5-.1,0v-5h1.43v6.34h-2Z"/><path class="cls-2" d="M169.38,94.7a3.44,3.44,0,0,1,.24-1.29,3.37,3.37,0,0,1,.69-1,3.37,3.37,0,0,1,3.62-.7,3.19,3.19,0,0,1,1,.7,3,3,0,0,1,.68,1,3.26,3.26,0,0,1,.25,1.29,3.46,3.46,0,0,1-.24,1.3,3.26,3.26,0,0,1-.67,1,3.19,3.19,0,0,1-1,.7,3.61,3.61,0,0,1-2.64,0,3.08,3.08,0,0,1-1-.7,3.26,3.26,0,0,1-.67-1A3.66,3.66,0,0,1,169.38,94.7Zm1.49,0a2.11,2.11,0,0,0,.23,1,1.69,1.69,0,0,0,.62.7,1.65,1.65,0,0,0,.92.26,1.7,1.7,0,0,0,.92-.26,1.67,1.67,0,0,0,.61-.7,2.2,2.2,0,0,0,0-2,1.8,1.8,0,0,0-.61-.7,1.7,1.7,0,0,0-.92-.26,1.65,1.65,0,0,0-.92.26,1.82,1.82,0,0,0-.62.7A2.11,2.11,0,0,0,170.87,94.7Z"/><path class="cls-2" d="M176.82,91.54h2.3a2.73,2.73,0,0,1,1.1.21,1.72,1.72,0,0,1,.78.65,1.87,1.87,0,0,1,.3,1.09,2,2,0,0,1-.3,1.1,1.87,1.87,0,0,1-.78.69,2.44,2.44,0,0,1-1.1.24h-.86v2.36h-1.44Zm1.44,2.84h.47a1.42,1.42,0,0,0,.52-.08.75.75,0,0,0,.37-.28,1,1,0,0,0,0-1,.73.73,0,0,0-.37-.27,1.67,1.67,0,0,0-.52-.08h-.47Z"/><path class="cls-2" d="M182,94.7a3.26,3.26,0,0,1,.25-1.29,3.18,3.18,0,0,1,.68-1,3.22,3.22,0,0,1,2.33-1,3.19,3.19,0,0,1,1.29.25,3.23,3.23,0,0,1,1,.7,3.18,3.18,0,0,1,.68,1,3.61,3.61,0,0,1,0,2.59,3.11,3.11,0,0,1-1.7,1.74,3.29,3.29,0,0,1-1.31.25,3.35,3.35,0,0,1-1.33-.25A3.05,3.05,0,0,1,182.26,96,3.46,3.46,0,0,1,182,94.7ZM187,98.07a1.9,1.9,0,0,0,.5-.06,2.53,2.53,0,0,0,.35-.14.5.5,0,0,0,.15-.1l.49,1a1.4,1.4,0,0,1-.52.45,1.84,1.84,0,0,1-1,.22,2.13,2.13,0,0,1-.6-.08,4.89,4.89,0,0,1-.46-.19,2.11,2.11,0,0,0-.46-.19,1.74,1.74,0,0,0-.6-.08,1.62,1.62,0,0,0-.52.08,2,2,0,0,0-.36.18.6.6,0,0,0-.13.11l-.59-.69A2.44,2.44,0,0,1,184,98a3,3,0,0,1,1.81-.14l.55.16A1.79,1.79,0,0,0,187,98.07Zm-3.45-3.37a2.11,2.11,0,0,0,.22,1,1.69,1.69,0,0,0,.62.7,1.65,1.65,0,0,0,.92.26,1.68,1.68,0,0,0,.92-.26,1.76,1.76,0,0,0,.62-.7,2.29,2.29,0,0,0,0-2,1.91,1.91,0,0,0-.62-.7,1.68,1.68,0,0,0-.92-.26,1.65,1.65,0,0,0-.92.26,1.82,1.82,0,0,0-.62.7A2.11,2.11,0,0,0,183.52,94.7Z"/><path class="cls-2" d="M189.31,91.54h2.58a2,2,0,0,1,1,.23,1.72,1.72,0,0,1,.68.66,2.34,2.34,0,0,1,0,2,1.58,1.58,0,0,1-.51.57,1.47,1.47,0,0,1-.55.23l1.54,2.63h-1.62l-1.37-2.52h-.35v2.52h-1.43Zm1.43,2.83h.64a1.25,1.25,0,0,0,.67-.19.75.75,0,0,0,.29-.67.76.76,0,0,0-.28-.66,1.24,1.24,0,0,0-.67-.18h-.65Z"/><path class="cls-2" d="M197.43,91.42a3.49,3.49,0,0,1,1,.13,3.37,3.37,0,0,1,.71.28,2.47,2.47,0,0,1,.33.19l-.69,1.15-.26-.16a2.24,2.24,0,0,0-.44-.2,1.54,1.54,0,0,0-.52-.09,1.27,1.27,0,0,0-.6.13.44.44,0,0,0-.23.4.51.51,0,0,0,.12.32,1.19,1.19,0,0,0,.38.26,5.21,5.21,0,0,0,.64.28,5.11,5.11,0,0,1,.67.31,2.52,2.52,0,0,1,.54.42,1.79,1.79,0,0,1,.38.56,1.81,1.81,0,0,1,.14.72,1.57,1.57,0,0,1-.2.83,1.64,1.64,0,0,1-.53.58,2.46,2.46,0,0,1-.77.35,3.74,3.74,0,0,1-.89.11,4.15,4.15,0,0,1-1.17-.15,4.67,4.67,0,0,1-.83-.32,3,3,0,0,1-.38-.23l.71-1.21.23.14a3,3,0,0,0,.4.2,3.82,3.82,0,0,0,.51.18,2,2,0,0,0,.54.07,1.11,1.11,0,0,0,.66-.17.57.57,0,0,0,.08-.82,1.41,1.41,0,0,0-.41-.31,7.11,7.11,0,0,0-.7-.31,4.13,4.13,0,0,1-.78-.41,2,2,0,0,1-.59-.6,1.66,1.66,0,0,1-.23-.89,1.46,1.46,0,0,1,.31-.92,1.8,1.8,0,0,1,.79-.61A2.66,2.66,0,0,1,197.43,91.42Z"/><path class="cls-2" d="M201.78,92.79h-1.51V91.54h4.45v1.25h-1.5v5.09h-1.44Z"/><path class="cls-2" d="M209.26,91.54h1.44v3.89a2.79,2.79,0,0,1-.31,1.36,2.16,2.16,0,0,1-.88.89,2.76,2.76,0,0,1-1.36.31,2.8,2.8,0,0,1-1.37-.31,2.18,2.18,0,0,1-.89-.89,2.9,2.9,0,0,1-.3-1.36V91.54H207v3.81a1.73,1.73,0,0,0,.14.73,1,1,0,0,0,.39.45,1.16,1.16,0,0,0,.6.15,1.13,1.13,0,0,0,.59-.15,1.09,1.09,0,0,0,.39-.45,1.73,1.73,0,0,0,.13-.73Z"/><path class="cls-2" d="M211.93,96.31V95.07h2.47v1.24Z"/><path class="cls-2" d="M103,109.4h-1.62l-2.26-6.34h1.62l1.45,4.51,1.45-4.51h1.62Z"/><path class="cls-2" d="M112.43,109.4H110.7L109.63,105h.26l-1.08,4.42h-1.73l-1.45-6.34h1.65l.76,4.45h0l1.19-4.45h1.08l1.2,4.45h0l.76-4.45h1.65Z"/><path class="cls-2" d="M118.47,106l2.38,3.41H119l-1.47-2.21-1.42,2.21h-1.72l2.24-3.41-2-2.93h1.83l1.17,1.83,1.16-1.83h1.74Z"/><path class="cls-2" d="M123.12,107.12l-2.18-4.06h1.74l1.16,2.42,1.16-2.42h1.73l-2.17,4.06v2.28h-1.44Z"/><path class="cls-2" d="M127.36,103.06h5.21l-3.14,5.08h2.93v1.26h-5.44l3.14-5.08h-2.7Z"/><path class="cls-2" d="M102.52,120.92v-.63a1.21,1.21,0,0,1-.22.27,1.36,1.36,0,0,1-.46.33,1.44,1.44,0,0,1-.67.15,1.78,1.78,0,0,1-1-.28,1.94,1.94,0,0,1-.67-.75,2.31,2.31,0,0,1-.24-1.05,2.26,2.26,0,0,1,.24-1,1.9,1.9,0,0,1,.67-.76,1.78,1.78,0,0,1,1-.28,1.59,1.59,0,0,1,.64.12,1.55,1.55,0,0,1,.46.27,1.42,1.42,0,0,1,.24.3V117H104v3.94Zm-1.84-2a1,1,0,0,0,.12.48.9.9,0,0,0,.34.33.94.94,0,0,0,.92,0,.78.78,0,0,0,.32-.33,1,1,0,0,0,.12-.48,1,1,0,0,0-.12-.49.78.78,0,0,0-.32-.33.88.88,0,0,0-.92,0,.9.9,0,0,0-.34.33A1,1,0,0,0,100.68,119Z"/><path class="cls-2" d="M106.05,120.92v-6.6h1.46v3.24a.8.8,0,0,1,.23-.3,1.61,1.61,0,0,1,.47-.27,1.78,1.78,0,0,1,.67-.12,1.73,1.73,0,0,1,1,.28,1.85,1.85,0,0,1,.65.76,2.25,2.25,0,0,1,.23,1,2.31,2.31,0,0,1-.23,1.05,1.89,1.89,0,0,1-.65.75,1.83,1.83,0,0,1-1.6.17,1.92,1.92,0,0,1-.48-.29,1.17,1.17,0,0,1-.3-.35v.63Zm3.28-2a1.14,1.14,0,0,0-.11-.49.87.87,0,0,0-.33-.33.85.85,0,0,0-.45-.13,1,1,0,0,0-.48.13.87.87,0,0,0-.33.33,1,1,0,0,0-.12.49,1,1,0,0,0,.12.48.87.87,0,0,0,.33.33,1,1,0,0,0,.48.12.84.84,0,0,0,.45-.12.87.87,0,0,0,.33-.33A1.06,1.06,0,0,0,109.33,119Z"/><path class="cls-2" d="M114.77,119.89a1,1,0,0,0,.45-.09,1,1,0,0,0,.24-.15l.67,1-.26.16a2.78,2.78,0,0,1-.47.17,2.89,2.89,0,0,1-1.83-.19,1.87,1.87,0,0,1-.8-.72,2.14,2.14,0,0,1-.29-1.11,2.07,2.07,0,0,1,.29-1.1,2,2,0,0,1,.8-.73,2.64,2.64,0,0,1,1.19-.25,2.43,2.43,0,0,1,.63.07,2.92,2.92,0,0,1,.48.17,2.4,2.4,0,0,1,.27.16l-.69,1a.76.76,0,0,0-.12-.1.82.82,0,0,0-.23-.11,1,1,0,0,0-.33,0,.88.88,0,0,0-.44.12,1.07,1.07,0,0,0-.33.34,1,1,0,0,0-.12.48,1,1,0,0,0,.12.49,1,1,0,0,0,.33.33A.88.88,0,0,0,114.77,119.89Z"/><path class="cls-2" d="M119.61,121a1.72,1.72,0,0,1-1-.28A2,2,0,0,1,118,120a2.45,2.45,0,0,1-.23-1.05,2.38,2.38,0,0,1,.23-1,2,2,0,0,1,.66-.76,1.72,1.72,0,0,1,1-.28,1.74,1.74,0,0,1,.67.12,1.55,1.55,0,0,1,.48.27.76.76,0,0,1,.22.3v-3.24h1.46v6.6H121v-.63a1.28,1.28,0,0,1-.29.35,1.81,1.81,0,0,1-.49.29A1.68,1.68,0,0,1,119.61,121Zm.45-1.15a.94.94,0,0,0,.47-.12.87.87,0,0,0,.33-.33A1,1,0,0,0,121,119a1,1,0,0,0-.12-.49.87.87,0,0,0-.33-.33,1,1,0,0,0-.47-.13.88.88,0,0,0-.46.13.85.85,0,0,0-.32.33,1,1,0,0,0-.12.49,1,1,0,0,0,.12.48.85.85,0,0,0,.32.33A.88.88,0,0,0,120.06,119.89Z"/><path class="cls-2" d="M125.64,119.26a.66.66,0,0,0,.14.38.78.78,0,0,0,.33.26,1.28,1.28,0,0,0,.5.09,2,2,0,0,0,.51-.06,1.38,1.38,0,0,0,.39-.14,1.08,1.08,0,0,0,.25-.18l.57.9a1.36,1.36,0,0,1-.34.25,2.22,2.22,0,0,1-.57.2,4.47,4.47,0,0,1-.9.08,2.58,2.58,0,0,1-1.17-.25,1.81,1.81,0,0,1-.79-.71,2.16,2.16,0,0,1-.29-1.17,2.11,2.11,0,0,1,.25-1,1.77,1.77,0,0,1,.73-.73,2.3,2.3,0,0,1,1.15-.27,2.6,2.6,0,0,1,1.12.23,1.65,1.65,0,0,1,.73.7,2.4,2.4,0,0,1,.25,1.16v.15a.5.5,0,0,1,0,.15Zm1.49-.76a.71.71,0,0,0-.08-.31.68.68,0,0,0-.23-.25.75.75,0,0,0-.39-.1.73.73,0,0,0-.41.1.64.64,0,0,0-.25.24.75.75,0,0,0-.1.32Z"/><path class="cls-2" d="M130.15,117h.66v-1a1.8,1.8,0,0,1,.24-1,1.55,1.55,0,0,1,.64-.58,1.72,1.72,0,0,1,.8-.2,1.8,1.8,0,0,1,.79.14,1.26,1.26,0,0,1,.34.21l-.55,1.07a.69.69,0,0,0-.12-.11.42.42,0,0,0-.26-.07.39.39,0,0,0-.2,0,.34.34,0,0,0-.16.19.82.82,0,0,0-.07.39V117h1v1.2h-1v2.74h-1.45v-2.74h-.66Z"/><path class="cls-2" d="M138.1,120.92v-.63a1.21,1.21,0,0,1-.22.27,1.47,1.47,0,0,1-.46.33,1.44,1.44,0,0,1-.67.15,1.78,1.78,0,0,1-1-.28,1.94,1.94,0,0,1-.67-.75,2.2,2.2,0,0,1-.25-1.05,2.14,2.14,0,0,1,.25-1,1.9,1.9,0,0,1,.67-.76,1.78,1.78,0,0,1,1-.28,1.59,1.59,0,0,1,.64.12,1.55,1.55,0,0,1,.46.27,1.42,1.42,0,0,1,.24.3V117h1.45v3.94Zm-1,2.11a4.47,4.47,0,0,1-.82-.07,3,3,0,0,1-.75-.24,1.87,1.87,0,0,1-.6-.48l.86-.89a1.69,1.69,0,0,0,.27.26,1.36,1.36,0,0,0,.4.2,1.64,1.64,0,0,0,.58.09,1.2,1.2,0,0,0,.55-.12.83.83,0,0,0,.37-.32.92.92,0,0,0,.13-.51v-.1h1.44V121a1.77,1.77,0,0,1-.33,1.09,2,2,0,0,1-.87.68A3.21,3.21,0,0,1,137.11,123Zm-.85-4.07a1,1,0,0,0,.12.48.87.87,0,0,0,.33.33.94.94,0,0,0,.47.12.88.88,0,0,0,.46-.12.85.85,0,0,0,.32-.33,1,1,0,0,0,.12-.48,1,1,0,0,0-.12-.49.85.85,0,0,0-.32-.33.88.88,0,0,0-.46-.13,1,1,0,0,0-.47.13.87.87,0,0,0-.33.33A1,1,0,0,0,136.26,119Z"/><path class="cls-2" d="M144.41,116.87a1.9,1.9,0,0,1,.81.17,1.45,1.45,0,0,1,.65.53,1.62,1.62,0,0,1,.25,1v2.4h-1.46v-2.16a.94.94,0,0,0-.19-.64.65.65,0,0,0-.51-.21.88.88,0,0,0-.42.11,1,1,0,0,0-.32.32.91.91,0,0,0-.12.47v2.11h-1.46v-6.6h1.46v3.24a.92.92,0,0,1,.24-.32,1.6,1.6,0,0,1,.47-.26A1.46,1.46,0,0,1,144.41,116.87Z"/><path class="cls-2" d="M149,116.17a.82.82,0,0,1-.59-1.4.79.79,0,0,1,.59-.25.81.81,0,0,1,.41.11.86.86,0,0,1,.3.3.79.79,0,0,1,.12.42.77.77,0,0,1-.25.58A.8.8,0,0,1,149,116.17Zm-.75,4.75V117h1.46v3.94Z"/><path class="cls-2" d="M153.35,120.92h-1.46v-6.6h1.46Z"/><path class="cls-2" d="M160.91,116.87a1.67,1.67,0,0,1,.79.18,1.39,1.39,0,0,1,.53.57,2.21,2.21,0,0,1,.2,1v2.31H161v-2.09a1.45,1.45,0,0,0-.13-.67.48.48,0,0,0-.49-.25.71.71,0,0,0-.39.11.82.82,0,0,0-.26.32,1.22,1.22,0,0,0-.09.49v2.09h-1.34v-2.09a1.33,1.33,0,0,0-.14-.67.49.49,0,0,0-.48-.25.77.77,0,0,0-.39.11.73.73,0,0,0-.25.32,1.22,1.22,0,0,0-.09.49v2.09h-1.45V117h1.45v.56a.81.81,0,0,1,.25-.3,1.81,1.81,0,0,1,.48-.26,1.57,1.57,0,0,1,.61-.11,1.45,1.45,0,0,1,.59.1,1.08,1.08,0,0,1,.38.28,1.27,1.27,0,0,1,.25.37,1,1,0,0,1,.26-.35,2,2,0,0,1,.5-.29A2,2,0,0,1,160.91,116.87Z"/><path class="cls-2" d="M167.18,116.87a1.9,1.9,0,0,1,.81.17,1.45,1.45,0,0,1,.65.53,1.62,1.62,0,0,1,.25,1v2.4h-1.46v-2.16a.94.94,0,0,0-.2-.64.71.71,0,0,0-.53-.21.84.84,0,0,0-.41.11,1,1,0,0,0-.31.32,1,1,0,0,0-.11.47v2.11h-1.46V117h1.46v.58a.92.92,0,0,1,.24-.32,1.6,1.6,0,0,1,.47-.26A1.49,1.49,0,0,1,167.18,116.87Z"/><path class="cls-2" d="M172.94,121a2.41,2.41,0,0,1-1.15-.27A2,2,0,0,1,171,120a2.08,2.08,0,0,1,.78-2.9,2.41,2.41,0,0,1,1.15-.27,2.35,2.35,0,0,1,1.15.27,2,2,0,0,1,.77.75,2.2,2.2,0,0,1,0,2.15,1.93,1.93,0,0,1-.77.73A2.35,2.35,0,0,1,172.94,121Zm0-1.2a.9.9,0,0,0,.44-.11.77.77,0,0,0,.28-.31,1,1,0,0,0,.1-.46,1,1,0,0,0-.1-.46.87.87,0,0,0-.28-.32.9.9,0,0,0-.44-.11.86.86,0,0,0-.43.11.89.89,0,0,0-.29.32,1,1,0,0,0-.1.46,1,1,0,0,0,.1.46.79.79,0,0,0,.29.31A.86.86,0,0,0,172.94,119.84Z"/><path class="cls-2" d="M178.53,122.92h-1.45V117h1.46v.58a1.1,1.1,0,0,1,.26-.3,1.83,1.83,0,0,1,.48-.27,1.78,1.78,0,0,1,.67-.12,1.67,1.67,0,0,1,1,.28,1.88,1.88,0,0,1,.63.76,2.38,2.38,0,0,1,.22,1,2.45,2.45,0,0,1-.23,1.05,2,2,0,0,1-.66.75,1.77,1.77,0,0,1-1,.28,1.55,1.55,0,0,1-.71-.15,1.44,1.44,0,0,1-.45-.32,1.4,1.4,0,0,1-.21-.28Zm1.84-4a1,1,0,0,0-.12-.49.87.87,0,0,0-.33-.33.88.88,0,0,0-.46-.13,1,1,0,0,0-.47.13.87.87,0,0,0-.33.33,1,1,0,0,0-.12.49,1,1,0,0,0,.12.48.87.87,0,0,0,.33.33.94.94,0,0,0,.47.12.9.9,0,0,0,.79-.45A1,1,0,0,0,180.37,119Z"/><path class="cls-2" d="M186.92,122.92v-2.63a.89.89,0,0,1-.21.28,1.44,1.44,0,0,1-.45.32,1.55,1.55,0,0,1-.71.15,1.75,1.75,0,0,1-1-.28,1.84,1.84,0,0,1-.66-.75,2.31,2.31,0,0,1-.24-1.05,2.38,2.38,0,0,1,.22-1,1.83,1.83,0,0,1,.64-.76,1.66,1.66,0,0,1,1-.28,1.91,1.91,0,0,1,1.16.39,1.1,1.1,0,0,1,.26.3V117h1.45v5.94Zm-.94-3a.89.89,0,0,0,.47-.12.87.87,0,0,0,.33-.33,1,1,0,0,0,.13-.48,1,1,0,0,0-.13-.49.87.87,0,0,0-.33-.33A.89.89,0,0,0,186,118a.85.85,0,0,0-.45.13.87.87,0,0,0-.33.33,1,1,0,0,0-.12.49,1,1,0,0,0,.12.48.87.87,0,0,0,.33.33A.84.84,0,0,0,186,119.89Z"/><path class="cls-2" d="M191.69,120.92h-1.46V117h1.46v.61h0a1.06,1.06,0,0,1,.19-.28,1.63,1.63,0,0,1,.42-.31,1.47,1.47,0,0,1,.66-.13,1.59,1.59,0,0,1,.5.08,1.84,1.84,0,0,1,.34.16l-.57,1.19a.71.71,0,0,0-.24-.17.87.87,0,0,0-.42-.09.77.77,0,0,0-.49.15,1,1,0,0,0-.27.36,1,1,0,0,0-.09.4Z"/><path class="cls-2" d="M197.12,116.87a3.84,3.84,0,0,1,.71.06,3.34,3.34,0,0,1,.54.15,1.06,1.06,0,0,1,.28.13l-.47.86a2.59,2.59,0,0,0-.34-.17,1.42,1.42,0,0,0-.55-.11,1.13,1.13,0,0,0-.39.07.23.23,0,0,0-.16.22.27.27,0,0,0,.18.24,2.1,2.1,0,0,0,.5.16,2.66,2.66,0,0,1,.59.18,1.21,1.21,0,0,1,.5.37,1,1,0,0,1,.2.64,1.19,1.19,0,0,1-.18.68,1.27,1.27,0,0,1-.47.42,2.29,2.29,0,0,1-.64.21,3.68,3.68,0,0,1-.66.06A3.53,3.53,0,0,1,196,121a2.53,2.53,0,0,1-.54-.19,1.84,1.84,0,0,1-.29-.17l.47-1a1.92,1.92,0,0,0,.41.24,1.38,1.38,0,0,0,.6.13,1,1,0,0,0,.47-.09.28.28,0,0,0,.17-.24.26.26,0,0,0-.08-.19.82.82,0,0,0-.23-.13l-.36-.09-.41-.12a1.86,1.86,0,0,1-.41-.23,1,1,0,0,1-.31-.35,1.09,1.09,0,0,1-.12-.53.88.88,0,0,1,.25-.65,1.66,1.66,0,0,1,.66-.39A2.71,2.71,0,0,1,197.12,116.87Z"/><path class="cls-2" d="M200.34,117H201v-1.62h1.45V117h.88v1.2h-.88v1.1a.9.9,0,0,0,.07.4.27.27,0,0,0,.27.15.4.4,0,0,0,.22-.06l.11-.07.5,1-.21.11a2.69,2.69,0,0,1-.45.14,2.77,2.77,0,0,1-.6.06,1.43,1.43,0,0,1-1-.33,1.3,1.3,0,0,1-.39-1v-1.5h-.67Z"/><path class="cls-2" d="M206.75,118.81a1.49,1.49,0,0,0,.17.75.65.65,0,0,0,.6.28.63.63,0,0,0,.6-.28,1.39,1.39,0,0,0,.18-.75V117h1.44v2a2.26,2.26,0,0,1-.26,1.1,1.79,1.79,0,0,1-.76.73,3,3,0,0,1-2.4,0,1.71,1.71,0,0,1-.75-.73,2.26,2.26,0,0,1-.26-1.1v-2h1.44Z"/><path class="cls-2" d="M211.93,119.36v-1.24h2.47v1.24Z"/><path class="cls-2" d="M99.11,128.51h1.56l1,2.61.95-2.61h1.55l-1.65,3.94h-1.71Z"/><path class="cls-2" d="M107.75,130.16l-.92,2.29h-1.34l-1.3-3.94h1.55l.63,2.38.9-2.31h1l.9,2.31.63-2.38h1.55l-1.3,3.94h-1.33Z"/><path class="cls-2" d="M114.7,130.33l1.67,2.12h-1.61l-.94-1.22-.93,1.22h-1.51l1.68-2-1.51-1.94h1.64l.72,1,.77-1h1.48Z"/><path class="cls-2" d="M118.93,131.19l1.07-2.68h1.43l-2.71,5.94h-1.46l.91-2-1.64-3.94H118Z"/><path class="cls-2" d="M121.78,128.51h3.91l-2,2.92h1.81v1h-4.07l2-2.93h-1.65Z"/><path class="cls-2" d="M99.26,140.81a4.46,4.46,0,0,1,.21-1.44,3,3,0,0,1,.57-1,2.58,2.58,0,0,1,.83-.62,2.48,2.48,0,0,1,1-.2,2.29,2.29,0,0,1,1.8.82,3,3,0,0,1,.57,1,4.77,4.77,0,0,1,.2,1.44,5,5,0,0,1-.2,1.5,2.77,2.77,0,0,1-.57,1,2.25,2.25,0,0,1-.82.57,2.52,2.52,0,0,1-1,.19,2.47,2.47,0,0,1-1-.19,2.29,2.29,0,0,1-.83-.57,2.77,2.77,0,0,1-.57-1A4.68,4.68,0,0,1,99.26,140.81Zm1.45,0a3.94,3.94,0,0,0,.13,1.13,1.5,1.5,0,0,0,.4.67.94.94,0,0,0,1.21,0,1.48,1.48,0,0,0,.38-.67,3.66,3.66,0,0,0,.14-1.13,3.59,3.59,0,0,0-.14-1.1,1.62,1.62,0,0,0-.38-.69.88.88,0,0,0-1.21,0,1.64,1.64,0,0,0-.4.69A4,4,0,0,0,100.71,140.81Z"/><path class="cls-2" d="M105.88,139.46l-1,.52v-1.36l1.77-1h.67V144h-1.43Z"/><path class="cls-2" d="M110.58,138.74a1.07,1.07,0,0,0-.56.15,1.71,1.71,0,0,0-.4.35,2.86,2.86,0,0,0-.26.37,1.63,1.63,0,0,0-.09.2l-1.23-.57a.83.83,0,0,1,.09-.25,2.47,2.47,0,0,1,.26-.44,2.35,2.35,0,0,1,.47-.48,2.29,2.29,0,0,1,.71-.39,2.86,2.86,0,0,1,1-.16,3,3,0,0,1,1.12.19,1.88,1.88,0,0,1,.7.5,2.11,2.11,0,0,1,.37.67,2.49,2.49,0,0,1,.11.7,2.05,2.05,0,0,1-.17.8,3.41,3.41,0,0,1-.43.73,5.5,5.5,0,0,1-.56.62c-.2.19-.4.36-.58.5a5.14,5.14,0,0,1-.47.34l-.23.16h2.39V144h-4.55v-1.13l.33-.24.61-.46c.24-.18.48-.38.74-.6a7.79,7.79,0,0,0,.72-.68,4.56,4.56,0,0,0,.55-.68,1.2,1.2,0,0,0,.21-.62.8.8,0,0,0-.23-.64A1,1,0,0,0,110.58,138.74Z"/><path class="cls-2" d="M113.69,138.9a1.67,1.67,0,0,1,.21-.43,2,2,0,0,1,.42-.46,2.11,2.11,0,0,1,.65-.35,2.74,2.74,0,0,1,.9-.14,2.44,2.44,0,0,1,1.07.22,1.82,1.82,0,0,1,.74.63,1.59,1.59,0,0,1,.26.93,1.44,1.44,0,0,1-.11.59,1.55,1.55,0,0,1-.3.44.81.81,0,0,1-.38.23,1,1,0,0,1,.47.22,1.45,1.45,0,0,1,.4.5,1.51,1.51,0,0,1,.17.73,1.94,1.94,0,0,1-.3,1.07,2.15,2.15,0,0,1-.84.74,2.92,2.92,0,0,1-2.41,0,2.44,2.44,0,0,1-.78-.61,2.15,2.15,0,0,1-.39-.7l1.32-.65a1.77,1.77,0,0,0,.19.43,1.31,1.31,0,0,0,.36.38.79.79,0,0,0,.5.16,1.12,1.12,0,0,0,.5-.11.85.85,0,0,0,.43-.78.68.68,0,0,0-.13-.44.76.76,0,0,0-.34-.27,1.14,1.14,0,0,0-.46-.08h-.13v-1h.17a.83.83,0,0,0,.39-.09.73.73,0,0,0,.29-.26.81.81,0,0,0,.1-.39.69.69,0,0,0-.21-.51.78.78,0,0,0-.6-.22.93.93,0,0,0-.42.09.81.81,0,0,0-.3.21,1.15,1.15,0,0,0-.19.26,1,1,0,0,0-.09.23Z"/><path class="cls-2" d="M122.61,137.64v3.75h.74v1.25h-.74V144h-1.43v-1.33h-2.61V141.5l2.4-3.86Zm-1.43,3.75v-1.92h0L120,141.39Z"/><path class="cls-2" d="M125,142.19a1.51,1.51,0,0,0,.12.26.79.79,0,0,0,.19.22.85.85,0,0,0,.28.16,1.12,1.12,0,0,0,.38.06.89.89,0,0,0,.7-.29,1.1,1.1,0,0,0,.24-.74,1,1,0,0,0-.24-.69.84.84,0,0,0-.63-.25,1,1,0,0,0-.45.1,1.05,1.05,0,0,0-.31.21.93.93,0,0,0-.16.22L124,141l.56-3.38h3.57v1.24h-2.36l-.2,1.2.15-.11a2.45,2.45,0,0,1,.34-.13,1.73,1.73,0,0,1,.47-.06,2.06,2.06,0,0,1,.91.21,1.76,1.76,0,0,1,.71.65,2.14,2.14,0,0,1,.27,1.14,2.3,2.3,0,0,1-.3,1.22,2.06,2.06,0,0,1-.82.81,2.47,2.47,0,0,1-1.2.28,3.06,3.06,0,0,1-.9-.12,2,2,0,0,1-.66-.33,1.84,1.84,0,0,1-.44-.44,2,2,0,0,1-.26-.46Z"/><path class="cls-2" d="M131.75,139.75a2,2,0,0,1,1,.26,2,2,0,0,1,.75.73,2,2,0,0,1,.29,1.13,2.07,2.07,0,0,1-.31,1.14,2.18,2.18,0,0,1-.86.79,2.45,2.45,0,0,1-1.18.29,2.57,2.57,0,0,1-1.19-.27,2.15,2.15,0,0,1-.86-.78,2.32,2.32,0,0,1-.32-1.23,3.07,3.07,0,0,1,.26-1.32,4.38,4.38,0,0,1,.58-.92l1.57-1.93h1.68l-2,2.28a.53.53,0,0,1,.2-.11A1,1,0,0,1,131.75,139.75Zm-.35,3.17a1,1,0,0,0,.5-.14,1.06,1.06,0,0,0,.37-.36,1,1,0,0,0,.13-.52,1,1,0,0,0-.13-.5,1.06,1.06,0,0,0-.37-.36,1,1,0,0,0-1,0,1,1,0,0,0-.37.36,1,1,0,0,0-.14.5,1,1,0,0,0,.14.52,1,1,0,0,0,.88.5Z"/><path class="cls-2" d="M134.67,137.64h4.56v1L136.17,144h-1.59l3-5.09h-2.88Z"/><path class="cls-2" d="M142,144.09a2.79,2.79,0,0,1-1.15-.24,2.17,2.17,0,0,1-.85-.67,1.57,1.57,0,0,1-.32-1,1.81,1.81,0,0,1,.15-.76,1.52,1.52,0,0,1,.4-.53,2.12,2.12,0,0,1,.57-.36,2.67,2.67,0,0,1-.43-.32,1.19,1.19,0,0,1-.3-.43,1.48,1.48,0,0,1-.12-.63,1.4,1.4,0,0,1,.28-.88,1.86,1.86,0,0,1,.74-.58,2.75,2.75,0,0,1,2.06,0,1.8,1.8,0,0,1,.72.58,1.46,1.46,0,0,1,.27.88,1.37,1.37,0,0,1-.24.86,1.86,1.86,0,0,1-.59.52,2.12,2.12,0,0,1,.57.36,1.54,1.54,0,0,1,.41.53,1.81,1.81,0,0,1,.15.76,1.57,1.57,0,0,1-.32,1,2.17,2.17,0,0,1-.85.67A2.72,2.72,0,0,1,142,144.09Zm0-1.25a.88.88,0,0,0,.42-.11.81.81,0,0,0,.29-.29.78.78,0,0,0,.11-.42.74.74,0,0,0-.11-.41.81.81,0,0,0-.29-.29.78.78,0,0,0-.42-.11.88.88,0,0,0-.42.11.92.92,0,0,0-.3.29.84.84,0,0,0-.11.41.88.88,0,0,0,.11.42.92.92,0,0,0,.3.29A.88.88,0,0,0,142,142.84Zm0-2.74a.66.66,0,0,0,.37-.1.7.7,0,0,0,.27-.27.76.76,0,0,0,.1-.37.75.75,0,0,0-.1-.36.87.87,0,0,0-.27-.27.66.66,0,0,0-.37-.1.69.69,0,0,0-.37.1.87.87,0,0,0-.27.27.75.75,0,0,0-.1.36.76.76,0,0,0,.1.37.7.7,0,0,0,.27.27A.69.69,0,0,0,142,140.1Z"/><path class="cls-2" d="M145.65,144l2-2.28a.71.71,0,0,1-.2.11,1,1,0,0,1-.38.06,2,2,0,0,1-1-.26,2.15,2.15,0,0,1-.75-.72,2.11,2.11,0,0,1-.3-1.14,2.08,2.08,0,0,1,.32-1.14,2.25,2.25,0,0,1,.86-.79,2.43,2.43,0,0,1,1.18-.29,2.57,2.57,0,0,1,1.19.27,2.15,2.15,0,0,1,.86.78,2.32,2.32,0,0,1,.31,1.23,3.08,3.08,0,0,1-.25,1.32,4.38,4.38,0,0,1-.58.92L147.33,144Zm1.74-3.26a1,1,0,0,0,.5-.14,1,1,0,0,0,.51-.87,1,1,0,0,0-.14-.51,1.06,1.06,0,0,0-.37-.36,1,1,0,0,0-1.38.36,1,1,0,0,0-.14.51,1,1,0,0,0,1,1Z"/><path class="cls-2" d="M151.58,144.09a.85.85,0,0,1-.61-.26.83.83,0,0,1-.26-.61.89.89,0,0,1,.87-.88.84.84,0,0,1,.62.26.85.85,0,0,1,.26.62.89.89,0,0,1-.88.87Z"/><path class="cls-2" d="M154.44,142.34a.89.89,0,0,1,.62.25,1,1,0,0,1,.26.74,2.08,2.08,0,0,1-.18.84,2.94,2.94,0,0,1-.47.73,2.57,2.57,0,0,1-.64.52l-.39-.44a2.64,2.64,0,0,0,.36-.23,2.81,2.81,0,0,0,.35-.34,1.3,1.3,0,0,0,.23-.41.62.62,0,0,1-.27.05.72.72,0,0,1-.52-.22.85.85,0,0,1-.23-.61.84.84,0,0,1,.12-.45.8.8,0,0,1,.32-.31A.83.83,0,0,1,154.44,142.34Z"/><path class="cls-2" d="M157.41,141.9V141a.86.86,0,0,1,.15-.52,1.09,1.09,0,0,1,.41-.35l.33-.22a1.23,1.23,0,0,0,.27-.29.66.66,0,0,0,.11-.36.47.47,0,0,0-.18-.41.84.84,0,0,0-.51-.13.77.77,0,0,0-.42.11.9.9,0,0,0-.27.28,1.2,1.2,0,0,0-.15.3L156,139a1.26,1.26,0,0,1,.09-.23,3.74,3.74,0,0,1,.24-.37,2.39,2.39,0,0,1,.43-.39,2.06,2.06,0,0,1,.61-.31,2.49,2.49,0,0,1,.85-.13,2.71,2.71,0,0,1,1.06.19,1.65,1.65,0,0,1,.73.52,1.3,1.3,0,0,1,.27.82,1.29,1.29,0,0,1-.19.72,2.3,2.3,0,0,1-.47.51c-.18.14-.35.26-.49.35a.78.78,0,0,0-.33.32,1,1,0,0,0-.09.47v.48Zm.65,2.19a.85.85,0,0,1-.62-.26.82.82,0,0,1-.25-.61.88.88,0,1,1,1.75,0,.83.83,0,0,1-.26.61A.85.85,0,0,1,158.06,144.09Z"/><path class="cls-2" d="M161.92,144.09a.82.82,0,0,1-.43-.12,1,1,0,0,1-.32-.31.83.83,0,0,1-.12-.44.85.85,0,0,1,.26-.62.81.81,0,0,1,.61-.26.82.82,0,0,1,.63.26.84.84,0,0,1,.25.62.82.82,0,0,1-.25.61A.86.86,0,0,1,161.92,144.09Zm-.48-2.19-.3-4.53h1.57l-.29,4.53Z"/><path class="cls-2" d="M163.62,142.26a1.45,1.45,0,0,1,.13-.63,1.67,1.67,0,0,1,.34-.48,2.33,2.33,0,0,1,.44-.35,2.93,2.93,0,0,1,.43-.22,2.32,2.32,0,0,1,.32-.12,1.06,1.06,0,0,1-.24-.18,1.53,1.53,0,0,1-.25-.3,1.62,1.62,0,0,1-.18-.4,1.57,1.57,0,0,1-.08-.49,1.44,1.44,0,0,1,.23-.77,1.63,1.63,0,0,1,.68-.58,2.45,2.45,0,0,1,1.1-.22,2.34,2.34,0,0,1,1.05.21,1.49,1.49,0,0,1,.62.57,1.59,1.59,0,0,1,.21.82,1.19,1.19,0,0,1-.14.56,1.89,1.89,0,0,1-.34.46,4.14,4.14,0,0,1-.43.35,3,3,0,0,1-.39.23l.91,1a3.14,3.14,0,0,0,.34-.33,5.49,5.49,0,0,0,.48-.59l1,.87-.22.28a3.27,3.27,0,0,1-.3.35,2.86,2.86,0,0,1-.32.3L170.3,144h-1.8l-.63-.66a4.07,4.07,0,0,1-.55.38,3.78,3.78,0,0,1-.7.29,3.36,3.36,0,0,1-.88.11,2.54,2.54,0,0,1-1-.21,1.7,1.7,0,0,1-.78-.61A1.64,1.64,0,0,1,163.62,142.26Zm2.36-.95-.15.08-.19.11a1,1,0,0,0-.19.17,1.1,1.1,0,0,0-.14.21.51.51,0,0,0-.06.25.54.54,0,0,0,.1.35.51.51,0,0,0,.27.2.92.92,0,0,0,.38.07,1,1,0,0,0,.38-.07,1.66,1.66,0,0,0,.33-.15l.25-.17Zm.55-2.7a.7.7,0,0,0-.33.07.46.46,0,0,0-.2.19.4.4,0,0,0-.07.24.61.61,0,0,0,.07.28,1.35,1.35,0,0,0,.15.26l.15.2.09.1.17-.09a1.71,1.71,0,0,0,.25-.18,1.07,1.07,0,0,0,.22-.25.69.69,0,0,0,.08-.32.49.49,0,0,0-.15-.36A.57.57,0,0,0,166.53,138.61Z"/><path class="cls-2" d="M173.75,144.09a3.51,3.51,0,0,1-1.31-.24,3.33,3.33,0,0,1-1.08-.67,3,3,0,0,1-.72-1,3.24,3.24,0,0,1-.27-1.34,3.2,3.2,0,0,1,.28-1.33,3.14,3.14,0,0,1,.76-1,3.25,3.25,0,0,1,1.1-.67,3.85,3.85,0,0,1,2.62,0,3.63,3.63,0,0,1,1.1.63,2.88,2.88,0,0,1,.76,1,2.69,2.69,0,0,1,.28,1.24,1.68,1.68,0,0,1-.25,1,1.46,1.46,0,0,1-.62.54,1.63,1.63,0,0,1-.74.17.89.89,0,0,1-.53-.14.91.91,0,0,1-.32-.33,1.11,1.11,0,0,1-.22.29,1.05,1.05,0,0,1-.39.25,1.74,1.74,0,0,1-.65.1,1.52,1.52,0,0,1-.8-.22,1.67,1.67,0,0,1-.56-.59,1.6,1.6,0,0,1-.21-.81,1.49,1.49,0,0,1,.19-.77,1.4,1.4,0,0,1,.51-.54,1.45,1.45,0,0,1,.76-.19,1.2,1.2,0,0,1,.38.05,1.36,1.36,0,0,1,.33.14,1.39,1.39,0,0,1,.27.21v-.31h.9v1.51a.58.58,0,0,0,0,.18.4.4,0,0,0,.1.18.37.37,0,0,0,.23.07.39.39,0,0,0,.26-.09.51.51,0,0,0,.17-.26,1.53,1.53,0,0,0,.06-.47,1.8,1.8,0,0,0-.17-.8,1.83,1.83,0,0,0-.48-.63,2.18,2.18,0,0,0-.74-.43,2.75,2.75,0,0,0-.93-.15,2.36,2.36,0,0,0-.92.18,2.27,2.27,0,0,0-.75.49,2.29,2.29,0,0,0-.51.73,2.19,2.19,0,0,0,0,1.76,2.34,2.34,0,0,0,.48.71,2.41,2.41,0,0,0,.73.47,2.68,2.68,0,0,0,1.52.09,1.82,1.82,0,0,0,.46-.19.93.93,0,0,0,.27-.22l.91.78a1.65,1.65,0,0,1-.43.35,3.09,3.09,0,0,1-.77.3A3.82,3.82,0,0,1,173.75,144.09Zm0-2.61a.63.63,0,0,0,.46-.19.69.69,0,0,0,.17-.46.65.65,0,0,0-.08-.31.8.8,0,0,0-.23-.22.69.69,0,0,0-.32-.08.63.63,0,0,0-.46.18.6.6,0,0,0-.18.44.61.61,0,0,0,.18.45A.58.58,0,0,0,173.79,141.48Z"/><path class="cls-2" d="M182.09,143.1l-4.21-1.78v-1.08l4.21-1.79v1.26l-2.71,1.07,2.71,1.06Z"/><path class="cls-2" d="M183.13,143.1v-1.26l2.7-1.06-2.7-1.07v-1.26l4.19,1.79v1.08Z"/><path class="cls-2" d="M270.05,88.57c-5.6-1.66-13-.28-15.47.9a19.63,19.63,0,0,0-6.41,4.81,21.67,21.67,0,0,0-4.15,7.1,25.85,25.85,0,0,0,0,17.13,21.94,21.94,0,0,0,4.15,7.09,18.92,18.92,0,0,0,14.57,6.55,23.89,23.89,0,0,0,7.1-1,16.57,16.57,0,0,0,5.53-2.86,14.07,14.07,0,0,0,3.68-4.43,14.65,14.65,0,0,0,1.62-5.64H262.19V105.69h37v4.62a40.16,40.16,0,0,1-2.61,14.58,36,36,0,0,1-7.46,11.88,33.88,33.88,0,0,1-11.55,8,37.41,37.41,0,0,1-14.85,2.86,39,39,0,0,1-15.26-2.88,35,35,0,0,1-11.8-8.06,35.81,35.81,0,0,1-7.59-12,42.16,42.16,0,0,1,0-29.37,35.58,35.58,0,0,1,7.59-12,35.06,35.06,0,0,1,11.8-8,38.83,38.83,0,0,1,15.26-2.89c4.59,0,9.58,1.31,13.08,2.3Z"/><path class="cls-2" d="M293.38,93.48a9.44,9.44,0,0,1-9.46-9.41,9.21,9.21,0,0,1,2.78-6.68,9.31,9.31,0,0,1,11.41-1.54,10.17,10.17,0,0,1,3.46,3.44,9.28,9.28,0,0,1-1.48,11.41A9.22,9.22,0,0,1,293.38,93.48Z"/></g></g></svg>