<svg xmlns="http://www.w3.org/2000/svg" viewBox="0 0 52.93 52.93"><defs><style>.cls-1{fill:#d40e19;}</style></defs><g id="Livello_2" data-name="Livello 2"><g id="Livello_1-2" data-name="Livello 1"><path class="cls-1" d="M0,26.47A26.47,26.47,0,1,0,26.47,0,26.47,26.47,0,0,0,0,26.47ZM26.33,8.1a2.9,2.9,0,0,1,1.1.3,2.7,2.7,0,0,1,.86.68L41.61,24.64a2.82,2.82,0,0,1-.31,4,2.84,2.84,0,0,1-4-.3L29,18.53V42a2.81,2.81,0,0,1-5.62,0V18.84l-7.69,9.41a2.81,2.81,0,0,1-4,.42,2.85,2.85,0,0,1-.4-4L23.92,9.2a2.84,2.84,0,0,1,2.24-1.1Z"/></g></g></svg>