<svg xmlns="http://www.w3.org/2000/svg" viewBox="0 0 113.59 113.95"><defs><style>.cls-1{fill:#fff;}</style></defs><g id="Livello_2" data-name="Livello 2"><g id="Livello_1-2" data-name="Livello 1"><path class="cls-1" d="M97.22,0H60.12L56.17,3.47C47.39,11.18,38.65,18.92,29.88,26.6,21.66,33.88,13.44,41.08,5.23,48.33c-.6.52-1.42,1.1-1.21,2a.93.93,0,0,0,.17.36c.33.59,1.24.54,1.86.67,8.41,1.83,16.8,3.64,25.23,5.42,4.44,1,8.92,1.79,13.37,2.78,1.28.27,1.86.63,1.91,1.16a2.87,2.87,0,0,1-.86,1.59Q35.35,74,25,85.77C16.68,95.15,8.31,104.52,0,114H17.66L40.74,96.07C54,85.79,67.16,75.46,80.43,65.23l.46-.38,10.75-8.52.41-.3-8-1.59c-9.19-1.95-18.4-3.93-27.6-5.85-.54-.14-1.19-.13-1.51-.59a1,1,0,0,1-.14-.29c-.21-.81.52-1.15,1-1.57,1.83-1.51,3.64-3,5.47-4.44q22-17.72,44-35.38l4.08-3.62L113.59,0Z"/></g></g></svg>