<svg xmlns="http://www.w3.org/2000/svg" xmlns:xlink="http://www.w3.org/1999/xlink" viewBox="0 0 280.33 396.77"><defs><style>.cls-1{fill:url(#Sfumatura_senza_nome_2);}.cls-2,.cls-23{fill:none;}.cls-3{clip-path:url(#clip-path);}.cls-4{clip-path:url(#clip-path-2);}.cls-5{opacity:0.07;}.cls-6{fill:#1d1d1b;}.cls-7{fill:#662d37;}.cls-8{fill:#833644;}.cls-9{fill:#582f31;}.cls-10{clip-path:url(#clip-path-6);}.cls-11{fill:#e5e3f1;}.cls-12{fill:#ae3348;}.cls-13,.cls-31{fill:#fff;}.cls-14{opacity:0.49;}.cls-15{clip-path:url(#clip-path-7);}.cls-16{fill:#fdf7c6;}.cls-17{fill:#ffd723;}.cls-18{clip-path:url(#clip-path-8);}.cls-19{mask:url(#mask);}.cls-20{fill:url(#Sfumatura_senza_nome);}.cls-21{opacity:0.5;}.cls-22{clip-path:url(#clip-path-10);}.cls-23{stroke:#1d1d1b;stroke-linecap:round;stroke-linejoin:round;}.cls-24{clip-path:url(#clip-path-11);}.cls-25{fill:url(#Sfumatura_senza_nome_3);}.cls-26{fill:#822d3c;}.cls-27{clip-path:url(#clip-path-13);}.cls-28{fill:url(#Sfumatura_senza_nome_4);}.cls-29{clip-path:url(#clip-path-14);}.cls-30{fill:url(#Sfumatura_senza_nome_5);}.cls-31{font-size:4.15px;font-family:Arial-BoldMT, Arial;font-weight:700;}.cls-32{letter-spacing:-0.07em;}.cls-33{letter-spacing:0em;}</style><linearGradient id="Sfumatura_senza_nome_2" x1="-7071.01" y1="-2298.9" x2="-7070.67" y2="-2298.9" gradientTransform="matrix(1328.09, 0, 0, -1328.09, 9390980.91, -3052838.29)" gradientUnits="userSpaceOnUse"><stop offset="0" stop-color="#7d7d7d"/><stop offset="1" stop-color="#fff"/></linearGradient><clipPath id="clip-path"><rect class="cls-2" width="280.33" height="396.77" transform="translate(280.33 396.77) rotate(-180)"/></clipPath><clipPath id="clip-path-2"><rect class="cls-2" width="280.33" height="396.77"/></clipPath><clipPath id="clip-path-6"><rect class="cls-2" width="280.33" height="396.77"/></clipPath><clipPath id="clip-path-7"><rect class="cls-2" x="-165.69" y="184.93" width="573.93" height="342.28"/></clipPath><clipPath id="clip-path-8"><polygon class="cls-2" points="0 356.39 0 361.9 0.85 396.44 241.33 396.44 280.33 348.97 280.33 238.49 0 356.39"/></clipPath><mask id="mask" x="-65.83" y="121.65" width="412" height="391.63" maskUnits="userSpaceOnUse"><rect class="cls-1" x="-20.69" y="181.58" width="321.7" height="271.78" transform="translate(-133.51 104.08) rotate(-28.23)"/></mask><linearGradient id="Sfumatura_senza_nome" x1="-7071.01" y1="-2298.9" x2="-7070.67" y2="-2298.9" gradientTransform="matrix(1328.09, 0, 0, -1328.09, 9390980.96, -3052838.81)" gradientUnits="userSpaceOnUse"><stop offset="0" stop-color="#fdf7c6"/><stop offset="0.16" stop-color="#e7d4af"/><stop offset="0.57" stop-color="#b28076"/><stop offset="0.86" stop-color="#904b52"/><stop offset="1" stop-color="#833644"/></linearGradient><clipPath id="clip-path-10"><rect class="cls-2" x="-123.1" y="313.96" width="393.34" height="177.18"/></clipPath><clipPath id="clip-path-11"><polygon class="cls-2" points="0 184.83 0 214.77 0 214.84 200.68 148.97 199.26 129.79 0 184.83"/></clipPath><linearGradient id="Sfumatura_senza_nome_3" x1="-7083.44" y1="-2305.63" x2="-7083.11" y2="-2305.63" gradientTransform="matrix(0, -530.51, -530.51, 0, -1223058.9, -3757569.89)" gradientUnits="userSpaceOnUse"><stop offset="0" stop-color="#352939"/><stop offset="0.35" stop-color="#352939"/><stop offset="0.35" stop-color="#372939"/><stop offset="0.49" stop-color="#592c38"/><stop offset="0.57" stop-color="#662d37"/><stop offset="1" stop-color="#662d37"/></linearGradient><clipPath id="clip-path-13"><polygon class="cls-2" points="77.57 214.55 177.46 269.28 176.91 247.37 77.57 197.05 77.57 214.55"/></clipPath><linearGradient id="Sfumatura_senza_nome_4" x1="-7075.89" y1="-2269.87" x2="-7075.56" y2="-2269.87" gradientTransform="matrix(-299.95, 0, 0, 299.95, -2122249.99, 681087.49)" gradientUnits="userSpaceOnUse"><stop offset="0" stop-color="#2e2933"/><stop offset="0.29" stop-color="#2e2933"/><stop offset="0.46" stop-color="#4a2d32"/><stop offset="0.56" stop-color="#582f32"/><stop offset="1" stop-color="#582f32"/></linearGradient><clipPath id="clip-path-14"><polygon class="cls-2" points="176.91 247.37 177.46 264.64 280.33 221.66 280.33 206.26 176.91 247.37"/></clipPath><linearGradient id="Sfumatura_senza_nome_5" x1="-7057.89" y1="-2278.99" x2="-7057.56" y2="-2278.99" gradientTransform="matrix(0, 318.48, 318.48, 0, 726044.67, 2248008.19)" gradientUnits="userSpaceOnUse"><stop offset="0" stop-color="#2e2933"/><stop offset="0.18" stop-color="#2e2933"/><stop offset="0.19" stop-color="#312933"/><stop offset="0.28" stop-color="#4d2d32"/><stop offset="0.33" stop-color="#582f32"/><stop offset="1" stop-color="#582f32"/></linearGradient></defs><g id="Livello_2" data-name="Livello 2"><g id="Livello_1-2" data-name="Livello 1"><g class="cls-3"><g class="cls-4"><g class="cls-4"><g class="cls-4"><g class="cls-5"><g class="cls-4"><rect class="cls-6" width="280.33" height="396.77"/></g></g></g><rect class="cls-7" width="280.33" height="396.77"/><polygon class="cls-8" points="256.06 119.75 249.66 122.15 239.21 126.06 96.03 179.69 77.21 186.75 75.86 187.26 0 215.67 0 396.77 280.33 396.77 279.97 110.8 256.06 119.75"/><polygon class="cls-9" points="274.96 102.54 238.2 116.41 228.03 120.25 217.92 124.06 217.91 124.06 77.57 177.01 96.4 186.43 171.76 224.14 280.33 180.53 280.33 100.51 274.96 102.54"/><polygon class="cls-9" points="77.57 224.14 178.25 277.74 280.33 234.74 280.33 180.53 171.76 224.14 96.4 186.43 77.57 177.01 77.57 224.14"/><g class="cls-10"><path class="cls-11" d="M280.33,104.62v31.23l-23.91-9.36-14-5.46a6.67,6.67,0,0,1,.44-12.73l23-7.42a7.78,7.78,0,0,1,5.15.14l3.9,1.52Z"/><path class="cls-12" d="M99.14,300.55,24.8,254.31c-4.42-2.75-4.23-6.57.37-8.56l33.2-14.4c4.51-1.95,11.89-1.46,16.56,1.12l78.35,43.35c5.74,3.17,6.45,7.62,1.5,9.89L118.24,302.5c-5.06,2.33-13.65,1.44-19.1-1.95"/><path class="cls-13" d="M61.65,255.55l-5.87-3.49,12.83-5.63c.4-.17.39-.5,0-.74l-2-1.15a1.78,1.78,0,0,0-1.44-.1L50,251.07c-.4.17-.4.51,0,.75l8.54,5.1A1.81,1.81,0,0,0,60,257l1.67-.73c.4-.18.39-.52,0-.76"/><path class="cls-13" d="M83.38,253.94a19.87,19.87,0,0,0-16.91-.85c-5,2.21-5.33,5.65-.72,8.41a19.5,19.5,0,0,0,17.14.91c5.06-2.25,5.23-5.74.49-8.47M69,260.19c-3-1.75-1.44-3.8,1.2-5,2.83-1.25,7-1.72,10,0s1.52,3.81-1.16,5C76.2,261.51,72,262,69,260.19"/><path class="cls-13" d="M105.29,266.8,103,265.45a2,2,0,0,0-1.26-.21L91.1,267.05l-4.46.8c.72-.64,1.45-1.33,2.24-2.11l5.1-4.92c.2-.2.11-.46-.23-.66l-2.31-1.33a2,2,0,0,0-.93-.22,1.09,1.09,0,0,0-.77.23L79.51,268.92c-.21.2-.12.47.22.67l2.35,1.4a1.91,1.91,0,0,0,1.23.22l21.75-3.52c.32-.06.53-.19.58-.37s-.08-.37-.35-.52"/><path class="cls-13" d="M116,287l1.32-6.53c.07-.32-.39-.66-1-.76l-23.39-4a1.8,1.8,0,0,0-.81,0,.56.56,0,0,0-.42.34l-1.58,6.65a.46.46,0,0,0,.22.46l.12.08a1.89,1.89,0,0,0,.62.22l2.53.44c.61.11,1.16-.06,1.24-.37L95.9,279l6.2,1.06-.91,4.09c-.07.31.37.65,1,.76l2.52.44a1.89,1.89,0,0,0,.83,0,.57.57,0,0,0,.42-.35l.88-4.1,5.23.89-.91,4.4a.46.46,0,0,0,.24.46,1.74,1.74,0,0,0,.77.31l2.59.45c.63.11,1.19-.06,1.25-.38"/><g class="cls-14"><g class="cls-15"><polyline class="cls-16" points="-165.69 427.29 408.23 184.94 140.17 527.22"/></g></g><path class="cls-13" d="M17.36,31.8l5.47-.05L23,41.28l-5.46.17Zm.25,14.07,5.45-.23.62,36.15-5.4.65Z"/><polygon class="cls-13" points="26.44 31.71 31.71 31.65 32.46 80.74 27.25 81.37 26.44 31.71"/><path class="cls-17" d="M43.64,44.81l4.54-.19.06,5a16.65,16.65,0,0,1,1.9-4.55,2.93,2.93,0,0,1,2.34-1.41A2.52,2.52,0,0,1,54.82,45a13.36,13.36,0,0,1,1.42,4.21,18,18,0,0,1,1.94-4.59,2.73,2.73,0,0,1,2.17-1.27q1.9-.07,3,3.06t1.14,9.84l.17,20.62-4.49.54L60,58.53a13,13,0,0,0-.35-3.34c-.31-1.13-.7-1.69-1.15-1.66s-1,.61-1.29,1.73a20.18,20.18,0,0,0-.44,5.31l.17,17.25-4.65.55-.21-18.61c0-1.49-.06-2.5-.13-3a6.58,6.58,0,0,0-.54-2c-.26-.51-.55-.75-.89-.73-.55,0-1,.63-1.33,1.79a21.21,21.21,0,0,0-.47,5.64l.21,17.38-4.84.57Z"/><path class="cls-17" d="M66.61,60.41a37.61,37.61,0,0,1,1.67-12.48Q70,43,73,42.88c2.23-.09,3.9,1.72,5,5.39a38.38,38.38,0,0,1,1.4,10.93A38.35,38.35,0,0,1,77.8,71.36q-1.64,4.88-4.61,5.24c-1.79.21-3.26-.93-4.4-3.44-1.41-3.13-2.14-7.39-2.18-12.75M71,60a24.13,24.13,0,0,0,.65,6.34q.63,2,1.53,1.92c.62-.07,1.11-.79,1.5-2.18a26.31,26.31,0,0,0,.54-6.54,24,24,0,0,0-.63-6.18c-.4-1.34-.9-2-1.49-2s-1.13.76-1.53,2.19A24.77,24.77,0,0,0,71,60"/><path class="cls-17" d="M80.68,66.22l4-1.51a9.52,9.52,0,0,0,.71,3,1.17,1.17,0,0,0,1.18.78c.53,0,.94-.44,1.23-1.15a4.84,4.84,0,0,0,.33-1.93,3.46,3.46,0,0,0-.45-1.94A4.5,4.5,0,0,0,86,62.36a9.13,9.13,0,0,1-2.92-1.77,7.06,7.06,0,0,1-1.4-3,20.12,20.12,0,0,1-.6-5.06,21.23,21.23,0,0,1,.59-5.43,8.14,8.14,0,0,1,1.67-3.47,3.88,3.88,0,0,1,2.84-1.22,3.73,3.73,0,0,1,2.75.74,6.24,6.24,0,0,1,1.47,2.58,27.08,27.08,0,0,1,1,4.76l-3.73,1.34a6.53,6.53,0,0,0-.5-2.17c-.31-.62-.69-.91-1.14-.88a1.11,1.11,0,0,0-1,.77,4.58,4.58,0,0,0-.3,1.78A3,3,0,0,0,85.1,53a3.15,3.15,0,0,0,1.72,1,5.65,5.65,0,0,1,2.94,1.66,7.94,7.94,0,0,1,1.46,3.29,21.43,21.43,0,0,1,.52,4.79,26.13,26.13,0,0,1-.52,5.23,10.94,10.94,0,0,1-1.67,4.19A4.32,4.32,0,0,1,86.4,75,3.72,3.72,0,0,1,82.3,73a18,18,0,0,1-1.62-6.82"/><path class="cls-17" d="M98.11,31l0,11.63,2.06-.08V51l-2.06.13V61.87a17.54,17.54,0,0,0,.13,2.54c.12.63.34.93.64.9s.66-.31,1.15-.85l.28,7.91a5.17,5.17,0,0,1-2.58,1.24,2,2,0,0,1-2.07-.86,8.45,8.45,0,0,1-1-3.27,58.16,58.16,0,0,1-.34-7.34l0-10.77-1.42.09,0-8.66,1.42,0V37.09Z"/><path class="cls-17" d="M102,42.43l3.42-.14v4.9a20.93,20.93,0,0,1,1-4.42c.35-.81.77-1.22,1.28-1.24s1.1.48,1.72,1.49l-1.11,8.14c-.42-.53-.75-.79-1-.78-.47,0-.83.67-1.09,1.92a56.13,56.13,0,0,0-.56,9.77V72l-3.65.43Z"/><path class="cls-17" d="M119.11,46.1c-.89-3.3-2.23-4.93-4-4.86-1.59.06-2.85,1.57-3.8,4.51a37.16,37.16,0,0,0-1.43,11.18,31.88,31.88,0,0,0,1.66,11.45c.9,2.27,2.06,3.31,3.5,3.14,1.61-.2,2.85-1.75,3.76-4.66.18-.58.35-1.2.49-1.85l0-.06v-.09c.12-.54.23-1.1.32-1.68l-.95,1.1v-1.6L117.75,65V63.53l-1,.71.53-1.74h-1.12l0,0c-.07.22-.14.41-.21.58-.26.58-.55.89-.88.92-.49,0-.9-.53-1.22-1.73a24,24,0,0,1-.47-5.7,24.62,24.62,0,0,1,.5-5.75c.33-1.28.75-1.93,1.25-2s.86.57,1.18,1.77a23.24,23.24,0,0,1,.46,5.56q0,1,0,1.92c0,.56-.06,1.08-.1,1.55a1.25,1.25,0,0,1,.55-.9v1.64l.59-.82v1.26l.83-1.38-.3,2.05.67-1.38.3.49V59.51l.35.9.41-.93v0c.08-1.11.11-2.29.12-3.52a38.22,38.22,0,0,0-1-9.84m-1.62,9.42a9.19,9.19,0,0,1,.9,2c-1.26-.27-.9-2-.9-2M119,57.73a7.83,7.83,0,0,1,.8-1.44c.41.89-.8,1.44-.8,1.44"/><path class="cls-13" d="M127.3,41.4l3-.12,0,4.55a17.51,17.51,0,0,1,1.35-4,2,2,0,0,1,1.64-1.25c.86,0,1.52.81,2,2.53a32.16,32.16,0,0,1,.67,8l-.12,17.34-3.08.37.09-15.13a16.47,16.47,0,0,0-.26-3.66c-.19-.71-.45-1-.8-1s-.69.53-.93,1.52a27,27,0,0,0-.39,5.29L130.33,69l-3.17.38Z"/><path class="cls-13" d="M137.31,54.72a37.26,37.26,0,0,1,1.29-10.35c.82-2.73,1.92-4.12,3.28-4.17q2.31-.09,3.43,4.52a38.06,38.06,0,0,1,.84,9.14A37.48,37.48,0,0,1,144.92,64c-.8,2.7-1.88,4.13-3.26,4.3s-2.24-.83-3-2.94a31.83,31.83,0,0,1-1.36-10.63m3-.27a23.25,23.25,0,0,0,.38,5.29c.27,1.12.61,1.66,1,1.62s.78-.64,1.06-1.79a26.26,26.26,0,0,0,.45-5.45,23.17,23.17,0,0,0-.37-5.16c-.26-1.12-.6-1.67-1-1.65s-.79.63-1.08,1.81a24.43,24.43,0,0,0-.46,5.33"/><path class="cls-13" d="M147.65,40.58l2.64-.11,0,4.29A17.54,17.54,0,0,1,151.47,41c.41-.76.9-1.16,1.46-1.18.77,0,1.36.77,1.77,2.39a32.46,32.46,0,0,1,.56,7.54l-.18,16.38-2.75.33.14-14.28a16.13,16.13,0,0,0-.21-3.46c-.16-.67-.4-1-.7-1s-.62.49-.84,1.43a26.21,26.21,0,0,0-.36,5l-.13,12.55-2.82.33Z"/><path class="cls-13" d="M168.64,30.23l-.46,34.28-2.36.28,0-3.67a17,17,0,0,1-1,3.27c-.38.76-.8,1.17-1.25,1.23q-1.38.16-2.07-3.66a52.69,52.69,0,0,1-.62-9.48,44.26,44.26,0,0,1,.93-9.71c.57-2.25,1.27-3.4,2.1-3.43a1.29,1.29,0,0,1,1.08.72,7.33,7.33,0,0,1,.84,2.23l.16-12Zm-2.83,22.05a21.05,21.05,0,0,0-.28-4.36c-.21-1-.48-1.42-.82-1.4s-.56.5-.77,1.44a25.09,25.09,0,0,0-.37,4.72,22.91,22.91,0,0,0,.26,4.48c.2.93.45,1.38.76,1.35s.6-.54.83-1.52a24.14,24.14,0,0,0,.39-4.71"/><path class="cls-13" d="M169.56,52.12a37,37,0,0,1,1.13-9.37c.69-2.48,1.6-3.73,2.72-3.77q1.91-.07,2.79,4.11a37.17,37.17,0,0,1,.64,8.31,37.33,37.33,0,0,1-1.08,9.21q-1,3.66-2.71,3.87c-1,.12-1.84-.78-2.45-2.7a31.73,31.73,0,0,1-1-9.66M172,51.9a23.7,23.7,0,0,0,.28,4.81q.31,1.53.84,1.47c.35,0,.64-.57.88-1.62a25.68,25.68,0,0,0,.41-4.94,23.68,23.68,0,0,0-.27-4.69c-.21-1-.48-1.52-.82-1.5s-.65.57-.9,1.64A24.45,24.45,0,0,0,172,51.9"/><path class="cls-13" d="M178.19,39.33l2.2-.08-.07,3.92a19.55,19.55,0,0,1,.71-3.53c.23-.65.51-1,.83-1s.71.39,1.09,1.21l-.81,6.52c-.27-.43-.48-.64-.64-.63s-.54.53-.72,1.53a54.19,54.19,0,0,0-.49,7.83l-.13,8-2.34.28Z"/><path class="cls-13" d="M183.94,39.1l2.11-.08L186,42.45a13.87,13.87,0,0,1,1-3.1c.31-.61.69-.93,1.11-.94s.82.29,1.07.94a11.5,11.5,0,0,1,.6,2.9,15.88,15.88,0,0,1,1-3.13c.29-.56.64-.84,1.05-.86.6,0,1.06.69,1.37,2.14a33.51,33.51,0,0,1,.37,6.81l-.27,14.3-2.14.26.24-13.06a14,14,0,0,0-.1-2.31c-.13-.79-.31-1.17-.52-1.16s-.47.41-.64,1.17a20.32,20.32,0,0,0-.3,3.65L189.57,62l-2.2.27.23-12.79c0-1,0-1.72,0-2.09a6.42,6.42,0,0,0-.22-1.4c-.11-.35-.25-.52-.4-.51s-.48.42-.65,1.21a20.77,20.77,0,0,0-.32,3.85l-.2,11.91-2.25.27Z"/><path class="cls-13" d="M200.64,51.67l-4.1.36a18.17,18.17,0,0,0,.21,3.07q.27,1.42.75,1.38c.2,0,.4-.25.59-.69a9.32,9.32,0,0,0,.39-1.45l2,.58a21.27,21.27,0,0,1-1.2,4.92,2.48,2.48,0,0,1-1.9,1.69,1.6,1.6,0,0,1-1.67-1.06,13.27,13.27,0,0,1-.95-3.91,43.33,43.33,0,0,1-.29-6.46,37.8,37.8,0,0,1,1-8.68c.59-2.23,1.36-3.35,2.32-3.39.77,0,1.36.43,1.79,1.39a14.51,14.51,0,0,1,.91,4.16,59.59,59.59,0,0,1,.2,7.13Zm-2-3.93a18.79,18.79,0,0,0-.25-3.55c-.16-.71-.38-1.06-.67-1s-.6.58-.82,1.68a21.36,21.36,0,0,0-.3,3.06Z"/><path class="cls-13" d="M204.48,54.11l2-1a9,9,0,0,0,.29,2.07c.13.41.32.6.55.57s.46-.28.62-.77a5,5,0,0,0,.19-1.34,3.33,3.33,0,0,0-.19-1.36,2.25,2.25,0,0,0-.8-.78,4.64,4.64,0,0,1-1.37-1.28,6.06,6.06,0,0,1-.62-2.14,19.89,19.89,0,0,1-.2-3.51,20.75,20.75,0,0,1,.37-3.75,7,7,0,0,1,.86-2.38,1.67,1.67,0,0,1,1.38-.83,1.45,1.45,0,0,1,1.31.54,5,5,0,0,1,.66,1.81,26.63,26.63,0,0,1,.4,3.33l-1.82.88a6.45,6.45,0,0,0-.21-1.52c-.14-.42-.32-.63-.53-.62s-.38.19-.49.53a4.34,4.34,0,0,0-.17,1.23,2.79,2.79,0,0,0,.16,1.2,1.53,1.53,0,0,0,.81.68,2.8,2.8,0,0,1,1.39,1.2,7,7,0,0,1,.65,2.32,20.84,20.84,0,0,1,.17,3.36,25.65,25.65,0,0,1-.34,3.64,9.7,9.7,0,0,1-.88,2.89,2,2,0,0,1-1.55,1.23c-.91.11-1.56-.38-1.93-1.47a17.5,17.5,0,0,1-.66-4.77"/><path class="cls-13" d="M210.59,48.82a36.81,36.81,0,0,1,.93-8.14c.55-2.15,1.25-3.23,2.1-3.27s1.65,1.17,2.07,3.6a37.07,37.07,0,0,1,.41,7.25,37,37,0,0,1-.9,8c-.53,2.12-1.23,3.24-2.09,3.34s-1.38-.69-1.82-2.38a31.52,31.52,0,0,1-.7-8.41m1.87-.17a23.84,23.84,0,0,0,.16,4.19c.16.89.36,1.32.63,1.29s.49-.49.68-1.4a26.65,26.65,0,0,0,.35-4.3,23.92,23.92,0,0,0-.16-4.09c-.15-.89-.35-1.32-.61-1.31s-.5.49-.69,1.42a24.09,24.09,0,0,0-.36,4.2"/><path class="cls-13" d="M219.56,29.7l-.2,8,1,0-.14,5.83-1,.06L219,50.88a16.79,16.79,0,0,0,0,1.75c0,.44.14.65.28.63s.32-.2.56-.56v5.45a2.18,2.18,0,0,1-1.23.79.86.86,0,0,1-.95-.64A7.75,7.75,0,0,1,217.3,56q-.12-1.55,0-5l.17-7.37-.66.05.14-5.91.66,0,.09-3.86Z"/><path class="cls-13" d="M223.44,29.66l-.2,7.84.94,0L224,43.21l-.94.06-.18,7.26c0,.87,0,1.44,0,1.72s.14.64.28.63.3-.2.54-.55v5.36a2.1,2.1,0,0,1-1.2.78.85.85,0,0,1-.93-.64,8,8,0,0,1-.39-2.23c-.07-1-.08-2.67,0-5l.18-7.25-.64,0,.15-5.82.64,0,.09-3.8Z"/><path class="cls-13" d="M224.52,47.7A36.55,36.55,0,0,1,225.4,40q.75-3,1.89-3.09,1.31,0,1.86,3.42a37.26,37.26,0,0,1,.34,6.89,37.75,37.75,0,0,1-.84,7.61c-.49,2-1.12,3.06-1.9,3.16s-1.24-.67-1.63-2.27a32.14,32.14,0,0,1-.6-8m1.69-.15a23.09,23.09,0,0,0,.13,4c.13.85.32,1.26.56,1.23s.44-.46.61-1.32a25.5,25.5,0,0,0,.34-4.09,24.4,24.4,0,0,0-.13-3.88c-.13-.84-.31-1.26-.54-1.25s-.45.47-.63,1.35a24.12,24.12,0,0,0-.34,4"/><path class="cls-13" d="M233.48,29.56l1.58,0-.14,5.14-1.58,0Zm-.2,7.53,1.57-.06-.53,19.57-1.57.19Z"/><polygon class="cls-13" points="236.1 29.53 237.65 29.52 236.9 56.29 235.36 56.48 236.1 29.53"/><polygon class="cls-13" points="241.2 29.48 242.68 29.46 241.91 55.69 240.44 55.87 241.2 29.48"/><path class="cls-13" d="M247.21,47.58l-2.85.25a18.53,18.53,0,0,0,.11,2.57c.12.79.29,1.18.51,1.16s.28-.21.41-.57a8.07,8.07,0,0,0,.29-1.2l1.37.51a20.26,20.26,0,0,1-.89,4.09c-.33.85-.77,1.31-1.34,1.37s-.87-.24-1.14-.9a12.72,12.72,0,0,1-.61-3.27,43.15,43.15,0,0,1-.13-5.39,38.16,38.16,0,0,1,.78-7.22c.43-1.84,1-2.78,1.64-2.8s.94.37,1.22,1.17a13.92,13.92,0,0,1,.6,3.48,58.88,58.88,0,0,1,0,6Zm-1.33-3.3a19.13,19.13,0,0,0-.14-3c-.1-.6-.25-.89-.45-.88s-.42.48-.58,1.4a19,19,0,0,0-.24,2.54Z"/><path class="cls-13" d="M250.08,29.39l-.22,7,.76,0-.16,5.16-.76,0-.2,6.52c0,.78,0,1.3,0,1.55s.11.57.22.56.25-.17.44-.49l0,4.83a1.67,1.67,0,0,1-1,.68c-.34,0-.59-.15-.74-.58a7.91,7.91,0,0,1-.3-2c0-.91,0-2.4,0-4.46l.19-6.51-.51,0L248,36.5l.51,0,.11-3.42Z"/><path class="cls-13" d="M253.12,29.36l-.22,6.94.74,0-.16,5.09-.74,0-.2,6.43c0,.78,0,1.29,0,1.53s.11.57.22.56.24-.17.42-.48l0,4.76a1.59,1.59,0,0,1-.94.67q-.51.06-.72-.57a7.89,7.89,0,0,1-.29-2c0-.9,0-2.36,0-4.4l.2-6.42-.5,0,.15-5.15.51,0,.1-3.37Z"/><path class="cls-13" d="M253.82,45.34a37.14,37.14,0,0,1,.75-6.84c.41-1.8.92-2.72,1.51-2.74s1.16,1,1.44,3.05a38,38,0,0,1,.21,6.12,36.27,36.27,0,0,1-.73,6.75c-.39,1.79-.9,2.72-1.51,2.79s-1-.61-1.26-2a31.47,31.47,0,0,1-.41-7.09m1.32-.12a23.85,23.85,0,0,0,.08,3.53c.1.75.24,1.12.42,1.1s.36-.41.5-1.17a26.27,26.27,0,0,0,.3-3.63,24.68,24.68,0,0,0-.07-3.45q-.15-1.12-.42-1.11c-.19,0-.36.41-.51,1.19a24.5,24.5,0,0,0-.3,3.54"/><path class="cls-13" d="M18.9,116.08l5.35-1,.16,9.21-5.34,1.14Zm.24,13.57,5.34-1.18.6,34.9L19.79,165Z"/><polygon class="cls-13" points="27.79 114.37 32.95 113.38 33.68 160.81 28.57 162.33 27.79 114.37"/><path class="cls-17" d="M44.65,124l4.46-1,.06,4.85A19.08,19.08,0,0,1,51,123.11a3.72,3.72,0,0,1,2.3-1.79,2.06,2.06,0,0,1,2.29.89A10.84,10.84,0,0,1,57,126a21.32,21.32,0,0,1,1.9-4.79,3.46,3.46,0,0,1,2.14-1.62c1.25-.27,2.22.54,2.93,2.44s1.08,5,1.12,9.33l.17,20-4.41,1.32-.17-18.3a12.09,12.09,0,0,0-.34-3.18c-.31-1-.69-1.51-1.14-1.4s-.95.76-1.26,1.9a20.4,20.4,0,0,0-.44,5.23l.17,16.7L53.12,155l-.2-18c0-1.44-.06-2.42-.12-2.92a5.43,5.43,0,0,0-.54-1.87c-.25-.45-.54-.63-.87-.55-.54.13-1,.79-1.31,2a21.67,21.67,0,0,0-.45,5.56L49.82,156l-4.74,1.41Z"/><path class="cls-17" d="M79.55,129.21,79,130.89l-.68-1-.8,1.26h0l-.62-.91-1.25,1.26c0,.39,0,.79,0,1.21,0,.75,0,1.46,0,2.11a20.12,20.12,0,0,1-.51,4.34c-.37,1.41-.86,2.2-1.46,2.37-.42.12-.8-.11-1.12-.68a5.61,5.61,0,0,1-.39-.9,21.55,21.55,0,0,1-.64-6,25.22,25.22,0,0,1,.56-6.33c.39-1.45.9-2.25,1.51-2.39s1.06.4,1.46,1.63a11.67,11.67,0,0,1,.43,2.17l.5-1.87,1.34.92.59-1.85,1.67.94a27,27,0,0,0-1.15-5.89c-1.12-3.36-2.77-4.81-5-4.32q-2.89.63-4.59,5.73A38.72,38.72,0,0,0,67.2,135q.06,7.8,2.15,12,1.68,3.34,4.32,2.55c2-.59,3.46-2.55,4.53-5.9a39.22,39.22,0,0,0,1.57-12.08Z"/><path class="cls-17" d="M81,138.17,85,136a8.2,8.2,0,0,0,.69,2.75.94.94,0,0,0,1.16.55A2,2,0,0,0,88.07,138a5,5,0,0,0,.32-1.93,3,3,0,0,0-.44-1.81,3.43,3.43,0,0,0-1.69-.73,7.48,7.48,0,0,1-2.88-1.2A5.57,5.57,0,0,1,82,129.57a18.09,18.09,0,0,1-.58-4.79,21.41,21.41,0,0,1,.58-5.39,9.58,9.58,0,0,1,1.64-3.66,4.75,4.75,0,0,1,2.8-1.69,3.32,3.32,0,0,1,2.7.23,4.58,4.58,0,0,1,1.44,2.24,22.15,22.15,0,0,1,1,4.44l-3.67,2a5.55,5.55,0,0,0-.49-2c-.31-.54-.68-.76-1.12-.65a1.38,1.38,0,0,0-1,.93A4.92,4.92,0,0,0,85,123a2.61,2.61,0,0,0,.4,1.6,2.57,2.57,0,0,0,1.69.61A4.54,4.54,0,0,1,90,126.26a6.13,6.13,0,0,1,1.45,2.93,19.12,19.12,0,0,1,.5,4.56,25.18,25.18,0,0,1-.51,5.17,12.73,12.73,0,0,1-1.64,4.37,5.41,5.41,0,0,1-3.1,2.38q-2.81.84-4-1.17A15.2,15.2,0,0,1,81,138.17"/><path class="cls-17" d="M98.2,100.82l0,11.29,2-.45v8.25l-2,.49v10.43a18.22,18.22,0,0,0,.12,2.45c.13.59.34.84.64.76a3,3,0,0,0,1.14-1l.27,7.63a6.62,6.62,0,0,1-2.54,1.67,1.72,1.72,0,0,1-2.05-.47,7,7,0,0,1-1-3,55.76,55.76,0,0,1-.33-7.07l0-10.45-1.4.34,0-8.4,1.4-.32v-5.49Z"/><path class="cls-17" d="M102,111.27l3.38-.75v4.75a22.66,22.66,0,0,1,1-4.47q.51-1.27,1.26-1.44c.52-.11,1.09.27,1.7,1.15l-1.09,8.1q-.63-.66-1-.57c-.46.11-.82.79-1.08,2a55.27,55.27,0,0,0-.55,9.6v9.63L102,140.4Z"/><path class="cls-17" d="M109.79,123.94a38.83,38.83,0,0,1,1.41-11.12q1.41-4.54,3.74-5.06c1.77-.39,3.09.95,4,4a34.55,34.55,0,0,1,1,9.38A38.61,38.61,0,0,1,118.59,132q-1.34,4.49-3.7,5.2c-1.42.42-2.58-.38-3.46-2.42q-1.65-3.83-1.64-10.84m3.46-.93a21.61,21.61,0,0,0,.47,5.46c.32,1.11.72,1.6,1.2,1.46s.89-.84,1.2-2.1a26.8,26.8,0,0,0,.48-5.8,21.25,21.25,0,0,0-.46-5.31c-.31-1.12-.7-1.62-1.16-1.51s-.91.83-1.23,2.12a24.53,24.53,0,0,0-.5,5.68"/><path class="cls-13" d="M126.82,143.27l.18-37.54,2.95-.66,0,4a19.15,19.15,0,0,1,1.12-3.68c.46-.9,1-1.41,1.51-1.53,1.07-.23,1.88,1,2.45,3.57a47.36,47.36,0,0,1,.79,9.91,44.5,44.5,0,0,1-1,10.38q-1,3.77-2.42,4.21a1.2,1.2,0,0,1-1.29-.42,5.68,5.68,0,0,1-1-2.09l-.07,12.8Zm3.26-24.62a18.75,18.75,0,0,0,.38,4.65c.26,1,.6,1.37,1,1.26s.66-.68.91-1.73a26.48,26.48,0,0,0,.39-5.1,20.46,20.46,0,0,0-.35-4.7c-.25-1-.55-1.4-.92-1.31s-.72.69-1,1.79a23.91,23.91,0,0,0-.43,5.14"/><path class="cls-13" d="M145.15,127.53l-2.68.8,0-4.21a20.81,20.81,0,0,1-1.25,4.06,2.69,2.69,0,0,1-1.54,1.56q-1.22.36-1.89-1.92a28.31,28.31,0,0,1-.64-7.49l.12-16.89,3-.66-.11,14.48a15.13,15.13,0,0,0,.24,3.43c.17.64.42.92.74.83s.63-.64.86-1.61a26.08,26.08,0,0,0,.37-5l.1-12.59,2.89-.64Z"/><path class="cls-13" d="M146.63,114.34a38.32,38.32,0,0,1,1.23-10q1.17-4.08,3.07-4.5c1.44-.32,2.5.92,3.19,3.7a34.12,34.12,0,0,1,.78,8.51,38.74,38.74,0,0,1-1.18,9.8c-.75,2.68-1.76,4.21-3.05,4.6s-2.09-.41-2.79-2.28a28.64,28.64,0,0,1-1.25-9.83m2.1-23.85L151.1,90l1,7-1.3.27Zm.71,23.09a22.19,22.19,0,0,0,.35,5q.38,1.52,1,1.35c.4-.11.73-.73,1-1.87a25.59,25.59,0,0,0,.43-5.23,20.94,20.94,0,0,0-.33-4.82c-.24-1-.56-1.48-.94-1.39s-.74.73-1,1.89a25.16,25.16,0,0,0-.45,5.12"/><path class="cls-13" d="M167.87,87.42l-.45,33.46-2.34.7,0-3.59a19.23,19.23,0,0,1-.94,3.36c-.38.81-.79,1.28-1.24,1.42q-1.37.41-2-3.19a47.42,47.42,0,0,1-.62-9.12,45.14,45.14,0,0,1,.92-9.62c.56-2.3,1.26-3.54,2.08-3.72a1,1,0,0,1,1.07.51,6.06,6.06,0,0,1,.83,2l.15-11.74Zm-2.8,22a19.29,19.29,0,0,0-.28-4.2c-.2-.89-.48-1.3-.81-1.22s-.55.59-.77,1.55a25.21,25.21,0,0,0-.35,4.65,21.15,21.15,0,0,0,.25,4.32c.2.87.45,1.26.75,1.18s.6-.63.83-1.63a25.1,25.1,0,0,0,.38-4.65"/><path class="cls-13" d="M168.78,108.57a37.71,37.71,0,0,1,1.12-9.34c.69-2.53,1.59-3.91,2.7-4.16s2.17.9,2.77,3.51a34.87,34.87,0,0,1,.63,8,37.77,37.77,0,0,1-1.08,9.16q-1,3.75-2.68,4.26c-1,.3-1.82-.43-2.42-2.19a28.63,28.63,0,0,1-1-9.22m2.45-.66a21.69,21.69,0,0,0,.28,4.63c.21.95.49,1.38.83,1.29s.64-.68.88-1.74a26.71,26.71,0,0,0,.4-4.89,21.74,21.74,0,0,0-.27-4.52c-.21-1-.48-1.39-.81-1.31s-.65.67-.89,1.75a24.54,24.54,0,0,0-.42,4.79"/><path class="cls-13" d="M177.33,94.56l2.18-.48-.06,3.83a21.84,21.84,0,0,1,.69-3.57c.23-.67.51-1,.83-1.11s.7.25,1.08,1l-.8,6.5c-.27-.37-.47-.53-.63-.5s-.54.62-.72,1.62a55.47,55.47,0,0,0-.48,7.72l-.13,7.79L177,118Z"/><path class="cls-13" d="M183,93.3l2.09-.47-.06,3.36A16.06,16.06,0,0,1,186,93a1.82,1.82,0,0,1,1.1-1.13c.46-.1.81.15,1.07.73a10.29,10.29,0,0,1,.59,2.72,18,18,0,0,1,1-3.23,1.7,1.7,0,0,1,1-1c.6-.13,1,.49,1.36,1.84a31.61,31.61,0,0,1,.37,6.58l-.26,14-2.13.64.24-12.78a12.74,12.74,0,0,0-.11-2.23c-.13-.74-.3-1.08-.51-1s-.47.48-.64,1.25a21.5,21.5,0,0,0-.29,3.61l-.21,11.63-2.18.65.22-12.5c0-1,0-1.68,0-2a5,5,0,0,0-.22-1.32c-.11-.33-.24-.47-.39-.43s-.47.49-.65,1.29a21.09,21.09,0,0,0-.31,3.81l-.2,11.65-2.23.66Z"/><path class="cls-13" d="M194.18,82.36l2.08-.4-.12,5.79-2.07.44Zm-.16,8.5,2.07-.46-.43,22-2.07.62Z"/><path class="cls-13" d="M197.42,90.1l1.9-.42-.07,3.59a22.08,22.08,0,0,1,.62-3.33c.21-.63.45-1,.73-1s.61.25.94.93l-.74,6.08c-.22-.35-.41-.51-.54-.48s-.48.57-.64,1.5a56,56,0,0,0-.46,7.22l-.14,7.29-2,.6Z"/><path class="cls-13" d="M207.38,100.46l-3.85,1a17,17,0,0,0,.19,2.87c.17.88.4,1.27.7,1.19s.38-.31.56-.76a9.21,9.21,0,0,0,.36-1.43l1.86.21a23.06,23.06,0,0,1-1.13,4.87,3,3,0,0,1-1.79,1.92,1.23,1.23,0,0,1-1.56-.73,11.14,11.14,0,0,1-.89-3.54,41.17,41.17,0,0,1-.25-6.08,38.34,38.34,0,0,1,.94-8.4c.56-2.21,1.28-3.41,2.18-3.6.72-.16,1.28.18,1.67,1a12.15,12.15,0,0,1,.86,3.79,57.87,57.87,0,0,1,.17,6.73Zm-1.86-3.4a17.6,17.6,0,0,0-.22-3.32c-.15-.65-.36-.94-.62-.88s-.57.65-.78,1.74a22.29,22.29,0,0,0-.28,2.94Z"/><path class="cls-13" d="M213.16,93.32l-1.73-.38c.1-1.36.22-2.43.36-3.23a11.16,11.16,0,0,1,.59-2.12,3.08,3.08,0,0,1,.71-1.1A2,2,0,0,1,214,86a1.77,1.77,0,0,1,1.3.11,2.42,2.42,0,0,1,.77,1.48,13.37,13.37,0,0,1,.3,2.39c.06,1,.08,2,.06,3l-.22,9c0,1,0,1.71,0,2.25s.06,1.21.13,2l-1.67.5c0-.51-.09-.9-.1-1.17s0-.7,0-1.29a12,12,0,0,1-.76,2.34,2.07,2.07,0,0,1-1.13,1.18c-.57.17-1-.27-1.26-1.33a15.71,15.71,0,0,1-.34-4.12,20.54,20.54,0,0,1,.41-4,5.46,5.46,0,0,1,1.23-2.58q1-1.15,1.35-1.59a9.86,9.86,0,0,0,.66-1.11,10.15,10.15,0,0,0-.09-2c-.08-.36-.24-.52-.47-.47s-.52.34-.68.79a10.25,10.25,0,0,0-.33,1.91m1.47,3.77a11.86,11.86,0,0,1-.79,1.23,4.32,4.32,0,0,0-.73,1.46,7.58,7.58,0,0,0-.19,1.5,6.1,6.1,0,0,0,.12,1.49c.09.37.23.52.42.47s.39-.32.58-.8a7.92,7.92,0,0,0,.4-1.66,21.23,21.23,0,0,0,.16-2.43Z"/><path class="cls-13" d="M220.77,97.14l1.6.39a35.68,35.68,0,0,1-.53,4.07,12.56,12.56,0,0,1-.85,2.82,2.16,2.16,0,0,1-1.24,1.29,1.13,1.13,0,0,1-1.18-.24,3.74,3.74,0,0,1-.78-1.7,19.11,19.11,0,0,1-.47-3,45.74,45.74,0,0,1-.08-4.78,50.44,50.44,0,0,1,.36-5.31,26.93,26.93,0,0,1,.55-2.88,10.49,10.49,0,0,1,.68-2,2,2,0,0,1,1.32-1.22c.73-.17,1.28.3,1.63,1.39a20.55,20.55,0,0,1,.67,5l-1.63,1.36a7.64,7.64,0,0,0-.23-1.88c-.12-.4-.29-.58-.52-.53s-.53.59-.73,1.56a26,26,0,0,0-.37,4.25,19.63,19.63,0,0,0,.17,3.72c.16.81.37,1.18.64,1.11s.43-.38.59-.94a13.41,13.41,0,0,0,.4-2.48"/><path class="cls-13" d="M226.4,95.63l1.53.39a36.38,36.38,0,0,1-.52,4,12.45,12.45,0,0,1-.81,2.76,2.1,2.1,0,0,1-1.19,1.25,1,1,0,0,1-1.13-.24,3.67,3.67,0,0,1-.75-1.67,20,20,0,0,1-.44-2.95,44.27,44.27,0,0,1-.07-4.68,48.69,48.69,0,0,1,.36-5.2,26.65,26.65,0,0,1,.53-2.81,10.35,10.35,0,0,1,.65-1.91,2,2,0,0,1,1.27-1.19c.7-.16,1.22.3,1.55,1.37A20,20,0,0,1,228,89.6l-1.57,1.32a7.53,7.53,0,0,0-.21-1.84c-.12-.4-.28-.57-.5-.52s-.51.57-.7,1.52a26.26,26.26,0,0,0-.36,4.16,19,19,0,0,0,.16,3.64c.14.8.35,1.16.61,1.09s.4-.37.56-.92a13.63,13.63,0,0,0,.39-2.42"/><path class="cls-13" d="M230.3,89.09l-1.51-.38c.09-1.27.2-2.28.33-3a10.51,10.51,0,0,1,.52-2,2.86,2.86,0,0,1,.63-1,1.69,1.69,0,0,1,.84-.5,1.44,1.44,0,0,1,1.13.13,2.28,2.28,0,0,1,.67,1.39,13.9,13.9,0,0,1,.25,2.25c.05,1,.06,1.92,0,2.83L233,97.27c0,.9,0,1.61,0,2.11s.05,1.14.11,1.91l-1.47.44c0-.48-.07-.85-.08-1.1s0-.66,0-1.21a13.28,13.28,0,0,1-.67,2.18,1.9,1.9,0,0,1-1,1.09c-.5.15-.87-.27-1.1-1.27a16,16,0,0,1-.28-3.87,21.5,21.5,0,0,1,.38-3.74,5.14,5.14,0,0,1,1.09-2.4c.61-.71,1-1.2,1.19-1.47a8.24,8.24,0,0,0,.58-1A9.27,9.27,0,0,0,231.6,87c-.07-.35-.2-.5-.41-.45s-.46.3-.6.72a10,10,0,0,0-.29,1.79m1.27,3.56a11.83,11.83,0,0,1-.7,1.14,4.12,4.12,0,0,0-.65,1.35,7.56,7.56,0,0,0-.17,1.41,6.8,6.8,0,0,0,.09,1.4c.08.35.2.49.37.45s.35-.3.51-.74a7.64,7.64,0,0,0,.36-1.56c.08-.59.13-1.35.16-2.27Z"/><path class="cls-13" d="M234.31,81.92l1.43-.32-.09,3.12a17.87,17.87,0,0,1,.72-2.87c.24-.6.51-.93.82-1s.72.43.92,1.57a29.94,29.94,0,0,1,.2,5.44L238,99.82l-1.51.45.29-10.4a15.51,15.51,0,0,0-.06-2.49c-.08-.47-.2-.69-.37-.65s-.34.42-.48,1.11a27.44,27.44,0,0,0-.27,3.65l-.25,9.12-1.54.46Z"/><path class="cls-13" d="M241.38,73.27l-.21,7.13.8-.18-.15,5.23-.8.19-.19,6.6a12.62,12.62,0,0,0,0,1.56c0,.39.11.56.23.53s.26-.23.46-.58l0,4.86a2.18,2.18,0,0,1-1,.88c-.36.11-.62,0-.78-.44a6.69,6.69,0,0,1-.33-2q-.09-1.36,0-4.5l.19-6.59-.54.13.15-5.28.54-.12.1-3.46Z"/><path class="cls-13" d="M242.21,89.44a37.23,37.23,0,0,1,.79-7.13c.44-1.92,1-3,1.63-3.09s1.27.78,1.58,2.82a35.65,35.65,0,0,1,.26,6.19,37.9,37.9,0,0,1-.77,7c-.42,1.9-1,2.95-1.63,3.15S243,98,242.68,96.59a29.39,29.39,0,0,1-.47-7.15m1.44-.39a22.68,22.68,0,0,0,.09,3.58c.12.75.27,1.09.47,1s.39-.49.54-1.3a26.37,26.37,0,0,0,.31-3.76,24.36,24.36,0,0,0-.09-3.49c-.11-.75-.27-1.1-.46-1.05s-.39.49-.55,1.31a25.07,25.07,0,0,0-.31,3.67"/><path class="cls-13" d="M250.77,84l-1.27-.38c.08-1.16.18-2.09.29-2.77a12,12,0,0,1,.45-1.81,2.78,2.78,0,0,1,.54-.93,1.34,1.34,0,0,1,.71-.44,1.1,1.1,0,0,1,.95.13,2.22,2.22,0,0,1,.56,1.3,13.81,13.81,0,0,1,.2,2.07c0,.9,0,1.77,0,2.6L253,91.62c0,.84,0,1.48,0,1.95s0,1.05.08,1.76l-1.24.37c0-.44-.06-.78-.06-1s0-.61,0-1.12a12.85,12.85,0,0,1-.58,2,1.66,1.66,0,0,1-.85,1c-.42.12-.73-.27-.91-1.2a16.08,16.08,0,0,1-.22-3.57,21.52,21.52,0,0,1,.34-3.43,5,5,0,0,1,.93-2.18c.52-.65.86-1.09,1-1.34a7.68,7.68,0,0,0,.49-.93,10.46,10.46,0,0,0,0-1.74c-.06-.32-.17-.46-.34-.42s-.39.28-.51.66a8.26,8.26,0,0,0-.26,1.64m1,3.3a11,11,0,0,1-.61,1,4.07,4.07,0,0,0-.55,1.23,8.17,8.17,0,0,0-.15,1.29,6.71,6.71,0,0,0,.07,1.29c.06.32.17.46.31.42s.29-.27.43-.67a7.29,7.29,0,0,0,.32-1.42,20.91,20.91,0,0,0,.14-2.09Z"/><path class="cls-13" d="M258.12,70.05l-.22,6.64.7-.16-.16,4.87-.7.17-.2,6.15c0,.74,0,1.22,0,1.45s.09.52.2.49.22-.2.4-.53l-.06,4.54a2,2,0,0,1-.89.8c-.31.09-.54,0-.68-.43a7.59,7.59,0,0,1-.27-1.84c0-.84,0-2.24,0-4.18l.2-6.14L256,82l.15-4.92.48-.1.1-3.22Z"/><path class="cls-13" d="M262.42,85.73l-2.45.66a15.85,15.85,0,0,0,.08,2.31c.1.71.24,1,.43,1s.24-.23.36-.58a8.89,8.89,0,0,0,.25-1.14l1.18.26a21.18,21.18,0,0,1-.79,3.86c-.28.82-.67,1.3-1.15,1.45s-.76-.09-1-.66a10.86,10.86,0,0,1-.51-2.88,41.39,41.39,0,0,1-.09-4.87,38.36,38.36,0,0,1,.71-6.68c.38-1.74.85-2.67,1.42-2.8s.81.19,1.05.87a12.37,12.37,0,0,1,.49,3.08q.13,2,0,5.4Zm-1.13-2.81a18,18,0,0,0-.1-2.67c-.09-.52-.22-.77-.38-.72s-.37.49-.52,1.35c-.09.54-.16,1.32-.22,2.35Z"/></g><g class="cls-18"><g class="cls-19"><rect class="cls-20" x="-20.69" y="181.58" width="321.7" height="271.78" transform="translate(-133.51 104.08) rotate(-28.23)"/></g></g><g class="cls-10"><g class="cls-21"><g class="cls-22"><path class="cls-6" d="M137.57,316.86h0c-18.74,1.28-56.62,9.6-69.41,18.34-16.06,11-24.35,23.55-22.88,38.32C55.19,473.23-64,484.13-120.66,489.2c-2.22.2-2.71,1.49-.54,1.44,153.45-3.72,195.53-56.36,195.88-67.88a22.46,22.46,0,0,1,1.34-8.3c26.37-63.65,141.29-39.83,141.29-39.83a50.78,50.78,0,0,1-11.4-4.61l6.88-6.87-18.18-1.45c-.39-.38-.76-.76-1.14-1.16l7.26-7.18-14.55-3.44c-13.45-28.29,14.42-14.56,18.14-12.88a.53.53,0,0,1,.37.49l-.43,8.21c0,.37.49.64,1.06.56l14-1.82c.72-.09,1.24.37.91.8l-6.28,8.28c-.3.4.13.83.8.79l16.65-1c.48,0,.86.21.84.52-.13,1.85-.54,7.62-.71,10.07,0,.46.77.67,1.35.35,107.17-59.25-48.79-50.73-95.3-47.45"/><path class="cls-23" d="M137.57,316.86h0c-18.74,1.28-56.62,9.6-69.41,18.34-16.06,11-24.35,23.55-22.88,38.32C55.19,473.23-64,484.13-120.66,489.2c-2.22.2-2.71,1.49-.54,1.44,153.45-3.72,195.53-56.36,195.88-67.88a22.46,22.46,0,0,1,1.34-8.3c26.37-63.65,141.29-39.83,141.29-39.83a50.78,50.78,0,0,1-11.4-4.61l6.88-6.87-18.18-1.45c-.39-.38-.76-.76-1.14-1.16l7.26-7.18-14.55-3.44c-13.45-28.29,14.42-14.56,18.14-12.88a.53.53,0,0,1,.37.49l-.43,8.21c0,.37.49.64,1.06.56l14-1.82c.72-.09,1.24.37.91.8l-6.28,8.28c-.3.4.13.83.8.79l16.65-1c.48,0,.86.21.84.52-.13,1.85-.54,7.62-.71,10.07,0,.46.77.67,1.35.35C340,305.06,184.08,313.58,137.57,316.86Z"/></g></g></g><g class="cls-24"><rect class="cls-25" x="-7.67" y="104.8" width="216.02" height="135.02" transform="translate(-41.94 32.61) rotate(-15.31)"/></g><g class="cls-10"><path class="cls-26" d="M280.33,140.81v65.45L179.55,247a6,6,0,0,1-4.77-.26L79.42,198.51a5.76,5.76,0,0,1-1.85-1.46A5.92,5.92,0,0,1,76.22,194a6.78,6.78,0,0,1,0-.77V178.46a5.93,5.93,0,0,1,3.88-5.57L223.8,119.34h1.93l2.3.91,20.79,8.17,1.2.47Z"/></g><g class="cls-27"><rect class="cls-28" x="72.41" y="172.18" width="110.21" height="121.96" transform="translate(-138.19 238.54) rotate(-62.48)"/></g><g class="cls-29"><rect class="cls-30" x="169.74" y="188.97" width="117.78" height="92.96" transform="translate(-71.71 103.15) rotate(-22.07)"/></g><g class="cls-10"><polygon class="cls-7" points="92.97 115.34 95.17 114.63 95.17 116.13 92.97 116.84 92.97 115.34"/><path class="cls-7" d="M100.3,114.94v-1.45l-2.21.65v1.59l.83-.3s.26,1.33.61-.24"/><path class="cls-7" d="M94.07,116.48s.42,1.26.69-.22-.69.22-.69.22"/><path class="cls-7" d="M95.83,120s4.35-3.59,4.31-1.13c0,0,0-1.21-4.31,1.13"/><path class="cls-7" d="M95,111.9s1.6.41,1.71,1.29"/><path class="cls-7" d="M95.46,112.55s.6-.54.42-.92"/><path class="cls-7" d="M96.47,112.26c.07.4-.38.6-.38.6"/><path class="cls-7" d="M93.49,120.45s3.13.91,2.6,2.75c0,0,0-1.38-2.6-2.75"/><path class="cls-7" d="M93.82,121.16s1-.23.81-.81"/><path class="cls-7" d="M95,121.83s.38.06.43-.52"/><path class="cls-7" d="M95.69,122.5a.5.5,0,0,0,.59-.53"/><path class="cls-7" d="M94.48,121.32s.6.19.55-.44"/></g><text class="cls-31" transform="translate(271.68 386.29) rotate(-90)">Luigi Ciavarella 4<tspan class="cls-32" x="34.17" y="0">A</tspan><tspan class="cls-33" x="36.86" y="0">T </tspan></text></g></g></g></g></g></svg>